<?xml version="1.0" encoding="utf-8" standalone="no"?>
<!DOCTYPE svg PUBLIC "-//W3C//DTD SVG 1.1//EN"
  "http://www.w3.org/Graphics/SVG/1.1/DTD/svg11.dtd">
<svg xmlns:xlink="http://www.w3.org/1999/xlink" width="857.23424pt" height="423.034375pt" viewBox="0 0 857.23424 423.034375" xmlns="http://www.w3.org/2000/svg" version="1.1">
 <metadata>
  <rdf:RDF xmlns:dc="http://purl.org/dc/elements/1.1/" xmlns:cc="http://creativecommons.org/ns#" xmlns:rdf="http://www.w3.org/1999/02/22-rdf-syntax-ns#">
   <cc:Work>
    <dc:type rdf:resource="http://purl.org/dc/dcmitype/StillImage"/>
    <dc:date>2026-04-15T13:36:59.706429</dc:date>
    <dc:format>image/svg+xml</dc:format>
    <dc:creator>
     <cc:Agent>
      <dc:title>Matplotlib v3.10.8, https://matplotlib.org/</dc:title>
     </cc:Agent>
    </dc:creator>
   </cc:Work>
  </rdf:RDF>
 </metadata>
 <defs>
  <style type="text/css">*{stroke-linejoin: round; stroke-linecap: butt}</style>
 </defs>
 <g id="figure_1">
  <g id="patch_1">
   <path d="M 0 423.034375 
L 857.23424 423.034375 
L 857.23424 0 
L 0 0 
z
" style="fill: #ffffff"/>
  </g>
  <g id="axes_1">
   <g id="patch_2">
    <path d="M 43.78125 385.478125 
L 796.30525 385.478125 
L 796.30525 22.318125 
L 43.78125 22.318125 
z
" style="fill: #ffffff"/>
   </g>
   <g id="matplotlib.axis_1">
    <g id="xtick_1">
     <g id="line2d_1">
      <path d="M 43.78125 385.478125 
L 43.78125 22.318125 
" clip-path="url(#pdf30c5044c)" style="fill: none; stroke: #b0b0b0; stroke-opacity: 0.3; stroke-width: 0.8; stroke-linecap: square"/>
     </g>
     <g id="line2d_2">
      <defs>
       <path id="m5d2a432a6a" d="M 0 0 
L 0 3.5 
" style="stroke: #000000; stroke-width: 0.8"/>
      </defs>
      <g>
       <use xlink:href="#m5d2a432a6a" x="43.78125" y="385.478125" style="stroke: #000000; stroke-width: 0.8"/>
      </g>
     </g>
     <g id="text_1">
      <!-- 0 -->
      <g transform="translate(40.6 400.076562) scale(0.1 -0.1)">
       <defs>
        <path id="DejaVuSans-30" d="M 2034 4250 
Q 1547 4250 1301 3770 
Q 1056 3291 1056 2328 
Q 1056 1369 1301 889 
Q 1547 409 2034 409 
Q 2525 409 2770 889 
Q 3016 1369 3016 2328 
Q 3016 3291 2770 3770 
Q 2525 4250 2034 4250 
z
M 2034 4750 
Q 2819 4750 3233 4129 
Q 3647 3509 3647 2328 
Q 3647 1150 3233 529 
Q 2819 -91 2034 -91 
Q 1250 -91 836 529 
Q 422 1150 422 2328 
Q 422 3509 836 4129 
Q 1250 4750 2034 4750 
z
" transform="scale(0.015625)"/>
       </defs>
       <use xlink:href="#DejaVuSans-30"/>
      </g>
     </g>
    </g>
    <g id="xtick_2">
     <g id="line2d_3">
      <path d="M 137.84675 385.478125 
L 137.84675 22.318125 
" clip-path="url(#pdf30c5044c)" style="fill: none; stroke: #b0b0b0; stroke-opacity: 0.3; stroke-width: 0.8; stroke-linecap: square"/>
     </g>
     <g id="line2d_4">
      <g>
       <use xlink:href="#m5d2a432a6a" x="137.84675" y="385.478125" style="stroke: #000000; stroke-width: 0.8"/>
      </g>
     </g>
     <g id="text_2">
      <!-- 1000 -->
      <g transform="translate(125.12175 400.076562) scale(0.1 -0.1)">
       <defs>
        <path id="DejaVuSans-31" d="M 794 531 
L 1825 531 
L 1825 4091 
L 703 3866 
L 703 4441 
L 1819 4666 
L 2450 4666 
L 2450 531 
L 3481 531 
L 3481 0 
L 794 0 
L 794 531 
z
" transform="scale(0.015625)"/>
       </defs>
       <use xlink:href="#DejaVuSans-31"/>
       <use xlink:href="#DejaVuSans-30" transform="translate(63.623047 0)"/>
       <use xlink:href="#DejaVuSans-30" transform="translate(127.246094 0)"/>
       <use xlink:href="#DejaVuSans-30" transform="translate(190.869141 0)"/>
      </g>
     </g>
    </g>
    <g id="xtick_3">
     <g id="line2d_5">
      <path d="M 231.91225 385.478125 
L 231.91225 22.318125 
" clip-path="url(#pdf30c5044c)" style="fill: none; stroke: #b0b0b0; stroke-opacity: 0.3; stroke-width: 0.8; stroke-linecap: square"/>
     </g>
     <g id="line2d_6">
      <g>
       <use xlink:href="#m5d2a432a6a" x="231.91225" y="385.478125" style="stroke: #000000; stroke-width: 0.8"/>
      </g>
     </g>
     <g id="text_3">
      <!-- 2000 -->
      <g transform="translate(219.18725 400.076562) scale(0.1 -0.1)">
       <defs>
        <path id="DejaVuSans-32" d="M 1228 531 
L 3431 531 
L 3431 0 
L 469 0 
L 469 531 
Q 828 903 1448 1529 
Q 2069 2156 2228 2338 
Q 2531 2678 2651 2914 
Q 2772 3150 2772 3378 
Q 2772 3750 2511 3984 
Q 2250 4219 1831 4219 
Q 1534 4219 1204 4116 
Q 875 4013 500 3803 
L 500 4441 
Q 881 4594 1212 4672 
Q 1544 4750 1819 4750 
Q 2544 4750 2975 4387 
Q 3406 4025 3406 3419 
Q 3406 3131 3298 2873 
Q 3191 2616 2906 2266 
Q 2828 2175 2409 1742 
Q 1991 1309 1228 531 
z
" transform="scale(0.015625)"/>
       </defs>
       <use xlink:href="#DejaVuSans-32"/>
       <use xlink:href="#DejaVuSans-30" transform="translate(63.623047 0)"/>
       <use xlink:href="#DejaVuSans-30" transform="translate(127.246094 0)"/>
       <use xlink:href="#DejaVuSans-30" transform="translate(190.869141 0)"/>
      </g>
     </g>
    </g>
    <g id="xtick_4">
     <g id="line2d_7">
      <path d="M 325.97775 385.478125 
L 325.97775 22.318125 
" clip-path="url(#pdf30c5044c)" style="fill: none; stroke: #b0b0b0; stroke-opacity: 0.3; stroke-width: 0.8; stroke-linecap: square"/>
     </g>
     <g id="line2d_8">
      <g>
       <use xlink:href="#m5d2a432a6a" x="325.97775" y="385.478125" style="stroke: #000000; stroke-width: 0.8"/>
      </g>
     </g>
     <g id="text_4">
      <!-- 3000 -->
      <g transform="translate(313.25275 400.076562) scale(0.1 -0.1)">
       <defs>
        <path id="DejaVuSans-33" d="M 2597 2516 
Q 3050 2419 3304 2112 
Q 3559 1806 3559 1356 
Q 3559 666 3084 287 
Q 2609 -91 1734 -91 
Q 1441 -91 1130 -33 
Q 819 25 488 141 
L 488 750 
Q 750 597 1062 519 
Q 1375 441 1716 441 
Q 2309 441 2620 675 
Q 2931 909 2931 1356 
Q 2931 1769 2642 2001 
Q 2353 2234 1838 2234 
L 1294 2234 
L 1294 2753 
L 1863 2753 
Q 2328 2753 2575 2939 
Q 2822 3125 2822 3475 
Q 2822 3834 2567 4026 
Q 2313 4219 1838 4219 
Q 1578 4219 1281 4162 
Q 984 4106 628 3988 
L 628 4550 
Q 988 4650 1302 4700 
Q 1616 4750 1894 4750 
Q 2613 4750 3031 4423 
Q 3450 4097 3450 3541 
Q 3450 3153 3228 2886 
Q 3006 2619 2597 2516 
z
" transform="scale(0.015625)"/>
       </defs>
       <use xlink:href="#DejaVuSans-33"/>
       <use xlink:href="#DejaVuSans-30" transform="translate(63.623047 0)"/>
       <use xlink:href="#DejaVuSans-30" transform="translate(127.246094 0)"/>
       <use xlink:href="#DejaVuSans-30" transform="translate(190.869141 0)"/>
      </g>
     </g>
    </g>
    <g id="xtick_5">
     <g id="line2d_9">
      <path d="M 420.04325 385.478125 
L 420.04325 22.318125 
" clip-path="url(#pdf30c5044c)" style="fill: none; stroke: #b0b0b0; stroke-opacity: 0.3; stroke-width: 0.8; stroke-linecap: square"/>
     </g>
     <g id="line2d_10">
      <g>
       <use xlink:href="#m5d2a432a6a" x="420.04325" y="385.478125" style="stroke: #000000; stroke-width: 0.8"/>
      </g>
     </g>
     <g id="text_5">
      <!-- 4000 -->
      <g transform="translate(407.31825 400.076562) scale(0.1 -0.1)">
       <defs>
        <path id="DejaVuSans-34" d="M 2419 4116 
L 825 1625 
L 2419 1625 
L 2419 4116 
z
M 2253 4666 
L 3047 4666 
L 3047 1625 
L 3713 1625 
L 3713 1100 
L 3047 1100 
L 3047 0 
L 2419 0 
L 2419 1100 
L 313 1100 
L 313 1709 
L 2253 4666 
z
" transform="scale(0.015625)"/>
       </defs>
       <use xlink:href="#DejaVuSans-34"/>
       <use xlink:href="#DejaVuSans-30" transform="translate(63.623047 0)"/>
       <use xlink:href="#DejaVuSans-30" transform="translate(127.246094 0)"/>
       <use xlink:href="#DejaVuSans-30" transform="translate(190.869141 0)"/>
      </g>
     </g>
    </g>
    <g id="xtick_6">
     <g id="line2d_11">
      <path d="M 514.10875 385.478125 
L 514.10875 22.318125 
" clip-path="url(#pdf30c5044c)" style="fill: none; stroke: #b0b0b0; stroke-opacity: 0.3; stroke-width: 0.8; stroke-linecap: square"/>
     </g>
     <g id="line2d_12">
      <g>
       <use xlink:href="#m5d2a432a6a" x="514.10875" y="385.478125" style="stroke: #000000; stroke-width: 0.8"/>
      </g>
     </g>
     <g id="text_6">
      <!-- 5000 -->
      <g transform="translate(501.38375 400.076562) scale(0.1 -0.1)">
       <defs>
        <path id="DejaVuSans-35" d="M 691 4666 
L 3169 4666 
L 3169 4134 
L 1269 4134 
L 1269 2991 
Q 1406 3038 1543 3061 
Q 1681 3084 1819 3084 
Q 2600 3084 3056 2656 
Q 3513 2228 3513 1497 
Q 3513 744 3044 326 
Q 2575 -91 1722 -91 
Q 1428 -91 1123 -41 
Q 819 9 494 109 
L 494 744 
Q 775 591 1075 516 
Q 1375 441 1709 441 
Q 2250 441 2565 725 
Q 2881 1009 2881 1497 
Q 2881 1984 2565 2268 
Q 2250 2553 1709 2553 
Q 1456 2553 1204 2497 
Q 953 2441 691 2322 
L 691 4666 
z
" transform="scale(0.015625)"/>
       </defs>
       <use xlink:href="#DejaVuSans-35"/>
       <use xlink:href="#DejaVuSans-30" transform="translate(63.623047 0)"/>
       <use xlink:href="#DejaVuSans-30" transform="translate(127.246094 0)"/>
       <use xlink:href="#DejaVuSans-30" transform="translate(190.869141 0)"/>
      </g>
     </g>
    </g>
    <g id="xtick_7">
     <g id="line2d_13">
      <path d="M 608.17425 385.478125 
L 608.17425 22.318125 
" clip-path="url(#pdf30c5044c)" style="fill: none; stroke: #b0b0b0; stroke-opacity: 0.3; stroke-width: 0.8; stroke-linecap: square"/>
     </g>
     <g id="line2d_14">
      <g>
       <use xlink:href="#m5d2a432a6a" x="608.17425" y="385.478125" style="stroke: #000000; stroke-width: 0.8"/>
      </g>
     </g>
     <g id="text_7">
      <!-- 6000 -->
      <g transform="translate(595.44925 400.076562) scale(0.1 -0.1)">
       <defs>
        <path id="DejaVuSans-36" d="M 2113 2584 
Q 1688 2584 1439 2293 
Q 1191 2003 1191 1497 
Q 1191 994 1439 701 
Q 1688 409 2113 409 
Q 2538 409 2786 701 
Q 3034 994 3034 1497 
Q 3034 2003 2786 2293 
Q 2538 2584 2113 2584 
z
M 3366 4563 
L 3366 3988 
Q 3128 4100 2886 4159 
Q 2644 4219 2406 4219 
Q 1781 4219 1451 3797 
Q 1122 3375 1075 2522 
Q 1259 2794 1537 2939 
Q 1816 3084 2150 3084 
Q 2853 3084 3261 2657 
Q 3669 2231 3669 1497 
Q 3669 778 3244 343 
Q 2819 -91 2113 -91 
Q 1303 -91 875 529 
Q 447 1150 447 2328 
Q 447 3434 972 4092 
Q 1497 4750 2381 4750 
Q 2619 4750 2861 4703 
Q 3103 4656 3366 4563 
z
" transform="scale(0.015625)"/>
       </defs>
       <use xlink:href="#DejaVuSans-36"/>
       <use xlink:href="#DejaVuSans-30" transform="translate(63.623047 0)"/>
       <use xlink:href="#DejaVuSans-30" transform="translate(127.246094 0)"/>
       <use xlink:href="#DejaVuSans-30" transform="translate(190.869141 0)"/>
      </g>
     </g>
    </g>
    <g id="xtick_8">
     <g id="line2d_15">
      <path d="M 702.23975 385.478125 
L 702.23975 22.318125 
" clip-path="url(#pdf30c5044c)" style="fill: none; stroke: #b0b0b0; stroke-opacity: 0.3; stroke-width: 0.8; stroke-linecap: square"/>
     </g>
     <g id="line2d_16">
      <g>
       <use xlink:href="#m5d2a432a6a" x="702.23975" y="385.478125" style="stroke: #000000; stroke-width: 0.8"/>
      </g>
     </g>
     <g id="text_8">
      <!-- 7000 -->
      <g transform="translate(689.51475 400.076562) scale(0.1 -0.1)">
       <defs>
        <path id="DejaVuSans-37" d="M 525 4666 
L 3525 4666 
L 3525 4397 
L 1831 0 
L 1172 0 
L 2766 4134 
L 525 4134 
L 525 4666 
z
" transform="scale(0.015625)"/>
       </defs>
       <use xlink:href="#DejaVuSans-37"/>
       <use xlink:href="#DejaVuSans-30" transform="translate(63.623047 0)"/>
       <use xlink:href="#DejaVuSans-30" transform="translate(127.246094 0)"/>
       <use xlink:href="#DejaVuSans-30" transform="translate(190.869141 0)"/>
      </g>
     </g>
    </g>
    <g id="xtick_9">
     <g id="line2d_17">
      <path d="M 796.30525 385.478125 
L 796.30525 22.318125 
" clip-path="url(#pdf30c5044c)" style="fill: none; stroke: #b0b0b0; stroke-opacity: 0.3; stroke-width: 0.8; stroke-linecap: square"/>
     </g>
     <g id="line2d_18">
      <g>
       <use xlink:href="#m5d2a432a6a" x="796.30525" y="385.478125" style="stroke: #000000; stroke-width: 0.8"/>
      </g>
     </g>
     <g id="text_9">
      <!-- 8000 -->
      <g transform="translate(783.58025 400.076562) scale(0.1 -0.1)">
       <defs>
        <path id="DejaVuSans-38" d="M 2034 2216 
Q 1584 2216 1326 1975 
Q 1069 1734 1069 1313 
Q 1069 891 1326 650 
Q 1584 409 2034 409 
Q 2484 409 2743 651 
Q 3003 894 3003 1313 
Q 3003 1734 2745 1975 
Q 2488 2216 2034 2216 
z
M 1403 2484 
Q 997 2584 770 2862 
Q 544 3141 544 3541 
Q 544 4100 942 4425 
Q 1341 4750 2034 4750 
Q 2731 4750 3128 4425 
Q 3525 4100 3525 3541 
Q 3525 3141 3298 2862 
Q 3072 2584 2669 2484 
Q 3125 2378 3379 2068 
Q 3634 1759 3634 1313 
Q 3634 634 3220 271 
Q 2806 -91 2034 -91 
Q 1263 -91 848 271 
Q 434 634 434 1313 
Q 434 1759 690 2068 
Q 947 2378 1403 2484 
z
M 1172 3481 
Q 1172 3119 1398 2916 
Q 1625 2713 2034 2713 
Q 2441 2713 2670 2916 
Q 2900 3119 2900 3481 
Q 2900 3844 2670 4047 
Q 2441 4250 2034 4250 
Q 1625 4250 1398 4047 
Q 1172 3844 1172 3481 
z
" transform="scale(0.015625)"/>
       </defs>
       <use xlink:href="#DejaVuSans-38"/>
       <use xlink:href="#DejaVuSans-30" transform="translate(63.623047 0)"/>
       <use xlink:href="#DejaVuSans-30" transform="translate(127.246094 0)"/>
       <use xlink:href="#DejaVuSans-30" transform="translate(190.869141 0)"/>
      </g>
     </g>
    </g>
    <g id="text_10">
     <!-- Time [s] -->
     <g transform="translate(399.714344 413.754687) scale(0.1 -0.1)">
      <defs>
       <path id="DejaVuSans-54" d="M -19 4666 
L 3928 4666 
L 3928 4134 
L 2272 4134 
L 2272 0 
L 1638 0 
L 1638 4134 
L -19 4134 
L -19 4666 
z
" transform="scale(0.015625)"/>
       <path id="DejaVuSans-69" d="M 603 3500 
L 1178 3500 
L 1178 0 
L 603 0 
L 603 3500 
z
M 603 4863 
L 1178 4863 
L 1178 4134 
L 603 4134 
L 603 4863 
z
" transform="scale(0.015625)"/>
       <path id="DejaVuSans-6d" d="M 3328 2828 
Q 3544 3216 3844 3400 
Q 4144 3584 4550 3584 
Q 5097 3584 5394 3201 
Q 5691 2819 5691 2113 
L 5691 0 
L 5113 0 
L 5113 2094 
Q 5113 2597 4934 2840 
Q 4756 3084 4391 3084 
Q 3944 3084 3684 2787 
Q 3425 2491 3425 1978 
L 3425 0 
L 2847 0 
L 2847 2094 
Q 2847 2600 2669 2842 
Q 2491 3084 2119 3084 
Q 1678 3084 1418 2786 
Q 1159 2488 1159 1978 
L 1159 0 
L 581 0 
L 581 3500 
L 1159 3500 
L 1159 2956 
Q 1356 3278 1631 3431 
Q 1906 3584 2284 3584 
Q 2666 3584 2933 3390 
Q 3200 3197 3328 2828 
z
" transform="scale(0.015625)"/>
       <path id="DejaVuSans-65" d="M 3597 1894 
L 3597 1613 
L 953 1613 
Q 991 1019 1311 708 
Q 1631 397 2203 397 
Q 2534 397 2845 478 
Q 3156 559 3463 722 
L 3463 178 
Q 3153 47 2828 -22 
Q 2503 -91 2169 -91 
Q 1331 -91 842 396 
Q 353 884 353 1716 
Q 353 2575 817 3079 
Q 1281 3584 2069 3584 
Q 2775 3584 3186 3129 
Q 3597 2675 3597 1894 
z
M 3022 2063 
Q 3016 2534 2758 2815 
Q 2500 3097 2075 3097 
Q 1594 3097 1305 2825 
Q 1016 2553 972 2059 
L 3022 2063 
z
" transform="scale(0.015625)"/>
       <path id="DejaVuSans-20" transform="scale(0.015625)"/>
       <path id="DejaVuSans-5b" d="M 550 4863 
L 1875 4863 
L 1875 4416 
L 1125 4416 
L 1125 -397 
L 1875 -397 
L 1875 -844 
L 550 -844 
L 550 4863 
z
" transform="scale(0.015625)"/>
       <path id="DejaVuSans-73" d="M 2834 3397 
L 2834 2853 
Q 2591 2978 2328 3040 
Q 2066 3103 1784 3103 
Q 1356 3103 1142 2972 
Q 928 2841 928 2578 
Q 928 2378 1081 2264 
Q 1234 2150 1697 2047 
L 1894 2003 
Q 2506 1872 2764 1633 
Q 3022 1394 3022 966 
Q 3022 478 2636 193 
Q 2250 -91 1575 -91 
Q 1294 -91 989 -36 
Q 684 19 347 128 
L 347 722 
Q 666 556 975 473 
Q 1284 391 1588 391 
Q 1994 391 2212 530 
Q 2431 669 2431 922 
Q 2431 1156 2273 1281 
Q 2116 1406 1581 1522 
L 1381 1569 
Q 847 1681 609 1914 
Q 372 2147 372 2553 
Q 372 3047 722 3315 
Q 1072 3584 1716 3584 
Q 2034 3584 2315 3537 
Q 2597 3491 2834 3397 
z
" transform="scale(0.015625)"/>
       <path id="DejaVuSans-5d" d="M 1947 4863 
L 1947 -844 
L 622 -844 
L 622 -397 
L 1369 -397 
L 1369 4416 
L 622 4416 
L 622 4863 
L 1947 4863 
z
" transform="scale(0.015625)"/>
      </defs>
      <use xlink:href="#DejaVuSans-54"/>
      <use xlink:href="#DejaVuSans-69" transform="translate(57.958984 0)"/>
      <use xlink:href="#DejaVuSans-6d" transform="translate(85.742188 0)"/>
      <use xlink:href="#DejaVuSans-65" transform="translate(183.154297 0)"/>
      <use xlink:href="#DejaVuSans-20" transform="translate(244.677734 0)"/>
      <use xlink:href="#DejaVuSans-5b" transform="translate(276.464844 0)"/>
      <use xlink:href="#DejaVuSans-73" transform="translate(315.478516 0)"/>
      <use xlink:href="#DejaVuSans-5d" transform="translate(367.578125 0)"/>
     </g>
    </g>
   </g>
   <g id="matplotlib.axis_2">
    <g id="ytick_1">
     <g id="line2d_19">
      <path d="M 43.78125 378.494279 
L 796.30525 378.494279 
" clip-path="url(#pdf30c5044c)" style="fill: none; stroke: #b0b0b0; stroke-opacity: 0.3; stroke-width: 0.8; stroke-linecap: square"/>
     </g>
     <g id="line2d_20">
      <defs>
       <path id="m7f5ce42fba" d="M 0 0 
L -3.5 0 
" style="stroke: #000000; stroke-width: 0.8"/>
      </defs>
      <g>
       <use xlink:href="#m7f5ce42fba" x="43.78125" y="378.494279" style="stroke: #000000; stroke-width: 0.8"/>
      </g>
     </g>
     <g id="text_11">
      <!-- 0.0 -->
      <g transform="translate(20.878125 382.293498) scale(0.1 -0.1)">
       <defs>
        <path id="DejaVuSans-2e" d="M 684 794 
L 1344 794 
L 1344 0 
L 684 0 
L 684 794 
z
" transform="scale(0.015625)"/>
       </defs>
       <use xlink:href="#DejaVuSans-30"/>
       <use xlink:href="#DejaVuSans-2e" transform="translate(63.623047 0)"/>
       <use xlink:href="#DejaVuSans-30" transform="translate(95.410156 0)"/>
      </g>
     </g>
    </g>
    <g id="ytick_2">
     <g id="line2d_21">
      <path d="M 43.78125 308.655817 
L 796.30525 308.655817 
" clip-path="url(#pdf30c5044c)" style="fill: none; stroke: #b0b0b0; stroke-opacity: 0.3; stroke-width: 0.8; stroke-linecap: square"/>
     </g>
     <g id="line2d_22">
      <g>
       <use xlink:href="#m7f5ce42fba" x="43.78125" y="308.655817" style="stroke: #000000; stroke-width: 0.8"/>
      </g>
     </g>
     <g id="text_12">
      <!-- 0.2 -->
      <g transform="translate(20.878125 312.455036) scale(0.1 -0.1)">
       <use xlink:href="#DejaVuSans-30"/>
       <use xlink:href="#DejaVuSans-2e" transform="translate(63.623047 0)"/>
       <use xlink:href="#DejaVuSans-32" transform="translate(95.410156 0)"/>
      </g>
     </g>
    </g>
    <g id="ytick_3">
     <g id="line2d_23">
      <path d="M 43.78125 238.817356 
L 796.30525 238.817356 
" clip-path="url(#pdf30c5044c)" style="fill: none; stroke: #b0b0b0; stroke-opacity: 0.3; stroke-width: 0.8; stroke-linecap: square"/>
     </g>
     <g id="line2d_24">
      <g>
       <use xlink:href="#m7f5ce42fba" x="43.78125" y="238.817356" style="stroke: #000000; stroke-width: 0.8"/>
      </g>
     </g>
     <g id="text_13">
      <!-- 0.4 -->
      <g transform="translate(20.878125 242.616575) scale(0.1 -0.1)">
       <use xlink:href="#DejaVuSans-30"/>
       <use xlink:href="#DejaVuSans-2e" transform="translate(63.623047 0)"/>
       <use xlink:href="#DejaVuSans-34" transform="translate(95.410156 0)"/>
      </g>
     </g>
    </g>
    <g id="ytick_4">
     <g id="line2d_25">
      <path d="M 43.78125 168.978894 
L 796.30525 168.978894 
" clip-path="url(#pdf30c5044c)" style="fill: none; stroke: #b0b0b0; stroke-opacity: 0.3; stroke-width: 0.8; stroke-linecap: square"/>
     </g>
     <g id="line2d_26">
      <g>
       <use xlink:href="#m7f5ce42fba" x="43.78125" y="168.978894" style="stroke: #000000; stroke-width: 0.8"/>
      </g>
     </g>
     <g id="text_14">
      <!-- 0.6 -->
      <g transform="translate(20.878125 172.778113) scale(0.1 -0.1)">
       <use xlink:href="#DejaVuSans-30"/>
       <use xlink:href="#DejaVuSans-2e" transform="translate(63.623047 0)"/>
       <use xlink:href="#DejaVuSans-36" transform="translate(95.410156 0)"/>
      </g>
     </g>
    </g>
    <g id="ytick_5">
     <g id="line2d_27">
      <path d="M 43.78125 99.140433 
L 796.30525 99.140433 
" clip-path="url(#pdf30c5044c)" style="fill: none; stroke: #b0b0b0; stroke-opacity: 0.3; stroke-width: 0.8; stroke-linecap: square"/>
     </g>
     <g id="line2d_28">
      <g>
       <use xlink:href="#m7f5ce42fba" x="43.78125" y="99.140433" style="stroke: #000000; stroke-width: 0.8"/>
      </g>
     </g>
     <g id="text_15">
      <!-- 0.8 -->
      <g transform="translate(20.878125 102.939651) scale(0.1 -0.1)">
       <use xlink:href="#DejaVuSans-30"/>
       <use xlink:href="#DejaVuSans-2e" transform="translate(63.623047 0)"/>
       <use xlink:href="#DejaVuSans-38" transform="translate(95.410156 0)"/>
      </g>
     </g>
    </g>
    <g id="ytick_6">
     <g id="line2d_29">
      <path d="M 43.78125 29.301971 
L 796.30525 29.301971 
" clip-path="url(#pdf30c5044c)" style="fill: none; stroke: #b0b0b0; stroke-opacity: 0.3; stroke-width: 0.8; stroke-linecap: square"/>
     </g>
     <g id="line2d_30">
      <g>
       <use xlink:href="#m7f5ce42fba" x="43.78125" y="29.301971" style="stroke: #000000; stroke-width: 0.8"/>
      </g>
     </g>
     <g id="text_16">
      <!-- 1.0 -->
      <g transform="translate(20.878125 33.10119) scale(0.1 -0.1)">
       <use xlink:href="#DejaVuSans-31"/>
       <use xlink:href="#DejaVuSans-2e" transform="translate(63.623047 0)"/>
       <use xlink:href="#DejaVuSans-30" transform="translate(95.410156 0)"/>
      </g>
     </g>
    </g>
    <g id="text_17">
     <!-- Mole fraction [-] -->
     <g transform="translate(14.798438 243.827031) rotate(-90) scale(0.1 -0.1)">
      <defs>
       <path id="DejaVuSans-4d" d="M 628 4666 
L 1569 4666 
L 2759 1491 
L 3956 4666 
L 4897 4666 
L 4897 0 
L 4281 0 
L 4281 4097 
L 3078 897 
L 2444 897 
L 1241 4097 
L 1241 0 
L 628 0 
L 628 4666 
z
" transform="scale(0.015625)"/>
       <path id="DejaVuSans-6f" d="M 1959 3097 
Q 1497 3097 1228 2736 
Q 959 2375 959 1747 
Q 959 1119 1226 758 
Q 1494 397 1959 397 
Q 2419 397 2687 759 
Q 2956 1122 2956 1747 
Q 2956 2369 2687 2733 
Q 2419 3097 1959 3097 
z
M 1959 3584 
Q 2709 3584 3137 3096 
Q 3566 2609 3566 1747 
Q 3566 888 3137 398 
Q 2709 -91 1959 -91 
Q 1206 -91 779 398 
Q 353 888 353 1747 
Q 353 2609 779 3096 
Q 1206 3584 1959 3584 
z
" transform="scale(0.015625)"/>
       <path id="DejaVuSans-6c" d="M 603 4863 
L 1178 4863 
L 1178 0 
L 603 0 
L 603 4863 
z
" transform="scale(0.015625)"/>
       <path id="DejaVuSans-66" d="M 2375 4863 
L 2375 4384 
L 1825 4384 
Q 1516 4384 1395 4259 
Q 1275 4134 1275 3809 
L 1275 3500 
L 2222 3500 
L 2222 3053 
L 1275 3053 
L 1275 0 
L 697 0 
L 697 3053 
L 147 3053 
L 147 3500 
L 697 3500 
L 697 3744 
Q 697 4328 969 4595 
Q 1241 4863 1831 4863 
L 2375 4863 
z
" transform="scale(0.015625)"/>
       <path id="DejaVuSans-72" d="M 2631 2963 
Q 2534 3019 2420 3045 
Q 2306 3072 2169 3072 
Q 1681 3072 1420 2755 
Q 1159 2438 1159 1844 
L 1159 0 
L 581 0 
L 581 3500 
L 1159 3500 
L 1159 2956 
Q 1341 3275 1631 3429 
Q 1922 3584 2338 3584 
Q 2397 3584 2469 3576 
Q 2541 3569 2628 3553 
L 2631 2963 
z
" transform="scale(0.015625)"/>
       <path id="DejaVuSans-61" d="M 2194 1759 
Q 1497 1759 1228 1600 
Q 959 1441 959 1056 
Q 959 750 1161 570 
Q 1363 391 1709 391 
Q 2188 391 2477 730 
Q 2766 1069 2766 1631 
L 2766 1759 
L 2194 1759 
z
M 3341 1997 
L 3341 0 
L 2766 0 
L 2766 531 
Q 2569 213 2275 61 
Q 1981 -91 1556 -91 
Q 1019 -91 701 211 
Q 384 513 384 1019 
Q 384 1609 779 1909 
Q 1175 2209 1959 2209 
L 2766 2209 
L 2766 2266 
Q 2766 2663 2505 2880 
Q 2244 3097 1772 3097 
Q 1472 3097 1187 3025 
Q 903 2953 641 2809 
L 641 3341 
Q 956 3463 1253 3523 
Q 1550 3584 1831 3584 
Q 2591 3584 2966 3190 
Q 3341 2797 3341 1997 
z
" transform="scale(0.015625)"/>
       <path id="DejaVuSans-63" d="M 3122 3366 
L 3122 2828 
Q 2878 2963 2633 3030 
Q 2388 3097 2138 3097 
Q 1578 3097 1268 2742 
Q 959 2388 959 1747 
Q 959 1106 1268 751 
Q 1578 397 2138 397 
Q 2388 397 2633 464 
Q 2878 531 3122 666 
L 3122 134 
Q 2881 22 2623 -34 
Q 2366 -91 2075 -91 
Q 1284 -91 818 406 
Q 353 903 353 1747 
Q 353 2603 823 3093 
Q 1294 3584 2113 3584 
Q 2378 3584 2631 3529 
Q 2884 3475 3122 3366 
z
" transform="scale(0.015625)"/>
       <path id="DejaVuSans-74" d="M 1172 4494 
L 1172 3500 
L 2356 3500 
L 2356 3053 
L 1172 3053 
L 1172 1153 
Q 1172 725 1289 603 
Q 1406 481 1766 481 
L 2356 481 
L 2356 0 
L 1766 0 
Q 1100 0 847 248 
Q 594 497 594 1153 
L 594 3053 
L 172 3053 
L 172 3500 
L 594 3500 
L 594 4494 
L 1172 4494 
z
" transform="scale(0.015625)"/>
       <path id="DejaVuSans-6e" d="M 3513 2113 
L 3513 0 
L 2938 0 
L 2938 2094 
Q 2938 2591 2744 2837 
Q 2550 3084 2163 3084 
Q 1697 3084 1428 2787 
Q 1159 2491 1159 1978 
L 1159 0 
L 581 0 
L 581 3500 
L 1159 3500 
L 1159 2956 
Q 1366 3272 1645 3428 
Q 1925 3584 2291 3584 
Q 2894 3584 3203 3211 
Q 3513 2838 3513 2113 
z
" transform="scale(0.015625)"/>
       <path id="DejaVuSans-2d" d="M 313 2009 
L 1997 2009 
L 1997 1497 
L 313 1497 
L 313 2009 
z
" transform="scale(0.015625)"/>
      </defs>
      <use xlink:href="#DejaVuSans-4d"/>
      <use xlink:href="#DejaVuSans-6f" transform="translate(86.279297 0)"/>
      <use xlink:href="#DejaVuSans-6c" transform="translate(147.460938 0)"/>
      <use xlink:href="#DejaVuSans-65" transform="translate(175.244141 0)"/>
      <use xlink:href="#DejaVuSans-20" transform="translate(236.767578 0)"/>
      <use xlink:href="#DejaVuSans-66" transform="translate(268.554688 0)"/>
      <use xlink:href="#DejaVuSans-72" transform="translate(303.759766 0)"/>
      <use xlink:href="#DejaVuSans-61" transform="translate(344.873047 0)"/>
      <use xlink:href="#DejaVuSans-63" transform="translate(406.152344 0)"/>
      <use xlink:href="#DejaVuSans-74" transform="translate(461.132812 0)"/>
      <use xlink:href="#DejaVuSans-69" transform="translate(500.341797 0)"/>
      <use xlink:href="#DejaVuSans-6f" transform="translate(528.125 0)"/>
      <use xlink:href="#DejaVuSans-6e" transform="translate(589.306641 0)"/>
      <use xlink:href="#DejaVuSans-20" transform="translate(652.685547 0)"/>
      <use xlink:href="#DejaVuSans-5b" transform="translate(684.472656 0)"/>
      <use xlink:href="#DejaVuSans-2d" transform="translate(723.486328 0)"/>
      <use xlink:href="#DejaVuSans-5d" transform="translate(759.570312 0)"/>
     </g>
    </g>
   </g>
   <g id="line2d_31">
    <path d="M 43.78125 378.494279 
L 56.197896 378.407565 
L 56.480093 378.173702 
L 56.856355 377.49187 
L 57.326682 375.990696 
L 57.985141 372.918382 
L 59.207992 365.773384 
L 62.406219 345.317157 
L 65.604446 325.132011 
L 66.168839 322.917358 
L 66.639167 321.799879 
L 67.109494 321.204737 
L 67.579822 320.93434 
L 68.332346 320.795014 
L 70.307721 320.761158 
L 102.666253 320.627126 
L 110.849952 320.324465 
L 119.03365 319.792553 
L 133.331606 318.583739 
L 145.089794 317.705638 
L 155.060736 317.188343 
L 165.972335 316.852691 
L 180.082159 316.659683 
L 204.539189 316.583138 
L 280.450048 316.418999 
L 287.316829 316.111101 
L 293.525152 315.611284 
L 300.015672 314.860619 
L 308.011239 313.697255 
L 340.275706 308.753122 
L 349.964452 307.644813 
L 359.935395 306.735431 
L 370.564797 305.993262 
L 383.733967 305.311448 
L 403.11146 304.559294 
L 428.979472 303.773602 
L 438.762284 303.672016 
L 446.005328 303.813339 
L 451.743323 304.134067 
L 455.78814 304.565079 
L 458.892301 305.110113 
L 461.526136 305.79122 
L 464.159969 306.707092 
L 466.981934 307.930417 
L 471.497078 310.176486 
L 475.730026 312.193704 
L 478.740122 313.383929 
L 481.656152 314.296486 
L 484.666248 315.002663 
L 488.052606 315.560517 
L 492.003357 315.978983 
L 497.082895 316.281173 
L 504.420004 316.472684 
L 517.87137 316.562021 
L 558.22547 316.535072 
L 566.973561 316.335482 
L 573.558146 315.962169 
L 579.766469 315.38515 
L 586.633251 314.513855 
L 595.757604 313.111605 
L 618.521455 309.538419 
L 628.398332 308.263337 
L 637.804882 307.274246 
L 647.775825 306.448666 
L 659.251817 305.73011 
L 673.831969 305.05629 
L 697.160213 304.226856 
L 716.913968 303.704131 
L 725.379863 303.695532 
L 732.246645 303.906648 
L 737.420247 304.276623 
L 741.088801 304.751656 
L 744.004832 305.350797 
L 746.638666 306.12245 
L 749.2725 307.129196 
L 752.376661 308.564644 
L 760.936622 312.665396 
L 763.852652 313.7322 
L 766.768683 314.561833 
L 769.872844 315.211251 
L 773.447334 315.721981 
L 777.774346 316.10181 
L 783.512342 316.363604 
L 792.260433 316.515784 
L 796.30525 316.542806 
L 796.30525 316.542806 
" clip-path="url(#pdf30c5044c)" style="fill: none; stroke: #1f77b4; stroke-width: 2; stroke-linecap: square"/>
   </g>
   <g id="line2d_32">
    <path d="M 43.78125 378.494279 
L 55.633503 378.396435 
L 56.103831 378.083275 
L 58.455468 375.978077 
L 59.772385 375.249073 
L 61.653695 374.485186 
L 64.287529 373.668016 
L 66.168839 373.268432 
L 67.862018 373.191878 
L 84.605677 373.1892 
L 105.300087 373.303304 
L 116.11762 373.605121 
L 137.940816 374.534203 
L 151.956575 374.958486 
L 167.289252 375.188665 
L 190.617495 375.286953 
L 288.35155 375.533218 
L 298.510624 375.943124 
L 336.983413 377.746428 
L 351.939828 378.072557 
L 372.540172 378.286397 
L 411.577355 378.427476 
L 456.258467 378.408847 
L 463.595576 378.216101 
L 468.392917 377.867978 
L 473.566519 377.252267 
L 482.784939 376.12662 
L 488.240737 375.727029 
L 494.919388 375.475864 
L 505.078462 375.342231 
L 530.382082 375.301368 
L 566.973561 375.406617 
L 577.038569 375.692973 
L 588.796757 376.27238 
L 611.184346 377.401629 
L 625.388236 377.862098 
L 642.225961 378.158061 
L 666.682991 378.340203 
L 719.265605 378.461146 
L 743.252308 378.363595 
L 749.178434 378.131875 
L 753.787644 377.731241 
L 760.090033 376.922554 
L 766.674617 376.145473 
L 772.130417 375.738102 
L 778.715001 375.483373 
L 788.685945 375.345485 
L 796.30525 375.315308 
L 796.30525 375.315308 
" clip-path="url(#pdf30c5044c)" style="fill: none; stroke: #2ca02c; stroke-width: 2; stroke-linecap: square"/>
   </g>
   <g id="line2d_33">
    <path d="M 43.78125 378.494279 
L 55.727569 378.388079 
L 56.103831 378.137437 
L 56.480093 377.604655 
L 56.95042 376.481364 
L 57.608879 374.247603 
L 59.67832 365.916317 
L 62.59435 354.768578 
L 65.322249 345.090449 
L 65.980708 343.456215 
L 66.545101 342.613935 
L 67.109494 342.20145 
L 67.767953 342.026823 
L 69.178935 341.966322 
L 92.224983 341.964155 
L 138.128947 342.076724 
L 181.96347 342.23416 
L 296.911511 342.437851 
L 310.08068 342.804506 
L 326.542143 343.508708 
L 361.158247 345.02994 
L 379.68915 345.546186 
L 408.567259 346.094944 
L 436.786909 346.456351 
L 447.040049 346.356977 
L 454.471223 346.077006 
L 459.268563 345.685982 
L 463.407445 345.120956 
L 469.99203 343.936566 
L 474.789371 343.200521 
L 479.116384 342.77066 
L 484.289986 342.491795 
L 492.003357 342.323544 
L 507.61823 342.251197 
L 569.231133 342.288117 
L 583.999416 342.502147 
L 597.356717 342.924862 
L 615.417294 343.744602 
L 639.874323 344.838329 
L 658.123031 345.410037 
L 682.015667 345.910756 
L 717.948689 346.446016 
L 728.954352 346.398973 
L 737.043985 346.156747 
L 742.311653 345.792063 
L 746.450535 345.282856 
L 751.436006 344.419096 
L 757.832461 343.337616 
L 762.159473 342.854783 
L 767.050879 342.545197 
L 773.917661 342.353663 
L 786.616504 342.26044 
L 796.30525 342.247168 
L 796.30525 342.247168 
" clip-path="url(#pdf30c5044c)" style="fill: none; stroke: #9467bd; stroke-width: 2; stroke-linecap: square"/>
   </g>
   <g id="line2d_34">
    <path d="M 43.78125 378.494279 
L 55.351307 378.383268 
L 55.633503 378.105812 
L 55.9157 377.466524 
L 56.291962 375.920566 
L 56.95042 371.906454 
L 58.925796 359.126693 
L 60.148647 353.057016 
L 61.55963 347.234071 
L 63.158743 341.569199 
L 64.851922 336.325818 
L 65.698512 334.279475 
L 66.262905 333.407265 
L 66.827298 332.931951 
L 67.485756 332.707801 
L 68.614542 332.627724 
L 75.857585 332.621234 
L 97.774847 332.734094 
L 104.171301 333.003142 
L 109.533035 333.447977 
L 114.800702 334.109025 
L 120.726829 335.084542 
L 130.039313 336.882234 
L 140.104322 338.754688 
L 147.065169 339.817166 
L 153.649754 340.598179 
L 160.610601 341.195518 
L 168.418037 341.632925 
L 177.730522 341.92386 
L 191.55815 342.100243 
L 217.426163 342.160544 
L 275.464577 342.296197 
L 281.108507 342.579667 
L 285.62365 343.025703 
L 289.762533 343.657909 
L 293.807349 344.503662 
L 297.946231 345.598672 
L 302.55544 347.055947 
L 308.011239 349.029018 
L 315.912741 352.151915 
L 331.245418 358.223112 
L 337.735937 360.56676 
L 343.379867 362.402349 
L 349.58819 364.203899 
L 356.07871 365.841238 
L 362.757361 367.277623 
L 369.812273 368.550685 
L 377.619709 369.718851 
L 387.026259 370.884382 
L 399.254774 372.163037 
L 416.186564 373.703104 
L 428.60321 374.650721 
L 434.905599 374.927291 
L 439.891071 374.930042 
L 444.312149 374.710955 
L 448.168835 374.305313 
L 451.461127 373.74361 
L 454.094961 373.081159 
L 456.352533 372.288748 
L 458.327908 371.354479 
L 460.115153 370.261796 
L 461.902398 368.896987 
L 463.689642 367.249692 
L 465.665017 365.121488 
L 468.204786 362.024586 
L 475.165633 353.33222 
L 477.423205 350.989208 
L 479.492646 349.16138 
L 481.468021 347.703058 
L 483.537463 346.45569 
L 485.700969 345.42128 
L 487.958541 344.587102 
L 490.49831 343.887707 
L 493.508405 343.304372 
L 496.988829 342.865545 
L 501.503973 342.533658 
L 507.806361 342.312636 
L 518.341698 342.195518 
L 548.442657 342.169064 
L 559.636452 342.299202 
L 565.186316 342.57982 
L 569.70146 343.025888 
L 573.840343 343.658136 
L 577.885159 344.503922 
L 582.024041 345.598949 
L 586.633251 347.056236 
L 592.089049 349.029296 
L 599.990551 352.152134 
L 615.417294 358.258867 
L 622.001878 360.631775 
L 627.645808 362.460454 
L 633.760066 364.22927 
L 640.250585 365.863013 
L 646.929236 367.296023 
L 653.984148 368.566027 
L 661.791585 369.731558 
L 671.198135 370.895033 
L 683.520715 372.181382 
L 700.546571 373.727143 
L 712.775086 374.656467 
L 719.077474 374.929347 
L 724.062946 374.927656 
L 728.389959 374.710834 
L 732.246645 374.305064 
L 735.538937 373.743366 
L 738.172771 373.080845 
L 740.430343 372.288139 
L 742.405718 371.354293 
L 744.192963 370.261778 
L 745.980208 368.897986 
L 747.767452 367.250629 
L 749.742827 365.12267 
L 752.282596 362.025664 
L 759.149378 353.445191 
L 761.406949 351.087665 
L 763.47639 349.24423 
L 765.451766 347.773239 
L 767.521207 346.513 
L 769.684713 345.466292 
L 771.942286 344.621701 
L 774.482054 343.912788 
L 777.398084 343.337615 
L 780.878508 342.887058 
L 785.299586 342.55087 
L 791.413844 342.324584 
L 796.30525 342.242738 
L 796.30525 342.242738 
" clip-path="url(#pdf30c5044c)" style="fill: none; stroke: #e377c2; stroke-width: 2; stroke-linecap: square"/>
   </g>
   <g id="line2d_35">
    <path d="M 43.78125 378.494279 
L 55.539438 378.407573 
L 55.9157 378.137589 
L 56.197896 377.646151 
L 56.480093 376.731131 
L 56.856355 374.653536 
L 57.326682 370.623792 
L 58.079206 361.675776 
L 59.584254 340.147298 
L 65.886643 248.348879 
L 66.451036 244.375332 
L 66.921363 242.578901 
L 67.297625 241.833169 
L 67.767953 241.395954 
L 68.332346 241.20512 
L 69.461132 241.130735 
L 80.278664 241.124803 
L 99.656157 241.011238 
L 106.805135 240.7366 
L 113.201589 240.265718 
L 120.068371 239.528602 
L 130.885903 238.103191 
L 142.079698 236.705926 
L 150.263396 235.915624 
L 158.353029 235.360701 
L 167.383317 234.971519 
L 178.577112 234.725627 
L 195.885164 234.598828 
L 241.600996 234.570888 
L 276.311166 234.4596 
L 282.70762 234.190105 
L 287.881222 233.751118 
L 292.678563 233.121386 
L 297.569969 232.250474 
L 302.931702 231.061757 
L 309.422222 229.379772 
L 320.710082 226.172747 
L 334.255514 222.409461 
L 342.345147 220.424366 
L 349.964452 218.809363 
L 357.395627 217.471007 
L 365.108998 216.31374 
L 373.480827 215.288604 
L 383.169574 214.330915 
L 396.338744 213.270221 
L 415.622171 211.958307 
L 430.014193 211.162753 
L 436.880974 210.997813 
L 442.336773 211.085511 
L 447.134114 211.381883 
L 451.084865 211.837475 
L 454.189027 212.404078 
L 456.728795 213.083974 
L 458.892301 213.888076 
L 460.867677 214.853953 
L 462.843052 216.067646 
L 464.912493 217.600023 
L 467.452262 219.777914 
L 475.824092 227.223382 
L 478.175729 228.872775 
L 480.433301 230.183225 
L 482.690873 231.238649 
L 485.136576 232.126936 
L 487.77041 232.839685 
L 490.780506 233.415928 
L 494.354995 233.86546 
L 498.870139 234.196724 
L 505.172528 234.419373 
L 515.707864 234.538625 
L 545.620693 234.569414 
L 560.671173 234.452393 
L 566.973561 234.177956 
L 572.147164 233.730475 
L 576.944504 233.091929 
L 581.83591 232.212451 
L 587.197644 231.016052 
L 593.688163 229.328005 
L 605.540416 225.957408 
L 618.709586 222.31183 
L 626.517022 220.40301 
L 634.042262 218.809373 
L 641.473437 217.471041 
L 649.186808 216.313791 
L 657.558638 215.288653 
L 667.247384 214.33095 
L 680.416554 213.27022 
L 699.699981 211.958287 
L 714.092003 211.162755 
L 720.958784 210.997864 
L 726.414583 211.085557 
L 731.211924 211.382027 
L 735.162675 211.837666 
L 738.266836 212.404312 
L 740.806605 213.084292 
L 742.970111 213.888172 
L 744.945487 214.853648 
L 746.920862 216.067123 
L 748.990303 217.59927 
L 751.530072 219.7771 
L 759.901902 227.217455 
L 762.253539 228.867385 
L 764.511111 230.178573 
L 766.768683 231.233898 
L 769.12032 232.093227 
L 771.754155 232.814963 
L 774.764251 233.399032 
L 778.338739 233.854016 
L 782.853883 234.190187 
L 789.156272 234.416121 
L 796.30525 234.516103 
L 796.30525 234.516103 
" clip-path="url(#pdf30c5044c)" style="fill: none; stroke: #bcbd22; stroke-width: 2; stroke-linecap: square"/>
   </g>
   <g id="line2d_36">
    <path d="M 43.78125 29.301971 
L 55.163176 29.372813 
L 55.445372 29.610488 
L 55.727569 30.286446 
L 56.009765 31.753411 
L 56.386027 35.406112 
L 56.856355 43.0292 
L 57.514813 58.669405 
L 58.737665 94.910734 
L 62.688416 213.053849 
L 65.416315 289.271517 
L 66.074774 301.569714 
L 66.545101 306.905015 
L 67.015429 309.83921 
L 67.391691 311.021535 
L 67.767953 311.610796 
L 68.23828 311.931106 
L 68.896738 312.077275 
L 70.683983 312.112017 
L 103.136581 312.072964 
L 118.187061 311.856047 
L 162.397845 311.02271 
L 188.830251 310.929152 
L 290.797253 310.713704 
L 302.837637 310.318139 
L 327.85906 309.188315 
L 345.167112 308.515584 
L 363.039557 308.038905 
L 385.521211 307.67789 
L 427.56849 307.270119 
L 444.970607 307.262218 
L 455.223747 307.465416 
L 460.867677 307.78257 
L 465.665017 308.277651 
L 473.284323 309.343782 
L 479.210449 310.053357 
L 484.572183 310.463829 
L 491.062703 310.724811 
L 500.751449 310.868648 
L 523.044972 310.916919 
L 569.325198 310.819535 
L 581.083386 310.5356 
L 595.475407 309.941936 
L 627.457677 308.575426 
L 645.424188 308.075358 
L 666.965187 307.711163 
L 706.754894 307.306857 
L 727.355238 307.249138 
L 738.360902 307.433049 
L 744.381094 307.738929 
L 749.178434 308.208276 
L 755.668954 309.10401 
L 762.44167 309.967251 
L 767.709338 310.406201 
L 773.917661 310.689616 
L 782.853883 310.852116 
L 796.30525 310.909243 
L 796.30525 310.909243 
" clip-path="url(#pdf30c5044c)" style="fill: none; stroke: #17becf; stroke-width: 2; stroke-linecap: square"/>
   </g>
   <g id="patch_3">
    <path d="M 43.78125 385.478125 
L 43.78125 22.318125 
" style="fill: none; stroke: #000000; stroke-width: 0.8; stroke-linejoin: miter; stroke-linecap: square"/>
   </g>
   <g id="patch_4">
    <path d="M 796.30525 385.478125 
L 796.30525 22.318125 
" style="fill: none; stroke: #000000; stroke-width: 0.8; stroke-linejoin: miter; stroke-linecap: square"/>
   </g>
   <g id="patch_5">
    <path d="M 43.78125 385.478125 
L 796.30525 385.478125 
" style="fill: none; stroke: #000000; stroke-width: 0.8; stroke-linejoin: miter; stroke-linecap: square"/>
   </g>
   <g id="patch_6">
    <path d="M 43.78125 22.318125 
L 796.30525 22.318125 
" style="fill: none; stroke: #000000; stroke-width: 0.8; stroke-linejoin: miter; stroke-linecap: square"/>
   </g>
   <g id="text_18">
    <!-- Outlet Composition vs Time -->
    <g transform="translate(336.90575 16.318125) scale(0.12 -0.12)">
     <defs>
      <path id="DejaVuSans-4f" d="M 2522 4238 
Q 1834 4238 1429 3725 
Q 1025 3213 1025 2328 
Q 1025 1447 1429 934 
Q 1834 422 2522 422 
Q 3209 422 3611 934 
Q 4013 1447 4013 2328 
Q 4013 3213 3611 3725 
Q 3209 4238 2522 4238 
z
M 2522 4750 
Q 3503 4750 4090 4092 
Q 4678 3434 4678 2328 
Q 4678 1225 4090 567 
Q 3503 -91 2522 -91 
Q 1538 -91 948 565 
Q 359 1222 359 2328 
Q 359 3434 948 4092 
Q 1538 4750 2522 4750 
z
" transform="scale(0.015625)"/>
      <path id="DejaVuSans-75" d="M 544 1381 
L 544 3500 
L 1119 3500 
L 1119 1403 
Q 1119 906 1312 657 
Q 1506 409 1894 409 
Q 2359 409 2629 706 
Q 2900 1003 2900 1516 
L 2900 3500 
L 3475 3500 
L 3475 0 
L 2900 0 
L 2900 538 
Q 2691 219 2414 64 
Q 2138 -91 1772 -91 
Q 1169 -91 856 284 
Q 544 659 544 1381 
z
M 1991 3584 
L 1991 3584 
z
" transform="scale(0.015625)"/>
      <path id="DejaVuSans-43" d="M 4122 4306 
L 4122 3641 
Q 3803 3938 3442 4084 
Q 3081 4231 2675 4231 
Q 1875 4231 1450 3742 
Q 1025 3253 1025 2328 
Q 1025 1406 1450 917 
Q 1875 428 2675 428 
Q 3081 428 3442 575 
Q 3803 722 4122 1019 
L 4122 359 
Q 3791 134 3420 21 
Q 3050 -91 2638 -91 
Q 1578 -91 968 557 
Q 359 1206 359 2328 
Q 359 3453 968 4101 
Q 1578 4750 2638 4750 
Q 3056 4750 3426 4639 
Q 3797 4528 4122 4306 
z
" transform="scale(0.015625)"/>
      <path id="DejaVuSans-70" d="M 1159 525 
L 1159 -1331 
L 581 -1331 
L 581 3500 
L 1159 3500 
L 1159 2969 
Q 1341 3281 1617 3432 
Q 1894 3584 2278 3584 
Q 2916 3584 3314 3078 
Q 3713 2572 3713 1747 
Q 3713 922 3314 415 
Q 2916 -91 2278 -91 
Q 1894 -91 1617 61 
Q 1341 213 1159 525 
z
M 3116 1747 
Q 3116 2381 2855 2742 
Q 2594 3103 2138 3103 
Q 1681 3103 1420 2742 
Q 1159 2381 1159 1747 
Q 1159 1113 1420 752 
Q 1681 391 2138 391 
Q 2594 391 2855 752 
Q 3116 1113 3116 1747 
z
" transform="scale(0.015625)"/>
      <path id="DejaVuSans-76" d="M 191 3500 
L 800 3500 
L 1894 563 
L 2988 3500 
L 3597 3500 
L 2284 0 
L 1503 0 
L 191 3500 
z
" transform="scale(0.015625)"/>
     </defs>
     <use xlink:href="#DejaVuSans-4f"/>
     <use xlink:href="#DejaVuSans-75" transform="translate(78.710938 0)"/>
     <use xlink:href="#DejaVuSans-74" transform="translate(142.089844 0)"/>
     <use xlink:href="#DejaVuSans-6c" transform="translate(181.298828 0)"/>
     <use xlink:href="#DejaVuSans-65" transform="translate(209.082031 0)"/>
     <use xlink:href="#DejaVuSans-74" transform="translate(270.605469 0)"/>
     <use xlink:href="#DejaVuSans-20" transform="translate(309.814453 0)"/>
     <use xlink:href="#DejaVuSans-43" transform="translate(341.601562 0)"/>
     <use xlink:href="#DejaVuSans-6f" transform="translate(411.425781 0)"/>
     <use xlink:href="#DejaVuSans-6d" transform="translate(472.607422 0)"/>
     <use xlink:href="#DejaVuSans-70" transform="translate(570.019531 0)"/>
     <use xlink:href="#DejaVuSans-6f" transform="translate(633.496094 0)"/>
     <use xlink:href="#DejaVuSans-73" transform="translate(694.677734 0)"/>
     <use xlink:href="#DejaVuSans-69" transform="translate(746.777344 0)"/>
     <use xlink:href="#DejaVuSans-74" transform="translate(774.560547 0)"/>
     <use xlink:href="#DejaVuSans-69" transform="translate(813.769531 0)"/>
     <use xlink:href="#DejaVuSans-6f" transform="translate(841.552734 0)"/>
     <use xlink:href="#DejaVuSans-6e" transform="translate(902.734375 0)"/>
     <use xlink:href="#DejaVuSans-20" transform="translate(966.113281 0)"/>
     <use xlink:href="#DejaVuSans-76" transform="translate(997.900391 0)"/>
     <use xlink:href="#DejaVuSans-73" transform="translate(1057.080078 0)"/>
     <use xlink:href="#DejaVuSans-20" transform="translate(1109.179688 0)"/>
     <use xlink:href="#DejaVuSans-54" transform="translate(1140.966797 0)"/>
     <use xlink:href="#DejaVuSans-69" transform="translate(1198.925781 0)"/>
     <use xlink:href="#DejaVuSans-6d" transform="translate(1226.708984 0)"/>
     <use xlink:href="#DejaVuSans-65" transform="translate(1324.121094 0)"/>
    </g>
   </g>
   <g id="legend_1">
    <g id="patch_7">
     <path d="M 805.43049 95.173125 
L 848.43424 95.173125 
Q 850.03424 95.173125 850.03424 93.573125 
L 850.03424 23.918125 
Q 850.03424 22.318125 848.43424 22.318125 
L 805.43049 22.318125 
Q 803.83049 22.318125 803.83049 23.918125 
L 803.83049 93.573125 
Q 803.83049 95.173125 805.43049 95.173125 
z
" style="fill: #ffffff; opacity: 0.8; stroke: #cccccc; stroke-linejoin: miter"/>
    </g>
    <g id="line2d_37">
     <path d="M 807.03049 28.796875 
L 815.03049 28.796875 
L 823.03049 28.796875 
" style="fill: none; stroke: #1f77b4; stroke-width: 2; stroke-linecap: square"/>
    </g>
    <g id="text_19">
     <!-- CH4 -->
     <g transform="translate(829.43049 31.596875) scale(0.08 -0.08)">
      <defs>
       <path id="DejaVuSans-48" d="M 628 4666 
L 1259 4666 
L 1259 2753 
L 3553 2753 
L 3553 4666 
L 4184 4666 
L 4184 0 
L 3553 0 
L 3553 2222 
L 1259 2222 
L 1259 0 
L 628 0 
L 628 4666 
z
" transform="scale(0.015625)"/>
      </defs>
      <use xlink:href="#DejaVuSans-43"/>
      <use xlink:href="#DejaVuSans-48" transform="translate(69.824219 0)"/>
      <use xlink:href="#DejaVuSans-34" transform="translate(145.019531 0)"/>
     </g>
    </g>
    <g id="line2d_38">
     <path d="M 807.03049 40.539375 
L 815.03049 40.539375 
L 823.03049 40.539375 
" style="fill: none; stroke: #2ca02c; stroke-width: 2; stroke-linecap: square"/>
    </g>
    <g id="text_20">
     <!-- CO -->
     <g transform="translate(829.43049 43.339375) scale(0.08 -0.08)">
      <use xlink:href="#DejaVuSans-43"/>
      <use xlink:href="#DejaVuSans-4f" transform="translate(69.824219 0)"/>
     </g>
    </g>
    <g id="line2d_39">
     <path d="M 807.03049 52.281875 
L 815.03049 52.281875 
L 823.03049 52.281875 
" style="fill: none; stroke: #9467bd; stroke-width: 2; stroke-linecap: square"/>
    </g>
    <g id="text_21">
     <!-- CO2 -->
     <g transform="translate(829.43049 55.081875) scale(0.08 -0.08)">
      <use xlink:href="#DejaVuSans-43"/>
      <use xlink:href="#DejaVuSans-4f" transform="translate(69.824219 0)"/>
      <use xlink:href="#DejaVuSans-32" transform="translate(148.535156 0)"/>
     </g>
    </g>
    <g id="line2d_40">
     <path d="M 807.03049 64.024375 
L 815.03049 64.024375 
L 823.03049 64.024375 
" style="fill: none; stroke: #e377c2; stroke-width: 2; stroke-linecap: square"/>
    </g>
    <g id="text_22">
     <!-- H2 -->
     <g transform="translate(829.43049 66.824375) scale(0.08 -0.08)">
      <use xlink:href="#DejaVuSans-48"/>
      <use xlink:href="#DejaVuSans-32" transform="translate(75.195312 0)"/>
     </g>
    </g>
    <g id="line2d_41">
     <path d="M 807.03049 75.766875 
L 815.03049 75.766875 
L 823.03049 75.766875 
" style="fill: none; stroke: #bcbd22; stroke-width: 2; stroke-linecap: square"/>
    </g>
    <g id="text_23">
     <!-- H2O -->
     <g transform="translate(829.43049 78.566875) scale(0.08 -0.08)">
      <use xlink:href="#DejaVuSans-48"/>
      <use xlink:href="#DejaVuSans-32" transform="translate(75.195312 0)"/>
      <use xlink:href="#DejaVuSans-4f" transform="translate(138.818359 0)"/>
     </g>
    </g>
    <g id="line2d_42">
     <path d="M 807.03049 87.509375 
L 815.03049 87.509375 
L 823.03049 87.509375 
" style="fill: none; stroke: #17becf; stroke-width: 2; stroke-linecap: square"/>
    </g>
    <g id="text_24">
     <!-- N2 -->
     <g transform="translate(829.43049 90.309375) scale(0.08 -0.08)">
      <defs>
       <path id="DejaVuSans-4e" d="M 628 4666 
L 1478 4666 
L 3547 763 
L 3547 4666 
L 4159 4666 
L 4159 0 
L 3309 0 
L 1241 3903 
L 1241 0 
L 628 0 
L 628 4666 
z
" transform="scale(0.015625)"/>
      </defs>
      <use xlink:href="#DejaVuSans-4e"/>
      <use xlink:href="#DejaVuSans-32" transform="translate(74.804688 0)"/>
     </g>
    </g>
   </g>
  </g>
 </g>
 <defs>
  <clipPath id="pdf30c5044c">
   <rect x="43.78125" y="22.318125" width="752.524" height="363.16"/>
  </clipPath>
 </defs>
</svg>
