<?xml version="1.0" encoding="utf-8" standalone="no"?>
<!DOCTYPE svg PUBLIC "-//W3C//DTD SVG 1.1//EN"
  "http://www.w3.org/Graphics/SVG/1.1/DTD/svg11.dtd">
<svg xmlns:xlink="http://www.w3.org/1999/xlink" width="856.51375pt" height="711.034375pt" viewBox="0 0 856.51375 711.034375" xmlns="http://www.w3.org/2000/svg" version="1.1">
 <metadata>
  <rdf:RDF xmlns:dc="http://purl.org/dc/elements/1.1/" xmlns:cc="http://creativecommons.org/ns#" xmlns:rdf="http://www.w3.org/1999/02/22-rdf-syntax-ns#">
   <cc:Work>
    <dc:type rdf:resource="http://purl.org/dc/dcmitype/StillImage"/>
    <dc:date>2026-04-15T13:37:00.158359</dc:date>
    <dc:format>image/svg+xml</dc:format>
    <dc:creator>
     <cc:Agent>
      <dc:title>Matplotlib v3.10.8, https://matplotlib.org/</dc:title>
     </cc:Agent>
    </dc:creator>
   </cc:Work>
  </rdf:RDF>
 </metadata>
 <defs>
  <style type="text/css">*{stroke-linejoin: round; stroke-linecap: butt}</style>
 </defs>
 <g id="figure_1">
  <g id="patch_1">
   <path d="M 0 711.034375 
L 856.51375 711.034375 
L 856.51375 0 
L 0 0 
z
" style="fill: #ffffff"/>
  </g>
  <g id="axes_1">
   <g id="patch_2">
    <path d="M 50.14375 219.118125 
L 836.58875 219.118125 
L 836.58875 22.318125 
L 50.14375 22.318125 
z
" style="fill: #ffffff"/>
   </g>
   <g id="matplotlib.axis_1">
    <g id="xtick_1">
     <g id="line2d_1">
      <path d="M 50.14375 219.118125 
L 50.14375 22.318125 
" clip-path="url(#p13f54e8a32)" style="fill: none; stroke: #b0b0b0; stroke-opacity: 0.3; stroke-width: 0.8; stroke-linecap: square"/>
     </g>
     <g id="line2d_2">
      <defs>
       <path id="m5734f0ff18" d="M 0 0 
L 0 3.5 
" style="stroke: #000000; stroke-width: 0.8"/>
      </defs>
      <g>
       <use xlink:href="#m5734f0ff18" x="50.14375" y="219.118125" style="stroke: #000000; stroke-width: 0.8"/>
      </g>
     </g>
    </g>
    <g id="xtick_2">
     <g id="line2d_3">
      <path d="M 148.449375 219.118125 
L 148.449375 22.318125 
" clip-path="url(#p13f54e8a32)" style="fill: none; stroke: #b0b0b0; stroke-opacity: 0.3; stroke-width: 0.8; stroke-linecap: square"/>
     </g>
     <g id="line2d_4">
      <g>
       <use xlink:href="#m5734f0ff18" x="148.449375" y="219.118125" style="stroke: #000000; stroke-width: 0.8"/>
      </g>
     </g>
    </g>
    <g id="xtick_3">
     <g id="line2d_5">
      <path d="M 246.755 219.118125 
L 246.755 22.318125 
" clip-path="url(#p13f54e8a32)" style="fill: none; stroke: #b0b0b0; stroke-opacity: 0.3; stroke-width: 0.8; stroke-linecap: square"/>
     </g>
     <g id="line2d_6">
      <g>
       <use xlink:href="#m5734f0ff18" x="246.755" y="219.118125" style="stroke: #000000; stroke-width: 0.8"/>
      </g>
     </g>
    </g>
    <g id="xtick_4">
     <g id="line2d_7">
      <path d="M 345.060625 219.118125 
L 345.060625 22.318125 
" clip-path="url(#p13f54e8a32)" style="fill: none; stroke: #b0b0b0; stroke-opacity: 0.3; stroke-width: 0.8; stroke-linecap: square"/>
     </g>
     <g id="line2d_8">
      <g>
       <use xlink:href="#m5734f0ff18" x="345.060625" y="219.118125" style="stroke: #000000; stroke-width: 0.8"/>
      </g>
     </g>
    </g>
    <g id="xtick_5">
     <g id="line2d_9">
      <path d="M 443.36625 219.118125 
L 443.36625 22.318125 
" clip-path="url(#p13f54e8a32)" style="fill: none; stroke: #b0b0b0; stroke-opacity: 0.3; stroke-width: 0.8; stroke-linecap: square"/>
     </g>
     <g id="line2d_10">
      <g>
       <use xlink:href="#m5734f0ff18" x="443.36625" y="219.118125" style="stroke: #000000; stroke-width: 0.8"/>
      </g>
     </g>
    </g>
    <g id="xtick_6">
     <g id="line2d_11">
      <path d="M 541.671875 219.118125 
L 541.671875 22.318125 
" clip-path="url(#p13f54e8a32)" style="fill: none; stroke: #b0b0b0; stroke-opacity: 0.3; stroke-width: 0.8; stroke-linecap: square"/>
     </g>
     <g id="line2d_12">
      <g>
       <use xlink:href="#m5734f0ff18" x="541.671875" y="219.118125" style="stroke: #000000; stroke-width: 0.8"/>
      </g>
     </g>
    </g>
    <g id="xtick_7">
     <g id="line2d_13">
      <path d="M 639.9775 219.118125 
L 639.9775 22.318125 
" clip-path="url(#p13f54e8a32)" style="fill: none; stroke: #b0b0b0; stroke-opacity: 0.3; stroke-width: 0.8; stroke-linecap: square"/>
     </g>
     <g id="line2d_14">
      <g>
       <use xlink:href="#m5734f0ff18" x="639.9775" y="219.118125" style="stroke: #000000; stroke-width: 0.8"/>
      </g>
     </g>
    </g>
    <g id="xtick_8">
     <g id="line2d_15">
      <path d="M 738.283125 219.118125 
L 738.283125 22.318125 
" clip-path="url(#p13f54e8a32)" style="fill: none; stroke: #b0b0b0; stroke-opacity: 0.3; stroke-width: 0.8; stroke-linecap: square"/>
     </g>
     <g id="line2d_16">
      <g>
       <use xlink:href="#m5734f0ff18" x="738.283125" y="219.118125" style="stroke: #000000; stroke-width: 0.8"/>
      </g>
     </g>
    </g>
    <g id="xtick_9">
     <g id="line2d_17">
      <path d="M 836.58875 219.118125 
L 836.58875 22.318125 
" clip-path="url(#p13f54e8a32)" style="fill: none; stroke: #b0b0b0; stroke-opacity: 0.3; stroke-width: 0.8; stroke-linecap: square"/>
     </g>
     <g id="line2d_18">
      <g>
       <use xlink:href="#m5734f0ff18" x="836.58875" y="219.118125" style="stroke: #000000; stroke-width: 0.8"/>
      </g>
     </g>
    </g>
   </g>
   <g id="matplotlib.axis_2">
    <g id="ytick_1">
     <g id="line2d_19">
      <path d="M 50.14375 191.928999 
L 836.58875 191.928999 
" clip-path="url(#p13f54e8a32)" style="fill: none; stroke: #b0b0b0; stroke-opacity: 0.3; stroke-width: 0.8; stroke-linecap: square"/>
     </g>
     <g id="line2d_20">
      <defs>
       <path id="m398436b30a" d="M 0 0 
L -3.5 0 
" style="stroke: #000000; stroke-width: 0.8"/>
      </defs>
      <g>
       <use xlink:href="#m398436b30a" x="50.14375" y="191.928999" style="stroke: #000000; stroke-width: 0.8"/>
      </g>
     </g>
     <g id="text_1">
      <!-- 650 -->
      <g transform="translate(24.05625 195.728218) scale(0.1 -0.1)">
       <defs>
        <path id="DejaVuSans-36" d="M 2113 2584 
Q 1688 2584 1439 2293 
Q 1191 2003 1191 1497 
Q 1191 994 1439 701 
Q 1688 409 2113 409 
Q 2538 409 2786 701 
Q 3034 994 3034 1497 
Q 3034 2003 2786 2293 
Q 2538 2584 2113 2584 
z
M 3366 4563 
L 3366 3988 
Q 3128 4100 2886 4159 
Q 2644 4219 2406 4219 
Q 1781 4219 1451 3797 
Q 1122 3375 1075 2522 
Q 1259 2794 1537 2939 
Q 1816 3084 2150 3084 
Q 2853 3084 3261 2657 
Q 3669 2231 3669 1497 
Q 3669 778 3244 343 
Q 2819 -91 2113 -91 
Q 1303 -91 875 529 
Q 447 1150 447 2328 
Q 447 3434 972 4092 
Q 1497 4750 2381 4750 
Q 2619 4750 2861 4703 
Q 3103 4656 3366 4563 
z
" transform="scale(0.015625)"/>
        <path id="DejaVuSans-35" d="M 691 4666 
L 3169 4666 
L 3169 4134 
L 1269 4134 
L 1269 2991 
Q 1406 3038 1543 3061 
Q 1681 3084 1819 3084 
Q 2600 3084 3056 2656 
Q 3513 2228 3513 1497 
Q 3513 744 3044 326 
Q 2575 -91 1722 -91 
Q 1428 -91 1123 -41 
Q 819 9 494 109 
L 494 744 
Q 775 591 1075 516 
Q 1375 441 1709 441 
Q 2250 441 2565 725 
Q 2881 1009 2881 1497 
Q 2881 1984 2565 2268 
Q 2250 2553 1709 2553 
Q 1456 2553 1204 2497 
Q 953 2441 691 2322 
L 691 4666 
z
" transform="scale(0.015625)"/>
        <path id="DejaVuSans-30" d="M 2034 4250 
Q 1547 4250 1301 3770 
Q 1056 3291 1056 2328 
Q 1056 1369 1301 889 
Q 1547 409 2034 409 
Q 2525 409 2770 889 
Q 3016 1369 3016 2328 
Q 3016 3291 2770 3770 
Q 2525 4250 2034 4250 
z
M 2034 4750 
Q 2819 4750 3233 4129 
Q 3647 3509 3647 2328 
Q 3647 1150 3233 529 
Q 2819 -91 2034 -91 
Q 1250 -91 836 529 
Q 422 1150 422 2328 
Q 422 3509 836 4129 
Q 1250 4750 2034 4750 
z
" transform="scale(0.015625)"/>
       </defs>
       <use xlink:href="#DejaVuSans-36"/>
       <use xlink:href="#DejaVuSans-35" transform="translate(63.623047 0)"/>
       <use xlink:href="#DejaVuSans-30" transform="translate(127.246094 0)"/>
      </g>
     </g>
    </g>
    <g id="ytick_2">
     <g id="line2d_21">
      <path d="M 50.14375 159.795915 
L 836.58875 159.795915 
" clip-path="url(#p13f54e8a32)" style="fill: none; stroke: #b0b0b0; stroke-opacity: 0.3; stroke-width: 0.8; stroke-linecap: square"/>
     </g>
     <g id="line2d_22">
      <g>
       <use xlink:href="#m398436b30a" x="50.14375" y="159.795915" style="stroke: #000000; stroke-width: 0.8"/>
      </g>
     </g>
     <g id="text_2">
      <!-- 700 -->
      <g transform="translate(24.05625 163.595134) scale(0.1 -0.1)">
       <defs>
        <path id="DejaVuSans-37" d="M 525 4666 
L 3525 4666 
L 3525 4397 
L 1831 0 
L 1172 0 
L 2766 4134 
L 525 4134 
L 525 4666 
z
" transform="scale(0.015625)"/>
       </defs>
       <use xlink:href="#DejaVuSans-37"/>
       <use xlink:href="#DejaVuSans-30" transform="translate(63.623047 0)"/>
       <use xlink:href="#DejaVuSans-30" transform="translate(127.246094 0)"/>
      </g>
     </g>
    </g>
    <g id="ytick_3">
     <g id="line2d_23">
      <path d="M 50.14375 127.662831 
L 836.58875 127.662831 
" clip-path="url(#p13f54e8a32)" style="fill: none; stroke: #b0b0b0; stroke-opacity: 0.3; stroke-width: 0.8; stroke-linecap: square"/>
     </g>
     <g id="line2d_24">
      <g>
       <use xlink:href="#m398436b30a" x="50.14375" y="127.662831" style="stroke: #000000; stroke-width: 0.8"/>
      </g>
     </g>
     <g id="text_3">
      <!-- 750 -->
      <g transform="translate(24.05625 131.46205) scale(0.1 -0.1)">
       <use xlink:href="#DejaVuSans-37"/>
       <use xlink:href="#DejaVuSans-35" transform="translate(63.623047 0)"/>
       <use xlink:href="#DejaVuSans-30" transform="translate(127.246094 0)"/>
      </g>
     </g>
    </g>
    <g id="ytick_4">
     <g id="line2d_25">
      <path d="M 50.14375 95.529747 
L 836.58875 95.529747 
" clip-path="url(#p13f54e8a32)" style="fill: none; stroke: #b0b0b0; stroke-opacity: 0.3; stroke-width: 0.8; stroke-linecap: square"/>
     </g>
     <g id="line2d_26">
      <g>
       <use xlink:href="#m398436b30a" x="50.14375" y="95.529747" style="stroke: #000000; stroke-width: 0.8"/>
      </g>
     </g>
     <g id="text_4">
      <!-- 800 -->
      <g transform="translate(24.05625 99.328966) scale(0.1 -0.1)">
       <defs>
        <path id="DejaVuSans-38" d="M 2034 2216 
Q 1584 2216 1326 1975 
Q 1069 1734 1069 1313 
Q 1069 891 1326 650 
Q 1584 409 2034 409 
Q 2484 409 2743 651 
Q 3003 894 3003 1313 
Q 3003 1734 2745 1975 
Q 2488 2216 2034 2216 
z
M 1403 2484 
Q 997 2584 770 2862 
Q 544 3141 544 3541 
Q 544 4100 942 4425 
Q 1341 4750 2034 4750 
Q 2731 4750 3128 4425 
Q 3525 4100 3525 3541 
Q 3525 3141 3298 2862 
Q 3072 2584 2669 2484 
Q 3125 2378 3379 2068 
Q 3634 1759 3634 1313 
Q 3634 634 3220 271 
Q 2806 -91 2034 -91 
Q 1263 -91 848 271 
Q 434 634 434 1313 
Q 434 1759 690 2068 
Q 947 2378 1403 2484 
z
M 1172 3481 
Q 1172 3119 1398 2916 
Q 1625 2713 2034 2713 
Q 2441 2713 2670 2916 
Q 2900 3119 2900 3481 
Q 2900 3844 2670 4047 
Q 2441 4250 2034 4250 
Q 1625 4250 1398 4047 
Q 1172 3844 1172 3481 
z
" transform="scale(0.015625)"/>
       </defs>
       <use xlink:href="#DejaVuSans-38"/>
       <use xlink:href="#DejaVuSans-30" transform="translate(63.623047 0)"/>
       <use xlink:href="#DejaVuSans-30" transform="translate(127.246094 0)"/>
      </g>
     </g>
    </g>
    <g id="ytick_5">
     <g id="line2d_27">
      <path d="M 50.14375 63.396664 
L 836.58875 63.396664 
" clip-path="url(#p13f54e8a32)" style="fill: none; stroke: #b0b0b0; stroke-opacity: 0.3; stroke-width: 0.8; stroke-linecap: square"/>
     </g>
     <g id="line2d_28">
      <g>
       <use xlink:href="#m398436b30a" x="50.14375" y="63.396664" style="stroke: #000000; stroke-width: 0.8"/>
      </g>
     </g>
     <g id="text_5">
      <!-- 850 -->
      <g transform="translate(24.05625 67.195882) scale(0.1 -0.1)">
       <use xlink:href="#DejaVuSans-38"/>
       <use xlink:href="#DejaVuSans-35" transform="translate(63.623047 0)"/>
       <use xlink:href="#DejaVuSans-30" transform="translate(127.246094 0)"/>
      </g>
     </g>
    </g>
    <g id="ytick_6">
     <g id="line2d_29">
      <path d="M 50.14375 31.26358 
L 836.58875 31.26358 
" clip-path="url(#p13f54e8a32)" style="fill: none; stroke: #b0b0b0; stroke-opacity: 0.3; stroke-width: 0.8; stroke-linecap: square"/>
     </g>
     <g id="line2d_30">
      <g>
       <use xlink:href="#m398436b30a" x="50.14375" y="31.26358" style="stroke: #000000; stroke-width: 0.8"/>
      </g>
     </g>
     <g id="text_6">
      <!-- 900 -->
      <g transform="translate(24.05625 35.062798) scale(0.1 -0.1)">
       <defs>
        <path id="DejaVuSans-39" d="M 703 97 
L 703 672 
Q 941 559 1184 500 
Q 1428 441 1663 441 
Q 2288 441 2617 861 
Q 2947 1281 2994 2138 
Q 2813 1869 2534 1725 
Q 2256 1581 1919 1581 
Q 1219 1581 811 2004 
Q 403 2428 403 3163 
Q 403 3881 828 4315 
Q 1253 4750 1959 4750 
Q 2769 4750 3195 4129 
Q 3622 3509 3622 2328 
Q 3622 1225 3098 567 
Q 2575 -91 1691 -91 
Q 1453 -91 1209 -44 
Q 966 3 703 97 
z
M 1959 2075 
Q 2384 2075 2632 2365 
Q 2881 2656 2881 3163 
Q 2881 3666 2632 3958 
Q 2384 4250 1959 4250 
Q 1534 4250 1286 3958 
Q 1038 3666 1038 3163 
Q 1038 2656 1286 2365 
Q 1534 2075 1959 2075 
z
" transform="scale(0.015625)"/>
       </defs>
       <use xlink:href="#DejaVuSans-39"/>
       <use xlink:href="#DejaVuSans-30" transform="translate(63.623047 0)"/>
       <use xlink:href="#DejaVuSans-30" transform="translate(127.246094 0)"/>
      </g>
     </g>
    </g>
    <g id="text_7">
     <!-- Temperature [K] -->
     <g transform="translate(17.976562 161.157187) rotate(-90) scale(0.1 -0.1)">
      <defs>
       <path id="DejaVuSans-54" d="M -19 4666 
L 3928 4666 
L 3928 4134 
L 2272 4134 
L 2272 0 
L 1638 0 
L 1638 4134 
L -19 4134 
L -19 4666 
z
" transform="scale(0.015625)"/>
       <path id="DejaVuSans-65" d="M 3597 1894 
L 3597 1613 
L 953 1613 
Q 991 1019 1311 708 
Q 1631 397 2203 397 
Q 2534 397 2845 478 
Q 3156 559 3463 722 
L 3463 178 
Q 3153 47 2828 -22 
Q 2503 -91 2169 -91 
Q 1331 -91 842 396 
Q 353 884 353 1716 
Q 353 2575 817 3079 
Q 1281 3584 2069 3584 
Q 2775 3584 3186 3129 
Q 3597 2675 3597 1894 
z
M 3022 2063 
Q 3016 2534 2758 2815 
Q 2500 3097 2075 3097 
Q 1594 3097 1305 2825 
Q 1016 2553 972 2059 
L 3022 2063 
z
" transform="scale(0.015625)"/>
       <path id="DejaVuSans-6d" d="M 3328 2828 
Q 3544 3216 3844 3400 
Q 4144 3584 4550 3584 
Q 5097 3584 5394 3201 
Q 5691 2819 5691 2113 
L 5691 0 
L 5113 0 
L 5113 2094 
Q 5113 2597 4934 2840 
Q 4756 3084 4391 3084 
Q 3944 3084 3684 2787 
Q 3425 2491 3425 1978 
L 3425 0 
L 2847 0 
L 2847 2094 
Q 2847 2600 2669 2842 
Q 2491 3084 2119 3084 
Q 1678 3084 1418 2786 
Q 1159 2488 1159 1978 
L 1159 0 
L 581 0 
L 581 3500 
L 1159 3500 
L 1159 2956 
Q 1356 3278 1631 3431 
Q 1906 3584 2284 3584 
Q 2666 3584 2933 3390 
Q 3200 3197 3328 2828 
z
" transform="scale(0.015625)"/>
       <path id="DejaVuSans-70" d="M 1159 525 
L 1159 -1331 
L 581 -1331 
L 581 3500 
L 1159 3500 
L 1159 2969 
Q 1341 3281 1617 3432 
Q 1894 3584 2278 3584 
Q 2916 3584 3314 3078 
Q 3713 2572 3713 1747 
Q 3713 922 3314 415 
Q 2916 -91 2278 -91 
Q 1894 -91 1617 61 
Q 1341 213 1159 525 
z
M 3116 1747 
Q 3116 2381 2855 2742 
Q 2594 3103 2138 3103 
Q 1681 3103 1420 2742 
Q 1159 2381 1159 1747 
Q 1159 1113 1420 752 
Q 1681 391 2138 391 
Q 2594 391 2855 752 
Q 3116 1113 3116 1747 
z
" transform="scale(0.015625)"/>
       <path id="DejaVuSans-72" d="M 2631 2963 
Q 2534 3019 2420 3045 
Q 2306 3072 2169 3072 
Q 1681 3072 1420 2755 
Q 1159 2438 1159 1844 
L 1159 0 
L 581 0 
L 581 3500 
L 1159 3500 
L 1159 2956 
Q 1341 3275 1631 3429 
Q 1922 3584 2338 3584 
Q 2397 3584 2469 3576 
Q 2541 3569 2628 3553 
L 2631 2963 
z
" transform="scale(0.015625)"/>
       <path id="DejaVuSans-61" d="M 2194 1759 
Q 1497 1759 1228 1600 
Q 959 1441 959 1056 
Q 959 750 1161 570 
Q 1363 391 1709 391 
Q 2188 391 2477 730 
Q 2766 1069 2766 1631 
L 2766 1759 
L 2194 1759 
z
M 3341 1997 
L 3341 0 
L 2766 0 
L 2766 531 
Q 2569 213 2275 61 
Q 1981 -91 1556 -91 
Q 1019 -91 701 211 
Q 384 513 384 1019 
Q 384 1609 779 1909 
Q 1175 2209 1959 2209 
L 2766 2209 
L 2766 2266 
Q 2766 2663 2505 2880 
Q 2244 3097 1772 3097 
Q 1472 3097 1187 3025 
Q 903 2953 641 2809 
L 641 3341 
Q 956 3463 1253 3523 
Q 1550 3584 1831 3584 
Q 2591 3584 2966 3190 
Q 3341 2797 3341 1997 
z
" transform="scale(0.015625)"/>
       <path id="DejaVuSans-74" d="M 1172 4494 
L 1172 3500 
L 2356 3500 
L 2356 3053 
L 1172 3053 
L 1172 1153 
Q 1172 725 1289 603 
Q 1406 481 1766 481 
L 2356 481 
L 2356 0 
L 1766 0 
Q 1100 0 847 248 
Q 594 497 594 1153 
L 594 3053 
L 172 3053 
L 172 3500 
L 594 3500 
L 594 4494 
L 1172 4494 
z
" transform="scale(0.015625)"/>
       <path id="DejaVuSans-75" d="M 544 1381 
L 544 3500 
L 1119 3500 
L 1119 1403 
Q 1119 906 1312 657 
Q 1506 409 1894 409 
Q 2359 409 2629 706 
Q 2900 1003 2900 1516 
L 2900 3500 
L 3475 3500 
L 3475 0 
L 2900 0 
L 2900 538 
Q 2691 219 2414 64 
Q 2138 -91 1772 -91 
Q 1169 -91 856 284 
Q 544 659 544 1381 
z
M 1991 3584 
L 1991 3584 
z
" transform="scale(0.015625)"/>
       <path id="DejaVuSans-20" transform="scale(0.015625)"/>
       <path id="DejaVuSans-5b" d="M 550 4863 
L 1875 4863 
L 1875 4416 
L 1125 4416 
L 1125 -397 
L 1875 -397 
L 1875 -844 
L 550 -844 
L 550 4863 
z
" transform="scale(0.015625)"/>
       <path id="DejaVuSans-4b" d="M 628 4666 
L 1259 4666 
L 1259 2694 
L 3353 4666 
L 4166 4666 
L 1850 2491 
L 4331 0 
L 3500 0 
L 1259 2247 
L 1259 0 
L 628 0 
L 628 4666 
z
" transform="scale(0.015625)"/>
       <path id="DejaVuSans-5d" d="M 1947 4863 
L 1947 -844 
L 622 -844 
L 622 -397 
L 1369 -397 
L 1369 4416 
L 622 4416 
L 622 4863 
L 1947 4863 
z
" transform="scale(0.015625)"/>
      </defs>
      <use xlink:href="#DejaVuSans-54"/>
      <use xlink:href="#DejaVuSans-65" transform="translate(44.083984 0)"/>
      <use xlink:href="#DejaVuSans-6d" transform="translate(105.607422 0)"/>
      <use xlink:href="#DejaVuSans-70" transform="translate(203.019531 0)"/>
      <use xlink:href="#DejaVuSans-65" transform="translate(266.496094 0)"/>
      <use xlink:href="#DejaVuSans-72" transform="translate(328.019531 0)"/>
      <use xlink:href="#DejaVuSans-61" transform="translate(369.132812 0)"/>
      <use xlink:href="#DejaVuSans-74" transform="translate(430.412109 0)"/>
      <use xlink:href="#DejaVuSans-75" transform="translate(469.621094 0)"/>
      <use xlink:href="#DejaVuSans-72" transform="translate(533 0)"/>
      <use xlink:href="#DejaVuSans-65" transform="translate(571.863281 0)"/>
      <use xlink:href="#DejaVuSans-20" transform="translate(633.386719 0)"/>
      <use xlink:href="#DejaVuSans-5b" transform="translate(665.173828 0)"/>
      <use xlink:href="#DejaVuSans-4b" transform="translate(704.1875 0)"/>
      <use xlink:href="#DejaVuSans-5d" transform="translate(769.763672 0)"/>
     </g>
    </g>
   </g>
   <g id="line2d_31">
    <path d="M 50.14375 31.26358 
L 99.493174 31.373488 
L 106.079651 31.570701 
L 110.601709 31.91896 
L 114.435629 32.430211 
L 117.974631 33.120357 
L 121.513634 34.038609 
L 125.150942 35.216542 
L 129.083167 36.726868 
L 133.801837 38.786088 
L 142.157815 42.731855 
L 149.23582 45.960582 
L 154.347713 48.045805 
L 158.968077 49.689814 
L 163.39183 51.029893 
L 167.815583 52.141512 
L 172.435948 53.073751 
L 177.351229 53.837724 
L 182.758038 54.451159 
L 188.951293 54.925154 
L 196.815743 55.279358 
L 207.039528 55.506343 
L 223.063344 55.615747 
L 274.968714 55.642218 
L 287.748446 55.759536 
L 292.565421 56.021154 
L 296.202729 56.4318 
L 299.348509 57.009515 
L 302.199373 57.760444 
L 304.853624 58.686848 
L 307.409571 59.807853 
L 309.965517 61.166375 
L 312.619769 62.833934 
L 315.372326 64.837875 
L 318.223189 67.190682 
L 321.270664 69.997175 
L 324.613055 73.385326 
L 328.348669 77.500931 
L 332.772422 82.73211 
L 338.080926 89.371763 
L 345.650459 99.233793 
L 349.484378 104.465016 
L 359.020024 117.326033 
L 364.918361 124.956986 
L 370.128559 131.444316 
L 376.026897 138.439436 
L 381.630318 144.672138 
L 386.250682 149.489299 
L 391.165963 154.317188 
L 396.474467 159.190642 
L 401.782971 163.762482 
L 408.074531 168.897532 
L 417.413565 176.208708 
L 435.206883 190.129617 
L 447.298475 199.969597 
L 452.80359 204.302124 
L 456.047676 206.59312 
L 458.603622 208.134731 
L 460.66804 209.132901 
L 462.437541 209.755983 
L 464.010431 210.087491 
L 465.485016 210.16932 
L 466.861294 210.010843 
L 468.139268 209.631149 
L 469.318935 209.054744 
L 470.498603 208.234778 
L 471.67827 207.143959 
L 472.857938 205.753565 
L 474.135911 203.874982 
L 475.413884 201.574268 
L 476.691857 198.816748 
L 478.068136 195.300164 
L 479.54272 190.871545 
L 481.11561 185.373141 
L 482.786806 178.664218 
L 484.654613 170.184429 
L 486.817336 159.283492 
L 489.963116 142.135105 
L 494.583481 116.993434 
L 496.942816 105.412663 
L 498.908928 96.797839 
L 500.776735 89.594165 
L 502.447931 83.980015 
L 504.119126 79.126733 
L 505.692016 75.207404 
L 507.264906 71.862574 
L 508.837796 69.033114 
L 510.410686 66.659224 
L 511.983576 64.678223 
L 513.654772 62.940609 
L 515.325968 61.521711 
L 517.095469 60.307316 
L 518.963276 59.285574 
L 521.027694 58.40706 
L 523.288723 57.681716 
L 525.942975 57.065409 
L 529.088755 56.566663 
L 533.02098 56.178322 
L 538.231178 55.900269 
L 546.095628 55.726491 
L 561.824528 55.650446 
L 583.648377 55.731999 
L 588.858575 55.975157 
L 592.594189 56.362348 
L 595.739969 56.903379 
L 598.590832 57.614305 
L 601.245084 58.498113 
L 603.899336 59.620783 
L 606.455282 60.942308 
L 609.109534 62.571126 
L 611.763786 64.461178 
L 614.614649 66.766355 
L 617.662123 69.526178 
L 620.906209 72.766613 
L 624.543517 76.720111 
L 628.770659 81.661306 
L 633.882551 87.995 
L 640.763945 96.905841 
L 646.26906 104.330895 
L 655.804706 117.195929 
L 661.604738 124.705364 
L 666.913241 131.324788 
L 672.909884 138.439285 
L 678.513305 144.671782 
L 683.133669 149.488896 
L 688.048951 154.316758 
L 693.357454 159.190226 
L 698.665958 163.7621 
L 704.957518 168.897252 
L 714.296553 176.20866 
L 732.089871 190.129941 
L 744.181463 199.969727 
L 749.686578 204.302187 
L 752.930663 206.593215 
L 755.486609 208.134291 
L 757.551028 209.132099 
L 759.320529 209.754985 
L 760.893419 210.086262 
L 762.368003 210.167939 
L 763.744282 210.010331 
L 765.022255 209.630537 
L 766.201923 209.053401 
L 767.38159 208.232858 
L 768.561258 207.141302 
L 769.740925 205.749414 
L 771.018898 203.870207 
L 772.296871 201.569437 
L 773.574844 198.812445 
L 774.951123 195.296428 
L 776.425708 190.867301 
L 777.998598 185.36882 
L 779.669793 178.661307 
L 781.5376 170.184451 
L 783.700324 159.287794 
L 786.846104 142.140578 
L 791.564774 116.487301 
L 793.924109 104.952683 
L 795.890221 96.399247 
L 797.758028 89.268348 
L 799.429224 83.699697 
L 801.100419 78.885407 
L 802.673309 75.002105 
L 804.246199 71.691331 
L 805.819089 68.89171 
L 807.391979 66.541481 
L 808.964869 64.580633 
L 810.636065 62.861252 
L 812.307261 61.457181 
L 814.076762 60.255439 
L 816.042874 59.199866 
L 818.107293 58.343746 
L 820.466628 57.609545 
L 823.219185 56.99677 
L 826.463271 56.511273 
L 830.592107 56.133447 
L 836.097222 55.869707 
L 836.58875 55.854488 
L 836.58875 55.854488 
" clip-path="url(#p13f54e8a32)" style="fill: none; stroke: #d94841; stroke-width: 2; stroke-linecap: square"/>
   </g>
   <g id="patch_3">
    <path d="M 50.14375 219.118125 
L 50.14375 22.318125 
" style="fill: none; stroke: #000000; stroke-width: 0.8; stroke-linejoin: miter; stroke-linecap: square"/>
   </g>
   <g id="patch_4">
    <path d="M 836.58875 219.118125 
L 836.58875 22.318125 
" style="fill: none; stroke: #000000; stroke-width: 0.8; stroke-linejoin: miter; stroke-linecap: square"/>
   </g>
   <g id="patch_5">
    <path d="M 50.14375 219.118125 
L 836.58875 219.118125 
" style="fill: none; stroke: #000000; stroke-width: 0.8; stroke-linejoin: miter; stroke-linecap: square"/>
   </g>
   <g id="patch_6">
    <path d="M 50.14375 22.318125 
L 836.58875 22.318125 
" style="fill: none; stroke: #000000; stroke-width: 0.8; stroke-linejoin: miter; stroke-linecap: square"/>
   </g>
   <g id="text_8">
    <!-- Outlet Temperature -->
    <g transform="translate(384.867188 16.318125) scale(0.12 -0.12)">
     <defs>
      <path id="DejaVuSans-4f" d="M 2522 4238 
Q 1834 4238 1429 3725 
Q 1025 3213 1025 2328 
Q 1025 1447 1429 934 
Q 1834 422 2522 422 
Q 3209 422 3611 934 
Q 4013 1447 4013 2328 
Q 4013 3213 3611 3725 
Q 3209 4238 2522 4238 
z
M 2522 4750 
Q 3503 4750 4090 4092 
Q 4678 3434 4678 2328 
Q 4678 1225 4090 567 
Q 3503 -91 2522 -91 
Q 1538 -91 948 565 
Q 359 1222 359 2328 
Q 359 3434 948 4092 
Q 1538 4750 2522 4750 
z
" transform="scale(0.015625)"/>
      <path id="DejaVuSans-6c" d="M 603 4863 
L 1178 4863 
L 1178 0 
L 603 0 
L 603 4863 
z
" transform="scale(0.015625)"/>
     </defs>
     <use xlink:href="#DejaVuSans-4f"/>
     <use xlink:href="#DejaVuSans-75" transform="translate(78.710938 0)"/>
     <use xlink:href="#DejaVuSans-74" transform="translate(142.089844 0)"/>
     <use xlink:href="#DejaVuSans-6c" transform="translate(181.298828 0)"/>
     <use xlink:href="#DejaVuSans-65" transform="translate(209.082031 0)"/>
     <use xlink:href="#DejaVuSans-74" transform="translate(270.605469 0)"/>
     <use xlink:href="#DejaVuSans-20" transform="translate(309.814453 0)"/>
     <use xlink:href="#DejaVuSans-54" transform="translate(341.601562 0)"/>
     <use xlink:href="#DejaVuSans-65" transform="translate(385.685547 0)"/>
     <use xlink:href="#DejaVuSans-6d" transform="translate(447.208984 0)"/>
     <use xlink:href="#DejaVuSans-70" transform="translate(544.621094 0)"/>
     <use xlink:href="#DejaVuSans-65" transform="translate(608.097656 0)"/>
     <use xlink:href="#DejaVuSans-72" transform="translate(669.621094 0)"/>
     <use xlink:href="#DejaVuSans-61" transform="translate(710.734375 0)"/>
     <use xlink:href="#DejaVuSans-74" transform="translate(772.013672 0)"/>
     <use xlink:href="#DejaVuSans-75" transform="translate(811.222656 0)"/>
     <use xlink:href="#DejaVuSans-72" transform="translate(874.601562 0)"/>
     <use xlink:href="#DejaVuSans-65" transform="translate(913.464844 0)"/>
    </g>
   </g>
  </g>
  <g id="axes_2">
   <g id="patch_7">
    <path d="M 50.14375 446.298125 
L 836.58875 446.298125 
L 836.58875 249.498125 
L 50.14375 249.498125 
z
" style="fill: #ffffff"/>
   </g>
   <g id="matplotlib.axis_3">
    <g id="xtick_10">
     <g id="line2d_32">
      <path d="M 50.14375 446.298125 
L 50.14375 249.498125 
" clip-path="url(#p821d276244)" style="fill: none; stroke: #b0b0b0; stroke-opacity: 0.3; stroke-width: 0.8; stroke-linecap: square"/>
     </g>
     <g id="line2d_33">
      <g>
       <use xlink:href="#m5734f0ff18" x="50.14375" y="446.298125" style="stroke: #000000; stroke-width: 0.8"/>
      </g>
     </g>
    </g>
    <g id="xtick_11">
     <g id="line2d_34">
      <path d="M 148.449375 446.298125 
L 148.449375 249.498125 
" clip-path="url(#p821d276244)" style="fill: none; stroke: #b0b0b0; stroke-opacity: 0.3; stroke-width: 0.8; stroke-linecap: square"/>
     </g>
     <g id="line2d_35">
      <g>
       <use xlink:href="#m5734f0ff18" x="148.449375" y="446.298125" style="stroke: #000000; stroke-width: 0.8"/>
      </g>
     </g>
    </g>
    <g id="xtick_12">
     <g id="line2d_36">
      <path d="M 246.755 446.298125 
L 246.755 249.498125 
" clip-path="url(#p821d276244)" style="fill: none; stroke: #b0b0b0; stroke-opacity: 0.3; stroke-width: 0.8; stroke-linecap: square"/>
     </g>
     <g id="line2d_37">
      <g>
       <use xlink:href="#m5734f0ff18" x="246.755" y="446.298125" style="stroke: #000000; stroke-width: 0.8"/>
      </g>
     </g>
    </g>
    <g id="xtick_13">
     <g id="line2d_38">
      <path d="M 345.060625 446.298125 
L 345.060625 249.498125 
" clip-path="url(#p821d276244)" style="fill: none; stroke: #b0b0b0; stroke-opacity: 0.3; stroke-width: 0.8; stroke-linecap: square"/>
     </g>
     <g id="line2d_39">
      <g>
       <use xlink:href="#m5734f0ff18" x="345.060625" y="446.298125" style="stroke: #000000; stroke-width: 0.8"/>
      </g>
     </g>
    </g>
    <g id="xtick_14">
     <g id="line2d_40">
      <path d="M 443.36625 446.298125 
L 443.36625 249.498125 
" clip-path="url(#p821d276244)" style="fill: none; stroke: #b0b0b0; stroke-opacity: 0.3; stroke-width: 0.8; stroke-linecap: square"/>
     </g>
     <g id="line2d_41">
      <g>
       <use xlink:href="#m5734f0ff18" x="443.36625" y="446.298125" style="stroke: #000000; stroke-width: 0.8"/>
      </g>
     </g>
    </g>
    <g id="xtick_15">
     <g id="line2d_42">
      <path d="M 541.671875 446.298125 
L 541.671875 249.498125 
" clip-path="url(#p821d276244)" style="fill: none; stroke: #b0b0b0; stroke-opacity: 0.3; stroke-width: 0.8; stroke-linecap: square"/>
     </g>
     <g id="line2d_43">
      <g>
       <use xlink:href="#m5734f0ff18" x="541.671875" y="446.298125" style="stroke: #000000; stroke-width: 0.8"/>
      </g>
     </g>
    </g>
    <g id="xtick_16">
     <g id="line2d_44">
      <path d="M 639.9775 446.298125 
L 639.9775 249.498125 
" clip-path="url(#p821d276244)" style="fill: none; stroke: #b0b0b0; stroke-opacity: 0.3; stroke-width: 0.8; stroke-linecap: square"/>
     </g>
     <g id="line2d_45">
      <g>
       <use xlink:href="#m5734f0ff18" x="639.9775" y="446.298125" style="stroke: #000000; stroke-width: 0.8"/>
      </g>
     </g>
    </g>
    <g id="xtick_17">
     <g id="line2d_46">
      <path d="M 738.283125 446.298125 
L 738.283125 249.498125 
" clip-path="url(#p821d276244)" style="fill: none; stroke: #b0b0b0; stroke-opacity: 0.3; stroke-width: 0.8; stroke-linecap: square"/>
     </g>
     <g id="line2d_47">
      <g>
       <use xlink:href="#m5734f0ff18" x="738.283125" y="446.298125" style="stroke: #000000; stroke-width: 0.8"/>
      </g>
     </g>
    </g>
    <g id="xtick_18">
     <g id="line2d_48">
      <path d="M 836.58875 446.298125 
L 836.58875 249.498125 
" clip-path="url(#p821d276244)" style="fill: none; stroke: #b0b0b0; stroke-opacity: 0.3; stroke-width: 0.8; stroke-linecap: square"/>
     </g>
     <g id="line2d_49">
      <g>
       <use xlink:href="#m5734f0ff18" x="836.58875" y="446.298125" style="stroke: #000000; stroke-width: 0.8"/>
      </g>
     </g>
    </g>
   </g>
   <g id="matplotlib.axis_4">
    <g id="ytick_7">
     <g id="line2d_50">
      <path d="M 50.14375 419.461761 
L 836.58875 419.461761 
" clip-path="url(#p821d276244)" style="fill: none; stroke: #b0b0b0; stroke-opacity: 0.3; stroke-width: 0.8; stroke-linecap: square"/>
     </g>
     <g id="line2d_51">
      <g>
       <use xlink:href="#m398436b30a" x="50.14375" y="419.461761" style="stroke: #000000; stroke-width: 0.8"/>
      </g>
     </g>
     <g id="text_9">
      <!-- 4.8 -->
      <g transform="translate(27.240625 423.26098) scale(0.1 -0.1)">
       <defs>
        <path id="DejaVuSans-34" d="M 2419 4116 
L 825 1625 
L 2419 1625 
L 2419 4116 
z
M 2253 4666 
L 3047 4666 
L 3047 1625 
L 3713 1625 
L 3713 1100 
L 3047 1100 
L 3047 0 
L 2419 0 
L 2419 1100 
L 313 1100 
L 313 1709 
L 2253 4666 
z
" transform="scale(0.015625)"/>
        <path id="DejaVuSans-2e" d="M 684 794 
L 1344 794 
L 1344 0 
L 684 0 
L 684 794 
z
" transform="scale(0.015625)"/>
       </defs>
       <use xlink:href="#DejaVuSans-34"/>
       <use xlink:href="#DejaVuSans-2e" transform="translate(63.623047 0)"/>
       <use xlink:href="#DejaVuSans-38" transform="translate(95.410156 0)"/>
      </g>
     </g>
    </g>
    <g id="ytick_8">
     <g id="line2d_52">
      <path d="M 50.14375 383.679943 
L 836.58875 383.679943 
" clip-path="url(#p821d276244)" style="fill: none; stroke: #b0b0b0; stroke-opacity: 0.3; stroke-width: 0.8; stroke-linecap: square"/>
     </g>
     <g id="line2d_53">
      <g>
       <use xlink:href="#m398436b30a" x="50.14375" y="383.679943" style="stroke: #000000; stroke-width: 0.8"/>
      </g>
     </g>
     <g id="text_10">
      <!-- 4.9 -->
      <g transform="translate(27.240625 387.479162) scale(0.1 -0.1)">
       <use xlink:href="#DejaVuSans-34"/>
       <use xlink:href="#DejaVuSans-2e" transform="translate(63.623047 0)"/>
       <use xlink:href="#DejaVuSans-39" transform="translate(95.410156 0)"/>
      </g>
     </g>
    </g>
    <g id="ytick_9">
     <g id="line2d_54">
      <path d="M 50.14375 347.898125 
L 836.58875 347.898125 
" clip-path="url(#p821d276244)" style="fill: none; stroke: #b0b0b0; stroke-opacity: 0.3; stroke-width: 0.8; stroke-linecap: square"/>
     </g>
     <g id="line2d_55">
      <g>
       <use xlink:href="#m398436b30a" x="50.14375" y="347.898125" style="stroke: #000000; stroke-width: 0.8"/>
      </g>
     </g>
     <g id="text_11">
      <!-- 5.0 -->
      <g transform="translate(27.240625 351.697344) scale(0.1 -0.1)">
       <use xlink:href="#DejaVuSans-35"/>
       <use xlink:href="#DejaVuSans-2e" transform="translate(63.623047 0)"/>
       <use xlink:href="#DejaVuSans-30" transform="translate(95.410156 0)"/>
      </g>
     </g>
    </g>
    <g id="ytick_10">
     <g id="line2d_56">
      <path d="M 50.14375 312.116307 
L 836.58875 312.116307 
" clip-path="url(#p821d276244)" style="fill: none; stroke: #b0b0b0; stroke-opacity: 0.3; stroke-width: 0.8; stroke-linecap: square"/>
     </g>
     <g id="line2d_57">
      <g>
       <use xlink:href="#m398436b30a" x="50.14375" y="312.116307" style="stroke: #000000; stroke-width: 0.8"/>
      </g>
     </g>
     <g id="text_12">
      <!-- 5.1 -->
      <g transform="translate(27.240625 315.915526) scale(0.1 -0.1)">
       <defs>
        <path id="DejaVuSans-31" d="M 794 531 
L 1825 531 
L 1825 4091 
L 703 3866 
L 703 4441 
L 1819 4666 
L 2450 4666 
L 2450 531 
L 3481 531 
L 3481 0 
L 794 0 
L 794 531 
z
" transform="scale(0.015625)"/>
       </defs>
       <use xlink:href="#DejaVuSans-35"/>
       <use xlink:href="#DejaVuSans-2e" transform="translate(63.623047 0)"/>
       <use xlink:href="#DejaVuSans-31" transform="translate(95.410156 0)"/>
      </g>
     </g>
    </g>
    <g id="ytick_11">
     <g id="line2d_58">
      <path d="M 50.14375 276.334489 
L 836.58875 276.334489 
" clip-path="url(#p821d276244)" style="fill: none; stroke: #b0b0b0; stroke-opacity: 0.3; stroke-width: 0.8; stroke-linecap: square"/>
     </g>
     <g id="line2d_59">
      <g>
       <use xlink:href="#m398436b30a" x="50.14375" y="276.334489" style="stroke: #000000; stroke-width: 0.8"/>
      </g>
     </g>
     <g id="text_13">
      <!-- 5.2 -->
      <g transform="translate(27.240625 280.133707) scale(0.1 -0.1)">
       <defs>
        <path id="DejaVuSans-32" d="M 1228 531 
L 3431 531 
L 3431 0 
L 469 0 
L 469 531 
Q 828 903 1448 1529 
Q 2069 2156 2228 2338 
Q 2531 2678 2651 2914 
Q 2772 3150 2772 3378 
Q 2772 3750 2511 3984 
Q 2250 4219 1831 4219 
Q 1534 4219 1204 4116 
Q 875 4013 500 3803 
L 500 4441 
Q 881 4594 1212 4672 
Q 1544 4750 1819 4750 
Q 2544 4750 2975 4387 
Q 3406 4025 3406 3419 
Q 3406 3131 3298 2873 
Q 3191 2616 2906 2266 
Q 2828 2175 2409 1742 
Q 1991 1309 1228 531 
z
" transform="scale(0.015625)"/>
       </defs>
       <use xlink:href="#DejaVuSans-35"/>
       <use xlink:href="#DejaVuSans-2e" transform="translate(63.623047 0)"/>
       <use xlink:href="#DejaVuSans-32" transform="translate(95.410156 0)"/>
      </g>
     </g>
    </g>
    <g id="text_14">
     <!-- Pressure [Pa] -->
     <g transform="translate(21.160937 380.587187) rotate(-90) scale(0.1 -0.1)">
      <defs>
       <path id="DejaVuSans-50" d="M 1259 4147 
L 1259 2394 
L 2053 2394 
Q 2494 2394 2734 2622 
Q 2975 2850 2975 3272 
Q 2975 3691 2734 3919 
Q 2494 4147 2053 4147 
L 1259 4147 
z
M 628 4666 
L 2053 4666 
Q 2838 4666 3239 4311 
Q 3641 3956 3641 3272 
Q 3641 2581 3239 2228 
Q 2838 1875 2053 1875 
L 1259 1875 
L 1259 0 
L 628 0 
L 628 4666 
z
" transform="scale(0.015625)"/>
       <path id="DejaVuSans-73" d="M 2834 3397 
L 2834 2853 
Q 2591 2978 2328 3040 
Q 2066 3103 1784 3103 
Q 1356 3103 1142 2972 
Q 928 2841 928 2578 
Q 928 2378 1081 2264 
Q 1234 2150 1697 2047 
L 1894 2003 
Q 2506 1872 2764 1633 
Q 3022 1394 3022 966 
Q 3022 478 2636 193 
Q 2250 -91 1575 -91 
Q 1294 -91 989 -36 
Q 684 19 347 128 
L 347 722 
Q 666 556 975 473 
Q 1284 391 1588 391 
Q 1994 391 2212 530 
Q 2431 669 2431 922 
Q 2431 1156 2273 1281 
Q 2116 1406 1581 1522 
L 1381 1569 
Q 847 1681 609 1914 
Q 372 2147 372 2553 
Q 372 3047 722 3315 
Q 1072 3584 1716 3584 
Q 2034 3584 2315 3537 
Q 2597 3491 2834 3397 
z
" transform="scale(0.015625)"/>
      </defs>
      <use xlink:href="#DejaVuSans-50"/>
      <use xlink:href="#DejaVuSans-72" transform="translate(58.552734 0)"/>
      <use xlink:href="#DejaVuSans-65" transform="translate(97.416016 0)"/>
      <use xlink:href="#DejaVuSans-73" transform="translate(158.939453 0)"/>
      <use xlink:href="#DejaVuSans-73" transform="translate(211.039062 0)"/>
      <use xlink:href="#DejaVuSans-75" transform="translate(263.138672 0)"/>
      <use xlink:href="#DejaVuSans-72" transform="translate(326.517578 0)"/>
      <use xlink:href="#DejaVuSans-65" transform="translate(365.380859 0)"/>
      <use xlink:href="#DejaVuSans-20" transform="translate(426.904297 0)"/>
      <use xlink:href="#DejaVuSans-5b" transform="translate(458.691406 0)"/>
      <use xlink:href="#DejaVuSans-50" transform="translate(497.705078 0)"/>
      <use xlink:href="#DejaVuSans-61" transform="translate(553.507812 0)"/>
      <use xlink:href="#DejaVuSans-5d" transform="translate(614.787109 0)"/>
     </g>
    </g>
    <g id="text_15">
     <!-- 1e6 -->
     <g transform="translate(50.14375 246.498125) scale(0.1 -0.1)">
      <use xlink:href="#DejaVuSans-31"/>
      <use xlink:href="#DejaVuSans-65" transform="translate(63.623047 0)"/>
      <use xlink:href="#DejaVuSans-36" transform="translate(125.146484 0)"/>
     </g>
    </g>
   </g>
   <g id="line2d_60">
    <path d="M 50.14375 347.898125 
L 836.58875 347.898125 
L 836.58875 347.898125 
" clip-path="url(#p821d276244)" style="fill: none; stroke: #1d3557; stroke-width: 2; stroke-linecap: square"/>
   </g>
   <g id="patch_8">
    <path d="M 50.14375 446.298125 
L 50.14375 249.498125 
" style="fill: none; stroke: #000000; stroke-width: 0.8; stroke-linejoin: miter; stroke-linecap: square"/>
   </g>
   <g id="patch_9">
    <path d="M 836.58875 446.298125 
L 836.58875 249.498125 
" style="fill: none; stroke: #000000; stroke-width: 0.8; stroke-linejoin: miter; stroke-linecap: square"/>
   </g>
   <g id="patch_10">
    <path d="M 50.14375 446.298125 
L 836.58875 446.298125 
" style="fill: none; stroke: #000000; stroke-width: 0.8; stroke-linejoin: miter; stroke-linecap: square"/>
   </g>
   <g id="patch_11">
    <path d="M 50.14375 249.498125 
L 836.58875 249.498125 
" style="fill: none; stroke: #000000; stroke-width: 0.8; stroke-linejoin: miter; stroke-linecap: square"/>
   </g>
   <g id="text_16">
    <!-- Outlet Pressure -->
    <g transform="translate(397.257188 243.498125) scale(0.12 -0.12)">
     <use xlink:href="#DejaVuSans-4f"/>
     <use xlink:href="#DejaVuSans-75" transform="translate(78.710938 0)"/>
     <use xlink:href="#DejaVuSans-74" transform="translate(142.089844 0)"/>
     <use xlink:href="#DejaVuSans-6c" transform="translate(181.298828 0)"/>
     <use xlink:href="#DejaVuSans-65" transform="translate(209.082031 0)"/>
     <use xlink:href="#DejaVuSans-74" transform="translate(270.605469 0)"/>
     <use xlink:href="#DejaVuSans-20" transform="translate(309.814453 0)"/>
     <use xlink:href="#DejaVuSans-50" transform="translate(341.601562 0)"/>
     <use xlink:href="#DejaVuSans-72" transform="translate(400.154297 0)"/>
     <use xlink:href="#DejaVuSans-65" transform="translate(439.017578 0)"/>
     <use xlink:href="#DejaVuSans-73" transform="translate(500.541016 0)"/>
     <use xlink:href="#DejaVuSans-73" transform="translate(552.640625 0)"/>
     <use xlink:href="#DejaVuSans-75" transform="translate(604.740234 0)"/>
     <use xlink:href="#DejaVuSans-72" transform="translate(668.119141 0)"/>
     <use xlink:href="#DejaVuSans-65" transform="translate(706.982422 0)"/>
    </g>
   </g>
  </g>
  <g id="axes_3">
   <g id="patch_12">
    <path d="M 50.14375 673.478125 
L 836.58875 673.478125 
L 836.58875 476.678125 
L 50.14375 476.678125 
z
" style="fill: #ffffff"/>
   </g>
   <g id="matplotlib.axis_5">
    <g id="xtick_19">
     <g id="line2d_61">
      <path d="M 50.14375 673.478125 
L 50.14375 476.678125 
" clip-path="url(#p3e9331f9c2)" style="fill: none; stroke: #b0b0b0; stroke-opacity: 0.3; stroke-width: 0.8; stroke-linecap: square"/>
     </g>
     <g id="line2d_62">
      <g>
       <use xlink:href="#m5734f0ff18" x="50.14375" y="673.478125" style="stroke: #000000; stroke-width: 0.8"/>
      </g>
     </g>
     <g id="text_17">
      <!-- 0 -->
      <g transform="translate(46.9625 688.076562) scale(0.1 -0.1)">
       <use xlink:href="#DejaVuSans-30"/>
      </g>
     </g>
    </g>
    <g id="xtick_20">
     <g id="line2d_63">
      <path d="M 148.449375 673.478125 
L 148.449375 476.678125 
" clip-path="url(#p3e9331f9c2)" style="fill: none; stroke: #b0b0b0; stroke-opacity: 0.3; stroke-width: 0.8; stroke-linecap: square"/>
     </g>
     <g id="line2d_64">
      <g>
       <use xlink:href="#m5734f0ff18" x="148.449375" y="673.478125" style="stroke: #000000; stroke-width: 0.8"/>
      </g>
     </g>
     <g id="text_18">
      <!-- 1000 -->
      <g transform="translate(135.724375 688.076562) scale(0.1 -0.1)">
       <use xlink:href="#DejaVuSans-31"/>
       <use xlink:href="#DejaVuSans-30" transform="translate(63.623047 0)"/>
       <use xlink:href="#DejaVuSans-30" transform="translate(127.246094 0)"/>
       <use xlink:href="#DejaVuSans-30" transform="translate(190.869141 0)"/>
      </g>
     </g>
    </g>
    <g id="xtick_21">
     <g id="line2d_65">
      <path d="M 246.755 673.478125 
L 246.755 476.678125 
" clip-path="url(#p3e9331f9c2)" style="fill: none; stroke: #b0b0b0; stroke-opacity: 0.3; stroke-width: 0.8; stroke-linecap: square"/>
     </g>
     <g id="line2d_66">
      <g>
       <use xlink:href="#m5734f0ff18" x="246.755" y="673.478125" style="stroke: #000000; stroke-width: 0.8"/>
      </g>
     </g>
     <g id="text_19">
      <!-- 2000 -->
      <g transform="translate(234.03 688.076562) scale(0.1 -0.1)">
       <use xlink:href="#DejaVuSans-32"/>
       <use xlink:href="#DejaVuSans-30" transform="translate(63.623047 0)"/>
       <use xlink:href="#DejaVuSans-30" transform="translate(127.246094 0)"/>
       <use xlink:href="#DejaVuSans-30" transform="translate(190.869141 0)"/>
      </g>
     </g>
    </g>
    <g id="xtick_22">
     <g id="line2d_67">
      <path d="M 345.060625 673.478125 
L 345.060625 476.678125 
" clip-path="url(#p3e9331f9c2)" style="fill: none; stroke: #b0b0b0; stroke-opacity: 0.3; stroke-width: 0.8; stroke-linecap: square"/>
     </g>
     <g id="line2d_68">
      <g>
       <use xlink:href="#m5734f0ff18" x="345.060625" y="673.478125" style="stroke: #000000; stroke-width: 0.8"/>
      </g>
     </g>
     <g id="text_20">
      <!-- 3000 -->
      <g transform="translate(332.335625 688.076562) scale(0.1 -0.1)">
       <defs>
        <path id="DejaVuSans-33" d="M 2597 2516 
Q 3050 2419 3304 2112 
Q 3559 1806 3559 1356 
Q 3559 666 3084 287 
Q 2609 -91 1734 -91 
Q 1441 -91 1130 -33 
Q 819 25 488 141 
L 488 750 
Q 750 597 1062 519 
Q 1375 441 1716 441 
Q 2309 441 2620 675 
Q 2931 909 2931 1356 
Q 2931 1769 2642 2001 
Q 2353 2234 1838 2234 
L 1294 2234 
L 1294 2753 
L 1863 2753 
Q 2328 2753 2575 2939 
Q 2822 3125 2822 3475 
Q 2822 3834 2567 4026 
Q 2313 4219 1838 4219 
Q 1578 4219 1281 4162 
Q 984 4106 628 3988 
L 628 4550 
Q 988 4650 1302 4700 
Q 1616 4750 1894 4750 
Q 2613 4750 3031 4423 
Q 3450 4097 3450 3541 
Q 3450 3153 3228 2886 
Q 3006 2619 2597 2516 
z
" transform="scale(0.015625)"/>
       </defs>
       <use xlink:href="#DejaVuSans-33"/>
       <use xlink:href="#DejaVuSans-30" transform="translate(63.623047 0)"/>
       <use xlink:href="#DejaVuSans-30" transform="translate(127.246094 0)"/>
       <use xlink:href="#DejaVuSans-30" transform="translate(190.869141 0)"/>
      </g>
     </g>
    </g>
    <g id="xtick_23">
     <g id="line2d_69">
      <path d="M 443.36625 673.478125 
L 443.36625 476.678125 
" clip-path="url(#p3e9331f9c2)" style="fill: none; stroke: #b0b0b0; stroke-opacity: 0.3; stroke-width: 0.8; stroke-linecap: square"/>
     </g>
     <g id="line2d_70">
      <g>
       <use xlink:href="#m5734f0ff18" x="443.36625" y="673.478125" style="stroke: #000000; stroke-width: 0.8"/>
      </g>
     </g>
     <g id="text_21">
      <!-- 4000 -->
      <g transform="translate(430.64125 688.076562) scale(0.1 -0.1)">
       <use xlink:href="#DejaVuSans-34"/>
       <use xlink:href="#DejaVuSans-30" transform="translate(63.623047 0)"/>
       <use xlink:href="#DejaVuSans-30" transform="translate(127.246094 0)"/>
       <use xlink:href="#DejaVuSans-30" transform="translate(190.869141 0)"/>
      </g>
     </g>
    </g>
    <g id="xtick_24">
     <g id="line2d_71">
      <path d="M 541.671875 673.478125 
L 541.671875 476.678125 
" clip-path="url(#p3e9331f9c2)" style="fill: none; stroke: #b0b0b0; stroke-opacity: 0.3; stroke-width: 0.8; stroke-linecap: square"/>
     </g>
     <g id="line2d_72">
      <g>
       <use xlink:href="#m5734f0ff18" x="541.671875" y="673.478125" style="stroke: #000000; stroke-width: 0.8"/>
      </g>
     </g>
     <g id="text_22">
      <!-- 5000 -->
      <g transform="translate(528.946875 688.076562) scale(0.1 -0.1)">
       <use xlink:href="#DejaVuSans-35"/>
       <use xlink:href="#DejaVuSans-30" transform="translate(63.623047 0)"/>
       <use xlink:href="#DejaVuSans-30" transform="translate(127.246094 0)"/>
       <use xlink:href="#DejaVuSans-30" transform="translate(190.869141 0)"/>
      </g>
     </g>
    </g>
    <g id="xtick_25">
     <g id="line2d_73">
      <path d="M 639.9775 673.478125 
L 639.9775 476.678125 
" clip-path="url(#p3e9331f9c2)" style="fill: none; stroke: #b0b0b0; stroke-opacity: 0.3; stroke-width: 0.8; stroke-linecap: square"/>
     </g>
     <g id="line2d_74">
      <g>
       <use xlink:href="#m5734f0ff18" x="639.9775" y="673.478125" style="stroke: #000000; stroke-width: 0.8"/>
      </g>
     </g>
     <g id="text_23">
      <!-- 6000 -->
      <g transform="translate(627.2525 688.076562) scale(0.1 -0.1)">
       <use xlink:href="#DejaVuSans-36"/>
       <use xlink:href="#DejaVuSans-30" transform="translate(63.623047 0)"/>
       <use xlink:href="#DejaVuSans-30" transform="translate(127.246094 0)"/>
       <use xlink:href="#DejaVuSans-30" transform="translate(190.869141 0)"/>
      </g>
     </g>
    </g>
    <g id="xtick_26">
     <g id="line2d_75">
      <path d="M 738.283125 673.478125 
L 738.283125 476.678125 
" clip-path="url(#p3e9331f9c2)" style="fill: none; stroke: #b0b0b0; stroke-opacity: 0.3; stroke-width: 0.8; stroke-linecap: square"/>
     </g>
     <g id="line2d_76">
      <g>
       <use xlink:href="#m5734f0ff18" x="738.283125" y="673.478125" style="stroke: #000000; stroke-width: 0.8"/>
      </g>
     </g>
     <g id="text_24">
      <!-- 7000 -->
      <g transform="translate(725.558125 688.076562) scale(0.1 -0.1)">
       <use xlink:href="#DejaVuSans-37"/>
       <use xlink:href="#DejaVuSans-30" transform="translate(63.623047 0)"/>
       <use xlink:href="#DejaVuSans-30" transform="translate(127.246094 0)"/>
       <use xlink:href="#DejaVuSans-30" transform="translate(190.869141 0)"/>
      </g>
     </g>
    </g>
    <g id="xtick_27">
     <g id="line2d_77">
      <path d="M 836.58875 673.478125 
L 836.58875 476.678125 
" clip-path="url(#p3e9331f9c2)" style="fill: none; stroke: #b0b0b0; stroke-opacity: 0.3; stroke-width: 0.8; stroke-linecap: square"/>
     </g>
     <g id="line2d_78">
      <g>
       <use xlink:href="#m5734f0ff18" x="836.58875" y="673.478125" style="stroke: #000000; stroke-width: 0.8"/>
      </g>
     </g>
     <g id="text_25">
      <!-- 8000 -->
      <g transform="translate(823.86375 688.076562) scale(0.1 -0.1)">
       <use xlink:href="#DejaVuSans-38"/>
       <use xlink:href="#DejaVuSans-30" transform="translate(63.623047 0)"/>
       <use xlink:href="#DejaVuSans-30" transform="translate(127.246094 0)"/>
       <use xlink:href="#DejaVuSans-30" transform="translate(190.869141 0)"/>
      </g>
     </g>
    </g>
    <g id="text_26">
     <!-- Time [s] -->
     <g transform="translate(423.037344 701.754687) scale(0.1 -0.1)">
      <defs>
       <path id="DejaVuSans-69" d="M 603 3500 
L 1178 3500 
L 1178 0 
L 603 0 
L 603 3500 
z
M 603 4863 
L 1178 4863 
L 1178 4134 
L 603 4134 
L 603 4863 
z
" transform="scale(0.015625)"/>
      </defs>
      <use xlink:href="#DejaVuSans-54"/>
      <use xlink:href="#DejaVuSans-69" transform="translate(57.958984 0)"/>
      <use xlink:href="#DejaVuSans-6d" transform="translate(85.742188 0)"/>
      <use xlink:href="#DejaVuSans-65" transform="translate(183.154297 0)"/>
      <use xlink:href="#DejaVuSans-20" transform="translate(244.677734 0)"/>
      <use xlink:href="#DejaVuSans-5b" transform="translate(276.464844 0)"/>
      <use xlink:href="#DejaVuSans-73" transform="translate(315.478516 0)"/>
      <use xlink:href="#DejaVuSans-5d" transform="translate(367.578125 0)"/>
     </g>
    </g>
   </g>
   <g id="matplotlib.axis_6">
    <g id="ytick_12">
     <g id="line2d_79">
      <path d="M 50.14375 662.972602 
L 836.58875 662.972602 
" clip-path="url(#p3e9331f9c2)" style="fill: none; stroke: #b0b0b0; stroke-opacity: 0.3; stroke-width: 0.8; stroke-linecap: square"/>
     </g>
     <g id="line2d_80">
      <g>
       <use xlink:href="#m398436b30a" x="50.14375" y="662.972602" style="stroke: #000000; stroke-width: 0.8"/>
      </g>
     </g>
     <g id="text_27">
      <!-- 0.99 -->
      <g transform="translate(20.878125 666.771821) scale(0.1 -0.1)">
       <use xlink:href="#DejaVuSans-30"/>
       <use xlink:href="#DejaVuSans-2e" transform="translate(63.623047 0)"/>
       <use xlink:href="#DejaVuSans-39" transform="translate(95.410156 0)"/>
       <use xlink:href="#DejaVuSans-39" transform="translate(159.033203 0)"/>
      </g>
     </g>
    </g>
    <g id="ytick_13">
     <g id="line2d_81">
      <path d="M 50.14375 633.033905 
L 836.58875 633.033905 
" clip-path="url(#p3e9331f9c2)" style="fill: none; stroke: #b0b0b0; stroke-opacity: 0.3; stroke-width: 0.8; stroke-linecap: square"/>
     </g>
     <g id="line2d_82">
      <g>
       <use xlink:href="#m398436b30a" x="50.14375" y="633.033905" style="stroke: #000000; stroke-width: 0.8"/>
      </g>
     </g>
     <g id="text_28">
      <!-- 1.00 -->
      <g transform="translate(20.878125 636.833124) scale(0.1 -0.1)">
       <use xlink:href="#DejaVuSans-31"/>
       <use xlink:href="#DejaVuSans-2e" transform="translate(63.623047 0)"/>
       <use xlink:href="#DejaVuSans-30" transform="translate(95.410156 0)"/>
       <use xlink:href="#DejaVuSans-30" transform="translate(159.033203 0)"/>
      </g>
     </g>
    </g>
    <g id="ytick_14">
     <g id="line2d_83">
      <path d="M 50.14375 603.095208 
L 836.58875 603.095208 
" clip-path="url(#p3e9331f9c2)" style="fill: none; stroke: #b0b0b0; stroke-opacity: 0.3; stroke-width: 0.8; stroke-linecap: square"/>
     </g>
     <g id="line2d_84">
      <g>
       <use xlink:href="#m398436b30a" x="50.14375" y="603.095208" style="stroke: #000000; stroke-width: 0.8"/>
      </g>
     </g>
     <g id="text_29">
      <!-- 1.01 -->
      <g transform="translate(20.878125 606.894427) scale(0.1 -0.1)">
       <use xlink:href="#DejaVuSans-31"/>
       <use xlink:href="#DejaVuSans-2e" transform="translate(63.623047 0)"/>
       <use xlink:href="#DejaVuSans-30" transform="translate(95.410156 0)"/>
       <use xlink:href="#DejaVuSans-31" transform="translate(159.033203 0)"/>
      </g>
     </g>
    </g>
    <g id="ytick_15">
     <g id="line2d_85">
      <path d="M 50.14375 573.156512 
L 836.58875 573.156512 
" clip-path="url(#p3e9331f9c2)" style="fill: none; stroke: #b0b0b0; stroke-opacity: 0.3; stroke-width: 0.8; stroke-linecap: square"/>
     </g>
     <g id="line2d_86">
      <g>
       <use xlink:href="#m398436b30a" x="50.14375" y="573.156512" style="stroke: #000000; stroke-width: 0.8"/>
      </g>
     </g>
     <g id="text_30">
      <!-- 1.02 -->
      <g transform="translate(20.878125 576.95573) scale(0.1 -0.1)">
       <use xlink:href="#DejaVuSans-31"/>
       <use xlink:href="#DejaVuSans-2e" transform="translate(63.623047 0)"/>
       <use xlink:href="#DejaVuSans-30" transform="translate(95.410156 0)"/>
       <use xlink:href="#DejaVuSans-32" transform="translate(159.033203 0)"/>
      </g>
     </g>
    </g>
    <g id="ytick_16">
     <g id="line2d_87">
      <path d="M 50.14375 543.217815 
L 836.58875 543.217815 
" clip-path="url(#p3e9331f9c2)" style="fill: none; stroke: #b0b0b0; stroke-opacity: 0.3; stroke-width: 0.8; stroke-linecap: square"/>
     </g>
     <g id="line2d_88">
      <g>
       <use xlink:href="#m398436b30a" x="50.14375" y="543.217815" style="stroke: #000000; stroke-width: 0.8"/>
      </g>
     </g>
     <g id="text_31">
      <!-- 1.03 -->
      <g transform="translate(20.878125 547.017034) scale(0.1 -0.1)">
       <use xlink:href="#DejaVuSans-31"/>
       <use xlink:href="#DejaVuSans-2e" transform="translate(63.623047 0)"/>
       <use xlink:href="#DejaVuSans-30" transform="translate(95.410156 0)"/>
       <use xlink:href="#DejaVuSans-33" transform="translate(159.033203 0)"/>
      </g>
     </g>
    </g>
    <g id="ytick_17">
     <g id="line2d_89">
      <path d="M 50.14375 513.279118 
L 836.58875 513.279118 
" clip-path="url(#p3e9331f9c2)" style="fill: none; stroke: #b0b0b0; stroke-opacity: 0.3; stroke-width: 0.8; stroke-linecap: square"/>
     </g>
     <g id="line2d_90">
      <g>
       <use xlink:href="#m398436b30a" x="50.14375" y="513.279118" style="stroke: #000000; stroke-width: 0.8"/>
      </g>
     </g>
     <g id="text_32">
      <!-- 1.04 -->
      <g transform="translate(20.878125 517.078337) scale(0.1 -0.1)">
       <use xlink:href="#DejaVuSans-31"/>
       <use xlink:href="#DejaVuSans-2e" transform="translate(63.623047 0)"/>
       <use xlink:href="#DejaVuSans-30" transform="translate(95.410156 0)"/>
       <use xlink:href="#DejaVuSans-34" transform="translate(159.033203 0)"/>
      </g>
     </g>
    </g>
    <g id="ytick_18">
     <g id="line2d_91">
      <path d="M 50.14375 483.340421 
L 836.58875 483.340421 
" clip-path="url(#p3e9331f9c2)" style="fill: none; stroke: #b0b0b0; stroke-opacity: 0.3; stroke-width: 0.8; stroke-linecap: square"/>
     </g>
     <g id="line2d_92">
      <g>
       <use xlink:href="#m398436b30a" x="50.14375" y="483.340421" style="stroke: #000000; stroke-width: 0.8"/>
      </g>
     </g>
     <g id="text_33">
      <!-- 1.05 -->
      <g transform="translate(20.878125 487.13964) scale(0.1 -0.1)">
       <use xlink:href="#DejaVuSans-31"/>
       <use xlink:href="#DejaVuSans-2e" transform="translate(63.623047 0)"/>
       <use xlink:href="#DejaVuSans-30" transform="translate(95.410156 0)"/>
       <use xlink:href="#DejaVuSans-35" transform="translate(159.033203 0)"/>
      </g>
     </g>
    </g>
    <g id="text_34">
     <!-- Flowrate [mol/s] -->
     <g transform="translate(14.798438 615.746094) rotate(-90) scale(0.1 -0.1)">
      <defs>
       <path id="DejaVuSans-46" d="M 628 4666 
L 3309 4666 
L 3309 4134 
L 1259 4134 
L 1259 2759 
L 3109 2759 
L 3109 2228 
L 1259 2228 
L 1259 0 
L 628 0 
L 628 4666 
z
" transform="scale(0.015625)"/>
       <path id="DejaVuSans-6f" d="M 1959 3097 
Q 1497 3097 1228 2736 
Q 959 2375 959 1747 
Q 959 1119 1226 758 
Q 1494 397 1959 397 
Q 2419 397 2687 759 
Q 2956 1122 2956 1747 
Q 2956 2369 2687 2733 
Q 2419 3097 1959 3097 
z
M 1959 3584 
Q 2709 3584 3137 3096 
Q 3566 2609 3566 1747 
Q 3566 888 3137 398 
Q 2709 -91 1959 -91 
Q 1206 -91 779 398 
Q 353 888 353 1747 
Q 353 2609 779 3096 
Q 1206 3584 1959 3584 
z
" transform="scale(0.015625)"/>
       <path id="DejaVuSans-77" d="M 269 3500 
L 844 3500 
L 1563 769 
L 2278 3500 
L 2956 3500 
L 3675 769 
L 4391 3500 
L 4966 3500 
L 4050 0 
L 3372 0 
L 2619 2869 
L 1863 0 
L 1184 0 
L 269 3500 
z
" transform="scale(0.015625)"/>
       <path id="DejaVuSans-2f" d="M 1625 4666 
L 2156 4666 
L 531 -594 
L 0 -594 
L 1625 4666 
z
" transform="scale(0.015625)"/>
      </defs>
      <use xlink:href="#DejaVuSans-46"/>
      <use xlink:href="#DejaVuSans-6c" transform="translate(57.519531 0)"/>
      <use xlink:href="#DejaVuSans-6f" transform="translate(85.302734 0)"/>
      <use xlink:href="#DejaVuSans-77" transform="translate(146.484375 0)"/>
      <use xlink:href="#DejaVuSans-72" transform="translate(228.271484 0)"/>
      <use xlink:href="#DejaVuSans-61" transform="translate(269.384766 0)"/>
      <use xlink:href="#DejaVuSans-74" transform="translate(330.664062 0)"/>
      <use xlink:href="#DejaVuSans-65" transform="translate(369.873047 0)"/>
      <use xlink:href="#DejaVuSans-20" transform="translate(431.396484 0)"/>
      <use xlink:href="#DejaVuSans-5b" transform="translate(463.183594 0)"/>
      <use xlink:href="#DejaVuSans-6d" transform="translate(502.197266 0)"/>
      <use xlink:href="#DejaVuSans-6f" transform="translate(599.609375 0)"/>
      <use xlink:href="#DejaVuSans-6c" transform="translate(660.791016 0)"/>
      <use xlink:href="#DejaVuSans-2f" transform="translate(688.574219 0)"/>
      <use xlink:href="#DejaVuSans-73" transform="translate(722.265625 0)"/>
      <use xlink:href="#DejaVuSans-5d" transform="translate(774.365234 0)"/>
     </g>
    </g>
   </g>
   <g id="line2d_93">
    <path d="M 50.14375 633.031376 
L 59.974313 633.031376 
L 60.269229 607.150089 
L 60.760758 586.577124 
L 61.448897 568.14227 
L 62.235342 552.714251 
L 63.120093 539.486383 
L 64.103149 528.88412 
L 65.676039 514.430796 
L 67.150623 502.946243 
L 68.625208 493.224274 
L 69.804875 486.485023 
L 70.198098 485.893331 
L 70.59132 485.680476 
L 71.279459 485.627277 
L 75.30999 485.77135 
L 100.869453 485.941467 
L 105.1949 486.225858 
L 108.537291 486.661684 
L 111.388154 487.249389 
L 114.042406 488.019306 
L 116.598353 488.992421 
L 119.154299 490.208423 
L 121.710245 491.66995 
L 124.462803 493.506555 
L 127.411971 495.744648 
L 130.852668 498.641473 
L 135.473033 502.847424 
L 146.384957 512.884457 
L 150.513793 516.309078 
L 154.151101 519.043044 
L 157.493493 521.294449 
L 160.835884 523.286571 
L 164.178275 525.020972 
L 167.618972 526.549355 
L 171.059669 527.833738 
L 174.598671 528.925188 
L 178.432591 529.876326 
L 182.561427 530.671993 
L 186.98518 531.308993 
L 192.293684 531.835687 
L 198.978466 532.2578 
L 207.334444 532.543791 
L 219.032814 532.702729 
L 244.395665 532.766734 
L 246.755 532.767446 
L 247.738056 581.813144 
L 248.622807 583.778662 
L 249.704169 585.611856 
L 250.883836 587.162809 
L 252.063504 588.347761 
L 253.538088 589.336171 
L 254.127922 589.507819 
L 254.914367 589.487716 
L 256.094034 589.257103 
L 256.290646 588.752191 
L 256.487257 587.025311 
L 256.782174 582.628949 
L 256.880479 583.105528 
L 257.666924 592.667488 
L 258.060147 594.455505 
L 258.551675 595.626666 
L 259.141509 596.496293 
L 260.124565 597.461796 
L 261.205927 598.200691 
L 262.385594 598.749257 
L 263.663568 599.094426 
L 265.138152 599.211088 
L 266.416125 599.076883 
L 267.989015 598.662617 
L 269.168683 598.19429 
L 269.561905 597.740408 
L 269.758516 597.158638 
L 269.955128 595.774872 
L 270.34835 591.193608 
L 270.446656 591.525692 
L 271.429712 599.240198 
L 271.822934 600.225504 
L 272.314463 600.880884 
L 273.002602 601.387291 
L 273.887353 601.747485 
L 275.165326 602.016858 
L 276.738216 602.116154 
L 278.507717 601.992318 
L 280.080607 601.684851 
L 282.046719 601.124502 
L 283.128081 600.683535 
L 283.521304 600.336555 
L 283.816221 599.724259 
L 284.012832 598.721719 
L 284.307749 595.141879 
L 284.50436 593.579091 
L 284.602666 593.862575 
L 285.585722 600.918395 
L 285.978944 601.869019 
L 286.470473 602.485631 
L 287.158612 602.955846 
L 288.141668 603.329098 
L 289.616253 603.618808 
L 291.975588 603.778174 
L 295.219673 603.65046 
L 297.873925 603.251531 
L 298.168842 602.914132 
L 298.365453 602.387205 
L 298.562064 601.188392 
L 299.053593 596.733608 
L 299.250204 598.132531 
L 299.840038 603.06079 
L 300.23326 604.629881 
L 300.724788 605.671933 
L 301.314622 606.42723 
L 302.395984 607.377376 
L 304.460402 608.774917 
L 312.423158 613.730796 
L 312.718074 613.749651 
L 312.914686 613.61681 
L 313.111297 613.186732 
L 313.307908 612.037881 
L 313.701131 608.077352 
L 313.799436 608.192574 
L 314.094353 610.83398 
L 314.585881 615.044908 
L 315.077409 617.213464 
L 315.667243 618.705508 
L 316.551994 620.302121 
L 318.223189 622.783973 
L 321.270664 626.879292 
L 325.596111 632.326764 
L 327.267307 634.204672 
L 327.660529 634.40279 
L 327.857141 634.298272 
L 328.053752 633.807344 
L 328.250363 632.434792 
L 328.643586 629.204635 
L 328.840197 630.535428 
L 329.528336 636.789425 
L 330.019864 638.994632 
L 330.708004 640.869606 
L 331.789366 643.046787 
L 333.657173 646.220303 
L 335.819896 649.50741 
L 339.162288 654.06126 
L 341.718234 657.131168 
L 342.406373 657.729643 
L 342.70129 657.796781 
L 342.897901 657.613979 
L 343.094513 656.959467 
L 343.291124 655.310518 
L 343.586041 652.551883 
L 343.684346 652.684047 
L 343.979263 655.325946 
L 344.470791 659.638877 
L 344.962319 661.917662 
L 345.552153 663.521222 
L 346.043681 664.530681 
L 347.026738 510.989727 
L 348.108099 538.884033 
L 348.796239 549.548527 
L 349.484378 557.045687 
L 350.172518 562.416072 
L 351.745408 572.828977 
L 352.040324 578.970934 
L 352.236936 588.611283 
L 352.335241 600.358026 
L 352.433547 634.5323 
L 352.630158 613.950674 
L 352.826769 610.216183 
L 353.219992 607.260703 
L 353.613214 602.002963 
L 354.203048 589.874624 
L 355.186104 569.48133 
L 355.775938 561.863628 
L 356.267466 558.37485 
L 356.562383 557.394865 
L 356.758994 557.189283 
L 356.955606 557.329321 
L 357.250523 558.207567 
L 357.643745 560.600573 
L 358.135273 565.442964 
L 358.626801 572.502613 
L 359.216635 584.653536 
L 360.00308 606.479217 
L 360.691219 623.971958 
L 360.986136 627.493199 
L 361.182748 627.88743 
L 361.379359 627.038429 
L 361.674276 624.132478 
L 362.165804 616.582213 
L 363.640388 591.731425 
L 364.131916 586.903748 
L 364.525139 584.60732 
L 364.820056 583.749132 
L 365.016667 583.590037 
L 365.213278 583.689886 
L 365.508195 584.462375 
L 365.901418 586.575811 
L 366.392946 591.106981 
L 366.982779 599.360884 
L 368.653975 626.701568 
L 368.850586 627.337222 
L 368.948892 627.322074 
L 369.145503 626.688678 
L 369.44042 624.612354 
L 369.931948 619.301578 
L 371.308227 603.174916 
L 371.799755 599.715326 
L 372.192978 598.07705 
L 372.5862 597.402181 
L 372.782811 597.40606 
L 373.077728 597.88134 
L 373.470951 599.372307 
L 373.962479 602.685161 
L 374.552313 608.788645 
L 375.437063 621.090692 
L 376.026897 628.34702 
L 376.321814 630.272899 
L 376.518425 630.667073 
L 376.616731 630.609253 
L 376.813342 630.05086 
L 377.108259 628.34817 
L 377.698093 623.092386 
L 378.779454 613.01704 
L 379.369288 609.536774 
L 379.762511 608.225126 
L 380.057428 607.754169 
L 380.254039 607.682068 
L 380.45065 607.803546 
L 380.745567 608.352661 
L 381.138789 609.794817 
L 381.630318 612.779896 
L 382.220151 618.051215 
L 383.793041 633.775403 
L 384.087958 634.437035 
L 384.284569 634.193018 
L 384.579486 633.006097 
L 385.071014 629.645894 
L 386.545599 618.682551 
L 387.037127 616.710979 
L 387.430349 615.893826 
L 387.725266 615.716165 
L 387.921878 615.805628 
L 388.216794 616.250528 
L 388.610017 617.439424 
L 389.101545 619.898766 
L 389.691379 624.233188 
L 391.264269 637.104088 
L 391.46088 637.615823 
L 391.657491 637.639881 
L 391.854103 637.246082 
L 392.149019 636.051229 
L 392.738853 632.303127 
L 393.820215 625.350927 
L 394.311743 623.385685 
L 394.704966 622.482644 
L 394.999883 622.198478 
L 395.196494 622.190091 
L 395.491411 622.449669 
L 395.786328 623.026496 
L 396.17955 624.307403 
L 396.671078 626.710752 
L 397.359218 631.392055 
L 398.440579 638.969338 
L 398.735496 639.961618 
L 398.932108 640.153525 
L 399.128719 640.000966 
L 399.423636 639.135335 
L 399.816858 637.250131 
L 401.291443 629.485355 
L 401.782971 628.120437 
L 402.176193 627.606654 
L 402.47111 627.552235 
L 402.766027 627.780741 
L 403.159249 628.515224 
L 403.650778 630.114777 
L 404.240611 632.971398 
L 405.813501 641.489543 
L 406.108418 641.916931 
L 406.305029 641.843562 
L 406.501641 641.489945 
L 406.894863 640.170443 
L 408.664364 632.999536 
L 409.155893 632.222753 
L 409.450809 632.072036 
L 409.745726 632.156696 
L 410.040643 632.475038 
L 410.433866 633.261183 
L 410.925394 634.803282 
L 411.515228 637.300603 
L 412.694895 642.47416 
L 412.989812 643.080658 
L 413.186423 643.198595 
L 413.383034 643.097247 
L 413.677951 642.572224 
L 414.169479 641.044663 
L 415.349147 637.177327 
L 415.840675 636.281699 
L 416.233898 635.955615 
L 416.528814 635.938551 
L 416.823731 636.110678 
L 417.216954 636.633011 
L 417.708482 637.721913 
L 418.396621 639.906647 
L 419.477983 643.504317 
L 419.871206 644.129818 
L 420.166123 644.173165 
L 420.461039 643.87497 
L 420.854262 643.083482 
L 422.328846 639.742061 
L 422.820374 639.265264 
L 423.213597 639.192186 
L 423.606819 639.374682 
L 424.098348 639.957942 
L 424.786487 641.285385 
L 426.261071 644.71304 
L 426.654294 645.021362 
L 426.949211 644.918562 
L 427.244128 644.692166 
L 427.63735 644.142053 
L 428.620406 642.578402 
L 429.111934 642.104746 
L 429.603463 641.925659 
L 429.996685 641.999222 
L 430.488213 642.341184 
L 431.078047 643.079953 
L 432.847548 645.665605 
L 433.240771 645.788538 
L 433.633993 645.657582 
L 434.223827 645.173808 
L 435.206883 644.354415 
L 435.796717 644.153983 
L 436.583162 644.314506 
L 437.172996 644.718274 
L 437.861135 645.377112 
L 438.844191 646.264692 
L 439.335719 646.47209 
L 439.827248 646.469925 
L 440.515387 646.236261 
L 441.79336 645.859257 
L 442.481499 645.908511 
L 443.267944 646.187621 
L 445.332363 647.106115 
L 446.118808 647.144067 
L 447.888309 647.030728 
L 449.067976 647.177384 
L 452.017145 647.681245 
L 460.66804 647.879993 
L 464.207043 647.694917 
L 469.613852 647.052324 
L 474.234216 646.259859 
L 477.085079 645.574559 
L 479.051192 644.88161 
L 480.624082 644.089646 
L 482.000361 643.145798 
L 483.474945 641.735921 
L 484.654613 640.255246 
L 485.932586 638.216007 
L 487.112253 635.87902 
L 488.291921 633.083269 
L 489.569894 629.503686 
L 491.044478 624.674747 
L 492.715674 618.376354 
L 494.780092 609.640107 
L 498.319094 593.416491 
L 501.464874 579.390151 
L 503.627598 570.723311 
L 505.495405 564.106315 
L 507.264906 558.634015 
L 508.936102 554.174164 
L 510.508992 550.578007 
L 512.081882 547.513081 
L 513.654772 544.922369 
L 515.227662 542.750167 
L 516.800552 540.940364 
L 518.471748 539.35357 
L 520.241249 537.9913 
L 522.109056 536.846635 
L 524.075168 535.906015 
L 526.336198 535.082137 
L 528.892144 534.401768 
L 531.841313 533.857304 
L 535.380315 533.435034 
L 540.000679 533.11718 
L 543.637988 532.976936 
L 544.621044 581.99315 
L 545.800711 584.450643 
L 546.587156 585.747762 
L 547.766824 587.277611 
L 549.143103 588.609373 
L 550.126159 589.282499 
L 550.814298 589.533416 
L 551.699049 589.585484 
L 552.977022 589.305515 
L 553.173633 588.805846 
L 553.370244 587.094264 
L 553.665161 582.668161 
L 553.763467 583.143945 
L 554.549912 592.709151 
L 554.943134 594.498349 
L 555.434663 595.666181 
L 556.122802 596.645412 
L 557.007553 597.492219 
L 558.088914 598.227886 
L 559.268582 598.76928 
L 560.546555 599.110921 
L 561.824528 599.228695 
L 563.102501 599.12514 
L 564.675391 598.734521 
L 566.05167 598.201904 
L 566.346587 597.928713 
L 566.641504 597.16846 
L 566.838115 595.790642 
L 567.231338 591.200884 
L 567.329643 591.523591 
L 568.312699 599.244684 
L 568.705922 600.229077 
L 569.19745 600.887996 
L 569.885589 601.386511 
L 570.868646 601.787022 
L 572.539841 602.07784 
L 574.211037 602.105251 
L 575.882233 601.917986 
L 578.241568 601.3402 
L 579.912763 600.741819 
L 580.404291 600.336617 
L 580.699208 599.724596 
L 580.895819 598.729501 
L 581.190736 595.155789 
L 581.387348 593.578249 
L 581.485653 593.855838 
L 582.468709 600.925895 
L 582.861932 601.86971 
L 583.35346 602.481899 
L 584.041599 602.954949 
L 584.92635 603.301755 
L 586.400934 603.608802 
L 588.367047 603.77016 
L 591.21791 603.713004 
L 594.560301 603.365221 
L 594.953524 603.069735 
L 595.150135 602.707017 
L 595.346746 601.917487 
L 595.543358 600.148104 
L 595.838274 596.792485 
L 595.93658 596.739015 
L 596.133191 598.133071 
L 596.723025 603.053537 
L 597.116248 604.626698 
L 597.607776 605.672438 
L 598.295915 606.529499 
L 599.377277 607.449023 
L 601.343389 608.776869 
L 609.404451 613.756268 
L 609.699368 613.706085 
L 609.895979 613.457795 
L 610.09259 612.747941 
L 610.289201 611.026703 
L 610.584118 608.080094 
L 610.682424 608.1859 
L 610.977341 610.81899 
L 611.468869 615.036222 
L 611.960397 617.209632 
L 612.550231 618.706165 
L 613.533287 620.459275 
L 615.302788 623.060222 
L 618.546874 627.392588 
L 622.872321 632.806345 
L 624.150294 634.206581 
L 624.543517 634.404077 
L 624.740128 634.300148 
L 624.936739 633.81072 
L 625.133351 632.443472 
L 625.526573 629.202938 
L 625.723184 630.527214 
L 626.411324 636.788291 
L 626.902852 638.992571 
L 627.590991 640.869971 
L 628.672353 643.046825 
L 630.441854 646.063605 
L 632.899495 649.800134 
L 635.553747 653.429115 
L 638.207999 656.695847 
L 639.191055 657.673655 
L 639.584278 657.797809 
L 639.780889 657.616088 
L 639.9775 656.965488 
L 640.174111 655.319963 
L 640.469028 652.554802 
L 640.567334 652.679484 
L 640.862251 655.318164 
L 641.353779 659.628993 
L 641.845307 661.908795 
L 642.435141 663.522815 
L 642.926669 664.53267 
L 643.909725 511.001388 
L 644.991087 538.884668 
L 645.679226 549.54914 
L 646.367366 557.046266 
L 647.055505 562.416664 
L 648.628395 572.82975 
L 648.923312 578.971645 
L 649.119923 588.612639 
L 649.218229 600.360229 
L 649.316534 634.535723 
L 649.513146 613.95083 
L 649.709757 610.216684 
L 650.102979 607.261159 
L 650.496202 602.003284 
L 651.086036 589.874584 
L 652.069092 569.481576 
L 652.658926 561.864038 
L 653.150454 558.375357 
L 653.445371 557.39536 
L 653.641982 557.189829 
L 653.838593 557.329864 
L 654.13351 558.208022 
L 654.526733 560.601146 
L 655.018261 565.44356 
L 655.509789 572.503241 
L 656.099623 584.654209 
L 656.886068 606.4795 
L 657.574207 623.968341 
L 657.869124 627.501249 
L 658.065735 627.903224 
L 658.262346 627.033055 
L 658.557263 624.13243 
L 659.048791 616.521212 
L 660.621681 590.674318 
L 661.113209 586.265873 
L 661.506432 584.287413 
L 661.801349 583.649092 
L 661.99796 583.614823 
L 662.194571 583.88455 
L 662.489488 584.874803 
L 662.882711 587.311306 
L 663.374239 592.257697 
L 663.964073 601.005058 
L 665.536963 626.6955 
L 665.733574 627.337837 
L 665.831879 627.3161 
L 666.028491 626.681787 
L 666.323408 624.610702 
L 666.814936 619.285848 
L 668.191214 603.166773 
L 668.682743 599.713559 
L 669.075965 598.064174 
L 669.370882 597.462998 
L 669.567493 597.359035 
L 669.764104 597.492636 
L 670.059021 598.148964 
L 670.452244 599.895531 
L 670.943772 603.537265 
L 671.533606 610.033146 
L 673.106496 629.82989 
L 673.303107 630.574555 
L 673.401413 630.688656 
L 673.499718 630.62075 
L 673.696329 630.061177 
L 673.991246 628.356668 
L 674.482774 624.030888 
L 675.662442 613.064925 
L 676.252276 609.582331 
L 676.645498 608.257239 
L 676.940415 607.778076 
L 677.137026 607.703263 
L 677.333638 607.820245 
L 677.628554 608.363032 
L 678.021777 609.800977 
L 678.513305 612.784623 
L 679.103139 618.05035 
L 680.676029 633.763154 
L 680.87264 634.343035 
L 681.069251 634.36576 
L 681.265863 633.889268 
L 681.560779 632.456274 
L 682.150613 628.069589 
L 683.330281 619.215316 
L 683.821809 617.016693 
L 684.215031 616.033057 
L 684.509948 615.741716 
L 684.706559 615.744364 
L 685.001476 616.06633 
L 685.394699 617.08762 
L 685.787921 618.792511 
L 686.279449 621.892839 
L 686.967589 627.77166 
L 687.950645 636.179718 
L 688.245562 637.412763 
L 688.442173 637.667897 
L 688.638784 637.479841 
L 688.933701 636.494813 
L 689.425229 633.634281 
L 690.801508 624.874611 
L 691.293036 623.101716 
L 691.686259 622.359429 
L 691.981176 622.180068 
L 692.276093 622.32644 
L 692.571009 622.798092 
L 692.964232 623.938631 
L 693.45576 626.166472 
L 694.045594 629.933161 
L 695.421873 639.389185 
L 695.716789 640.100208 
L 695.913401 640.107877 
L 696.110012 639.766995 
L 696.404929 638.727628 
L 696.994763 635.548208 
L 697.977819 630.266548 
L 698.567653 628.340679 
L 698.960875 627.69439 
L 699.255792 627.544336 
L 699.550709 627.675342 
L 699.845626 628.087007 
L 700.238848 629.074317 
L 700.730376 630.9671 
L 701.418516 634.703027 
L 702.499878 640.847924 
L 702.8931 641.846097 
L 703.089711 641.906022 
L 703.286323 641.68266 
L 703.581239 640.897909 
L 704.171073 638.363359 
L 705.154129 634.112417 
L 705.645658 632.795889 
L 706.03888 632.221299 
L 706.333797 632.070025 
L 706.628714 632.152379 
L 706.923631 632.469904 
L 707.316853 633.25545 
L 707.808381 634.789579 
L 708.496521 637.771641 
L 709.577883 642.472904 
L 709.872799 643.076872 
L 710.069411 643.197168 
L 710.266022 643.097133 
L 710.560939 642.57604 
L 711.052467 641.04876 
L 712.232134 637.183796 
L 712.723663 636.288174 
L 713.116885 635.973138 
L 713.411802 635.950236 
L 713.706719 636.12559 
L 714.099941 636.642729 
L 714.591469 637.720873 
L 715.279609 639.900888 
L 716.360971 643.509343 
L 716.754193 644.138284 
L 717.04911 644.184049 
L 717.344027 643.887977 
L 717.835555 642.85092 
L 719.015223 640.0482 
L 719.506751 639.403557 
L 719.899973 639.192644 
L 720.293196 639.247133 
L 720.686418 639.556023 
L 721.177946 640.284063 
L 721.866086 641.813636 
L 723.045753 644.574117 
L 723.438976 644.987741 
L 723.733893 645.008832 
L 724.028809 644.807935 
L 724.520338 644.116036 
L 725.700005 642.346348 
L 726.191533 641.990237 
L 726.584756 641.919001 
L 726.977978 642.044907 
L 727.469506 642.44658 
L 728.354257 643.708502 
L 729.435619 645.399215 
L 729.927147 645.758883 
L 730.320369 645.75106 
L 730.811898 645.44538 
L 732.286482 644.256701 
L 732.77801 644.14952 
L 733.564455 644.361848 
L 734.252594 644.887268 
L 735.92379 646.382159 
L 736.415318 646.490603 
L 737.005152 646.388766 
L 738.774653 645.854679 
L 739.561098 645.952939 
L 740.445849 646.32914 
L 741.822128 647.000901 
L 742.117044 647.036638 
L 742.411961 647.142238 
L 745.459436 647.091892 
L 747.228937 647.476633 
L 748.605216 647.662232 
L 757.452722 647.883803 
L 762.171392 647.590098 
L 766.693451 647.017157 
L 774.066373 645.547082 
L 776.032485 644.839566 
L 777.605375 644.03121 
L 778.981654 643.057501 
L 780.161321 641.949335 
L 781.340989 640.527178 
L 782.520656 638.730868 
L 783.700324 636.51252 
L 784.978297 633.584094 
L 786.25627 630.094607 
L 787.632549 625.699086 
L 789.205439 619.93359 
L 791.073246 612.220102 
L 793.924109 599.327024 
L 798.151251 580.26149 
L 800.41228 571.130738 
L 802.280087 564.459487 
L 804.049588 558.94561 
L 805.720784 554.447321 
L 807.293674 550.812983 
L 808.866564 547.712522 
L 810.439454 545.091422 
L 812.012344 542.892322 
L 813.585234 541.058164 
L 815.256429 539.451835 
L 817.025931 538.07318 
L 818.893738 536.914705 
L 820.85985 535.959289 
L 823.022574 535.154559 
L 825.480214 534.477876 
L 828.331078 533.926109 
L 831.87008 533.478866 
L 836.293833 533.152427 
L 836.490444 533.142082 
L 836.58875 532.58127 
L 836.58875 532.58127 
" clip-path="url(#p3e9331f9c2)" style="fill: none; stroke: #2a9d8f; stroke-width: 2; stroke-linecap: square"/>
   </g>
   <g id="patch_13">
    <path d="M 50.14375 673.478125 
L 50.14375 476.678125 
" style="fill: none; stroke: #000000; stroke-width: 0.8; stroke-linejoin: miter; stroke-linecap: square"/>
   </g>
   <g id="patch_14">
    <path d="M 836.58875 673.478125 
L 836.58875 476.678125 
" style="fill: none; stroke: #000000; stroke-width: 0.8; stroke-linejoin: miter; stroke-linecap: square"/>
   </g>
   <g id="patch_15">
    <path d="M 50.14375 673.478125 
L 836.58875 673.478125 
" style="fill: none; stroke: #000000; stroke-width: 0.8; stroke-linejoin: miter; stroke-linecap: square"/>
   </g>
   <g id="patch_16">
    <path d="M 50.14375 476.678125 
L 836.58875 476.678125 
" style="fill: none; stroke: #000000; stroke-width: 0.8; stroke-linejoin: miter; stroke-linecap: square"/>
   </g>
   <g id="text_35">
    <!-- Overall Outlet Flowrate -->
    <g transform="translate(373.636875 470.678125) scale(0.12 -0.12)">
     <defs>
      <path id="DejaVuSans-76" d="M 191 3500 
L 800 3500 
L 1894 563 
L 2988 3500 
L 3597 3500 
L 2284 0 
L 1503 0 
L 191 3500 
z
" transform="scale(0.015625)"/>
     </defs>
     <use xlink:href="#DejaVuSans-4f"/>
     <use xlink:href="#DejaVuSans-76" transform="translate(78.710938 0)"/>
     <use xlink:href="#DejaVuSans-65" transform="translate(137.890625 0)"/>
     <use xlink:href="#DejaVuSans-72" transform="translate(199.414062 0)"/>
     <use xlink:href="#DejaVuSans-61" transform="translate(240.527344 0)"/>
     <use xlink:href="#DejaVuSans-6c" transform="translate(301.806641 0)"/>
     <use xlink:href="#DejaVuSans-6c" transform="translate(329.589844 0)"/>
     <use xlink:href="#DejaVuSans-20" transform="translate(357.373047 0)"/>
     <use xlink:href="#DejaVuSans-4f" transform="translate(389.160156 0)"/>
     <use xlink:href="#DejaVuSans-75" transform="translate(467.871094 0)"/>
     <use xlink:href="#DejaVuSans-74" transform="translate(531.25 0)"/>
     <use xlink:href="#DejaVuSans-6c" transform="translate(570.458984 0)"/>
     <use xlink:href="#DejaVuSans-65" transform="translate(598.242188 0)"/>
     <use xlink:href="#DejaVuSans-74" transform="translate(659.765625 0)"/>
     <use xlink:href="#DejaVuSans-20" transform="translate(698.974609 0)"/>
     <use xlink:href="#DejaVuSans-46" transform="translate(730.761719 0)"/>
     <use xlink:href="#DejaVuSans-6c" transform="translate(788.28125 0)"/>
     <use xlink:href="#DejaVuSans-6f" transform="translate(816.064453 0)"/>
     <use xlink:href="#DejaVuSans-77" transform="translate(877.246094 0)"/>
     <use xlink:href="#DejaVuSans-72" transform="translate(959.033203 0)"/>
     <use xlink:href="#DejaVuSans-61" transform="translate(1000.146484 0)"/>
     <use xlink:href="#DejaVuSans-74" transform="translate(1061.425781 0)"/>
     <use xlink:href="#DejaVuSans-65" transform="translate(1100.634766 0)"/>
    </g>
   </g>
  </g>
 </g>
 <defs>
  <clipPath id="p13f54e8a32">
   <rect x="50.14375" y="22.318125" width="786.445" height="196.8"/>
  </clipPath>
  <clipPath id="p821d276244">
   <rect x="50.14375" y="249.498125" width="786.445" height="196.8"/>
  </clipPath>
  <clipPath id="p3e9331f9c2">
   <rect x="50.14375" y="476.678125" width="786.445" height="196.8"/>
  </clipPath>
 </defs>
</svg>
