<?xml version="1.0" encoding="utf-8" standalone="no"?>
<!DOCTYPE svg PUBLIC "-//W3C//DTD SVG 1.1//EN"
  "http://www.w3.org/Graphics/SVG/1.1/DTD/svg11.dtd">
<svg xmlns:xlink="http://www.w3.org/1999/xlink" width="857.23424pt" height="423.034375pt" viewBox="0 0 857.23424 423.034375" xmlns="http://www.w3.org/2000/svg" version="1.1">
 <metadata>
  <rdf:RDF xmlns:dc="http://purl.org/dc/elements/1.1/" xmlns:cc="http://creativecommons.org/ns#" xmlns:rdf="http://www.w3.org/1999/02/22-rdf-syntax-ns#">
   <cc:Work>
    <dc:type rdf:resource="http://purl.org/dc/dcmitype/StillImage"/>
    <dc:date>2026-04-14T13:06:12.519633</dc:date>
    <dc:format>image/svg+xml</dc:format>
    <dc:creator>
     <cc:Agent>
      <dc:title>Matplotlib v3.10.8, https://matplotlib.org/</dc:title>
     </cc:Agent>
    </dc:creator>
   </cc:Work>
  </rdf:RDF>
 </metadata>
 <defs>
  <style type="text/css">*{stroke-linejoin: round; stroke-linecap: butt}</style>
 </defs>
 <g id="figure_1">
  <g id="patch_1">
   <path d="M 0 423.034375 
L 857.23424 423.034375 
L 857.23424 0 
L 0 0 
z
" style="fill: #ffffff"/>
  </g>
  <g id="axes_1">
   <g id="patch_2">
    <path d="M 43.78125 385.478125 
L 796.30525 385.478125 
L 796.30525 22.318125 
L 43.78125 22.318125 
z
" style="fill: #ffffff"/>
   </g>
   <g id="matplotlib.axis_1">
    <g id="xtick_1">
     <g id="line2d_1">
      <path d="M 43.78125 385.478125 
L 43.78125 22.318125 
" clip-path="url(#p648ee0da5d)" style="fill: none; stroke: #b0b0b0; stroke-opacity: 0.3; stroke-width: 0.8; stroke-linecap: square"/>
     </g>
     <g id="line2d_2">
      <defs>
       <path id="m677ffbfecd" d="M 0 0 
L 0 3.5 
" style="stroke: #000000; stroke-width: 0.8"/>
      </defs>
      <g>
       <use xlink:href="#m677ffbfecd" x="43.78125" y="385.478125" style="stroke: #000000; stroke-width: 0.8"/>
      </g>
     </g>
     <g id="text_1">
      <!-- 0 -->
      <g transform="translate(40.6 400.076562) scale(0.1 -0.1)">
       <defs>
        <path id="DejaVuSans-30" d="M 2034 4250 
Q 1547 4250 1301 3770 
Q 1056 3291 1056 2328 
Q 1056 1369 1301 889 
Q 1547 409 2034 409 
Q 2525 409 2770 889 
Q 3016 1369 3016 2328 
Q 3016 3291 2770 3770 
Q 2525 4250 2034 4250 
z
M 2034 4750 
Q 2819 4750 3233 4129 
Q 3647 3509 3647 2328 
Q 3647 1150 3233 529 
Q 2819 -91 2034 -91 
Q 1250 -91 836 529 
Q 422 1150 422 2328 
Q 422 3509 836 4129 
Q 1250 4750 2034 4750 
z
" transform="scale(0.015625)"/>
       </defs>
       <use xlink:href="#DejaVuSans-30"/>
      </g>
     </g>
    </g>
    <g id="xtick_2">
     <g id="line2d_3">
      <path d="M 137.84675 385.478125 
L 137.84675 22.318125 
" clip-path="url(#p648ee0da5d)" style="fill: none; stroke: #b0b0b0; stroke-opacity: 0.3; stroke-width: 0.8; stroke-linecap: square"/>
     </g>
     <g id="line2d_4">
      <g>
       <use xlink:href="#m677ffbfecd" x="137.84675" y="385.478125" style="stroke: #000000; stroke-width: 0.8"/>
      </g>
     </g>
     <g id="text_2">
      <!-- 1000 -->
      <g transform="translate(125.12175 400.076562) scale(0.1 -0.1)">
       <defs>
        <path id="DejaVuSans-31" d="M 794 531 
L 1825 531 
L 1825 4091 
L 703 3866 
L 703 4441 
L 1819 4666 
L 2450 4666 
L 2450 531 
L 3481 531 
L 3481 0 
L 794 0 
L 794 531 
z
" transform="scale(0.015625)"/>
       </defs>
       <use xlink:href="#DejaVuSans-31"/>
       <use xlink:href="#DejaVuSans-30" transform="translate(63.623047 0)"/>
       <use xlink:href="#DejaVuSans-30" transform="translate(127.246094 0)"/>
       <use xlink:href="#DejaVuSans-30" transform="translate(190.869141 0)"/>
      </g>
     </g>
    </g>
    <g id="xtick_3">
     <g id="line2d_5">
      <path d="M 231.91225 385.478125 
L 231.91225 22.318125 
" clip-path="url(#p648ee0da5d)" style="fill: none; stroke: #b0b0b0; stroke-opacity: 0.3; stroke-width: 0.8; stroke-linecap: square"/>
     </g>
     <g id="line2d_6">
      <g>
       <use xlink:href="#m677ffbfecd" x="231.91225" y="385.478125" style="stroke: #000000; stroke-width: 0.8"/>
      </g>
     </g>
     <g id="text_3">
      <!-- 2000 -->
      <g transform="translate(219.18725 400.076562) scale(0.1 -0.1)">
       <defs>
        <path id="DejaVuSans-32" d="M 1228 531 
L 3431 531 
L 3431 0 
L 469 0 
L 469 531 
Q 828 903 1448 1529 
Q 2069 2156 2228 2338 
Q 2531 2678 2651 2914 
Q 2772 3150 2772 3378 
Q 2772 3750 2511 3984 
Q 2250 4219 1831 4219 
Q 1534 4219 1204 4116 
Q 875 4013 500 3803 
L 500 4441 
Q 881 4594 1212 4672 
Q 1544 4750 1819 4750 
Q 2544 4750 2975 4387 
Q 3406 4025 3406 3419 
Q 3406 3131 3298 2873 
Q 3191 2616 2906 2266 
Q 2828 2175 2409 1742 
Q 1991 1309 1228 531 
z
" transform="scale(0.015625)"/>
       </defs>
       <use xlink:href="#DejaVuSans-32"/>
       <use xlink:href="#DejaVuSans-30" transform="translate(63.623047 0)"/>
       <use xlink:href="#DejaVuSans-30" transform="translate(127.246094 0)"/>
       <use xlink:href="#DejaVuSans-30" transform="translate(190.869141 0)"/>
      </g>
     </g>
    </g>
    <g id="xtick_4">
     <g id="line2d_7">
      <path d="M 325.97775 385.478125 
L 325.97775 22.318125 
" clip-path="url(#p648ee0da5d)" style="fill: none; stroke: #b0b0b0; stroke-opacity: 0.3; stroke-width: 0.8; stroke-linecap: square"/>
     </g>
     <g id="line2d_8">
      <g>
       <use xlink:href="#m677ffbfecd" x="325.97775" y="385.478125" style="stroke: #000000; stroke-width: 0.8"/>
      </g>
     </g>
     <g id="text_4">
      <!-- 3000 -->
      <g transform="translate(313.25275 400.076562) scale(0.1 -0.1)">
       <defs>
        <path id="DejaVuSans-33" d="M 2597 2516 
Q 3050 2419 3304 2112 
Q 3559 1806 3559 1356 
Q 3559 666 3084 287 
Q 2609 -91 1734 -91 
Q 1441 -91 1130 -33 
Q 819 25 488 141 
L 488 750 
Q 750 597 1062 519 
Q 1375 441 1716 441 
Q 2309 441 2620 675 
Q 2931 909 2931 1356 
Q 2931 1769 2642 2001 
Q 2353 2234 1838 2234 
L 1294 2234 
L 1294 2753 
L 1863 2753 
Q 2328 2753 2575 2939 
Q 2822 3125 2822 3475 
Q 2822 3834 2567 4026 
Q 2313 4219 1838 4219 
Q 1578 4219 1281 4162 
Q 984 4106 628 3988 
L 628 4550 
Q 988 4650 1302 4700 
Q 1616 4750 1894 4750 
Q 2613 4750 3031 4423 
Q 3450 4097 3450 3541 
Q 3450 3153 3228 2886 
Q 3006 2619 2597 2516 
z
" transform="scale(0.015625)"/>
       </defs>
       <use xlink:href="#DejaVuSans-33"/>
       <use xlink:href="#DejaVuSans-30" transform="translate(63.623047 0)"/>
       <use xlink:href="#DejaVuSans-30" transform="translate(127.246094 0)"/>
       <use xlink:href="#DejaVuSans-30" transform="translate(190.869141 0)"/>
      </g>
     </g>
    </g>
    <g id="xtick_5">
     <g id="line2d_9">
      <path d="M 420.04325 385.478125 
L 420.04325 22.318125 
" clip-path="url(#p648ee0da5d)" style="fill: none; stroke: #b0b0b0; stroke-opacity: 0.3; stroke-width: 0.8; stroke-linecap: square"/>
     </g>
     <g id="line2d_10">
      <g>
       <use xlink:href="#m677ffbfecd" x="420.04325" y="385.478125" style="stroke: #000000; stroke-width: 0.8"/>
      </g>
     </g>
     <g id="text_5">
      <!-- 4000 -->
      <g transform="translate(407.31825 400.076562) scale(0.1 -0.1)">
       <defs>
        <path id="DejaVuSans-34" d="M 2419 4116 
L 825 1625 
L 2419 1625 
L 2419 4116 
z
M 2253 4666 
L 3047 4666 
L 3047 1625 
L 3713 1625 
L 3713 1100 
L 3047 1100 
L 3047 0 
L 2419 0 
L 2419 1100 
L 313 1100 
L 313 1709 
L 2253 4666 
z
" transform="scale(0.015625)"/>
       </defs>
       <use xlink:href="#DejaVuSans-34"/>
       <use xlink:href="#DejaVuSans-30" transform="translate(63.623047 0)"/>
       <use xlink:href="#DejaVuSans-30" transform="translate(127.246094 0)"/>
       <use xlink:href="#DejaVuSans-30" transform="translate(190.869141 0)"/>
      </g>
     </g>
    </g>
    <g id="xtick_6">
     <g id="line2d_11">
      <path d="M 514.10875 385.478125 
L 514.10875 22.318125 
" clip-path="url(#p648ee0da5d)" style="fill: none; stroke: #b0b0b0; stroke-opacity: 0.3; stroke-width: 0.8; stroke-linecap: square"/>
     </g>
     <g id="line2d_12">
      <g>
       <use xlink:href="#m677ffbfecd" x="514.10875" y="385.478125" style="stroke: #000000; stroke-width: 0.8"/>
      </g>
     </g>
     <g id="text_6">
      <!-- 5000 -->
      <g transform="translate(501.38375 400.076562) scale(0.1 -0.1)">
       <defs>
        <path id="DejaVuSans-35" d="M 691 4666 
L 3169 4666 
L 3169 4134 
L 1269 4134 
L 1269 2991 
Q 1406 3038 1543 3061 
Q 1681 3084 1819 3084 
Q 2600 3084 3056 2656 
Q 3513 2228 3513 1497 
Q 3513 744 3044 326 
Q 2575 -91 1722 -91 
Q 1428 -91 1123 -41 
Q 819 9 494 109 
L 494 744 
Q 775 591 1075 516 
Q 1375 441 1709 441 
Q 2250 441 2565 725 
Q 2881 1009 2881 1497 
Q 2881 1984 2565 2268 
Q 2250 2553 1709 2553 
Q 1456 2553 1204 2497 
Q 953 2441 691 2322 
L 691 4666 
z
" transform="scale(0.015625)"/>
       </defs>
       <use xlink:href="#DejaVuSans-35"/>
       <use xlink:href="#DejaVuSans-30" transform="translate(63.623047 0)"/>
       <use xlink:href="#DejaVuSans-30" transform="translate(127.246094 0)"/>
       <use xlink:href="#DejaVuSans-30" transform="translate(190.869141 0)"/>
      </g>
     </g>
    </g>
    <g id="xtick_7">
     <g id="line2d_13">
      <path d="M 608.17425 385.478125 
L 608.17425 22.318125 
" clip-path="url(#p648ee0da5d)" style="fill: none; stroke: #b0b0b0; stroke-opacity: 0.3; stroke-width: 0.8; stroke-linecap: square"/>
     </g>
     <g id="line2d_14">
      <g>
       <use xlink:href="#m677ffbfecd" x="608.17425" y="385.478125" style="stroke: #000000; stroke-width: 0.8"/>
      </g>
     </g>
     <g id="text_7">
      <!-- 6000 -->
      <g transform="translate(595.44925 400.076562) scale(0.1 -0.1)">
       <defs>
        <path id="DejaVuSans-36" d="M 2113 2584 
Q 1688 2584 1439 2293 
Q 1191 2003 1191 1497 
Q 1191 994 1439 701 
Q 1688 409 2113 409 
Q 2538 409 2786 701 
Q 3034 994 3034 1497 
Q 3034 2003 2786 2293 
Q 2538 2584 2113 2584 
z
M 3366 4563 
L 3366 3988 
Q 3128 4100 2886 4159 
Q 2644 4219 2406 4219 
Q 1781 4219 1451 3797 
Q 1122 3375 1075 2522 
Q 1259 2794 1537 2939 
Q 1816 3084 2150 3084 
Q 2853 3084 3261 2657 
Q 3669 2231 3669 1497 
Q 3669 778 3244 343 
Q 2819 -91 2113 -91 
Q 1303 -91 875 529 
Q 447 1150 447 2328 
Q 447 3434 972 4092 
Q 1497 4750 2381 4750 
Q 2619 4750 2861 4703 
Q 3103 4656 3366 4563 
z
" transform="scale(0.015625)"/>
       </defs>
       <use xlink:href="#DejaVuSans-36"/>
       <use xlink:href="#DejaVuSans-30" transform="translate(63.623047 0)"/>
       <use xlink:href="#DejaVuSans-30" transform="translate(127.246094 0)"/>
       <use xlink:href="#DejaVuSans-30" transform="translate(190.869141 0)"/>
      </g>
     </g>
    </g>
    <g id="xtick_8">
     <g id="line2d_15">
      <path d="M 702.23975 385.478125 
L 702.23975 22.318125 
" clip-path="url(#p648ee0da5d)" style="fill: none; stroke: #b0b0b0; stroke-opacity: 0.3; stroke-width: 0.8; stroke-linecap: square"/>
     </g>
     <g id="line2d_16">
      <g>
       <use xlink:href="#m677ffbfecd" x="702.23975" y="385.478125" style="stroke: #000000; stroke-width: 0.8"/>
      </g>
     </g>
     <g id="text_8">
      <!-- 7000 -->
      <g transform="translate(689.51475 400.076562) scale(0.1 -0.1)">
       <defs>
        <path id="DejaVuSans-37" d="M 525 4666 
L 3525 4666 
L 3525 4397 
L 1831 0 
L 1172 0 
L 2766 4134 
L 525 4134 
L 525 4666 
z
" transform="scale(0.015625)"/>
       </defs>
       <use xlink:href="#DejaVuSans-37"/>
       <use xlink:href="#DejaVuSans-30" transform="translate(63.623047 0)"/>
       <use xlink:href="#DejaVuSans-30" transform="translate(127.246094 0)"/>
       <use xlink:href="#DejaVuSans-30" transform="translate(190.869141 0)"/>
      </g>
     </g>
    </g>
    <g id="xtick_9">
     <g id="line2d_17">
      <path d="M 796.30525 385.478125 
L 796.30525 22.318125 
" clip-path="url(#p648ee0da5d)" style="fill: none; stroke: #b0b0b0; stroke-opacity: 0.3; stroke-width: 0.8; stroke-linecap: square"/>
     </g>
     <g id="line2d_18">
      <g>
       <use xlink:href="#m677ffbfecd" x="796.30525" y="385.478125" style="stroke: #000000; stroke-width: 0.8"/>
      </g>
     </g>
     <g id="text_9">
      <!-- 8000 -->
      <g transform="translate(783.58025 400.076562) scale(0.1 -0.1)">
       <defs>
        <path id="DejaVuSans-38" d="M 2034 2216 
Q 1584 2216 1326 1975 
Q 1069 1734 1069 1313 
Q 1069 891 1326 650 
Q 1584 409 2034 409 
Q 2484 409 2743 651 
Q 3003 894 3003 1313 
Q 3003 1734 2745 1975 
Q 2488 2216 2034 2216 
z
M 1403 2484 
Q 997 2584 770 2862 
Q 544 3141 544 3541 
Q 544 4100 942 4425 
Q 1341 4750 2034 4750 
Q 2731 4750 3128 4425 
Q 3525 4100 3525 3541 
Q 3525 3141 3298 2862 
Q 3072 2584 2669 2484 
Q 3125 2378 3379 2068 
Q 3634 1759 3634 1313 
Q 3634 634 3220 271 
Q 2806 -91 2034 -91 
Q 1263 -91 848 271 
Q 434 634 434 1313 
Q 434 1759 690 2068 
Q 947 2378 1403 2484 
z
M 1172 3481 
Q 1172 3119 1398 2916 
Q 1625 2713 2034 2713 
Q 2441 2713 2670 2916 
Q 2900 3119 2900 3481 
Q 2900 3844 2670 4047 
Q 2441 4250 2034 4250 
Q 1625 4250 1398 4047 
Q 1172 3844 1172 3481 
z
" transform="scale(0.015625)"/>
       </defs>
       <use xlink:href="#DejaVuSans-38"/>
       <use xlink:href="#DejaVuSans-30" transform="translate(63.623047 0)"/>
       <use xlink:href="#DejaVuSans-30" transform="translate(127.246094 0)"/>
       <use xlink:href="#DejaVuSans-30" transform="translate(190.869141 0)"/>
      </g>
     </g>
    </g>
    <g id="text_10">
     <!-- Time [s] -->
     <g transform="translate(399.714344 413.754687) scale(0.1 -0.1)">
      <defs>
       <path id="DejaVuSans-54" d="M -19 4666 
L 3928 4666 
L 3928 4134 
L 2272 4134 
L 2272 0 
L 1638 0 
L 1638 4134 
L -19 4134 
L -19 4666 
z
" transform="scale(0.015625)"/>
       <path id="DejaVuSans-69" d="M 603 3500 
L 1178 3500 
L 1178 0 
L 603 0 
L 603 3500 
z
M 603 4863 
L 1178 4863 
L 1178 4134 
L 603 4134 
L 603 4863 
z
" transform="scale(0.015625)"/>
       <path id="DejaVuSans-6d" d="M 3328 2828 
Q 3544 3216 3844 3400 
Q 4144 3584 4550 3584 
Q 5097 3584 5394 3201 
Q 5691 2819 5691 2113 
L 5691 0 
L 5113 0 
L 5113 2094 
Q 5113 2597 4934 2840 
Q 4756 3084 4391 3084 
Q 3944 3084 3684 2787 
Q 3425 2491 3425 1978 
L 3425 0 
L 2847 0 
L 2847 2094 
Q 2847 2600 2669 2842 
Q 2491 3084 2119 3084 
Q 1678 3084 1418 2786 
Q 1159 2488 1159 1978 
L 1159 0 
L 581 0 
L 581 3500 
L 1159 3500 
L 1159 2956 
Q 1356 3278 1631 3431 
Q 1906 3584 2284 3584 
Q 2666 3584 2933 3390 
Q 3200 3197 3328 2828 
z
" transform="scale(0.015625)"/>
       <path id="DejaVuSans-65" d="M 3597 1894 
L 3597 1613 
L 953 1613 
Q 991 1019 1311 708 
Q 1631 397 2203 397 
Q 2534 397 2845 478 
Q 3156 559 3463 722 
L 3463 178 
Q 3153 47 2828 -22 
Q 2503 -91 2169 -91 
Q 1331 -91 842 396 
Q 353 884 353 1716 
Q 353 2575 817 3079 
Q 1281 3584 2069 3584 
Q 2775 3584 3186 3129 
Q 3597 2675 3597 1894 
z
M 3022 2063 
Q 3016 2534 2758 2815 
Q 2500 3097 2075 3097 
Q 1594 3097 1305 2825 
Q 1016 2553 972 2059 
L 3022 2063 
z
" transform="scale(0.015625)"/>
       <path id="DejaVuSans-20" transform="scale(0.015625)"/>
       <path id="DejaVuSans-5b" d="M 550 4863 
L 1875 4863 
L 1875 4416 
L 1125 4416 
L 1125 -397 
L 1875 -397 
L 1875 -844 
L 550 -844 
L 550 4863 
z
" transform="scale(0.015625)"/>
       <path id="DejaVuSans-73" d="M 2834 3397 
L 2834 2853 
Q 2591 2978 2328 3040 
Q 2066 3103 1784 3103 
Q 1356 3103 1142 2972 
Q 928 2841 928 2578 
Q 928 2378 1081 2264 
Q 1234 2150 1697 2047 
L 1894 2003 
Q 2506 1872 2764 1633 
Q 3022 1394 3022 966 
Q 3022 478 2636 193 
Q 2250 -91 1575 -91 
Q 1294 -91 989 -36 
Q 684 19 347 128 
L 347 722 
Q 666 556 975 473 
Q 1284 391 1588 391 
Q 1994 391 2212 530 
Q 2431 669 2431 922 
Q 2431 1156 2273 1281 
Q 2116 1406 1581 1522 
L 1381 1569 
Q 847 1681 609 1914 
Q 372 2147 372 2553 
Q 372 3047 722 3315 
Q 1072 3584 1716 3584 
Q 2034 3584 2315 3537 
Q 2597 3491 2834 3397 
z
" transform="scale(0.015625)"/>
       <path id="DejaVuSans-5d" d="M 1947 4863 
L 1947 -844 
L 622 -844 
L 622 -397 
L 1369 -397 
L 1369 4416 
L 622 4416 
L 622 4863 
L 1947 4863 
z
" transform="scale(0.015625)"/>
      </defs>
      <use xlink:href="#DejaVuSans-54"/>
      <use xlink:href="#DejaVuSans-69" transform="translate(57.958984 0)"/>
      <use xlink:href="#DejaVuSans-6d" transform="translate(85.742188 0)"/>
      <use xlink:href="#DejaVuSans-65" transform="translate(183.154297 0)"/>
      <use xlink:href="#DejaVuSans-20" transform="translate(244.677734 0)"/>
      <use xlink:href="#DejaVuSans-5b" transform="translate(276.464844 0)"/>
      <use xlink:href="#DejaVuSans-73" transform="translate(315.478516 0)"/>
      <use xlink:href="#DejaVuSans-5d" transform="translate(367.578125 0)"/>
     </g>
    </g>
   </g>
   <g id="matplotlib.axis_2">
    <g id="ytick_1">
     <g id="line2d_19">
      <path d="M 43.78125 378.494279 
L 796.30525 378.494279 
" clip-path="url(#p648ee0da5d)" style="fill: none; stroke: #b0b0b0; stroke-opacity: 0.3; stroke-width: 0.8; stroke-linecap: square"/>
     </g>
     <g id="line2d_20">
      <defs>
       <path id="m49f40525ae" d="M 0 0 
L -3.5 0 
" style="stroke: #000000; stroke-width: 0.8"/>
      </defs>
      <g>
       <use xlink:href="#m49f40525ae" x="43.78125" y="378.494279" style="stroke: #000000; stroke-width: 0.8"/>
      </g>
     </g>
     <g id="text_11">
      <!-- 0.0 -->
      <g transform="translate(20.878125 382.293498) scale(0.1 -0.1)">
       <defs>
        <path id="DejaVuSans-2e" d="M 684 794 
L 1344 794 
L 1344 0 
L 684 0 
L 684 794 
z
" transform="scale(0.015625)"/>
       </defs>
       <use xlink:href="#DejaVuSans-30"/>
       <use xlink:href="#DejaVuSans-2e" transform="translate(63.623047 0)"/>
       <use xlink:href="#DejaVuSans-30" transform="translate(95.410156 0)"/>
      </g>
     </g>
    </g>
    <g id="ytick_2">
     <g id="line2d_21">
      <path d="M 43.78125 308.655817 
L 796.30525 308.655817 
" clip-path="url(#p648ee0da5d)" style="fill: none; stroke: #b0b0b0; stroke-opacity: 0.3; stroke-width: 0.8; stroke-linecap: square"/>
     </g>
     <g id="line2d_22">
      <g>
       <use xlink:href="#m49f40525ae" x="43.78125" y="308.655817" style="stroke: #000000; stroke-width: 0.8"/>
      </g>
     </g>
     <g id="text_12">
      <!-- 0.2 -->
      <g transform="translate(20.878125 312.455036) scale(0.1 -0.1)">
       <use xlink:href="#DejaVuSans-30"/>
       <use xlink:href="#DejaVuSans-2e" transform="translate(63.623047 0)"/>
       <use xlink:href="#DejaVuSans-32" transform="translate(95.410156 0)"/>
      </g>
     </g>
    </g>
    <g id="ytick_3">
     <g id="line2d_23">
      <path d="M 43.78125 238.817356 
L 796.30525 238.817356 
" clip-path="url(#p648ee0da5d)" style="fill: none; stroke: #b0b0b0; stroke-opacity: 0.3; stroke-width: 0.8; stroke-linecap: square"/>
     </g>
     <g id="line2d_24">
      <g>
       <use xlink:href="#m49f40525ae" x="43.78125" y="238.817356" style="stroke: #000000; stroke-width: 0.8"/>
      </g>
     </g>
     <g id="text_13">
      <!-- 0.4 -->
      <g transform="translate(20.878125 242.616575) scale(0.1 -0.1)">
       <use xlink:href="#DejaVuSans-30"/>
       <use xlink:href="#DejaVuSans-2e" transform="translate(63.623047 0)"/>
       <use xlink:href="#DejaVuSans-34" transform="translate(95.410156 0)"/>
      </g>
     </g>
    </g>
    <g id="ytick_4">
     <g id="line2d_25">
      <path d="M 43.78125 168.978894 
L 796.30525 168.978894 
" clip-path="url(#p648ee0da5d)" style="fill: none; stroke: #b0b0b0; stroke-opacity: 0.3; stroke-width: 0.8; stroke-linecap: square"/>
     </g>
     <g id="line2d_26">
      <g>
       <use xlink:href="#m49f40525ae" x="43.78125" y="168.978894" style="stroke: #000000; stroke-width: 0.8"/>
      </g>
     </g>
     <g id="text_14">
      <!-- 0.6 -->
      <g transform="translate(20.878125 172.778113) scale(0.1 -0.1)">
       <use xlink:href="#DejaVuSans-30"/>
       <use xlink:href="#DejaVuSans-2e" transform="translate(63.623047 0)"/>
       <use xlink:href="#DejaVuSans-36" transform="translate(95.410156 0)"/>
      </g>
     </g>
    </g>
    <g id="ytick_5">
     <g id="line2d_27">
      <path d="M 43.78125 99.140433 
L 796.30525 99.140433 
" clip-path="url(#p648ee0da5d)" style="fill: none; stroke: #b0b0b0; stroke-opacity: 0.3; stroke-width: 0.8; stroke-linecap: square"/>
     </g>
     <g id="line2d_28">
      <g>
       <use xlink:href="#m49f40525ae" x="43.78125" y="99.140433" style="stroke: #000000; stroke-width: 0.8"/>
      </g>
     </g>
     <g id="text_15">
      <!-- 0.8 -->
      <g transform="translate(20.878125 102.939651) scale(0.1 -0.1)">
       <use xlink:href="#DejaVuSans-30"/>
       <use xlink:href="#DejaVuSans-2e" transform="translate(63.623047 0)"/>
       <use xlink:href="#DejaVuSans-38" transform="translate(95.410156 0)"/>
      </g>
     </g>
    </g>
    <g id="ytick_6">
     <g id="line2d_29">
      <path d="M 43.78125 29.301971 
L 796.30525 29.301971 
" clip-path="url(#p648ee0da5d)" style="fill: none; stroke: #b0b0b0; stroke-opacity: 0.3; stroke-width: 0.8; stroke-linecap: square"/>
     </g>
     <g id="line2d_30">
      <g>
       <use xlink:href="#m49f40525ae" x="43.78125" y="29.301971" style="stroke: #000000; stroke-width: 0.8"/>
      </g>
     </g>
     <g id="text_16">
      <!-- 1.0 -->
      <g transform="translate(20.878125 33.10119) scale(0.1 -0.1)">
       <use xlink:href="#DejaVuSans-31"/>
       <use xlink:href="#DejaVuSans-2e" transform="translate(63.623047 0)"/>
       <use xlink:href="#DejaVuSans-30" transform="translate(95.410156 0)"/>
      </g>
     </g>
    </g>
    <g id="text_17">
     <!-- Mole fraction [-] -->
     <g transform="translate(14.798438 243.827031) rotate(-90) scale(0.1 -0.1)">
      <defs>
       <path id="DejaVuSans-4d" d="M 628 4666 
L 1569 4666 
L 2759 1491 
L 3956 4666 
L 4897 4666 
L 4897 0 
L 4281 0 
L 4281 4097 
L 3078 897 
L 2444 897 
L 1241 4097 
L 1241 0 
L 628 0 
L 628 4666 
z
" transform="scale(0.015625)"/>
       <path id="DejaVuSans-6f" d="M 1959 3097 
Q 1497 3097 1228 2736 
Q 959 2375 959 1747 
Q 959 1119 1226 758 
Q 1494 397 1959 397 
Q 2419 397 2687 759 
Q 2956 1122 2956 1747 
Q 2956 2369 2687 2733 
Q 2419 3097 1959 3097 
z
M 1959 3584 
Q 2709 3584 3137 3096 
Q 3566 2609 3566 1747 
Q 3566 888 3137 398 
Q 2709 -91 1959 -91 
Q 1206 -91 779 398 
Q 353 888 353 1747 
Q 353 2609 779 3096 
Q 1206 3584 1959 3584 
z
" transform="scale(0.015625)"/>
       <path id="DejaVuSans-6c" d="M 603 4863 
L 1178 4863 
L 1178 0 
L 603 0 
L 603 4863 
z
" transform="scale(0.015625)"/>
       <path id="DejaVuSans-66" d="M 2375 4863 
L 2375 4384 
L 1825 4384 
Q 1516 4384 1395 4259 
Q 1275 4134 1275 3809 
L 1275 3500 
L 2222 3500 
L 2222 3053 
L 1275 3053 
L 1275 0 
L 697 0 
L 697 3053 
L 147 3053 
L 147 3500 
L 697 3500 
L 697 3744 
Q 697 4328 969 4595 
Q 1241 4863 1831 4863 
L 2375 4863 
z
" transform="scale(0.015625)"/>
       <path id="DejaVuSans-72" d="M 2631 2963 
Q 2534 3019 2420 3045 
Q 2306 3072 2169 3072 
Q 1681 3072 1420 2755 
Q 1159 2438 1159 1844 
L 1159 0 
L 581 0 
L 581 3500 
L 1159 3500 
L 1159 2956 
Q 1341 3275 1631 3429 
Q 1922 3584 2338 3584 
Q 2397 3584 2469 3576 
Q 2541 3569 2628 3553 
L 2631 2963 
z
" transform="scale(0.015625)"/>
       <path id="DejaVuSans-61" d="M 2194 1759 
Q 1497 1759 1228 1600 
Q 959 1441 959 1056 
Q 959 750 1161 570 
Q 1363 391 1709 391 
Q 2188 391 2477 730 
Q 2766 1069 2766 1631 
L 2766 1759 
L 2194 1759 
z
M 3341 1997 
L 3341 0 
L 2766 0 
L 2766 531 
Q 2569 213 2275 61 
Q 1981 -91 1556 -91 
Q 1019 -91 701 211 
Q 384 513 384 1019 
Q 384 1609 779 1909 
Q 1175 2209 1959 2209 
L 2766 2209 
L 2766 2266 
Q 2766 2663 2505 2880 
Q 2244 3097 1772 3097 
Q 1472 3097 1187 3025 
Q 903 2953 641 2809 
L 641 3341 
Q 956 3463 1253 3523 
Q 1550 3584 1831 3584 
Q 2591 3584 2966 3190 
Q 3341 2797 3341 1997 
z
" transform="scale(0.015625)"/>
       <path id="DejaVuSans-63" d="M 3122 3366 
L 3122 2828 
Q 2878 2963 2633 3030 
Q 2388 3097 2138 3097 
Q 1578 3097 1268 2742 
Q 959 2388 959 1747 
Q 959 1106 1268 751 
Q 1578 397 2138 397 
Q 2388 397 2633 464 
Q 2878 531 3122 666 
L 3122 134 
Q 2881 22 2623 -34 
Q 2366 -91 2075 -91 
Q 1284 -91 818 406 
Q 353 903 353 1747 
Q 353 2603 823 3093 
Q 1294 3584 2113 3584 
Q 2378 3584 2631 3529 
Q 2884 3475 3122 3366 
z
" transform="scale(0.015625)"/>
       <path id="DejaVuSans-74" d="M 1172 4494 
L 1172 3500 
L 2356 3500 
L 2356 3053 
L 1172 3053 
L 1172 1153 
Q 1172 725 1289 603 
Q 1406 481 1766 481 
L 2356 481 
L 2356 0 
L 1766 0 
Q 1100 0 847 248 
Q 594 497 594 1153 
L 594 3053 
L 172 3053 
L 172 3500 
L 594 3500 
L 594 4494 
L 1172 4494 
z
" transform="scale(0.015625)"/>
       <path id="DejaVuSans-6e" d="M 3513 2113 
L 3513 0 
L 2938 0 
L 2938 2094 
Q 2938 2591 2744 2837 
Q 2550 3084 2163 3084 
Q 1697 3084 1428 2787 
Q 1159 2491 1159 1978 
L 1159 0 
L 581 0 
L 581 3500 
L 1159 3500 
L 1159 2956 
Q 1366 3272 1645 3428 
Q 1925 3584 2291 3584 
Q 2894 3584 3203 3211 
Q 3513 2838 3513 2113 
z
" transform="scale(0.015625)"/>
       <path id="DejaVuSans-2d" d="M 313 2009 
L 1997 2009 
L 1997 1497 
L 313 1497 
L 313 2009 
z
" transform="scale(0.015625)"/>
      </defs>
      <use xlink:href="#DejaVuSans-4d"/>
      <use xlink:href="#DejaVuSans-6f" transform="translate(86.279297 0)"/>
      <use xlink:href="#DejaVuSans-6c" transform="translate(147.460938 0)"/>
      <use xlink:href="#DejaVuSans-65" transform="translate(175.244141 0)"/>
      <use xlink:href="#DejaVuSans-20" transform="translate(236.767578 0)"/>
      <use xlink:href="#DejaVuSans-66" transform="translate(268.554688 0)"/>
      <use xlink:href="#DejaVuSans-72" transform="translate(303.759766 0)"/>
      <use xlink:href="#DejaVuSans-61" transform="translate(344.873047 0)"/>
      <use xlink:href="#DejaVuSans-63" transform="translate(406.152344 0)"/>
      <use xlink:href="#DejaVuSans-74" transform="translate(461.132812 0)"/>
      <use xlink:href="#DejaVuSans-69" transform="translate(500.341797 0)"/>
      <use xlink:href="#DejaVuSans-6f" transform="translate(528.125 0)"/>
      <use xlink:href="#DejaVuSans-6e" transform="translate(589.306641 0)"/>
      <use xlink:href="#DejaVuSans-20" transform="translate(652.685547 0)"/>
      <use xlink:href="#DejaVuSans-5b" transform="translate(684.472656 0)"/>
      <use xlink:href="#DejaVuSans-2d" transform="translate(723.486328 0)"/>
      <use xlink:href="#DejaVuSans-5d" transform="translate(759.570312 0)"/>
     </g>
    </g>
   </g>
   <g id="line2d_31">
    <path d="M 43.78125 378.494279 
L 53.940324 378.401661 
L 54.316586 377.980841 
L 54.786914 377.050395 
L 55.539438 374.995213 
L 56.762289 370.888454 
L 58.737665 363.362648 
L 62.406219 348.368928 
L 62.970612 346.287521 
L 63.346874 346.237145 
L 75.387258 346.184205 
L 78.773616 345.983399 
L 81.313385 345.611094 
L 83.570957 345.048977 
L 85.734463 344.281386 
L 88.086101 343.205249 
L 90.908066 341.650477 
L 95.046948 339.080547 
L 101.913729 334.824928 
L 105.86448 332.655527 
L 109.533035 330.894812 
L 113.107524 329.423244 
L 116.776078 328.155638 
L 120.538698 327.093465 
L 124.489449 326.211382 
L 128.722397 325.496436 
L 133.425671 324.931617 
L 138.881471 324.508587 
L 145.654187 324.219347 
L 155.248867 324.053227 
L 174.43823 323.993969 
L 264.270782 323.841856 
L 268.879992 323.537863 
L 272.830742 323.058269 
L 276.781494 322.356699 
L 281.202572 321.341295 
L 287.034633 319.754935 
L 304.718947 314.802325 
L 311.585729 313.192454 
L 318.264379 311.854202 
L 325.13116 310.704014 
L 332.468269 309.702623 
L 340.181641 308.874799 
L 348.459405 308.212288 
L 356.925299 307.757136 
L 365.955587 307.497228 
L 377.243448 307.410545 
L 409.884176 307.298405 
L 428.979472 306.952878 
L 432.459896 307.224941 
L 435.375926 307.668003 
L 437.821629 308.255067 
L 439.891071 308.973221 
L 441.678315 309.821244 
L 443.371494 310.871993 
L 445.064673 312.18577 
L 447.22818 314.170877 
L 451.931454 318.579954 
L 453.812764 319.991176 
L 455.600009 321.063797 
L 457.481319 321.927452 
L 459.456694 322.58618 
L 461.714267 323.099606 
L 464.442166 323.484523 
L 468.016655 323.753553 
L 473.472454 323.918047 
L 484.760314 323.984594 
L 544.20971 323.951257 
L 550.041771 323.757758 
L 554.274719 323.40255 
L 558.22547 322.848571 
L 562.364351 322.035333 
L 567.161692 320.852548 
L 574.31067 318.828005 
L 586.162923 315.480279 
L 593.217835 313.738814 
L 599.896486 312.318357 
L 606.669202 311.103899 
L 613.81818 310.048854 
L 621.249354 309.171336 
L 629.338988 308.441699 
L 637.804882 307.903613 
L 646.64704 307.57011 
L 656.712048 307.422968 
L 674.396362 307.439248 
L 689.729039 307.366177 
L 702.992274 307.036207 
L 711.175972 306.892486 
L 715.032658 307.077587 
L 718.230885 307.453378 
L 720.864719 307.97767 
L 723.122291 308.649859 
L 725.003601 309.434193 
L 726.69678 310.372355 
L 728.389959 311.570364 
L 730.365335 313.276721 
L 737.13805 319.460646 
L 738.925295 320.643754 
L 740.712539 321.570547 
L 742.593849 322.298458 
L 744.757356 322.889399 
L 747.297124 323.336692 
L 750.495351 323.657282 
L 755.010495 323.864529 
L 762.911997 323.968251 
L 790.567254 323.990448 
L 796.30525 323.990535 
L 796.30525 323.990535 
" clip-path="url(#p648ee0da5d)" style="fill: none; stroke: #1f77b4; stroke-width: 2; stroke-linecap: square"/>
   </g>
   <g id="line2d_32">
    <path d="M 43.78125 378.494279 
L 53.469997 378.462008 
L 53.658128 377.801742 
L 54.410652 373.920193 
L 55.163176 371.360448 
L 56.009765 369.267959 
L 57.044486 367.297106 
L 58.267337 365.441625 
L 59.772385 363.581879 
L 61.465564 361.843954 
L 62.970612 360.566532 
L 64.287529 360.557081 
L 77.268568 360.671544 
L 80.278664 360.936824 
L 82.818433 361.38453 
L 85.264136 362.048497 
L 87.89797 363.002832 
L 91.378393 364.525412 
L 100.22055 368.497469 
L 103.98317 369.8833 
L 107.74579 371.027699 
L 111.602475 371.967678 
L 115.835423 372.765978 
L 120.538698 373.419998 
L 125.900431 373.935284 
L 132.296886 374.319292 
L 140.480584 374.575546 
L 152.615034 374.710506 
L 182.433797 374.74588 
L 266.998682 374.86137 
L 273.771397 375.152807 
L 281.578834 375.728706 
L 299.075017 377.080539 
L 309.04596 377.575354 
L 320.898213 377.930581 
L 336.983413 378.174205 
L 361.816706 378.306849 
L 432.648027 378.342518 
L 440.831726 378.186754 
L 444.594345 377.905653 
L 447.604442 377.460223 
L 451.555192 376.620584 
L 456.070336 375.717744 
L 459.55076 375.265372 
L 463.595576 374.979164 
L 469.427638 374.814552 
L 481.373956 374.751177 
L 547.407937 374.790059 
L 554.933177 374.999609 
L 561.894024 375.427705 
L 590.113674 377.448162 
L 601.213403 377.839296 
L 615.69949 378.113617 
L 637.42862 378.281712 
L 675.054821 378.319251 
L 724.533273 378.203026 
L 728.389959 377.936277 
L 731.400055 377.511053 
L 735.162675 376.726393 
L 740.148146 375.717606 
L 743.62857 375.266113 
L 747.673386 374.979334 
L 753.411382 374.815851 
L 765.263635 374.751478 
L 796.30525 374.746244 
L 796.30525 374.746244 
" clip-path="url(#p648ee0da5d)" style="fill: none; stroke: #2ca02c; stroke-width: 2; stroke-linecap: square"/>
   </g>
   <g id="line2d_33">
    <path d="M 43.78125 378.494279 
L 53.469997 378.47008 
L 53.658128 377.972443 
L 58.361403 357.129917 
L 61.089302 346.631135 
L 62.970612 340.079105 
L 63.346874 340.036587 
L 77.832961 339.988229 
L 82.724367 339.773088 
L 87.333577 339.335494 
L 98.809568 338.128107 
L 103.889105 337.902943 
L 109.909297 337.874138 
L 119.598043 338.087845 
L 136.812029 338.447737 
L 154.590409 338.548095 
L 224.010748 338.560369 
L 270.102843 338.66973 
L 278.192476 338.955693 
L 286.093978 339.461918 
L 296.253052 340.354244 
L 320.145689 342.520675 
L 331.903876 343.314271 
L 344.602719 343.926311 
L 356.831234 344.286636 
L 369.906339 344.444033 
L 393.046451 344.443747 
L 413.740861 344.566487 
L 430.014193 344.657819 
L 434.529337 344.392454 
L 438.103826 343.974413 
L 441.019857 343.420321 
L 443.559625 342.717664 
L 446.663786 341.605025 
L 450.238275 340.334498 
L 452.778044 339.665375 
L 455.411878 339.207458 
L 458.610105 338.888934 
L 463.125249 338.684674 
L 471.120816 338.582217 
L 499.152335 338.560429 
L 554.180653 338.66973 
L 562.270286 338.955693 
L 570.171788 339.461918 
L 580.330862 340.354244 
L 604.223499 342.520675 
L 615.981687 343.314271 
L 628.680529 343.926311 
L 640.909044 344.286636 
L 653.984148 344.444031 
L 677.124261 344.443738 
L 697.818671 344.566487 
L 714.092003 344.657879 
L 718.607147 344.392405 
L 722.275701 343.960034 
L 725.191732 343.398279 
L 727.7315 342.687593 
L 730.835662 341.568079 
L 734.692347 340.220477 
L 737.232116 339.586265 
L 739.960015 339.146803 
L 743.252308 338.851995 
L 748.049648 338.663938 
L 756.985871 338.575069 
L 795.834922 338.560388 
L 796.30525 338.560387 
L 796.30525 338.560387 
" clip-path="url(#p648ee0da5d)" style="fill: none; stroke: #9467bd; stroke-width: 2; stroke-linecap: square"/>
   </g>
   <g id="line2d_34">
    <path d="M 43.78125 378.494279 
L 53.375931 378.492327 
L 53.469997 378.366553 
L 53.658128 375.748962 
L 54.598783 355.852448 
L 55.539438 341.197735 
L 56.668224 327.075269 
L 57.985141 313.290557 
L 59.584254 298.970512 
L 61.371499 285.052569 
L 62.876547 274.641363 
L 63.064678 274.29304 
L 63.911267 274.279853 
L 75.669455 274.399128 
L 78.115158 274.654358 
L 79.996468 275.058623 
L 81.689647 275.641273 
L 83.28876 276.42123 
L 84.887874 277.443643 
L 86.581052 278.791959 
L 88.462363 280.587117 
L 90.625869 282.974147 
L 93.447834 286.453304 
L 105.582284 301.867636 
L 108.686445 305.230742 
L 111.602475 308.064221 
L 114.424441 310.496891 
L 117.15234 312.561701 
L 119.88024 314.353667 
L 122.608139 315.887429 
L 125.430104 317.221799 
L 128.346135 318.355791 
L 131.450296 319.321235 
L 134.742589 320.111714 
L 138.411143 320.75938 
L 142.550025 321.260729 
L 147.535496 321.634265 
L 154.026016 321.885762 
L 163.714763 322.021708 
L 187.231137 322.063611 
L 260.790359 322.183974 
L 264.552978 322.45033 
L 267.563075 322.882095 
L 270.196909 323.477911 
L 272.736677 324.27506 
L 275.370511 325.341858 
L 278.09841 326.692307 
L 281.108507 328.435288 
L 284.682996 330.771645 
L 289.668467 334.324182 
L 301.896982 343.137038 
L 306.976519 346.46305 
L 311.679794 349.275181 
L 316.194938 351.716761 
L 320.710082 353.904537 
L 325.225226 355.846639 
L 330.022566 357.659949 
L 334.725842 359.201898 
L 339.523182 360.548231 
L 344.696784 361.766522 
L 349.870387 362.752602 
L 355.04399 363.514389 
L 360.311657 364.070061 
L 366.049653 364.446998 
L 372.634238 364.643516 
L 381.57046 364.662045 
L 400.665757 364.661394 
L 409.037586 364.935131 
L 414.963713 365.337103 
L 424.84059 366.111395 
L 427.474424 366.062976 
L 429.826062 365.795446 
L 431.895503 365.338474 
L 433.776813 364.702593 
L 435.469992 363.910058 
L 437.069105 362.923741 
L 438.574153 361.730284 
L 439.985136 360.315424 
L 441.302053 358.673906 
L 442.61897 356.662417 
L 443.935887 354.240781 
L 445.440935 350.988327 
L 447.510376 345.924147 
L 450.990799 337.382117 
L 452.683978 333.845569 
L 454.189027 331.205028 
L 455.600009 329.16736 
L 457.010991 327.521174 
L 458.421974 326.21715 
L 459.927022 325.144041 
L 461.526136 324.290206 
L 463.31338 323.602342 
L 465.382821 323.060033 
L 467.828524 322.655725 
L 471.026751 322.360592 
L 475.730026 322.170137 
L 484.384052 322.08 
L 522.104317 322.064382 
L 544.585972 322.172583 
L 548.442657 322.430785 
L 551.452753 322.847866 
L 554.180653 323.452702 
L 556.720421 324.241479 
L 559.354256 325.299624 
L 562.082155 326.641871 
L 565.092251 328.377328 
L 568.66674 330.707278 
L 573.558146 334.186664 
L 586.256989 343.328997 
L 591.24246 346.580665 
L 595.851669 349.328652 
L 600.366814 351.764912 
L 604.881957 353.947464 
L 609.397101 355.884541 
L 614.194442 357.693095 
L 619.085848 359.287445 
L 623.883188 360.620496 
L 629.056791 361.826157 
L 634.230393 362.799978 
L 639.403996 363.549767 
L 644.671664 364.09385 
L 650.409659 364.460032 
L 656.994244 364.647482 
L 666.118598 364.65915 
L 684.273239 364.651651 
L 693.491658 364.954675 
L 699.982178 365.427625 
L 707.03709 366.036601 
L 710.517514 366.112209 
L 712.963217 365.93052 
L 715.126724 365.554134 
L 717.102099 364.984716 
L 718.889343 364.246131 
L 720.582522 363.301617 
L 722.08757 362.212259 
L 723.498553 360.91918 
L 724.909535 359.299756 
L 726.226452 357.426966 
L 727.543369 355.154087 
L 728.954352 352.266636 
L 730.835662 347.814489 
L 735.633002 336.141161 
L 737.232116 332.968508 
L 738.737164 330.479901 
L 740.148146 328.576585 
L 741.559129 327.050564 
L 742.970111 325.855697 
L 744.47516 324.869532 
L 746.074273 324.087444 
L 747.861517 323.459401 
L 750.025024 322.947506 
L 752.658858 322.566708 
L 756.139281 322.300196 
L 761.406949 322.138613 
L 772.600744 322.070959 
L 796.30525 322.064557 
L 796.30525 322.064557 
" clip-path="url(#p648ee0da5d)" style="fill: none; stroke: #e377c2; stroke-width: 2; stroke-linecap: square"/>
   </g>
   <g id="line2d_35">
    <path d="M 43.78125 378.494279 
L 53.469997 378.452596 
L 53.658128 377.59402 
L 54.504717 370.141551 
L 56.197896 353.025307 
L 62.59435 284.700287 
L 62.970612 281.394736 
L 63.158743 281.269189 
L 66.262905 281.267114 
L 76.516044 281.153922 
L 79.243944 280.896752 
L 81.40745 280.481478 
L 83.382825 279.882668 
L 85.358201 279.047618 
L 87.427642 277.918893 
L 89.685214 276.423629 
L 92.413114 274.332836 
L 96.363865 270.991142 
L 103.889105 264.60611 
L 107.651725 261.73665 
L 111.038083 259.429737 
L 114.23631 257.511188 
L 117.434537 255.849204 
L 120.632764 254.437668 
L 123.925056 253.231302 
L 127.311414 252.230162 
L 130.885903 251.405513 
L 134.836654 250.728777 
L 139.257733 250.204991 
L 144.5254 249.816509 
L 151.204051 249.559629 
L 161.45719 249.417106 
L 184.691369 249.375523 
L 261.919145 249.251496 
L 266.058026 248.97272 
L 269.350319 248.533155 
L 272.360415 247.913165 
L 275.370511 247.067631 
L 278.568738 245.932399 
L 282.143227 244.417502 
L 286.564305 242.284561 
L 294.183611 238.30505 
L 302.367309 234.114212 
L 308.105305 231.427654 
L 313.372973 229.202691 
L 318.546576 227.257212 
L 323.720178 225.547518 
L 329.081911 224.010345 
L 334.537711 222.674666 
L 340.181641 221.520181 
L 346.201832 220.519561 
L 352.31609 219.736299 
L 358.524413 219.172633 
L 365.014932 218.812324 
L 372.446107 218.631566 
L 383.075509 218.623666 
L 400.571691 218.617706 
L 410.166372 218.365273 
L 421.548298 217.672408 
L 425.499049 217.539378 
L 428.321014 217.635249 
L 430.860782 217.928776 
L 433.118355 218.405547 
L 435.187795 219.064994 
L 437.069105 219.902294 
L 438.762284 220.90737 
L 440.267333 222.060391 
L 441.678315 223.421424 
L 443.089297 225.10212 
L 444.594345 227.272162 
L 446.475655 230.451404 
L 452.213651 240.369789 
L 453.812764 242.47655 
L 455.317813 244.09615 
L 456.82286 245.388323 
L 458.327908 246.396486 
L 459.927022 247.20848 
L 461.714267 247.869531 
L 463.783707 248.395424 
L 466.323476 248.802095 
L 469.615769 249.09224 
L 474.507174 249.277468 
L 483.725594 249.361953 
L 528.877034 249.37464 
L 545.620693 249.265887 
L 549.85364 249.000242 
L 553.239998 248.56465 
L 556.344159 247.935934 
L 559.354256 247.097437 
L 562.552482 245.968998 
L 566.126971 244.460167 
L 570.453984 242.379525 
L 577.697028 238.602776 
L 586.351054 234.160311 
L 592.089049 231.469567 
L 597.356717 229.240276 
L 602.53032 227.290459 
L 607.703922 225.576552 
L 613.065656 224.035358 
L 618.521455 222.695865 
L 624.165385 221.537618 
L 630.185577 220.533377 
L 636.299834 219.746584 
L 642.508157 219.17949 
L 648.998677 218.816039 
L 656.429851 218.632647 
L 666.965187 218.622597 
L 684.743567 218.616383 
L 694.150117 218.370029 
L 704.967649 217.716126 
L 709.012466 217.545267 
L 711.928496 217.603609 
L 714.562331 217.870124 
L 716.913968 218.333377 
L 718.983409 218.960345 
L 720.864719 219.759824 
L 722.557898 220.720123 
L 724.062946 221.822954 
L 725.473928 223.124409 
L 726.884911 224.737941 
L 728.295893 226.694036 
L 729.989073 229.456162 
L 732.999168 234.922903 
L 735.25674 238.799329 
L 736.949919 241.285146 
L 738.454967 243.124142 
L 739.960015 244.617507 
L 741.465063 245.797583 
L 742.970111 246.706347 
L 744.663291 247.475902 
L 746.544601 248.084771 
L 748.802172 248.570956 
L 751.624137 248.934169 
L 755.386757 249.179428 
L 761.312884 249.321448 
L 775.422709 249.372072 
L 796.30525 249.374477 
L 796.30525 249.374477 
" clip-path="url(#p648ee0da5d)" style="fill: none; stroke: #bcbd22; stroke-width: 2; stroke-linecap: square"/>
   </g>
   <g id="line2d_36">
    <path d="M 43.78125 29.301971 
L 53.375931 29.305424 
L 53.469997 29.527849 
L 53.658128 34.164378 
L 55.163176 93.121945 
L 56.856355 149.20636 
L 59.113927 216.547663 
L 61.841826 291.318688 
L 62.970612 319.087172 
L 63.158743 319.392448 
L 64.381595 319.393387 
L 80.090533 319.274396 
L 84.323481 318.984875 
L 88.462363 318.472033 
L 94.012227 317.536706 
L 105.488218 315.568528 
L 111.978737 314.714776 
L 118.563322 314.074842 
L 125.7123 313.606216 
L 134.08413 313.288087 
L 145.089794 313.107357 
L 165.21981 313.041226 
L 270.290974 312.866145 
L 277.722149 312.513885 
L 287.034633 311.826994 
L 310.362877 310.02897 
L 322.873588 309.342162 
L 336.513086 308.822911 
L 351.657631 308.472558 
L 368.213159 308.314951 
L 402.923329 308.297411 
L 434.623402 308.3343 
L 439.138546 308.663739 
L 442.430839 309.112981 
L 445.346869 309.733708 
L 450.332341 311.09002 
L 453.812764 311.894491 
L 456.916926 312.381206 
L 460.491415 312.710883 
L 465.382821 312.918555 
L 473.848716 313.018094 
L 505.266593 313.037141 
L 552.205277 312.926928 
L 559.636452 312.638936 
L 567.914216 312.082693 
L 600.178682 309.686524 
L 613.065656 309.082657 
L 627.363612 308.639849 
L 643.07255 308.376564 
L 661.791585 308.300048 
L 702.898209 308.193899 
L 714.750462 308.198501 
L 720.488457 308.436405 
L 724.533273 308.815651 
L 727.637435 309.326977 
L 730.741597 310.077149 
L 737.702443 311.857795 
L 740.806605 312.357768 
L 744.381094 312.697806 
L 749.178434 312.911273 
L 757.362133 313.015689 
L 785.675848 313.037105 
L 796.30525 313.037165 
L 796.30525 313.037165 
" clip-path="url(#p648ee0da5d)" style="fill: none; stroke: #17becf; stroke-width: 2; stroke-linecap: square"/>
   </g>
   <g id="patch_3">
    <path d="M 43.78125 385.478125 
L 43.78125 22.318125 
" style="fill: none; stroke: #000000; stroke-width: 0.8; stroke-linejoin: miter; stroke-linecap: square"/>
   </g>
   <g id="patch_4">
    <path d="M 796.30525 385.478125 
L 796.30525 22.318125 
" style="fill: none; stroke: #000000; stroke-width: 0.8; stroke-linejoin: miter; stroke-linecap: square"/>
   </g>
   <g id="patch_5">
    <path d="M 43.78125 385.478125 
L 796.30525 385.478125 
" style="fill: none; stroke: #000000; stroke-width: 0.8; stroke-linejoin: miter; stroke-linecap: square"/>
   </g>
   <g id="patch_6">
    <path d="M 43.78125 22.318125 
L 796.30525 22.318125 
" style="fill: none; stroke: #000000; stroke-width: 0.8; stroke-linejoin: miter; stroke-linecap: square"/>
   </g>
   <g id="text_18">
    <!-- Outlet Composition vs Time -->
    <g transform="translate(336.90575 16.318125) scale(0.12 -0.12)">
     <defs>
      <path id="DejaVuSans-4f" d="M 2522 4238 
Q 1834 4238 1429 3725 
Q 1025 3213 1025 2328 
Q 1025 1447 1429 934 
Q 1834 422 2522 422 
Q 3209 422 3611 934 
Q 4013 1447 4013 2328 
Q 4013 3213 3611 3725 
Q 3209 4238 2522 4238 
z
M 2522 4750 
Q 3503 4750 4090 4092 
Q 4678 3434 4678 2328 
Q 4678 1225 4090 567 
Q 3503 -91 2522 -91 
Q 1538 -91 948 565 
Q 359 1222 359 2328 
Q 359 3434 948 4092 
Q 1538 4750 2522 4750 
z
" transform="scale(0.015625)"/>
      <path id="DejaVuSans-75" d="M 544 1381 
L 544 3500 
L 1119 3500 
L 1119 1403 
Q 1119 906 1312 657 
Q 1506 409 1894 409 
Q 2359 409 2629 706 
Q 2900 1003 2900 1516 
L 2900 3500 
L 3475 3500 
L 3475 0 
L 2900 0 
L 2900 538 
Q 2691 219 2414 64 
Q 2138 -91 1772 -91 
Q 1169 -91 856 284 
Q 544 659 544 1381 
z
M 1991 3584 
L 1991 3584 
z
" transform="scale(0.015625)"/>
      <path id="DejaVuSans-43" d="M 4122 4306 
L 4122 3641 
Q 3803 3938 3442 4084 
Q 3081 4231 2675 4231 
Q 1875 4231 1450 3742 
Q 1025 3253 1025 2328 
Q 1025 1406 1450 917 
Q 1875 428 2675 428 
Q 3081 428 3442 575 
Q 3803 722 4122 1019 
L 4122 359 
Q 3791 134 3420 21 
Q 3050 -91 2638 -91 
Q 1578 -91 968 557 
Q 359 1206 359 2328 
Q 359 3453 968 4101 
Q 1578 4750 2638 4750 
Q 3056 4750 3426 4639 
Q 3797 4528 4122 4306 
z
" transform="scale(0.015625)"/>
      <path id="DejaVuSans-70" d="M 1159 525 
L 1159 -1331 
L 581 -1331 
L 581 3500 
L 1159 3500 
L 1159 2969 
Q 1341 3281 1617 3432 
Q 1894 3584 2278 3584 
Q 2916 3584 3314 3078 
Q 3713 2572 3713 1747 
Q 3713 922 3314 415 
Q 2916 -91 2278 -91 
Q 1894 -91 1617 61 
Q 1341 213 1159 525 
z
M 3116 1747 
Q 3116 2381 2855 2742 
Q 2594 3103 2138 3103 
Q 1681 3103 1420 2742 
Q 1159 2381 1159 1747 
Q 1159 1113 1420 752 
Q 1681 391 2138 391 
Q 2594 391 2855 752 
Q 3116 1113 3116 1747 
z
" transform="scale(0.015625)"/>
      <path id="DejaVuSans-76" d="M 191 3500 
L 800 3500 
L 1894 563 
L 2988 3500 
L 3597 3500 
L 2284 0 
L 1503 0 
L 191 3500 
z
" transform="scale(0.015625)"/>
     </defs>
     <use xlink:href="#DejaVuSans-4f"/>
     <use xlink:href="#DejaVuSans-75" transform="translate(78.710938 0)"/>
     <use xlink:href="#DejaVuSans-74" transform="translate(142.089844 0)"/>
     <use xlink:href="#DejaVuSans-6c" transform="translate(181.298828 0)"/>
     <use xlink:href="#DejaVuSans-65" transform="translate(209.082031 0)"/>
     <use xlink:href="#DejaVuSans-74" transform="translate(270.605469 0)"/>
     <use xlink:href="#DejaVuSans-20" transform="translate(309.814453 0)"/>
     <use xlink:href="#DejaVuSans-43" transform="translate(341.601562 0)"/>
     <use xlink:href="#DejaVuSans-6f" transform="translate(411.425781 0)"/>
     <use xlink:href="#DejaVuSans-6d" transform="translate(472.607422 0)"/>
     <use xlink:href="#DejaVuSans-70" transform="translate(570.019531 0)"/>
     <use xlink:href="#DejaVuSans-6f" transform="translate(633.496094 0)"/>
     <use xlink:href="#DejaVuSans-73" transform="translate(694.677734 0)"/>
     <use xlink:href="#DejaVuSans-69" transform="translate(746.777344 0)"/>
     <use xlink:href="#DejaVuSans-74" transform="translate(774.560547 0)"/>
     <use xlink:href="#DejaVuSans-69" transform="translate(813.769531 0)"/>
     <use xlink:href="#DejaVuSans-6f" transform="translate(841.552734 0)"/>
     <use xlink:href="#DejaVuSans-6e" transform="translate(902.734375 0)"/>
     <use xlink:href="#DejaVuSans-20" transform="translate(966.113281 0)"/>
     <use xlink:href="#DejaVuSans-76" transform="translate(997.900391 0)"/>
     <use xlink:href="#DejaVuSans-73" transform="translate(1057.080078 0)"/>
     <use xlink:href="#DejaVuSans-20" transform="translate(1109.179688 0)"/>
     <use xlink:href="#DejaVuSans-54" transform="translate(1140.966797 0)"/>
     <use xlink:href="#DejaVuSans-69" transform="translate(1198.925781 0)"/>
     <use xlink:href="#DejaVuSans-6d" transform="translate(1226.708984 0)"/>
     <use xlink:href="#DejaVuSans-65" transform="translate(1324.121094 0)"/>
    </g>
   </g>
   <g id="legend_1">
    <g id="patch_7">
     <path d="M 805.43049 95.173125 
L 848.43424 95.173125 
Q 850.03424 95.173125 850.03424 93.573125 
L 850.03424 23.918125 
Q 850.03424 22.318125 848.43424 22.318125 
L 805.43049 22.318125 
Q 803.83049 22.318125 803.83049 23.918125 
L 803.83049 93.573125 
Q 803.83049 95.173125 805.43049 95.173125 
z
" style="fill: #ffffff; opacity: 0.8; stroke: #cccccc; stroke-linejoin: miter"/>
    </g>
    <g id="line2d_37">
     <path d="M 807.03049 28.796875 
L 815.03049 28.796875 
L 823.03049 28.796875 
" style="fill: none; stroke: #1f77b4; stroke-width: 2; stroke-linecap: square"/>
    </g>
    <g id="text_19">
     <!-- CH4 -->
     <g transform="translate(829.43049 31.596875) scale(0.08 -0.08)">
      <defs>
       <path id="DejaVuSans-48" d="M 628 4666 
L 1259 4666 
L 1259 2753 
L 3553 2753 
L 3553 4666 
L 4184 4666 
L 4184 0 
L 3553 0 
L 3553 2222 
L 1259 2222 
L 1259 0 
L 628 0 
L 628 4666 
z
" transform="scale(0.015625)"/>
      </defs>
      <use xlink:href="#DejaVuSans-43"/>
      <use xlink:href="#DejaVuSans-48" transform="translate(69.824219 0)"/>
      <use xlink:href="#DejaVuSans-34" transform="translate(145.019531 0)"/>
     </g>
    </g>
    <g id="line2d_38">
     <path d="M 807.03049 40.539375 
L 815.03049 40.539375 
L 823.03049 40.539375 
" style="fill: none; stroke: #2ca02c; stroke-width: 2; stroke-linecap: square"/>
    </g>
    <g id="text_20">
     <!-- CO -->
     <g transform="translate(829.43049 43.339375) scale(0.08 -0.08)">
      <use xlink:href="#DejaVuSans-43"/>
      <use xlink:href="#DejaVuSans-4f" transform="translate(69.824219 0)"/>
     </g>
    </g>
    <g id="line2d_39">
     <path d="M 807.03049 52.281875 
L 815.03049 52.281875 
L 823.03049 52.281875 
" style="fill: none; stroke: #9467bd; stroke-width: 2; stroke-linecap: square"/>
    </g>
    <g id="text_21">
     <!-- CO2 -->
     <g transform="translate(829.43049 55.081875) scale(0.08 -0.08)">
      <use xlink:href="#DejaVuSans-43"/>
      <use xlink:href="#DejaVuSans-4f" transform="translate(69.824219 0)"/>
      <use xlink:href="#DejaVuSans-32" transform="translate(148.535156 0)"/>
     </g>
    </g>
    <g id="line2d_40">
     <path d="M 807.03049 64.024375 
L 815.03049 64.024375 
L 823.03049 64.024375 
" style="fill: none; stroke: #e377c2; stroke-width: 2; stroke-linecap: square"/>
    </g>
    <g id="text_22">
     <!-- H2 -->
     <g transform="translate(829.43049 66.824375) scale(0.08 -0.08)">
      <use xlink:href="#DejaVuSans-48"/>
      <use xlink:href="#DejaVuSans-32" transform="translate(75.195312 0)"/>
     </g>
    </g>
    <g id="line2d_41">
     <path d="M 807.03049 75.766875 
L 815.03049 75.766875 
L 823.03049 75.766875 
" style="fill: none; stroke: #bcbd22; stroke-width: 2; stroke-linecap: square"/>
    </g>
    <g id="text_23">
     <!-- H2O -->
     <g transform="translate(829.43049 78.566875) scale(0.08 -0.08)">
      <use xlink:href="#DejaVuSans-48"/>
      <use xlink:href="#DejaVuSans-32" transform="translate(75.195312 0)"/>
      <use xlink:href="#DejaVuSans-4f" transform="translate(138.818359 0)"/>
     </g>
    </g>
    <g id="line2d_42">
     <path d="M 807.03049 87.509375 
L 815.03049 87.509375 
L 823.03049 87.509375 
" style="fill: none; stroke: #17becf; stroke-width: 2; stroke-linecap: square"/>
    </g>
    <g id="text_24">
     <!-- N2 -->
     <g transform="translate(829.43049 90.309375) scale(0.08 -0.08)">
      <defs>
       <path id="DejaVuSans-4e" d="M 628 4666 
L 1478 4666 
L 3547 763 
L 3547 4666 
L 4159 4666 
L 4159 0 
L 3309 0 
L 1241 3903 
L 1241 0 
L 628 0 
L 628 4666 
z
" transform="scale(0.015625)"/>
      </defs>
      <use xlink:href="#DejaVuSans-4e"/>
      <use xlink:href="#DejaVuSans-32" transform="translate(74.804688 0)"/>
     </g>
    </g>
   </g>
  </g>
 </g>
 <defs>
  <clipPath id="p648ee0da5d">
   <rect x="43.78125" y="22.318125" width="752.524" height="363.16"/>
  </clipPath>
 </defs>
</svg>
