<?xml version="1.0" encoding="utf-8" standalone="no"?>
<!DOCTYPE svg PUBLIC "-//W3C//DTD SVG 1.1//EN"
  "http://www.w3.org/Graphics/SVG/1.1/DTD/svg11.dtd">
<svg xmlns:xlink="http://www.w3.org/1999/xlink" width="857.23424pt" height="423.034375pt" viewBox="0 0 857.23424 423.034375" xmlns="http://www.w3.org/2000/svg" version="1.1">
 <metadata>
  <rdf:RDF xmlns:dc="http://purl.org/dc/elements/1.1/" xmlns:cc="http://creativecommons.org/ns#" xmlns:rdf="http://www.w3.org/1999/02/22-rdf-syntax-ns#">
   <cc:Work>
    <dc:type rdf:resource="http://purl.org/dc/dcmitype/StillImage"/>
    <dc:date>2026-04-14T00:37:37.431712</dc:date>
    <dc:format>image/svg+xml</dc:format>
    <dc:creator>
     <cc:Agent>
      <dc:title>Matplotlib v3.10.8, https://matplotlib.org/</dc:title>
     </cc:Agent>
    </dc:creator>
   </cc:Work>
  </rdf:RDF>
 </metadata>
 <defs>
  <style type="text/css">*{stroke-linejoin: round; stroke-linecap: butt}</style>
 </defs>
 <g id="figure_1">
  <g id="patch_1">
   <path d="M 0 423.034375 
L 857.23424 423.034375 
L 857.23424 0 
L 0 0 
z
" style="fill: #ffffff"/>
  </g>
  <g id="axes_1">
   <g id="patch_2">
    <path d="M 43.78125 385.478125 
L 796.30525 385.478125 
L 796.30525 22.318125 
L 43.78125 22.318125 
z
" style="fill: #ffffff"/>
   </g>
   <g id="matplotlib.axis_1">
    <g id="xtick_1">
     <g id="line2d_1">
      <path d="M 43.78125 385.478125 
L 43.78125 22.318125 
" clip-path="url(#p8a44e26ddb)" style="fill: none; stroke: #b0b0b0; stroke-opacity: 0.3; stroke-width: 0.8; stroke-linecap: square"/>
     </g>
     <g id="line2d_2">
      <defs>
       <path id="m8969fa8a57" d="M 0 0 
L 0 3.5 
" style="stroke: #000000; stroke-width: 0.8"/>
      </defs>
      <g>
       <use xlink:href="#m8969fa8a57" x="43.78125" y="385.478125" style="stroke: #000000; stroke-width: 0.8"/>
      </g>
     </g>
     <g id="text_1">
      <!-- 0 -->
      <g transform="translate(40.6 400.076562) scale(0.1 -0.1)">
       <defs>
        <path id="DejaVuSans-30" d="M 2034 4250 
Q 1547 4250 1301 3770 
Q 1056 3291 1056 2328 
Q 1056 1369 1301 889 
Q 1547 409 2034 409 
Q 2525 409 2770 889 
Q 3016 1369 3016 2328 
Q 3016 3291 2770 3770 
Q 2525 4250 2034 4250 
z
M 2034 4750 
Q 2819 4750 3233 4129 
Q 3647 3509 3647 2328 
Q 3647 1150 3233 529 
Q 2819 -91 2034 -91 
Q 1250 -91 836 529 
Q 422 1150 422 2328 
Q 422 3509 836 4129 
Q 1250 4750 2034 4750 
z
" transform="scale(0.015625)"/>
       </defs>
       <use xlink:href="#DejaVuSans-30"/>
      </g>
     </g>
    </g>
    <g id="xtick_2">
     <g id="line2d_3">
      <path d="M 137.84675 385.478125 
L 137.84675 22.318125 
" clip-path="url(#p8a44e26ddb)" style="fill: none; stroke: #b0b0b0; stroke-opacity: 0.3; stroke-width: 0.8; stroke-linecap: square"/>
     </g>
     <g id="line2d_4">
      <g>
       <use xlink:href="#m8969fa8a57" x="137.84675" y="385.478125" style="stroke: #000000; stroke-width: 0.8"/>
      </g>
     </g>
     <g id="text_2">
      <!-- 1000 -->
      <g transform="translate(125.12175 400.076562) scale(0.1 -0.1)">
       <defs>
        <path id="DejaVuSans-31" d="M 794 531 
L 1825 531 
L 1825 4091 
L 703 3866 
L 703 4441 
L 1819 4666 
L 2450 4666 
L 2450 531 
L 3481 531 
L 3481 0 
L 794 0 
L 794 531 
z
" transform="scale(0.015625)"/>
       </defs>
       <use xlink:href="#DejaVuSans-31"/>
       <use xlink:href="#DejaVuSans-30" transform="translate(63.623047 0)"/>
       <use xlink:href="#DejaVuSans-30" transform="translate(127.246094 0)"/>
       <use xlink:href="#DejaVuSans-30" transform="translate(190.869141 0)"/>
      </g>
     </g>
    </g>
    <g id="xtick_3">
     <g id="line2d_5">
      <path d="M 231.91225 385.478125 
L 231.91225 22.318125 
" clip-path="url(#p8a44e26ddb)" style="fill: none; stroke: #b0b0b0; stroke-opacity: 0.3; stroke-width: 0.8; stroke-linecap: square"/>
     </g>
     <g id="line2d_6">
      <g>
       <use xlink:href="#m8969fa8a57" x="231.91225" y="385.478125" style="stroke: #000000; stroke-width: 0.8"/>
      </g>
     </g>
     <g id="text_3">
      <!-- 2000 -->
      <g transform="translate(219.18725 400.076562) scale(0.1 -0.1)">
       <defs>
        <path id="DejaVuSans-32" d="M 1228 531 
L 3431 531 
L 3431 0 
L 469 0 
L 469 531 
Q 828 903 1448 1529 
Q 2069 2156 2228 2338 
Q 2531 2678 2651 2914 
Q 2772 3150 2772 3378 
Q 2772 3750 2511 3984 
Q 2250 4219 1831 4219 
Q 1534 4219 1204 4116 
Q 875 4013 500 3803 
L 500 4441 
Q 881 4594 1212 4672 
Q 1544 4750 1819 4750 
Q 2544 4750 2975 4387 
Q 3406 4025 3406 3419 
Q 3406 3131 3298 2873 
Q 3191 2616 2906 2266 
Q 2828 2175 2409 1742 
Q 1991 1309 1228 531 
z
" transform="scale(0.015625)"/>
       </defs>
       <use xlink:href="#DejaVuSans-32"/>
       <use xlink:href="#DejaVuSans-30" transform="translate(63.623047 0)"/>
       <use xlink:href="#DejaVuSans-30" transform="translate(127.246094 0)"/>
       <use xlink:href="#DejaVuSans-30" transform="translate(190.869141 0)"/>
      </g>
     </g>
    </g>
    <g id="xtick_4">
     <g id="line2d_7">
      <path d="M 325.97775 385.478125 
L 325.97775 22.318125 
" clip-path="url(#p8a44e26ddb)" style="fill: none; stroke: #b0b0b0; stroke-opacity: 0.3; stroke-width: 0.8; stroke-linecap: square"/>
     </g>
     <g id="line2d_8">
      <g>
       <use xlink:href="#m8969fa8a57" x="325.97775" y="385.478125" style="stroke: #000000; stroke-width: 0.8"/>
      </g>
     </g>
     <g id="text_4">
      <!-- 3000 -->
      <g transform="translate(313.25275 400.076562) scale(0.1 -0.1)">
       <defs>
        <path id="DejaVuSans-33" d="M 2597 2516 
Q 3050 2419 3304 2112 
Q 3559 1806 3559 1356 
Q 3559 666 3084 287 
Q 2609 -91 1734 -91 
Q 1441 -91 1130 -33 
Q 819 25 488 141 
L 488 750 
Q 750 597 1062 519 
Q 1375 441 1716 441 
Q 2309 441 2620 675 
Q 2931 909 2931 1356 
Q 2931 1769 2642 2001 
Q 2353 2234 1838 2234 
L 1294 2234 
L 1294 2753 
L 1863 2753 
Q 2328 2753 2575 2939 
Q 2822 3125 2822 3475 
Q 2822 3834 2567 4026 
Q 2313 4219 1838 4219 
Q 1578 4219 1281 4162 
Q 984 4106 628 3988 
L 628 4550 
Q 988 4650 1302 4700 
Q 1616 4750 1894 4750 
Q 2613 4750 3031 4423 
Q 3450 4097 3450 3541 
Q 3450 3153 3228 2886 
Q 3006 2619 2597 2516 
z
" transform="scale(0.015625)"/>
       </defs>
       <use xlink:href="#DejaVuSans-33"/>
       <use xlink:href="#DejaVuSans-30" transform="translate(63.623047 0)"/>
       <use xlink:href="#DejaVuSans-30" transform="translate(127.246094 0)"/>
       <use xlink:href="#DejaVuSans-30" transform="translate(190.869141 0)"/>
      </g>
     </g>
    </g>
    <g id="xtick_5">
     <g id="line2d_9">
      <path d="M 420.04325 385.478125 
L 420.04325 22.318125 
" clip-path="url(#p8a44e26ddb)" style="fill: none; stroke: #b0b0b0; stroke-opacity: 0.3; stroke-width: 0.8; stroke-linecap: square"/>
     </g>
     <g id="line2d_10">
      <g>
       <use xlink:href="#m8969fa8a57" x="420.04325" y="385.478125" style="stroke: #000000; stroke-width: 0.8"/>
      </g>
     </g>
     <g id="text_5">
      <!-- 4000 -->
      <g transform="translate(407.31825 400.076562) scale(0.1 -0.1)">
       <defs>
        <path id="DejaVuSans-34" d="M 2419 4116 
L 825 1625 
L 2419 1625 
L 2419 4116 
z
M 2253 4666 
L 3047 4666 
L 3047 1625 
L 3713 1625 
L 3713 1100 
L 3047 1100 
L 3047 0 
L 2419 0 
L 2419 1100 
L 313 1100 
L 313 1709 
L 2253 4666 
z
" transform="scale(0.015625)"/>
       </defs>
       <use xlink:href="#DejaVuSans-34"/>
       <use xlink:href="#DejaVuSans-30" transform="translate(63.623047 0)"/>
       <use xlink:href="#DejaVuSans-30" transform="translate(127.246094 0)"/>
       <use xlink:href="#DejaVuSans-30" transform="translate(190.869141 0)"/>
      </g>
     </g>
    </g>
    <g id="xtick_6">
     <g id="line2d_11">
      <path d="M 514.10875 385.478125 
L 514.10875 22.318125 
" clip-path="url(#p8a44e26ddb)" style="fill: none; stroke: #b0b0b0; stroke-opacity: 0.3; stroke-width: 0.8; stroke-linecap: square"/>
     </g>
     <g id="line2d_12">
      <g>
       <use xlink:href="#m8969fa8a57" x="514.10875" y="385.478125" style="stroke: #000000; stroke-width: 0.8"/>
      </g>
     </g>
     <g id="text_6">
      <!-- 5000 -->
      <g transform="translate(501.38375 400.076562) scale(0.1 -0.1)">
       <defs>
        <path id="DejaVuSans-35" d="M 691 4666 
L 3169 4666 
L 3169 4134 
L 1269 4134 
L 1269 2991 
Q 1406 3038 1543 3061 
Q 1681 3084 1819 3084 
Q 2600 3084 3056 2656 
Q 3513 2228 3513 1497 
Q 3513 744 3044 326 
Q 2575 -91 1722 -91 
Q 1428 -91 1123 -41 
Q 819 9 494 109 
L 494 744 
Q 775 591 1075 516 
Q 1375 441 1709 441 
Q 2250 441 2565 725 
Q 2881 1009 2881 1497 
Q 2881 1984 2565 2268 
Q 2250 2553 1709 2553 
Q 1456 2553 1204 2497 
Q 953 2441 691 2322 
L 691 4666 
z
" transform="scale(0.015625)"/>
       </defs>
       <use xlink:href="#DejaVuSans-35"/>
       <use xlink:href="#DejaVuSans-30" transform="translate(63.623047 0)"/>
       <use xlink:href="#DejaVuSans-30" transform="translate(127.246094 0)"/>
       <use xlink:href="#DejaVuSans-30" transform="translate(190.869141 0)"/>
      </g>
     </g>
    </g>
    <g id="xtick_7">
     <g id="line2d_13">
      <path d="M 608.17425 385.478125 
L 608.17425 22.318125 
" clip-path="url(#p8a44e26ddb)" style="fill: none; stroke: #b0b0b0; stroke-opacity: 0.3; stroke-width: 0.8; stroke-linecap: square"/>
     </g>
     <g id="line2d_14">
      <g>
       <use xlink:href="#m8969fa8a57" x="608.17425" y="385.478125" style="stroke: #000000; stroke-width: 0.8"/>
      </g>
     </g>
     <g id="text_7">
      <!-- 6000 -->
      <g transform="translate(595.44925 400.076562) scale(0.1 -0.1)">
       <defs>
        <path id="DejaVuSans-36" d="M 2113 2584 
Q 1688 2584 1439 2293 
Q 1191 2003 1191 1497 
Q 1191 994 1439 701 
Q 1688 409 2113 409 
Q 2538 409 2786 701 
Q 3034 994 3034 1497 
Q 3034 2003 2786 2293 
Q 2538 2584 2113 2584 
z
M 3366 4563 
L 3366 3988 
Q 3128 4100 2886 4159 
Q 2644 4219 2406 4219 
Q 1781 4219 1451 3797 
Q 1122 3375 1075 2522 
Q 1259 2794 1537 2939 
Q 1816 3084 2150 3084 
Q 2853 3084 3261 2657 
Q 3669 2231 3669 1497 
Q 3669 778 3244 343 
Q 2819 -91 2113 -91 
Q 1303 -91 875 529 
Q 447 1150 447 2328 
Q 447 3434 972 4092 
Q 1497 4750 2381 4750 
Q 2619 4750 2861 4703 
Q 3103 4656 3366 4563 
z
" transform="scale(0.015625)"/>
       </defs>
       <use xlink:href="#DejaVuSans-36"/>
       <use xlink:href="#DejaVuSans-30" transform="translate(63.623047 0)"/>
       <use xlink:href="#DejaVuSans-30" transform="translate(127.246094 0)"/>
       <use xlink:href="#DejaVuSans-30" transform="translate(190.869141 0)"/>
      </g>
     </g>
    </g>
    <g id="xtick_8">
     <g id="line2d_15">
      <path d="M 702.23975 385.478125 
L 702.23975 22.318125 
" clip-path="url(#p8a44e26ddb)" style="fill: none; stroke: #b0b0b0; stroke-opacity: 0.3; stroke-width: 0.8; stroke-linecap: square"/>
     </g>
     <g id="line2d_16">
      <g>
       <use xlink:href="#m8969fa8a57" x="702.23975" y="385.478125" style="stroke: #000000; stroke-width: 0.8"/>
      </g>
     </g>
     <g id="text_8">
      <!-- 7000 -->
      <g transform="translate(689.51475 400.076562) scale(0.1 -0.1)">
       <defs>
        <path id="DejaVuSans-37" d="M 525 4666 
L 3525 4666 
L 3525 4397 
L 1831 0 
L 1172 0 
L 2766 4134 
L 525 4134 
L 525 4666 
z
" transform="scale(0.015625)"/>
       </defs>
       <use xlink:href="#DejaVuSans-37"/>
       <use xlink:href="#DejaVuSans-30" transform="translate(63.623047 0)"/>
       <use xlink:href="#DejaVuSans-30" transform="translate(127.246094 0)"/>
       <use xlink:href="#DejaVuSans-30" transform="translate(190.869141 0)"/>
      </g>
     </g>
    </g>
    <g id="xtick_9">
     <g id="line2d_17">
      <path d="M 796.30525 385.478125 
L 796.30525 22.318125 
" clip-path="url(#p8a44e26ddb)" style="fill: none; stroke: #b0b0b0; stroke-opacity: 0.3; stroke-width: 0.8; stroke-linecap: square"/>
     </g>
     <g id="line2d_18">
      <g>
       <use xlink:href="#m8969fa8a57" x="796.30525" y="385.478125" style="stroke: #000000; stroke-width: 0.8"/>
      </g>
     </g>
     <g id="text_9">
      <!-- 8000 -->
      <g transform="translate(783.58025 400.076562) scale(0.1 -0.1)">
       <defs>
        <path id="DejaVuSans-38" d="M 2034 2216 
Q 1584 2216 1326 1975 
Q 1069 1734 1069 1313 
Q 1069 891 1326 650 
Q 1584 409 2034 409 
Q 2484 409 2743 651 
Q 3003 894 3003 1313 
Q 3003 1734 2745 1975 
Q 2488 2216 2034 2216 
z
M 1403 2484 
Q 997 2584 770 2862 
Q 544 3141 544 3541 
Q 544 4100 942 4425 
Q 1341 4750 2034 4750 
Q 2731 4750 3128 4425 
Q 3525 4100 3525 3541 
Q 3525 3141 3298 2862 
Q 3072 2584 2669 2484 
Q 3125 2378 3379 2068 
Q 3634 1759 3634 1313 
Q 3634 634 3220 271 
Q 2806 -91 2034 -91 
Q 1263 -91 848 271 
Q 434 634 434 1313 
Q 434 1759 690 2068 
Q 947 2378 1403 2484 
z
M 1172 3481 
Q 1172 3119 1398 2916 
Q 1625 2713 2034 2713 
Q 2441 2713 2670 2916 
Q 2900 3119 2900 3481 
Q 2900 3844 2670 4047 
Q 2441 4250 2034 4250 
Q 1625 4250 1398 4047 
Q 1172 3844 1172 3481 
z
" transform="scale(0.015625)"/>
       </defs>
       <use xlink:href="#DejaVuSans-38"/>
       <use xlink:href="#DejaVuSans-30" transform="translate(63.623047 0)"/>
       <use xlink:href="#DejaVuSans-30" transform="translate(127.246094 0)"/>
       <use xlink:href="#DejaVuSans-30" transform="translate(190.869141 0)"/>
      </g>
     </g>
    </g>
    <g id="text_10">
     <!-- Time [s] -->
     <g transform="translate(399.714344 413.754687) scale(0.1 -0.1)">
      <defs>
       <path id="DejaVuSans-54" d="M -19 4666 
L 3928 4666 
L 3928 4134 
L 2272 4134 
L 2272 0 
L 1638 0 
L 1638 4134 
L -19 4134 
L -19 4666 
z
" transform="scale(0.015625)"/>
       <path id="DejaVuSans-69" d="M 603 3500 
L 1178 3500 
L 1178 0 
L 603 0 
L 603 3500 
z
M 603 4863 
L 1178 4863 
L 1178 4134 
L 603 4134 
L 603 4863 
z
" transform="scale(0.015625)"/>
       <path id="DejaVuSans-6d" d="M 3328 2828 
Q 3544 3216 3844 3400 
Q 4144 3584 4550 3584 
Q 5097 3584 5394 3201 
Q 5691 2819 5691 2113 
L 5691 0 
L 5113 0 
L 5113 2094 
Q 5113 2597 4934 2840 
Q 4756 3084 4391 3084 
Q 3944 3084 3684 2787 
Q 3425 2491 3425 1978 
L 3425 0 
L 2847 0 
L 2847 2094 
Q 2847 2600 2669 2842 
Q 2491 3084 2119 3084 
Q 1678 3084 1418 2786 
Q 1159 2488 1159 1978 
L 1159 0 
L 581 0 
L 581 3500 
L 1159 3500 
L 1159 2956 
Q 1356 3278 1631 3431 
Q 1906 3584 2284 3584 
Q 2666 3584 2933 3390 
Q 3200 3197 3328 2828 
z
" transform="scale(0.015625)"/>
       <path id="DejaVuSans-65" d="M 3597 1894 
L 3597 1613 
L 953 1613 
Q 991 1019 1311 708 
Q 1631 397 2203 397 
Q 2534 397 2845 478 
Q 3156 559 3463 722 
L 3463 178 
Q 3153 47 2828 -22 
Q 2503 -91 2169 -91 
Q 1331 -91 842 396 
Q 353 884 353 1716 
Q 353 2575 817 3079 
Q 1281 3584 2069 3584 
Q 2775 3584 3186 3129 
Q 3597 2675 3597 1894 
z
M 3022 2063 
Q 3016 2534 2758 2815 
Q 2500 3097 2075 3097 
Q 1594 3097 1305 2825 
Q 1016 2553 972 2059 
L 3022 2063 
z
" transform="scale(0.015625)"/>
       <path id="DejaVuSans-20" transform="scale(0.015625)"/>
       <path id="DejaVuSans-5b" d="M 550 4863 
L 1875 4863 
L 1875 4416 
L 1125 4416 
L 1125 -397 
L 1875 -397 
L 1875 -844 
L 550 -844 
L 550 4863 
z
" transform="scale(0.015625)"/>
       <path id="DejaVuSans-73" d="M 2834 3397 
L 2834 2853 
Q 2591 2978 2328 3040 
Q 2066 3103 1784 3103 
Q 1356 3103 1142 2972 
Q 928 2841 928 2578 
Q 928 2378 1081 2264 
Q 1234 2150 1697 2047 
L 1894 2003 
Q 2506 1872 2764 1633 
Q 3022 1394 3022 966 
Q 3022 478 2636 193 
Q 2250 -91 1575 -91 
Q 1294 -91 989 -36 
Q 684 19 347 128 
L 347 722 
Q 666 556 975 473 
Q 1284 391 1588 391 
Q 1994 391 2212 530 
Q 2431 669 2431 922 
Q 2431 1156 2273 1281 
Q 2116 1406 1581 1522 
L 1381 1569 
Q 847 1681 609 1914 
Q 372 2147 372 2553 
Q 372 3047 722 3315 
Q 1072 3584 1716 3584 
Q 2034 3584 2315 3537 
Q 2597 3491 2834 3397 
z
" transform="scale(0.015625)"/>
       <path id="DejaVuSans-5d" d="M 1947 4863 
L 1947 -844 
L 622 -844 
L 622 -397 
L 1369 -397 
L 1369 4416 
L 622 4416 
L 622 4863 
L 1947 4863 
z
" transform="scale(0.015625)"/>
      </defs>
      <use xlink:href="#DejaVuSans-54"/>
      <use xlink:href="#DejaVuSans-69" transform="translate(57.958984 0)"/>
      <use xlink:href="#DejaVuSans-6d" transform="translate(85.742188 0)"/>
      <use xlink:href="#DejaVuSans-65" transform="translate(183.154297 0)"/>
      <use xlink:href="#DejaVuSans-20" transform="translate(244.677734 0)"/>
      <use xlink:href="#DejaVuSans-5b" transform="translate(276.464844 0)"/>
      <use xlink:href="#DejaVuSans-73" transform="translate(315.478516 0)"/>
      <use xlink:href="#DejaVuSans-5d" transform="translate(367.578125 0)"/>
     </g>
    </g>
   </g>
   <g id="matplotlib.axis_2">
    <g id="ytick_1">
     <g id="line2d_19">
      <path d="M 43.78125 378.494279 
L 796.30525 378.494279 
" clip-path="url(#p8a44e26ddb)" style="fill: none; stroke: #b0b0b0; stroke-opacity: 0.3; stroke-width: 0.8; stroke-linecap: square"/>
     </g>
     <g id="line2d_20">
      <defs>
       <path id="m6c9e7c2470" d="M 0 0 
L -3.5 0 
" style="stroke: #000000; stroke-width: 0.8"/>
      </defs>
      <g>
       <use xlink:href="#m6c9e7c2470" x="43.78125" y="378.494279" style="stroke: #000000; stroke-width: 0.8"/>
      </g>
     </g>
     <g id="text_11">
      <!-- 0.0 -->
      <g transform="translate(20.878125 382.293498) scale(0.1 -0.1)">
       <defs>
        <path id="DejaVuSans-2e" d="M 684 794 
L 1344 794 
L 1344 0 
L 684 0 
L 684 794 
z
" transform="scale(0.015625)"/>
       </defs>
       <use xlink:href="#DejaVuSans-30"/>
       <use xlink:href="#DejaVuSans-2e" transform="translate(63.623047 0)"/>
       <use xlink:href="#DejaVuSans-30" transform="translate(95.410156 0)"/>
      </g>
     </g>
    </g>
    <g id="ytick_2">
     <g id="line2d_21">
      <path d="M 43.78125 308.655817 
L 796.30525 308.655817 
" clip-path="url(#p8a44e26ddb)" style="fill: none; stroke: #b0b0b0; stroke-opacity: 0.3; stroke-width: 0.8; stroke-linecap: square"/>
     </g>
     <g id="line2d_22">
      <g>
       <use xlink:href="#m6c9e7c2470" x="43.78125" y="308.655817" style="stroke: #000000; stroke-width: 0.8"/>
      </g>
     </g>
     <g id="text_12">
      <!-- 0.2 -->
      <g transform="translate(20.878125 312.455036) scale(0.1 -0.1)">
       <use xlink:href="#DejaVuSans-30"/>
       <use xlink:href="#DejaVuSans-2e" transform="translate(63.623047 0)"/>
       <use xlink:href="#DejaVuSans-32" transform="translate(95.410156 0)"/>
      </g>
     </g>
    </g>
    <g id="ytick_3">
     <g id="line2d_23">
      <path d="M 43.78125 238.817356 
L 796.30525 238.817356 
" clip-path="url(#p8a44e26ddb)" style="fill: none; stroke: #b0b0b0; stroke-opacity: 0.3; stroke-width: 0.8; stroke-linecap: square"/>
     </g>
     <g id="line2d_24">
      <g>
       <use xlink:href="#m6c9e7c2470" x="43.78125" y="238.817356" style="stroke: #000000; stroke-width: 0.8"/>
      </g>
     </g>
     <g id="text_13">
      <!-- 0.4 -->
      <g transform="translate(20.878125 242.616575) scale(0.1 -0.1)">
       <use xlink:href="#DejaVuSans-30"/>
       <use xlink:href="#DejaVuSans-2e" transform="translate(63.623047 0)"/>
       <use xlink:href="#DejaVuSans-34" transform="translate(95.410156 0)"/>
      </g>
     </g>
    </g>
    <g id="ytick_4">
     <g id="line2d_25">
      <path d="M 43.78125 168.978894 
L 796.30525 168.978894 
" clip-path="url(#p8a44e26ddb)" style="fill: none; stroke: #b0b0b0; stroke-opacity: 0.3; stroke-width: 0.8; stroke-linecap: square"/>
     </g>
     <g id="line2d_26">
      <g>
       <use xlink:href="#m6c9e7c2470" x="43.78125" y="168.978894" style="stroke: #000000; stroke-width: 0.8"/>
      </g>
     </g>
     <g id="text_14">
      <!-- 0.6 -->
      <g transform="translate(20.878125 172.778113) scale(0.1 -0.1)">
       <use xlink:href="#DejaVuSans-30"/>
       <use xlink:href="#DejaVuSans-2e" transform="translate(63.623047 0)"/>
       <use xlink:href="#DejaVuSans-36" transform="translate(95.410156 0)"/>
      </g>
     </g>
    </g>
    <g id="ytick_5">
     <g id="line2d_27">
      <path d="M 43.78125 99.140433 
L 796.30525 99.140433 
" clip-path="url(#p8a44e26ddb)" style="fill: none; stroke: #b0b0b0; stroke-opacity: 0.3; stroke-width: 0.8; stroke-linecap: square"/>
     </g>
     <g id="line2d_28">
      <g>
       <use xlink:href="#m6c9e7c2470" x="43.78125" y="99.140433" style="stroke: #000000; stroke-width: 0.8"/>
      </g>
     </g>
     <g id="text_15">
      <!-- 0.8 -->
      <g transform="translate(20.878125 102.939651) scale(0.1 -0.1)">
       <use xlink:href="#DejaVuSans-30"/>
       <use xlink:href="#DejaVuSans-2e" transform="translate(63.623047 0)"/>
       <use xlink:href="#DejaVuSans-38" transform="translate(95.410156 0)"/>
      </g>
     </g>
    </g>
    <g id="ytick_6">
     <g id="line2d_29">
      <path d="M 43.78125 29.301971 
L 796.30525 29.301971 
" clip-path="url(#p8a44e26ddb)" style="fill: none; stroke: #b0b0b0; stroke-opacity: 0.3; stroke-width: 0.8; stroke-linecap: square"/>
     </g>
     <g id="line2d_30">
      <g>
       <use xlink:href="#m6c9e7c2470" x="43.78125" y="29.301971" style="stroke: #000000; stroke-width: 0.8"/>
      </g>
     </g>
     <g id="text_16">
      <!-- 1.0 -->
      <g transform="translate(20.878125 33.10119) scale(0.1 -0.1)">
       <use xlink:href="#DejaVuSans-31"/>
       <use xlink:href="#DejaVuSans-2e" transform="translate(63.623047 0)"/>
       <use xlink:href="#DejaVuSans-30" transform="translate(95.410156 0)"/>
      </g>
     </g>
    </g>
    <g id="text_17">
     <!-- Mole fraction [-] -->
     <g transform="translate(14.798438 243.827031) rotate(-90) scale(0.1 -0.1)">
      <defs>
       <path id="DejaVuSans-4d" d="M 628 4666 
L 1569 4666 
L 2759 1491 
L 3956 4666 
L 4897 4666 
L 4897 0 
L 4281 0 
L 4281 4097 
L 3078 897 
L 2444 897 
L 1241 4097 
L 1241 0 
L 628 0 
L 628 4666 
z
" transform="scale(0.015625)"/>
       <path id="DejaVuSans-6f" d="M 1959 3097 
Q 1497 3097 1228 2736 
Q 959 2375 959 1747 
Q 959 1119 1226 758 
Q 1494 397 1959 397 
Q 2419 397 2687 759 
Q 2956 1122 2956 1747 
Q 2956 2369 2687 2733 
Q 2419 3097 1959 3097 
z
M 1959 3584 
Q 2709 3584 3137 3096 
Q 3566 2609 3566 1747 
Q 3566 888 3137 398 
Q 2709 -91 1959 -91 
Q 1206 -91 779 398 
Q 353 888 353 1747 
Q 353 2609 779 3096 
Q 1206 3584 1959 3584 
z
" transform="scale(0.015625)"/>
       <path id="DejaVuSans-6c" d="M 603 4863 
L 1178 4863 
L 1178 0 
L 603 0 
L 603 4863 
z
" transform="scale(0.015625)"/>
       <path id="DejaVuSans-66" d="M 2375 4863 
L 2375 4384 
L 1825 4384 
Q 1516 4384 1395 4259 
Q 1275 4134 1275 3809 
L 1275 3500 
L 2222 3500 
L 2222 3053 
L 1275 3053 
L 1275 0 
L 697 0 
L 697 3053 
L 147 3053 
L 147 3500 
L 697 3500 
L 697 3744 
Q 697 4328 969 4595 
Q 1241 4863 1831 4863 
L 2375 4863 
z
" transform="scale(0.015625)"/>
       <path id="DejaVuSans-72" d="M 2631 2963 
Q 2534 3019 2420 3045 
Q 2306 3072 2169 3072 
Q 1681 3072 1420 2755 
Q 1159 2438 1159 1844 
L 1159 0 
L 581 0 
L 581 3500 
L 1159 3500 
L 1159 2956 
Q 1341 3275 1631 3429 
Q 1922 3584 2338 3584 
Q 2397 3584 2469 3576 
Q 2541 3569 2628 3553 
L 2631 2963 
z
" transform="scale(0.015625)"/>
       <path id="DejaVuSans-61" d="M 2194 1759 
Q 1497 1759 1228 1600 
Q 959 1441 959 1056 
Q 959 750 1161 570 
Q 1363 391 1709 391 
Q 2188 391 2477 730 
Q 2766 1069 2766 1631 
L 2766 1759 
L 2194 1759 
z
M 3341 1997 
L 3341 0 
L 2766 0 
L 2766 531 
Q 2569 213 2275 61 
Q 1981 -91 1556 -91 
Q 1019 -91 701 211 
Q 384 513 384 1019 
Q 384 1609 779 1909 
Q 1175 2209 1959 2209 
L 2766 2209 
L 2766 2266 
Q 2766 2663 2505 2880 
Q 2244 3097 1772 3097 
Q 1472 3097 1187 3025 
Q 903 2953 641 2809 
L 641 3341 
Q 956 3463 1253 3523 
Q 1550 3584 1831 3584 
Q 2591 3584 2966 3190 
Q 3341 2797 3341 1997 
z
" transform="scale(0.015625)"/>
       <path id="DejaVuSans-63" d="M 3122 3366 
L 3122 2828 
Q 2878 2963 2633 3030 
Q 2388 3097 2138 3097 
Q 1578 3097 1268 2742 
Q 959 2388 959 1747 
Q 959 1106 1268 751 
Q 1578 397 2138 397 
Q 2388 397 2633 464 
Q 2878 531 3122 666 
L 3122 134 
Q 2881 22 2623 -34 
Q 2366 -91 2075 -91 
Q 1284 -91 818 406 
Q 353 903 353 1747 
Q 353 2603 823 3093 
Q 1294 3584 2113 3584 
Q 2378 3584 2631 3529 
Q 2884 3475 3122 3366 
z
" transform="scale(0.015625)"/>
       <path id="DejaVuSans-74" d="M 1172 4494 
L 1172 3500 
L 2356 3500 
L 2356 3053 
L 1172 3053 
L 1172 1153 
Q 1172 725 1289 603 
Q 1406 481 1766 481 
L 2356 481 
L 2356 0 
L 1766 0 
Q 1100 0 847 248 
Q 594 497 594 1153 
L 594 3053 
L 172 3053 
L 172 3500 
L 594 3500 
L 594 4494 
L 1172 4494 
z
" transform="scale(0.015625)"/>
       <path id="DejaVuSans-6e" d="M 3513 2113 
L 3513 0 
L 2938 0 
L 2938 2094 
Q 2938 2591 2744 2837 
Q 2550 3084 2163 3084 
Q 1697 3084 1428 2787 
Q 1159 2491 1159 1978 
L 1159 0 
L 581 0 
L 581 3500 
L 1159 3500 
L 1159 2956 
Q 1366 3272 1645 3428 
Q 1925 3584 2291 3584 
Q 2894 3584 3203 3211 
Q 3513 2838 3513 2113 
z
" transform="scale(0.015625)"/>
       <path id="DejaVuSans-2d" d="M 313 2009 
L 1997 2009 
L 1997 1497 
L 313 1497 
L 313 2009 
z
" transform="scale(0.015625)"/>
      </defs>
      <use xlink:href="#DejaVuSans-4d"/>
      <use xlink:href="#DejaVuSans-6f" transform="translate(86.279297 0)"/>
      <use xlink:href="#DejaVuSans-6c" transform="translate(147.460938 0)"/>
      <use xlink:href="#DejaVuSans-65" transform="translate(175.244141 0)"/>
      <use xlink:href="#DejaVuSans-20" transform="translate(236.767578 0)"/>
      <use xlink:href="#DejaVuSans-66" transform="translate(268.554688 0)"/>
      <use xlink:href="#DejaVuSans-72" transform="translate(303.759766 0)"/>
      <use xlink:href="#DejaVuSans-61" transform="translate(344.873047 0)"/>
      <use xlink:href="#DejaVuSans-63" transform="translate(406.152344 0)"/>
      <use xlink:href="#DejaVuSans-74" transform="translate(461.132812 0)"/>
      <use xlink:href="#DejaVuSans-69" transform="translate(500.341797 0)"/>
      <use xlink:href="#DejaVuSans-6f" transform="translate(528.125 0)"/>
      <use xlink:href="#DejaVuSans-6e" transform="translate(589.306641 0)"/>
      <use xlink:href="#DejaVuSans-20" transform="translate(652.685547 0)"/>
      <use xlink:href="#DejaVuSans-5b" transform="translate(684.472656 0)"/>
      <use xlink:href="#DejaVuSans-2d" transform="translate(723.486328 0)"/>
      <use xlink:href="#DejaVuSans-5d" transform="translate(759.570312 0)"/>
     </g>
    </g>
   </g>
   <g id="line2d_31">
    <path d="M 43.78125 378.494279 
L 44.063447 378.493846 
L 44.157512 378.295331 
L 44.345643 373.531643 
L 45.192233 346.246902 
L 45.944757 346.234565 
L 67.391691 346.086755 
L 71.248376 345.805003 
L 74.164407 345.378076 
L 76.798241 344.767949 
L 79.243944 343.967256 
L 81.501516 342.992681 
L 83.665022 341.814082 
L 86.204791 340.15627 
L 95.893537 333.545857 
L 99.091764 331.775005 
L 102.289991 330.26399 
L 105.488218 328.995977 
L 108.874576 327.890911 
L 112.543131 326.932792 
L 116.493882 326.133735 
L 120.91496 325.469968 
L 125.994497 324.936606 
L 132.108755 324.52684 
L 139.916191 324.238849 
L 151.204051 324.065393 
L 173.027247 323.99572 
L 264.835175 323.869116 
L 265.211437 323.597822 
L 265.399568 323.886693 
L 265.77583 323.864855 
L 266.340223 323.87333 
L 274.335791 323.613427 
L 279.791589 323.120949 
L 284.494865 322.481711 
L 288.915943 321.657433 
L 290.609122 321.210877 
L 290.797253 320.84963 
L 291.173515 321.098856 
L 292.396366 320.810591 
L 295.782725 319.947678 
L 301.238523 318.340403 
L 312.244187 315.006586 
L 317.041527 313.724267 
L 317.229658 313.24309 
L 317.417789 313.553328 
L 317.794051 313.482014 
L 326.071816 311.77748 
L 334.34958 310.355631 
L 335.854627 310.09095 
L 336.042758 309.82887 
L 336.324955 310.246968 
L 336.607151 309.990416 
L 338.30033 309.806158 
L 339.052854 309.719691 
L 343.756129 309.203219 
L 345.073046 309.054476 
L 352.598286 308.454915 
L 364.826801 307.806622 
L 370.188535 307.669106 
L 372.257976 307.661489 
L 372.728303 307.560309 
L 374.04522 307.582212 
L 375.644334 307.56202 
L 379.406954 307.469119 
L 419.949185 307.170418 
L 422.394887 307.168402 
L 430.766717 307.302772 
L 435.564057 307.59742 
L 439.702939 308.071976 
L 442.61897 308.598241 
L 444.782476 309.210778 
L 447.22818 310.142719 
L 449.673882 311.317788 
L 452.401782 312.888595 
L 461.902398 318.60233 
L 464.724362 319.902638 
L 467.452262 320.917887 
L 470.368292 321.762314 
L 473.566519 322.447164 
L 477.141008 322.980223 
L 481.468021 323.393766 
L 487.111951 323.694568 
L 495.29565 323.885633 
L 510.252064 323.974378 
L 532.451523 323.958179 
L 532.733719 323.847115 
L 533.204047 323.980698 
L 543.269055 323.985325 
L 543.833448 323.970138 
L 545.996955 323.959695 
L 547.596068 323.95113 
L 548.442657 323.930178 
L 548.912985 323.869106 
L 549.289247 323.596961 
L 549.477378 323.884457 
L 549.85364 323.86588 
L 550.512098 323.870119 
L 561.423697 323.368878 
L 566.503233 322.791421 
L 571.018377 322.053867 
L 574.592867 321.275477 
L 574.780998 321.01903 
L 574.875063 320.849508 
L 575.251325 321.098587 
L 576.474176 320.810536 
L 579.860534 319.947687 
L 585.410399 318.310929 
L 596.0398 315.086147 
L 601.119338 313.724302 
L 601.307469 313.243225 
L 601.4956 313.553456 
L 601.871862 313.482053 
L 610.05556 311.794912 
L 618.42739 310.355642 
L 619.932437 310.09095 
L 620.120568 309.828874 
L 620.402765 310.246944 
L 620.684961 309.99026 
L 622.37814 309.806208 
L 623.130664 309.719671 
L 627.833939 309.203225 
L 629.150857 309.054472 
L 636.676096 308.454918 
L 648.904611 307.806836 
L 654.172279 307.658134 
L 655.018869 307.646871 
L 660.192472 307.532966 
L 660.662799 307.499711 
L 662.920371 307.471427 
L 701.20503 307.202043 
L 705.908304 307.167298 
L 714.562331 307.292285 
L 719.453736 307.581179 
L 723.592618 308.045187 
L 726.602714 308.576651 
L 728.766221 309.179695 
L 731.211924 310.102475 
L 733.657627 311.268087 
L 736.385526 312.83099 
L 746.168339 318.696972 
L 748.990303 319.980155 
L 751.718203 320.979666 
L 754.634233 321.808731 
L 757.832461 322.48061 
L 761.501015 323.014045 
L 765.922093 323.420718 
L 771.660089 323.711688 
L 780.031918 323.893973 
L 795.834922 323.977331 
L 796.30525 323.978149 
L 796.30525 323.978149 
" clip-path="url(#p8a44e26ddb)" style="fill: none; stroke: #1f77b4; stroke-width: 2; stroke-linecap: square"/>
   </g>
   <g id="line2d_32">
    <path d="M 43.78125 378.494279 
L 43.969381 378.483772 
L 44.063447 378.107898 
L 44.62784 364.60225 
L 45.004102 360.786284 
L 45.192233 360.563639 
L 47.167608 360.559453 
L 67.20356 360.678151 
L 71.342442 360.934472 
L 74.540669 361.34814 
L 77.362634 361.933982 
L 79.996468 362.702285 
L 82.536236 363.673292 
L 85.264136 364.963245 
L 93.259703 368.909817 
L 96.45793 370.150111 
L 99.750223 371.184044 
L 103.324712 372.064796 
L 107.275463 372.801637 
L 111.790606 373.411269 
L 117.15234 373.903276 
L 123.830991 374.281362 
L 132.673147 374.544029 
L 145.936383 374.693929 
L 175.096688 374.744516 
L 273.30107 374.876987 
L 281.955096 375.173134 
L 290.138795 375.681323 
L 316.383069 377.551106 
L 326.636209 377.896677 
L 341.216361 378.147581 
L 365.297129 378.290975 
L 424.558394 378.336948 
L 443.747756 378.223519 
L 449.391686 377.984331 
L 454.094961 377.562726 
L 460.209218 376.761947 
L 467.922589 375.792634 
L 473.566519 375.323494 
L 480.057039 375.018233 
L 489.087327 374.835865 
L 506.019117 374.75685 
L 553.051867 374.805891 
L 562.834679 375.035727 
L 570.924312 375.450729 
L 580.236796 376.168069 
L 593.405966 377.175301 
L 602.812517 377.649466 
L 615.511359 378.001966 
L 631.878756 378.207794 
L 659.345882 378.310154 
L 723.780749 378.284889 
L 731.494121 378.096555 
L 736.385526 377.748913 
L 741.465063 377.152059 
L 753.411382 375.654454 
L 759.149378 375.233701 
L 766.110224 374.960612 
L 776.363364 374.806065 
L 796.30525 374.750869 
L 796.30525 374.750869 
" clip-path="url(#p8a44e26ddb)" style="fill: none; stroke: #2ca02c; stroke-width: 2; stroke-linecap: square"/>
   </g>
   <g id="line2d_33">
    <path d="M 43.78125 378.494279 
L 43.969381 378.486449 
L 44.063447 378.208792 
L 44.251578 371.578871 
L 45.004102 341.003782 
L 45.192233 340.056312 
L 45.756626 340.037122 
L 70.96618 339.924348 
L 76.516044 339.655887 
L 81.689647 339.178165 
L 92.883441 338.012057 
L 97.586716 337.869827 
L 103.98317 337.918571 
L 139.163667 338.513288 
L 173.121312 338.559699 
L 248.467778 338.664297 
L 248.84404 338.64503 
L 249.126237 338.599723 
L 250.349088 338.56896 
L 264.741109 338.579748 
L 264.92924 338.780568 
L 265.117371 338.961504 
L 265.305502 338.531566 
L 265.869895 338.558636 
L 290.420991 339.136198 
L 290.609122 339.244045 
L 290.703188 339.496293 
L 290.797253 339.445005 
L 290.985384 338.991165 
L 291.267581 339.22715 
L 293.619218 339.310194 
L 301.426654 339.971687 
L 316.947462 341.574866 
L 317.135593 342.03138 
L 317.323724 341.48631 
L 317.417789 341.545254 
L 317.60592 341.714665 
L 319.769427 341.842051 
L 332.468269 342.917277 
L 335.3843 343.084199 
L 335.760562 342.815984 
L 335.948693 343.354107 
L 336.136824 343.873125 
L 336.41902 343.036854 
L 336.795282 343.181648 
L 343.850195 343.589271 
L 346.107767 343.681256 
L 348.271274 343.847366 
L 348.647536 343.893796 
L 349.58819 343.869277 
L 355.232121 344.022905 
L 356.266841 343.991466 
L 356.925299 344.054438 
L 357.583758 344.111842 
L 358.712544 344.153408 
L 370.09447 344.312161 
L 370.470731 344.297836 
L 371.317321 344.308103 
L 373.763024 344.393602 
L 374.421482 344.359199 
L 390.318552 344.509809 
L 390.694814 344.483307 
L 392.199862 344.504006 
L 399.254774 344.478874 
L 399.631036 344.431629 
L 404.428377 344.495038 
L 431.33111 344.49625 
L 438.00976 344.231225 
L 442.901166 343.820251 
L 446.193459 343.31442 
L 450.050144 342.493998 
L 460.773611 340.039795 
L 464.724362 339.485756 
L 469.239507 339.08788 
L 475.071567 338.812085 
L 483.819659 338.642947 
L 501.409907 338.569327 
L 532.451523 338.582549 
L 532.639654 338.686198 
L 532.827785 338.624632 
L 533.204047 338.599394 
L 534.426898 338.569276 
L 548.818919 338.579841 
L 549.00705 338.780634 
L 549.195181 338.961388 
L 549.383312 338.531679 
L 549.947705 338.558633 
L 561.894024 338.687895 
L 571.488705 338.976537 
L 574.592867 339.176214 
L 574.686932 339.244076 
L 574.780998 339.496382 
L 574.875063 339.445105 
L 575.063194 338.990767 
L 575.345391 339.22697 
L 577.791093 339.316827 
L 585.880726 340.008822 
L 601.025272 341.574891 
L 601.213403 342.03141 
L 601.401534 341.486144 
L 601.4956 341.545342 
L 601.683731 341.714595 
L 603.847237 341.842024 
L 616.452014 342.910562 
L 619.46211 343.084188 
L 619.838372 342.816005 
L 620.026503 343.35407 
L 620.214634 343.873193 
L 620.49683 343.036853 
L 620.873092 343.181544 
L 627.833939 343.588913 
L 630.844036 343.707634 
L 632.443149 343.881381 
L 633.007542 343.878538 
L 635.829507 343.912499 
L 646.552974 344.297362 
L 647.68176 344.274155 
L 651.820642 344.287207 
L 672.232856 344.409436 
L 672.515052 344.365194 
L 672.797249 344.419324 
L 673.079445 344.38536 
L 674.678559 344.511721 
L 675.054821 344.490508 
L 678.81744 344.468632 
L 680.69875 344.468104 
L 718.795278 344.396417 
L 724.345142 344.074754 
L 728.107762 343.670986 
L 731.588186 343.058804 
L 735.727068 342.100918 
L 743.064177 340.366594 
L 746.920862 339.721864 
L 751.059744 339.260323 
L 756.139281 338.929437 
L 763.194194 338.710691 
L 775.140512 338.593228 
L 796.30525 338.562842 
L 796.30525 338.562842 
" clip-path="url(#p8a44e26ddb)" style="fill: none; stroke: #9467bd; stroke-width: 2; stroke-linecap: square"/>
   </g>
   <g id="line2d_34">
    <path d="M 43.78125 378.494279 
L 43.969381 378.452785 
L 44.063447 376.974313 
L 45.004102 276.223997 
L 45.192233 274.29816 
L 45.756626 274.285883 
L 66.545101 274.5071 
L 69.555197 274.816597 
L 72.0009 275.288076 
L 74.070341 275.909647 
L 75.951651 276.698334 
L 77.738896 277.679096 
L 79.52614 278.916206 
L 81.219319 280.358689 
L 82.912498 282.102848 
L 84.699743 284.27827 
L 86.957314 287.409851 
L 96.081668 300.486236 
L 98.809568 303.807551 
L 101.349336 306.563249 
L 103.889105 308.997655 
L 106.428873 311.125048 
L 108.968642 312.966516 
L 111.602475 314.600093 
L 114.330375 316.026558 
L 117.15234 317.25181 
L 120.162436 318.316319 
L 123.454729 319.240883 
L 127.029218 320.011132 
L 131.074034 320.652116 
L 135.777309 321.167157 
L 141.515305 321.560873 
L 148.946479 321.835335 
L 160.046208 321.999655 
L 182.621928 322.062546 
L 265.117371 322.098522 
L 265.305502 322.269234 
L 265.77583 322.26467 
L 271.890087 322.706026 
L 275.558642 323.228841 
L 278.850934 323.919749 
L 281.955096 324.801001 
L 284.871127 325.856631 
L 287.787157 327.15071 
L 290.797253 328.654037 
L 290.985384 328.943829 
L 291.267581 329.009496 
L 295.406463 331.703158 
L 299.263148 334.52565 
L 316.006807 347.135662 
L 320.051624 349.730138 
L 323.908309 351.92195 
L 328.047191 354.011931 
L 332.280138 355.904889 
L 335.854627 357.339907 
L 336.136824 357.295009 
L 336.513086 357.575942 
L 339.429116 358.550394 
L 340.746034 358.976888 
L 348.083143 360.938688 
L 360.029461 363.019025 
L 366.51998 363.728587 
L 372.540172 364.172647 
L 383.828033 364.574238 
L 414.117123 365.175962 
L 422.018625 365.342174 
L 427.004097 365.233706 
L 430.954848 364.941241 
L 433.870879 364.524089 
L 436.504712 363.924112 
L 439.044481 363.117243 
L 441.302053 362.169956 
L 442.901166 361.262514 
L 444.312149 360.198437 
L 445.911262 358.708094 
L 447.698507 356.729209 
L 449.485751 354.411369 
L 451.555192 351.342924 
L 454.659354 346.28107 
L 458.70417 339.767323 
L 461.055808 336.400175 
L 463.125249 333.801389 
L 465.100624 331.659306 
L 467.076 329.84015 
L 469.051376 328.31962 
L 471.120816 327.011489 
L 473.284323 325.912405 
L 475.635961 324.976295 
L 478.175729 324.208531 
L 481.091759 323.565128 
L 484.478117 323.051008 
L 488.711065 322.644793 
L 494.166864 322.354825 
L 502.256497 322.169192 
L 518.153567 322.077641 
L 546.185086 322.143391 
L 548.912985 322.180188 
L 549.195181 322.098426 
L 549.383312 322.270029 
L 549.85364 322.265194 
L 555.779767 322.685316 
L 559.448321 323.196556 
L 562.552482 323.82881 
L 565.656644 324.681346 
L 568.66674 325.744256 
L 571.58277 327.014655 
L 574.875063 328.653986 
L 575.063194 328.943953 
L 575.345391 329.009515 
L 579.390207 331.637753 
L 583.152827 334.382711 
L 591.148394 340.59069 
L 597.168586 345.103519 
L 601.025272 347.762518 
L 601.307469 347.917562 
L 601.4956 348.101282 
L 601.871862 348.305281 
L 606.010743 350.831467 
L 609.961494 352.949819 
L 614.194442 354.966798 
L 618.521455 356.78298 
L 620.120568 357.289896 
L 620.308699 357.394191 
L 620.590896 357.57592 
L 623.506926 358.550331 
L 624.823843 358.976842 
L 632.160953 360.93866 
L 644.107271 363.01902 
L 650.59779 363.728578 
L 656.617982 364.172642 
L 667.905842 364.574236 
L 698.383064 365.182691 
L 705.908304 365.341959 
L 710.893776 365.242282 
L 714.938593 364.951052 
L 717.854623 364.541475 
L 720.582522 363.924102 
L 723.122291 363.11724 
L 725.379863 362.169929 
L 726.978976 361.262499 
L 728.389959 360.198448 
L 729.989073 358.708135 
L 731.776317 356.729196 
L 733.563561 354.411514 
L 735.633002 351.342902 
L 738.737164 346.280861 
L 742.78198 339.767179 
L 745.133618 336.40008 
L 747.203059 333.801313 
L 749.178434 331.659416 
L 751.15381 329.840314 
L 753.129185 328.319629 
L 755.198626 327.011827 
L 757.362133 325.912721 
L 759.713771 324.977496 
L 762.253539 324.208298 
L 765.169569 323.565078 
L 768.555927 323.051345 
L 772.788875 322.644406 
L 778.244674 322.355233 
L 786.334307 322.169209 
L 796.30525 322.094464 
L 796.30525 322.094464 
" clip-path="url(#p8a44e26ddb)" style="fill: none; stroke: #e377c2; stroke-width: 2; stroke-linecap: square"/>
   </g>
   <g id="line2d_35">
    <path d="M 43.78125 378.494279 
L 43.969381 378.480822 
L 44.063447 378.005531 
L 44.157512 374.263969 
L 45.192233 281.295076 
L 45.474429 281.263099 
L 53.752193 281.254434 
L 66.074774 281.143606 
L 69.931459 280.893807 
L 72.84749 280.48928 
L 75.293193 279.932438 
L 77.550765 279.191319 
L 79.620205 278.284995 
L 81.595581 277.179857 
L 83.476891 275.873915 
L 85.546332 274.1575 
L 88.462363 271.409928 
L 95.141013 265.032033 
L 98.33924 262.336478 
L 101.25527 260.161485 
L 104.171301 258.261875 
L 107.087332 256.627862 
L 110.097428 255.200211 
L 113.201589 253.976586 
L 116.493882 252.921305 
L 120.068371 252.016601 
L 123.925056 251.271067 
L 128.346135 250.649953 
L 133.519737 250.15825 
L 139.822125 249.794628 
L 148.193955 249.54886 
L 161.363125 249.413328 
L 194.28605 249.373028 
L 248.561843 249.47745 
L 248.749974 249.428266 
L 249.032171 249.373932 
L 250.066891 249.35696 
L 258.814983 249.361646 
L 259.661573 249.343784 
L 261.919145 249.327359 
L 263.518258 249.296062 
L 265.023306 249.372729 
L 265.211437 249.834814 
L 265.399568 249.304731 
L 265.77583 249.320467 
L 266.152092 249.29411 
L 266.622419 249.254878 
L 267.469009 249.196139 
L 276.02897 248.481572 
L 279.697524 247.914849 
L 283.177948 247.156823 
L 286.564305 246.195359 
L 289.856598 245.031623 
L 290.703188 244.759946 
L 290.891319 245.184754 
L 291.173515 244.558111 
L 291.737908 244.327659 
L 295.124266 242.701541 
L 301.332589 239.361034 
L 316.383069 231.263507 
L 317.041527 230.829156 
L 317.229658 231.408389 
L 317.323724 231.30809 
L 317.511855 230.79471 
L 318.358444 230.386666 
L 322.309195 228.592593 
L 325.97775 227.123531 
L 330.116632 225.720169 
L 335.3843 224.092104 
L 335.760562 224.216811 
L 336.042758 224.057186 
L 336.230889 223.47208 
L 336.607151 223.911302 
L 338.018134 223.431521 
L 339.429116 223.084525 
L 340.275706 222.902213 
L 344.038326 222.087293 
L 344.696784 221.970731 
L 346.766225 221.595501 
L 353.915203 220.55669 
L 354.667728 220.418674 
L 355.702448 220.226979 
L 356.172776 220.305149 
L 358.806609 219.910218 
L 362.192968 219.673313 
L 362.475164 219.532401 
L 368.40129 219.202554 
L 374.703679 218.925186 
L 376.396858 218.793663 
L 377.337513 218.765034 
L 384.392426 218.686906 
L 385.239015 218.664374 
L 386.17967 218.685966 
L 386.838128 218.665826 
L 387.966914 218.62102 
L 388.531307 218.625253 
L 388.719438 218.623955 
L 389.0957 218.679994 
L 394.927761 218.575079 
L 398.408185 218.541823 
L 399.34884 218.567315 
L 399.913233 218.582228 
L 400.38356 218.576846 
L 401.700477 218.572611 
L 403.017394 218.478321 
L 404.710574 218.480433 
L 427.380359 218.207734 
L 431.895503 218.49462 
L 435.187795 218.917974 
L 438.103826 219.514991 
L 440.831726 220.293675 
L 442.713035 221.036001 
L 444.312149 221.906513 
L 446.099393 223.141495 
L 447.980704 224.704285 
L 449.956079 226.636097 
L 452.307716 229.261059 
L 460.209218 238.365624 
L 462.560856 240.580364 
L 464.724362 242.317333 
L 466.887869 243.770212 
L 469.051376 244.963132 
L 471.308947 245.964037 
L 473.848716 246.840586 
L 476.576616 247.545512 
L 479.774842 248.135124 
L 483.537463 248.595779 
L 488.334803 248.947318 
L 494.919388 249.189277 
L 505.360658 249.323989 
L 532.827785 249.427792 
L 533.109981 249.373274 
L 534.144701 249.356714 
L 547.690134 249.297569 
L 549.00705 249.253712 
L 549.101116 249.372519 
L 549.289247 249.834883 
L 549.477378 249.304592 
L 549.85364 249.319908 
L 550.229902 249.295092 
L 550.794295 249.261003 
L 552.957801 249.098331 
L 561.047435 248.358118 
L 564.715989 247.731896 
L 568.008281 246.962976 
L 571.394639 245.949758 
L 574.498801 244.800621 
L 574.686932 244.679237 
L 574.780998 244.760018 
L 574.969129 245.185207 
L 575.251325 244.558774 
L 575.815718 244.327696 
L 579.10801 242.750202 
L 585.128202 239.515194 
L 600.460879 231.263533 
L 601.119338 230.829159 
L 601.307469 231.408425 
L 601.401534 231.308261 
L 601.589665 230.794653 
L 602.53032 230.341015 
L 606.669202 228.471234 
L 610.431822 226.986592 
L 614.946966 225.481307 
L 619.556175 224.128578 
L 619.838372 224.216808 
L 620.120568 224.057212 
L 620.308699 223.472116 
L 620.684961 223.911485 
L 622.095944 223.431332 
L 623.506926 223.084366 
L 624.353516 222.902204 
L 628.116136 222.087302 
L 628.774594 221.97071 
L 630.844036 221.595504 
L 637.993013 220.556688 
L 638.745537 220.418631 
L 639.874323 220.264977 
L 640.532782 220.239108 
L 642.414092 219.981437 
L 646.270778 219.673508 
L 646.552974 219.532292 
L 652.4791 219.202489 
L 658.311162 218.937576 
L 672.326921 218.708593 
L 672.515052 218.695116 
L 672.797249 218.623947 
L 673.173511 218.680037 
L 679.005571 218.575051 
L 682.391929 218.546388 
L 683.614781 218.597432 
L 684.743567 218.590181 
L 686.15455 218.523786 
L 687.941794 218.482631 
L 688.506187 218.492491 
L 690.95189 218.430129 
L 711.928496 218.226886 
L 716.25551 218.521956 
L 719.453736 218.949799 
L 722.369767 219.561373 
L 725.097666 220.357662 
L 726.978976 221.125806 
L 728.57809 222.024339 
L 730.365335 223.28566 
L 732.246645 224.875589 
L 734.22202 226.834643 
L 736.667723 229.59269 
L 743.910767 237.980865 
L 746.262404 240.248717 
L 748.42591 242.036009 
L 750.589417 243.536862 
L 752.752923 244.772999 
L 755.010495 245.812796 
L 757.456199 246.695608 
L 760.184098 247.438197 
L 763.288259 248.046188 
L 766.956814 248.529155 
L 771.471958 248.893773 
L 777.586215 249.15278 
L 787.086831 249.307307 
L 796.30525 249.353424 
L 796.30525 249.353424 
" clip-path="url(#p8a44e26ddb)" style="fill: none; stroke: #bcbd22; stroke-width: 2; stroke-linecap: square"/>
   </g>
   <g id="line2d_36">
    <path d="M 43.78125 29.301971 
L 43.969381 29.375259 
L 44.063447 31.982984 
L 44.251578 87.63348 
L 44.910036 291.354257 
L 45.098167 318.279688 
L 45.286298 319.412986 
L 45.66256 319.391607 
L 51.588687 319.390997 
L 70.872114 319.281112 
L 76.233847 319.016792 
L 80.654926 318.579067 
L 84.511612 317.979592 
L 90.908066 316.69735 
L 97.116388 315.564957 
L 102.666253 314.783523 
L 108.592379 314.175431 
L 115.365095 313.70847 
L 123.64286 313.370542 
L 134.742589 313.155959 
L 153.085361 313.054499 
L 219.213407 313.036998 
L 265.023306 312.93641 
L 265.117371 312.638714 
L 265.211437 312.679092 
L 265.399568 313.007308 
L 265.963961 312.967987 
L 266.622419 312.99569 
L 267.65714 313.002915 
L 272.45448 312.974185 
L 281.955096 312.712026 
L 290.609122 312.334172 
L 290.891319 311.988899 
L 291.07945 312.207815 
L 291.831974 312.130392 
L 300.768196 311.473912 
L 312.620449 310.439419 
L 317.041527 310.106114 
L 317.229658 309.825125 
L 317.60592 310.012967 
L 318.734707 309.940638 
L 323.24985 309.72016 
L 335.948693 308.988019 
L 336.042758 308.781866 
L 336.136824 308.83424 
L 336.324955 309.242551 
L 336.795282 309.021132 
L 338.958789 308.939958 
L 339.429116 308.910626 
L 340.087575 308.927726 
L 344.414588 308.807957 
L 354.479597 308.558606 
L 355.608383 308.688713 
L 356.07871 308.422482 
L 356.737168 308.507694 
L 360.123526 308.476383 
L 370.09447 308.354321 
L 370.658862 308.315841 
L 378.936626 308.338001 
L 392.011731 308.318641 
L 401.136084 308.258591 
L 412.423945 308.25292 
L 437.539433 308.409541 
L 443.747756 308.721981 
L 448.074769 309.188675 
L 452.683978 309.914826 
L 463.501511 311.717105 
L 468.486983 312.252625 
L 474.130912 312.62418 
L 481.468021 312.866714 
L 493.038078 312.997214 
L 522.66871 313.035593 
L 549.00705 313.067289 
L 549.289247 312.679586 
L 549.477378 313.00981 
L 550.041771 312.969328 
L 550.88836 312.992871 
L 554.650981 313.000751 
L 564.151596 312.779477 
L 574.686932 312.33417 
L 574.969129 311.988789 
L 575.15726 312.208245 
L 575.909784 312.130302 
L 584.657875 311.492125 
L 596.510128 310.454462 
L 601.119338 310.106115 
L 601.307469 309.825165 
L 601.683731 310.012938 
L 602.812517 309.94072 
L 607.421726 309.715407 
L 620.026503 308.988022 
L 620.120568 308.781854 
L 620.214634 308.834277 
L 620.402765 309.24252 
L 620.873092 309.021195 
L 623.036599 308.93986 
L 623.506926 308.910668 
L 624.165385 308.927751 
L 628.398332 308.811039 
L 638.651472 308.575989 
L 639.780258 308.61051 
L 640.062454 308.420462 
L 645.988581 308.462012 
L 646.270778 308.39815 
L 646.64704 308.479553 
L 663.955091 308.32821 
L 675.713279 308.313829 
L 683.238519 308.302152 
L 684.273239 308.274917 
L 687.18927 308.292823 
L 718.042754 308.316534 
L 725.662059 308.578408 
L 729.800942 308.908072 
L 734.22202 309.488841 
L 740.242212 310.545629 
L 746.544601 311.577787 
L 751.530072 312.159582 
L 756.891805 312.555706 
L 763.664521 312.822716 
L 773.72953 312.975795 
L 795.552726 313.033236 
L 796.30525 313.033617 
L 796.30525 313.033617 
" clip-path="url(#p8a44e26ddb)" style="fill: none; stroke: #17becf; stroke-width: 2; stroke-linecap: square"/>
   </g>
   <g id="patch_3">
    <path d="M 43.78125 385.478125 
L 43.78125 22.318125 
" style="fill: none; stroke: #000000; stroke-width: 0.8; stroke-linejoin: miter; stroke-linecap: square"/>
   </g>
   <g id="patch_4">
    <path d="M 796.30525 385.478125 
L 796.30525 22.318125 
" style="fill: none; stroke: #000000; stroke-width: 0.8; stroke-linejoin: miter; stroke-linecap: square"/>
   </g>
   <g id="patch_5">
    <path d="M 43.78125 385.478125 
L 796.30525 385.478125 
" style="fill: none; stroke: #000000; stroke-width: 0.8; stroke-linejoin: miter; stroke-linecap: square"/>
   </g>
   <g id="patch_6">
    <path d="M 43.78125 22.318125 
L 796.30525 22.318125 
" style="fill: none; stroke: #000000; stroke-width: 0.8; stroke-linejoin: miter; stroke-linecap: square"/>
   </g>
   <g id="text_18">
    <!-- Outlet Composition vs Time -->
    <g transform="translate(336.90575 16.318125) scale(0.12 -0.12)">
     <defs>
      <path id="DejaVuSans-4f" d="M 2522 4238 
Q 1834 4238 1429 3725 
Q 1025 3213 1025 2328 
Q 1025 1447 1429 934 
Q 1834 422 2522 422 
Q 3209 422 3611 934 
Q 4013 1447 4013 2328 
Q 4013 3213 3611 3725 
Q 3209 4238 2522 4238 
z
M 2522 4750 
Q 3503 4750 4090 4092 
Q 4678 3434 4678 2328 
Q 4678 1225 4090 567 
Q 3503 -91 2522 -91 
Q 1538 -91 948 565 
Q 359 1222 359 2328 
Q 359 3434 948 4092 
Q 1538 4750 2522 4750 
z
" transform="scale(0.015625)"/>
      <path id="DejaVuSans-75" d="M 544 1381 
L 544 3500 
L 1119 3500 
L 1119 1403 
Q 1119 906 1312 657 
Q 1506 409 1894 409 
Q 2359 409 2629 706 
Q 2900 1003 2900 1516 
L 2900 3500 
L 3475 3500 
L 3475 0 
L 2900 0 
L 2900 538 
Q 2691 219 2414 64 
Q 2138 -91 1772 -91 
Q 1169 -91 856 284 
Q 544 659 544 1381 
z
M 1991 3584 
L 1991 3584 
z
" transform="scale(0.015625)"/>
      <path id="DejaVuSans-43" d="M 4122 4306 
L 4122 3641 
Q 3803 3938 3442 4084 
Q 3081 4231 2675 4231 
Q 1875 4231 1450 3742 
Q 1025 3253 1025 2328 
Q 1025 1406 1450 917 
Q 1875 428 2675 428 
Q 3081 428 3442 575 
Q 3803 722 4122 1019 
L 4122 359 
Q 3791 134 3420 21 
Q 3050 -91 2638 -91 
Q 1578 -91 968 557 
Q 359 1206 359 2328 
Q 359 3453 968 4101 
Q 1578 4750 2638 4750 
Q 3056 4750 3426 4639 
Q 3797 4528 4122 4306 
z
" transform="scale(0.015625)"/>
      <path id="DejaVuSans-70" d="M 1159 525 
L 1159 -1331 
L 581 -1331 
L 581 3500 
L 1159 3500 
L 1159 2969 
Q 1341 3281 1617 3432 
Q 1894 3584 2278 3584 
Q 2916 3584 3314 3078 
Q 3713 2572 3713 1747 
Q 3713 922 3314 415 
Q 2916 -91 2278 -91 
Q 1894 -91 1617 61 
Q 1341 213 1159 525 
z
M 3116 1747 
Q 3116 2381 2855 2742 
Q 2594 3103 2138 3103 
Q 1681 3103 1420 2742 
Q 1159 2381 1159 1747 
Q 1159 1113 1420 752 
Q 1681 391 2138 391 
Q 2594 391 2855 752 
Q 3116 1113 3116 1747 
z
" transform="scale(0.015625)"/>
      <path id="DejaVuSans-76" d="M 191 3500 
L 800 3500 
L 1894 563 
L 2988 3500 
L 3597 3500 
L 2284 0 
L 1503 0 
L 191 3500 
z
" transform="scale(0.015625)"/>
     </defs>
     <use xlink:href="#DejaVuSans-4f"/>
     <use xlink:href="#DejaVuSans-75" transform="translate(78.710938 0)"/>
     <use xlink:href="#DejaVuSans-74" transform="translate(142.089844 0)"/>
     <use xlink:href="#DejaVuSans-6c" transform="translate(181.298828 0)"/>
     <use xlink:href="#DejaVuSans-65" transform="translate(209.082031 0)"/>
     <use xlink:href="#DejaVuSans-74" transform="translate(270.605469 0)"/>
     <use xlink:href="#DejaVuSans-20" transform="translate(309.814453 0)"/>
     <use xlink:href="#DejaVuSans-43" transform="translate(341.601562 0)"/>
     <use xlink:href="#DejaVuSans-6f" transform="translate(411.425781 0)"/>
     <use xlink:href="#DejaVuSans-6d" transform="translate(472.607422 0)"/>
     <use xlink:href="#DejaVuSans-70" transform="translate(570.019531 0)"/>
     <use xlink:href="#DejaVuSans-6f" transform="translate(633.496094 0)"/>
     <use xlink:href="#DejaVuSans-73" transform="translate(694.677734 0)"/>
     <use xlink:href="#DejaVuSans-69" transform="translate(746.777344 0)"/>
     <use xlink:href="#DejaVuSans-74" transform="translate(774.560547 0)"/>
     <use xlink:href="#DejaVuSans-69" transform="translate(813.769531 0)"/>
     <use xlink:href="#DejaVuSans-6f" transform="translate(841.552734 0)"/>
     <use xlink:href="#DejaVuSans-6e" transform="translate(902.734375 0)"/>
     <use xlink:href="#DejaVuSans-20" transform="translate(966.113281 0)"/>
     <use xlink:href="#DejaVuSans-76" transform="translate(997.900391 0)"/>
     <use xlink:href="#DejaVuSans-73" transform="translate(1057.080078 0)"/>
     <use xlink:href="#DejaVuSans-20" transform="translate(1109.179688 0)"/>
     <use xlink:href="#DejaVuSans-54" transform="translate(1140.966797 0)"/>
     <use xlink:href="#DejaVuSans-69" transform="translate(1198.925781 0)"/>
     <use xlink:href="#DejaVuSans-6d" transform="translate(1226.708984 0)"/>
     <use xlink:href="#DejaVuSans-65" transform="translate(1324.121094 0)"/>
    </g>
   </g>
   <g id="legend_1">
    <g id="patch_7">
     <path d="M 805.43049 95.173125 
L 848.43424 95.173125 
Q 850.03424 95.173125 850.03424 93.573125 
L 850.03424 23.918125 
Q 850.03424 22.318125 848.43424 22.318125 
L 805.43049 22.318125 
Q 803.83049 22.318125 803.83049 23.918125 
L 803.83049 93.573125 
Q 803.83049 95.173125 805.43049 95.173125 
z
" style="fill: #ffffff; opacity: 0.8; stroke: #cccccc; stroke-linejoin: miter"/>
    </g>
    <g id="line2d_37">
     <path d="M 807.03049 28.796875 
L 815.03049 28.796875 
L 823.03049 28.796875 
" style="fill: none; stroke: #1f77b4; stroke-width: 2; stroke-linecap: square"/>
    </g>
    <g id="text_19">
     <!-- CH4 -->
     <g transform="translate(829.43049 31.596875) scale(0.08 -0.08)">
      <defs>
       <path id="DejaVuSans-48" d="M 628 4666 
L 1259 4666 
L 1259 2753 
L 3553 2753 
L 3553 4666 
L 4184 4666 
L 4184 0 
L 3553 0 
L 3553 2222 
L 1259 2222 
L 1259 0 
L 628 0 
L 628 4666 
z
" transform="scale(0.015625)"/>
      </defs>
      <use xlink:href="#DejaVuSans-43"/>
      <use xlink:href="#DejaVuSans-48" transform="translate(69.824219 0)"/>
      <use xlink:href="#DejaVuSans-34" transform="translate(145.019531 0)"/>
     </g>
    </g>
    <g id="line2d_38">
     <path d="M 807.03049 40.539375 
L 815.03049 40.539375 
L 823.03049 40.539375 
" style="fill: none; stroke: #2ca02c; stroke-width: 2; stroke-linecap: square"/>
    </g>
    <g id="text_20">
     <!-- CO -->
     <g transform="translate(829.43049 43.339375) scale(0.08 -0.08)">
      <use xlink:href="#DejaVuSans-43"/>
      <use xlink:href="#DejaVuSans-4f" transform="translate(69.824219 0)"/>
     </g>
    </g>
    <g id="line2d_39">
     <path d="M 807.03049 52.281875 
L 815.03049 52.281875 
L 823.03049 52.281875 
" style="fill: none; stroke: #9467bd; stroke-width: 2; stroke-linecap: square"/>
    </g>
    <g id="text_21">
     <!-- CO2 -->
     <g transform="translate(829.43049 55.081875) scale(0.08 -0.08)">
      <use xlink:href="#DejaVuSans-43"/>
      <use xlink:href="#DejaVuSans-4f" transform="translate(69.824219 0)"/>
      <use xlink:href="#DejaVuSans-32" transform="translate(148.535156 0)"/>
     </g>
    </g>
    <g id="line2d_40">
     <path d="M 807.03049 64.024375 
L 815.03049 64.024375 
L 823.03049 64.024375 
" style="fill: none; stroke: #e377c2; stroke-width: 2; stroke-linecap: square"/>
    </g>
    <g id="text_22">
     <!-- H2 -->
     <g transform="translate(829.43049 66.824375) scale(0.08 -0.08)">
      <use xlink:href="#DejaVuSans-48"/>
      <use xlink:href="#DejaVuSans-32" transform="translate(75.195312 0)"/>
     </g>
    </g>
    <g id="line2d_41">
     <path d="M 807.03049 75.766875 
L 815.03049 75.766875 
L 823.03049 75.766875 
" style="fill: none; stroke: #bcbd22; stroke-width: 2; stroke-linecap: square"/>
    </g>
    <g id="text_23">
     <!-- H2O -->
     <g transform="translate(829.43049 78.566875) scale(0.08 -0.08)">
      <use xlink:href="#DejaVuSans-48"/>
      <use xlink:href="#DejaVuSans-32" transform="translate(75.195312 0)"/>
      <use xlink:href="#DejaVuSans-4f" transform="translate(138.818359 0)"/>
     </g>
    </g>
    <g id="line2d_42">
     <path d="M 807.03049 87.509375 
L 815.03049 87.509375 
L 823.03049 87.509375 
" style="fill: none; stroke: #17becf; stroke-width: 2; stroke-linecap: square"/>
    </g>
    <g id="text_24">
     <!-- N2 -->
     <g transform="translate(829.43049 90.309375) scale(0.08 -0.08)">
      <defs>
       <path id="DejaVuSans-4e" d="M 628 4666 
L 1478 4666 
L 3547 763 
L 3547 4666 
L 4159 4666 
L 4159 0 
L 3309 0 
L 1241 3903 
L 1241 0 
L 628 0 
L 628 4666 
z
" transform="scale(0.015625)"/>
      </defs>
      <use xlink:href="#DejaVuSans-4e"/>
      <use xlink:href="#DejaVuSans-32" transform="translate(74.804688 0)"/>
     </g>
    </g>
   </g>
  </g>
 </g>
 <defs>
  <clipPath id="p8a44e26ddb">
   <rect x="43.78125" y="22.318125" width="752.524" height="363.16"/>
  </clipPath>
 </defs>
</svg>
