<?xml version="1.0" encoding="utf-8" standalone="no"?>
<!DOCTYPE svg PUBLIC "-//W3C//DTD SVG 1.1//EN"
  "http://www.w3.org/Graphics/SVG/1.1/DTD/svg11.dtd">
<svg xmlns:xlink="http://www.w3.org/1999/xlink" width="856.763125pt" height="711.034375pt" viewBox="0 0 856.763125 711.034375" xmlns="http://www.w3.org/2000/svg" version="1.1">
 <metadata>
  <rdf:RDF xmlns:dc="http://purl.org/dc/elements/1.1/" xmlns:cc="http://creativecommons.org/ns#" xmlns:rdf="http://www.w3.org/1999/02/22-rdf-syntax-ns#">
   <cc:Work>
    <dc:type rdf:resource="http://purl.org/dc/dcmitype/StillImage"/>
    <dc:date>2026-04-14T13:06:13.199259</dc:date>
    <dc:format>image/svg+xml</dc:format>
    <dc:creator>
     <cc:Agent>
      <dc:title>Matplotlib v3.10.8, https://matplotlib.org/</dc:title>
     </cc:Agent>
    </dc:creator>
   </cc:Work>
  </rdf:RDF>
 </metadata>
 <defs>
  <style type="text/css">*{stroke-linejoin: round; stroke-linecap: butt}</style>
 </defs>
 <g id="figure_1">
  <g id="patch_1">
   <path d="M 0 711.034375 
L 856.763125 711.034375 
L 856.763125 0 
L 0 0 
z
" style="fill: #ffffff"/>
  </g>
  <g id="axes_1">
   <g id="patch_2">
    <path d="M 66.053125 219.118125 
L 836.838125 219.118125 
L 836.838125 22.318125 
L 66.053125 22.318125 
z
" style="fill: #ffffff"/>
   </g>
   <g id="matplotlib.axis_1">
    <g id="xtick_1">
     <g id="line2d_1">
      <path d="M 66.053125 219.118125 
L 66.053125 22.318125 
" clip-path="url(#pc934836506)" style="fill: none; stroke: #b0b0b0; stroke-opacity: 0.3; stroke-width: 0.8; stroke-linecap: square"/>
     </g>
     <g id="line2d_2">
      <defs>
       <path id="mfd4cb3a6ac" d="M 0 0 
L 0 3.5 
" style="stroke: #000000; stroke-width: 0.8"/>
      </defs>
      <g>
       <use xlink:href="#mfd4cb3a6ac" x="66.053125" y="219.118125" style="stroke: #000000; stroke-width: 0.8"/>
      </g>
     </g>
    </g>
    <g id="xtick_2">
     <g id="line2d_3">
      <path d="M 162.40125 219.118125 
L 162.40125 22.318125 
" clip-path="url(#pc934836506)" style="fill: none; stroke: #b0b0b0; stroke-opacity: 0.3; stroke-width: 0.8; stroke-linecap: square"/>
     </g>
     <g id="line2d_4">
      <g>
       <use xlink:href="#mfd4cb3a6ac" x="162.40125" y="219.118125" style="stroke: #000000; stroke-width: 0.8"/>
      </g>
     </g>
    </g>
    <g id="xtick_3">
     <g id="line2d_5">
      <path d="M 258.749375 219.118125 
L 258.749375 22.318125 
" clip-path="url(#pc934836506)" style="fill: none; stroke: #b0b0b0; stroke-opacity: 0.3; stroke-width: 0.8; stroke-linecap: square"/>
     </g>
     <g id="line2d_6">
      <g>
       <use xlink:href="#mfd4cb3a6ac" x="258.749375" y="219.118125" style="stroke: #000000; stroke-width: 0.8"/>
      </g>
     </g>
    </g>
    <g id="xtick_4">
     <g id="line2d_7">
      <path d="M 355.0975 219.118125 
L 355.0975 22.318125 
" clip-path="url(#pc934836506)" style="fill: none; stroke: #b0b0b0; stroke-opacity: 0.3; stroke-width: 0.8; stroke-linecap: square"/>
     </g>
     <g id="line2d_8">
      <g>
       <use xlink:href="#mfd4cb3a6ac" x="355.0975" y="219.118125" style="stroke: #000000; stroke-width: 0.8"/>
      </g>
     </g>
    </g>
    <g id="xtick_5">
     <g id="line2d_9">
      <path d="M 451.445625 219.118125 
L 451.445625 22.318125 
" clip-path="url(#pc934836506)" style="fill: none; stroke: #b0b0b0; stroke-opacity: 0.3; stroke-width: 0.8; stroke-linecap: square"/>
     </g>
     <g id="line2d_10">
      <g>
       <use xlink:href="#mfd4cb3a6ac" x="451.445625" y="219.118125" style="stroke: #000000; stroke-width: 0.8"/>
      </g>
     </g>
    </g>
    <g id="xtick_6">
     <g id="line2d_11">
      <path d="M 547.79375 219.118125 
L 547.79375 22.318125 
" clip-path="url(#pc934836506)" style="fill: none; stroke: #b0b0b0; stroke-opacity: 0.3; stroke-width: 0.8; stroke-linecap: square"/>
     </g>
     <g id="line2d_12">
      <g>
       <use xlink:href="#mfd4cb3a6ac" x="547.79375" y="219.118125" style="stroke: #000000; stroke-width: 0.8"/>
      </g>
     </g>
    </g>
    <g id="xtick_7">
     <g id="line2d_13">
      <path d="M 644.141875 219.118125 
L 644.141875 22.318125 
" clip-path="url(#pc934836506)" style="fill: none; stroke: #b0b0b0; stroke-opacity: 0.3; stroke-width: 0.8; stroke-linecap: square"/>
     </g>
     <g id="line2d_14">
      <g>
       <use xlink:href="#mfd4cb3a6ac" x="644.141875" y="219.118125" style="stroke: #000000; stroke-width: 0.8"/>
      </g>
     </g>
    </g>
    <g id="xtick_8">
     <g id="line2d_15">
      <path d="M 740.49 219.118125 
L 740.49 22.318125 
" clip-path="url(#pc934836506)" style="fill: none; stroke: #b0b0b0; stroke-opacity: 0.3; stroke-width: 0.8; stroke-linecap: square"/>
     </g>
     <g id="line2d_16">
      <g>
       <use xlink:href="#mfd4cb3a6ac" x="740.49" y="219.118125" style="stroke: #000000; stroke-width: 0.8"/>
      </g>
     </g>
    </g>
    <g id="xtick_9">
     <g id="line2d_17">
      <path d="M 836.838125 219.118125 
L 836.838125 22.318125 
" clip-path="url(#pc934836506)" style="fill: none; stroke: #b0b0b0; stroke-opacity: 0.3; stroke-width: 0.8; stroke-linecap: square"/>
     </g>
     <g id="line2d_18">
      <g>
       <use xlink:href="#mfd4cb3a6ac" x="836.838125" y="219.118125" style="stroke: #000000; stroke-width: 0.8"/>
      </g>
     </g>
    </g>
   </g>
   <g id="matplotlib.axis_2">
    <g id="ytick_1">
     <g id="line2d_19">
      <path d="M 66.053125 198.703475 
L 836.838125 198.703475 
" clip-path="url(#pc934836506)" style="fill: none; stroke: #b0b0b0; stroke-opacity: 0.3; stroke-width: 0.8; stroke-linecap: square"/>
     </g>
     <g id="line2d_20">
      <defs>
       <path id="medbf49b9aa" d="M 0 0 
L -3.5 0 
" style="stroke: #000000; stroke-width: 0.8"/>
      </defs>
      <g>
       <use xlink:href="#medbf49b9aa" x="66.053125" y="198.703475" style="stroke: #000000; stroke-width: 0.8"/>
      </g>
     </g>
     <g id="text_1">
      <!-- 650 -->
      <g transform="translate(39.965625 202.502693) scale(0.1 -0.1)">
       <defs>
        <path id="DejaVuSans-36" d="M 2113 2584 
Q 1688 2584 1439 2293 
Q 1191 2003 1191 1497 
Q 1191 994 1439 701 
Q 1688 409 2113 409 
Q 2538 409 2786 701 
Q 3034 994 3034 1497 
Q 3034 2003 2786 2293 
Q 2538 2584 2113 2584 
z
M 3366 4563 
L 3366 3988 
Q 3128 4100 2886 4159 
Q 2644 4219 2406 4219 
Q 1781 4219 1451 3797 
Q 1122 3375 1075 2522 
Q 1259 2794 1537 2939 
Q 1816 3084 2150 3084 
Q 2853 3084 3261 2657 
Q 3669 2231 3669 1497 
Q 3669 778 3244 343 
Q 2819 -91 2113 -91 
Q 1303 -91 875 529 
Q 447 1150 447 2328 
Q 447 3434 972 4092 
Q 1497 4750 2381 4750 
Q 2619 4750 2861 4703 
Q 3103 4656 3366 4563 
z
" transform="scale(0.015625)"/>
        <path id="DejaVuSans-35" d="M 691 4666 
L 3169 4666 
L 3169 4134 
L 1269 4134 
L 1269 2991 
Q 1406 3038 1543 3061 
Q 1681 3084 1819 3084 
Q 2600 3084 3056 2656 
Q 3513 2228 3513 1497 
Q 3513 744 3044 326 
Q 2575 -91 1722 -91 
Q 1428 -91 1123 -41 
Q 819 9 494 109 
L 494 744 
Q 775 591 1075 516 
Q 1375 441 1709 441 
Q 2250 441 2565 725 
Q 2881 1009 2881 1497 
Q 2881 1984 2565 2268 
Q 2250 2553 1709 2553 
Q 1456 2553 1204 2497 
Q 953 2441 691 2322 
L 691 4666 
z
" transform="scale(0.015625)"/>
        <path id="DejaVuSans-30" d="M 2034 4250 
Q 1547 4250 1301 3770 
Q 1056 3291 1056 2328 
Q 1056 1369 1301 889 
Q 1547 409 2034 409 
Q 2525 409 2770 889 
Q 3016 1369 3016 2328 
Q 3016 3291 2770 3770 
Q 2525 4250 2034 4250 
z
M 2034 4750 
Q 2819 4750 3233 4129 
Q 3647 3509 3647 2328 
Q 3647 1150 3233 529 
Q 2819 -91 2034 -91 
Q 1250 -91 836 529 
Q 422 1150 422 2328 
Q 422 3509 836 4129 
Q 1250 4750 2034 4750 
z
" transform="scale(0.015625)"/>
       </defs>
       <use xlink:href="#DejaVuSans-36"/>
       <use xlink:href="#DejaVuSans-35" transform="translate(63.623047 0)"/>
       <use xlink:href="#DejaVuSans-30" transform="translate(127.246094 0)"/>
      </g>
     </g>
    </g>
    <g id="ytick_2">
     <g id="line2d_21">
      <path d="M 66.053125 165.215496 
L 836.838125 165.215496 
" clip-path="url(#pc934836506)" style="fill: none; stroke: #b0b0b0; stroke-opacity: 0.3; stroke-width: 0.8; stroke-linecap: square"/>
     </g>
     <g id="line2d_22">
      <g>
       <use xlink:href="#medbf49b9aa" x="66.053125" y="165.215496" style="stroke: #000000; stroke-width: 0.8"/>
      </g>
     </g>
     <g id="text_2">
      <!-- 700 -->
      <g transform="translate(39.965625 169.014714) scale(0.1 -0.1)">
       <defs>
        <path id="DejaVuSans-37" d="M 525 4666 
L 3525 4666 
L 3525 4397 
L 1831 0 
L 1172 0 
L 2766 4134 
L 525 4134 
L 525 4666 
z
" transform="scale(0.015625)"/>
       </defs>
       <use xlink:href="#DejaVuSans-37"/>
       <use xlink:href="#DejaVuSans-30" transform="translate(63.623047 0)"/>
       <use xlink:href="#DejaVuSans-30" transform="translate(127.246094 0)"/>
      </g>
     </g>
    </g>
    <g id="ytick_3">
     <g id="line2d_23">
      <path d="M 66.053125 131.727517 
L 836.838125 131.727517 
" clip-path="url(#pc934836506)" style="fill: none; stroke: #b0b0b0; stroke-opacity: 0.3; stroke-width: 0.8; stroke-linecap: square"/>
     </g>
     <g id="line2d_24">
      <g>
       <use xlink:href="#medbf49b9aa" x="66.053125" y="131.727517" style="stroke: #000000; stroke-width: 0.8"/>
      </g>
     </g>
     <g id="text_3">
      <!-- 750 -->
      <g transform="translate(39.965625 135.526735) scale(0.1 -0.1)">
       <use xlink:href="#DejaVuSans-37"/>
       <use xlink:href="#DejaVuSans-35" transform="translate(63.623047 0)"/>
       <use xlink:href="#DejaVuSans-30" transform="translate(127.246094 0)"/>
      </g>
     </g>
    </g>
    <g id="ytick_4">
     <g id="line2d_25">
      <path d="M 66.053125 98.239538 
L 836.838125 98.239538 
" clip-path="url(#pc934836506)" style="fill: none; stroke: #b0b0b0; stroke-opacity: 0.3; stroke-width: 0.8; stroke-linecap: square"/>
     </g>
     <g id="line2d_26">
      <g>
       <use xlink:href="#medbf49b9aa" x="66.053125" y="98.239538" style="stroke: #000000; stroke-width: 0.8"/>
      </g>
     </g>
     <g id="text_4">
      <!-- 800 -->
      <g transform="translate(39.965625 102.038756) scale(0.1 -0.1)">
       <defs>
        <path id="DejaVuSans-38" d="M 2034 2216 
Q 1584 2216 1326 1975 
Q 1069 1734 1069 1313 
Q 1069 891 1326 650 
Q 1584 409 2034 409 
Q 2484 409 2743 651 
Q 3003 894 3003 1313 
Q 3003 1734 2745 1975 
Q 2488 2216 2034 2216 
z
M 1403 2484 
Q 997 2584 770 2862 
Q 544 3141 544 3541 
Q 544 4100 942 4425 
Q 1341 4750 2034 4750 
Q 2731 4750 3128 4425 
Q 3525 4100 3525 3541 
Q 3525 3141 3298 2862 
Q 3072 2584 2669 2484 
Q 3125 2378 3379 2068 
Q 3634 1759 3634 1313 
Q 3634 634 3220 271 
Q 2806 -91 2034 -91 
Q 1263 -91 848 271 
Q 434 634 434 1313 
Q 434 1759 690 2068 
Q 947 2378 1403 2484 
z
M 1172 3481 
Q 1172 3119 1398 2916 
Q 1625 2713 2034 2713 
Q 2441 2713 2670 2916 
Q 2900 3119 2900 3481 
Q 2900 3844 2670 4047 
Q 2441 4250 2034 4250 
Q 1625 4250 1398 4047 
Q 1172 3844 1172 3481 
z
" transform="scale(0.015625)"/>
       </defs>
       <use xlink:href="#DejaVuSans-38"/>
       <use xlink:href="#DejaVuSans-30" transform="translate(63.623047 0)"/>
       <use xlink:href="#DejaVuSans-30" transform="translate(127.246094 0)"/>
      </g>
     </g>
    </g>
    <g id="ytick_5">
     <g id="line2d_27">
      <path d="M 66.053125 64.751559 
L 836.838125 64.751559 
" clip-path="url(#pc934836506)" style="fill: none; stroke: #b0b0b0; stroke-opacity: 0.3; stroke-width: 0.8; stroke-linecap: square"/>
     </g>
     <g id="line2d_28">
      <g>
       <use xlink:href="#medbf49b9aa" x="66.053125" y="64.751559" style="stroke: #000000; stroke-width: 0.8"/>
      </g>
     </g>
     <g id="text_5">
      <!-- 850 -->
      <g transform="translate(39.965625 68.550777) scale(0.1 -0.1)">
       <use xlink:href="#DejaVuSans-38"/>
       <use xlink:href="#DejaVuSans-35" transform="translate(63.623047 0)"/>
       <use xlink:href="#DejaVuSans-30" transform="translate(127.246094 0)"/>
      </g>
     </g>
    </g>
    <g id="ytick_6">
     <g id="line2d_29">
      <path d="M 66.053125 31.26358 
L 836.838125 31.26358 
" clip-path="url(#pc934836506)" style="fill: none; stroke: #b0b0b0; stroke-opacity: 0.3; stroke-width: 0.8; stroke-linecap: square"/>
     </g>
     <g id="line2d_30">
      <g>
       <use xlink:href="#medbf49b9aa" x="66.053125" y="31.26358" style="stroke: #000000; stroke-width: 0.8"/>
      </g>
     </g>
     <g id="text_6">
      <!-- 900 -->
      <g transform="translate(39.965625 35.062798) scale(0.1 -0.1)">
       <defs>
        <path id="DejaVuSans-39" d="M 703 97 
L 703 672 
Q 941 559 1184 500 
Q 1428 441 1663 441 
Q 2288 441 2617 861 
Q 2947 1281 2994 2138 
Q 2813 1869 2534 1725 
Q 2256 1581 1919 1581 
Q 1219 1581 811 2004 
Q 403 2428 403 3163 
Q 403 3881 828 4315 
Q 1253 4750 1959 4750 
Q 2769 4750 3195 4129 
Q 3622 3509 3622 2328 
Q 3622 1225 3098 567 
Q 2575 -91 1691 -91 
Q 1453 -91 1209 -44 
Q 966 3 703 97 
z
M 1959 2075 
Q 2384 2075 2632 2365 
Q 2881 2656 2881 3163 
Q 2881 3666 2632 3958 
Q 2384 4250 1959 4250 
Q 1534 4250 1286 3958 
Q 1038 3666 1038 3163 
Q 1038 2656 1286 2365 
Q 1534 2075 1959 2075 
z
" transform="scale(0.015625)"/>
       </defs>
       <use xlink:href="#DejaVuSans-39"/>
       <use xlink:href="#DejaVuSans-30" transform="translate(63.623047 0)"/>
       <use xlink:href="#DejaVuSans-30" transform="translate(127.246094 0)"/>
      </g>
     </g>
    </g>
    <g id="text_7">
     <!-- Temperature [K] -->
     <g transform="translate(33.885937 161.157187) rotate(-90) scale(0.1 -0.1)">
      <defs>
       <path id="DejaVuSans-54" d="M -19 4666 
L 3928 4666 
L 3928 4134 
L 2272 4134 
L 2272 0 
L 1638 0 
L 1638 4134 
L -19 4134 
L -19 4666 
z
" transform="scale(0.015625)"/>
       <path id="DejaVuSans-65" d="M 3597 1894 
L 3597 1613 
L 953 1613 
Q 991 1019 1311 708 
Q 1631 397 2203 397 
Q 2534 397 2845 478 
Q 3156 559 3463 722 
L 3463 178 
Q 3153 47 2828 -22 
Q 2503 -91 2169 -91 
Q 1331 -91 842 396 
Q 353 884 353 1716 
Q 353 2575 817 3079 
Q 1281 3584 2069 3584 
Q 2775 3584 3186 3129 
Q 3597 2675 3597 1894 
z
M 3022 2063 
Q 3016 2534 2758 2815 
Q 2500 3097 2075 3097 
Q 1594 3097 1305 2825 
Q 1016 2553 972 2059 
L 3022 2063 
z
" transform="scale(0.015625)"/>
       <path id="DejaVuSans-6d" d="M 3328 2828 
Q 3544 3216 3844 3400 
Q 4144 3584 4550 3584 
Q 5097 3584 5394 3201 
Q 5691 2819 5691 2113 
L 5691 0 
L 5113 0 
L 5113 2094 
Q 5113 2597 4934 2840 
Q 4756 3084 4391 3084 
Q 3944 3084 3684 2787 
Q 3425 2491 3425 1978 
L 3425 0 
L 2847 0 
L 2847 2094 
Q 2847 2600 2669 2842 
Q 2491 3084 2119 3084 
Q 1678 3084 1418 2786 
Q 1159 2488 1159 1978 
L 1159 0 
L 581 0 
L 581 3500 
L 1159 3500 
L 1159 2956 
Q 1356 3278 1631 3431 
Q 1906 3584 2284 3584 
Q 2666 3584 2933 3390 
Q 3200 3197 3328 2828 
z
" transform="scale(0.015625)"/>
       <path id="DejaVuSans-70" d="M 1159 525 
L 1159 -1331 
L 581 -1331 
L 581 3500 
L 1159 3500 
L 1159 2969 
Q 1341 3281 1617 3432 
Q 1894 3584 2278 3584 
Q 2916 3584 3314 3078 
Q 3713 2572 3713 1747 
Q 3713 922 3314 415 
Q 2916 -91 2278 -91 
Q 1894 -91 1617 61 
Q 1341 213 1159 525 
z
M 3116 1747 
Q 3116 2381 2855 2742 
Q 2594 3103 2138 3103 
Q 1681 3103 1420 2742 
Q 1159 2381 1159 1747 
Q 1159 1113 1420 752 
Q 1681 391 2138 391 
Q 2594 391 2855 752 
Q 3116 1113 3116 1747 
z
" transform="scale(0.015625)"/>
       <path id="DejaVuSans-72" d="M 2631 2963 
Q 2534 3019 2420 3045 
Q 2306 3072 2169 3072 
Q 1681 3072 1420 2755 
Q 1159 2438 1159 1844 
L 1159 0 
L 581 0 
L 581 3500 
L 1159 3500 
L 1159 2956 
Q 1341 3275 1631 3429 
Q 1922 3584 2338 3584 
Q 2397 3584 2469 3576 
Q 2541 3569 2628 3553 
L 2631 2963 
z
" transform="scale(0.015625)"/>
       <path id="DejaVuSans-61" d="M 2194 1759 
Q 1497 1759 1228 1600 
Q 959 1441 959 1056 
Q 959 750 1161 570 
Q 1363 391 1709 391 
Q 2188 391 2477 730 
Q 2766 1069 2766 1631 
L 2766 1759 
L 2194 1759 
z
M 3341 1997 
L 3341 0 
L 2766 0 
L 2766 531 
Q 2569 213 2275 61 
Q 1981 -91 1556 -91 
Q 1019 -91 701 211 
Q 384 513 384 1019 
Q 384 1609 779 1909 
Q 1175 2209 1959 2209 
L 2766 2209 
L 2766 2266 
Q 2766 2663 2505 2880 
Q 2244 3097 1772 3097 
Q 1472 3097 1187 3025 
Q 903 2953 641 2809 
L 641 3341 
Q 956 3463 1253 3523 
Q 1550 3584 1831 3584 
Q 2591 3584 2966 3190 
Q 3341 2797 3341 1997 
z
" transform="scale(0.015625)"/>
       <path id="DejaVuSans-74" d="M 1172 4494 
L 1172 3500 
L 2356 3500 
L 2356 3053 
L 1172 3053 
L 1172 1153 
Q 1172 725 1289 603 
Q 1406 481 1766 481 
L 2356 481 
L 2356 0 
L 1766 0 
Q 1100 0 847 248 
Q 594 497 594 1153 
L 594 3053 
L 172 3053 
L 172 3500 
L 594 3500 
L 594 4494 
L 1172 4494 
z
" transform="scale(0.015625)"/>
       <path id="DejaVuSans-75" d="M 544 1381 
L 544 3500 
L 1119 3500 
L 1119 1403 
Q 1119 906 1312 657 
Q 1506 409 1894 409 
Q 2359 409 2629 706 
Q 2900 1003 2900 1516 
L 2900 3500 
L 3475 3500 
L 3475 0 
L 2900 0 
L 2900 538 
Q 2691 219 2414 64 
Q 2138 -91 1772 -91 
Q 1169 -91 856 284 
Q 544 659 544 1381 
z
M 1991 3584 
L 1991 3584 
z
" transform="scale(0.015625)"/>
       <path id="DejaVuSans-20" transform="scale(0.015625)"/>
       <path id="DejaVuSans-5b" d="M 550 4863 
L 1875 4863 
L 1875 4416 
L 1125 4416 
L 1125 -397 
L 1875 -397 
L 1875 -844 
L 550 -844 
L 550 4863 
z
" transform="scale(0.015625)"/>
       <path id="DejaVuSans-4b" d="M 628 4666 
L 1259 4666 
L 1259 2694 
L 3353 4666 
L 4166 4666 
L 1850 2491 
L 4331 0 
L 3500 0 
L 1259 2247 
L 1259 0 
L 628 0 
L 628 4666 
z
" transform="scale(0.015625)"/>
       <path id="DejaVuSans-5d" d="M 1947 4863 
L 1947 -844 
L 622 -844 
L 622 -397 
L 1369 -397 
L 1369 4416 
L 622 4416 
L 622 4863 
L 1947 4863 
z
" transform="scale(0.015625)"/>
      </defs>
      <use xlink:href="#DejaVuSans-54"/>
      <use xlink:href="#DejaVuSans-65" transform="translate(44.083984 0)"/>
      <use xlink:href="#DejaVuSans-6d" transform="translate(105.607422 0)"/>
      <use xlink:href="#DejaVuSans-70" transform="translate(203.019531 0)"/>
      <use xlink:href="#DejaVuSans-65" transform="translate(266.496094 0)"/>
      <use xlink:href="#DejaVuSans-72" transform="translate(328.019531 0)"/>
      <use xlink:href="#DejaVuSans-61" transform="translate(369.132812 0)"/>
      <use xlink:href="#DejaVuSans-74" transform="translate(430.412109 0)"/>
      <use xlink:href="#DejaVuSans-75" transform="translate(469.621094 0)"/>
      <use xlink:href="#DejaVuSans-72" transform="translate(533 0)"/>
      <use xlink:href="#DejaVuSans-65" transform="translate(571.863281 0)"/>
      <use xlink:href="#DejaVuSans-20" transform="translate(633.386719 0)"/>
      <use xlink:href="#DejaVuSans-5b" transform="translate(665.173828 0)"/>
      <use xlink:href="#DejaVuSans-4b" transform="translate(704.1875 0)"/>
      <use xlink:href="#DejaVuSans-5d" transform="translate(769.763672 0)"/>
     </g>
    </g>
   </g>
   <g id="line2d_31">
    <path d="M 66.053125 31.26358 
L 97.558962 31.371566 
L 100.064013 31.616404 
L 101.894628 32.016492 
L 103.436198 32.576599 
L 104.881419 33.336783 
L 106.326641 34.360544 
L 107.771863 35.667432 
L 109.313433 37.376885 
L 110.951351 39.532825 
L 112.878314 42.46121 
L 115.190669 46.416236 
L 118.370157 52.348499 
L 127.426881 69.502517 
L 130.702717 75.112389 
L 133.689509 79.791754 
L 136.483604 83.760395 
L 139.181352 87.204791 
L 141.782751 90.164103 
L 144.287802 92.683539 
L 146.792854 94.889538 
L 149.297905 96.797399 
L 151.802956 98.426751 
L 154.404356 99.847795 
L 157.102103 101.059102 
L 159.896199 102.066303 
L 162.882991 102.905444 
L 166.158827 103.59351 
L 169.916404 104.14887 
L 174.348418 104.570229 
L 179.936609 104.866948 
L 187.933503 105.048367 
L 202.867463 105.123675 
L 288.617294 105.350505 
L 291.604086 105.679527 
L 294.109137 106.177831 
L 296.325144 106.845364 
L 298.444803 107.72076 
L 300.468113 108.794275 
L 302.587772 110.178674 
L 304.803779 111.907808 
L 307.116134 114.003486 
L 309.621185 116.577298 
L 312.511629 119.881562 
L 315.883813 124.093432 
L 320.123131 129.762568 
L 327.156544 139.600059 
L 336.213268 152.181695 
L 341.801459 159.562948 
L 346.715213 165.698003 
L 351.339923 171.121367 
L 355.675589 175.870892 
L 360.107603 180.388682 
L 364.250572 184.281992 
L 368.104497 187.610305 
L 371.958422 190.642662 
L 375.619651 193.257455 
L 379.184531 195.53431 
L 382.653064 197.490377 
L 386.025248 199.130371 
L 389.301084 200.474418 
L 392.480573 201.538705 
L 395.660061 202.375072 
L 398.935897 203.007927 
L 402.404429 203.451526 
L 406.258354 203.710371 
L 410.690368 203.77888 
L 417.338389 203.628865 
L 426.395113 203.446942 
L 431.790608 203.582356 
L 436.511666 203.954424 
L 440.365591 204.500578 
L 443.545079 205.140404 
L 447.302656 206.145078 
L 450.771188 207.329783 
L 457.997298 209.836493 
L 459.731564 210.131174 
L 461.176786 210.148489 
L 462.429311 209.936043 
L 463.489141 209.543702 
L 464.54897 208.910352 
L 465.512451 208.085337 
L 466.475933 206.979994 
L 467.439414 205.548153 
L 468.499243 203.539309 
L 469.559073 201.016264 
L 470.618902 197.920712 
L 471.775079 193.840595 
L 473.027605 188.573409 
L 474.472827 181.463673 
L 476.303441 171.213087 
L 481.698936 140.133852 
L 483.336854 132.43295 
L 484.782076 126.689636 
L 486.13095 122.216746 
L 487.383476 118.777376 
L 488.636001 115.952271 
L 489.888527 113.657595 
L 491.141053 111.81591 
L 492.393578 110.351525 
L 493.742452 109.115907 
L 495.187674 108.10371 
L 496.729244 107.298428 
L 498.46351 106.645063 
L 500.486821 106.12364 
L 502.991872 105.716438 
L 506.267708 105.42296 
L 511.085114 105.235155 
L 520.04549 105.147444 
L 560.897095 105.132237 
L 577.661669 105.241289 
L 581.226549 105.501497 
L 583.924297 105.91767 
L 586.236652 106.496608 
L 588.356311 107.252321 
L 590.379621 108.202115 
L 592.402932 109.390393 
L 594.522591 110.895647 
L 596.738598 112.746202 
L 599.147301 115.056211 
L 601.845048 117.969113 
L 604.928188 121.645801 
L 608.589417 126.372661 
L 613.599519 133.232491 
L 629.978701 155.920523 
L 635.181499 162.615735 
L 639.902558 168.341235 
L 644.334571 173.379258 
L 648.670237 177.977352 
L 652.716858 181.96326 
L 656.859828 185.733279 
L 660.617404 188.856431 
L 664.567678 191.846792 
L 668.132558 194.273769 
L 671.697439 196.436989 
L 675.069623 198.224467 
L 678.345459 199.714337 
L 681.524948 200.921399 
L 684.704436 201.895202 
L 687.883924 202.643291 
L 691.256108 203.206705 
L 694.820989 203.574316 
L 698.86761 203.760182 
L 703.781364 203.752247 
L 721.605768 203.526157 
L 726.134129 203.820058 
L 729.69901 204.246161 
L 733.552935 204.920286 
L 737.214164 205.833716 
L 740.200956 206.782118 
L 745.596451 208.777591 
L 748.390546 209.690044 
L 750.221161 210.075934 
L 751.666383 210.171869 
L 752.918908 210.048665 
L 754.075086 209.712502 
L 755.134915 209.170267 
L 756.194744 208.359136 
L 757.158226 207.342656 
L 758.121707 206.014186 
L 759.085188 204.326312 
L 760.145018 201.996756 
L 761.204847 199.114526 
L 762.361024 195.283191 
L 763.61355 190.286489 
L 764.962424 183.947799 
L 766.600342 175.118543 
L 769.394438 158.532552 
L 771.899489 144.154415 
L 773.633755 135.452654 
L 775.078977 129.246549 
L 776.427851 124.350487 
L 777.776724 120.284158 
L 779.02925 117.183473 
L 780.281776 114.65447 
L 781.534301 112.621226 
L 782.883175 110.883584 
L 784.232049 109.527798 
L 785.580923 108.478765 
L 787.122493 107.573925 
L 788.760411 106.872394 
L 790.687373 106.296481 
L 792.999728 105.847641 
L 795.98652 105.510868 
L 800.129489 105.287904 
L 807.162903 105.167316 
L 826.914268 105.133332 
L 836.838125 105.132607 
L 836.838125 105.132607 
" clip-path="url(#pc934836506)" style="fill: none; stroke: #d94841; stroke-width: 2; stroke-linecap: square"/>
   </g>
   <g id="patch_3">
    <path d="M 66.053125 219.118125 
L 66.053125 22.318125 
" style="fill: none; stroke: #000000; stroke-width: 0.8; stroke-linejoin: miter; stroke-linecap: square"/>
   </g>
   <g id="patch_4">
    <path d="M 836.838125 219.118125 
L 836.838125 22.318125 
" style="fill: none; stroke: #000000; stroke-width: 0.8; stroke-linejoin: miter; stroke-linecap: square"/>
   </g>
   <g id="patch_5">
    <path d="M 66.053125 219.118125 
L 836.838125 219.118125 
" style="fill: none; stroke: #000000; stroke-width: 0.8; stroke-linejoin: miter; stroke-linecap: square"/>
   </g>
   <g id="patch_6">
    <path d="M 66.053125 22.318125 
L 836.838125 22.318125 
" style="fill: none; stroke: #000000; stroke-width: 0.8; stroke-linejoin: miter; stroke-linecap: square"/>
   </g>
   <g id="text_8">
    <!-- Outlet Temperature -->
    <g transform="translate(392.946563 16.318125) scale(0.12 -0.12)">
     <defs>
      <path id="DejaVuSans-4f" d="M 2522 4238 
Q 1834 4238 1429 3725 
Q 1025 3213 1025 2328 
Q 1025 1447 1429 934 
Q 1834 422 2522 422 
Q 3209 422 3611 934 
Q 4013 1447 4013 2328 
Q 4013 3213 3611 3725 
Q 3209 4238 2522 4238 
z
M 2522 4750 
Q 3503 4750 4090 4092 
Q 4678 3434 4678 2328 
Q 4678 1225 4090 567 
Q 3503 -91 2522 -91 
Q 1538 -91 948 565 
Q 359 1222 359 2328 
Q 359 3434 948 4092 
Q 1538 4750 2522 4750 
z
" transform="scale(0.015625)"/>
      <path id="DejaVuSans-6c" d="M 603 4863 
L 1178 4863 
L 1178 0 
L 603 0 
L 603 4863 
z
" transform="scale(0.015625)"/>
     </defs>
     <use xlink:href="#DejaVuSans-4f"/>
     <use xlink:href="#DejaVuSans-75" transform="translate(78.710938 0)"/>
     <use xlink:href="#DejaVuSans-74" transform="translate(142.089844 0)"/>
     <use xlink:href="#DejaVuSans-6c" transform="translate(181.298828 0)"/>
     <use xlink:href="#DejaVuSans-65" transform="translate(209.082031 0)"/>
     <use xlink:href="#DejaVuSans-74" transform="translate(270.605469 0)"/>
     <use xlink:href="#DejaVuSans-20" transform="translate(309.814453 0)"/>
     <use xlink:href="#DejaVuSans-54" transform="translate(341.601562 0)"/>
     <use xlink:href="#DejaVuSans-65" transform="translate(385.685547 0)"/>
     <use xlink:href="#DejaVuSans-6d" transform="translate(447.208984 0)"/>
     <use xlink:href="#DejaVuSans-70" transform="translate(544.621094 0)"/>
     <use xlink:href="#DejaVuSans-65" transform="translate(608.097656 0)"/>
     <use xlink:href="#DejaVuSans-72" transform="translate(669.621094 0)"/>
     <use xlink:href="#DejaVuSans-61" transform="translate(710.734375 0)"/>
     <use xlink:href="#DejaVuSans-74" transform="translate(772.013672 0)"/>
     <use xlink:href="#DejaVuSans-75" transform="translate(811.222656 0)"/>
     <use xlink:href="#DejaVuSans-72" transform="translate(874.601562 0)"/>
     <use xlink:href="#DejaVuSans-65" transform="translate(913.464844 0)"/>
    </g>
   </g>
  </g>
  <g id="axes_2">
   <g id="patch_7">
    <path d="M 66.053125 446.298125 
L 836.838125 446.298125 
L 836.838125 249.498125 
L 66.053125 249.498125 
z
" style="fill: #ffffff"/>
   </g>
   <g id="matplotlib.axis_3">
    <g id="xtick_10">
     <g id="line2d_32">
      <path d="M 66.053125 446.298125 
L 66.053125 249.498125 
" clip-path="url(#pe6f611f747)" style="fill: none; stroke: #b0b0b0; stroke-opacity: 0.3; stroke-width: 0.8; stroke-linecap: square"/>
     </g>
     <g id="line2d_33">
      <g>
       <use xlink:href="#mfd4cb3a6ac" x="66.053125" y="446.298125" style="stroke: #000000; stroke-width: 0.8"/>
      </g>
     </g>
    </g>
    <g id="xtick_11">
     <g id="line2d_34">
      <path d="M 162.40125 446.298125 
L 162.40125 249.498125 
" clip-path="url(#pe6f611f747)" style="fill: none; stroke: #b0b0b0; stroke-opacity: 0.3; stroke-width: 0.8; stroke-linecap: square"/>
     </g>
     <g id="line2d_35">
      <g>
       <use xlink:href="#mfd4cb3a6ac" x="162.40125" y="446.298125" style="stroke: #000000; stroke-width: 0.8"/>
      </g>
     </g>
    </g>
    <g id="xtick_12">
     <g id="line2d_36">
      <path d="M 258.749375 446.298125 
L 258.749375 249.498125 
" clip-path="url(#pe6f611f747)" style="fill: none; stroke: #b0b0b0; stroke-opacity: 0.3; stroke-width: 0.8; stroke-linecap: square"/>
     </g>
     <g id="line2d_37">
      <g>
       <use xlink:href="#mfd4cb3a6ac" x="258.749375" y="446.298125" style="stroke: #000000; stroke-width: 0.8"/>
      </g>
     </g>
    </g>
    <g id="xtick_13">
     <g id="line2d_38">
      <path d="M 355.0975 446.298125 
L 355.0975 249.498125 
" clip-path="url(#pe6f611f747)" style="fill: none; stroke: #b0b0b0; stroke-opacity: 0.3; stroke-width: 0.8; stroke-linecap: square"/>
     </g>
     <g id="line2d_39">
      <g>
       <use xlink:href="#mfd4cb3a6ac" x="355.0975" y="446.298125" style="stroke: #000000; stroke-width: 0.8"/>
      </g>
     </g>
    </g>
    <g id="xtick_14">
     <g id="line2d_40">
      <path d="M 451.445625 446.298125 
L 451.445625 249.498125 
" clip-path="url(#pe6f611f747)" style="fill: none; stroke: #b0b0b0; stroke-opacity: 0.3; stroke-width: 0.8; stroke-linecap: square"/>
     </g>
     <g id="line2d_41">
      <g>
       <use xlink:href="#mfd4cb3a6ac" x="451.445625" y="446.298125" style="stroke: #000000; stroke-width: 0.8"/>
      </g>
     </g>
    </g>
    <g id="xtick_15">
     <g id="line2d_42">
      <path d="M 547.79375 446.298125 
L 547.79375 249.498125 
" clip-path="url(#pe6f611f747)" style="fill: none; stroke: #b0b0b0; stroke-opacity: 0.3; stroke-width: 0.8; stroke-linecap: square"/>
     </g>
     <g id="line2d_43">
      <g>
       <use xlink:href="#mfd4cb3a6ac" x="547.79375" y="446.298125" style="stroke: #000000; stroke-width: 0.8"/>
      </g>
     </g>
    </g>
    <g id="xtick_16">
     <g id="line2d_44">
      <path d="M 644.141875 446.298125 
L 644.141875 249.498125 
" clip-path="url(#pe6f611f747)" style="fill: none; stroke: #b0b0b0; stroke-opacity: 0.3; stroke-width: 0.8; stroke-linecap: square"/>
     </g>
     <g id="line2d_45">
      <g>
       <use xlink:href="#mfd4cb3a6ac" x="644.141875" y="446.298125" style="stroke: #000000; stroke-width: 0.8"/>
      </g>
     </g>
    </g>
    <g id="xtick_17">
     <g id="line2d_46">
      <path d="M 740.49 446.298125 
L 740.49 249.498125 
" clip-path="url(#pe6f611f747)" style="fill: none; stroke: #b0b0b0; stroke-opacity: 0.3; stroke-width: 0.8; stroke-linecap: square"/>
     </g>
     <g id="line2d_47">
      <g>
       <use xlink:href="#mfd4cb3a6ac" x="740.49" y="446.298125" style="stroke: #000000; stroke-width: 0.8"/>
      </g>
     </g>
    </g>
    <g id="xtick_18">
     <g id="line2d_48">
      <path d="M 836.838125 446.298125 
L 836.838125 249.498125 
" clip-path="url(#pe6f611f747)" style="fill: none; stroke: #b0b0b0; stroke-opacity: 0.3; stroke-width: 0.8; stroke-linecap: square"/>
     </g>
     <g id="line2d_49">
      <g>
       <use xlink:href="#mfd4cb3a6ac" x="836.838125" y="446.298125" style="stroke: #000000; stroke-width: 0.8"/>
      </g>
     </g>
    </g>
   </g>
   <g id="matplotlib.axis_4">
    <g id="ytick_7">
     <g id="line2d_50">
      <path d="M 66.053125 419.461761 
L 836.838125 419.461761 
" clip-path="url(#pe6f611f747)" style="fill: none; stroke: #b0b0b0; stroke-opacity: 0.3; stroke-width: 0.8; stroke-linecap: square"/>
     </g>
     <g id="line2d_51">
      <g>
       <use xlink:href="#medbf49b9aa" x="66.053125" y="419.461761" style="stroke: #000000; stroke-width: 0.8"/>
      </g>
     </g>
     <g id="text_9">
      <!-- 480000 -->
      <g transform="translate(20.878125 423.26098) scale(0.1 -0.1)">
       <defs>
        <path id="DejaVuSans-34" d="M 2419 4116 
L 825 1625 
L 2419 1625 
L 2419 4116 
z
M 2253 4666 
L 3047 4666 
L 3047 1625 
L 3713 1625 
L 3713 1100 
L 3047 1100 
L 3047 0 
L 2419 0 
L 2419 1100 
L 313 1100 
L 313 1709 
L 2253 4666 
z
" transform="scale(0.015625)"/>
       </defs>
       <use xlink:href="#DejaVuSans-34"/>
       <use xlink:href="#DejaVuSans-38" transform="translate(63.623047 0)"/>
       <use xlink:href="#DejaVuSans-30" transform="translate(127.246094 0)"/>
       <use xlink:href="#DejaVuSans-30" transform="translate(190.869141 0)"/>
       <use xlink:href="#DejaVuSans-30" transform="translate(254.492188 0)"/>
       <use xlink:href="#DejaVuSans-30" transform="translate(318.115234 0)"/>
      </g>
     </g>
    </g>
    <g id="ytick_8">
     <g id="line2d_52">
      <path d="M 66.053125 383.679943 
L 836.838125 383.679943 
" clip-path="url(#pe6f611f747)" style="fill: none; stroke: #b0b0b0; stroke-opacity: 0.3; stroke-width: 0.8; stroke-linecap: square"/>
     </g>
     <g id="line2d_53">
      <g>
       <use xlink:href="#medbf49b9aa" x="66.053125" y="383.679943" style="stroke: #000000; stroke-width: 0.8"/>
      </g>
     </g>
     <g id="text_10">
      <!-- 490000 -->
      <g transform="translate(20.878125 387.479162) scale(0.1 -0.1)">
       <use xlink:href="#DejaVuSans-34"/>
       <use xlink:href="#DejaVuSans-39" transform="translate(63.623047 0)"/>
       <use xlink:href="#DejaVuSans-30" transform="translate(127.246094 0)"/>
       <use xlink:href="#DejaVuSans-30" transform="translate(190.869141 0)"/>
       <use xlink:href="#DejaVuSans-30" transform="translate(254.492188 0)"/>
       <use xlink:href="#DejaVuSans-30" transform="translate(318.115234 0)"/>
      </g>
     </g>
    </g>
    <g id="ytick_9">
     <g id="line2d_54">
      <path d="M 66.053125 347.898125 
L 836.838125 347.898125 
" clip-path="url(#pe6f611f747)" style="fill: none; stroke: #b0b0b0; stroke-opacity: 0.3; stroke-width: 0.8; stroke-linecap: square"/>
     </g>
     <g id="line2d_55">
      <g>
       <use xlink:href="#medbf49b9aa" x="66.053125" y="347.898125" style="stroke: #000000; stroke-width: 0.8"/>
      </g>
     </g>
     <g id="text_11">
      <!-- 500000 -->
      <g transform="translate(20.878125 351.697344) scale(0.1 -0.1)">
       <use xlink:href="#DejaVuSans-35"/>
       <use xlink:href="#DejaVuSans-30" transform="translate(63.623047 0)"/>
       <use xlink:href="#DejaVuSans-30" transform="translate(127.246094 0)"/>
       <use xlink:href="#DejaVuSans-30" transform="translate(190.869141 0)"/>
       <use xlink:href="#DejaVuSans-30" transform="translate(254.492188 0)"/>
       <use xlink:href="#DejaVuSans-30" transform="translate(318.115234 0)"/>
      </g>
     </g>
    </g>
    <g id="ytick_10">
     <g id="line2d_56">
      <path d="M 66.053125 312.116307 
L 836.838125 312.116307 
" clip-path="url(#pe6f611f747)" style="fill: none; stroke: #b0b0b0; stroke-opacity: 0.3; stroke-width: 0.8; stroke-linecap: square"/>
     </g>
     <g id="line2d_57">
      <g>
       <use xlink:href="#medbf49b9aa" x="66.053125" y="312.116307" style="stroke: #000000; stroke-width: 0.8"/>
      </g>
     </g>
     <g id="text_12">
      <!-- 510000 -->
      <g transform="translate(20.878125 315.915526) scale(0.1 -0.1)">
       <defs>
        <path id="DejaVuSans-31" d="M 794 531 
L 1825 531 
L 1825 4091 
L 703 3866 
L 703 4441 
L 1819 4666 
L 2450 4666 
L 2450 531 
L 3481 531 
L 3481 0 
L 794 0 
L 794 531 
z
" transform="scale(0.015625)"/>
       </defs>
       <use xlink:href="#DejaVuSans-35"/>
       <use xlink:href="#DejaVuSans-31" transform="translate(63.623047 0)"/>
       <use xlink:href="#DejaVuSans-30" transform="translate(127.246094 0)"/>
       <use xlink:href="#DejaVuSans-30" transform="translate(190.869141 0)"/>
       <use xlink:href="#DejaVuSans-30" transform="translate(254.492188 0)"/>
       <use xlink:href="#DejaVuSans-30" transform="translate(318.115234 0)"/>
      </g>
     </g>
    </g>
    <g id="ytick_11">
     <g id="line2d_58">
      <path d="M 66.053125 276.334489 
L 836.838125 276.334489 
" clip-path="url(#pe6f611f747)" style="fill: none; stroke: #b0b0b0; stroke-opacity: 0.3; stroke-width: 0.8; stroke-linecap: square"/>
     </g>
     <g id="line2d_59">
      <g>
       <use xlink:href="#medbf49b9aa" x="66.053125" y="276.334489" style="stroke: #000000; stroke-width: 0.8"/>
      </g>
     </g>
     <g id="text_13">
      <!-- 520000 -->
      <g transform="translate(20.878125 280.133707) scale(0.1 -0.1)">
       <defs>
        <path id="DejaVuSans-32" d="M 1228 531 
L 3431 531 
L 3431 0 
L 469 0 
L 469 531 
Q 828 903 1448 1529 
Q 2069 2156 2228 2338 
Q 2531 2678 2651 2914 
Q 2772 3150 2772 3378 
Q 2772 3750 2511 3984 
Q 2250 4219 1831 4219 
Q 1534 4219 1204 4116 
Q 875 4013 500 3803 
L 500 4441 
Q 881 4594 1212 4672 
Q 1544 4750 1819 4750 
Q 2544 4750 2975 4387 
Q 3406 4025 3406 3419 
Q 3406 3131 3298 2873 
Q 3191 2616 2906 2266 
Q 2828 2175 2409 1742 
Q 1991 1309 1228 531 
z
" transform="scale(0.015625)"/>
       </defs>
       <use xlink:href="#DejaVuSans-35"/>
       <use xlink:href="#DejaVuSans-32" transform="translate(63.623047 0)"/>
       <use xlink:href="#DejaVuSans-30" transform="translate(127.246094 0)"/>
       <use xlink:href="#DejaVuSans-30" transform="translate(190.869141 0)"/>
       <use xlink:href="#DejaVuSans-30" transform="translate(254.492188 0)"/>
       <use xlink:href="#DejaVuSans-30" transform="translate(318.115234 0)"/>
      </g>
     </g>
    </g>
    <g id="text_14">
     <!-- Pressure [Pa] -->
     <g transform="translate(14.798438 380.587187) rotate(-90) scale(0.1 -0.1)">
      <defs>
       <path id="DejaVuSans-50" d="M 1259 4147 
L 1259 2394 
L 2053 2394 
Q 2494 2394 2734 2622 
Q 2975 2850 2975 3272 
Q 2975 3691 2734 3919 
Q 2494 4147 2053 4147 
L 1259 4147 
z
M 628 4666 
L 2053 4666 
Q 2838 4666 3239 4311 
Q 3641 3956 3641 3272 
Q 3641 2581 3239 2228 
Q 2838 1875 2053 1875 
L 1259 1875 
L 1259 0 
L 628 0 
L 628 4666 
z
" transform="scale(0.015625)"/>
       <path id="DejaVuSans-73" d="M 2834 3397 
L 2834 2853 
Q 2591 2978 2328 3040 
Q 2066 3103 1784 3103 
Q 1356 3103 1142 2972 
Q 928 2841 928 2578 
Q 928 2378 1081 2264 
Q 1234 2150 1697 2047 
L 1894 2003 
Q 2506 1872 2764 1633 
Q 3022 1394 3022 966 
Q 3022 478 2636 193 
Q 2250 -91 1575 -91 
Q 1294 -91 989 -36 
Q 684 19 347 128 
L 347 722 
Q 666 556 975 473 
Q 1284 391 1588 391 
Q 1994 391 2212 530 
Q 2431 669 2431 922 
Q 2431 1156 2273 1281 
Q 2116 1406 1581 1522 
L 1381 1569 
Q 847 1681 609 1914 
Q 372 2147 372 2553 
Q 372 3047 722 3315 
Q 1072 3584 1716 3584 
Q 2034 3584 2315 3537 
Q 2597 3491 2834 3397 
z
" transform="scale(0.015625)"/>
      </defs>
      <use xlink:href="#DejaVuSans-50"/>
      <use xlink:href="#DejaVuSans-72" transform="translate(58.552734 0)"/>
      <use xlink:href="#DejaVuSans-65" transform="translate(97.416016 0)"/>
      <use xlink:href="#DejaVuSans-73" transform="translate(158.939453 0)"/>
      <use xlink:href="#DejaVuSans-73" transform="translate(211.039062 0)"/>
      <use xlink:href="#DejaVuSans-75" transform="translate(263.138672 0)"/>
      <use xlink:href="#DejaVuSans-72" transform="translate(326.517578 0)"/>
      <use xlink:href="#DejaVuSans-65" transform="translate(365.380859 0)"/>
      <use xlink:href="#DejaVuSans-20" transform="translate(426.904297 0)"/>
      <use xlink:href="#DejaVuSans-5b" transform="translate(458.691406 0)"/>
      <use xlink:href="#DejaVuSans-50" transform="translate(497.705078 0)"/>
      <use xlink:href="#DejaVuSans-61" transform="translate(553.507812 0)"/>
      <use xlink:href="#DejaVuSans-5d" transform="translate(614.787109 0)"/>
     </g>
    </g>
   </g>
   <g id="line2d_60">
    <path d="M 66.053125 347.898125 
L 836.838125 347.898125 
L 836.838125 347.898125 
" clip-path="url(#pe6f611f747)" style="fill: none; stroke: #1d3557; stroke-width: 2; stroke-linecap: square"/>
   </g>
   <g id="patch_8">
    <path d="M 66.053125 446.298125 
L 66.053125 249.498125 
" style="fill: none; stroke: #000000; stroke-width: 0.8; stroke-linejoin: miter; stroke-linecap: square"/>
   </g>
   <g id="patch_9">
    <path d="M 836.838125 446.298125 
L 836.838125 249.498125 
" style="fill: none; stroke: #000000; stroke-width: 0.8; stroke-linejoin: miter; stroke-linecap: square"/>
   </g>
   <g id="patch_10">
    <path d="M 66.053125 446.298125 
L 836.838125 446.298125 
" style="fill: none; stroke: #000000; stroke-width: 0.8; stroke-linejoin: miter; stroke-linecap: square"/>
   </g>
   <g id="patch_11">
    <path d="M 66.053125 249.498125 
L 836.838125 249.498125 
" style="fill: none; stroke: #000000; stroke-width: 0.8; stroke-linejoin: miter; stroke-linecap: square"/>
   </g>
   <g id="text_15">
    <!-- Outlet Pressure -->
    <g transform="translate(405.336563 243.498125) scale(0.12 -0.12)">
     <use xlink:href="#DejaVuSans-4f"/>
     <use xlink:href="#DejaVuSans-75" transform="translate(78.710938 0)"/>
     <use xlink:href="#DejaVuSans-74" transform="translate(142.089844 0)"/>
     <use xlink:href="#DejaVuSans-6c" transform="translate(181.298828 0)"/>
     <use xlink:href="#DejaVuSans-65" transform="translate(209.082031 0)"/>
     <use xlink:href="#DejaVuSans-74" transform="translate(270.605469 0)"/>
     <use xlink:href="#DejaVuSans-20" transform="translate(309.814453 0)"/>
     <use xlink:href="#DejaVuSans-50" transform="translate(341.601562 0)"/>
     <use xlink:href="#DejaVuSans-72" transform="translate(400.154297 0)"/>
     <use xlink:href="#DejaVuSans-65" transform="translate(439.017578 0)"/>
     <use xlink:href="#DejaVuSans-73" transform="translate(500.541016 0)"/>
     <use xlink:href="#DejaVuSans-73" transform="translate(552.640625 0)"/>
     <use xlink:href="#DejaVuSans-75" transform="translate(604.740234 0)"/>
     <use xlink:href="#DejaVuSans-72" transform="translate(668.119141 0)"/>
     <use xlink:href="#DejaVuSans-65" transform="translate(706.982422 0)"/>
    </g>
   </g>
  </g>
  <g id="axes_3">
   <g id="patch_12">
    <path d="M 66.053125 673.478125 
L 836.838125 673.478125 
L 836.838125 476.678125 
L 66.053125 476.678125 
z
" style="fill: #ffffff"/>
   </g>
   <g id="matplotlib.axis_5">
    <g id="xtick_19">
     <g id="line2d_61">
      <path d="M 66.053125 673.478125 
L 66.053125 476.678125 
" clip-path="url(#p2791dec50d)" style="fill: none; stroke: #b0b0b0; stroke-opacity: 0.3; stroke-width: 0.8; stroke-linecap: square"/>
     </g>
     <g id="line2d_62">
      <g>
       <use xlink:href="#mfd4cb3a6ac" x="66.053125" y="673.478125" style="stroke: #000000; stroke-width: 0.8"/>
      </g>
     </g>
     <g id="text_16">
      <!-- 0 -->
      <g transform="translate(62.871875 688.076562) scale(0.1 -0.1)">
       <use xlink:href="#DejaVuSans-30"/>
      </g>
     </g>
    </g>
    <g id="xtick_20">
     <g id="line2d_63">
      <path d="M 162.40125 673.478125 
L 162.40125 476.678125 
" clip-path="url(#p2791dec50d)" style="fill: none; stroke: #b0b0b0; stroke-opacity: 0.3; stroke-width: 0.8; stroke-linecap: square"/>
     </g>
     <g id="line2d_64">
      <g>
       <use xlink:href="#mfd4cb3a6ac" x="162.40125" y="673.478125" style="stroke: #000000; stroke-width: 0.8"/>
      </g>
     </g>
     <g id="text_17">
      <!-- 1000 -->
      <g transform="translate(149.67625 688.076562) scale(0.1 -0.1)">
       <use xlink:href="#DejaVuSans-31"/>
       <use xlink:href="#DejaVuSans-30" transform="translate(63.623047 0)"/>
       <use xlink:href="#DejaVuSans-30" transform="translate(127.246094 0)"/>
       <use xlink:href="#DejaVuSans-30" transform="translate(190.869141 0)"/>
      </g>
     </g>
    </g>
    <g id="xtick_21">
     <g id="line2d_65">
      <path d="M 258.749375 673.478125 
L 258.749375 476.678125 
" clip-path="url(#p2791dec50d)" style="fill: none; stroke: #b0b0b0; stroke-opacity: 0.3; stroke-width: 0.8; stroke-linecap: square"/>
     </g>
     <g id="line2d_66">
      <g>
       <use xlink:href="#mfd4cb3a6ac" x="258.749375" y="673.478125" style="stroke: #000000; stroke-width: 0.8"/>
      </g>
     </g>
     <g id="text_18">
      <!-- 2000 -->
      <g transform="translate(246.024375 688.076562) scale(0.1 -0.1)">
       <use xlink:href="#DejaVuSans-32"/>
       <use xlink:href="#DejaVuSans-30" transform="translate(63.623047 0)"/>
       <use xlink:href="#DejaVuSans-30" transform="translate(127.246094 0)"/>
       <use xlink:href="#DejaVuSans-30" transform="translate(190.869141 0)"/>
      </g>
     </g>
    </g>
    <g id="xtick_22">
     <g id="line2d_67">
      <path d="M 355.0975 673.478125 
L 355.0975 476.678125 
" clip-path="url(#p2791dec50d)" style="fill: none; stroke: #b0b0b0; stroke-opacity: 0.3; stroke-width: 0.8; stroke-linecap: square"/>
     </g>
     <g id="line2d_68">
      <g>
       <use xlink:href="#mfd4cb3a6ac" x="355.0975" y="673.478125" style="stroke: #000000; stroke-width: 0.8"/>
      </g>
     </g>
     <g id="text_19">
      <!-- 3000 -->
      <g transform="translate(342.3725 688.076562) scale(0.1 -0.1)">
       <defs>
        <path id="DejaVuSans-33" d="M 2597 2516 
Q 3050 2419 3304 2112 
Q 3559 1806 3559 1356 
Q 3559 666 3084 287 
Q 2609 -91 1734 -91 
Q 1441 -91 1130 -33 
Q 819 25 488 141 
L 488 750 
Q 750 597 1062 519 
Q 1375 441 1716 441 
Q 2309 441 2620 675 
Q 2931 909 2931 1356 
Q 2931 1769 2642 2001 
Q 2353 2234 1838 2234 
L 1294 2234 
L 1294 2753 
L 1863 2753 
Q 2328 2753 2575 2939 
Q 2822 3125 2822 3475 
Q 2822 3834 2567 4026 
Q 2313 4219 1838 4219 
Q 1578 4219 1281 4162 
Q 984 4106 628 3988 
L 628 4550 
Q 988 4650 1302 4700 
Q 1616 4750 1894 4750 
Q 2613 4750 3031 4423 
Q 3450 4097 3450 3541 
Q 3450 3153 3228 2886 
Q 3006 2619 2597 2516 
z
" transform="scale(0.015625)"/>
       </defs>
       <use xlink:href="#DejaVuSans-33"/>
       <use xlink:href="#DejaVuSans-30" transform="translate(63.623047 0)"/>
       <use xlink:href="#DejaVuSans-30" transform="translate(127.246094 0)"/>
       <use xlink:href="#DejaVuSans-30" transform="translate(190.869141 0)"/>
      </g>
     </g>
    </g>
    <g id="xtick_23">
     <g id="line2d_69">
      <path d="M 451.445625 673.478125 
L 451.445625 476.678125 
" clip-path="url(#p2791dec50d)" style="fill: none; stroke: #b0b0b0; stroke-opacity: 0.3; stroke-width: 0.8; stroke-linecap: square"/>
     </g>
     <g id="line2d_70">
      <g>
       <use xlink:href="#mfd4cb3a6ac" x="451.445625" y="673.478125" style="stroke: #000000; stroke-width: 0.8"/>
      </g>
     </g>
     <g id="text_20">
      <!-- 4000 -->
      <g transform="translate(438.720625 688.076562) scale(0.1 -0.1)">
       <use xlink:href="#DejaVuSans-34"/>
       <use xlink:href="#DejaVuSans-30" transform="translate(63.623047 0)"/>
       <use xlink:href="#DejaVuSans-30" transform="translate(127.246094 0)"/>
       <use xlink:href="#DejaVuSans-30" transform="translate(190.869141 0)"/>
      </g>
     </g>
    </g>
    <g id="xtick_24">
     <g id="line2d_71">
      <path d="M 547.79375 673.478125 
L 547.79375 476.678125 
" clip-path="url(#p2791dec50d)" style="fill: none; stroke: #b0b0b0; stroke-opacity: 0.3; stroke-width: 0.8; stroke-linecap: square"/>
     </g>
     <g id="line2d_72">
      <g>
       <use xlink:href="#mfd4cb3a6ac" x="547.79375" y="673.478125" style="stroke: #000000; stroke-width: 0.8"/>
      </g>
     </g>
     <g id="text_21">
      <!-- 5000 -->
      <g transform="translate(535.06875 688.076562) scale(0.1 -0.1)">
       <use xlink:href="#DejaVuSans-35"/>
       <use xlink:href="#DejaVuSans-30" transform="translate(63.623047 0)"/>
       <use xlink:href="#DejaVuSans-30" transform="translate(127.246094 0)"/>
       <use xlink:href="#DejaVuSans-30" transform="translate(190.869141 0)"/>
      </g>
     </g>
    </g>
    <g id="xtick_25">
     <g id="line2d_73">
      <path d="M 644.141875 673.478125 
L 644.141875 476.678125 
" clip-path="url(#p2791dec50d)" style="fill: none; stroke: #b0b0b0; stroke-opacity: 0.3; stroke-width: 0.8; stroke-linecap: square"/>
     </g>
     <g id="line2d_74">
      <g>
       <use xlink:href="#mfd4cb3a6ac" x="644.141875" y="673.478125" style="stroke: #000000; stroke-width: 0.8"/>
      </g>
     </g>
     <g id="text_22">
      <!-- 6000 -->
      <g transform="translate(631.416875 688.076562) scale(0.1 -0.1)">
       <use xlink:href="#DejaVuSans-36"/>
       <use xlink:href="#DejaVuSans-30" transform="translate(63.623047 0)"/>
       <use xlink:href="#DejaVuSans-30" transform="translate(127.246094 0)"/>
       <use xlink:href="#DejaVuSans-30" transform="translate(190.869141 0)"/>
      </g>
     </g>
    </g>
    <g id="xtick_26">
     <g id="line2d_75">
      <path d="M 740.49 673.478125 
L 740.49 476.678125 
" clip-path="url(#p2791dec50d)" style="fill: none; stroke: #b0b0b0; stroke-opacity: 0.3; stroke-width: 0.8; stroke-linecap: square"/>
     </g>
     <g id="line2d_76">
      <g>
       <use xlink:href="#mfd4cb3a6ac" x="740.49" y="673.478125" style="stroke: #000000; stroke-width: 0.8"/>
      </g>
     </g>
     <g id="text_23">
      <!-- 7000 -->
      <g transform="translate(727.765 688.076562) scale(0.1 -0.1)">
       <use xlink:href="#DejaVuSans-37"/>
       <use xlink:href="#DejaVuSans-30" transform="translate(63.623047 0)"/>
       <use xlink:href="#DejaVuSans-30" transform="translate(127.246094 0)"/>
       <use xlink:href="#DejaVuSans-30" transform="translate(190.869141 0)"/>
      </g>
     </g>
    </g>
    <g id="xtick_27">
     <g id="line2d_77">
      <path d="M 836.838125 673.478125 
L 836.838125 476.678125 
" clip-path="url(#p2791dec50d)" style="fill: none; stroke: #b0b0b0; stroke-opacity: 0.3; stroke-width: 0.8; stroke-linecap: square"/>
     </g>
     <g id="line2d_78">
      <g>
       <use xlink:href="#mfd4cb3a6ac" x="836.838125" y="673.478125" style="stroke: #000000; stroke-width: 0.8"/>
      </g>
     </g>
     <g id="text_24">
      <!-- 8000 -->
      <g transform="translate(824.113125 688.076562) scale(0.1 -0.1)">
       <use xlink:href="#DejaVuSans-38"/>
       <use xlink:href="#DejaVuSans-30" transform="translate(63.623047 0)"/>
       <use xlink:href="#DejaVuSans-30" transform="translate(127.246094 0)"/>
       <use xlink:href="#DejaVuSans-30" transform="translate(190.869141 0)"/>
      </g>
     </g>
    </g>
    <g id="text_25">
     <!-- Time [s] -->
     <g transform="translate(431.116719 701.754687) scale(0.1 -0.1)">
      <defs>
       <path id="DejaVuSans-69" d="M 603 3500 
L 1178 3500 
L 1178 0 
L 603 0 
L 603 3500 
z
M 603 4863 
L 1178 4863 
L 1178 4134 
L 603 4134 
L 603 4863 
z
" transform="scale(0.015625)"/>
      </defs>
      <use xlink:href="#DejaVuSans-54"/>
      <use xlink:href="#DejaVuSans-69" transform="translate(57.958984 0)"/>
      <use xlink:href="#DejaVuSans-6d" transform="translate(85.742188 0)"/>
      <use xlink:href="#DejaVuSans-65" transform="translate(183.154297 0)"/>
      <use xlink:href="#DejaVuSans-20" transform="translate(244.677734 0)"/>
      <use xlink:href="#DejaVuSans-5b" transform="translate(276.464844 0)"/>
      <use xlink:href="#DejaVuSans-73" transform="translate(315.478516 0)"/>
      <use xlink:href="#DejaVuSans-5d" transform="translate(367.578125 0)"/>
     </g>
    </g>
   </g>
   <g id="matplotlib.axis_6">
    <g id="ytick_12">
     <g id="line2d_79">
      <path d="M 66.053125 659.152149 
L 836.838125 659.152149 
" clip-path="url(#p2791dec50d)" style="fill: none; stroke: #b0b0b0; stroke-opacity: 0.3; stroke-width: 0.8; stroke-linecap: square"/>
     </g>
     <g id="line2d_80">
      <g>
       <use xlink:href="#medbf49b9aa" x="66.053125" y="659.152149" style="stroke: #000000; stroke-width: 0.8"/>
      </g>
     </g>
     <g id="text_26">
      <!-- 1.000 -->
      <g transform="translate(30.425 662.951368) scale(0.1 -0.1)">
       <defs>
        <path id="DejaVuSans-2e" d="M 684 794 
L 1344 794 
L 1344 0 
L 684 0 
L 684 794 
z
" transform="scale(0.015625)"/>
       </defs>
       <use xlink:href="#DejaVuSans-31"/>
       <use xlink:href="#DejaVuSans-2e" transform="translate(63.623047 0)"/>
       <use xlink:href="#DejaVuSans-30" transform="translate(95.410156 0)"/>
       <use xlink:href="#DejaVuSans-30" transform="translate(159.033203 0)"/>
       <use xlink:href="#DejaVuSans-30" transform="translate(222.65625 0)"/>
      </g>
     </g>
    </g>
    <g id="ytick_13">
     <g id="line2d_81">
      <path d="M 66.053125 635.001711 
L 836.838125 635.001711 
" clip-path="url(#p2791dec50d)" style="fill: none; stroke: #b0b0b0; stroke-opacity: 0.3; stroke-width: 0.8; stroke-linecap: square"/>
     </g>
     <g id="line2d_82">
      <g>
       <use xlink:href="#medbf49b9aa" x="66.053125" y="635.001711" style="stroke: #000000; stroke-width: 0.8"/>
      </g>
     </g>
     <g id="text_27">
      <!-- 1.025 -->
      <g transform="translate(30.425 638.80093) scale(0.1 -0.1)">
       <use xlink:href="#DejaVuSans-31"/>
       <use xlink:href="#DejaVuSans-2e" transform="translate(63.623047 0)"/>
       <use xlink:href="#DejaVuSans-30" transform="translate(95.410156 0)"/>
       <use xlink:href="#DejaVuSans-32" transform="translate(159.033203 0)"/>
       <use xlink:href="#DejaVuSans-35" transform="translate(222.65625 0)"/>
      </g>
     </g>
    </g>
    <g id="ytick_14">
     <g id="line2d_83">
      <path d="M 66.053125 610.851273 
L 836.838125 610.851273 
" clip-path="url(#p2791dec50d)" style="fill: none; stroke: #b0b0b0; stroke-opacity: 0.3; stroke-width: 0.8; stroke-linecap: square"/>
     </g>
     <g id="line2d_84">
      <g>
       <use xlink:href="#medbf49b9aa" x="66.053125" y="610.851273" style="stroke: #000000; stroke-width: 0.8"/>
      </g>
     </g>
     <g id="text_28">
      <!-- 1.050 -->
      <g transform="translate(30.425 614.650492) scale(0.1 -0.1)">
       <use xlink:href="#DejaVuSans-31"/>
       <use xlink:href="#DejaVuSans-2e" transform="translate(63.623047 0)"/>
       <use xlink:href="#DejaVuSans-30" transform="translate(95.410156 0)"/>
       <use xlink:href="#DejaVuSans-35" transform="translate(159.033203 0)"/>
       <use xlink:href="#DejaVuSans-30" transform="translate(222.65625 0)"/>
      </g>
     </g>
    </g>
    <g id="ytick_15">
     <g id="line2d_85">
      <path d="M 66.053125 586.700835 
L 836.838125 586.700835 
" clip-path="url(#p2791dec50d)" style="fill: none; stroke: #b0b0b0; stroke-opacity: 0.3; stroke-width: 0.8; stroke-linecap: square"/>
     </g>
     <g id="line2d_86">
      <g>
       <use xlink:href="#medbf49b9aa" x="66.053125" y="586.700835" style="stroke: #000000; stroke-width: 0.8"/>
      </g>
     </g>
     <g id="text_29">
      <!-- 1.075 -->
      <g transform="translate(30.425 590.500054) scale(0.1 -0.1)">
       <use xlink:href="#DejaVuSans-31"/>
       <use xlink:href="#DejaVuSans-2e" transform="translate(63.623047 0)"/>
       <use xlink:href="#DejaVuSans-30" transform="translate(95.410156 0)"/>
       <use xlink:href="#DejaVuSans-37" transform="translate(159.033203 0)"/>
       <use xlink:href="#DejaVuSans-35" transform="translate(222.65625 0)"/>
      </g>
     </g>
    </g>
    <g id="ytick_16">
     <g id="line2d_87">
      <path d="M 66.053125 562.550398 
L 836.838125 562.550398 
" clip-path="url(#p2791dec50d)" style="fill: none; stroke: #b0b0b0; stroke-opacity: 0.3; stroke-width: 0.8; stroke-linecap: square"/>
     </g>
     <g id="line2d_88">
      <g>
       <use xlink:href="#medbf49b9aa" x="66.053125" y="562.550398" style="stroke: #000000; stroke-width: 0.8"/>
      </g>
     </g>
     <g id="text_30">
      <!-- 1.100 -->
      <g transform="translate(30.425 566.349616) scale(0.1 -0.1)">
       <use xlink:href="#DejaVuSans-31"/>
       <use xlink:href="#DejaVuSans-2e" transform="translate(63.623047 0)"/>
       <use xlink:href="#DejaVuSans-31" transform="translate(95.410156 0)"/>
       <use xlink:href="#DejaVuSans-30" transform="translate(159.033203 0)"/>
       <use xlink:href="#DejaVuSans-30" transform="translate(222.65625 0)"/>
      </g>
     </g>
    </g>
    <g id="ytick_17">
     <g id="line2d_89">
      <path d="M 66.053125 538.39996 
L 836.838125 538.39996 
" clip-path="url(#p2791dec50d)" style="fill: none; stroke: #b0b0b0; stroke-opacity: 0.3; stroke-width: 0.8; stroke-linecap: square"/>
     </g>
     <g id="line2d_90">
      <g>
       <use xlink:href="#medbf49b9aa" x="66.053125" y="538.39996" style="stroke: #000000; stroke-width: 0.8"/>
      </g>
     </g>
     <g id="text_31">
      <!-- 1.125 -->
      <g transform="translate(30.425 542.199179) scale(0.1 -0.1)">
       <use xlink:href="#DejaVuSans-31"/>
       <use xlink:href="#DejaVuSans-2e" transform="translate(63.623047 0)"/>
       <use xlink:href="#DejaVuSans-31" transform="translate(95.410156 0)"/>
       <use xlink:href="#DejaVuSans-32" transform="translate(159.033203 0)"/>
       <use xlink:href="#DejaVuSans-35" transform="translate(222.65625 0)"/>
      </g>
     </g>
    </g>
    <g id="ytick_18">
     <g id="line2d_91">
      <path d="M 66.053125 514.249522 
L 836.838125 514.249522 
" clip-path="url(#p2791dec50d)" style="fill: none; stroke: #b0b0b0; stroke-opacity: 0.3; stroke-width: 0.8; stroke-linecap: square"/>
     </g>
     <g id="line2d_92">
      <g>
       <use xlink:href="#medbf49b9aa" x="66.053125" y="514.249522" style="stroke: #000000; stroke-width: 0.8"/>
      </g>
     </g>
     <g id="text_32">
      <!-- 1.150 -->
      <g transform="translate(30.425 518.048741) scale(0.1 -0.1)">
       <use xlink:href="#DejaVuSans-31"/>
       <use xlink:href="#DejaVuSans-2e" transform="translate(63.623047 0)"/>
       <use xlink:href="#DejaVuSans-31" transform="translate(95.410156 0)"/>
       <use xlink:href="#DejaVuSans-35" transform="translate(159.033203 0)"/>
       <use xlink:href="#DejaVuSans-30" transform="translate(222.65625 0)"/>
      </g>
     </g>
    </g>
    <g id="ytick_19">
     <g id="line2d_93">
      <path d="M 66.053125 490.099084 
L 836.838125 490.099084 
" clip-path="url(#p2791dec50d)" style="fill: none; stroke: #b0b0b0; stroke-opacity: 0.3; stroke-width: 0.8; stroke-linecap: square"/>
     </g>
     <g id="line2d_94">
      <g>
       <use xlink:href="#medbf49b9aa" x="66.053125" y="490.099084" style="stroke: #000000; stroke-width: 0.8"/>
      </g>
     </g>
     <g id="text_33">
      <!-- 1.175 -->
      <g transform="translate(30.425 493.898303) scale(0.1 -0.1)">
       <use xlink:href="#DejaVuSans-31"/>
       <use xlink:href="#DejaVuSans-2e" transform="translate(63.623047 0)"/>
       <use xlink:href="#DejaVuSans-31" transform="translate(95.410156 0)"/>
       <use xlink:href="#DejaVuSans-37" transform="translate(159.033203 0)"/>
       <use xlink:href="#DejaVuSans-35" transform="translate(222.65625 0)"/>
      </g>
     </g>
    </g>
    <g id="text_34">
     <!-- Flowrate [mol/s] -->
     <g transform="translate(24.345313 615.746094) rotate(-90) scale(0.1 -0.1)">
      <defs>
       <path id="DejaVuSans-46" d="M 628 4666 
L 3309 4666 
L 3309 4134 
L 1259 4134 
L 1259 2759 
L 3109 2759 
L 3109 2228 
L 1259 2228 
L 1259 0 
L 628 0 
L 628 4666 
z
" transform="scale(0.015625)"/>
       <path id="DejaVuSans-6f" d="M 1959 3097 
Q 1497 3097 1228 2736 
Q 959 2375 959 1747 
Q 959 1119 1226 758 
Q 1494 397 1959 397 
Q 2419 397 2687 759 
Q 2956 1122 2956 1747 
Q 2956 2369 2687 2733 
Q 2419 3097 1959 3097 
z
M 1959 3584 
Q 2709 3584 3137 3096 
Q 3566 2609 3566 1747 
Q 3566 888 3137 398 
Q 2709 -91 1959 -91 
Q 1206 -91 779 398 
Q 353 888 353 1747 
Q 353 2609 779 3096 
Q 1206 3584 1959 3584 
z
" transform="scale(0.015625)"/>
       <path id="DejaVuSans-77" d="M 269 3500 
L 844 3500 
L 1563 769 
L 2278 3500 
L 2956 3500 
L 3675 769 
L 4391 3500 
L 4966 3500 
L 4050 0 
L 3372 0 
L 2619 2869 
L 1863 0 
L 1184 0 
L 269 3500 
z
" transform="scale(0.015625)"/>
       <path id="DejaVuSans-2f" d="M 1625 4666 
L 2156 4666 
L 531 -594 
L 0 -594 
L 1625 4666 
z
" transform="scale(0.015625)"/>
      </defs>
      <use xlink:href="#DejaVuSans-46"/>
      <use xlink:href="#DejaVuSans-6c" transform="translate(57.519531 0)"/>
      <use xlink:href="#DejaVuSans-6f" transform="translate(85.302734 0)"/>
      <use xlink:href="#DejaVuSans-77" transform="translate(146.484375 0)"/>
      <use xlink:href="#DejaVuSans-72" transform="translate(228.271484 0)"/>
      <use xlink:href="#DejaVuSans-61" transform="translate(269.384766 0)"/>
      <use xlink:href="#DejaVuSans-74" transform="translate(330.664062 0)"/>
      <use xlink:href="#DejaVuSans-65" transform="translate(369.873047 0)"/>
      <use xlink:href="#DejaVuSans-20" transform="translate(431.396484 0)"/>
      <use xlink:href="#DejaVuSans-5b" transform="translate(463.183594 0)"/>
      <use xlink:href="#DejaVuSans-6d" transform="translate(502.197266 0)"/>
      <use xlink:href="#DejaVuSans-6f" transform="translate(599.609375 0)"/>
      <use xlink:href="#DejaVuSans-6c" transform="translate(660.791016 0)"/>
      <use xlink:href="#DejaVuSans-2f" transform="translate(688.574219 0)"/>
      <use xlink:href="#DejaVuSans-73" transform="translate(722.265625 0)"/>
      <use xlink:href="#DejaVuSans-5d" transform="translate(774.365234 0)"/>
     </g>
    </g>
   </g>
   <g id="line2d_95">
    <path d="M 66.053125 659.151333 
L 75.687938 659.151333 
L 76.651419 625.309009 
L 77.6149 600.733138 
L 78.771078 577.198655 
L 80.119951 554.161375 
L 81.757869 530.029376 
L 83.588484 506.30132 
L 85.32275 486.030688 
L 85.515446 485.62358 
L 90.910941 485.648066 
L 96.980873 485.775464 
L 99.100532 486.046158 
L 100.642102 486.464484 
L 101.990976 487.069758 
L 103.243501 487.895751 
L 104.399679 488.927867 
L 105.555856 490.253529 
L 106.808382 492.046277 
L 108.157256 494.401167 
L 109.602478 497.399884 
L 111.240396 501.339085 
L 113.167358 506.577853 
L 115.768758 514.359927 
L 125.018178 542.642299 
L 127.812273 550.166904 
L 130.413673 556.529424 
L 132.822376 561.850413 
L 135.231079 566.630168 
L 137.543434 570.727213 
L 139.855789 574.366638 
L 142.071796 577.449645 
L 144.287802 580.162588 
L 146.503809 582.532394 
L 148.719816 584.587077 
L 151.032171 586.422759 
L 153.344526 587.976661 
L 155.753229 589.328134 
L 158.258281 590.480034 
L 160.956028 591.471533 
L 163.846472 592.295632 
L 167.02596 592.969603 
L 170.687189 593.515263 
L 175.119203 593.938125 
L 180.707394 594.232162 
L 188.800636 594.411038 
L 204.505381 594.483774 
L 258.749375 594.490779 
L 259.712856 596.784333 
L 262.025211 596.913371 
L 265.879136 596.923 
L 266.168181 596.870615 
L 266.264529 596.774503 
L 266.457225 596.331462 
L 266.649921 596.883922 
L 267.131662 597.009382 
L 269.251321 597.128967 
L 274.357771 597.212712 
L 277.248215 597.103178 
L 277.344563 596.990665 
L 277.537259 596.674473 
L 277.729956 597.094555 
L 278.211696 597.204981 
L 280.331355 597.274523 
L 289.291731 597.383061 
L 289.484427 597.025868 
L 289.773471 597.540871 
L 290.447908 597.711024 
L 294.109137 598.478152 
L 296.325144 599.208977 
L 298.444803 600.14692 
L 300.564461 601.335227 
L 301.720639 601.968674 
L 301.816987 601.906533 
L 301.913335 601.70757 
L 302.009683 601.809952 
L 302.298728 602.438905 
L 303.454905 603.422464 
L 306.056304 605.701972 
L 308.754052 608.377106 
L 312.126236 612.054193 
L 314.534939 614.705667 
L 314.631288 614.699581 
L 314.727636 614.557519 
L 314.823984 614.648006 
L 315.113028 615.430465 
L 316.172858 616.789215 
L 323.302619 625.308479 
L 327.34924 629.852407 
L 327.638284 630.025482 
L 327.830981 629.858973 
L 328.216373 630.785806 
L 329.468899 632.22868 
L 333.033779 635.949087 
L 336.791356 639.564006 
L 340.163541 642.519846 
L 340.741629 642.910903 
L 340.837978 642.894711 
L 341.030674 642.706001 
L 341.319718 643.410623 
L 342.090503 644.138169 
L 344.691903 646.213332 
L 348.353131 648.864483 
L 352.01436 651.23492 
L 353.941323 652.308489 
L 354.134019 652.276681 
L 354.326715 652.052402 
L 354.615759 652.676789 
L 355.386544 653.206875 
L 356.060981 653.598179 
L 357.024463 648.860759 
L 358.084292 650.360199 
L 358.855077 651.148401 
L 359.047773 651.315461 
L 359.72221 651.819682 
L 360.782039 652.620627 
L 360.974736 653.242129 
L 361.071084 654.12928 
L 361.26378 658.659632 
L 361.841869 652.186386 
L 362.323609 651.187642 
L 362.709002 650.816801 
L 363.094394 650.71535 
L 363.576135 650.804276 
L 364.250572 651.160327 
L 365.117705 651.877678 
L 366.081186 653.105189 
L 366.755623 654.468177 
L 367.526408 655.958582 
L 368.489889 658.030082 
L 369.067978 659.071688 
L 369.453371 659.391014 
L 369.742415 659.346573 
L 370.031459 659.03224 
L 370.5132 658.014326 
L 371.283985 656.340426 
L 371.765726 655.799903 
L 372.825555 655.881331 
L 373.499992 656.426565 
L 374.270777 657.33904 
L 375.13791 658.732178 
L 376.390436 660.635125 
L 376.775828 660.825212 
L 377.064873 660.752897 
L 377.450265 660.354362 
L 378.991835 658.217559 
L 380.051664 658.21809 
L 380.726101 658.641379 
L 381.496886 659.433002 
L 382.749412 661.153963 
L 383.423849 661.873005 
L 383.809241 662.022049 
L 384.194634 661.901537 
L 384.580026 661.504352 
L 385.9289 659.879354 
L 386.410641 659.706117 
L 386.988729 659.747086 
L 387.663166 660.060395 
L 388.433951 660.714054 
L 390.55361 662.791628 
L 390.939003 662.775928 
L 391.324395 662.531086 
L 392.191528 661.482203 
L 392.865965 660.893932 
L 393.444054 660.71783 
L 394.022143 660.76493 
L 394.985624 661.264962 
L 395.949105 662.127648 
L 397.008934 663.058377 
L 397.490675 663.219616 
L 397.876068 663.12474 
L 398.454156 662.628208 
L 399.513986 661.564597 
L 400.092074 661.310382 
L 400.670163 661.281713 
L 401.3446 661.485588 
L 402.115385 661.955972 
L 403.945999 663.265663 
L 404.42774 663.278551 
L 404.813133 663.088211 
L 405.583918 662.354597 
L 406.258354 661.79889 
L 406.932791 661.551758 
L 407.607228 661.576723 
L 408.281665 661.810248 
L 409.245146 662.41173 
L 410.401324 663.130008 
L 410.883064 663.205964 
L 411.364805 663.052275 
L 412.039242 662.517394 
L 412.906375 661.860727 
L 413.773508 661.643032 
L 415.026034 661.960975 
L 417.434737 663.029693 
L 417.916478 662.87251 
L 418.687263 662.342967 
L 419.361699 661.927445 
L 420.036136 661.748075 
L 420.710573 661.777648 
L 422.059447 662.289224 
L 423.408321 662.865802 
L 423.986409 662.858287 
L 424.564498 662.628681 
L 425.913372 661.961521 
L 426.587809 661.883341 
L 427.358594 662.00206 
L 428.418423 662.396498 
L 429.670949 662.82345 
L 430.345386 662.790707 
L 431.212519 662.460272 
L 432.176 662.162082 
L 433.139481 662.191454 
L 434.295659 662.512165 
L 435.837229 662.93656 
L 436.608014 662.871278 
L 438.438628 662.552787 
L 439.402109 662.673351 
L 442.099857 663.225936 
L 445.086649 663.261434 
L 447.880744 663.745714 
L 450.096751 663.900417 
L 453.75798 664.363741 
L 458.093646 664.503462 
L 460.502349 664.245597 
L 462.332963 663.836666 
L 464.067229 663.229447 
L 465.705148 662.430786 
L 467.246718 661.433759 
L 468.691939 660.235207 
L 470.040813 658.834189 
L 471.293339 657.227236 
L 472.545864 655.255466 
L 473.79839 652.839686 
L 474.954568 650.151842 
L 476.207093 646.690414 
L 477.652315 642.014229 
L 479.579278 634.901306 
L 484.107639 617.817895 
L 485.745558 612.66453 
L 487.190779 608.816559 
L 488.539653 605.820866 
L 489.888527 603.359121 
L 491.237401 601.374711 
L 492.586274 599.799758 
L 493.935148 598.562829 
L 495.38037 597.539843 
L 496.92194 596.720649 
L 498.656206 596.051928 
L 500.679517 595.515741 
L 503.184568 595.095571 
L 506.460404 594.79204 
L 511.181463 594.59975 
L 519.852794 594.50795 
L 549.720712 594.491152 
L 550.684194 596.784658 
L 552.996549 596.913609 
L 556.850474 596.923145 
L 557.139518 596.870755 
L 557.235866 596.774642 
L 557.428562 596.331597 
L 557.621259 596.884053 
L 558.102999 597.009505 
L 560.222658 597.129062 
L 565.329109 597.212762 
L 568.219553 597.103213 
L 568.315901 596.9907 
L 568.508597 596.674507 
L 568.701293 597.094588 
L 569.183034 597.205013 
L 571.302693 597.274547 
L 580.263068 597.383069 
L 580.455764 597.025875 
L 580.744809 597.540878 
L 581.419246 597.71103 
L 585.080474 598.478156 
L 587.296481 599.20898 
L 589.41614 600.146922 
L 591.535799 601.335228 
L 592.691976 601.968675 
L 592.788324 601.906534 
L 592.884673 601.707572 
L 592.981021 601.809953 
L 593.270065 602.438906 
L 594.426243 603.422465 
L 597.027642 605.701973 
L 599.725389 608.377106 
L 603.097574 612.054194 
L 605.506277 614.705667 
L 605.602625 614.699581 
L 605.698973 614.557519 
L 605.795321 614.648007 
L 606.084366 615.430465 
L 607.144195 616.789215 
L 614.273956 625.308479 
L 618.320578 629.852407 
L 618.609622 630.025482 
L 618.802318 629.858973 
L 619.187711 630.785806 
L 620.440236 632.22868 
L 624.005117 635.949087 
L 627.762694 639.564006 
L 631.134878 642.519846 
L 631.712967 642.910903 
L 631.809315 642.894711 
L 632.002011 642.706001 
L 632.291056 643.410623 
L 633.061841 644.138169 
L 635.66324 646.213332 
L 639.324469 648.864483 
L 642.985698 651.23492 
L 644.91266 652.308489 
L 645.105356 652.276682 
L 645.298053 652.052402 
L 645.587097 652.676789 
L 646.357882 653.206875 
L 647.032319 653.598179 
L 647.9958 648.860759 
L 649.055629 650.360199 
L 649.826414 651.148401 
L 650.019111 651.315461 
L 650.693548 651.819682 
L 651.753377 652.620627 
L 651.946073 653.242129 
L 652.042421 654.12928 
L 652.235118 658.659632 
L 652.813206 652.186387 
L 653.294947 651.187642 
L 653.680339 650.816801 
L 654.065732 650.71535 
L 654.547473 650.804276 
L 655.221909 651.160327 
L 656.089043 651.877678 
L 657.052524 653.105189 
L 657.726961 654.468177 
L 658.497746 655.958582 
L 659.461227 658.030082 
L 660.039316 659.071688 
L 660.424708 659.391014 
L 660.713753 659.346573 
L 661.002797 659.03224 
L 661.484538 658.014326 
L 662.255323 656.340427 
L 662.737063 655.799917 
L 663.796893 655.881331 
L 664.471329 656.426565 
L 665.242114 657.33904 
L 666.109248 658.732177 
L 667.361773 660.635126 
L 667.747166 660.825214 
L 668.03621 660.752899 
L 668.421603 660.354357 
L 669.963173 658.217597 
L 671.023002 658.218087 
L 671.697439 658.641383 
L 672.468224 659.433033 
L 673.720749 661.153959 
L 674.395186 661.873045 
L 674.780579 662.021815 
L 675.165971 661.901343 
L 675.551364 661.50463 
L 676.803889 659.951251 
L 677.28563 659.721297 
L 677.863719 659.722946 
L 678.441808 659.944729 
L 679.116244 660.435598 
L 680.079726 661.470886 
L 681.139555 662.597801 
L 681.621296 662.815328 
L 682.006688 662.735348 
L 682.392081 662.431633 
L 683.933651 660.845329 
L 684.511739 660.711032 
L 684.99348 660.766374 
L 685.667917 661.066659 
L 686.438702 661.66255 
L 688.172968 663.147008 
L 688.654709 663.190307 
L 689.040101 662.996043 
L 689.61819 662.408814 
L 690.485323 661.561345 
L 691.063412 661.308338 
L 691.641501 661.28542 
L 692.219589 661.425416 
L 692.797678 661.753856 
L 693.953856 662.665421 
L 694.724641 663.193385 
L 695.206381 663.306114 
L 695.688122 663.154111 
L 696.266211 662.650967 
L 697.229692 661.798104 
L 697.807781 661.569773 
L 698.482218 661.558043 
L 699.253003 661.809217 
L 700.216484 662.411431 
L 701.372661 663.128995 
L 701.854402 663.205001 
L 702.336143 663.056784 
L 703.010579 662.517327 
L 703.877713 661.868144 
L 704.552149 661.669194 
L 705.03389 661.665394 
L 705.804675 661.877636 
L 706.864504 662.449095 
L 707.924334 662.983993 
L 708.502423 663.012762 
L 708.984163 662.818348 
L 710.911126 661.75718 
L 711.681911 661.777893 
L 712.549044 662.056737 
L 714.379658 662.863754 
L 714.957747 662.859416 
L 715.535836 662.626612 
L 716.981058 661.929545 
L 717.848191 661.907226 
L 718.715324 662.122733 
L 720.931331 662.841042 
L 721.605768 662.704212 
L 723.340034 662.144231 
L 724.303515 662.223951 
L 726.712218 662.927124 
L 727.483003 662.887479 
L 729.795358 662.579355 
L 730.758839 662.771725 
L 732.878498 663.230196 
L 734.131024 663.134998 
L 735.190853 663.131528 
L 736.636075 663.390946 
L 738.466689 663.723278 
L 742.802355 664.192332 
L 745.211058 664.393088 
L 748.872287 664.514059 
L 750.895598 664.332909 
L 752.82256 663.966947 
L 754.653174 663.383926 
L 756.291093 662.641101 
L 757.929011 661.639187 
L 759.374233 660.497669 
L 760.723106 659.160643 
L 762.07198 657.497287 
L 763.420854 655.421145 
L 764.577031 653.245112 
L 765.829557 650.395307 
L 767.082083 646.980473 
L 768.527304 642.346174 
L 770.357919 635.640082 
L 775.271673 617.171964 
L 776.909591 612.114081 
L 778.354813 608.353978 
L 779.703687 605.435562 
L 781.052561 603.04764 
L 782.305086 601.260182 
L 783.65396 599.708519 
L 785.002834 598.4906 
L 786.448056 597.484726 
L 787.989626 596.678211 
L 789.723892 596.020603 
L 791.747203 595.493957 
L 794.252254 595.082583 
L 797.52809 594.784131 
L 802.249148 594.598027 
L 811.209524 594.507079 
L 836.838125 594.491242 
L 836.838125 594.491242 
" clip-path="url(#p2791dec50d)" style="fill: none; stroke: #2a9d8f; stroke-width: 2; stroke-linecap: square"/>
   </g>
   <g id="patch_13">
    <path d="M 66.053125 673.478125 
L 66.053125 476.678125 
" style="fill: none; stroke: #000000; stroke-width: 0.8; stroke-linejoin: miter; stroke-linecap: square"/>
   </g>
   <g id="patch_14">
    <path d="M 836.838125 673.478125 
L 836.838125 476.678125 
" style="fill: none; stroke: #000000; stroke-width: 0.8; stroke-linejoin: miter; stroke-linecap: square"/>
   </g>
   <g id="patch_15">
    <path d="M 66.053125 673.478125 
L 836.838125 673.478125 
" style="fill: none; stroke: #000000; stroke-width: 0.8; stroke-linejoin: miter; stroke-linecap: square"/>
   </g>
   <g id="patch_16">
    <path d="M 66.053125 476.678125 
L 836.838125 476.678125 
" style="fill: none; stroke: #000000; stroke-width: 0.8; stroke-linejoin: miter; stroke-linecap: square"/>
   </g>
   <g id="text_35">
    <!-- Overall Outlet Flowrate -->
    <g transform="translate(381.71625 470.678125) scale(0.12 -0.12)">
     <defs>
      <path id="DejaVuSans-76" d="M 191 3500 
L 800 3500 
L 1894 563 
L 2988 3500 
L 3597 3500 
L 2284 0 
L 1503 0 
L 191 3500 
z
" transform="scale(0.015625)"/>
     </defs>
     <use xlink:href="#DejaVuSans-4f"/>
     <use xlink:href="#DejaVuSans-76" transform="translate(78.710938 0)"/>
     <use xlink:href="#DejaVuSans-65" transform="translate(137.890625 0)"/>
     <use xlink:href="#DejaVuSans-72" transform="translate(199.414062 0)"/>
     <use xlink:href="#DejaVuSans-61" transform="translate(240.527344 0)"/>
     <use xlink:href="#DejaVuSans-6c" transform="translate(301.806641 0)"/>
     <use xlink:href="#DejaVuSans-6c" transform="translate(329.589844 0)"/>
     <use xlink:href="#DejaVuSans-20" transform="translate(357.373047 0)"/>
     <use xlink:href="#DejaVuSans-4f" transform="translate(389.160156 0)"/>
     <use xlink:href="#DejaVuSans-75" transform="translate(467.871094 0)"/>
     <use xlink:href="#DejaVuSans-74" transform="translate(531.25 0)"/>
     <use xlink:href="#DejaVuSans-6c" transform="translate(570.458984 0)"/>
     <use xlink:href="#DejaVuSans-65" transform="translate(598.242188 0)"/>
     <use xlink:href="#DejaVuSans-74" transform="translate(659.765625 0)"/>
     <use xlink:href="#DejaVuSans-20" transform="translate(698.974609 0)"/>
     <use xlink:href="#DejaVuSans-46" transform="translate(730.761719 0)"/>
     <use xlink:href="#DejaVuSans-6c" transform="translate(788.28125 0)"/>
     <use xlink:href="#DejaVuSans-6f" transform="translate(816.064453 0)"/>
     <use xlink:href="#DejaVuSans-77" transform="translate(877.246094 0)"/>
     <use xlink:href="#DejaVuSans-72" transform="translate(959.033203 0)"/>
     <use xlink:href="#DejaVuSans-61" transform="translate(1000.146484 0)"/>
     <use xlink:href="#DejaVuSans-74" transform="translate(1061.425781 0)"/>
     <use xlink:href="#DejaVuSans-65" transform="translate(1100.634766 0)"/>
    </g>
   </g>
  </g>
 </g>
 <defs>
  <clipPath id="pc934836506">
   <rect x="66.053125" y="22.318125" width="770.785" height="196.8"/>
  </clipPath>
  <clipPath id="pe6f611f747">
   <rect x="66.053125" y="249.498125" width="770.785" height="196.8"/>
  </clipPath>
  <clipPath id="p2791dec50d">
   <rect x="66.053125" y="476.678125" width="770.785" height="196.8"/>
  </clipPath>
 </defs>
</svg>
