<?xml version="1.0" encoding="UTF-8" standalone="no"?>
<!DOCTYPE svg PUBLIC "-//W3C//DTD SVG 1.1//EN"
 "http://www.w3.org/Graphics/SVG/1.1/DTD/svg11.dtd">
<!-- Generated by graphviz version 12.2.1 (20241206.2353)
 -->
<!-- Title: system_graph Pages: 1 -->
<svg width="1185pt" height="1096pt"
 viewBox="0.00 0.00 1185.05 1095.98" xmlns="http://www.w3.org/2000/svg" xmlns:xlink="http://www.w3.org/1999/xlink">
<g id="graph0" class="graph" transform="scale(1 1) rotate(0) translate(25.2 1070.78)">
<title>system_graph</title>
<polygon fill="white" stroke="none" points="-25.2,25.2 -25.2,-1070.78 1159.85,-1070.78 1159.85,25.2 -25.2,25.2"/>
<text text-anchor="middle" x="567.33" y="-1022.58" font-family="Arial" font-size="20.00">Species and Reaction System Graph</text>
<!-- CH4&#45;&gt;reaction:smr_reaction_xu_froment -->
<g id="edge1" class="edge">
<title>CH4&#45;&gt;reaction:smr_reaction_xu_froment</title>
<path fill="none" stroke="#355070" stroke-width="2.2" d="M122.9,-508.11C224.36,-509.67 416.2,-512.62 535.66,-514.46"/>
<polygon fill="#355070" stroke="#355070" stroke-width="2.2" points="123.15,-504.79 113.6,-507.97 123.04,-511.44 123.15,-504.79"/>
<polygon fill="#355070" stroke="#355070" stroke-width="2.2" points="535.54,-517.78 545.09,-514.6 535.64,-511.13 535.54,-517.78"/>
<text text-anchor="middle" x="325.43" y="-513.93" font-family="Arial" font-size="13.00" fill="#355070">1</text>
</g>
<!-- CH4&#45;&gt;reaction:overall_reforming_xu_froment -->
<g id="edge2" class="edge">
<title>CH4&#45;&gt;reaction:overall_reforming_xu_froment</title>
<path fill="none" stroke="#355070" stroke-width="2.2" d="M109.15,-480.23C171.48,-449.38 274.28,-398.51 345.07,-363.48"/>
<polygon fill="#355070" stroke="#355070" stroke-width="2.2" points="107.85,-477.16 100.81,-484.35 110.8,-483.12 107.85,-477.16"/>
<polygon fill="#355070" stroke="#355070" stroke-width="2.2" points="346.13,-366.67 353.17,-359.48 343.18,-360.71 346.13,-366.67"/>
<text text-anchor="middle" x="220.13" y="-426.1" font-family="Arial" font-size="13.00" fill="#355070">1</text>
</g>
<!-- reaction:smr_reaction_xu_froment&#45;&gt;CO -->
<g id="edge10" class="edge">
<title>reaction:smr_reaction_xu_froment&#45;&gt;CO</title>
<path fill="none" stroke="#bc6c25" stroke-width="2.2" d="M673.33,-559.24C740.97,-647.94 894.88,-849.76 962.26,-938.12"/>
<polygon fill="#bc6c25" stroke="#bc6c25" stroke-width="2.2" points="676.05,-557.31 667.64,-551.77 670.76,-561.34 676.05,-557.31"/>
<polygon fill="#bc6c25" stroke="#bc6c25" stroke-width="2.2" points="959.61,-940.14 968.02,-945.67 964.9,-936.1 959.61,-940.14"/>
<text text-anchor="middle" x="814.3" y="-751.67" font-family="Arial" font-size="13.00" fill="#bc6c25">1</text>
</g>
<!-- reaction:smr_reaction_xu_froment&#45;&gt;H2 -->
<g id="edge11" class="edge">
<title>reaction:smr_reaction_xu_froment&#45;&gt;H2</title>
<path fill="none" stroke="#bc6c25" stroke-width="2.2" d="M714.93,-477.29C801.59,-432.18 942.61,-358.78 1019.93,-318.54"/>
<polygon fill="#bc6c25" stroke="#bc6c25" stroke-width="2.2" points="713.44,-474.31 706.55,-481.64 716.52,-480.21 713.44,-474.31"/>
<polygon fill="#bc6c25" stroke="#bc6c25" stroke-width="2.2" points="1021.01,-321.72 1027.91,-314.39 1017.94,-315.82 1021.01,-321.72"/>
<text text-anchor="middle" x="863.58" y="-400.61" font-family="Arial" font-size="13.00" fill="#bc6c25">3</text>
</g>
<!-- reaction:overall_reforming_xu_froment&#45;&gt;CO2 -->
<g id="edge14" class="edge">
<title>reaction:overall_reforming_xu_froment&#45;&gt;CO2</title>
<path fill="none" stroke="#bc6c25" stroke-width="2.2" d="M425.46,-370.72C431.81,-475.38 447.37,-731.78 453.78,-837.35"/>
<polygon fill="#bc6c25" stroke="#bc6c25" stroke-width="2.2" points="428.78,-370.55 424.88,-361.27 422.14,-370.95 428.78,-370.55"/>
<polygon fill="#bc6c25" stroke="#bc6c25" stroke-width="2.2" points="450.45,-837.44 454.34,-846.72 457.09,-837.03 450.45,-837.44"/>
<text text-anchor="middle" x="435.83" y="-606.08" font-family="Arial" font-size="13.00" fill="#bc6c25">1</text>
</g>
<!-- reaction:overall_reforming_xu_froment&#45;&gt;H2 -->
<g id="edge15" class="edge">
<title>reaction:overall_reforming_xu_froment&#45;&gt;H2</title>
<path fill="none" stroke="#bc6c25" stroke-width="2.2" d="M540.26,-318.73C674.76,-311.48 890.79,-299.83 1002.63,-293.8"/>
<polygon fill="#bc6c25" stroke="#bc6c25" stroke-width="2.2" points="540.48,-315.39 531.17,-319.22 540.84,-322.03 540.48,-315.39"/>
<polygon fill="#bc6c25" stroke="#bc6c25" stroke-width="2.2" points="1002.78,-297.12 1012.09,-293.29 1002.43,-290.48 1002.78,-297.12"/>
<text text-anchor="middle" x="776.21" y="-308.46" font-family="Arial" font-size="13.00" fill="#bc6c25">4</text>
</g>
<!-- CO&#45;&gt;reaction:wgs_reaction_xu_froment -->
<g id="edge3" class="edge">
<title>CO&#45;&gt;reaction:wgs_reaction_xu_froment</title>
<path fill="none" stroke="#355070" stroke-width="2.2" d="M987.01,-934.56C973.69,-856.17 946.87,-698.35 933.7,-620.82"/>
<polygon fill="#355070" stroke="#355070" stroke-width="2.2" points="983.7,-934.96 988.57,-943.77 990.26,-933.85 983.7,-934.96"/>
<polygon fill="#355070" stroke="#355070" stroke-width="2.2" points="937.06,-620.74 932.19,-611.93 930.5,-621.86 937.06,-620.74"/>
<text text-anchor="middle" x="956.66" y="-780.71" font-family="Arial" font-size="13.00" fill="#355070">1</text>
</g>
<!-- reaction:wgs_reaction_xu_froment&#45;&gt;CO2 -->
<g id="edge12" class="edge">
<title>reaction:wgs_reaction_xu_froment&#45;&gt;CO2</title>
<path fill="none" stroke="#bc6c25" stroke-width="2.2" d="M865.1,-615.75C772.93,-676.26 599.48,-790.14 511.2,-848.09"/>
<polygon fill="#bc6c25" stroke="#bc6c25" stroke-width="2.2" points="866.9,-618.55 873.02,-610.56 863.25,-612.99 866.9,-618.55"/>
<polygon fill="#bc6c25" stroke="#bc6c25" stroke-width="2.2" points="509.52,-845.22 503.4,-853.21 513.16,-850.78 509.52,-845.22"/>
<text text-anchor="middle" x="684.49" y="-734.52" font-family="Arial" font-size="13.00" fill="#bc6c25">1</text>
</g>
<!-- reaction:wgs_reaction_xu_froment&#45;&gt;H2 -->
<g id="edge13" class="edge">
<title>reaction:wgs_reaction_xu_froment&#45;&gt;H2</title>
<path fill="none" stroke="#bc6c25" stroke-width="2.2" d="M949.18,-531.34C977.29,-477.38 1024.4,-386.94 1052.3,-333.4"/>
<polygon fill="#bc6c25" stroke="#bc6c25" stroke-width="2.2" points="946.25,-529.77 944.81,-539.73 952.14,-532.84 946.25,-529.77"/>
<polygon fill="#bc6c25" stroke="#bc6c25" stroke-width="2.2" points="1055.13,-335.15 1056.57,-325.19 1049.24,-332.08 1055.13,-335.15"/>
<text text-anchor="middle" x="996.85" y="-435.28" font-family="Arial" font-size="13.00" fill="#bc6c25">1</text>
</g>
<!-- H2O&#45;&gt;reaction:smr_reaction_xu_froment -->
<g id="edge4" class="edge">
<title>H2O&#45;&gt;reaction:smr_reaction_xu_froment</title>
<path fill="none" stroke="#355070" stroke-width="2.2" d="M833.32,-129.9C792.48,-211.65 703.94,-388.89 662.56,-471.73"/>
<polygon fill="#355070" stroke="#355070" stroke-width="2.2" points="836.24,-131.5 837.51,-121.51 830.29,-128.53 836.24,-131.5"/>
<polygon fill="#355070" stroke="#355070" stroke-width="2.2" points="659.69,-470.04 658.42,-480.03 665.64,-473.01 659.69,-470.04"/>
<text text-anchor="middle" x="744.49" y="-287.86" font-family="Arial" font-size="13.00" fill="#355070">1</text>
</g>
<!-- H2O&#45;&gt;reaction:overall_reforming_xu_froment -->
<g id="edge6" class="edge">
<title>H2O&#45;&gt;reaction:overall_reforming_xu_froment</title>
<path fill="none" stroke="#355070" stroke-width="2.2" d="M808.39,-112.53C732.87,-154.15 582.83,-236.83 493.78,-285.9"/>
<polygon fill="#355070" stroke="#355070" stroke-width="2.2" points="809.77,-115.57 816.48,-108.07 806.56,-109.75 809.77,-115.57"/>
<polygon fill="#355070" stroke="#355070" stroke-width="2.2" points="492.33,-282.9 485.61,-290.4 495.54,-288.73 492.33,-282.9"/>
<text text-anchor="middle" x="647.3" y="-201.89" font-family="Arial" font-size="13.00" fill="#355070">2</text>
</g>
<!-- H2O&#45;&gt;reaction:wgs_reaction_xu_froment -->
<g id="edge5" class="edge">
<title>H2O&#45;&gt;reaction:wgs_reaction_xu_froment</title>
<path fill="none" stroke="#355070" stroke-width="2.2" d="M861.51,-133.26C875.15,-226.83 905.87,-437.48 919.41,-530.33"/>
<polygon fill="#355070" stroke="#355070" stroke-width="2.2" points="864.8,-132.79 860.14,-123.87 858.22,-133.75 864.8,-132.79"/>
<polygon fill="#355070" stroke="#355070" stroke-width="2.2" points="916.1,-530.67 920.77,-539.59 922.68,-529.71 916.1,-530.67"/>
<text text-anchor="middle" x="886.69" y="-334.27" font-family="Arial" font-size="13.00" fill="#355070">1</text>
</g>
<!-- Ni&#45;&gt;reaction:smr_reaction_xu_froment -->
<g id="edge7" class="edge">
<title>Ni&#45;&gt;reaction:smr_reaction_xu_froment</title>
<path fill="none" stroke="#6d597a" stroke-width="1.8" stroke-dasharray="5,2" d="M566.82,-78.04C582.3,-170.23 617.67,-380.74 633.05,-472.24"/>
<polygon fill="#6d597a" stroke="#6d597a" stroke-width="1.8" points="569.75,-77.56 565.41,-69.67 563.88,-78.55 569.75,-77.56"/>
<polygon fill="#6d597a" stroke="#6d597a" stroke-width="1.8" points="630.07,-472.48 634.41,-480.37 635.94,-471.49 630.07,-472.48"/>
<text text-anchor="middle" x="590.9" y="-277.6" font-family="Arial" font-size="13.00" fill="#6d597a">cat</text>
</g>
<!-- Ni&#45;&gt;reaction:overall_reforming_xu_froment -->
<g id="edge9" class="edge">
<title>Ni&#45;&gt;reaction:overall_reforming_xu_froment</title>
<path fill="none" stroke="#6d597a" stroke-width="1.8" stroke-dasharray="5,2" d="M539.75,-75.2C513.97,-130.23 468.86,-226.51 442.81,-282.12"/>
<polygon fill="#6d597a" stroke="#6d597a" stroke-width="1.8" points="542.37,-76.62 543.28,-67.67 536.98,-74.1 542.37,-76.62"/>
<polygon fill="#6d597a" stroke="#6d597a" stroke-width="1.8" points="440.25,-280.58 439.33,-289.54 445.63,-283.11 440.25,-280.58"/>
<text text-anchor="middle" x="482.49" y="-180.87" font-family="Arial" font-size="13.00" fill="#6d597a">cat</text>
</g>
<!-- Ni&#45;&gt;reaction:wgs_reaction_xu_froment -->
<g id="edge8" class="edge">
<title>Ni&#45;&gt;reaction:wgs_reaction_xu_froment</title>
<path fill="none" stroke="#6d597a" stroke-width="1.8" stroke-dasharray="5,2" d="M585.67,-72.41C652.58,-171.35 828.58,-431.62 897.64,-533.76"/>
<polygon fill="#6d597a" stroke="#6d597a" stroke-width="1.8" points="588.31,-70.99 581.09,-65.62 583.38,-74.33 588.31,-70.99"/>
<polygon fill="#6d597a" stroke="#6d597a" stroke-width="1.8" points="895.04,-535.22 902.27,-540.6 899.97,-531.89 895.04,-535.22"/>
<text text-anchor="middle" x="732.74" y="-305.86" font-family="Arial" font-size="13.00" fill="#6d597a">cat</text>
</g>
<!-- CH4 -->
<g id="node1" class="node">
<title>CH4</title>
<ellipse fill="#81b29a" stroke="#2f3e46" stroke-width="1.6" cx="54.92" cy="-507.06" rx="54.92" ry="33.43"/>
<text text-anchor="middle" x="54.92" y="-509.71" font-family="Arial" font-size="13.00" fill="#1f2933">CH4</text>
<text text-anchor="middle" x="54.92" y="-494.71" font-family="Arial" font-size="13.00" fill="#1f2933">Methane</text>
</g>
<!-- reaction:smr_reaction_xu_froment -->
<g id="node2" class="node">
<title>reaction:smr_reaction_xu_froment</title>
<path fill="#6d597a" stroke="#3d405b" stroke-width="1.6" d="M720,-548.65C720,-548.65 560.82,-548.65 560.82,-548.65 554.82,-548.65 548.82,-542.65 548.82,-536.65 548.82,-536.65 548.82,-495.49 548.82,-495.49 548.82,-489.49 554.82,-483.49 560.82,-483.49 560.82,-483.49 720,-483.49 720,-483.49 726,-483.49 732,-489.49 732,-495.49 732,-495.49 732,-536.65 732,-536.65 732,-542.65 726,-548.65 720,-548.65"/>
<text text-anchor="middle" x="640.41" y="-526.22" font-family="Arial" font-size="13.00" fill="white">smr_reaction_xu_froment</text>
<text text-anchor="middle" x="640.41" y="-511.22" font-family="Arial" font-size="13.00" fill="white">reversible</text>
<text text-anchor="middle" x="640.41" y="-496.22" font-family="Arial" font-size="13.00" fill="white">cat: Ni</text>
</g>
<!-- reaction:overall_reforming_xu_froment -->
<g id="node3" class="node">
<title>reaction:overall_reforming_xu_froment</title>
<path fill="#6d597a" stroke="#3d405b" stroke-width="1.6" d="M515.4,-357.65C515.4,-357.65 329.97,-357.65 329.97,-357.65 323.97,-357.65 317.97,-351.65 317.97,-345.65 317.97,-345.65 317.97,-304.49 317.97,-304.49 317.97,-298.49 323.97,-292.49 329.97,-292.49 329.97,-292.49 515.4,-292.49 515.4,-292.49 521.4,-292.49 527.4,-298.49 527.4,-304.49 527.4,-304.49 527.4,-345.65 527.4,-345.65 527.4,-351.65 521.4,-357.65 515.4,-357.65"/>
<text text-anchor="middle" x="422.69" y="-335.22" font-family="Arial" font-size="13.00" fill="white">overall_reforming_xu_froment</text>
<text text-anchor="middle" x="422.69" y="-320.22" font-family="Arial" font-size="13.00" fill="white">reversible</text>
<text text-anchor="middle" x="422.69" y="-305.22" font-family="Arial" font-size="13.00" fill="white">cat: Ni</text>
</g>
<!-- CO -->
<g id="node4" class="node">
<title>CO</title>
<ellipse fill="#81b29a" stroke="#2f3e46" stroke-width="1.6" cx="994.88" cy="-980.9" rx="93.1" ry="33.43"/>
<text text-anchor="middle" x="994.88" y="-983.55" font-family="Arial" font-size="13.00" fill="#1f2933">CO</text>
<text text-anchor="middle" x="994.88" y="-968.55" font-family="Arial" font-size="13.00" fill="#1f2933">Carbon Monoxide</text>
</g>
<!-- reaction:wgs_reaction_xu_froment -->
<g id="node5" class="node">
<title>reaction:wgs_reaction_xu_froment</title>
<path fill="#6d597a" stroke="#3d405b" stroke-width="1.6" d="M1006.75,-608.33C1006.75,-608.33 845.32,-608.33 845.32,-608.33 839.32,-608.33 833.32,-602.33 833.32,-596.33 833.32,-596.33 833.32,-555.17 833.32,-555.17 833.32,-549.17 839.32,-543.17 845.32,-543.17 845.32,-543.17 1006.75,-543.17 1006.75,-543.17 1012.75,-543.17 1018.75,-549.17 1018.75,-555.17 1018.75,-555.17 1018.75,-596.33 1018.75,-596.33 1018.75,-602.33 1012.75,-608.33 1006.75,-608.33"/>
<text text-anchor="middle" x="926.04" y="-585.9" font-family="Arial" font-size="13.00" fill="white">wgs_reaction_xu_froment</text>
<text text-anchor="middle" x="926.04" y="-570.9" font-family="Arial" font-size="13.00" fill="white">reversible</text>
<text text-anchor="middle" x="926.04" y="-555.9" font-family="Arial" font-size="13.00" fill="white">cat: Ni</text>
</g>
<!-- CO2 -->
<g id="node6" class="node">
<title>CO2</title>
<ellipse fill="#81b29a" stroke="#2f3e46" stroke-width="1.6" cx="456.6" cy="-883.93" rx="84.09" ry="33.43"/>
<text text-anchor="middle" x="456.6" y="-886.58" font-family="Arial" font-size="13.00" fill="#1f2933">CO2</text>
<text text-anchor="middle" x="456.6" y="-871.58" font-family="Arial" font-size="13.00" fill="#1f2933">Carbon Dioxide</text>
</g>
<!-- H2 -->
<g id="node7" class="node">
<title>H2</title>
<ellipse fill="#81b29a" stroke="#2f3e46" stroke-width="1.6" cx="1074.96" cy="-289.9" rx="59.69" ry="33.43"/>
<text text-anchor="middle" x="1074.96" y="-292.55" font-family="Arial" font-size="13.00" fill="#1f2933">H2</text>
<text text-anchor="middle" x="1074.96" y="-277.55" font-family="Arial" font-size="13.00" fill="#1f2933">Hydrogen</text>
</g>
<!-- H2O -->
<g id="node8" class="node">
<title>H2O</title>
<ellipse fill="#81b29a" stroke="#2f3e46" stroke-width="1.6" cx="854.76" cy="-86.98" rx="43.25" ry="33.43"/>
<text text-anchor="middle" x="854.76" y="-89.63" font-family="Arial" font-size="13.00" fill="#1f2933">H2O</text>
<text text-anchor="middle" x="854.76" y="-74.63" font-family="Arial" font-size="13.00" fill="#1f2933">Water</text>
</g>
<!-- N2 -->
<g id="node9" class="node">
<title>N2</title>
<ellipse fill="#81b29a" stroke="#2f3e46" stroke-width="1.6" cx="262.39" cy="-917.43" rx="54.39" ry="33.43"/>
<text text-anchor="middle" x="262.39" y="-920.08" font-family="Arial" font-size="13.00" fill="#1f2933">N2</text>
<text text-anchor="middle" x="262.39" y="-905.08" font-family="Arial" font-size="13.00" fill="#1f2933">Nitrogen</text>
</g>
<!-- Ni -->
<g id="node10" class="node">
<title>Ni</title>
<ellipse fill="#f2cc8f" stroke="#2f3e46" stroke-width="1.6" cx="559.32" cy="-33.43" rx="44.31" ry="33.43"/>
<text text-anchor="middle" x="559.32" y="-36.08" font-family="Arial" font-size="13.00" fill="#1f2933">Ni</text>
<text text-anchor="middle" x="559.32" y="-21.08" font-family="Arial" font-size="13.00" fill="#1f2933">Nickel</text>
</g>
<!-- NiO -->
<g id="node11" class="node">
<title>NiO</title>
<ellipse fill="#f2cc8f" stroke="#2f3e46" stroke-width="1.6" cx="747.36" cy="-917.43" rx="71.36" ry="33.43"/>
<text text-anchor="middle" x="747.36" y="-920.08" font-family="Arial" font-size="13.00" fill="#1f2933">NiO</text>
<text text-anchor="middle" x="747.36" y="-905.08" font-family="Arial" font-size="13.00" fill="#1f2933">Nickel Oxide</text>
</g>
<!-- CaAl2O4 -->
<g id="node12" class="node">
<title>CaAl2O4</title>
<ellipse fill="#f2cc8f" stroke="#2f3e46" stroke-width="1.6" cx="304.29" cy="-761.43" rx="96.29" ry="33.43"/>
<text text-anchor="middle" x="304.29" y="-764.08" font-family="Arial" font-size="13.00" fill="#1f2933">CaAl2O4</text>
<text text-anchor="middle" x="304.29" y="-749.08" font-family="Arial" font-size="13.00" fill="#1f2933">Calcium Aluminate</text>
</g>
<!-- Fe -->
<g id="node13" class="node">
<title>Fe</title>
<ellipse fill="#f2cc8f" stroke="#2f3e46" stroke-width="1.6" cx="242.77" cy="-189.43" rx="34.77" ry="33.43"/>
<text text-anchor="middle" x="242.77" y="-192.08" font-family="Arial" font-size="13.00" fill="#1f2933">Fe</text>
<text text-anchor="middle" x="242.77" y="-177.08" font-family="Arial" font-size="13.00" fill="#1f2933">Iron</text>
</g>
</g>
</svg>
