<?xml version="1.0" encoding="UTF-8" standalone="no"?>
<!DOCTYPE svg PUBLIC "-//W3C//DTD SVG 1.1//EN"
 "http://www.w3.org/Graphics/SVG/1.1/DTD/svg11.dtd">
<!-- Generated by graphviz version 12.2.1 (20241206.2353)
 -->
<!-- Title: system_graph Pages: 1 -->
<svg width="1180pt" height="1419pt"
 viewBox="0.00 0.00 1180.17 1418.60" xmlns="http://www.w3.org/2000/svg" xmlns:xlink="http://www.w3.org/1999/xlink">
<g id="graph0" class="graph" transform="scale(1 1) rotate(0) translate(25.2 1393.4)">
<title>system_graph</title>
<polygon fill="white" stroke="none" points="-25.2,25.2 -25.2,-1393.4 1154.97,-1393.4 1154.97,25.2 -25.2,25.2"/>
<text text-anchor="middle" x="564.88" y="-1345.2" font-family="Arial" font-size="20.00">Species and Reaction System Graph</text>
<!-- CH4&#45;&gt;reaction:smr_reaction_numaguchi -->
<g id="edge1" class="edge">
<title>CH4&#45;&gt;reaction:smr_reaction_numaguchi</title>
<path fill="none" stroke="#355070" stroke-width="2.2" d="M107.5,-1239.29C164.22,-1208.61 254.88,-1159.56 318.2,-1125.31"/>
<polygon fill="#355070" stroke="#355070" stroke-width="2.2" points="106.08,-1236.28 99.3,-1243.73 109.24,-1242.13 106.08,-1236.28"/>
<polygon fill="#355070" stroke="#355070" stroke-width="2.2" points="319.6,-1128.33 326.37,-1120.89 316.43,-1122.49 319.6,-1128.33"/>
<text text-anchor="middle" x="206.57" y="-1186.32" font-family="Arial" font-size="13.00" fill="#355070">1</text>
</g>
<!-- reaction:smr_reaction_numaguchi&#45;&gt;CO -->
<g id="edge13" class="edge">
<title>reaction:smr_reaction_numaguchi&#45;&gt;CO</title>
<path fill="none" stroke="#bc6c25" stroke-width="2.2" d="M448.77,-1126.46C507.1,-1166.46 595.95,-1227.37 652.74,-1266.31"/>
<polygon fill="#bc6c25" stroke="#bc6c25" stroke-width="2.2" points="450.81,-1123.84 441.1,-1121.21 447.05,-1129.32 450.81,-1123.84"/>
<polygon fill="#bc6c25" stroke="#bc6c25" stroke-width="2.2" points="650.85,-1269.04 660.56,-1271.67 654.61,-1263.56 650.85,-1269.04"/>
<text text-anchor="middle" x="547.8" y="-1199.58" font-family="Arial" font-size="13.00" fill="#bc6c25">1</text>
</g>
<!-- reaction:smr_reaction_numaguchi&#45;&gt;H2 -->
<g id="edge14" class="edge">
<title>reaction:smr_reaction_numaguchi&#45;&gt;H2</title>
<path fill="none" stroke="#bc6c25" stroke-width="2.2" d="M391.29,-1040.88C392.5,-988.23 394.49,-901.96 395.72,-848.81"/>
<polygon fill="#bc6c25" stroke="#bc6c25" stroke-width="2.2" points="387.97,-1040.56 391.08,-1050.13 394.62,-1040.71 387.97,-1040.56"/>
<polygon fill="#bc6c25" stroke="#bc6c25" stroke-width="2.2" points="399.04,-848.96 395.93,-839.38 392.39,-848.8 399.04,-848.96"/>
<text text-anchor="middle" x="389.76" y="-947.28" font-family="Arial" font-size="13.00" fill="#bc6c25">3</text>
</g>
<!-- CO&#45;&gt;reaction:wgs_reaction_numaguchi -->
<g id="edge2" class="edge">
<title>CO&#45;&gt;reaction:wgs_reaction_numaguchi</title>
<path fill="none" stroke="#355070" stroke-width="2.2" d="M698.31,-1257.28C688.85,-1207.04 673.83,-1127.3 664.44,-1077.44"/>
<polygon fill="#355070" stroke="#355070" stroke-width="2.2" points="695.01,-1257.71 700.03,-1266.43 701.54,-1256.48 695.01,-1257.71"/>
<polygon fill="#355070" stroke="#355070" stroke-width="2.2" points="667.76,-1077.13 662.74,-1068.41 661.23,-1078.36 667.76,-1077.13"/>
<text text-anchor="middle" x="677.67" y="-1170.25" font-family="Arial" font-size="13.00" fill="#355070">1</text>
</g>
<!-- CO&#45;&gt;reaction:ni_reduction_co_medrano -->
<g id="edge3" class="edge">
<title>CO&#45;&gt;reaction:ni_reduction_co_medrano</title>
<path fill="none" stroke="#355070" stroke-width="2.2" d="M738.89,-1271.89C803.39,-1207.89 948.39,-1064.01 1008.93,-1003.93"/>
<polygon fill="#355070" stroke="#355070" stroke-width="2.2" points="1011.13,-1006.43 1015.53,-997.38 1006.45,-1001.71 1011.13,-1006.43"/>
<text text-anchor="middle" x="874.68" y="-1136.07" font-family="Arial" font-size="13.00" fill="#355070">1</text>
</g>
<!-- reaction:wgs_reaction_numaguchi&#45;&gt;CO2 -->
<g id="edge15" class="edge">
<title>reaction:wgs_reaction_numaguchi&#45;&gt;CO2</title>
<path fill="none" stroke="#bc6c25" stroke-width="2.2" d="M721.15,-1071.53C792.34,-1114.48 905.22,-1182.59 973.2,-1223.61"/>
<polygon fill="#bc6c25" stroke="#bc6c25" stroke-width="2.2" points="723.11,-1068.83 713.26,-1066.77 719.68,-1074.53 723.11,-1068.83"/>
<polygon fill="#bc6c25" stroke="#bc6c25" stroke-width="2.2" points="971.42,-1226.42 981.28,-1228.48 974.86,-1220.72 971.42,-1226.42"/>
<text text-anchor="middle" x="844.76" y="-1151.03" font-family="Arial" font-size="13.00" fill="#bc6c25">1</text>
</g>
<!-- reaction:wgs_reaction_numaguchi&#45;&gt;H2 -->
<g id="edge16" class="edge">
<title>reaction:wgs_reaction_numaguchi&#45;&gt;H2</title>
<path fill="none" stroke="#bc6c25" stroke-width="2.2" d="M609.44,-990.92C560.82,-947.76 485.21,-880.64 438.46,-839.14"/>
<polygon fill="#bc6c25" stroke="#bc6c25" stroke-width="2.2" points="606.98,-993.18 616.3,-997 611.4,-988.21 606.98,-993.18"/>
<polygon fill="#bc6c25" stroke="#bc6c25" stroke-width="2.2" points="440.75,-836.73 431.44,-832.91 436.34,-841.7 440.75,-836.73"/>
<text text-anchor="middle" x="519.41" y="-916.98" font-family="Arial" font-size="13.00" fill="#bc6c25">1</text>
</g>
<!-- reaction:ni_reduction_co_medrano&#45;&gt;CO2 -->
<g id="edge18" class="edge">
<title>reaction:ni_reduction_co_medrano&#45;&gt;CO2</title>
<path fill="none" stroke="#bc6c25" stroke-width="2.2" d="M1035.93,-995.24C1035.07,-1038.75 1032.88,-1148.77 1031.63,-1211.89"/>
<polygon fill="#bc6c25" stroke="#bc6c25" stroke-width="2.2" points="1028.31,-1211.71 1031.44,-1221.27 1034.95,-1211.84 1028.31,-1211.71"/>
<text text-anchor="middle" x="1029.9" y="-1112.81" font-family="Arial" font-size="13.00" fill="#bc6c25">1</text>
</g>
<!-- reaction:ni_reduction_co_medrano&#45;&gt;Ni -->
<g id="edge19" class="edge">
<title>reaction:ni_reduction_co_medrano&#45;&gt;Ni</title>
<path fill="none" stroke="#bc6c25" stroke-width="2.2" d="M1011.78,-958.41C960.56,-920.04 841.67,-830.99 778.28,-783.51"/>
<polygon fill="#bc6c25" stroke="#bc6c25" stroke-width="2.2" points="780.49,-781.01 770.89,-777.98 776.5,-786.34 780.49,-781.01"/>
<text text-anchor="middle" x="886.02" y="-869.67" font-family="Arial" font-size="13.00" fill="#bc6c25">1</text>
</g>
<!-- H2&#45;&gt;reaction:ni_reduction_h2_medrano -->
<g id="edge4" class="edge">
<title>H2&#45;&gt;reaction:ni_reduction_h2_medrano</title>
<path fill="none" stroke="#355070" stroke-width="2.2" d="M412.53,-769.51C439.43,-713.7 493.86,-600.8 519.72,-547.16"/>
<polygon fill="#355070" stroke="#355070" stroke-width="2.2" points="522.64,-548.76 523.77,-538.75 516.65,-545.87 522.64,-548.76"/>
<text text-anchor="middle" x="465.13" y="-655.26" font-family="Arial" font-size="13.00" fill="#355070">1</text>
</g>
<!-- reaction:ni_reduction_h2_medrano&#45;&gt;H2O -->
<g id="edge20" class="edge">
<title>reaction:ni_reduction_h2_medrano&#45;&gt;H2O</title>
<path fill="none" stroke="#bc6c25" stroke-width="2.2" d="M516.86,-535.71C472.54,-582.68 353.43,-708.89 294.36,-771.48"/>
<polygon fill="#bc6c25" stroke="#bc6c25" stroke-width="2.2" points="292.14,-768.99 288.04,-778.18 296.98,-773.55 292.14,-768.99"/>
<text text-anchor="middle" x="397.61" y="-660.75" font-family="Arial" font-size="13.00" fill="#bc6c25">1</text>
</g>
<!-- reaction:ni_reduction_h2_medrano&#45;&gt;Ni -->
<g id="edge21" class="edge">
<title>reaction:ni_reduction_h2_medrano&#45;&gt;Ni</title>
<path fill="none" stroke="#bc6c25" stroke-width="2.2" d="M549.9,-535.99C582.97,-574.3 659.76,-663.24 703.91,-714.38"/>
<polygon fill="#bc6c25" stroke="#bc6c25" stroke-width="2.2" points="701.38,-716.54 710.1,-721.55 706.41,-712.19 701.38,-716.54"/>
<text text-anchor="middle" x="627.48" y="-632.85" font-family="Arial" font-size="13.00" fill="#bc6c25">1</text>
</g>
<!-- H2O&#45;&gt;reaction:smr_reaction_numaguchi -->
<g id="edge5" class="edge">
<title>H2O&#45;&gt;reaction:smr_reaction_numaguchi</title>
<path fill="none" stroke="#355070" stroke-width="2.2" d="M280.23,-850.67C304.43,-902.51 344.9,-989.21 369.43,-1041.76"/>
<polygon fill="#355070" stroke="#355070" stroke-width="2.2" points="283.41,-849.62 276.38,-842.41 277.38,-852.43 283.41,-849.62"/>
<polygon fill="#355070" stroke="#355070" stroke-width="2.2" points="366.42,-1043.16 373.45,-1050.37 372.44,-1040.35 366.42,-1043.16"/>
<text text-anchor="middle" x="321.15" y="-949.01" font-family="Arial" font-size="13.00" fill="#355070">1</text>
</g>
<!-- H2O&#45;&gt;reaction:wgs_reaction_numaguchi -->
<g id="edge6" class="edge">
<title>H2O&#45;&gt;reaction:wgs_reaction_numaguchi</title>
<path fill="none" stroke="#355070" stroke-width="2.2" d="M306.3,-833.87C375.39,-873.06 506.22,-947.26 586.77,-992.95"/>
<polygon fill="#355070" stroke="#355070" stroke-width="2.2" points="308.09,-831.06 298.19,-829.27 304.81,-836.85 308.09,-831.06"/>
<polygon fill="#355070" stroke="#355070" stroke-width="2.2" points="584.99,-995.76 594.89,-997.56 588.27,-989.98 584.99,-995.76"/>
<text text-anchor="middle" x="442.71" y="-916.02" font-family="Arial" font-size="13.00" fill="#355070">1</text>
</g>
<!-- O2&#45;&gt;reaction:ni_oxidation_o2_medrano -->
<g id="edge7" class="edge">
<title>O2&#45;&gt;reaction:ni_oxidation_o2_medrano</title>
<path fill="none" stroke="#355070" stroke-width="2.2" d="M1027.36,-65.9C1000.65,-129.21 941.97,-268.31 916.11,-329.59"/>
<polygon fill="#355070" stroke="#355070" stroke-width="2.2" points="913.18,-327.98 912.55,-338.02 919.31,-330.56 913.18,-327.98"/>
<text text-anchor="middle" x="959.8" y="-206.46" font-family="Arial" font-size="13.00" fill="#355070">0.5</text>
</g>
<!-- reaction:ni_oxidation_o2_medrano&#45;&gt;NiO -->
<g id="edge17" class="edge">
<title>reaction:ni_oxidation_o2_medrano&#45;&gt;NiO</title>
<path fill="none" stroke="#bc6c25" stroke-width="2.2" d="M910.64,-377.7C926.16,-416.9 963.26,-510.61 985.49,-566.77"/>
<polygon fill="#bc6c25" stroke="#bc6c25" stroke-width="2.2" points="982.32,-567.78 988.91,-575.39 988.5,-565.33 982.32,-567.78"/>
<text text-anchor="middle" x="946.58" y="-480.6" font-family="Arial" font-size="13.00" fill="#bc6c25">1</text>
</g>
<!-- Ni&#45;&gt;reaction:smr_reaction_numaguchi -->
<g id="edge8" class="edge">
<title>Ni&#45;&gt;reaction:smr_reaction_numaguchi</title>
<path fill="none" stroke="#6d597a" stroke-width="1.8" stroke-dasharray="5,2" d="M701.49,-786.34C637.21,-848.3 501.14,-979.45 432.18,-1045.91"/>
<polygon fill="#6d597a" stroke="#6d597a" stroke-width="1.8" points="703.22,-788.8 707.28,-780.76 699.1,-784.52 703.22,-788.8"/>
<polygon fill="#6d597a" stroke="#6d597a" stroke-width="1.8" points="430.54,-1043.37 426.48,-1051.41 434.67,-1047.65 430.54,-1043.37"/>
<text text-anchor="middle" x="559.63" y="-917.05" font-family="Arial" font-size="13.00" fill="#6d597a">cat</text>
</g>
<!-- Ni&#45;&gt;reaction:wgs_reaction_numaguchi -->
<g id="edge9" class="edge">
<title>Ni&#45;&gt;reaction:wgs_reaction_numaguchi</title>
<path fill="none" stroke="#6d597a" stroke-width="1.8" stroke-dasharray="5,2" d="M724.12,-795.99C708.95,-848.54 683.61,-936.28 668.45,-988.74"/>
<polygon fill="#6d597a" stroke="#6d597a" stroke-width="1.8" points="726.96,-796.91 726.46,-787.92 721.24,-795.26 726.96,-796.91"/>
<polygon fill="#6d597a" stroke="#6d597a" stroke-width="1.8" points="665.64,-987.77 666.14,-996.76 671.36,-989.42 665.64,-987.77"/>
<text text-anchor="middle" x="687.4" y="-894.64" font-family="Arial" font-size="13.00" fill="#6d597a">cat</text>
</g>
<!-- Ni&#45;&gt;reaction:ni_oxidation_o2_medrano -->
<g id="edge10" class="edge">
<title>Ni&#45;&gt;reaction:ni_oxidation_o2_medrano</title>
<path fill="none" stroke="#355070" stroke-width="2.2" d="M750.36,-720.24C781.99,-645.74 859.93,-462.12 890.69,-389.67"/>
<polygon fill="#355070" stroke="#355070" stroke-width="2.2" points="893.74,-390.98 894.39,-380.94 887.62,-388.38 893.74,-390.98"/>
<text text-anchor="middle" x="819.34" y="-551.57" font-family="Arial" font-size="13.00" fill="#355070">1</text>
</g>
<!-- NiO&#45;&gt;reaction:ni_reduction_co_medrano -->
<g id="edge11" class="edge">
<title>NiO&#45;&gt;reaction:ni_reduction_co_medrano</title>
<path fill="none" stroke="#355070" stroke-width="2.2" d="M1006.27,-645.23C1012.66,-715.78 1027.36,-878.07 1033.51,-945.99"/>
<polygon fill="#355070" stroke="#355070" stroke-width="2.2" points="1030.19,-946.15 1034.36,-955.31 1036.81,-945.55 1030.19,-946.15"/>
<text text-anchor="middle" x="1016.69" y="-804.33" font-family="Arial" font-size="13.00" fill="#355070">1</text>
</g>
<!-- NiO&#45;&gt;reaction:ni_reduction_h2_medrano -->
<g id="edge12" class="edge">
<title>NiO&#45;&gt;reaction:ni_reduction_h2_medrano</title>
<path fill="none" stroke="#355070" stroke-width="2.2" d="M937.48,-598.36C859.95,-582.84 730.09,-556.83 638.67,-538.52"/>
<polygon fill="#355070" stroke="#355070" stroke-width="2.2" points="639.55,-535.31 629.58,-536.7 638.24,-541.83 639.55,-535.31"/>
<text text-anchor="middle" x="778.21" y="-569.87" font-family="Arial" font-size="13.00" fill="#355070">1</text>
</g>
<!-- Ar -->
<g id="node1" class="node">
<title>Ar</title>
<ellipse fill="#81b29a" stroke="#2f3e46" stroke-width="1.6" cx="637.78" cy="-249.43" rx="43.78" ry="33.43"/>
<text text-anchor="middle" x="637.78" y="-252.08" font-family="Arial" font-size="13.00" fill="#1f2933">Ar</text>
<text text-anchor="middle" x="637.78" y="-237.08" font-family="Arial" font-size="13.00" fill="#1f2933">Argon</text>
</g>
<!-- CH4 -->
<g id="node2" class="node">
<title>CH4</title>
<ellipse fill="#81b29a" stroke="#2f3e46" stroke-width="1.6" cx="54.92" cy="-1267.74" rx="54.92" ry="33.43"/>
<text text-anchor="middle" x="54.92" y="-1270.39" font-family="Arial" font-size="13.00" fill="#1f2933">CH4</text>
<text text-anchor="middle" x="54.92" y="-1255.39" font-family="Arial" font-size="13.00" fill="#1f2933">Methane</text>
</g>
<!-- reaction:smr_reaction_numaguchi -->
<g id="node3" class="node">
<title>reaction:smr_reaction_numaguchi</title>
<path fill="#6d597a" stroke="#3d405b" stroke-width="1.6" d="M469.08,-1118.92C469.08,-1118.92 311.4,-1118.92 311.4,-1118.92 305.4,-1118.92 299.4,-1112.92 299.4,-1106.92 299.4,-1106.92 299.4,-1065.76 299.4,-1065.76 299.4,-1059.76 305.4,-1053.76 311.4,-1053.76 311.4,-1053.76 469.08,-1053.76 469.08,-1053.76 475.08,-1053.76 481.08,-1059.76 481.08,-1065.76 481.08,-1065.76 481.08,-1106.92 481.08,-1106.92 481.08,-1112.92 475.08,-1118.92 469.08,-1118.92"/>
<text text-anchor="middle" x="390.24" y="-1096.49" font-family="Arial" font-size="13.00" fill="white">smr_reaction_numaguchi</text>
<text text-anchor="middle" x="390.24" y="-1081.49" font-family="Arial" font-size="13.00" fill="white">reversible</text>
<text text-anchor="middle" x="390.24" y="-1066.49" font-family="Arial" font-size="13.00" fill="white">cat: Ni</text>
</g>
<!-- CO -->
<g id="node4" class="node">
<title>CO</title>
<ellipse fill="#81b29a" stroke="#2f3e46" stroke-width="1.6" cx="707.02" cy="-1303.52" rx="93.1" ry="33.43"/>
<text text-anchor="middle" x="707.02" y="-1306.17" font-family="Arial" font-size="13.00" fill="#1f2933">CO</text>
<text text-anchor="middle" x="707.02" y="-1291.17" font-family="Arial" font-size="13.00" fill="#1f2933">Carbon Monoxide</text>
</g>
<!-- reaction:wgs_reaction_numaguchi -->
<g id="node5" class="node">
<title>reaction:wgs_reaction_numaguchi</title>
<path fill="#6d597a" stroke="#3d405b" stroke-width="1.6" d="M735.88,-1064.75C735.88,-1064.75 575.95,-1064.75 575.95,-1064.75 569.95,-1064.75 563.95,-1058.75 563.95,-1052.75 563.95,-1052.75 563.95,-1011.59 563.95,-1011.59 563.95,-1005.59 569.95,-999.59 575.95,-999.59 575.95,-999.59 735.88,-999.59 735.88,-999.59 741.88,-999.59 747.88,-1005.59 747.88,-1011.59 747.88,-1011.59 747.88,-1052.75 747.88,-1052.75 747.88,-1058.75 741.88,-1064.75 735.88,-1064.75"/>
<text text-anchor="middle" x="655.91" y="-1042.32" font-family="Arial" font-size="13.00" fill="white">wgs_reaction_numaguchi</text>
<text text-anchor="middle" x="655.91" y="-1027.32" font-family="Arial" font-size="13.00" fill="white">reversible</text>
<text text-anchor="middle" x="655.91" y="-1012.32" font-family="Arial" font-size="13.00" fill="white">cat: Ni</text>
</g>
<!-- reaction:ni_reduction_co_medrano -->
<g id="node6" class="node">
<title>reaction:ni_reduction_co_medrano</title>
<path fill="#6d597a" stroke="#3d405b" stroke-width="1.6" d="M1117.77,-994.77C1117.77,-994.77 954.84,-994.77 954.84,-994.77 948.84,-994.77 942.84,-988.77 942.84,-982.77 942.84,-982.77 942.84,-970.77 942.84,-970.77 942.84,-964.77 948.84,-958.77 954.84,-958.77 954.84,-958.77 1117.77,-958.77 1117.77,-958.77 1123.77,-958.77 1129.77,-964.77 1129.77,-970.77 1129.77,-970.77 1129.77,-982.77 1129.77,-982.77 1129.77,-988.77 1123.77,-994.77 1117.77,-994.77"/>
<text text-anchor="middle" x="1036.3" y="-971.92" font-family="Arial" font-size="13.00" fill="white">ni_reduction_co_medrano</text>
</g>
<!-- CO2 -->
<g id="node7" class="node">
<title>CO2</title>
<ellipse fill="#81b29a" stroke="#2f3e46" stroke-width="1.6" cx="1030.7" cy="-1258.3" rx="84.09" ry="33.43"/>
<text text-anchor="middle" x="1030.7" y="-1260.95" font-family="Arial" font-size="13.00" fill="#1f2933">CO2</text>
<text text-anchor="middle" x="1030.7" y="-1245.95" font-family="Arial" font-size="13.00" fill="#1f2933">Carbon Dioxide</text>
</g>
<!-- H2 -->
<g id="node8" class="node">
<title>H2</title>
<ellipse fill="#81b29a" stroke="#2f3e46" stroke-width="1.6" cx="396.79" cy="-802.15" rx="59.69" ry="33.43"/>
<text text-anchor="middle" x="396.79" y="-804.8" font-family="Arial" font-size="13.00" fill="#1f2933">H2</text>
<text text-anchor="middle" x="396.79" y="-789.8" font-family="Arial" font-size="13.00" fill="#1f2933">Hydrogen</text>
</g>
<!-- reaction:ni_reduction_h2_medrano -->
<g id="node9" class="node">
<title>reaction:ni_reduction_h2_medrano</title>
<path fill="#6d597a" stroke="#3d405b" stroke-width="1.6" d="M615.83,-535.56C615.83,-535.56 452.15,-535.56 452.15,-535.56 446.15,-535.56 440.15,-529.56 440.15,-523.56 440.15,-523.56 440.15,-511.56 440.15,-511.56 440.15,-505.56 446.15,-499.56 452.15,-499.56 452.15,-499.56 615.83,-499.56 615.83,-499.56 621.83,-499.56 627.83,-505.56 627.83,-511.56 627.83,-511.56 627.83,-523.56 627.83,-523.56 627.83,-529.56 621.83,-535.56 615.83,-535.56"/>
<text text-anchor="middle" x="533.99" y="-512.71" font-family="Arial" font-size="13.00" fill="white">ni_reduction_h2_medrano</text>
</g>
<!-- H2O -->
<g id="node10" class="node">
<title>H2O</title>
<ellipse fill="#81b29a" stroke="#2f3e46" stroke-width="1.6" cx="260.17" cy="-807.71" rx="43.25" ry="33.43"/>
<text text-anchor="middle" x="260.17" y="-810.36" font-family="Arial" font-size="13.00" fill="#1f2933">H2O</text>
<text text-anchor="middle" x="260.17" y="-795.36" font-family="Arial" font-size="13.00" fill="#1f2933">Water</text>
</g>
<!-- He -->
<g id="node11" class="node">
<title>He</title>
<ellipse fill="#81b29a" stroke="#2f3e46" stroke-width="1.6" cx="317.5" cy="-627.43" rx="47.5" ry="33.43"/>
<text text-anchor="middle" x="317.5" y="-630.08" font-family="Arial" font-size="13.00" fill="#1f2933">He</text>
<text text-anchor="middle" x="317.5" y="-615.08" font-family="Arial" font-size="13.00" fill="#1f2933">Helium</text>
</g>
<!-- N2 -->
<g id="node12" class="node">
<title>N2</title>
<ellipse fill="#81b29a" stroke="#2f3e46" stroke-width="1.6" cx="648.39" cy="-411.43" rx="54.39" ry="33.43"/>
<text text-anchor="middle" x="648.39" y="-414.08" font-family="Arial" font-size="13.00" fill="#1f2933">N2</text>
<text text-anchor="middle" x="648.39" y="-399.08" font-family="Arial" font-size="13.00" fill="#1f2933">Nitrogen</text>
</g>
<!-- O2 -->
<g id="node13" class="node">
<title>O2</title>
<ellipse fill="#81b29a" stroke="#2f3e46" stroke-width="1.6" cx="1041.06" cy="-33.43" rx="50.68" ry="33.43"/>
<text text-anchor="middle" x="1041.06" y="-36.08" font-family="Arial" font-size="13.00" fill="#1f2933">O2</text>
<text text-anchor="middle" x="1041.06" y="-21.08" font-family="Arial" font-size="13.00" fill="#1f2933">Oxygen</text>
</g>
<!-- reaction:ni_oxidation_o2_medrano -->
<g id="node14" class="node">
<title>reaction:ni_oxidation_o2_medrano</title>
<path fill="#6d597a" stroke="#3d405b" stroke-width="1.6" d="M984.55,-377.58C984.55,-377.58 822.37,-377.58 822.37,-377.58 816.37,-377.58 810.37,-371.58 810.37,-365.58 810.37,-365.58 810.37,-353.58 810.37,-353.58 810.37,-347.58 816.37,-341.58 822.37,-341.58 822.37,-341.58 984.55,-341.58 984.55,-341.58 990.55,-341.58 996.55,-347.58 996.55,-353.58 996.55,-353.58 996.55,-365.58 996.55,-365.58 996.55,-371.58 990.55,-377.58 984.55,-377.58"/>
<text text-anchor="middle" x="903.46" y="-354.73" font-family="Arial" font-size="13.00" fill="white">ni_oxidation_o2_medrano</text>
</g>
<!-- Ni -->
<g id="node15" class="node">
<title>Ni</title>
<ellipse fill="#f2cc8f" stroke="#2f3e46" stroke-width="1.6" cx="736.72" cy="-752.38" rx="44.31" ry="33.43"/>
<text text-anchor="middle" x="736.72" y="-755.03" font-family="Arial" font-size="13.00" fill="#1f2933">Ni</text>
<text text-anchor="middle" x="736.72" y="-740.03" font-family="Arial" font-size="13.00" fill="#1f2933">Nickel</text>
</g>
<!-- NiO -->
<g id="node16" class="node">
<title>NiO</title>
<ellipse fill="#f2cc8f" stroke="#2f3e46" stroke-width="1.6" cx="1003.21" cy="-611.53" rx="71.36" ry="33.43"/>
<text text-anchor="middle" x="1003.21" y="-614.18" font-family="Arial" font-size="13.00" fill="#1f2933">NiO</text>
<text text-anchor="middle" x="1003.21" y="-599.18" font-family="Arial" font-size="13.00" fill="#1f2933">Nickel Oxide</text>
</g>
<!-- CaAl2O4 -->
<g id="node17" class="node">
<title>CaAl2O4</title>
<ellipse fill="#f2cc8f" stroke="#2f3e46" stroke-width="1.6" cx="366.29" cy="-411.43" rx="96.29" ry="33.43"/>
<text text-anchor="middle" x="366.29" y="-414.08" font-family="Arial" font-size="13.00" fill="#1f2933">CaAl2O4</text>
<text text-anchor="middle" x="366.29" y="-399.08" font-family="Arial" font-size="13.00" fill="#1f2933">Calcium Aluminate</text>
</g>
<!-- Fe -->
<g id="node18" class="node">
<title>Fe</title>
<ellipse fill="#f2cc8f" stroke="#2f3e46" stroke-width="1.6" cx="628.77" cy="-789.43" rx="34.77" ry="33.43"/>
<text text-anchor="middle" x="628.77" y="-792.08" font-family="Arial" font-size="13.00" fill="#1f2933">Fe</text>
<text text-anchor="middle" x="628.77" y="-777.08" font-family="Arial" font-size="13.00" fill="#1f2933">Iron</text>
</g>
</g>
</svg>
