<?xml version="1.0" encoding="utf-8" standalone="no"?>
<!DOCTYPE svg PUBLIC "-//W3C//DTD SVG 1.1//EN"
  "http://www.w3.org/Graphics/SVG/1.1/DTD/svg11.dtd">
<svg xmlns:xlink="http://www.w3.org/1999/xlink" width="720pt" height="691.2pt" viewBox="0 0 720 691.2" xmlns="http://www.w3.org/2000/svg" version="1.1">
 <metadata>
  <rdf:RDF xmlns:dc="http://purl.org/dc/elements/1.1/" xmlns:cc="http://creativecommons.org/ns#" xmlns:rdf="http://www.w3.org/1999/02/22-rdf-syntax-ns#">
   <cc:Work>
    <dc:type rdf:resource="http://purl.org/dc/dcmitype/StillImage"/>
    <dc:date>2026-04-11T21:47:14.750795</dc:date>
    <dc:format>image/svg+xml</dc:format>
    <dc:creator>
     <cc:Agent>
      <dc:title>Matplotlib v3.10.8, https://matplotlib.org/</dc:title>
     </cc:Agent>
    </dc:creator>
   </cc:Work>
  </rdf:RDF>
 </metadata>
 <defs>
  <style type="text/css">*{stroke-linejoin: round; stroke-linecap: butt}</style>
 </defs>
 <g id="figure_1">
  <g id="patch_1">
   <path d="M 0 691.2 
L 720 691.2 
L 720 0 
L 0 0 
z
" style="fill: #ffffff"/>
  </g>
  <g id="axes_1">
   <g id="patch_2">
    <path d="M 96.71251 155.758707 
Q 360.00324 188.214814 622.184334 220.534136 
" clip-path="url(#p64c44c4161)" style="fill: none; stroke: #000000; stroke-linecap: round"/>
    <path d="M 615.478865 216.080297 
L 622.184334 220.534136 
L 614.597981 223.226208 
z
" clip-path="url(#p64c44c4161)" style="stroke: #000000; stroke-linecap: round"/>
   </g>
   <g id="patch_3">
    <path d="M 95.320969 286.096148 
Q 360.001609 188.21382 623.633623 90.719287 
" clip-path="url(#p64c44c4161)" style="fill: none; stroke: #000000; stroke-linecap: round"/>
    <path d="M 615.63193 89.840131 
L 623.633623 90.719287 
L 618.129283 96.593148 
z
" clip-path="url(#p64c44c4161)" style="stroke: #000000; stroke-linecap: round"/>
   </g>
   <g id="patch_4">
    <path d="M 95.320969 357.246938 
Q 360.001609 259.364609 623.633623 161.870076 
" clip-path="url(#p64c44c4161)" style="fill: none; stroke: #000000; stroke-linecap: round"/>
    <path d="M 615.63193 160.990921 
L 623.633623 161.870076 
L 618.129283 167.743937 
z
" clip-path="url(#p64c44c4161)" style="stroke: #000000; stroke-linecap: round"/>
   </g>
   <g id="patch_5">
    <path d="M 91.901565 493.233146 
Q 359.998666 294.941586 627.196882 97.314863 
" clip-path="url(#p64c44c4161)" style="fill: none; stroke: #000000; stroke-linecap: round"/>
    <path d="M 619.26745 98.701985 
L 627.196882 97.314863 
L 623.54892 104.490682 
z
" clip-path="url(#p64c44c4161)" style="stroke: #000000; stroke-linecap: round"/>
   </g>
   <g id="patch_6">
    <path d="M 91.901565 564.383935 
Q 359.998666 366.092375 627.196882 168.465653 
" clip-path="url(#p64c44c4161)" style="fill: none; stroke: #000000; stroke-linecap: round"/>
    <path d="M 619.26745 169.852775 
L 627.196882 168.465653 
L 623.54892 175.641472 
z
" clip-path="url(#p64c44c4161)" style="stroke: #000000; stroke-linecap: round"/>
   </g>
   <g id="patch_7">
    <path d="M 93.108155 566.166884 
Q 360.000126 401.666705 625.940326 237.753155 
" clip-path="url(#p64c44c4161)" style="fill: none; stroke: #000000; stroke-linecap: round"/>
    <path d="M 617.922135 238.466327 
L 625.940326 237.753155 
L 621.69995 244.595611 
z
" clip-path="url(#p64c44c4161)" style="stroke: #000000; stroke-linecap: round"/>
   </g>
   <g id="patch_8">
    <path d="M 629.291813 98.144926 
Q 359.99857 330.517227 91.551791 562.159117 
" clip-path="url(#p64c44c4161)" style="fill: none; stroke: #000000; stroke-linecap: round"/>
    <path d="M 99.354787 560.180923 
L 91.551791 562.159117 
L 94.651033 554.729804 
z
" clip-path="url(#p64c44c4161)" style="stroke: #000000; stroke-linecap: round"/>
   </g>
   <g id="patch_9">
    <path d="M 626.891845 166.015892 
Q 359.999874 330.516071 94.059674 494.429622 
" clip-path="url(#p64c44c4161)" style="fill: none; stroke: #000000; stroke-linecap: round"/>
    <path d="M 102.077865 493.716449 
L 94.059674 494.429622 
L 98.30005 487.587166 
z
" clip-path="url(#p64c44c4161)" style="stroke: #000000; stroke-linecap: round"/>
   </g>
   <g id="patch_10">
    <path d="M 625.72709 163.91484 
Q 359.99951 294.94084 95.274689 425.472397 
" clip-path="url(#p64c44c4161)" style="fill: none; stroke: #000000; stroke-linecap: round"/>
    <path d="M 103.32441 425.517058 
L 95.274689 425.472397 
L 100.140251 419.059417 
z
" clip-path="url(#p64c44c4161)" style="stroke: #000000; stroke-linecap: round"/>
   </g>
   <g id="patch_11">
    <path d="M 625.72709 235.065629 
Q 359.99951 366.09163 95.274689 496.623186 
" clip-path="url(#p64c44c4161)" style="fill: none; stroke: #000000; stroke-linecap: round"/>
    <path d="M 103.32441 496.667847 
L 95.274689 496.623186 
L 100.140251 490.210206 
z
" clip-path="url(#p64c44c4161)" style="stroke: #000000; stroke-linecap: round"/>
   </g>
   <g id="patch_12">
    <path d="M 623.102538 223.789809 
Q 360.001064 223.789809 98.017623 223.789809 
" clip-path="url(#p64c44c4161)" style="fill: none; stroke: #000000; stroke-linecap: round"/>
    <path d="M 105.217623 227.389809 
L 98.017623 223.789809 
L 105.217623 220.189809 
z
" clip-path="url(#p64c44c4161)" style="stroke: #000000; stroke-linecap: round"/>
   </g>
   <g id="text_1">
    <g id="patch_13">
     <path d="M 356.209616 196.302493 
L 368.14229 191.889636 
Q 370.393295 191.057185 369.560844 188.80618 
L 366.875323 181.544342 
Q 366.042872 179.293337 363.791866 180.125788 
L 351.859193 184.538645 
Q 349.608187 185.371096 350.440638 187.622102 
L 353.12616 194.883939 
Q 353.958611 197.134944 356.209616 196.302493 
z
" clip-path="url(#p64c44c4161)" style="fill: #ffffff; stroke: #ffffff; stroke-linejoin: miter"/>
    </g>
    <g clip-path="url(#p64c44c4161)">
     <!-- 0.5 -->
     <g transform="translate(354.800086 192.491025) rotate(-20.295047) scale(0.08 -0.08)">
      <defs>
       <path id="DejaVuSans-30" d="M 2034 4250 
Q 1547 4250 1301 3770 
Q 1056 3291 1056 2328 
Q 1056 1369 1301 889 
Q 1547 409 2034 409 
Q 2525 409 2770 889 
Q 3016 1369 3016 2328 
Q 3016 3291 2770 3770 
Q 2525 4250 2034 4250 
z
M 2034 4750 
Q 2819 4750 3233 4129 
Q 3647 3509 3647 2328 
Q 3647 1150 3233 529 
Q 2819 -91 2034 -91 
Q 1250 -91 836 529 
Q 422 1150 422 2328 
Q 422 3509 836 4129 
Q 1250 4750 2034 4750 
z
" transform="scale(0.015625)"/>
       <path id="DejaVuSans-2e" d="M 684 794 
L 1344 794 
L 1344 0 
L 684 0 
L 684 794 
z
" transform="scale(0.015625)"/>
       <path id="DejaVuSans-35" d="M 691 4666 
L 3169 4666 
L 3169 4134 
L 1269 4134 
L 1269 2991 
Q 1406 3038 1543 3061 
Q 1681 3084 1819 3084 
Q 2600 3084 3056 2656 
Q 3513 2228 3513 1497 
Q 3513 744 3044 326 
Q 2575 -91 1722 -91 
Q 1428 -91 1123 -41 
Q 819 9 494 109 
L 494 744 
Q 775 591 1075 516 
Q 1375 441 1709 441 
Q 2250 441 2565 725 
Q 2881 1009 2881 1497 
Q 2881 1984 2565 2268 
Q 2250 2553 1709 2553 
Q 1456 2553 1204 2497 
Q 953 2441 691 2322 
L 691 4666 
z
" transform="scale(0.015625)"/>
      </defs>
      <use xlink:href="#DejaVuSans-30"/>
      <use xlink:href="#DejaVuSans-2e" transform="translate(63.623047 0)"/>
      <use xlink:href="#DejaVuSans-35" transform="translate(95.410156 0)"/>
     </g>
    </g>
   </g>
   <g id="text_2">
    <g id="patch_14">
     <path d="M 358.615522 303.764796 
L 368.84423 296.199378 
Q 370.773796 294.772221 369.346639 292.842656 
L 364.742572 286.617797 
Q 363.315415 284.688231 361.385849 286.115388 
L 351.157141 293.680805 
Q 349.227576 295.107962 350.654733 297.037527 
L 355.2588 303.262387 
Q 356.685956 305.191952 358.615522 303.764796 
z
" clip-path="url(#p64c44c4161)" style="fill: #ffffff; stroke: #ffffff; stroke-linejoin: miter"/>
    </g>
    <g clip-path="url(#p64c44c4161)">
     <!-- 1.0 -->
     <g transform="translate(356.199019 300.497599) rotate(-36.487589) scale(0.08 -0.08)">
      <defs>
       <path id="DejaVuSans-31" d="M 794 531 
L 1825 531 
L 1825 4091 
L 703 3866 
L 703 4441 
L 1819 4666 
L 2450 4666 
L 2450 531 
L 3481 531 
L 3481 0 
L 794 0 
L 794 531 
z
" transform="scale(0.015625)"/>
      </defs>
      <use xlink:href="#DejaVuSans-31"/>
      <use xlink:href="#DejaVuSans-2e" transform="translate(63.623047 0)"/>
      <use xlink:href="#DejaVuSans-30" transform="translate(95.410156 0)"/>
     </g>
    </g>
   </g>
   <g id="text_3">
    <g id="patch_15">
     <path d="M 359.282864 339.418061 
L 368.915067 331.106463 
Q 370.732107 329.538545 369.164189 327.721505 
L 364.10602 321.859659 
Q 362.538102 320.04262 360.721063 321.610538 
L 351.088859 329.922136 
Q 349.27182 331.490054 350.839738 333.307094 
L 355.897906 339.168939 
Q 357.465824 340.985979 359.282864 339.418061 
z
" clip-path="url(#p64c44c4161)" style="fill: #ffffff; stroke: #ffffff; stroke-linejoin: miter"/>
    </g>
    <g clip-path="url(#p64c44c4161)">
     <!-- 1.0 -->
     <g transform="translate(356.628019 336.341397) rotate(-40.790807) scale(0.08 -0.08)">
      <use xlink:href="#DejaVuSans-31"/>
      <use xlink:href="#DejaVuSans-2e" transform="translate(63.623047 0)"/>
      <use xlink:href="#DejaVuSans-30" transform="translate(95.410156 0)"/>
     </g>
    </g>
   </g>
   <g id="text_4">
    <g id="patch_16">
     <path d="M 356.209616 267.453283 
L 368.14229 263.040425 
Q 370.393295 262.207975 369.560844 259.956969 
L 366.875323 252.695132 
Q 366.042872 250.444126 363.791866 251.276577 
L 351.859193 255.689435 
Q 349.608187 256.521886 350.440638 258.772891 
L 353.12616 266.034728 
Q 353.958611 268.285734 356.209616 267.453283 
z
" clip-path="url(#p64c44c4161)" style="fill: #ffffff; stroke: #ffffff; stroke-linejoin: miter"/>
    </g>
    <g clip-path="url(#p64c44c4161)">
     <!-- 1.0 -->
     <g transform="translate(354.800086 263.641815) rotate(-20.295047) scale(0.08 -0.08)">
      <use xlink:href="#DejaVuSans-31"/>
      <use xlink:href="#DejaVuSans-2e" transform="translate(63.623047 0)"/>
      <use xlink:href="#DejaVuSans-30" transform="translate(95.410156 0)"/>
     </g>
    </g>
   </g>
   <g id="text_5">
    <g id="patch_17">
     <path d="M 358.615522 374.915585 
L 368.84423 367.350168 
Q 370.773796 365.923011 369.346639 363.993445 
L 364.742572 357.768586 
Q 363.315415 355.83902 361.385849 357.266177 
L 351.157141 364.831594 
Q 349.227576 366.258751 350.654733 368.188317 
L 355.2588 374.413176 
Q 356.685956 376.342742 358.615522 374.915585 
z
" clip-path="url(#p64c44c4161)" style="fill: #ffffff; stroke: #ffffff; stroke-linejoin: miter"/>
    </g>
    <g clip-path="url(#p64c44c4161)">
     <!-- 1.0 -->
     <g transform="translate(356.199019 371.648388) rotate(-36.487589) scale(0.08 -0.08)">
      <use xlink:href="#DejaVuSans-31"/>
      <use xlink:href="#DejaVuSans-2e" transform="translate(63.623047 0)"/>
      <use xlink:href="#DejaVuSans-30" transform="translate(95.410156 0)"/>
     </g>
    </g>
   </g>
   <g id="text_6">
    <g id="patch_18">
     <path d="M 357.873783 339.193264 
L 368.704312 332.517814 
Q 370.747407 331.258542 369.488136 329.215448 
L 365.425674 322.624339 
Q 364.166402 320.581245 362.123308 321.840516 
L 351.292778 328.515966 
Q 349.249683 329.775238 350.508955 331.818332 
L 354.571417 338.409441 
Q 355.830688 340.452535 357.873783 339.193264 
z
" clip-path="url(#p64c44c4161)" style="fill: #ffffff; stroke: #ffffff; stroke-linejoin: miter"/>
    </g>
    <g clip-path="url(#p64c44c4161)">
     <!-- 1.0 -->
     <g transform="translate(355.741548 335.733837) rotate(-31.647809) scale(0.08 -0.08)">
      <use xlink:href="#DejaVuSans-31"/>
      <use xlink:href="#DejaVuSans-2e" transform="translate(63.623047 0)"/>
      <use xlink:href="#DejaVuSans-30" transform="translate(95.410156 0)"/>
     </g>
    </g>
   </g>
   <g id="text_7">
    <g id="patch_19">
     <path d="M 357.067974 303.378515 
L 368.478716 297.752062 
Q 370.631263 296.690675 369.569876 294.538128 
L 366.1458 287.593922 
Q 365.084413 285.441375 362.931866 286.502761 
L 351.521125 292.129215 
Q 349.368577 293.190601 350.429964 295.343148 
L 353.854041 302.287355 
Q 354.915427 304.439902 357.067974 303.378515 
z
" clip-path="url(#p64c44c4161)" style="fill: #ffffff; stroke: #ffffff; stroke-linejoin: miter"/>
    </g>
    <g clip-path="url(#p64c44c4161)">
     <!-- 1.0 -->
     <g transform="translate(355.270804 299.73376) rotate(-26.247166) scale(0.08 -0.08)">
      <use xlink:href="#DejaVuSans-31"/>
      <use xlink:href="#DejaVuSans-2e" transform="translate(63.623047 0)"/>
      <use xlink:href="#DejaVuSans-30" transform="translate(95.410156 0)"/>
     </g>
    </g>
   </g>
   <g id="text_8">
    <g id="patch_20">
     <path d="M 352.918153 193.660147 
L 365.545077 195.21668 
Q 367.927047 195.510308 368.220675 193.128338 
L 369.167931 185.444002 
Q 369.461559 183.062032 367.079588 182.768404 
L 354.452664 181.211871 
Q 352.070694 180.918243 351.777066 183.300213 
L 350.829811 190.984549 
Q 350.536183 193.366519 352.918153 193.660147 
z
" clip-path="url(#p64c44c4161)" style="fill: #ffffff; stroke: #ffffff; stroke-linejoin: miter"/>
    </g>
    <g clip-path="url(#p64c44c4161)">
     <!-- 1.0 -->
     <g transform="translate(353.415332 189.626925) rotate(-352.972546) scale(0.08 -0.08)">
      <use xlink:href="#DejaVuSans-31"/>
      <use xlink:href="#DejaVuSans-2e" transform="translate(63.623047 0)"/>
      <use xlink:href="#DejaVuSans-30" transform="translate(95.410156 0)"/>
     </g>
    </g>
   </g>
   <g id="text_9">
    <g id="patch_21">
     <path d="M 357.876692 410.34226 
L 368.707222 403.66681 
Q 370.750317 402.407538 369.491045 400.364444 
L 365.428583 393.773335 
Q 364.169312 391.730241 362.126217 392.989512 
L 351.295688 399.664962 
Q 349.252593 400.924234 350.511864 402.967328 
L 354.574326 409.558437 
Q 355.833598 411.601531 357.876692 410.34226 
z
" clip-path="url(#p64c44c4161)" style="fill: #ffffff; stroke: #ffffff; stroke-linejoin: miter"/>
    </g>
    <g clip-path="url(#p64c44c4161)">
     <!-- 1.0 -->
     <g transform="translate(355.744457 406.882833) rotate(-31.647809) scale(0.08 -0.08)">
      <use xlink:href="#DejaVuSans-31"/>
      <use xlink:href="#DejaVuSans-2e" transform="translate(63.623047 0)"/>
      <use xlink:href="#DejaVuSans-30" transform="translate(95.410156 0)"/>
     </g>
    </g>
   </g>
   <g id="text_10">
    <g id="patch_22">
     <path d="M 357.067974 374.529305 
L 368.478716 368.902851 
Q 370.631263 367.841465 369.569876 365.688918 
L 366.1458 358.744711 
Q 365.084413 356.592164 362.931866 357.65355 
L 351.521125 363.280004 
Q 349.368577 364.34139 350.429964 366.493937 
L 353.854041 373.438144 
Q 354.915427 375.590691 357.067974 374.529305 
z
" clip-path="url(#p64c44c4161)" style="fill: #ffffff; stroke: #ffffff; stroke-linejoin: miter"/>
    </g>
    <g clip-path="url(#p64c44c4161)">
     <!-- 1.0 -->
     <g transform="translate(355.270804 370.884549) rotate(-26.247166) scale(0.08 -0.08)">
      <use xlink:href="#DejaVuSans-31"/>
      <use xlink:href="#DejaVuSans-2e" transform="translate(63.623047 0)"/>
      <use xlink:href="#DejaVuSans-30" transform="translate(95.410156 0)"/>
     </g>
    </g>
   </g>
   <g id="text_11">
    <g id="patch_23">
     <path d="M 353.638818 230.061059 
L 366.361318 230.061059 
Q 368.761318 230.061059 368.761318 227.661059 
L 368.761318 219.918559 
Q 368.761318 217.518559 366.361318 217.518559 
L 353.638818 217.518559 
Q 351.238818 217.518559 351.238818 219.918559 
L 351.238818 227.661059 
Q 351.238818 230.061059 353.638818 230.061059 
z
" clip-path="url(#p64c44c4161)" style="fill: #ffffff; stroke: #ffffff; stroke-linejoin: miter"/>
    </g>
    <g clip-path="url(#p64c44c4161)">
     <!-- 1.0 -->
     <g transform="translate(353.638818 225.997309) scale(0.08 -0.08)">
      <use xlink:href="#DejaVuSans-31"/>
      <use xlink:href="#DejaVuSans-2e" transform="translate(63.623047 0)"/>
      <use xlink:href="#DejaVuSans-30" transform="translate(95.410156 0)"/>
     </g>
    </g>
   </g>
   <g id="PathCollection_1">
    <defs>
     <path id="C0_0_f355b76548" d="M 0 25.495098 
C 6.761379 25.495098 13.24674 22.808773 18.027756 18.027756 
C 22.808773 13.24674 25.495098 6.761379 25.495098 -0 
C 25.495098 -6.761379 22.808773 -13.24674 18.027756 -18.027756 
C 13.24674 -22.808773 6.761379 -25.495098 0 -25.495098 
C -6.761379 -25.495098 -13.24674 -22.808773 -18.027756 -18.027756 
C -22.808773 -13.24674 -25.495098 -6.761379 -25.495098 0 
C -25.495098 6.761379 -22.808773 13.24674 -18.027756 18.027756 
C -13.24674 22.808773 -6.761379 25.495098 0 25.495098 
z
"/>
    </defs>
    <g clip-path="url(#p64c44c4161)">
     <use xlink:href="#C0_0_f355b76548" x="71.404959" y="81.488231" style="fill: #81b29a; stroke: #81b29a"/>
    </g>
    <g clip-path="url(#p64c44c4161)">
     <use xlink:href="#C0_0_f355b76548" x="71.404959" y="152.63902" style="fill: #81b29a; stroke: #81b29a"/>
    </g>
    <g clip-path="url(#p64c44c4161)">
     <use xlink:href="#C0_0_f355b76548" x="71.404959" y="223.789809" style="fill: #81b29a; stroke: #81b29a"/>
    </g>
    <g clip-path="url(#p64c44c4161)">
     <use xlink:href="#C0_0_f355b76548" x="71.404959" y="294.940599" style="fill: #81b29a; stroke: #81b29a"/>
    </g>
    <g clip-path="url(#p64c44c4161)">
     <use xlink:href="#C0_0_f355b76548" x="71.404959" y="366.091388" style="fill: #81b29a; stroke: #81b29a"/>
    </g>
    <g clip-path="url(#p64c44c4161)">
     <use xlink:href="#C0_0_f355b76548" x="71.404959" y="437.242177" style="fill: #81b29a; stroke: #81b29a"/>
    </g>
    <g clip-path="url(#p64c44c4161)">
     <use xlink:href="#C0_0_f355b76548" x="71.404959" y="508.392967" style="fill: #f2cc8f; stroke: #f2cc8f"/>
    </g>
    <g clip-path="url(#p64c44c4161)">
     <use xlink:href="#C0_0_f355b76548" x="71.404959" y="579.543756" style="fill: #f2cc8f; stroke: #f2cc8f"/>
    </g>
    <g clip-path="url(#p64c44c4161)">
     <use xlink:href="#C0_0_f355b76548" x="71.404959" y="650.694545" style="fill: #f2cc8f; stroke: #f2cc8f"/>
    </g>
    <g clip-path="url(#p64c44c4161)">
     <use xlink:href="#C0_0_f355b76548" x="648.595041" y="81.488231" style="fill: #6d597a; stroke: #6d597a"/>
    </g>
    <g clip-path="url(#p64c44c4161)">
     <use xlink:href="#C0_0_f355b76548" x="648.595041" y="152.63902" style="fill: #6d597a; stroke: #6d597a"/>
    </g>
    <g clip-path="url(#p64c44c4161)">
     <use xlink:href="#C0_0_f355b76548" x="648.595041" y="223.789809" style="fill: #6d597a; stroke: #6d597a"/>
    </g>
   </g>
   <g id="text_12">
    <g clip-path="url(#p64c44c4161)">
     <!-- AR -->
     <g transform="translate(65.889334 79.216606) scale(0.08 -0.08)">
      <defs>
       <path id="DejaVuSans-41" d="M 2188 4044 
L 1331 1722 
L 3047 1722 
L 2188 4044 
z
M 1831 4666 
L 2547 4666 
L 4325 0 
L 3669 0 
L 3244 1197 
L 1141 1197 
L 716 0 
L 50 0 
L 1831 4666 
z
" transform="scale(0.015625)"/>
       <path id="DejaVuSans-52" d="M 2841 2188 
Q 3044 2119 3236 1894 
Q 3428 1669 3622 1275 
L 4263 0 
L 3584 0 
L 2988 1197 
Q 2756 1666 2539 1819 
Q 2322 1972 1947 1972 
L 1259 1972 
L 1259 0 
L 628 0 
L 628 4666 
L 2053 4666 
Q 2853 4666 3247 4331 
Q 3641 3997 3641 3322 
Q 3641 2881 3436 2590 
Q 3231 2300 2841 2188 
z
M 1259 4147 
L 1259 2491 
L 2053 2491 
Q 2509 2491 2742 2702 
Q 2975 2913 2975 3322 
Q 2975 3731 2742 3939 
Q 2509 4147 2053 4147 
L 1259 4147 
z
" transform="scale(0.015625)"/>
      </defs>
      <use xlink:href="#DejaVuSans-41"/>
      <use xlink:href="#DejaVuSans-52" transform="translate(68.408203 0)"/>
     </g>
    </g>
    <g clip-path="url(#p64c44c4161)">
     <!-- Argon -->
     <g transform="translate(59.572459 88.174856) scale(0.08 -0.08)">
      <defs>
       <path id="DejaVuSans-72" d="M 2631 2963 
Q 2534 3019 2420 3045 
Q 2306 3072 2169 3072 
Q 1681 3072 1420 2755 
Q 1159 2438 1159 1844 
L 1159 0 
L 581 0 
L 581 3500 
L 1159 3500 
L 1159 2956 
Q 1341 3275 1631 3429 
Q 1922 3584 2338 3584 
Q 2397 3584 2469 3576 
Q 2541 3569 2628 3553 
L 2631 2963 
z
" transform="scale(0.015625)"/>
       <path id="DejaVuSans-67" d="M 2906 1791 
Q 2906 2416 2648 2759 
Q 2391 3103 1925 3103 
Q 1463 3103 1205 2759 
Q 947 2416 947 1791 
Q 947 1169 1205 825 
Q 1463 481 1925 481 
Q 2391 481 2648 825 
Q 2906 1169 2906 1791 
z
M 3481 434 
Q 3481 -459 3084 -895 
Q 2688 -1331 1869 -1331 
Q 1566 -1331 1297 -1286 
Q 1028 -1241 775 -1147 
L 775 -588 
Q 1028 -725 1275 -790 
Q 1522 -856 1778 -856 
Q 2344 -856 2625 -561 
Q 2906 -266 2906 331 
L 2906 616 
Q 2728 306 2450 153 
Q 2172 0 1784 0 
Q 1141 0 747 490 
Q 353 981 353 1791 
Q 353 2603 747 3093 
Q 1141 3584 1784 3584 
Q 2172 3584 2450 3431 
Q 2728 3278 2906 2969 
L 2906 3500 
L 3481 3500 
L 3481 434 
z
" transform="scale(0.015625)"/>
       <path id="DejaVuSans-6f" d="M 1959 3097 
Q 1497 3097 1228 2736 
Q 959 2375 959 1747 
Q 959 1119 1226 758 
Q 1494 397 1959 397 
Q 2419 397 2687 759 
Q 2956 1122 2956 1747 
Q 2956 2369 2687 2733 
Q 2419 3097 1959 3097 
z
M 1959 3584 
Q 2709 3584 3137 3096 
Q 3566 2609 3566 1747 
Q 3566 888 3137 398 
Q 2709 -91 1959 -91 
Q 1206 -91 779 398 
Q 353 888 353 1747 
Q 353 2609 779 3096 
Q 1206 3584 1959 3584 
z
" transform="scale(0.015625)"/>
       <path id="DejaVuSans-6e" d="M 3513 2113 
L 3513 0 
L 2938 0 
L 2938 2094 
Q 2938 2591 2744 2837 
Q 2550 3084 2163 3084 
Q 1697 3084 1428 2787 
Q 1159 2491 1159 1978 
L 1159 0 
L 581 0 
L 581 3500 
L 1159 3500 
L 1159 2956 
Q 1366 3272 1645 3428 
Q 1925 3584 2291 3584 
Q 2894 3584 3203 3211 
Q 3513 2838 3513 2113 
z
" transform="scale(0.015625)"/>
      </defs>
      <use xlink:href="#DejaVuSans-41"/>
      <use xlink:href="#DejaVuSans-72" transform="translate(68.408203 0)"/>
      <use xlink:href="#DejaVuSans-67" transform="translate(107.771484 0)"/>
      <use xlink:href="#DejaVuSans-6f" transform="translate(171.248047 0)"/>
      <use xlink:href="#DejaVuSans-6e" transform="translate(232.429688 0)"/>
     </g>
    </g>
   </g>
   <g id="text_13">
    <g clip-path="url(#p64c44c4161)">
     <!-- H2 -->
     <g transform="translate(65.851834 150.367395) scale(0.08 -0.08)">
      <defs>
       <path id="DejaVuSans-48" d="M 628 4666 
L 1259 4666 
L 1259 2753 
L 3553 2753 
L 3553 4666 
L 4184 4666 
L 4184 0 
L 3553 0 
L 3553 2222 
L 1259 2222 
L 1259 0 
L 628 0 
L 628 4666 
z
" transform="scale(0.015625)"/>
       <path id="DejaVuSans-32" d="M 1228 531 
L 3431 531 
L 3431 0 
L 469 0 
L 469 531 
Q 828 903 1448 1529 
Q 2069 2156 2228 2338 
Q 2531 2678 2651 2914 
Q 2772 3150 2772 3378 
Q 2772 3750 2511 3984 
Q 2250 4219 1831 4219 
Q 1534 4219 1204 4116 
Q 875 4013 500 3803 
L 500 4441 
Q 881 4594 1212 4672 
Q 1544 4750 1819 4750 
Q 2544 4750 2975 4387 
Q 3406 4025 3406 3419 
Q 3406 3131 3298 2873 
Q 3191 2616 2906 2266 
Q 2828 2175 2409 1742 
Q 1991 1309 1228 531 
z
" transform="scale(0.015625)"/>
      </defs>
      <use xlink:href="#DejaVuSans-48"/>
      <use xlink:href="#DejaVuSans-32" transform="translate(75.195312 0)"/>
     </g>
    </g>
    <g clip-path="url(#p64c44c4161)">
     <!-- Hydrogen -->
     <g transform="translate(51.952459 159.325645) scale(0.08 -0.08)">
      <defs>
       <path id="DejaVuSans-79" d="M 2059 -325 
Q 1816 -950 1584 -1140 
Q 1353 -1331 966 -1331 
L 506 -1331 
L 506 -850 
L 844 -850 
Q 1081 -850 1212 -737 
Q 1344 -625 1503 -206 
L 1606 56 
L 191 3500 
L 800 3500 
L 1894 763 
L 2988 3500 
L 3597 3500 
L 2059 -325 
z
" transform="scale(0.015625)"/>
       <path id="DejaVuSans-64" d="M 2906 2969 
L 2906 4863 
L 3481 4863 
L 3481 0 
L 2906 0 
L 2906 525 
Q 2725 213 2448 61 
Q 2172 -91 1784 -91 
Q 1150 -91 751 415 
Q 353 922 353 1747 
Q 353 2572 751 3078 
Q 1150 3584 1784 3584 
Q 2172 3584 2448 3432 
Q 2725 3281 2906 2969 
z
M 947 1747 
Q 947 1113 1208 752 
Q 1469 391 1925 391 
Q 2381 391 2643 752 
Q 2906 1113 2906 1747 
Q 2906 2381 2643 2742 
Q 2381 3103 1925 3103 
Q 1469 3103 1208 2742 
Q 947 2381 947 1747 
z
" transform="scale(0.015625)"/>
       <path id="DejaVuSans-65" d="M 3597 1894 
L 3597 1613 
L 953 1613 
Q 991 1019 1311 708 
Q 1631 397 2203 397 
Q 2534 397 2845 478 
Q 3156 559 3463 722 
L 3463 178 
Q 3153 47 2828 -22 
Q 2503 -91 2169 -91 
Q 1331 -91 842 396 
Q 353 884 353 1716 
Q 353 2575 817 3079 
Q 1281 3584 2069 3584 
Q 2775 3584 3186 3129 
Q 3597 2675 3597 1894 
z
M 3022 2063 
Q 3016 2534 2758 2815 
Q 2500 3097 2075 3097 
Q 1594 3097 1305 2825 
Q 1016 2553 972 2059 
L 3022 2063 
z
" transform="scale(0.015625)"/>
      </defs>
      <use xlink:href="#DejaVuSans-48"/>
      <use xlink:href="#DejaVuSans-79" transform="translate(75.195312 0)"/>
      <use xlink:href="#DejaVuSans-64" transform="translate(134.375 0)"/>
      <use xlink:href="#DejaVuSans-72" transform="translate(197.851562 0)"/>
      <use xlink:href="#DejaVuSans-6f" transform="translate(236.714844 0)"/>
      <use xlink:href="#DejaVuSans-67" transform="translate(297.896484 0)"/>
      <use xlink:href="#DejaVuSans-65" transform="translate(361.373047 0)"/>
      <use xlink:href="#DejaVuSans-6e" transform="translate(422.896484 0)"/>
     </g>
    </g>
   </g>
   <g id="text_14">
    <g clip-path="url(#p64c44c4161)">
     <!-- H2O -->
     <g transform="translate(62.703084 221.518184) scale(0.08 -0.08)">
      <defs>
       <path id="DejaVuSans-4f" d="M 2522 4238 
Q 1834 4238 1429 3725 
Q 1025 3213 1025 2328 
Q 1025 1447 1429 934 
Q 1834 422 2522 422 
Q 3209 422 3611 934 
Q 4013 1447 4013 2328 
Q 4013 3213 3611 3725 
Q 3209 4238 2522 4238 
z
M 2522 4750 
Q 3503 4750 4090 4092 
Q 4678 3434 4678 2328 
Q 4678 1225 4090 567 
Q 3503 -91 2522 -91 
Q 1538 -91 948 565 
Q 359 1222 359 2328 
Q 359 3434 948 4092 
Q 1538 4750 2522 4750 
z
" transform="scale(0.015625)"/>
      </defs>
      <use xlink:href="#DejaVuSans-48"/>
      <use xlink:href="#DejaVuSans-32" transform="translate(75.195312 0)"/>
      <use xlink:href="#DejaVuSans-4f" transform="translate(138.818359 0)"/>
     </g>
    </g>
    <g clip-path="url(#p64c44c4161)">
     <!-- Water -->
     <g transform="translate(59.579959 230.476434) scale(0.08 -0.08)">
      <defs>
       <path id="DejaVuSans-57" d="M 213 4666 
L 850 4666 
L 1831 722 
L 2809 4666 
L 3519 4666 
L 4500 722 
L 5478 4666 
L 6119 4666 
L 4947 0 
L 4153 0 
L 3169 4050 
L 2175 0 
L 1381 0 
L 213 4666 
z
" transform="scale(0.015625)"/>
       <path id="DejaVuSans-61" d="M 2194 1759 
Q 1497 1759 1228 1600 
Q 959 1441 959 1056 
Q 959 750 1161 570 
Q 1363 391 1709 391 
Q 2188 391 2477 730 
Q 2766 1069 2766 1631 
L 2766 1759 
L 2194 1759 
z
M 3341 1997 
L 3341 0 
L 2766 0 
L 2766 531 
Q 2569 213 2275 61 
Q 1981 -91 1556 -91 
Q 1019 -91 701 211 
Q 384 513 384 1019 
Q 384 1609 779 1909 
Q 1175 2209 1959 2209 
L 2766 2209 
L 2766 2266 
Q 2766 2663 2505 2880 
Q 2244 3097 1772 3097 
Q 1472 3097 1187 3025 
Q 903 2953 641 2809 
L 641 3341 
Q 956 3463 1253 3523 
Q 1550 3584 1831 3584 
Q 2591 3584 2966 3190 
Q 3341 2797 3341 1997 
z
" transform="scale(0.015625)"/>
       <path id="DejaVuSans-74" d="M 1172 4494 
L 1172 3500 
L 2356 3500 
L 2356 3053 
L 1172 3053 
L 1172 1153 
Q 1172 725 1289 603 
Q 1406 481 1766 481 
L 2356 481 
L 2356 0 
L 1766 0 
Q 1100 0 847 248 
Q 594 497 594 1153 
L 594 3053 
L 172 3053 
L 172 3500 
L 594 3500 
L 594 4494 
L 1172 4494 
z
" transform="scale(0.015625)"/>
      </defs>
      <use xlink:href="#DejaVuSans-57"/>
      <use xlink:href="#DejaVuSans-61" transform="translate(92.501953 0)"/>
      <use xlink:href="#DejaVuSans-74" transform="translate(153.78125 0)"/>
      <use xlink:href="#DejaVuSans-65" transform="translate(192.990234 0)"/>
      <use xlink:href="#DejaVuSans-72" transform="translate(254.513672 0)"/>
     </g>
    </g>
   </g>
   <g id="text_15">
    <g clip-path="url(#p64c44c4161)">
     <!-- O2 -->
     <g transform="translate(65.711209 292.668974) scale(0.08 -0.08)">
      <use xlink:href="#DejaVuSans-4f"/>
      <use xlink:href="#DejaVuSans-32" transform="translate(78.710938 0)"/>
     </g>
    </g>
    <g clip-path="url(#p64c44c4161)">
     <!-- Oxygen -->
     <g transform="translate(55.985584 301.627224) scale(0.08 -0.08)">
      <defs>
       <path id="DejaVuSans-78" d="M 3513 3500 
L 2247 1797 
L 3578 0 
L 2900 0 
L 1881 1375 
L 863 0 
L 184 0 
L 1544 1831 
L 300 3500 
L 978 3500 
L 1906 2253 
L 2834 3500 
L 3513 3500 
z
" transform="scale(0.015625)"/>
      </defs>
      <use xlink:href="#DejaVuSans-4f"/>
      <use xlink:href="#DejaVuSans-78" transform="translate(78.710938 0)"/>
      <use xlink:href="#DejaVuSans-79" transform="translate(137.890625 0)"/>
      <use xlink:href="#DejaVuSans-67" transform="translate(197.070312 0)"/>
      <use xlink:href="#DejaVuSans-65" transform="translate(260.546875 0)"/>
      <use xlink:href="#DejaVuSans-6e" transform="translate(322.070312 0)"/>
     </g>
    </g>
   </g>
   <g id="text_16">
    <g clip-path="url(#p64c44c4161)">
     <!-- CO -->
     <g transform="translate(65.463084 363.819763) scale(0.08 -0.08)">
      <defs>
       <path id="DejaVuSans-43" d="M 4122 4306 
L 4122 3641 
Q 3803 3938 3442 4084 
Q 3081 4231 2675 4231 
Q 1875 4231 1450 3742 
Q 1025 3253 1025 2328 
Q 1025 1406 1450 917 
Q 1875 428 2675 428 
Q 3081 428 3442 575 
Q 3803 722 4122 1019 
L 4122 359 
Q 3791 134 3420 21 
Q 3050 -91 2638 -91 
Q 1578 -91 968 557 
Q 359 1206 359 2328 
Q 359 3453 968 4101 
Q 1578 4750 2638 4750 
Q 3056 4750 3426 4639 
Q 3797 4528 4122 4306 
z
" transform="scale(0.015625)"/>
      </defs>
      <use xlink:href="#DejaVuSans-43"/>
      <use xlink:href="#DejaVuSans-4f" transform="translate(69.824219 0)"/>
     </g>
    </g>
    <g clip-path="url(#p64c44c4161)">
     <!-- Carbon Monoxide -->
     <g transform="translate(36.487459 372.778013) scale(0.08 -0.08)">
      <defs>
       <path id="DejaVuSans-62" d="M 3116 1747 
Q 3116 2381 2855 2742 
Q 2594 3103 2138 3103 
Q 1681 3103 1420 2742 
Q 1159 2381 1159 1747 
Q 1159 1113 1420 752 
Q 1681 391 2138 391 
Q 2594 391 2855 752 
Q 3116 1113 3116 1747 
z
M 1159 2969 
Q 1341 3281 1617 3432 
Q 1894 3584 2278 3584 
Q 2916 3584 3314 3078 
Q 3713 2572 3713 1747 
Q 3713 922 3314 415 
Q 2916 -91 2278 -91 
Q 1894 -91 1617 61 
Q 1341 213 1159 525 
L 1159 0 
L 581 0 
L 581 4863 
L 1159 4863 
L 1159 2969 
z
" transform="scale(0.015625)"/>
       <path id="DejaVuSans-20" transform="scale(0.015625)"/>
       <path id="DejaVuSans-4d" d="M 628 4666 
L 1569 4666 
L 2759 1491 
L 3956 4666 
L 4897 4666 
L 4897 0 
L 4281 0 
L 4281 4097 
L 3078 897 
L 2444 897 
L 1241 4097 
L 1241 0 
L 628 0 
L 628 4666 
z
" transform="scale(0.015625)"/>
       <path id="DejaVuSans-69" d="M 603 3500 
L 1178 3500 
L 1178 0 
L 603 0 
L 603 3500 
z
M 603 4863 
L 1178 4863 
L 1178 4134 
L 603 4134 
L 603 4863 
z
" transform="scale(0.015625)"/>
      </defs>
      <use xlink:href="#DejaVuSans-43"/>
      <use xlink:href="#DejaVuSans-61" transform="translate(69.824219 0)"/>
      <use xlink:href="#DejaVuSans-72" transform="translate(131.103516 0)"/>
      <use xlink:href="#DejaVuSans-62" transform="translate(172.216797 0)"/>
      <use xlink:href="#DejaVuSans-6f" transform="translate(235.693359 0)"/>
      <use xlink:href="#DejaVuSans-6e" transform="translate(296.875 0)"/>
      <use xlink:href="#DejaVuSans-20" transform="translate(360.253906 0)"/>
      <use xlink:href="#DejaVuSans-4d" transform="translate(392.041016 0)"/>
      <use xlink:href="#DejaVuSans-6f" transform="translate(478.320312 0)"/>
      <use xlink:href="#DejaVuSans-6e" transform="translate(539.501953 0)"/>
      <use xlink:href="#DejaVuSans-6f" transform="translate(602.880859 0)"/>
      <use xlink:href="#DejaVuSans-78" transform="translate(660.9375 0)"/>
      <use xlink:href="#DejaVuSans-69" transform="translate(720.117188 0)"/>
      <use xlink:href="#DejaVuSans-64" transform="translate(747.900391 0)"/>
      <use xlink:href="#DejaVuSans-65" transform="translate(811.376953 0)"/>
     </g>
    </g>
   </g>
   <g id="text_17">
    <g clip-path="url(#p64c44c4161)">
     <!-- CO2 -->
     <g transform="translate(62.918084 434.970552) scale(0.08 -0.08)">
      <use xlink:href="#DejaVuSans-43"/>
      <use xlink:href="#DejaVuSans-4f" transform="translate(69.824219 0)"/>
      <use xlink:href="#DejaVuSans-32" transform="translate(148.535156 0)"/>
     </g>
    </g>
    <g clip-path="url(#p64c44c4161)">
     <!-- Carbon Dioxide -->
     <g transform="translate(40.729959 443.928802) scale(0.08 -0.08)">
      <defs>
       <path id="DejaVuSans-44" d="M 1259 4147 
L 1259 519 
L 2022 519 
Q 2988 519 3436 956 
Q 3884 1394 3884 2338 
Q 3884 3275 3436 3711 
Q 2988 4147 2022 4147 
L 1259 4147 
z
M 628 4666 
L 1925 4666 
Q 3281 4666 3915 4102 
Q 4550 3538 4550 2338 
Q 4550 1131 3912 565 
Q 3275 0 1925 0 
L 628 0 
L 628 4666 
z
" transform="scale(0.015625)"/>
      </defs>
      <use xlink:href="#DejaVuSans-43"/>
      <use xlink:href="#DejaVuSans-61" transform="translate(69.824219 0)"/>
      <use xlink:href="#DejaVuSans-72" transform="translate(131.103516 0)"/>
      <use xlink:href="#DejaVuSans-62" transform="translate(172.216797 0)"/>
      <use xlink:href="#DejaVuSans-6f" transform="translate(235.693359 0)"/>
      <use xlink:href="#DejaVuSans-6e" transform="translate(296.875 0)"/>
      <use xlink:href="#DejaVuSans-20" transform="translate(360.253906 0)"/>
      <use xlink:href="#DejaVuSans-44" transform="translate(392.041016 0)"/>
      <use xlink:href="#DejaVuSans-69" transform="translate(469.042969 0)"/>
      <use xlink:href="#DejaVuSans-6f" transform="translate(496.826172 0)"/>
      <use xlink:href="#DejaVuSans-78" transform="translate(554.882812 0)"/>
      <use xlink:href="#DejaVuSans-69" transform="translate(614.0625 0)"/>
      <use xlink:href="#DejaVuSans-64" transform="translate(641.845703 0)"/>
      <use xlink:href="#DejaVuSans-65" transform="translate(705.322266 0)"/>
     </g>
    </g>
   </g>
   <g id="text_18">
    <g clip-path="url(#p64c44c4161)">
     <!-- Ni -->
     <g transform="translate(67.301209 506.121342) scale(0.08 -0.08)">
      <defs>
       <path id="DejaVuSans-4e" d="M 628 4666 
L 1478 4666 
L 3547 763 
L 3547 4666 
L 4159 4666 
L 4159 0 
L 3309 0 
L 1241 3903 
L 1241 0 
L 628 0 
L 628 4666 
z
" transform="scale(0.015625)"/>
      </defs>
      <use xlink:href="#DejaVuSans-4e"/>
      <use xlink:href="#DejaVuSans-69" transform="translate(74.804688 0)"/>
     </g>
    </g>
    <g clip-path="url(#p64c44c4161)">
     <!-- Nickel -->
     <g transform="translate(59.358084 515.079592) scale(0.08 -0.08)">
      <defs>
       <path id="DejaVuSans-63" d="M 3122 3366 
L 3122 2828 
Q 2878 2963 2633 3030 
Q 2388 3097 2138 3097 
Q 1578 3097 1268 2742 
Q 959 2388 959 1747 
Q 959 1106 1268 751 
Q 1578 397 2138 397 
Q 2388 397 2633 464 
Q 2878 531 3122 666 
L 3122 134 
Q 2881 22 2623 -34 
Q 2366 -91 2075 -91 
Q 1284 -91 818 406 
Q 353 903 353 1747 
Q 353 2603 823 3093 
Q 1294 3584 2113 3584 
Q 2378 3584 2631 3529 
Q 2884 3475 3122 3366 
z
" transform="scale(0.015625)"/>
       <path id="DejaVuSans-6b" d="M 581 4863 
L 1159 4863 
L 1159 1991 
L 2875 3500 
L 3609 3500 
L 1753 1863 
L 3688 0 
L 2938 0 
L 1159 1709 
L 1159 0 
L 581 0 
L 581 4863 
z
" transform="scale(0.015625)"/>
       <path id="DejaVuSans-6c" d="M 603 4863 
L 1178 4863 
L 1178 0 
L 603 0 
L 603 4863 
z
" transform="scale(0.015625)"/>
      </defs>
      <use xlink:href="#DejaVuSans-4e"/>
      <use xlink:href="#DejaVuSans-69" transform="translate(74.804688 0)"/>
      <use xlink:href="#DejaVuSans-63" transform="translate(102.587891 0)"/>
      <use xlink:href="#DejaVuSans-6b" transform="translate(157.568359 0)"/>
      <use xlink:href="#DejaVuSans-65" transform="translate(211.853516 0)"/>
      <use xlink:href="#DejaVuSans-6c" transform="translate(273.376953 0)"/>
     </g>
    </g>
   </g>
   <g id="text_19">
    <g clip-path="url(#p64c44c4161)">
     <!-- NiO -->
     <g transform="translate(64.152459 577.272131) scale(0.08 -0.08)">
      <use xlink:href="#DejaVuSans-4e"/>
      <use xlink:href="#DejaVuSans-69" transform="translate(74.804688 0)"/>
      <use xlink:href="#DejaVuSans-4f" transform="translate(102.587891 0)"/>
     </g>
    </g>
    <g clip-path="url(#p64c44c4161)">
     <!-- Nickel Oxide -->
     <g transform="translate(46.458709 586.230381) scale(0.08 -0.08)">
      <use xlink:href="#DejaVuSans-4e"/>
      <use xlink:href="#DejaVuSans-69" transform="translate(74.804688 0)"/>
      <use xlink:href="#DejaVuSans-63" transform="translate(102.587891 0)"/>
      <use xlink:href="#DejaVuSans-6b" transform="translate(157.568359 0)"/>
      <use xlink:href="#DejaVuSans-65" transform="translate(211.853516 0)"/>
      <use xlink:href="#DejaVuSans-6c" transform="translate(273.376953 0)"/>
      <use xlink:href="#DejaVuSans-20" transform="translate(301.160156 0)"/>
      <use xlink:href="#DejaVuSans-4f" transform="translate(332.947266 0)"/>
      <use xlink:href="#DejaVuSans-78" transform="translate(411.658203 0)"/>
      <use xlink:href="#DejaVuSans-69" transform="translate(470.837891 0)"/>
      <use xlink:href="#DejaVuSans-64" transform="translate(498.621094 0)"/>
      <use xlink:href="#DejaVuSans-65" transform="translate(562.097656 0)"/>
     </g>
    </g>
   </g>
   <g id="text_20">
    <g clip-path="url(#p64c44c4161)">
     <!-- CaAl2O4 -->
     <g transform="translate(54.074334 648.42292) scale(0.08 -0.08)">
      <defs>
       <path id="DejaVuSans-34" d="M 2419 4116 
L 825 1625 
L 2419 1625 
L 2419 4116 
z
M 2253 4666 
L 3047 4666 
L 3047 1625 
L 3713 1625 
L 3713 1100 
L 3047 1100 
L 3047 0 
L 2419 0 
L 2419 1100 
L 313 1100 
L 313 1709 
L 2253 4666 
z
" transform="scale(0.015625)"/>
      </defs>
      <use xlink:href="#DejaVuSans-43"/>
      <use xlink:href="#DejaVuSans-61" transform="translate(69.824219 0)"/>
      <use xlink:href="#DejaVuSans-41" transform="translate(131.103516 0)"/>
      <use xlink:href="#DejaVuSans-6c" transform="translate(199.511719 0)"/>
      <use xlink:href="#DejaVuSans-32" transform="translate(227.294922 0)"/>
      <use xlink:href="#DejaVuSans-4f" transform="translate(290.917969 0)"/>
      <use xlink:href="#DejaVuSans-34" transform="translate(369.628906 0)"/>
     </g>
    </g>
    <g clip-path="url(#p64c44c4161)">
     <!-- Calcium Aluminate -->
     <g transform="translate(33.630584 657.38117) scale(0.08 -0.08)">
      <defs>
       <path id="DejaVuSans-75" d="M 544 1381 
L 544 3500 
L 1119 3500 
L 1119 1403 
Q 1119 906 1312 657 
Q 1506 409 1894 409 
Q 2359 409 2629 706 
Q 2900 1003 2900 1516 
L 2900 3500 
L 3475 3500 
L 3475 0 
L 2900 0 
L 2900 538 
Q 2691 219 2414 64 
Q 2138 -91 1772 -91 
Q 1169 -91 856 284 
Q 544 659 544 1381 
z
M 1991 3584 
L 1991 3584 
z
" transform="scale(0.015625)"/>
       <path id="DejaVuSans-6d" d="M 3328 2828 
Q 3544 3216 3844 3400 
Q 4144 3584 4550 3584 
Q 5097 3584 5394 3201 
Q 5691 2819 5691 2113 
L 5691 0 
L 5113 0 
L 5113 2094 
Q 5113 2597 4934 2840 
Q 4756 3084 4391 3084 
Q 3944 3084 3684 2787 
Q 3425 2491 3425 1978 
L 3425 0 
L 2847 0 
L 2847 2094 
Q 2847 2600 2669 2842 
Q 2491 3084 2119 3084 
Q 1678 3084 1418 2786 
Q 1159 2488 1159 1978 
L 1159 0 
L 581 0 
L 581 3500 
L 1159 3500 
L 1159 2956 
Q 1356 3278 1631 3431 
Q 1906 3584 2284 3584 
Q 2666 3584 2933 3390 
Q 3200 3197 3328 2828 
z
" transform="scale(0.015625)"/>
      </defs>
      <use xlink:href="#DejaVuSans-43"/>
      <use xlink:href="#DejaVuSans-61" transform="translate(69.824219 0)"/>
      <use xlink:href="#DejaVuSans-6c" transform="translate(131.103516 0)"/>
      <use xlink:href="#DejaVuSans-63" transform="translate(158.886719 0)"/>
      <use xlink:href="#DejaVuSans-69" transform="translate(213.867188 0)"/>
      <use xlink:href="#DejaVuSans-75" transform="translate(241.650391 0)"/>
      <use xlink:href="#DejaVuSans-6d" transform="translate(305.029297 0)"/>
      <use xlink:href="#DejaVuSans-20" transform="translate(402.441406 0)"/>
      <use xlink:href="#DejaVuSans-41" transform="translate(434.228516 0)"/>
      <use xlink:href="#DejaVuSans-6c" transform="translate(502.636719 0)"/>
      <use xlink:href="#DejaVuSans-75" transform="translate(530.419922 0)"/>
      <use xlink:href="#DejaVuSans-6d" transform="translate(593.798828 0)"/>
      <use xlink:href="#DejaVuSans-69" transform="translate(691.210938 0)"/>
      <use xlink:href="#DejaVuSans-6e" transform="translate(718.994141 0)"/>
      <use xlink:href="#DejaVuSans-61" transform="translate(782.373047 0)"/>
      <use xlink:href="#DejaVuSans-74" transform="translate(843.652344 0)"/>
      <use xlink:href="#DejaVuSans-65" transform="translate(882.861328 0)"/>
     </g>
    </g>
   </g>
   <g id="text_21">
    <g clip-path="url(#p64c44c4161)">
     <!-- ni_oxidation_o2_medrano -->
     <g transform="translate(597.527541 83.584481) scale(0.08 -0.08)">
      <defs>
       <path id="DejaVuSans-5f" d="M 3263 -1063 
L 3263 -1509 
L -63 -1509 
L -63 -1063 
L 3263 -1063 
z
" transform="scale(0.015625)"/>
      </defs>
      <use xlink:href="#DejaVuSans-6e"/>
      <use xlink:href="#DejaVuSans-69" transform="translate(63.378906 0)"/>
      <use xlink:href="#DejaVuSans-5f" transform="translate(91.162109 0)"/>
      <use xlink:href="#DejaVuSans-6f" transform="translate(141.162109 0)"/>
      <use xlink:href="#DejaVuSans-78" transform="translate(199.21875 0)"/>
      <use xlink:href="#DejaVuSans-69" transform="translate(258.398438 0)"/>
      <use xlink:href="#DejaVuSans-64" transform="translate(286.181641 0)"/>
      <use xlink:href="#DejaVuSans-61" transform="translate(349.658203 0)"/>
      <use xlink:href="#DejaVuSans-74" transform="translate(410.9375 0)"/>
      <use xlink:href="#DejaVuSans-69" transform="translate(450.146484 0)"/>
      <use xlink:href="#DejaVuSans-6f" transform="translate(477.929688 0)"/>
      <use xlink:href="#DejaVuSans-6e" transform="translate(539.111328 0)"/>
      <use xlink:href="#DejaVuSans-5f" transform="translate(602.490234 0)"/>
      <use xlink:href="#DejaVuSans-6f" transform="translate(652.490234 0)"/>
      <use xlink:href="#DejaVuSans-32" transform="translate(713.671875 0)"/>
      <use xlink:href="#DejaVuSans-5f" transform="translate(777.294922 0)"/>
      <use xlink:href="#DejaVuSans-6d" transform="translate(827.294922 0)"/>
      <use xlink:href="#DejaVuSans-65" transform="translate(924.707031 0)"/>
      <use xlink:href="#DejaVuSans-64" transform="translate(986.230469 0)"/>
      <use xlink:href="#DejaVuSans-72" transform="translate(1049.707031 0)"/>
      <use xlink:href="#DejaVuSans-61" transform="translate(1090.820312 0)"/>
      <use xlink:href="#DejaVuSans-6e" transform="translate(1152.099609 0)"/>
      <use xlink:href="#DejaVuSans-6f" transform="translate(1215.478516 0)"/>
     </g>
    </g>
   </g>
   <g id="text_22">
    <g clip-path="url(#p64c44c4161)">
     <!-- ni_reduction_co_medrano -->
     <g transform="translate(597.375666 154.73527) scale(0.08 -0.08)">
      <use xlink:href="#DejaVuSans-6e"/>
      <use xlink:href="#DejaVuSans-69" transform="translate(63.378906 0)"/>
      <use xlink:href="#DejaVuSans-5f" transform="translate(91.162109 0)"/>
      <use xlink:href="#DejaVuSans-72" transform="translate(141.162109 0)"/>
      <use xlink:href="#DejaVuSans-65" transform="translate(180.025391 0)"/>
      <use xlink:href="#DejaVuSans-64" transform="translate(241.548828 0)"/>
      <use xlink:href="#DejaVuSans-75" transform="translate(305.025391 0)"/>
      <use xlink:href="#DejaVuSans-63" transform="translate(368.404297 0)"/>
      <use xlink:href="#DejaVuSans-74" transform="translate(423.384766 0)"/>
      <use xlink:href="#DejaVuSans-69" transform="translate(462.59375 0)"/>
      <use xlink:href="#DejaVuSans-6f" transform="translate(490.376953 0)"/>
      <use xlink:href="#DejaVuSans-6e" transform="translate(551.558594 0)"/>
      <use xlink:href="#DejaVuSans-5f" transform="translate(614.9375 0)"/>
      <use xlink:href="#DejaVuSans-63" transform="translate(664.9375 0)"/>
      <use xlink:href="#DejaVuSans-6f" transform="translate(719.917969 0)"/>
      <use xlink:href="#DejaVuSans-5f" transform="translate(781.099609 0)"/>
      <use xlink:href="#DejaVuSans-6d" transform="translate(831.099609 0)"/>
      <use xlink:href="#DejaVuSans-65" transform="translate(928.511719 0)"/>
      <use xlink:href="#DejaVuSans-64" transform="translate(990.035156 0)"/>
      <use xlink:href="#DejaVuSans-72" transform="translate(1053.511719 0)"/>
      <use xlink:href="#DejaVuSans-61" transform="translate(1094.625 0)"/>
      <use xlink:href="#DejaVuSans-6e" transform="translate(1155.904297 0)"/>
      <use xlink:href="#DejaVuSans-6f" transform="translate(1219.283203 0)"/>
     </g>
    </g>
   </g>
   <g id="text_23">
    <g clip-path="url(#p64c44c4161)">
     <!-- ni_reduction_h2_medrano -->
     <g transform="translate(596.942541 225.886059) scale(0.08 -0.08)">
      <defs>
       <path id="DejaVuSans-68" d="M 3513 2113 
L 3513 0 
L 2938 0 
L 2938 2094 
Q 2938 2591 2744 2837 
Q 2550 3084 2163 3084 
Q 1697 3084 1428 2787 
Q 1159 2491 1159 1978 
L 1159 0 
L 581 0 
L 581 4863 
L 1159 4863 
L 1159 2956 
Q 1366 3272 1645 3428 
Q 1925 3584 2291 3584 
Q 2894 3584 3203 3211 
Q 3513 2838 3513 2113 
z
" transform="scale(0.015625)"/>
      </defs>
      <use xlink:href="#DejaVuSans-6e"/>
      <use xlink:href="#DejaVuSans-69" transform="translate(63.378906 0)"/>
      <use xlink:href="#DejaVuSans-5f" transform="translate(91.162109 0)"/>
      <use xlink:href="#DejaVuSans-72" transform="translate(141.162109 0)"/>
      <use xlink:href="#DejaVuSans-65" transform="translate(180.025391 0)"/>
      <use xlink:href="#DejaVuSans-64" transform="translate(241.548828 0)"/>
      <use xlink:href="#DejaVuSans-75" transform="translate(305.025391 0)"/>
      <use xlink:href="#DejaVuSans-63" transform="translate(368.404297 0)"/>
      <use xlink:href="#DejaVuSans-74" transform="translate(423.384766 0)"/>
      <use xlink:href="#DejaVuSans-69" transform="translate(462.59375 0)"/>
      <use xlink:href="#DejaVuSans-6f" transform="translate(490.376953 0)"/>
      <use xlink:href="#DejaVuSans-6e" transform="translate(551.558594 0)"/>
      <use xlink:href="#DejaVuSans-5f" transform="translate(614.9375 0)"/>
      <use xlink:href="#DejaVuSans-68" transform="translate(664.9375 0)"/>
      <use xlink:href="#DejaVuSans-32" transform="translate(728.316406 0)"/>
      <use xlink:href="#DejaVuSans-5f" transform="translate(791.939453 0)"/>
      <use xlink:href="#DejaVuSans-6d" transform="translate(841.939453 0)"/>
      <use xlink:href="#DejaVuSans-65" transform="translate(939.351562 0)"/>
      <use xlink:href="#DejaVuSans-64" transform="translate(1000.875 0)"/>
      <use xlink:href="#DejaVuSans-72" transform="translate(1064.351562 0)"/>
      <use xlink:href="#DejaVuSans-61" transform="translate(1105.464844 0)"/>
      <use xlink:href="#DejaVuSans-6e" transform="translate(1166.744141 0)"/>
      <use xlink:href="#DejaVuSans-6f" transform="translate(1230.123047 0)"/>
     </g>
    </g>
   </g>
   <g id="text_24">
    <!-- Species and Reaction System Graph -->
    <g transform="translate(251.1525 20.88) scale(0.12 -0.12)">
     <defs>
      <path id="DejaVuSans-53" d="M 3425 4513 
L 3425 3897 
Q 3066 4069 2747 4153 
Q 2428 4238 2131 4238 
Q 1616 4238 1336 4038 
Q 1056 3838 1056 3469 
Q 1056 3159 1242 3001 
Q 1428 2844 1947 2747 
L 2328 2669 
Q 3034 2534 3370 2195 
Q 3706 1856 3706 1288 
Q 3706 609 3251 259 
Q 2797 -91 1919 -91 
Q 1588 -91 1214 -16 
Q 841 59 441 206 
L 441 856 
Q 825 641 1194 531 
Q 1563 422 1919 422 
Q 2459 422 2753 634 
Q 3047 847 3047 1241 
Q 3047 1584 2836 1778 
Q 2625 1972 2144 2069 
L 1759 2144 
Q 1053 2284 737 2584 
Q 422 2884 422 3419 
Q 422 4038 858 4394 
Q 1294 4750 2059 4750 
Q 2388 4750 2728 4690 
Q 3069 4631 3425 4513 
z
" transform="scale(0.015625)"/>
      <path id="DejaVuSans-70" d="M 1159 525 
L 1159 -1331 
L 581 -1331 
L 581 3500 
L 1159 3500 
L 1159 2969 
Q 1341 3281 1617 3432 
Q 1894 3584 2278 3584 
Q 2916 3584 3314 3078 
Q 3713 2572 3713 1747 
Q 3713 922 3314 415 
Q 2916 -91 2278 -91 
Q 1894 -91 1617 61 
Q 1341 213 1159 525 
z
M 3116 1747 
Q 3116 2381 2855 2742 
Q 2594 3103 2138 3103 
Q 1681 3103 1420 2742 
Q 1159 2381 1159 1747 
Q 1159 1113 1420 752 
Q 1681 391 2138 391 
Q 2594 391 2855 752 
Q 3116 1113 3116 1747 
z
" transform="scale(0.015625)"/>
      <path id="DejaVuSans-73" d="M 2834 3397 
L 2834 2853 
Q 2591 2978 2328 3040 
Q 2066 3103 1784 3103 
Q 1356 3103 1142 2972 
Q 928 2841 928 2578 
Q 928 2378 1081 2264 
Q 1234 2150 1697 2047 
L 1894 2003 
Q 2506 1872 2764 1633 
Q 3022 1394 3022 966 
Q 3022 478 2636 193 
Q 2250 -91 1575 -91 
Q 1294 -91 989 -36 
Q 684 19 347 128 
L 347 722 
Q 666 556 975 473 
Q 1284 391 1588 391 
Q 1994 391 2212 530 
Q 2431 669 2431 922 
Q 2431 1156 2273 1281 
Q 2116 1406 1581 1522 
L 1381 1569 
Q 847 1681 609 1914 
Q 372 2147 372 2553 
Q 372 3047 722 3315 
Q 1072 3584 1716 3584 
Q 2034 3584 2315 3537 
Q 2597 3491 2834 3397 
z
" transform="scale(0.015625)"/>
      <path id="DejaVuSans-47" d="M 3809 666 
L 3809 1919 
L 2778 1919 
L 2778 2438 
L 4434 2438 
L 4434 434 
Q 4069 175 3628 42 
Q 3188 -91 2688 -91 
Q 1594 -91 976 548 
Q 359 1188 359 2328 
Q 359 3472 976 4111 
Q 1594 4750 2688 4750 
Q 3144 4750 3555 4637 
Q 3966 4525 4313 4306 
L 4313 3634 
Q 3963 3931 3569 4081 
Q 3175 4231 2741 4231 
Q 1884 4231 1454 3753 
Q 1025 3275 1025 2328 
Q 1025 1384 1454 906 
Q 1884 428 2741 428 
Q 3075 428 3337 486 
Q 3600 544 3809 666 
z
" transform="scale(0.015625)"/>
     </defs>
     <use xlink:href="#DejaVuSans-53"/>
     <use xlink:href="#DejaVuSans-70" transform="translate(63.476562 0)"/>
     <use xlink:href="#DejaVuSans-65" transform="translate(126.953125 0)"/>
     <use xlink:href="#DejaVuSans-63" transform="translate(188.476562 0)"/>
     <use xlink:href="#DejaVuSans-69" transform="translate(243.457031 0)"/>
     <use xlink:href="#DejaVuSans-65" transform="translate(271.240234 0)"/>
     <use xlink:href="#DejaVuSans-73" transform="translate(332.763672 0)"/>
     <use xlink:href="#DejaVuSans-20" transform="translate(384.863281 0)"/>
     <use xlink:href="#DejaVuSans-61" transform="translate(416.650391 0)"/>
     <use xlink:href="#DejaVuSans-6e" transform="translate(477.929688 0)"/>
     <use xlink:href="#DejaVuSans-64" transform="translate(541.308594 0)"/>
     <use xlink:href="#DejaVuSans-20" transform="translate(604.785156 0)"/>
     <use xlink:href="#DejaVuSans-52" transform="translate(636.572266 0)"/>
     <use xlink:href="#DejaVuSans-65" transform="translate(701.554688 0)"/>
     <use xlink:href="#DejaVuSans-61" transform="translate(763.078125 0)"/>
     <use xlink:href="#DejaVuSans-63" transform="translate(824.357422 0)"/>
     <use xlink:href="#DejaVuSans-74" transform="translate(879.337891 0)"/>
     <use xlink:href="#DejaVuSans-69" transform="translate(918.546875 0)"/>
     <use xlink:href="#DejaVuSans-6f" transform="translate(946.330078 0)"/>
     <use xlink:href="#DejaVuSans-6e" transform="translate(1007.511719 0)"/>
     <use xlink:href="#DejaVuSans-20" transform="translate(1070.890625 0)"/>
     <use xlink:href="#DejaVuSans-53" transform="translate(1102.677734 0)"/>
     <use xlink:href="#DejaVuSans-79" transform="translate(1166.154297 0)"/>
     <use xlink:href="#DejaVuSans-73" transform="translate(1225.333984 0)"/>
     <use xlink:href="#DejaVuSans-74" transform="translate(1277.433594 0)"/>
     <use xlink:href="#DejaVuSans-65" transform="translate(1316.642578 0)"/>
     <use xlink:href="#DejaVuSans-6d" transform="translate(1378.166016 0)"/>
     <use xlink:href="#DejaVuSans-20" transform="translate(1475.578125 0)"/>
     <use xlink:href="#DejaVuSans-47" transform="translate(1507.365234 0)"/>
     <use xlink:href="#DejaVuSans-72" transform="translate(1584.855469 0)"/>
     <use xlink:href="#DejaVuSans-61" transform="translate(1625.96875 0)"/>
     <use xlink:href="#DejaVuSans-70" transform="translate(1687.248047 0)"/>
     <use xlink:href="#DejaVuSans-68" transform="translate(1750.724609 0)"/>
    </g>
   </g>
  </g>
 </g>
 <defs>
  <clipPath id="p64c44c4161">
   <rect x="10.8" y="26.88" width="698.4" height="653.52"/>
  </clipPath>
 </defs>
</svg>
