<?xml version="1.0" encoding="UTF-8" standalone="no"?>
<!DOCTYPE svg PUBLIC "-//W3C//DTD SVG 1.1//EN"
 "http://www.w3.org/Graphics/SVG/1.1/DTD/svg11.dtd">
<!-- Generated by graphviz version 12.2.1 (20241206.2353)
 -->
<!-- Title: system_graph Pages: 1 -->
<svg width="1378pt" height="1072pt"
 viewBox="0.00 0.00 1378.03 1071.58" xmlns="http://www.w3.org/2000/svg" xmlns:xlink="http://www.w3.org/1999/xlink">
<g id="graph0" class="graph" transform="scale(1 1) rotate(0) translate(25.2 1046.38)">
<title>system_graph</title>
<polygon fill="white" stroke="none" points="-25.2,25.2 -25.2,-1046.38 1352.83,-1046.38 1352.83,25.2 -25.2,25.2"/>
<text text-anchor="middle" x="663.81" y="-998.18" font-family="Arial" font-size="20.00">Species and Reaction System Graph</text>
<!-- H2&#45;&gt;reaction:ni_reduction_h2_medrano -->
<g id="edge1" class="edge">
<title>H2&#45;&gt;reaction:ni_reduction_h2_medrano</title>
<path fill="none" stroke="#355070" stroke-width="2.2" d="M417.85,-922.98C431.69,-865.47 456.15,-744.28 445.71,-641.62 440.77,-593.08 428,-537.84 419.47,-504.47"/>
<polygon fill="#355070" stroke="#355070" stroke-width="2.2" points="422.78,-503.98 417.16,-495.62 416.34,-505.65 422.78,-503.98"/>
<text text-anchor="middle" x="451.83" y="-710.93" font-family="Arial" font-size="13.00" fill="#355070">1</text>
</g>
<!-- reaction:ni_reduction_h2_medrano&#45;&gt;H2O -->
<g id="edge20" class="edge">
<title>reaction:ni_reduction_h2_medrano&#45;&gt;H2O</title>
<path fill="none" stroke="#bc6c25" stroke-width="2.2" d="M418.89,-492.46C445.19,-556.17 532.56,-767.77 570.73,-860.22"/>
<polygon fill="#bc6c25" stroke="#bc6c25" stroke-width="2.2" points="567.6,-861.33 574.3,-868.85 573.75,-858.8 567.6,-861.33"/>
<text text-anchor="middle" x="493.46" y="-684.81" font-family="Arial" font-size="13.00" fill="#bc6c25">1</text>
</g>
<!-- reaction:ni_reduction_h2_medrano&#45;&gt;Ni -->
<g id="edge21" class="edge">
<title>reaction:ni_reduction_h2_medrano&#45;&gt;Ni</title>
<path fill="none" stroke="#bc6c25" stroke-width="2.2" d="M505.59,-460.91C597.05,-448.24 732.8,-429.43 808.65,-418.92"/>
<polygon fill="#bc6c25" stroke="#bc6c25" stroke-width="2.2" points="808.94,-422.24 817.89,-417.64 808.03,-415.65 808.94,-422.24"/>
<text text-anchor="middle" x="659.87" y="-441.67" font-family="Arial" font-size="13.00" fill="#bc6c25">1</text>
</g>
<!-- H2O&#45;&gt;reaction:wgs_reaction_iron -->
<g id="edge2" class="edge">
<title>H2O&#45;&gt;reaction:wgs_reaction_iron</title>
<path fill="none" stroke="#355070" stroke-width="2.2" d="M554.37,-868.21C515.63,-827.91 452.82,-762.58 411.81,-719.92"/>
<polygon fill="#355070" stroke="#355070" stroke-width="2.2" points="551.76,-870.3 560.74,-874.84 556.55,-865.69 551.76,-870.3"/>
<polygon fill="#355070" stroke="#355070" stroke-width="2.2" points="414.45,-717.86 405.47,-713.32 409.65,-722.47 414.45,-717.86"/>
<text text-anchor="middle" x="480.27" y="-797.68" font-family="Arial" font-size="13.00" fill="#355070">1</text>
</g>
<!-- H2O&#45;&gt;reaction:wgs_reaction_numaguchi -->
<g id="edge3" class="edge">
<title>H2O&#45;&gt;reaction:wgs_reaction_numaguchi</title>
<path fill="none" stroke="#355070" stroke-width="2.2" d="M625.94,-869.81C665.71,-833.09 728.83,-774.79 771.36,-735.52"/>
<polygon fill="#355070" stroke="#355070" stroke-width="2.2" points="623.9,-867.18 619.17,-876.07 628.41,-872.06 623.9,-867.18"/>
<polygon fill="#355070" stroke="#355070" stroke-width="2.2" points="773.47,-738.1 778.19,-729.21 768.96,-733.21 773.47,-738.1"/>
<text text-anchor="middle" x="694.78" y="-805.43" font-family="Arial" font-size="13.00" fill="#355070">1</text>
</g>
<!-- reaction:wgs_reaction_iron&#45;&gt;H2 -->
<g id="edge13" class="edge">
<title>reaction:wgs_reaction_iron&#45;&gt;H2</title>
<path fill="none" stroke="#bc6c25" stroke-width="2.2" d="M377.57,-723.31C384.56,-774.94 395.92,-858.77 402.94,-910.6"/>
<polygon fill="#bc6c25" stroke="#bc6c25" stroke-width="2.2" points="380.91,-723.22 376.34,-714.25 374.32,-724.11 380.91,-723.22"/>
<polygon fill="#bc6c25" stroke="#bc6c25" stroke-width="2.2" points="399.61,-910.78 404.18,-919.75 406.2,-909.89 399.61,-910.78"/>
<text text-anchor="middle" x="386.55" y="-819.93" font-family="Arial" font-size="13.00" fill="#bc6c25">1</text>
</g>
<!-- reaction:wgs_reaction_iron&#45;&gt;CO2 -->
<g id="edge14" class="edge">
<title>reaction:wgs_reaction_iron&#45;&gt;CO2</title>
<path fill="none" stroke="#bc6c25" stroke-width="2.2" d="M438.1,-638.67C463.87,-623.5 493.1,-606.31 518.03,-591.65"/>
<polygon fill="#bc6c25" stroke="#bc6c25" stroke-width="2.2" points="436.8,-635.58 430.3,-643.26 440.17,-641.31 436.8,-635.58"/>
<polygon fill="#bc6c25" stroke="#bc6c25" stroke-width="2.2" points="519.41,-594.69 525.91,-587.01 516.04,-588.96 519.41,-594.69"/>
<text text-anchor="middle" x="474.79" y="-617.53" font-family="Arial" font-size="13.00" fill="#bc6c25">1</text>
</g>
<!-- reaction:wgs_reaction_numaguchi&#45;&gt;H2 -->
<g id="edge15" class="edge">
<title>reaction:wgs_reaction_numaguchi&#45;&gt;H2</title>
<path fill="none" stroke="#bc6c25" stroke-width="2.2" d="M754.32,-733.99C673.45,-786.12 533.44,-876.38 459.02,-924.35"/>
<polygon fill="#bc6c25" stroke="#bc6c25" stroke-width="2.2" points="756.11,-736.79 762.29,-728.85 752.5,-731.21 756.11,-736.79"/>
<polygon fill="#bc6c25" stroke="#bc6c25" stroke-width="2.2" points="457.51,-921.37 451.33,-929.31 461.12,-926.96 457.51,-921.37"/>
<text text-anchor="middle" x="603.05" y="-831.74" font-family="Arial" font-size="13.00" fill="#bc6c25">1</text>
</g>
<!-- reaction:wgs_reaction_numaguchi&#45;&gt;CO2 -->
<g id="edge16" class="edge">
<title>reaction:wgs_reaction_numaguchi&#45;&gt;CO2</title>
<path fill="none" stroke="#bc6c25" stroke-width="2.2" d="M747.41,-654.83C712.16,-634.73 669.67,-610.51 635.86,-591.23"/>
<polygon fill="#bc6c25" stroke="#bc6c25" stroke-width="2.2" points="745.69,-657.68 755.59,-659.5 748.98,-651.9 745.69,-657.68"/>
<polygon fill="#bc6c25" stroke="#bc6c25" stroke-width="2.2" points="637.55,-588.36 627.65,-586.54 634.25,-594.13 637.55,-588.36"/>
<text text-anchor="middle" x="687.12" y="-625.24" font-family="Arial" font-size="13.00" fill="#bc6c25">1</text>
</g>
<!-- O2&#45;&gt;reaction:ni_oxidation_o2_medrano -->
<g id="edge4" class="edge">
<title>O2&#45;&gt;reaction:ni_oxidation_o2_medrano</title>
<path fill="none" stroke="#355070" stroke-width="2.2" d="M1250.14,-414.14C1201.19,-361.75 1098,-251.28 1049.88,-199.76"/>
<polygon fill="#355070" stroke="#355070" stroke-width="2.2" points="1052.48,-197.68 1043.56,-193 1047.62,-202.21 1052.48,-197.68"/>
<text text-anchor="middle" x="1136.32" y="-304.99" font-family="Arial" font-size="13.00" fill="#355070">0.5</text>
</g>
<!-- reaction:ni_oxidation_o2_medrano&#45;&gt;NiO -->
<g id="edge17" class="edge">
<title>reaction:ni_oxidation_o2_medrano&#45;&gt;NiO</title>
<path fill="none" stroke="#bc6c25" stroke-width="2.2" d="M985.15,-153.8C935.92,-130.54 850.65,-90.24 792.44,-62.74"/>
<polygon fill="#bc6c25" stroke="#bc6c25" stroke-width="2.2" points="794.2,-59.89 784.19,-58.84 791.36,-65.91 794.2,-59.89"/>
<text text-anchor="middle" x="879.44" y="-108.27" font-family="Arial" font-size="13.00" fill="#bc6c25">1</text>
</g>
<!-- CO&#45;&gt;reaction:wgs_reaction_iron -->
<g id="edge5" class="edge">
<title>CO&#45;&gt;reaction:wgs_reaction_iron</title>
<path fill="none" stroke="#355070" stroke-width="2.2" d="M568.53,-443.98C524.86,-495.8 451.02,-583.43 407.18,-635.46"/>
<polygon fill="#355070" stroke="#355070" stroke-width="2.2" points="571.07,-446.12 574.65,-436.71 565.99,-441.84 571.07,-446.12"/>
<polygon fill="#355070" stroke="#355070" stroke-width="2.2" points="404.82,-633.1 401.24,-642.51 409.9,-637.39 404.82,-633.1"/>
<text text-anchor="middle" x="484.34" y="-542.09" font-family="Arial" font-size="13.00" fill="#355070">1</text>
</g>
<!-- CO&#45;&gt;reaction:wgs_reaction_numaguchi -->
<g id="edge6" class="edge">
<title>CO&#45;&gt;reaction:wgs_reaction_numaguchi</title>
<path fill="none" stroke="#355070" stroke-width="2.2" d="M634.98,-444.71C675.13,-499.94 744.65,-595.59 784.92,-651"/>
<polygon fill="#355070" stroke="#355070" stroke-width="2.2" points="637.89,-443.06 629.62,-437.33 632.51,-446.97 637.89,-443.06"/>
<polygon fill="#355070" stroke="#355070" stroke-width="2.2" points="782.09,-652.76 790.37,-658.49 787.47,-648.85 782.09,-652.76"/>
<text text-anchor="middle" x="706.48" y="-550.88" font-family="Arial" font-size="13.00" fill="#355070">1</text>
</g>
<!-- CO&#45;&gt;reaction:ni_reduction_co_medrano -->
<g id="edge7" class="edge">
<title>CO&#45;&gt;reaction:ni_reduction_co_medrano</title>
<path fill="none" stroke="#355070" stroke-width="2.2" d="M585.41,-368.76C564.87,-331.93 532.07,-273.08 512.48,-237.95"/>
<polygon fill="#355070" stroke="#355070" stroke-width="2.2" points="515.54,-236.6 508.01,-229.93 509.73,-239.84 515.54,-236.6"/>
<text text-anchor="middle" x="542.05" y="-300.37" font-family="Arial" font-size="13.00" fill="#355070">1</text>
</g>
<!-- reaction:ni_reduction_co_medrano&#45;&gt;CO2 -->
<g id="edge18" class="edge">
<title>reaction:ni_reduction_co_medrano&#45;&gt;CO2</title>
<path fill="none" stroke="#bc6c25" stroke-width="2.2" d="M494.09,-227.22C490.65,-262 485.67,-339.38 500.88,-401.98 510.57,-441.89 531.52,-483.57 548.89,-513.7"/>
<polygon fill="#bc6c25" stroke="#bc6c25" stroke-width="2.2" points="545.97,-515.28 553.66,-521.78 551.7,-511.91 545.97,-515.28"/>
<text text-anchor="middle" x="497.13" y="-404.63" font-family="Arial" font-size="13.00" fill="#bc6c25">1</text>
</g>
<!-- reaction:ni_reduction_co_medrano&#45;&gt;Ni -->
<g id="edge19" class="edge">
<title>reaction:ni_reduction_co_medrano&#45;&gt;Ni</title>
<path fill="none" stroke="#bc6c25" stroke-width="2.2" d="M529.94,-227.26C595.93,-263.45 742.28,-343.7 817.9,-385.16"/>
<polygon fill="#bc6c25" stroke="#bc6c25" stroke-width="2.2" points="816.12,-387.98 826.04,-389.63 819.31,-382.15 816.12,-387.98"/>
<text text-anchor="middle" x="675.79" y="-311.95" font-family="Arial" font-size="13.00" fill="#bc6c25">1</text>
</g>
<!-- Ni&#45;&gt;reaction:wgs_reaction_numaguchi -->
<g id="edge8" class="edge">
<title>Ni&#45;&gt;reaction:wgs_reaction_numaguchi</title>
<path fill="none" stroke="#6d597a" stroke-width="1.8" stroke-dasharray="5,2" d="M857.49,-455.53C848.28,-508.78 832.95,-597.45 823.79,-650.38"/>
<polygon fill="#6d597a" stroke="#6d597a" stroke-width="1.8" points="860.39,-456.23 858.91,-447.35 854.53,-455.22 860.39,-456.23"/>
<polygon fill="#6d597a" stroke="#6d597a" stroke-width="1.8" points="820.86,-649.86 822.35,-658.74 826.73,-650.87 820.86,-649.86"/>
<text text-anchor="middle" x="831.55" y="-556.14" font-family="Arial" font-size="13.00" fill="#6d597a">cat</text>
</g>
<!-- Ni&#45;&gt;reaction:ni_oxidation_o2_medrano -->
<g id="edge9" class="edge">
<title>Ni&#45;&gt;reaction:ni_oxidation_o2_medrano</title>
<path fill="none" stroke="#355070" stroke-width="2.2" d="M885.31,-380.84C916.12,-334.55 974.57,-246.73 1004.87,-201.21"/>
<polygon fill="#355070" stroke="#355070" stroke-width="2.2" points="1007.59,-203.13 1010.09,-193.38 1002.05,-199.44 1007.59,-203.13"/>
<text text-anchor="middle" x="944.92" y="-288.29" font-family="Arial" font-size="13.00" fill="#355070">1</text>
</g>
<!-- NiO&#45;&gt;reaction:ni_reduction_h2_medrano -->
<g id="edge11" class="edge">
<title>NiO&#45;&gt;reaction:ni_reduction_h2_medrano</title>
<path fill="none" stroke="#355070" stroke-width="2.2" d="M708.68,-65.41C681.93,-104.58 634.94,-172.86 593.38,-230.47 536.62,-309.15 467.5,-400.35 433.02,-445.56"/>
<polygon fill="#355070" stroke="#355070" stroke-width="2.2" points="430.56,-443.3 427.44,-452.86 435.85,-447.33 430.56,-443.3"/>
<text text-anchor="middle" x="566.12" y="-265.47" font-family="Arial" font-size="13.00" fill="#355070">1</text>
</g>
<!-- NiO&#45;&gt;reaction:ni_reduction_co_medrano -->
<g id="edge10" class="edge">
<title>NiO&#45;&gt;reaction:ni_reduction_co_medrano</title>
<path fill="none" stroke="#355070" stroke-width="2.2" d="M692.27,-61.99C647.48,-95.52 573.86,-150.64 530.72,-182.94"/>
<polygon fill="#355070" stroke="#355070" stroke-width="2.2" points="528.98,-180.09 523.37,-188.45 532.96,-185.41 528.98,-180.09"/>
<text text-anchor="middle" x="602.65" y="-128.93" font-family="Arial" font-size="13.00" fill="#355070">1</text>
</g>
<!-- Fe&#45;&gt;reaction:wgs_reaction_iron -->
<g id="edge12" class="edge">
<title>Fe&#45;&gt;reaction:wgs_reaction_iron</title>
<path fill="none" stroke="#6d597a" stroke-width="1.8" stroke-dasharray="5,2" d="M80.96,-669.15C134.52,-670.77 223.8,-673.45 289.27,-675.42"/>
<polygon fill="#6d597a" stroke="#6d597a" stroke-width="1.8" points="81.15,-666.18 72.57,-668.9 80.97,-672.13 81.15,-666.18"/>
<polygon fill="#6d597a" stroke="#6d597a" stroke-width="1.8" points="289.07,-678.4 297.66,-675.68 289.25,-672.45 289.07,-678.4"/>
<text text-anchor="middle" x="171.59" y="-674.8" font-family="Arial" font-size="13.00" fill="#6d597a">cat</text>
</g>
<!-- AR -->
<g id="node1" class="node">
<title>AR</title>
<ellipse fill="#81b29a" stroke="#2f3e46" stroke-width="1.6" cx="836.29" cy="-249.34" rx="43.78" ry="33.43"/>
<text text-anchor="middle" x="836.29" y="-251.99" font-family="Arial" font-size="13.00" fill="#1f2933">AR</text>
<text text-anchor="middle" x="836.29" y="-236.99" font-family="Arial" font-size="13.00" fill="#1f2933">Argon</text>
</g>
<!-- H2 -->
<g id="node2" class="node">
<title>H2</title>
<ellipse fill="#81b29a" stroke="#2f3e46" stroke-width="1.6" cx="409.16" cy="-956.49" rx="59.69" ry="33.43"/>
<text text-anchor="middle" x="409.16" y="-959.14" font-family="Arial" font-size="13.00" fill="#1f2933">H2</text>
<text text-anchor="middle" x="409.16" y="-944.14" font-family="Arial" font-size="13.00" fill="#1f2933">Hydrogen</text>
</g>
<!-- reaction:ni_reduction_h2_medrano -->
<g id="node3" class="node">
<title>reaction:ni_reduction_h2_medrano</title>
<path fill="#6d597a" stroke="#3d405b" stroke-width="1.6" d="M493.1,-491.98C493.1,-491.98 329.42,-491.98 329.42,-491.98 323.42,-491.98 317.42,-485.98 317.42,-479.98 317.42,-479.98 317.42,-467.98 317.42,-467.98 317.42,-461.98 323.42,-455.98 329.42,-455.98 329.42,-455.98 493.1,-455.98 493.1,-455.98 499.1,-455.98 505.1,-461.98 505.1,-467.98 505.1,-467.98 505.1,-479.98 505.1,-479.98 505.1,-485.98 499.1,-491.98 493.1,-491.98"/>
<text text-anchor="middle" x="411.26" y="-469.13" font-family="Arial" font-size="13.00" fill="white">ni_reduction_h2_medrano</text>
</g>
<!-- H2O -->
<g id="node4" class="node">
<title>H2O</title>
<ellipse fill="#81b29a" stroke="#2f3e46" stroke-width="1.6" cx="588.84" cy="-904.07" rx="43.25" ry="33.43"/>
<text text-anchor="middle" x="588.84" y="-906.72" font-family="Arial" font-size="13.00" fill="#1f2933">H2O</text>
<text text-anchor="middle" x="588.84" y="-891.72" font-family="Arial" font-size="13.00" fill="#1f2933">Water</text>
</g>
<!-- reaction:wgs_reaction_iron -->
<g id="node5" class="node">
<title>reaction:wgs_reaction_iron</title>
<path fill="#6d597a" stroke="#3d405b" stroke-width="1.6" d="M430.01,-710.48C430.01,-710.48 312.83,-710.48 312.83,-710.48 306.83,-710.48 300.83,-704.48 300.83,-698.48 300.83,-698.48 300.83,-657.32 300.83,-657.32 300.83,-651.32 306.83,-645.32 312.83,-645.32 312.83,-645.32 430.01,-645.32 430.01,-645.32 436.01,-645.32 442.01,-651.32 442.01,-657.32 442.01,-657.32 442.01,-698.48 442.01,-698.48 442.01,-704.48 436.01,-710.48 430.01,-710.48"/>
<text text-anchor="middle" x="371.42" y="-688.05" font-family="Arial" font-size="13.00" fill="white">wgs_reaction_iron</text>
<text text-anchor="middle" x="371.42" y="-673.05" font-family="Arial" font-size="13.00" fill="white">reversible</text>
<text text-anchor="middle" x="371.42" y="-658.05" font-family="Arial" font-size="13.00" fill="white">cat: Fe</text>
</g>
<!-- reaction:wgs_reaction_numaguchi -->
<g id="node6" class="node">
<title>reaction:wgs_reaction_numaguchi</title>
<path fill="#6d597a" stroke="#3d405b" stroke-width="1.6" d="M896.2,-726.66C896.2,-726.66 736.27,-726.66 736.27,-726.66 730.27,-726.66 724.27,-720.66 724.27,-714.66 724.27,-714.66 724.27,-673.5 724.27,-673.5 724.27,-667.5 730.27,-661.5 736.27,-661.5 736.27,-661.5 896.2,-661.5 896.2,-661.5 902.2,-661.5 908.2,-667.5 908.2,-673.5 908.2,-673.5 908.2,-714.66 908.2,-714.66 908.2,-720.66 902.2,-726.66 896.2,-726.66"/>
<text text-anchor="middle" x="816.23" y="-704.23" font-family="Arial" font-size="13.00" fill="white">wgs_reaction_numaguchi</text>
<text text-anchor="middle" x="816.23" y="-689.23" font-family="Arial" font-size="13.00" fill="white">reversible</text>
<text text-anchor="middle" x="816.23" y="-674.23" font-family="Arial" font-size="13.00" fill="white">cat: Ni</text>
</g>
<!-- O2 -->
<g id="node7" class="node">
<title>O2</title>
<ellipse fill="#81b29a" stroke="#2f3e46" stroke-width="1.6" cx="1276.95" cy="-442.84" rx="50.68" ry="33.43"/>
<text text-anchor="middle" x="1276.95" y="-445.49" font-family="Arial" font-size="13.00" fill="#1f2933">O2</text>
<text text-anchor="middle" x="1276.95" y="-430.49" font-family="Arial" font-size="13.00" fill="#1f2933">Oxygen</text>
</g>
<!-- reaction:ni_oxidation_o2_medrano -->
<g id="node8" class="node">
<title>reaction:ni_oxidation_o2_medrano</title>
<path fill="#6d597a" stroke="#3d405b" stroke-width="1.6" d="M1105.25,-190.23C1105.25,-190.23 943.07,-190.23 943.07,-190.23 937.07,-190.23 931.07,-184.23 931.07,-178.23 931.07,-178.23 931.07,-166.23 931.07,-166.23 931.07,-160.23 937.07,-154.23 943.07,-154.23 943.07,-154.23 1105.25,-154.23 1105.25,-154.23 1111.25,-154.23 1117.25,-160.23 1117.25,-166.23 1117.25,-166.23 1117.25,-178.23 1117.25,-178.23 1117.25,-184.23 1111.25,-190.23 1105.25,-190.23"/>
<text text-anchor="middle" x="1024.16" y="-167.38" font-family="Arial" font-size="13.00" fill="white">ni_oxidation_o2_medrano</text>
</g>
<!-- CO -->
<g id="node9" class="node">
<title>CO</title>
<ellipse fill="#81b29a" stroke="#2f3e46" stroke-width="1.6" cx="603.92" cy="-401.98" rx="93.1" ry="33.43"/>
<text text-anchor="middle" x="603.92" y="-404.63" font-family="Arial" font-size="13.00" fill="#1f2933">CO</text>
<text text-anchor="middle" x="603.92" y="-389.63" font-family="Arial" font-size="13.00" fill="#1f2933">Carbon Monoxide</text>
</g>
<!-- reaction:ni_reduction_co_medrano -->
<g id="node10" class="node">
<title>reaction:ni_reduction_co_medrano</title>
<path fill="#6d597a" stroke="#3d405b" stroke-width="1.6" d="M577.68,-226.77C577.68,-226.77 414.75,-226.77 414.75,-226.77 408.75,-226.77 402.75,-220.77 402.75,-214.77 402.75,-214.77 402.75,-202.77 402.75,-202.77 402.75,-196.77 408.75,-190.77 414.75,-190.77 414.75,-190.77 577.68,-190.77 577.68,-190.77 583.68,-190.77 589.68,-196.77 589.68,-202.77 589.68,-202.77 589.68,-214.77 589.68,-214.77 589.68,-220.77 583.68,-226.77 577.68,-226.77"/>
<text text-anchor="middle" x="496.21" y="-203.92" font-family="Arial" font-size="13.00" fill="white">ni_reduction_co_medrano</text>
</g>
<!-- CO2 -->
<g id="node11" class="node">
<title>CO2</title>
<ellipse fill="#81b29a" stroke="#2f3e46" stroke-width="1.6" cx="576.39" cy="-557.31" rx="84.09" ry="33.43"/>
<text text-anchor="middle" x="576.39" y="-559.96" font-family="Arial" font-size="13.00" fill="#1f2933">CO2</text>
<text text-anchor="middle" x="576.39" y="-544.96" font-family="Arial" font-size="13.00" fill="#1f2933">Carbon Dioxide</text>
</g>
<!-- Ni -->
<g id="node12" class="node">
<title>Ni</title>
<ellipse fill="#f2cc8f" stroke="#2f3e46" stroke-width="1.6" cx="865.18" cy="-411.09" rx="44.31" ry="33.43"/>
<text text-anchor="middle" x="865.18" y="-413.74" font-family="Arial" font-size="13.00" fill="#1f2933">Ni</text>
<text text-anchor="middle" x="865.18" y="-398.74" font-family="Arial" font-size="13.00" fill="#1f2933">Nickel</text>
</g>
<!-- NiO -->
<g id="node13" class="node">
<title>NiO</title>
<ellipse fill="#f2cc8f" stroke="#2f3e46" stroke-width="1.6" cx="730.42" cy="-33.43" rx="71.36" ry="33.43"/>
<text text-anchor="middle" x="730.42" y="-36.08" font-family="Arial" font-size="13.00" fill="#1f2933">NiO</text>
<text text-anchor="middle" x="730.42" y="-21.08" font-family="Arial" font-size="13.00" fill="#1f2933">Nickel Oxide</text>
</g>
<!-- CaAl2O4 -->
<g id="node14" class="node">
<title>CaAl2O4</title>
<ellipse fill="#f2cc8f" stroke="#2f3e46" stroke-width="1.6" cx="1104.29" cy="-897.34" rx="96.29" ry="33.43"/>
<text text-anchor="middle" x="1104.29" y="-899.99" font-family="Arial" font-size="13.00" fill="#1f2933">CaAl2O4</text>
<text text-anchor="middle" x="1104.29" y="-884.99" font-family="Arial" font-size="13.00" fill="#1f2933">Calcium Aluminate</text>
</g>
<!-- Fe -->
<g id="node15" class="node">
<title>Fe</title>
<ellipse fill="#f2cc8f" stroke="#2f3e46" stroke-width="1.6" cx="34.77" cy="-667.76" rx="34.77" ry="33.43"/>
<text text-anchor="middle" x="34.77" y="-670.41" font-family="Arial" font-size="13.00" fill="#1f2933">Fe</text>
<text text-anchor="middle" x="34.77" y="-655.41" font-family="Arial" font-size="13.00" fill="#1f2933">Iron</text>
</g>
</g>
</svg>
