<?xml version="1.0" encoding="utf-8" standalone="no"?>
<!DOCTYPE svg PUBLIC "-//W3C//DTD SVG 1.1//EN"
  "http://www.w3.org/Graphics/SVG/1.1/DTD/svg11.dtd">
<svg xmlns:xlink="http://www.w3.org/1999/xlink" width="857.146215pt" height="855.034375pt" viewBox="0 0 857.146215 855.034375" xmlns="http://www.w3.org/2000/svg" version="1.1">
 <metadata>
  <rdf:RDF xmlns:dc="http://purl.org/dc/elements/1.1/" xmlns:cc="http://creativecommons.org/ns#" xmlns:rdf="http://www.w3.org/1999/02/22-rdf-syntax-ns#">
   <cc:Work>
    <dc:type rdf:resource="http://purl.org/dc/dcmitype/StillImage"/>
    <dc:date>2026-04-21T01:37:45.930626</dc:date>
    <dc:format>image/svg+xml</dc:format>
    <dc:creator>
     <cc:Agent>
      <dc:title>Matplotlib v3.10.8, https://matplotlib.org/</dc:title>
     </cc:Agent>
    </dc:creator>
   </cc:Work>
  </rdf:RDF>
 </metadata>
 <defs>
  <style type="text/css">*{stroke-linejoin: round; stroke-linecap: butt}</style>
 </defs>
 <g id="figure_1">
  <g id="patch_1">
   <path d="M -0 855.034375 
L 857.146215 855.034375 
L 857.146215 0 
L -0 0 
z
" style="fill: #ffffff"/>
  </g>
  <g id="axes_1">
   <g id="patch_2">
    <path d="M 46.965625 196.358125 
L 796.249625 196.358125 
L 796.249625 22.318125 
L 46.965625 22.318125 
z
" style="fill: #ffffff"/>
   </g>
   <g id="matplotlib.axis_1">
    <g id="xtick_1">
     <g id="line2d_1">
      <path d="M 46.965625 196.358125 
L 46.965625 22.318125 
" clip-path="url(#p27db165c05)" style="fill: none; stroke: #b0b0b0; stroke-opacity: 0.3; stroke-width: 0.8; stroke-linecap: square"/>
     </g>
     <g id="line2d_2">
      <defs>
       <path id="mc500a3fff4" d="M 0 0 
L 0 3.5 
" style="stroke: #000000; stroke-width: 0.8"/>
      </defs>
      <g>
       <use xlink:href="#mc500a3fff4" x="46.965625" y="196.358125" style="stroke: #000000; stroke-width: 0.8"/>
      </g>
     </g>
    </g>
    <g id="xtick_2">
     <g id="line2d_3">
      <path d="M 171.846292 196.358125 
L 171.846292 22.318125 
" clip-path="url(#p27db165c05)" style="fill: none; stroke: #b0b0b0; stroke-opacity: 0.3; stroke-width: 0.8; stroke-linecap: square"/>
     </g>
     <g id="line2d_4">
      <g>
       <use xlink:href="#mc500a3fff4" x="171.846292" y="196.358125" style="stroke: #000000; stroke-width: 0.8"/>
      </g>
     </g>
    </g>
    <g id="xtick_3">
     <g id="line2d_5">
      <path d="M 296.726958 196.358125 
L 296.726958 22.318125 
" clip-path="url(#p27db165c05)" style="fill: none; stroke: #b0b0b0; stroke-opacity: 0.3; stroke-width: 0.8; stroke-linecap: square"/>
     </g>
     <g id="line2d_6">
      <g>
       <use xlink:href="#mc500a3fff4" x="296.726958" y="196.358125" style="stroke: #000000; stroke-width: 0.8"/>
      </g>
     </g>
    </g>
    <g id="xtick_4">
     <g id="line2d_7">
      <path d="M 421.607625 196.358125 
L 421.607625 22.318125 
" clip-path="url(#p27db165c05)" style="fill: none; stroke: #b0b0b0; stroke-opacity: 0.3; stroke-width: 0.8; stroke-linecap: square"/>
     </g>
     <g id="line2d_8">
      <g>
       <use xlink:href="#mc500a3fff4" x="421.607625" y="196.358125" style="stroke: #000000; stroke-width: 0.8"/>
      </g>
     </g>
    </g>
    <g id="xtick_5">
     <g id="line2d_9">
      <path d="M 546.488292 196.358125 
L 546.488292 22.318125 
" clip-path="url(#p27db165c05)" style="fill: none; stroke: #b0b0b0; stroke-opacity: 0.3; stroke-width: 0.8; stroke-linecap: square"/>
     </g>
     <g id="line2d_10">
      <g>
       <use xlink:href="#mc500a3fff4" x="546.488292" y="196.358125" style="stroke: #000000; stroke-width: 0.8"/>
      </g>
     </g>
    </g>
    <g id="xtick_6">
     <g id="line2d_11">
      <path d="M 671.368958 196.358125 
L 671.368958 22.318125 
" clip-path="url(#p27db165c05)" style="fill: none; stroke: #b0b0b0; stroke-opacity: 0.3; stroke-width: 0.8; stroke-linecap: square"/>
     </g>
     <g id="line2d_12">
      <g>
       <use xlink:href="#mc500a3fff4" x="671.368958" y="196.358125" style="stroke: #000000; stroke-width: 0.8"/>
      </g>
     </g>
    </g>
    <g id="xtick_7">
     <g id="line2d_13">
      <path d="M 796.249625 196.358125 
L 796.249625 22.318125 
" clip-path="url(#p27db165c05)" style="fill: none; stroke: #b0b0b0; stroke-opacity: 0.3; stroke-width: 0.8; stroke-linecap: square"/>
     </g>
     <g id="line2d_14">
      <g>
       <use xlink:href="#mc500a3fff4" x="796.249625" y="196.358125" style="stroke: #000000; stroke-width: 0.8"/>
      </g>
     </g>
    </g>
   </g>
   <g id="matplotlib.axis_2">
    <g id="ytick_1">
     <g id="line2d_15">
      <path d="M 46.965625 196.358125 
L 796.249625 196.358125 
" clip-path="url(#p27db165c05)" style="fill: none; stroke: #b0b0b0; stroke-opacity: 0.3; stroke-width: 0.8; stroke-linecap: square"/>
     </g>
     <g id="line2d_16">
      <defs>
       <path id="m17f28fd469" d="M 0 0 
L -3.5 0 
" style="stroke: #000000; stroke-width: 0.8"/>
      </defs>
      <g>
       <use xlink:href="#m17f28fd469" x="46.965625" y="196.358125" style="stroke: #000000; stroke-width: 0.8"/>
      </g>
     </g>
     <g id="text_1">
      <!-- 0.0 -->
      <g transform="translate(24.0625 200.157344) scale(0.1 -0.1)">
       <defs>
        <path id="DejaVuSans-30" d="M 2034 4250 
Q 1547 4250 1301 3770 
Q 1056 3291 1056 2328 
Q 1056 1369 1301 889 
Q 1547 409 2034 409 
Q 2525 409 2770 889 
Q 3016 1369 3016 2328 
Q 3016 3291 2770 3770 
Q 2525 4250 2034 4250 
z
M 2034 4750 
Q 2819 4750 3233 4129 
Q 3647 3509 3647 2328 
Q 3647 1150 3233 529 
Q 2819 -91 2034 -91 
Q 1250 -91 836 529 
Q 422 1150 422 2328 
Q 422 3509 836 4129 
Q 1250 4750 2034 4750 
z
" transform="scale(0.015625)"/>
        <path id="DejaVuSans-2e" d="M 684 794 
L 1344 794 
L 1344 0 
L 684 0 
L 684 794 
z
" transform="scale(0.015625)"/>
       </defs>
       <use xlink:href="#DejaVuSans-30"/>
       <use xlink:href="#DejaVuSans-2e" transform="translate(63.623047 0)"/>
       <use xlink:href="#DejaVuSans-30" transform="translate(95.410156 0)"/>
      </g>
     </g>
    </g>
    <g id="ytick_2">
     <g id="line2d_17">
      <path d="M 46.965625 163.36476 
L 796.249625 163.36476 
" clip-path="url(#p27db165c05)" style="fill: none; stroke: #b0b0b0; stroke-opacity: 0.3; stroke-width: 0.8; stroke-linecap: square"/>
     </g>
     <g id="line2d_18">
      <g>
       <use xlink:href="#m17f28fd469" x="46.965625" y="163.36476" style="stroke: #000000; stroke-width: 0.8"/>
      </g>
     </g>
     <g id="text_2">
      <!-- 0.2 -->
      <g transform="translate(24.0625 167.163979) scale(0.1 -0.1)">
       <defs>
        <path id="DejaVuSans-32" d="M 1228 531 
L 3431 531 
L 3431 0 
L 469 0 
L 469 531 
Q 828 903 1448 1529 
Q 2069 2156 2228 2338 
Q 2531 2678 2651 2914 
Q 2772 3150 2772 3378 
Q 2772 3750 2511 3984 
Q 2250 4219 1831 4219 
Q 1534 4219 1204 4116 
Q 875 4013 500 3803 
L 500 4441 
Q 881 4594 1212 4672 
Q 1544 4750 1819 4750 
Q 2544 4750 2975 4387 
Q 3406 4025 3406 3419 
Q 3406 3131 3298 2873 
Q 3191 2616 2906 2266 
Q 2828 2175 2409 1742 
Q 1991 1309 1228 531 
z
" transform="scale(0.015625)"/>
       </defs>
       <use xlink:href="#DejaVuSans-30"/>
       <use xlink:href="#DejaVuSans-2e" transform="translate(63.623047 0)"/>
       <use xlink:href="#DejaVuSans-32" transform="translate(95.410156 0)"/>
      </g>
     </g>
    </g>
    <g id="ytick_3">
     <g id="line2d_19">
      <path d="M 46.965625 130.371395 
L 796.249625 130.371395 
" clip-path="url(#p27db165c05)" style="fill: none; stroke: #b0b0b0; stroke-opacity: 0.3; stroke-width: 0.8; stroke-linecap: square"/>
     </g>
     <g id="line2d_20">
      <g>
       <use xlink:href="#m17f28fd469" x="46.965625" y="130.371395" style="stroke: #000000; stroke-width: 0.8"/>
      </g>
     </g>
     <g id="text_3">
      <!-- 0.4 -->
      <g transform="translate(24.0625 134.170614) scale(0.1 -0.1)">
       <defs>
        <path id="DejaVuSans-34" d="M 2419 4116 
L 825 1625 
L 2419 1625 
L 2419 4116 
z
M 2253 4666 
L 3047 4666 
L 3047 1625 
L 3713 1625 
L 3713 1100 
L 3047 1100 
L 3047 0 
L 2419 0 
L 2419 1100 
L 313 1100 
L 313 1709 
L 2253 4666 
z
" transform="scale(0.015625)"/>
       </defs>
       <use xlink:href="#DejaVuSans-30"/>
       <use xlink:href="#DejaVuSans-2e" transform="translate(63.623047 0)"/>
       <use xlink:href="#DejaVuSans-34" transform="translate(95.410156 0)"/>
      </g>
     </g>
    </g>
    <g id="ytick_4">
     <g id="line2d_21">
      <path d="M 46.965625 97.37803 
L 796.249625 97.37803 
" clip-path="url(#p27db165c05)" style="fill: none; stroke: #b0b0b0; stroke-opacity: 0.3; stroke-width: 0.8; stroke-linecap: square"/>
     </g>
     <g id="line2d_22">
      <g>
       <use xlink:href="#m17f28fd469" x="46.965625" y="97.37803" style="stroke: #000000; stroke-width: 0.8"/>
      </g>
     </g>
     <g id="text_4">
      <!-- 0.6 -->
      <g transform="translate(24.0625 101.177249) scale(0.1 -0.1)">
       <defs>
        <path id="DejaVuSans-36" d="M 2113 2584 
Q 1688 2584 1439 2293 
Q 1191 2003 1191 1497 
Q 1191 994 1439 701 
Q 1688 409 2113 409 
Q 2538 409 2786 701 
Q 3034 994 3034 1497 
Q 3034 2003 2786 2293 
Q 2538 2584 2113 2584 
z
M 3366 4563 
L 3366 3988 
Q 3128 4100 2886 4159 
Q 2644 4219 2406 4219 
Q 1781 4219 1451 3797 
Q 1122 3375 1075 2522 
Q 1259 2794 1537 2939 
Q 1816 3084 2150 3084 
Q 2853 3084 3261 2657 
Q 3669 2231 3669 1497 
Q 3669 778 3244 343 
Q 2819 -91 2113 -91 
Q 1303 -91 875 529 
Q 447 1150 447 2328 
Q 447 3434 972 4092 
Q 1497 4750 2381 4750 
Q 2619 4750 2861 4703 
Q 3103 4656 3366 4563 
z
" transform="scale(0.015625)"/>
       </defs>
       <use xlink:href="#DejaVuSans-30"/>
       <use xlink:href="#DejaVuSans-2e" transform="translate(63.623047 0)"/>
       <use xlink:href="#DejaVuSans-36" transform="translate(95.410156 0)"/>
      </g>
     </g>
    </g>
    <g id="ytick_5">
     <g id="line2d_23">
      <path d="M 46.965625 64.384665 
L 796.249625 64.384665 
" clip-path="url(#p27db165c05)" style="fill: none; stroke: #b0b0b0; stroke-opacity: 0.3; stroke-width: 0.8; stroke-linecap: square"/>
     </g>
     <g id="line2d_24">
      <g>
       <use xlink:href="#m17f28fd469" x="46.965625" y="64.384665" style="stroke: #000000; stroke-width: 0.8"/>
      </g>
     </g>
     <g id="text_5">
      <!-- 0.8 -->
      <g transform="translate(24.0625 68.183884) scale(0.1 -0.1)">
       <defs>
        <path id="DejaVuSans-38" d="M 2034 2216 
Q 1584 2216 1326 1975 
Q 1069 1734 1069 1313 
Q 1069 891 1326 650 
Q 1584 409 2034 409 
Q 2484 409 2743 651 
Q 3003 894 3003 1313 
Q 3003 1734 2745 1975 
Q 2488 2216 2034 2216 
z
M 1403 2484 
Q 997 2584 770 2862 
Q 544 3141 544 3541 
Q 544 4100 942 4425 
Q 1341 4750 2034 4750 
Q 2731 4750 3128 4425 
Q 3525 4100 3525 3541 
Q 3525 3141 3298 2862 
Q 3072 2584 2669 2484 
Q 3125 2378 3379 2068 
Q 3634 1759 3634 1313 
Q 3634 634 3220 271 
Q 2806 -91 2034 -91 
Q 1263 -91 848 271 
Q 434 634 434 1313 
Q 434 1759 690 2068 
Q 947 2378 1403 2484 
z
M 1172 3481 
Q 1172 3119 1398 2916 
Q 1625 2713 2034 2713 
Q 2441 2713 2670 2916 
Q 2900 3119 2900 3481 
Q 2900 3844 2670 4047 
Q 2441 4250 2034 4250 
Q 1625 4250 1398 4047 
Q 1172 3844 1172 3481 
z
" transform="scale(0.015625)"/>
       </defs>
       <use xlink:href="#DejaVuSans-30"/>
       <use xlink:href="#DejaVuSans-2e" transform="translate(63.623047 0)"/>
       <use xlink:href="#DejaVuSans-38" transform="translate(95.410156 0)"/>
      </g>
     </g>
    </g>
    <g id="ytick_6">
     <g id="line2d_25">
      <path d="M 46.965625 31.3913 
L 796.249625 31.3913 
" clip-path="url(#p27db165c05)" style="fill: none; stroke: #b0b0b0; stroke-opacity: 0.3; stroke-width: 0.8; stroke-linecap: square"/>
     </g>
     <g id="line2d_26">
      <g>
       <use xlink:href="#m17f28fd469" x="46.965625" y="31.3913" style="stroke: #000000; stroke-width: 0.8"/>
      </g>
     </g>
     <g id="text_6">
      <!-- 1.0 -->
      <g transform="translate(24.0625 35.190519) scale(0.1 -0.1)">
       <defs>
        <path id="DejaVuSans-31" d="M 794 531 
L 1825 531 
L 1825 4091 
L 703 3866 
L 703 4441 
L 1819 4666 
L 2450 4666 
L 2450 531 
L 3481 531 
L 3481 0 
L 794 0 
L 794 531 
z
" transform="scale(0.015625)"/>
       </defs>
       <use xlink:href="#DejaVuSans-31"/>
       <use xlink:href="#DejaVuSans-2e" transform="translate(63.623047 0)"/>
       <use xlink:href="#DejaVuSans-30" transform="translate(95.410156 0)"/>
      </g>
     </g>
    </g>
    <g id="text_7">
     <!-- mol/s -->
     <g transform="translate(17.982813 122.945937) rotate(-90) scale(0.1 -0.1)">
      <defs>
       <path id="DejaVuSans-6d" d="M 3328 2828 
Q 3544 3216 3844 3400 
Q 4144 3584 4550 3584 
Q 5097 3584 5394 3201 
Q 5691 2819 5691 2113 
L 5691 0 
L 5113 0 
L 5113 2094 
Q 5113 2597 4934 2840 
Q 4756 3084 4391 3084 
Q 3944 3084 3684 2787 
Q 3425 2491 3425 1978 
L 3425 0 
L 2847 0 
L 2847 2094 
Q 2847 2600 2669 2842 
Q 2491 3084 2119 3084 
Q 1678 3084 1418 2786 
Q 1159 2488 1159 1978 
L 1159 0 
L 581 0 
L 581 3500 
L 1159 3500 
L 1159 2956 
Q 1356 3278 1631 3431 
Q 1906 3584 2284 3584 
Q 2666 3584 2933 3390 
Q 3200 3197 3328 2828 
z
" transform="scale(0.015625)"/>
       <path id="DejaVuSans-6f" d="M 1959 3097 
Q 1497 3097 1228 2736 
Q 959 2375 959 1747 
Q 959 1119 1226 758 
Q 1494 397 1959 397 
Q 2419 397 2687 759 
Q 2956 1122 2956 1747 
Q 2956 2369 2687 2733 
Q 2419 3097 1959 3097 
z
M 1959 3584 
Q 2709 3584 3137 3096 
Q 3566 2609 3566 1747 
Q 3566 888 3137 398 
Q 2709 -91 1959 -91 
Q 1206 -91 779 398 
Q 353 888 353 1747 
Q 353 2609 779 3096 
Q 1206 3584 1959 3584 
z
" transform="scale(0.015625)"/>
       <path id="DejaVuSans-6c" d="M 603 4863 
L 1178 4863 
L 1178 0 
L 603 0 
L 603 4863 
z
" transform="scale(0.015625)"/>
       <path id="DejaVuSans-2f" d="M 1625 4666 
L 2156 4666 
L 531 -594 
L 0 -594 
L 1625 4666 
z
" transform="scale(0.015625)"/>
       <path id="DejaVuSans-73" d="M 2834 3397 
L 2834 2853 
Q 2591 2978 2328 3040 
Q 2066 3103 1784 3103 
Q 1356 3103 1142 2972 
Q 928 2841 928 2578 
Q 928 2378 1081 2264 
Q 1234 2150 1697 2047 
L 1894 2003 
Q 2506 1872 2764 1633 
Q 3022 1394 3022 966 
Q 3022 478 2636 193 
Q 2250 -91 1575 -91 
Q 1294 -91 989 -36 
Q 684 19 347 128 
L 347 722 
Q 666 556 975 473 
Q 1284 391 1588 391 
Q 1994 391 2212 530 
Q 2431 669 2431 922 
Q 2431 1156 2273 1281 
Q 2116 1406 1581 1522 
L 1381 1569 
Q 847 1681 609 1914 
Q 372 2147 372 2553 
Q 372 3047 722 3315 
Q 1072 3584 1716 3584 
Q 2034 3584 2315 3537 
Q 2597 3491 2834 3397 
z
" transform="scale(0.015625)"/>
      </defs>
      <use xlink:href="#DejaVuSans-6d"/>
      <use xlink:href="#DejaVuSans-6f" transform="translate(97.412109 0)"/>
      <use xlink:href="#DejaVuSans-6c" transform="translate(158.59375 0)"/>
      <use xlink:href="#DejaVuSans-2f" transform="translate(186.376953 0)"/>
      <use xlink:href="#DejaVuSans-73" transform="translate(220.068359 0)"/>
     </g>
    </g>
   </g>
   <g id="line2d_27">
    <path d="M 46.965625 31.3913 
L 796.249625 31.3913 
" clip-path="url(#p27db165c05)" style="fill: none; stroke: #1d3557; stroke-width: 2; stroke-linecap: square"/>
   </g>
   <g id="patch_3">
    <path d="M 46.965625 196.358125 
L 46.965625 22.318125 
" style="fill: none; stroke: #000000; stroke-width: 0.8; stroke-linejoin: miter; stroke-linecap: square"/>
   </g>
   <g id="patch_4">
    <path d="M 796.249625 196.358125 
L 796.249625 22.318125 
" style="fill: none; stroke: #000000; stroke-width: 0.8; stroke-linejoin: miter; stroke-linecap: square"/>
   </g>
   <g id="patch_5">
    <path d="M 46.965625 196.358125 
L 796.249625 196.358125 
" style="fill: none; stroke: #000000; stroke-width: 0.8; stroke-linejoin: miter; stroke-linecap: square"/>
   </g>
   <g id="patch_6">
    <path d="M 46.965625 22.318125 
L 796.249625 22.318125 
" style="fill: none; stroke: #000000; stroke-width: 0.8; stroke-linejoin: miter; stroke-linecap: square"/>
   </g>
   <g id="text_8">
    <!-- Inlet Flow -->
    <g transform="translate(392.721375 16.318125) scale(0.12 -0.12)">
     <defs>
      <path id="DejaVuSans-49" d="M 628 4666 
L 1259 4666 
L 1259 0 
L 628 0 
L 628 4666 
z
" transform="scale(0.015625)"/>
      <path id="DejaVuSans-6e" d="M 3513 2113 
L 3513 0 
L 2938 0 
L 2938 2094 
Q 2938 2591 2744 2837 
Q 2550 3084 2163 3084 
Q 1697 3084 1428 2787 
Q 1159 2491 1159 1978 
L 1159 0 
L 581 0 
L 581 3500 
L 1159 3500 
L 1159 2956 
Q 1366 3272 1645 3428 
Q 1925 3584 2291 3584 
Q 2894 3584 3203 3211 
Q 3513 2838 3513 2113 
z
" transform="scale(0.015625)"/>
      <path id="DejaVuSans-65" d="M 3597 1894 
L 3597 1613 
L 953 1613 
Q 991 1019 1311 708 
Q 1631 397 2203 397 
Q 2534 397 2845 478 
Q 3156 559 3463 722 
L 3463 178 
Q 3153 47 2828 -22 
Q 2503 -91 2169 -91 
Q 1331 -91 842 396 
Q 353 884 353 1716 
Q 353 2575 817 3079 
Q 1281 3584 2069 3584 
Q 2775 3584 3186 3129 
Q 3597 2675 3597 1894 
z
M 3022 2063 
Q 3016 2534 2758 2815 
Q 2500 3097 2075 3097 
Q 1594 3097 1305 2825 
Q 1016 2553 972 2059 
L 3022 2063 
z
" transform="scale(0.015625)"/>
      <path id="DejaVuSans-74" d="M 1172 4494 
L 1172 3500 
L 2356 3500 
L 2356 3053 
L 1172 3053 
L 1172 1153 
Q 1172 725 1289 603 
Q 1406 481 1766 481 
L 2356 481 
L 2356 0 
L 1766 0 
Q 1100 0 847 248 
Q 594 497 594 1153 
L 594 3053 
L 172 3053 
L 172 3500 
L 594 3500 
L 594 4494 
L 1172 4494 
z
" transform="scale(0.015625)"/>
      <path id="DejaVuSans-20" transform="scale(0.015625)"/>
      <path id="DejaVuSans-46" d="M 628 4666 
L 3309 4666 
L 3309 4134 
L 1259 4134 
L 1259 2759 
L 3109 2759 
L 3109 2228 
L 1259 2228 
L 1259 0 
L 628 0 
L 628 4666 
z
" transform="scale(0.015625)"/>
      <path id="DejaVuSans-77" d="M 269 3500 
L 844 3500 
L 1563 769 
L 2278 3500 
L 2956 3500 
L 3675 769 
L 4391 3500 
L 4966 3500 
L 4050 0 
L 3372 0 
L 2619 2869 
L 1863 0 
L 1184 0 
L 269 3500 
z
" transform="scale(0.015625)"/>
     </defs>
     <use xlink:href="#DejaVuSans-49"/>
     <use xlink:href="#DejaVuSans-6e" transform="translate(29.492188 0)"/>
     <use xlink:href="#DejaVuSans-6c" transform="translate(92.871094 0)"/>
     <use xlink:href="#DejaVuSans-65" transform="translate(120.654297 0)"/>
     <use xlink:href="#DejaVuSans-74" transform="translate(182.177734 0)"/>
     <use xlink:href="#DejaVuSans-20" transform="translate(221.386719 0)"/>
     <use xlink:href="#DejaVuSans-46" transform="translate(253.173828 0)"/>
     <use xlink:href="#DejaVuSans-6c" transform="translate(310.693359 0)"/>
     <use xlink:href="#DejaVuSans-6f" transform="translate(338.476562 0)"/>
     <use xlink:href="#DejaVuSans-77" transform="translate(399.658203 0)"/>
    </g>
   </g>
  </g>
  <g id="axes_2">
   <g id="patch_7">
    <path d="M 46.965625 403.398125 
L 796.249625 403.398125 
L 796.249625 229.358125 
L 46.965625 229.358125 
z
" style="fill: #ffffff"/>
   </g>
   <g id="matplotlib.axis_3">
    <g id="xtick_8">
     <g id="line2d_28">
      <path d="M 46.965625 403.398125 
L 46.965625 229.358125 
" clip-path="url(#p69ee964bdb)" style="fill: none; stroke: #b0b0b0; stroke-opacity: 0.3; stroke-width: 0.8; stroke-linecap: square"/>
     </g>
     <g id="line2d_29">
      <g>
       <use xlink:href="#mc500a3fff4" x="46.965625" y="403.398125" style="stroke: #000000; stroke-width: 0.8"/>
      </g>
     </g>
    </g>
    <g id="xtick_9">
     <g id="line2d_30">
      <path d="M 171.846292 403.398125 
L 171.846292 229.358125 
" clip-path="url(#p69ee964bdb)" style="fill: none; stroke: #b0b0b0; stroke-opacity: 0.3; stroke-width: 0.8; stroke-linecap: square"/>
     </g>
     <g id="line2d_31">
      <g>
       <use xlink:href="#mc500a3fff4" x="171.846292" y="403.398125" style="stroke: #000000; stroke-width: 0.8"/>
      </g>
     </g>
    </g>
    <g id="xtick_10">
     <g id="line2d_32">
      <path d="M 296.726958 403.398125 
L 296.726958 229.358125 
" clip-path="url(#p69ee964bdb)" style="fill: none; stroke: #b0b0b0; stroke-opacity: 0.3; stroke-width: 0.8; stroke-linecap: square"/>
     </g>
     <g id="line2d_33">
      <g>
       <use xlink:href="#mc500a3fff4" x="296.726958" y="403.398125" style="stroke: #000000; stroke-width: 0.8"/>
      </g>
     </g>
    </g>
    <g id="xtick_11">
     <g id="line2d_34">
      <path d="M 421.607625 403.398125 
L 421.607625 229.358125 
" clip-path="url(#p69ee964bdb)" style="fill: none; stroke: #b0b0b0; stroke-opacity: 0.3; stroke-width: 0.8; stroke-linecap: square"/>
     </g>
     <g id="line2d_35">
      <g>
       <use xlink:href="#mc500a3fff4" x="421.607625" y="403.398125" style="stroke: #000000; stroke-width: 0.8"/>
      </g>
     </g>
    </g>
    <g id="xtick_12">
     <g id="line2d_36">
      <path d="M 546.488292 403.398125 
L 546.488292 229.358125 
" clip-path="url(#p69ee964bdb)" style="fill: none; stroke: #b0b0b0; stroke-opacity: 0.3; stroke-width: 0.8; stroke-linecap: square"/>
     </g>
     <g id="line2d_37">
      <g>
       <use xlink:href="#mc500a3fff4" x="546.488292" y="403.398125" style="stroke: #000000; stroke-width: 0.8"/>
      </g>
     </g>
    </g>
    <g id="xtick_13">
     <g id="line2d_38">
      <path d="M 671.368958 403.398125 
L 671.368958 229.358125 
" clip-path="url(#p69ee964bdb)" style="fill: none; stroke: #b0b0b0; stroke-opacity: 0.3; stroke-width: 0.8; stroke-linecap: square"/>
     </g>
     <g id="line2d_39">
      <g>
       <use xlink:href="#mc500a3fff4" x="671.368958" y="403.398125" style="stroke: #000000; stroke-width: 0.8"/>
      </g>
     </g>
    </g>
    <g id="xtick_14">
     <g id="line2d_40">
      <path d="M 796.249625 403.398125 
L 796.249625 229.358125 
" clip-path="url(#p69ee964bdb)" style="fill: none; stroke: #b0b0b0; stroke-opacity: 0.3; stroke-width: 0.8; stroke-linecap: square"/>
     </g>
     <g id="line2d_41">
      <g>
       <use xlink:href="#mc500a3fff4" x="796.249625" y="403.398125" style="stroke: #000000; stroke-width: 0.8"/>
      </g>
     </g>
    </g>
   </g>
   <g id="matplotlib.axis_4">
    <g id="ytick_7">
     <g id="line2d_42">
      <path d="M 46.965625 395.487216 
L 796.249625 395.487216 
" clip-path="url(#p69ee964bdb)" style="fill: none; stroke: #b0b0b0; stroke-opacity: 0.3; stroke-width: 0.8; stroke-linecap: square"/>
     </g>
     <g id="line2d_43">
      <g>
       <use xlink:href="#m17f28fd469" x="46.965625" y="395.487216" style="stroke: #000000; stroke-width: 0.8"/>
      </g>
     </g>
     <g id="text_9">
      <!-- 570 -->
      <g transform="translate(20.878125 399.286435) scale(0.1 -0.1)">
       <defs>
        <path id="DejaVuSans-35" d="M 691 4666 
L 3169 4666 
L 3169 4134 
L 1269 4134 
L 1269 2991 
Q 1406 3038 1543 3061 
Q 1681 3084 1819 3084 
Q 2600 3084 3056 2656 
Q 3513 2228 3513 1497 
Q 3513 744 3044 326 
Q 2575 -91 1722 -91 
Q 1428 -91 1123 -41 
Q 819 9 494 109 
L 494 744 
Q 775 591 1075 516 
Q 1375 441 1709 441 
Q 2250 441 2565 725 
Q 2881 1009 2881 1497 
Q 2881 1984 2565 2268 
Q 2250 2553 1709 2553 
Q 1456 2553 1204 2497 
Q 953 2441 691 2322 
L 691 4666 
z
" transform="scale(0.015625)"/>
        <path id="DejaVuSans-37" d="M 525 4666 
L 3525 4666 
L 3525 4397 
L 1831 0 
L 1172 0 
L 2766 4134 
L 525 4134 
L 525 4666 
z
" transform="scale(0.015625)"/>
       </defs>
       <use xlink:href="#DejaVuSans-35"/>
       <use xlink:href="#DejaVuSans-37" transform="translate(63.623047 0)"/>
       <use xlink:href="#DejaVuSans-30" transform="translate(127.246094 0)"/>
      </g>
     </g>
    </g>
    <g id="ytick_8">
     <g id="line2d_44">
      <path d="M 46.965625 369.117519 
L 796.249625 369.117519 
" clip-path="url(#p69ee964bdb)" style="fill: none; stroke: #b0b0b0; stroke-opacity: 0.3; stroke-width: 0.8; stroke-linecap: square"/>
     </g>
     <g id="line2d_45">
      <g>
       <use xlink:href="#m17f28fd469" x="46.965625" y="369.117519" style="stroke: #000000; stroke-width: 0.8"/>
      </g>
     </g>
     <g id="text_10">
      <!-- 580 -->
      <g transform="translate(20.878125 372.916738) scale(0.1 -0.1)">
       <use xlink:href="#DejaVuSans-35"/>
       <use xlink:href="#DejaVuSans-38" transform="translate(63.623047 0)"/>
       <use xlink:href="#DejaVuSans-30" transform="translate(127.246094 0)"/>
      </g>
     </g>
    </g>
    <g id="ytick_9">
     <g id="line2d_46">
      <path d="M 46.965625 342.747822 
L 796.249625 342.747822 
" clip-path="url(#p69ee964bdb)" style="fill: none; stroke: #b0b0b0; stroke-opacity: 0.3; stroke-width: 0.8; stroke-linecap: square"/>
     </g>
     <g id="line2d_47">
      <g>
       <use xlink:href="#m17f28fd469" x="46.965625" y="342.747822" style="stroke: #000000; stroke-width: 0.8"/>
      </g>
     </g>
     <g id="text_11">
      <!-- 590 -->
      <g transform="translate(20.878125 346.547041) scale(0.1 -0.1)">
       <defs>
        <path id="DejaVuSans-39" d="M 703 97 
L 703 672 
Q 941 559 1184 500 
Q 1428 441 1663 441 
Q 2288 441 2617 861 
Q 2947 1281 2994 2138 
Q 2813 1869 2534 1725 
Q 2256 1581 1919 1581 
Q 1219 1581 811 2004 
Q 403 2428 403 3163 
Q 403 3881 828 4315 
Q 1253 4750 1959 4750 
Q 2769 4750 3195 4129 
Q 3622 3509 3622 2328 
Q 3622 1225 3098 567 
Q 2575 -91 1691 -91 
Q 1453 -91 1209 -44 
Q 966 3 703 97 
z
M 1959 2075 
Q 2384 2075 2632 2365 
Q 2881 2656 2881 3163 
Q 2881 3666 2632 3958 
Q 2384 4250 1959 4250 
Q 1534 4250 1286 3958 
Q 1038 3666 1038 3163 
Q 1038 2656 1286 2365 
Q 1534 2075 1959 2075 
z
" transform="scale(0.015625)"/>
       </defs>
       <use xlink:href="#DejaVuSans-35"/>
       <use xlink:href="#DejaVuSans-39" transform="translate(63.623047 0)"/>
       <use xlink:href="#DejaVuSans-30" transform="translate(127.246094 0)"/>
      </g>
     </g>
    </g>
    <g id="ytick_10">
     <g id="line2d_48">
      <path d="M 46.965625 316.378125 
L 796.249625 316.378125 
" clip-path="url(#p69ee964bdb)" style="fill: none; stroke: #b0b0b0; stroke-opacity: 0.3; stroke-width: 0.8; stroke-linecap: square"/>
     </g>
     <g id="line2d_49">
      <g>
       <use xlink:href="#m17f28fd469" x="46.965625" y="316.378125" style="stroke: #000000; stroke-width: 0.8"/>
      </g>
     </g>
     <g id="text_12">
      <!-- 600 -->
      <g transform="translate(20.878125 320.177344) scale(0.1 -0.1)">
       <use xlink:href="#DejaVuSans-36"/>
       <use xlink:href="#DejaVuSans-30" transform="translate(63.623047 0)"/>
       <use xlink:href="#DejaVuSans-30" transform="translate(127.246094 0)"/>
      </g>
     </g>
    </g>
    <g id="ytick_11">
     <g id="line2d_50">
      <path d="M 46.965625 290.008428 
L 796.249625 290.008428 
" clip-path="url(#p69ee964bdb)" style="fill: none; stroke: #b0b0b0; stroke-opacity: 0.3; stroke-width: 0.8; stroke-linecap: square"/>
     </g>
     <g id="line2d_51">
      <g>
       <use xlink:href="#m17f28fd469" x="46.965625" y="290.008428" style="stroke: #000000; stroke-width: 0.8"/>
      </g>
     </g>
     <g id="text_13">
      <!-- 610 -->
      <g transform="translate(20.878125 293.807647) scale(0.1 -0.1)">
       <use xlink:href="#DejaVuSans-36"/>
       <use xlink:href="#DejaVuSans-31" transform="translate(63.623047 0)"/>
       <use xlink:href="#DejaVuSans-30" transform="translate(127.246094 0)"/>
      </g>
     </g>
    </g>
    <g id="ytick_12">
     <g id="line2d_52">
      <path d="M 46.965625 263.638731 
L 796.249625 263.638731 
" clip-path="url(#p69ee964bdb)" style="fill: none; stroke: #b0b0b0; stroke-opacity: 0.3; stroke-width: 0.8; stroke-linecap: square"/>
     </g>
     <g id="line2d_53">
      <g>
       <use xlink:href="#m17f28fd469" x="46.965625" y="263.638731" style="stroke: #000000; stroke-width: 0.8"/>
      </g>
     </g>
     <g id="text_14">
      <!-- 620 -->
      <g transform="translate(20.878125 267.43795) scale(0.1 -0.1)">
       <use xlink:href="#DejaVuSans-36"/>
       <use xlink:href="#DejaVuSans-32" transform="translate(63.623047 0)"/>
       <use xlink:href="#DejaVuSans-30" transform="translate(127.246094 0)"/>
      </g>
     </g>
    </g>
    <g id="ytick_13">
     <g id="line2d_54">
      <path d="M 46.965625 237.269034 
L 796.249625 237.269034 
" clip-path="url(#p69ee964bdb)" style="fill: none; stroke: #b0b0b0; stroke-opacity: 0.3; stroke-width: 0.8; stroke-linecap: square"/>
     </g>
     <g id="line2d_55">
      <g>
       <use xlink:href="#m17f28fd469" x="46.965625" y="237.269034" style="stroke: #000000; stroke-width: 0.8"/>
      </g>
     </g>
     <g id="text_15">
      <!-- 630 -->
      <g transform="translate(20.878125 241.068253) scale(0.1 -0.1)">
       <defs>
        <path id="DejaVuSans-33" d="M 2597 2516 
Q 3050 2419 3304 2112 
Q 3559 1806 3559 1356 
Q 3559 666 3084 287 
Q 2609 -91 1734 -91 
Q 1441 -91 1130 -33 
Q 819 25 488 141 
L 488 750 
Q 750 597 1062 519 
Q 1375 441 1716 441 
Q 2309 441 2620 675 
Q 2931 909 2931 1356 
Q 2931 1769 2642 2001 
Q 2353 2234 1838 2234 
L 1294 2234 
L 1294 2753 
L 1863 2753 
Q 2328 2753 2575 2939 
Q 2822 3125 2822 3475 
Q 2822 3834 2567 4026 
Q 2313 4219 1838 4219 
Q 1578 4219 1281 4162 
Q 984 4106 628 3988 
L 628 4550 
Q 988 4650 1302 4700 
Q 1616 4750 1894 4750 
Q 2613 4750 3031 4423 
Q 3450 4097 3450 3541 
Q 3450 3153 3228 2886 
Q 3006 2619 2597 2516 
z
" transform="scale(0.015625)"/>
       </defs>
       <use xlink:href="#DejaVuSans-36"/>
       <use xlink:href="#DejaVuSans-33" transform="translate(63.623047 0)"/>
       <use xlink:href="#DejaVuSans-30" transform="translate(127.246094 0)"/>
      </g>
     </g>
    </g>
    <g id="text_16">
     <!-- K -->
     <g transform="translate(14.798438 319.657031) rotate(-90) scale(0.1 -0.1)">
      <defs>
       <path id="DejaVuSans-4b" d="M 628 4666 
L 1259 4666 
L 1259 2694 
L 3353 4666 
L 4166 4666 
L 1850 2491 
L 4331 0 
L 3500 0 
L 1259 2247 
L 1259 0 
L 628 0 
L 628 4666 
z
" transform="scale(0.015625)"/>
      </defs>
      <use xlink:href="#DejaVuSans-4b"/>
     </g>
    </g>
   </g>
   <g id="line2d_56">
    <path d="M 46.965625 316.378125 
L 796.249625 316.378125 
" clip-path="url(#p69ee964bdb)" style="fill: none; stroke: #e76f51; stroke-width: 2; stroke-linecap: square"/>
   </g>
   <g id="patch_8">
    <path d="M 46.965625 403.398125 
L 46.965625 229.358125 
" style="fill: none; stroke: #000000; stroke-width: 0.8; stroke-linejoin: miter; stroke-linecap: square"/>
   </g>
   <g id="patch_9">
    <path d="M 796.249625 403.398125 
L 796.249625 229.358125 
" style="fill: none; stroke: #000000; stroke-width: 0.8; stroke-linejoin: miter; stroke-linecap: square"/>
   </g>
   <g id="patch_10">
    <path d="M 46.965625 403.398125 
L 796.249625 403.398125 
" style="fill: none; stroke: #000000; stroke-width: 0.8; stroke-linejoin: miter; stroke-linecap: square"/>
   </g>
   <g id="patch_11">
    <path d="M 46.965625 229.358125 
L 796.249625 229.358125 
" style="fill: none; stroke: #000000; stroke-width: 0.8; stroke-linejoin: miter; stroke-linecap: square"/>
   </g>
   <g id="text_17">
    <!-- Inlet Temperature -->
    <g transform="translate(368.413875 223.358125) scale(0.12 -0.12)">
     <defs>
      <path id="DejaVuSans-54" d="M -19 4666 
L 3928 4666 
L 3928 4134 
L 2272 4134 
L 2272 0 
L 1638 0 
L 1638 4134 
L -19 4134 
L -19 4666 
z
" transform="scale(0.015625)"/>
      <path id="DejaVuSans-70" d="M 1159 525 
L 1159 -1331 
L 581 -1331 
L 581 3500 
L 1159 3500 
L 1159 2969 
Q 1341 3281 1617 3432 
Q 1894 3584 2278 3584 
Q 2916 3584 3314 3078 
Q 3713 2572 3713 1747 
Q 3713 922 3314 415 
Q 2916 -91 2278 -91 
Q 1894 -91 1617 61 
Q 1341 213 1159 525 
z
M 3116 1747 
Q 3116 2381 2855 2742 
Q 2594 3103 2138 3103 
Q 1681 3103 1420 2742 
Q 1159 2381 1159 1747 
Q 1159 1113 1420 752 
Q 1681 391 2138 391 
Q 2594 391 2855 752 
Q 3116 1113 3116 1747 
z
" transform="scale(0.015625)"/>
      <path id="DejaVuSans-72" d="M 2631 2963 
Q 2534 3019 2420 3045 
Q 2306 3072 2169 3072 
Q 1681 3072 1420 2755 
Q 1159 2438 1159 1844 
L 1159 0 
L 581 0 
L 581 3500 
L 1159 3500 
L 1159 2956 
Q 1341 3275 1631 3429 
Q 1922 3584 2338 3584 
Q 2397 3584 2469 3576 
Q 2541 3569 2628 3553 
L 2631 2963 
z
" transform="scale(0.015625)"/>
      <path id="DejaVuSans-61" d="M 2194 1759 
Q 1497 1759 1228 1600 
Q 959 1441 959 1056 
Q 959 750 1161 570 
Q 1363 391 1709 391 
Q 2188 391 2477 730 
Q 2766 1069 2766 1631 
L 2766 1759 
L 2194 1759 
z
M 3341 1997 
L 3341 0 
L 2766 0 
L 2766 531 
Q 2569 213 2275 61 
Q 1981 -91 1556 -91 
Q 1019 -91 701 211 
Q 384 513 384 1019 
Q 384 1609 779 1909 
Q 1175 2209 1959 2209 
L 2766 2209 
L 2766 2266 
Q 2766 2663 2505 2880 
Q 2244 3097 1772 3097 
Q 1472 3097 1187 3025 
Q 903 2953 641 2809 
L 641 3341 
Q 956 3463 1253 3523 
Q 1550 3584 1831 3584 
Q 2591 3584 2966 3190 
Q 3341 2797 3341 1997 
z
" transform="scale(0.015625)"/>
      <path id="DejaVuSans-75" d="M 544 1381 
L 544 3500 
L 1119 3500 
L 1119 1403 
Q 1119 906 1312 657 
Q 1506 409 1894 409 
Q 2359 409 2629 706 
Q 2900 1003 2900 1516 
L 2900 3500 
L 3475 3500 
L 3475 0 
L 2900 0 
L 2900 538 
Q 2691 219 2414 64 
Q 2138 -91 1772 -91 
Q 1169 -91 856 284 
Q 544 659 544 1381 
z
M 1991 3584 
L 1991 3584 
z
" transform="scale(0.015625)"/>
     </defs>
     <use xlink:href="#DejaVuSans-49"/>
     <use xlink:href="#DejaVuSans-6e" transform="translate(29.492188 0)"/>
     <use xlink:href="#DejaVuSans-6c" transform="translate(92.871094 0)"/>
     <use xlink:href="#DejaVuSans-65" transform="translate(120.654297 0)"/>
     <use xlink:href="#DejaVuSans-74" transform="translate(182.177734 0)"/>
     <use xlink:href="#DejaVuSans-20" transform="translate(221.386719 0)"/>
     <use xlink:href="#DejaVuSans-54" transform="translate(253.173828 0)"/>
     <use xlink:href="#DejaVuSans-65" transform="translate(297.257812 0)"/>
     <use xlink:href="#DejaVuSans-6d" transform="translate(358.78125 0)"/>
     <use xlink:href="#DejaVuSans-70" transform="translate(456.193359 0)"/>
     <use xlink:href="#DejaVuSans-65" transform="translate(519.669922 0)"/>
     <use xlink:href="#DejaVuSans-72" transform="translate(581.193359 0)"/>
     <use xlink:href="#DejaVuSans-61" transform="translate(622.306641 0)"/>
     <use xlink:href="#DejaVuSans-74" transform="translate(683.585938 0)"/>
     <use xlink:href="#DejaVuSans-75" transform="translate(722.794922 0)"/>
     <use xlink:href="#DejaVuSans-72" transform="translate(786.173828 0)"/>
     <use xlink:href="#DejaVuSans-65" transform="translate(825.037109 0)"/>
    </g>
   </g>
  </g>
  <g id="axes_3">
   <g id="patch_12">
    <path d="M 46.965625 610.438125 
L 796.249625 610.438125 
L 796.249625 436.398125 
L 46.965625 436.398125 
z
" style="fill: #ffffff"/>
   </g>
   <g id="matplotlib.axis_5">
    <g id="xtick_15">
     <g id="line2d_57">
      <path d="M 46.965625 610.438125 
L 46.965625 436.398125 
" clip-path="url(#pf4d93a824f)" style="fill: none; stroke: #b0b0b0; stroke-opacity: 0.3; stroke-width: 0.8; stroke-linecap: square"/>
     </g>
     <g id="line2d_58">
      <g>
       <use xlink:href="#mc500a3fff4" x="46.965625" y="610.438125" style="stroke: #000000; stroke-width: 0.8"/>
      </g>
     </g>
    </g>
    <g id="xtick_16">
     <g id="line2d_59">
      <path d="M 171.846292 610.438125 
L 171.846292 436.398125 
" clip-path="url(#pf4d93a824f)" style="fill: none; stroke: #b0b0b0; stroke-opacity: 0.3; stroke-width: 0.8; stroke-linecap: square"/>
     </g>
     <g id="line2d_60">
      <g>
       <use xlink:href="#mc500a3fff4" x="171.846292" y="610.438125" style="stroke: #000000; stroke-width: 0.8"/>
      </g>
     </g>
    </g>
    <g id="xtick_17">
     <g id="line2d_61">
      <path d="M 296.726958 610.438125 
L 296.726958 436.398125 
" clip-path="url(#pf4d93a824f)" style="fill: none; stroke: #b0b0b0; stroke-opacity: 0.3; stroke-width: 0.8; stroke-linecap: square"/>
     </g>
     <g id="line2d_62">
      <g>
       <use xlink:href="#mc500a3fff4" x="296.726958" y="610.438125" style="stroke: #000000; stroke-width: 0.8"/>
      </g>
     </g>
    </g>
    <g id="xtick_18">
     <g id="line2d_63">
      <path d="M 421.607625 610.438125 
L 421.607625 436.398125 
" clip-path="url(#pf4d93a824f)" style="fill: none; stroke: #b0b0b0; stroke-opacity: 0.3; stroke-width: 0.8; stroke-linecap: square"/>
     </g>
     <g id="line2d_64">
      <g>
       <use xlink:href="#mc500a3fff4" x="421.607625" y="610.438125" style="stroke: #000000; stroke-width: 0.8"/>
      </g>
     </g>
    </g>
    <g id="xtick_19">
     <g id="line2d_65">
      <path d="M 546.488292 610.438125 
L 546.488292 436.398125 
" clip-path="url(#pf4d93a824f)" style="fill: none; stroke: #b0b0b0; stroke-opacity: 0.3; stroke-width: 0.8; stroke-linecap: square"/>
     </g>
     <g id="line2d_66">
      <g>
       <use xlink:href="#mc500a3fff4" x="546.488292" y="610.438125" style="stroke: #000000; stroke-width: 0.8"/>
      </g>
     </g>
    </g>
    <g id="xtick_20">
     <g id="line2d_67">
      <path d="M 671.368958 610.438125 
L 671.368958 436.398125 
" clip-path="url(#pf4d93a824f)" style="fill: none; stroke: #b0b0b0; stroke-opacity: 0.3; stroke-width: 0.8; stroke-linecap: square"/>
     </g>
     <g id="line2d_68">
      <g>
       <use xlink:href="#mc500a3fff4" x="671.368958" y="610.438125" style="stroke: #000000; stroke-width: 0.8"/>
      </g>
     </g>
    </g>
    <g id="xtick_21">
     <g id="line2d_69">
      <path d="M 796.249625 610.438125 
L 796.249625 436.398125 
" clip-path="url(#pf4d93a824f)" style="fill: none; stroke: #b0b0b0; stroke-opacity: 0.3; stroke-width: 0.8; stroke-linecap: square"/>
     </g>
     <g id="line2d_70">
      <g>
       <use xlink:href="#mc500a3fff4" x="796.249625" y="610.438125" style="stroke: #000000; stroke-width: 0.8"/>
      </g>
     </g>
    </g>
   </g>
   <g id="matplotlib.axis_6">
    <g id="ytick_14">
     <g id="line2d_71">
      <path d="M 46.965625 610.438125 
L 796.249625 610.438125 
" clip-path="url(#pf4d93a824f)" style="fill: none; stroke: #b0b0b0; stroke-opacity: 0.3; stroke-width: 0.8; stroke-linecap: square"/>
     </g>
     <g id="line2d_72">
      <g>
       <use xlink:href="#m17f28fd469" x="46.965625" y="610.438125" style="stroke: #000000; stroke-width: 0.8"/>
      </g>
     </g>
     <g id="text_18">
      <!-- 0 -->
      <g transform="translate(33.603125 614.237344) scale(0.1 -0.1)">
       <use xlink:href="#DejaVuSans-30"/>
      </g>
     </g>
    </g>
    <g id="ytick_15">
     <g id="line2d_73">
      <path d="M 46.965625 577.44476 
L 796.249625 577.44476 
" clip-path="url(#pf4d93a824f)" style="fill: none; stroke: #b0b0b0; stroke-opacity: 0.3; stroke-width: 0.8; stroke-linecap: square"/>
     </g>
     <g id="line2d_74">
      <g>
       <use xlink:href="#m17f28fd469" x="46.965625" y="577.44476" style="stroke: #000000; stroke-width: 0.8"/>
      </g>
     </g>
     <g id="text_19">
      <!-- 1 -->
      <g transform="translate(33.603125 581.243979) scale(0.1 -0.1)">
       <use xlink:href="#DejaVuSans-31"/>
      </g>
     </g>
    </g>
    <g id="ytick_16">
     <g id="line2d_75">
      <path d="M 46.965625 544.451395 
L 796.249625 544.451395 
" clip-path="url(#pf4d93a824f)" style="fill: none; stroke: #b0b0b0; stroke-opacity: 0.3; stroke-width: 0.8; stroke-linecap: square"/>
     </g>
     <g id="line2d_76">
      <g>
       <use xlink:href="#m17f28fd469" x="46.965625" y="544.451395" style="stroke: #000000; stroke-width: 0.8"/>
      </g>
     </g>
     <g id="text_20">
      <!-- 2 -->
      <g transform="translate(33.603125 548.250614) scale(0.1 -0.1)">
       <use xlink:href="#DejaVuSans-32"/>
      </g>
     </g>
    </g>
    <g id="ytick_17">
     <g id="line2d_77">
      <path d="M 46.965625 511.45803 
L 796.249625 511.45803 
" clip-path="url(#pf4d93a824f)" style="fill: none; stroke: #b0b0b0; stroke-opacity: 0.3; stroke-width: 0.8; stroke-linecap: square"/>
     </g>
     <g id="line2d_78">
      <g>
       <use xlink:href="#m17f28fd469" x="46.965625" y="511.45803" style="stroke: #000000; stroke-width: 0.8"/>
      </g>
     </g>
     <g id="text_21">
      <!-- 3 -->
      <g transform="translate(33.603125 515.257249) scale(0.1 -0.1)">
       <use xlink:href="#DejaVuSans-33"/>
      </g>
     </g>
    </g>
    <g id="ytick_18">
     <g id="line2d_79">
      <path d="M 46.965625 478.464665 
L 796.249625 478.464665 
" clip-path="url(#pf4d93a824f)" style="fill: none; stroke: #b0b0b0; stroke-opacity: 0.3; stroke-width: 0.8; stroke-linecap: square"/>
     </g>
     <g id="line2d_80">
      <g>
       <use xlink:href="#m17f28fd469" x="46.965625" y="478.464665" style="stroke: #000000; stroke-width: 0.8"/>
      </g>
     </g>
     <g id="text_22">
      <!-- 4 -->
      <g transform="translate(33.603125 482.263884) scale(0.1 -0.1)">
       <use xlink:href="#DejaVuSans-34"/>
      </g>
     </g>
    </g>
    <g id="ytick_19">
     <g id="line2d_81">
      <path d="M 46.965625 445.4713 
L 796.249625 445.4713 
" clip-path="url(#pf4d93a824f)" style="fill: none; stroke: #b0b0b0; stroke-opacity: 0.3; stroke-width: 0.8; stroke-linecap: square"/>
     </g>
     <g id="line2d_82">
      <g>
       <use xlink:href="#m17f28fd469" x="46.965625" y="445.4713" style="stroke: #000000; stroke-width: 0.8"/>
      </g>
     </g>
     <g id="text_23">
      <!-- 5 -->
      <g transform="translate(33.603125 449.270519) scale(0.1 -0.1)">
       <use xlink:href="#DejaVuSans-35"/>
      </g>
     </g>
    </g>
    <g id="text_24">
     <!-- Pa -->
     <g transform="translate(27.523438 529.272031) rotate(-90) scale(0.1 -0.1)">
      <defs>
       <path id="DejaVuSans-50" d="M 1259 4147 
L 1259 2394 
L 2053 2394 
Q 2494 2394 2734 2622 
Q 2975 2850 2975 3272 
Q 2975 3691 2734 3919 
Q 2494 4147 2053 4147 
L 1259 4147 
z
M 628 4666 
L 2053 4666 
Q 2838 4666 3239 4311 
Q 3641 3956 3641 3272 
Q 3641 2581 3239 2228 
Q 2838 1875 2053 1875 
L 1259 1875 
L 1259 0 
L 628 0 
L 628 4666 
z
" transform="scale(0.015625)"/>
      </defs>
      <use xlink:href="#DejaVuSans-50"/>
      <use xlink:href="#DejaVuSans-61" transform="translate(55.802734 0)"/>
     </g>
    </g>
    <g id="text_25">
     <!-- 1e6 -->
     <g transform="translate(46.965625 433.398125) scale(0.1 -0.1)">
      <use xlink:href="#DejaVuSans-31"/>
      <use xlink:href="#DejaVuSans-65" transform="translate(63.623047 0)"/>
      <use xlink:href="#DejaVuSans-36" transform="translate(125.146484 0)"/>
     </g>
    </g>
   </g>
   <g id="line2d_83">
    <path d="M 46.965625 445.4713 
L 796.249625 445.4713 
" clip-path="url(#pf4d93a824f)" style="fill: none; stroke: #264653; stroke-width: 2; stroke-linecap: square"/>
   </g>
   <g id="patch_13">
    <path d="M 46.965625 610.438125 
L 46.965625 436.398125 
" style="fill: none; stroke: #000000; stroke-width: 0.8; stroke-linejoin: miter; stroke-linecap: square"/>
   </g>
   <g id="patch_14">
    <path d="M 796.249625 610.438125 
L 796.249625 436.398125 
" style="fill: none; stroke: #000000; stroke-width: 0.8; stroke-linejoin: miter; stroke-linecap: square"/>
   </g>
   <g id="patch_15">
    <path d="M 46.965625 610.438125 
L 796.249625 610.438125 
" style="fill: none; stroke: #000000; stroke-width: 0.8; stroke-linejoin: miter; stroke-linecap: square"/>
   </g>
   <g id="patch_16">
    <path d="M 46.965625 436.398125 
L 796.249625 436.398125 
" style="fill: none; stroke: #000000; stroke-width: 0.8; stroke-linejoin: miter; stroke-linecap: square"/>
   </g>
   <g id="text_26">
    <!-- Outlet Pressure -->
    <g transform="translate(375.498562 430.398125) scale(0.12 -0.12)">
     <defs>
      <path id="DejaVuSans-4f" d="M 2522 4238 
Q 1834 4238 1429 3725 
Q 1025 3213 1025 2328 
Q 1025 1447 1429 934 
Q 1834 422 2522 422 
Q 3209 422 3611 934 
Q 4013 1447 4013 2328 
Q 4013 3213 3611 3725 
Q 3209 4238 2522 4238 
z
M 2522 4750 
Q 3503 4750 4090 4092 
Q 4678 3434 4678 2328 
Q 4678 1225 4090 567 
Q 3503 -91 2522 -91 
Q 1538 -91 948 565 
Q 359 1222 359 2328 
Q 359 3434 948 4092 
Q 1538 4750 2522 4750 
z
" transform="scale(0.015625)"/>
     </defs>
     <use xlink:href="#DejaVuSans-4f"/>
     <use xlink:href="#DejaVuSans-75" transform="translate(78.710938 0)"/>
     <use xlink:href="#DejaVuSans-74" transform="translate(142.089844 0)"/>
     <use xlink:href="#DejaVuSans-6c" transform="translate(181.298828 0)"/>
     <use xlink:href="#DejaVuSans-65" transform="translate(209.082031 0)"/>
     <use xlink:href="#DejaVuSans-74" transform="translate(270.605469 0)"/>
     <use xlink:href="#DejaVuSans-20" transform="translate(309.814453 0)"/>
     <use xlink:href="#DejaVuSans-50" transform="translate(341.601562 0)"/>
     <use xlink:href="#DejaVuSans-72" transform="translate(400.154297 0)"/>
     <use xlink:href="#DejaVuSans-65" transform="translate(439.017578 0)"/>
     <use xlink:href="#DejaVuSans-73" transform="translate(500.541016 0)"/>
     <use xlink:href="#DejaVuSans-73" transform="translate(552.640625 0)"/>
     <use xlink:href="#DejaVuSans-75" transform="translate(604.740234 0)"/>
     <use xlink:href="#DejaVuSans-72" transform="translate(668.119141 0)"/>
     <use xlink:href="#DejaVuSans-65" transform="translate(706.982422 0)"/>
    </g>
   </g>
  </g>
  <g id="axes_4">
   <g id="patch_17">
    <path d="M 46.965625 817.478125 
L 796.249625 817.478125 
L 796.249625 643.438125 
L 46.965625 643.438125 
z
" style="fill: #ffffff"/>
   </g>
   <g id="matplotlib.axis_7">
    <g id="xtick_22">
     <g id="line2d_84">
      <path d="M 46.965625 817.478125 
L 46.965625 643.438125 
" clip-path="url(#p2271bfd5a5)" style="fill: none; stroke: #b0b0b0; stroke-opacity: 0.3; stroke-width: 0.8; stroke-linecap: square"/>
     </g>
     <g id="line2d_85">
      <g>
       <use xlink:href="#mc500a3fff4" x="46.965625" y="817.478125" style="stroke: #000000; stroke-width: 0.8"/>
      </g>
     </g>
     <g id="text_27">
      <!-- 0 -->
      <g transform="translate(43.784375 832.076562) scale(0.1 -0.1)">
       <use xlink:href="#DejaVuSans-30"/>
      </g>
     </g>
    </g>
    <g id="xtick_23">
     <g id="line2d_86">
      <path d="M 171.846292 817.478125 
L 171.846292 643.438125 
" clip-path="url(#p2271bfd5a5)" style="fill: none; stroke: #b0b0b0; stroke-opacity: 0.3; stroke-width: 0.8; stroke-linecap: square"/>
     </g>
     <g id="line2d_87">
      <g>
       <use xlink:href="#mc500a3fff4" x="171.846292" y="817.478125" style="stroke: #000000; stroke-width: 0.8"/>
      </g>
     </g>
     <g id="text_28">
      <!-- 2000 -->
      <g transform="translate(159.121292 832.076562) scale(0.1 -0.1)">
       <use xlink:href="#DejaVuSans-32"/>
       <use xlink:href="#DejaVuSans-30" transform="translate(63.623047 0)"/>
       <use xlink:href="#DejaVuSans-30" transform="translate(127.246094 0)"/>
       <use xlink:href="#DejaVuSans-30" transform="translate(190.869141 0)"/>
      </g>
     </g>
    </g>
    <g id="xtick_24">
     <g id="line2d_88">
      <path d="M 296.726958 817.478125 
L 296.726958 643.438125 
" clip-path="url(#p2271bfd5a5)" style="fill: none; stroke: #b0b0b0; stroke-opacity: 0.3; stroke-width: 0.8; stroke-linecap: square"/>
     </g>
     <g id="line2d_89">
      <g>
       <use xlink:href="#mc500a3fff4" x="296.726958" y="817.478125" style="stroke: #000000; stroke-width: 0.8"/>
      </g>
     </g>
     <g id="text_29">
      <!-- 4000 -->
      <g transform="translate(284.001958 832.076562) scale(0.1 -0.1)">
       <use xlink:href="#DejaVuSans-34"/>
       <use xlink:href="#DejaVuSans-30" transform="translate(63.623047 0)"/>
       <use xlink:href="#DejaVuSans-30" transform="translate(127.246094 0)"/>
       <use xlink:href="#DejaVuSans-30" transform="translate(190.869141 0)"/>
      </g>
     </g>
    </g>
    <g id="xtick_25">
     <g id="line2d_90">
      <path d="M 421.607625 817.478125 
L 421.607625 643.438125 
" clip-path="url(#p2271bfd5a5)" style="fill: none; stroke: #b0b0b0; stroke-opacity: 0.3; stroke-width: 0.8; stroke-linecap: square"/>
     </g>
     <g id="line2d_91">
      <g>
       <use xlink:href="#mc500a3fff4" x="421.607625" y="817.478125" style="stroke: #000000; stroke-width: 0.8"/>
      </g>
     </g>
     <g id="text_30">
      <!-- 6000 -->
      <g transform="translate(408.882625 832.076562) scale(0.1 -0.1)">
       <use xlink:href="#DejaVuSans-36"/>
       <use xlink:href="#DejaVuSans-30" transform="translate(63.623047 0)"/>
       <use xlink:href="#DejaVuSans-30" transform="translate(127.246094 0)"/>
       <use xlink:href="#DejaVuSans-30" transform="translate(190.869141 0)"/>
      </g>
     </g>
    </g>
    <g id="xtick_26">
     <g id="line2d_92">
      <path d="M 546.488292 817.478125 
L 546.488292 643.438125 
" clip-path="url(#p2271bfd5a5)" style="fill: none; stroke: #b0b0b0; stroke-opacity: 0.3; stroke-width: 0.8; stroke-linecap: square"/>
     </g>
     <g id="line2d_93">
      <g>
       <use xlink:href="#mc500a3fff4" x="546.488292" y="817.478125" style="stroke: #000000; stroke-width: 0.8"/>
      </g>
     </g>
     <g id="text_31">
      <!-- 8000 -->
      <g transform="translate(533.763292 832.076562) scale(0.1 -0.1)">
       <use xlink:href="#DejaVuSans-38"/>
       <use xlink:href="#DejaVuSans-30" transform="translate(63.623047 0)"/>
       <use xlink:href="#DejaVuSans-30" transform="translate(127.246094 0)"/>
       <use xlink:href="#DejaVuSans-30" transform="translate(190.869141 0)"/>
      </g>
     </g>
    </g>
    <g id="xtick_27">
     <g id="line2d_94">
      <path d="M 671.368958 817.478125 
L 671.368958 643.438125 
" clip-path="url(#p2271bfd5a5)" style="fill: none; stroke: #b0b0b0; stroke-opacity: 0.3; stroke-width: 0.8; stroke-linecap: square"/>
     </g>
     <g id="line2d_95">
      <g>
       <use xlink:href="#mc500a3fff4" x="671.368958" y="817.478125" style="stroke: #000000; stroke-width: 0.8"/>
      </g>
     </g>
     <g id="text_32">
      <!-- 10000 -->
      <g transform="translate(655.462708 832.076562) scale(0.1 -0.1)">
       <use xlink:href="#DejaVuSans-31"/>
       <use xlink:href="#DejaVuSans-30" transform="translate(63.623047 0)"/>
       <use xlink:href="#DejaVuSans-30" transform="translate(127.246094 0)"/>
       <use xlink:href="#DejaVuSans-30" transform="translate(190.869141 0)"/>
       <use xlink:href="#DejaVuSans-30" transform="translate(254.492188 0)"/>
      </g>
     </g>
    </g>
    <g id="xtick_28">
     <g id="line2d_96">
      <path d="M 796.249625 817.478125 
L 796.249625 643.438125 
" clip-path="url(#p2271bfd5a5)" style="fill: none; stroke: #b0b0b0; stroke-opacity: 0.3; stroke-width: 0.8; stroke-linecap: square"/>
     </g>
     <g id="line2d_97">
      <g>
       <use xlink:href="#mc500a3fff4" x="796.249625" y="817.478125" style="stroke: #000000; stroke-width: 0.8"/>
      </g>
     </g>
     <g id="text_33">
      <!-- 12000 -->
      <g transform="translate(780.343375 832.076562) scale(0.1 -0.1)">
       <use xlink:href="#DejaVuSans-31"/>
       <use xlink:href="#DejaVuSans-32" transform="translate(63.623047 0)"/>
       <use xlink:href="#DejaVuSans-30" transform="translate(127.246094 0)"/>
       <use xlink:href="#DejaVuSans-30" transform="translate(190.869141 0)"/>
       <use xlink:href="#DejaVuSans-30" transform="translate(254.492188 0)"/>
      </g>
     </g>
    </g>
    <g id="text_34">
     <!-- Time [s] -->
     <g transform="translate(401.278719 845.754687) scale(0.1 -0.1)">
      <defs>
       <path id="DejaVuSans-69" d="M 603 3500 
L 1178 3500 
L 1178 0 
L 603 0 
L 603 3500 
z
M 603 4863 
L 1178 4863 
L 1178 4134 
L 603 4134 
L 603 4863 
z
" transform="scale(0.015625)"/>
       <path id="DejaVuSans-5b" d="M 550 4863 
L 1875 4863 
L 1875 4416 
L 1125 4416 
L 1125 -397 
L 1875 -397 
L 1875 -844 
L 550 -844 
L 550 4863 
z
" transform="scale(0.015625)"/>
       <path id="DejaVuSans-5d" d="M 1947 4863 
L 1947 -844 
L 622 -844 
L 622 -397 
L 1369 -397 
L 1369 4416 
L 622 4416 
L 622 4863 
L 1947 4863 
z
" transform="scale(0.015625)"/>
      </defs>
      <use xlink:href="#DejaVuSans-54"/>
      <use xlink:href="#DejaVuSans-69" transform="translate(57.958984 0)"/>
      <use xlink:href="#DejaVuSans-6d" transform="translate(85.742188 0)"/>
      <use xlink:href="#DejaVuSans-65" transform="translate(183.154297 0)"/>
      <use xlink:href="#DejaVuSans-20" transform="translate(244.677734 0)"/>
      <use xlink:href="#DejaVuSans-5b" transform="translate(276.464844 0)"/>
      <use xlink:href="#DejaVuSans-73" transform="translate(315.478516 0)"/>
      <use xlink:href="#DejaVuSans-5d" transform="translate(367.578125 0)"/>
     </g>
    </g>
   </g>
   <g id="matplotlib.axis_8">
    <g id="ytick_20">
     <g id="line2d_98">
      <path d="M 46.965625 814.131202 
L 796.249625 814.131202 
" clip-path="url(#p2271bfd5a5)" style="fill: none; stroke: #b0b0b0; stroke-opacity: 0.3; stroke-width: 0.8; stroke-linecap: square"/>
     </g>
     <g id="line2d_99">
      <g>
       <use xlink:href="#m17f28fd469" x="46.965625" y="814.131202" style="stroke: #000000; stroke-width: 0.8"/>
      </g>
     </g>
     <g id="text_35">
      <!-- 0.0 -->
      <g transform="translate(24.0625 817.930421) scale(0.1 -0.1)">
       <use xlink:href="#DejaVuSans-30"/>
       <use xlink:href="#DejaVuSans-2e" transform="translate(63.623047 0)"/>
       <use xlink:href="#DejaVuSans-30" transform="translate(95.410156 0)"/>
      </g>
     </g>
    </g>
    <g id="ytick_21">
     <g id="line2d_100">
      <path d="M 46.965625 780.661971 
L 796.249625 780.661971 
" clip-path="url(#p2271bfd5a5)" style="fill: none; stroke: #b0b0b0; stroke-opacity: 0.3; stroke-width: 0.8; stroke-linecap: square"/>
     </g>
     <g id="line2d_101">
      <g>
       <use xlink:href="#m17f28fd469" x="46.965625" y="780.661971" style="stroke: #000000; stroke-width: 0.8"/>
      </g>
     </g>
     <g id="text_36">
      <!-- 0.2 -->
      <g transform="translate(24.0625 784.46119) scale(0.1 -0.1)">
       <use xlink:href="#DejaVuSans-30"/>
       <use xlink:href="#DejaVuSans-2e" transform="translate(63.623047 0)"/>
       <use xlink:href="#DejaVuSans-32" transform="translate(95.410156 0)"/>
      </g>
     </g>
    </g>
    <g id="ytick_22">
     <g id="line2d_102">
      <path d="M 46.965625 747.19274 
L 796.249625 747.19274 
" clip-path="url(#p2271bfd5a5)" style="fill: none; stroke: #b0b0b0; stroke-opacity: 0.3; stroke-width: 0.8; stroke-linecap: square"/>
     </g>
     <g id="line2d_103">
      <g>
       <use xlink:href="#m17f28fd469" x="46.965625" y="747.19274" style="stroke: #000000; stroke-width: 0.8"/>
      </g>
     </g>
     <g id="text_37">
      <!-- 0.4 -->
      <g transform="translate(24.0625 750.991959) scale(0.1 -0.1)">
       <use xlink:href="#DejaVuSans-30"/>
       <use xlink:href="#DejaVuSans-2e" transform="translate(63.623047 0)"/>
       <use xlink:href="#DejaVuSans-34" transform="translate(95.410156 0)"/>
      </g>
     </g>
    </g>
    <g id="ytick_23">
     <g id="line2d_104">
      <path d="M 46.965625 713.72351 
L 796.249625 713.72351 
" clip-path="url(#p2271bfd5a5)" style="fill: none; stroke: #b0b0b0; stroke-opacity: 0.3; stroke-width: 0.8; stroke-linecap: square"/>
     </g>
     <g id="line2d_105">
      <g>
       <use xlink:href="#m17f28fd469" x="46.965625" y="713.72351" style="stroke: #000000; stroke-width: 0.8"/>
      </g>
     </g>
     <g id="text_38">
      <!-- 0.6 -->
      <g transform="translate(24.0625 717.522728) scale(0.1 -0.1)">
       <use xlink:href="#DejaVuSans-30"/>
       <use xlink:href="#DejaVuSans-2e" transform="translate(63.623047 0)"/>
       <use xlink:href="#DejaVuSans-36" transform="translate(95.410156 0)"/>
      </g>
     </g>
    </g>
    <g id="ytick_24">
     <g id="line2d_106">
      <path d="M 46.965625 680.254279 
L 796.249625 680.254279 
" clip-path="url(#p2271bfd5a5)" style="fill: none; stroke: #b0b0b0; stroke-opacity: 0.3; stroke-width: 0.8; stroke-linecap: square"/>
     </g>
     <g id="line2d_107">
      <g>
       <use xlink:href="#m17f28fd469" x="46.965625" y="680.254279" style="stroke: #000000; stroke-width: 0.8"/>
      </g>
     </g>
     <g id="text_39">
      <!-- 0.8 -->
      <g transform="translate(24.0625 684.053498) scale(0.1 -0.1)">
       <use xlink:href="#DejaVuSans-30"/>
       <use xlink:href="#DejaVuSans-2e" transform="translate(63.623047 0)"/>
       <use xlink:href="#DejaVuSans-38" transform="translate(95.410156 0)"/>
      </g>
     </g>
    </g>
    <g id="ytick_25">
     <g id="line2d_108">
      <path d="M 46.965625 646.785048 
L 796.249625 646.785048 
" clip-path="url(#p2271bfd5a5)" style="fill: none; stroke: #b0b0b0; stroke-opacity: 0.3; stroke-width: 0.8; stroke-linecap: square"/>
     </g>
     <g id="line2d_109">
      <g>
       <use xlink:href="#m17f28fd469" x="46.965625" y="646.785048" style="stroke: #000000; stroke-width: 0.8"/>
      </g>
     </g>
     <g id="text_40">
      <!-- 1.0 -->
      <g transform="translate(24.0625 650.584267) scale(0.1 -0.1)">
       <use xlink:href="#DejaVuSans-31"/>
       <use xlink:href="#DejaVuSans-2e" transform="translate(63.623047 0)"/>
       <use xlink:href="#DejaVuSans-30" transform="translate(95.410156 0)"/>
      </g>
     </g>
    </g>
    <g id="text_41">
     <!-- Mole fraction -->
     <g transform="translate(17.982812 763.0925) rotate(-90) scale(0.1 -0.1)">
      <defs>
       <path id="DejaVuSans-4d" d="M 628 4666 
L 1569 4666 
L 2759 1491 
L 3956 4666 
L 4897 4666 
L 4897 0 
L 4281 0 
L 4281 4097 
L 3078 897 
L 2444 897 
L 1241 4097 
L 1241 0 
L 628 0 
L 628 4666 
z
" transform="scale(0.015625)"/>
       <path id="DejaVuSans-66" d="M 2375 4863 
L 2375 4384 
L 1825 4384 
Q 1516 4384 1395 4259 
Q 1275 4134 1275 3809 
L 1275 3500 
L 2222 3500 
L 2222 3053 
L 1275 3053 
L 1275 0 
L 697 0 
L 697 3053 
L 147 3053 
L 147 3500 
L 697 3500 
L 697 3744 
Q 697 4328 969 4595 
Q 1241 4863 1831 4863 
L 2375 4863 
z
" transform="scale(0.015625)"/>
       <path id="DejaVuSans-63" d="M 3122 3366 
L 3122 2828 
Q 2878 2963 2633 3030 
Q 2388 3097 2138 3097 
Q 1578 3097 1268 2742 
Q 959 2388 959 1747 
Q 959 1106 1268 751 
Q 1578 397 2138 397 
Q 2388 397 2633 464 
Q 2878 531 3122 666 
L 3122 134 
Q 2881 22 2623 -34 
Q 2366 -91 2075 -91 
Q 1284 -91 818 406 
Q 353 903 353 1747 
Q 353 2603 823 3093 
Q 1294 3584 2113 3584 
Q 2378 3584 2631 3529 
Q 2884 3475 3122 3366 
z
" transform="scale(0.015625)"/>
      </defs>
      <use xlink:href="#DejaVuSans-4d"/>
      <use xlink:href="#DejaVuSans-6f" transform="translate(86.279297 0)"/>
      <use xlink:href="#DejaVuSans-6c" transform="translate(147.460938 0)"/>
      <use xlink:href="#DejaVuSans-65" transform="translate(175.244141 0)"/>
      <use xlink:href="#DejaVuSans-20" transform="translate(236.767578 0)"/>
      <use xlink:href="#DejaVuSans-66" transform="translate(268.554688 0)"/>
      <use xlink:href="#DejaVuSans-72" transform="translate(303.759766 0)"/>
      <use xlink:href="#DejaVuSans-61" transform="translate(344.873047 0)"/>
      <use xlink:href="#DejaVuSans-63" transform="translate(406.152344 0)"/>
      <use xlink:href="#DejaVuSans-74" transform="translate(461.132812 0)"/>
      <use xlink:href="#DejaVuSans-69" transform="translate(500.341797 0)"/>
      <use xlink:href="#DejaVuSans-6f" transform="translate(528.125 0)"/>
      <use xlink:href="#DejaVuSans-6e" transform="translate(589.306641 0)"/>
     </g>
    </g>
   </g>
   <g id="line2d_110">
    <path d="M 46.965625 814.131202 
L 53.52186 814.131202 
L 53.834062 763.927356 
L 60.078095 763.927356 
L 60.390297 814.131202 
L 73.190565 814.131202 
L 73.502767 763.927356 
L 79.7468 763.927356 
L 80.059002 814.131202 
L 92.85927 814.131202 
L 93.171472 763.927356 
L 99.415505 763.927356 
L 99.727707 814.131202 
L 112.527975 814.131202 
L 112.840177 763.927356 
L 119.08421 763.927356 
L 119.396412 814.131202 
L 132.19668 814.131202 
L 132.508882 763.927356 
L 138.752915 763.927356 
L 139.065117 814.131202 
L 151.865385 814.131202 
L 152.177587 763.927356 
L 158.42162 763.927356 
L 158.733822 814.131202 
L 171.53409 814.131202 
L 171.846292 763.927356 
L 178.090325 763.927356 
L 178.402527 814.131202 
L 191.202795 814.131202 
L 191.514997 763.927356 
L 197.75903 763.927356 
L 198.071232 814.131202 
L 210.8715 814.131202 
L 211.183702 763.927356 
L 217.427735 763.927356 
L 217.739937 814.131202 
L 230.540205 814.131202 
L 230.852407 763.927356 
L 237.09644 763.927356 
L 237.408642 814.131202 
L 250.20891 814.131202 
L 250.521112 763.927356 
L 256.765145 763.927356 
L 257.077347 814.131202 
L 269.877615 814.131202 
L 270.189817 763.927356 
L 276.43385 763.927356 
L 276.746052 814.131202 
L 289.54632 814.131202 
L 289.858522 763.927356 
L 296.102555 763.927356 
L 296.414757 814.131202 
L 309.215025 814.131202 
L 309.527227 763.927356 
L 315.77126 763.927356 
L 316.083462 814.131202 
L 328.88373 814.131202 
L 329.195932 763.927356 
L 335.439965 763.927356 
L 335.752167 814.131202 
L 348.552435 814.131202 
L 348.864637 763.927356 
L 355.10867 763.927356 
L 355.420872 814.131202 
L 368.22114 814.131202 
L 368.533342 763.927356 
L 374.777375 763.927356 
L 375.089577 814.131202 
L 387.889845 814.131202 
L 388.202047 763.927356 
L 394.44608 763.927356 
L 394.758282 814.131202 
L 407.55855 814.131202 
L 407.870752 763.927356 
L 414.114785 763.927356 
L 414.426987 814.131202 
L 427.227255 814.131202 
L 427.539457 763.927356 
L 433.78349 763.927356 
L 434.095692 814.131202 
L 446.89596 814.131202 
L 447.208162 763.927356 
L 453.452195 763.927356 
L 453.764397 814.131202 
L 466.564665 814.131202 
L 466.876867 763.927356 
L 473.1209 763.927356 
L 473.433102 814.131202 
L 486.23337 814.131202 
L 486.545572 763.927356 
L 492.789605 763.927356 
L 493.101807 814.131202 
L 505.902075 814.131202 
L 506.214277 763.927356 
L 512.45831 763.927356 
L 512.770512 814.131202 
L 525.57078 814.131202 
L 525.882982 763.927356 
L 532.127015 763.927356 
L 532.439217 814.131202 
L 545.239485 814.131202 
L 545.551687 763.927356 
L 551.79572 763.927356 
L 552.107922 814.131202 
L 564.90819 814.131202 
L 565.220392 763.927356 
L 571.464425 763.927356 
L 571.776627 814.131202 
L 584.576895 814.131202 
L 584.889097 763.927356 
L 591.13313 763.927356 
L 591.445332 814.131202 
L 604.2456 814.131202 
L 604.557802 763.927356 
L 610.801835 763.927356 
L 611.114037 814.131202 
L 623.914305 814.131202 
L 624.226507 763.927356 
L 630.47054 763.927356 
L 630.782742 814.131202 
L 643.58301 814.131202 
L 643.895212 763.927356 
L 650.139245 763.927356 
L 650.451447 814.131202 
L 663.251715 814.131202 
L 663.563917 763.927356 
L 669.80795 763.927356 
L 670.120152 814.131202 
L 682.92042 814.131202 
L 683.232622 763.927356 
L 689.476655 763.927356 
L 689.788857 814.131202 
L 702.589125 814.131202 
L 702.901327 763.927356 
L 709.14536 763.927356 
L 709.457562 814.131202 
L 722.25783 814.131202 
L 722.570032 763.927356 
L 728.814065 763.927356 
L 729.126267 814.131202 
L 741.926535 814.131202 
L 742.238737 763.927356 
L 748.48277 763.927356 
L 748.794972 814.131202 
L 761.59524 814.131202 
L 761.907442 763.927356 
L 768.151475 763.927356 
L 768.463677 814.131202 
L 781.263945 814.131202 
L 781.576147 763.927356 
L 787.82018 763.927356 
L 788.132382 814.131202 
L 796.249625 814.131202 
L 796.249625 814.131202 
" clip-path="url(#p2271bfd5a5)" style="fill: none; stroke: #1f77b4; stroke-width: 2; stroke-linecap: square"/>
   </g>
   <g id="line2d_111">
    <path d="M 46.965625 814.131202 
L 47.277827 780.661971 
L 60.078095 780.661971 
L 60.390297 814.131202 
L 66.63433 814.131202 
L 66.946532 780.661971 
L 79.7468 780.661971 
L 80.059002 814.131202 
L 86.303035 814.131202 
L 86.615237 780.661971 
L 99.415505 780.661971 
L 99.727707 814.131202 
L 105.97174 814.131202 
L 106.283942 780.661971 
L 119.08421 780.661971 
L 119.396412 814.131202 
L 125.640445 814.131202 
L 125.952647 780.661971 
L 138.752915 780.661971 
L 139.065117 814.131202 
L 145.30915 814.131202 
L 145.621352 780.661971 
L 158.42162 780.661971 
L 158.733822 814.131202 
L 164.977855 814.131202 
L 165.290057 780.661971 
L 178.090325 780.661971 
L 178.402527 814.131202 
L 184.64656 814.131202 
L 184.958762 780.661971 
L 197.75903 780.661971 
L 198.071232 814.131202 
L 204.315265 814.131202 
L 204.627467 780.661971 
L 217.427735 780.661971 
L 217.739937 814.131202 
L 223.98397 814.131202 
L 224.296172 780.661971 
L 237.09644 780.661971 
L 237.408642 814.131202 
L 243.652675 814.131202 
L 243.964877 780.661971 
L 256.765145 780.661971 
L 257.077347 814.131202 
L 263.32138 814.131202 
L 263.633582 780.661971 
L 276.43385 780.661971 
L 276.746052 814.131202 
L 282.990085 814.131202 
L 283.302287 780.661971 
L 296.102555 780.661971 
L 296.414757 814.131202 
L 302.65879 814.131202 
L 302.970992 780.661971 
L 315.77126 780.661971 
L 316.083462 814.131202 
L 322.327495 814.131202 
L 322.639697 780.661971 
L 335.439965 780.661971 
L 335.752167 814.131202 
L 341.9962 814.131202 
L 342.308402 780.661971 
L 355.10867 780.661971 
L 355.420872 814.131202 
L 361.664905 814.131202 
L 361.977107 780.661971 
L 374.777375 780.661971 
L 375.089577 814.131202 
L 381.33361 814.131202 
L 381.645812 780.661971 
L 394.44608 780.661971 
L 394.758282 814.131202 
L 401.002315 814.131202 
L 401.314517 780.661971 
L 414.114785 780.661971 
L 414.426987 814.131202 
L 420.67102 814.131202 
L 420.983222 780.661971 
L 433.78349 780.661971 
L 434.095692 814.131202 
L 440.339725 814.131202 
L 440.651927 780.661971 
L 453.452195 780.661971 
L 453.764397 814.131202 
L 460.00843 814.131202 
L 460.320632 780.661971 
L 473.1209 780.661971 
L 473.433102 814.131202 
L 479.677135 814.131202 
L 479.989337 780.661971 
L 492.789605 780.661971 
L 493.101807 814.131202 
L 499.34584 814.131202 
L 499.658042 780.661971 
L 512.45831 780.661971 
L 512.770512 814.131202 
L 519.014545 814.131202 
L 519.326747 780.661971 
L 532.127015 780.661971 
L 532.439217 814.131202 
L 538.68325 814.131202 
L 538.995452 780.661971 
L 551.79572 780.661971 
L 552.107922 814.131202 
L 558.351955 814.131202 
L 558.664157 780.661971 
L 571.464425 780.661971 
L 571.776627 814.131202 
L 578.02066 814.131202 
L 578.332862 780.661971 
L 591.13313 780.661971 
L 591.445332 814.131202 
L 597.689365 814.131202 
L 598.001567 780.661971 
L 610.801835 780.661971 
L 611.114037 814.131202 
L 617.35807 814.131202 
L 617.670272 780.661971 
L 630.47054 780.661971 
L 630.782742 814.131202 
L 637.026775 814.131202 
L 637.338977 780.661971 
L 650.139245 780.661971 
L 650.451447 814.131202 
L 656.69548 814.131202 
L 657.007682 780.661971 
L 669.80795 780.661971 
L 670.120152 814.131202 
L 676.364185 814.131202 
L 676.676387 780.661971 
L 689.476655 780.661971 
L 689.788857 814.131202 
L 696.03289 814.131202 
L 696.345092 780.661971 
L 709.14536 780.661971 
L 709.457562 814.131202 
L 715.701595 814.131202 
L 716.013797 780.661971 
L 728.814065 780.661971 
L 729.126267 814.131202 
L 735.3703 814.131202 
L 735.682502 780.661971 
L 748.48277 780.661971 
L 748.794972 814.131202 
L 755.039005 814.131202 
L 755.351207 780.661971 
L 768.151475 780.661971 
L 768.463677 814.131202 
L 774.70771 814.131202 
L 775.019912 780.661971 
L 787.82018 780.661971 
L 788.132382 814.131202 
L 794.376415 814.131202 
L 794.688617 780.661971 
L 796.249625 780.661971 
L 796.249625 780.661971 
" clip-path="url(#p2271bfd5a5)" style="fill: none; stroke: #ff7f0e; stroke-width: 2; stroke-linecap: square"/>
   </g>
   <g id="line2d_112">
    <path d="M 46.965625 814.131202 
L 53.52186 814.131202 
L 53.834062 805.763894 
L 60.078095 805.763894 
L 60.390297 814.131202 
L 73.190565 814.131202 
L 73.502767 805.763894 
L 79.7468 805.763894 
L 80.059002 814.131202 
L 92.85927 814.131202 
L 93.171472 805.763894 
L 99.415505 805.763894 
L 99.727707 814.131202 
L 112.527975 814.131202 
L 112.840177 805.763894 
L 119.08421 805.763894 
L 119.396412 814.131202 
L 132.19668 814.131202 
L 132.508882 805.763894 
L 138.752915 805.763894 
L 139.065117 814.131202 
L 151.865385 814.131202 
L 152.177587 805.763894 
L 158.42162 805.763894 
L 158.733822 814.131202 
L 171.53409 814.131202 
L 171.846292 805.763894 
L 178.090325 805.763894 
L 178.402527 814.131202 
L 191.202795 814.131202 
L 191.514997 805.763894 
L 197.75903 805.763894 
L 198.071232 814.131202 
L 210.8715 814.131202 
L 211.183702 805.763894 
L 217.427735 805.763894 
L 217.739937 814.131202 
L 230.540205 814.131202 
L 230.852407 805.763894 
L 237.09644 805.763894 
L 237.408642 814.131202 
L 250.20891 814.131202 
L 250.521112 805.763894 
L 256.765145 805.763894 
L 257.077347 814.131202 
L 269.877615 814.131202 
L 270.189817 805.763894 
L 276.43385 805.763894 
L 276.746052 814.131202 
L 289.54632 814.131202 
L 289.858522 805.763894 
L 296.102555 805.763894 
L 296.414757 814.131202 
L 309.215025 814.131202 
L 309.527227 805.763894 
L 315.77126 805.763894 
L 316.083462 814.131202 
L 328.88373 814.131202 
L 329.195932 805.763894 
L 335.439965 805.763894 
L 335.752167 814.131202 
L 348.552435 814.131202 
L 348.864637 805.763894 
L 355.10867 805.763894 
L 355.420872 814.131202 
L 368.22114 814.131202 
L 368.533342 805.763894 
L 374.777375 805.763894 
L 375.089577 814.131202 
L 387.889845 814.131202 
L 388.202047 805.763894 
L 394.44608 805.763894 
L 394.758282 814.131202 
L 407.55855 814.131202 
L 407.870752 805.763894 
L 414.114785 805.763894 
L 414.426987 814.131202 
L 427.227255 814.131202 
L 427.539457 805.763894 
L 433.78349 805.763894 
L 434.095692 814.131202 
L 446.89596 814.131202 
L 447.208162 805.763894 
L 453.452195 805.763894 
L 453.764397 814.131202 
L 466.564665 814.131202 
L 466.876867 805.763894 
L 473.1209 805.763894 
L 473.433102 814.131202 
L 486.23337 814.131202 
L 486.545572 805.763894 
L 492.789605 805.763894 
L 493.101807 814.131202 
L 505.902075 814.131202 
L 506.214277 805.763894 
L 512.45831 805.763894 
L 512.770512 814.131202 
L 525.57078 814.131202 
L 525.882982 805.763894 
L 532.127015 805.763894 
L 532.439217 814.131202 
L 545.239485 814.131202 
L 545.551687 805.763894 
L 551.79572 805.763894 
L 552.107922 814.131202 
L 564.90819 814.131202 
L 565.220392 805.763894 
L 571.464425 805.763894 
L 571.776627 814.131202 
L 584.576895 814.131202 
L 584.889097 805.763894 
L 591.13313 805.763894 
L 591.445332 814.131202 
L 604.2456 814.131202 
L 604.557802 805.763894 
L 610.801835 805.763894 
L 611.114037 814.131202 
L 623.914305 814.131202 
L 624.226507 805.763894 
L 630.47054 805.763894 
L 630.782742 814.131202 
L 643.58301 814.131202 
L 643.895212 805.763894 
L 650.139245 805.763894 
L 650.451447 814.131202 
L 663.251715 814.131202 
L 663.563917 805.763894 
L 669.80795 805.763894 
L 670.120152 814.131202 
L 682.92042 814.131202 
L 683.232622 805.763894 
L 689.476655 805.763894 
L 689.788857 814.131202 
L 702.589125 814.131202 
L 702.901327 805.763894 
L 709.14536 805.763894 
L 709.457562 814.131202 
L 722.25783 814.131202 
L 722.570032 805.763894 
L 728.814065 805.763894 
L 729.126267 814.131202 
L 741.926535 814.131202 
L 742.238737 805.763894 
L 748.48277 805.763894 
L 748.794972 814.131202 
L 761.59524 814.131202 
L 761.907442 805.763894 
L 768.151475 805.763894 
L 768.463677 814.131202 
L 781.263945 814.131202 
L 781.576147 805.763894 
L 787.82018 805.763894 
L 788.132382 814.131202 
L 796.249625 814.131202 
L 796.249625 814.131202 
" clip-path="url(#p2271bfd5a5)" style="fill: none; stroke: #2ca02c; stroke-width: 2; stroke-linecap: square"/>
   </g>
   <g id="line2d_113">
    <path d="M 46.965625 814.131202 
L 53.52186 814.131202 
L 53.834062 747.19274 
L 60.078095 747.19274 
L 60.390297 814.131202 
L 73.190565 814.131202 
L 73.502767 747.19274 
L 79.7468 747.19274 
L 80.059002 814.131202 
L 92.85927 814.131202 
L 93.171472 747.19274 
L 99.415505 747.19274 
L 99.727707 814.131202 
L 112.527975 814.131202 
L 112.840177 747.19274 
L 119.08421 747.19274 
L 119.396412 814.131202 
L 132.19668 814.131202 
L 132.508882 747.19274 
L 138.752915 747.19274 
L 139.065117 814.131202 
L 151.865385 814.131202 
L 152.177587 747.19274 
L 158.42162 747.19274 
L 158.733822 814.131202 
L 171.53409 814.131202 
L 171.846292 747.19274 
L 178.090325 747.19274 
L 178.402527 814.131202 
L 191.202795 814.131202 
L 191.514997 747.19274 
L 197.75903 747.19274 
L 198.071232 814.131202 
L 210.8715 814.131202 
L 211.183702 747.19274 
L 217.427735 747.19274 
L 217.739937 814.131202 
L 230.540205 814.131202 
L 230.852407 747.19274 
L 237.09644 747.19274 
L 237.408642 814.131202 
L 250.20891 814.131202 
L 250.521112 747.19274 
L 256.765145 747.19274 
L 257.077347 814.131202 
L 269.877615 814.131202 
L 270.189817 747.19274 
L 276.43385 747.19274 
L 276.746052 814.131202 
L 289.54632 814.131202 
L 289.858522 747.19274 
L 296.102555 747.19274 
L 296.414757 814.131202 
L 309.215025 814.131202 
L 309.527227 747.19274 
L 315.77126 747.19274 
L 316.083462 814.131202 
L 328.88373 814.131202 
L 329.195932 747.19274 
L 335.439965 747.19274 
L 335.752167 814.131202 
L 348.552435 814.131202 
L 348.864637 747.19274 
L 355.10867 747.19274 
L 355.420872 814.131202 
L 368.22114 814.131202 
L 368.533342 747.19274 
L 374.777375 747.19274 
L 375.089577 814.131202 
L 387.889845 814.131202 
L 388.202047 747.19274 
L 394.44608 747.19274 
L 394.758282 814.131202 
L 407.55855 814.131202 
L 407.870752 747.19274 
L 414.114785 747.19274 
L 414.426987 814.131202 
L 427.227255 814.131202 
L 427.539457 747.19274 
L 433.78349 747.19274 
L 434.095692 814.131202 
L 446.89596 814.131202 
L 447.208162 747.19274 
L 453.452195 747.19274 
L 453.764397 814.131202 
L 466.564665 814.131202 
L 466.876867 747.19274 
L 473.1209 747.19274 
L 473.433102 814.131202 
L 486.23337 814.131202 
L 486.545572 747.19274 
L 492.789605 747.19274 
L 493.101807 814.131202 
L 505.902075 814.131202 
L 506.214277 747.19274 
L 512.45831 747.19274 
L 512.770512 814.131202 
L 525.57078 814.131202 
L 525.882982 747.19274 
L 532.127015 747.19274 
L 532.439217 814.131202 
L 545.239485 814.131202 
L 545.551687 747.19274 
L 551.79572 747.19274 
L 552.107922 814.131202 
L 564.90819 814.131202 
L 565.220392 747.19274 
L 571.464425 747.19274 
L 571.776627 814.131202 
L 584.576895 814.131202 
L 584.889097 747.19274 
L 591.13313 747.19274 
L 591.445332 814.131202 
L 604.2456 814.131202 
L 604.557802 747.19274 
L 610.801835 747.19274 
L 611.114037 814.131202 
L 623.914305 814.131202 
L 624.226507 747.19274 
L 630.47054 747.19274 
L 630.782742 814.131202 
L 643.58301 814.131202 
L 643.895212 747.19274 
L 650.139245 747.19274 
L 650.451447 814.131202 
L 663.251715 814.131202 
L 663.563917 747.19274 
L 669.80795 747.19274 
L 670.120152 814.131202 
L 682.92042 814.131202 
L 683.232622 747.19274 
L 689.476655 747.19274 
L 689.788857 814.131202 
L 702.589125 814.131202 
L 702.901327 747.19274 
L 709.14536 747.19274 
L 709.457562 814.131202 
L 722.25783 814.131202 
L 722.570032 747.19274 
L 728.814065 747.19274 
L 729.126267 814.131202 
L 741.926535 814.131202 
L 742.238737 747.19274 
L 748.48277 747.19274 
L 748.794972 814.131202 
L 761.59524 814.131202 
L 761.907442 747.19274 
L 768.151475 747.19274 
L 768.463677 814.131202 
L 781.263945 814.131202 
L 781.576147 747.19274 
L 787.82018 747.19274 
L 788.132382 814.131202 
L 796.249625 814.131202 
L 796.249625 814.131202 
" clip-path="url(#p2271bfd5a5)" style="fill: none; stroke: #d62728; stroke-width: 2; stroke-linecap: square"/>
   </g>
   <g id="line2d_114">
    <path d="M 46.965625 814.131202 
L 796.249625 814.131202 
L 796.249625 814.131202 
" clip-path="url(#p2271bfd5a5)" style="fill: none; stroke: #9467bd; stroke-width: 2; stroke-linecap: square"/>
   </g>
   <g id="line2d_115">
    <path d="M 46.965625 814.131202 
L 47.277827 680.254279 
L 53.52186 680.254279 
L 53.834062 805.763894 
L 60.078095 805.763894 
L 60.390297 814.131202 
L 66.63433 814.131202 
L 66.946532 680.254279 
L 73.190565 680.254279 
L 73.502767 805.763894 
L 79.7468 805.763894 
L 80.059002 814.131202 
L 86.303035 814.131202 
L 86.615237 680.254279 
L 92.85927 680.254279 
L 93.171472 805.763894 
L 99.415505 805.763894 
L 99.727707 814.131202 
L 105.97174 814.131202 
L 106.283942 680.254279 
L 112.527975 680.254279 
L 112.840177 805.763894 
L 119.08421 805.763894 
L 119.396412 814.131202 
L 125.640445 814.131202 
L 125.952647 680.254279 
L 132.19668 680.254279 
L 132.508882 805.763894 
L 138.752915 805.763894 
L 139.065117 814.131202 
L 145.30915 814.131202 
L 145.621352 680.254279 
L 151.865385 680.254279 
L 152.177587 805.763894 
L 158.42162 805.763894 
L 158.733822 814.131202 
L 164.977855 814.131202 
L 165.290057 680.254279 
L 171.53409 680.254279 
L 171.846292 805.763894 
L 178.090325 805.763894 
L 178.402527 814.131202 
L 184.64656 814.131202 
L 184.958762 680.254279 
L 191.202795 680.254279 
L 191.514997 805.763894 
L 197.75903 805.763894 
L 198.071232 814.131202 
L 204.315265 814.131202 
L 204.627467 680.254279 
L 210.8715 680.254279 
L 211.183702 805.763894 
L 217.427735 805.763894 
L 217.739937 814.131202 
L 223.98397 814.131202 
L 224.296172 680.254279 
L 230.540205 680.254279 
L 230.852407 805.763894 
L 237.09644 805.763894 
L 237.408642 814.131202 
L 243.652675 814.131202 
L 243.964877 680.254279 
L 250.20891 680.254279 
L 250.521112 805.763894 
L 256.765145 805.763894 
L 257.077347 814.131202 
L 263.32138 814.131202 
L 263.633582 680.254279 
L 269.877615 680.254279 
L 270.189817 805.763894 
L 276.43385 805.763894 
L 276.746052 814.131202 
L 282.990085 814.131202 
L 283.302287 680.254279 
L 289.54632 680.254279 
L 289.858522 805.763894 
L 296.102555 805.763894 
L 296.414757 814.131202 
L 302.65879 814.131202 
L 302.970992 680.254279 
L 309.215025 680.254279 
L 309.527227 805.763894 
L 315.77126 805.763894 
L 316.083462 814.131202 
L 322.327495 814.131202 
L 322.639697 680.254279 
L 328.88373 680.254279 
L 329.195932 805.763894 
L 335.439965 805.763894 
L 335.752167 814.131202 
L 341.9962 814.131202 
L 342.308402 680.254279 
L 348.552435 680.254279 
L 348.864637 805.763894 
L 355.10867 805.763894 
L 355.420872 814.131202 
L 361.664905 814.131202 
L 361.977107 680.254279 
L 368.22114 680.254279 
L 368.533342 805.763894 
L 374.777375 805.763894 
L 375.089577 814.131202 
L 381.33361 814.131202 
L 381.645812 680.254279 
L 387.889845 680.254279 
L 388.202047 805.763894 
L 394.44608 805.763894 
L 394.758282 814.131202 
L 401.002315 814.131202 
L 401.314517 680.254279 
L 407.55855 680.254279 
L 407.870752 805.763894 
L 414.114785 805.763894 
L 414.426987 814.131202 
L 420.67102 814.131202 
L 420.983222 680.254279 
L 427.227255 680.254279 
L 427.539457 805.763894 
L 433.78349 805.763894 
L 434.095692 814.131202 
L 440.339725 814.131202 
L 440.651927 680.254279 
L 446.89596 680.254279 
L 447.208162 805.763894 
L 453.452195 805.763894 
L 453.764397 814.131202 
L 460.00843 814.131202 
L 460.320632 680.254279 
L 466.564665 680.254279 
L 466.876867 805.763894 
L 473.1209 805.763894 
L 473.433102 814.131202 
L 479.677135 814.131202 
L 479.989337 680.254279 
L 486.23337 680.254279 
L 486.545572 805.763894 
L 492.789605 805.763894 
L 493.101807 814.131202 
L 499.34584 814.131202 
L 499.658042 680.254279 
L 505.902075 680.254279 
L 506.214277 805.763894 
L 512.45831 805.763894 
L 512.770512 814.131202 
L 519.014545 814.131202 
L 519.326747 680.254279 
L 525.57078 680.254279 
L 525.882982 805.763894 
L 532.127015 805.763894 
L 532.439217 814.131202 
L 538.68325 814.131202 
L 538.995452 680.254279 
L 545.239485 680.254279 
L 545.551687 805.763894 
L 551.79572 805.763894 
L 552.107922 814.131202 
L 558.351955 814.131202 
L 558.664157 680.254279 
L 564.90819 680.254279 
L 565.220392 805.763894 
L 571.464425 805.763894 
L 571.776627 814.131202 
L 578.02066 814.131202 
L 578.332862 680.254279 
L 584.576895 680.254279 
L 584.889097 805.763894 
L 591.13313 805.763894 
L 591.445332 814.131202 
L 597.689365 814.131202 
L 598.001567 680.254279 
L 604.2456 680.254279 
L 604.557802 805.763894 
L 610.801835 805.763894 
L 611.114037 814.131202 
L 617.35807 814.131202 
L 617.670272 680.254279 
L 623.914305 680.254279 
L 624.226507 805.763894 
L 630.47054 805.763894 
L 630.782742 814.131202 
L 637.026775 814.131202 
L 637.338977 680.254279 
L 643.58301 680.254279 
L 643.895212 805.763894 
L 650.139245 805.763894 
L 650.451447 814.131202 
L 656.69548 814.131202 
L 657.007682 680.254279 
L 663.251715 680.254279 
L 663.563917 805.763894 
L 669.80795 805.763894 
L 670.120152 814.131202 
L 676.364185 814.131202 
L 676.676387 680.254279 
L 682.92042 680.254279 
L 683.232622 805.763894 
L 689.476655 805.763894 
L 689.788857 814.131202 
L 696.03289 814.131202 
L 696.345092 680.254279 
L 702.589125 680.254279 
L 702.901327 805.763894 
L 709.14536 805.763894 
L 709.457562 814.131202 
L 715.701595 814.131202 
L 716.013797 680.254279 
L 722.25783 680.254279 
L 722.570032 805.763894 
L 728.814065 805.763894 
L 729.126267 814.131202 
L 735.3703 814.131202 
L 735.682502 680.254279 
L 741.926535 680.254279 
L 742.238737 805.763894 
L 748.48277 805.763894 
L 748.794972 814.131202 
L 755.039005 814.131202 
L 755.351207 680.254279 
L 761.59524 680.254279 
L 761.907442 805.763894 
L 768.151475 805.763894 
L 768.463677 814.131202 
L 774.70771 814.131202 
L 775.019912 680.254279 
L 781.263945 680.254279 
L 781.576147 805.763894 
L 787.82018 805.763894 
L 788.132382 814.131202 
L 794.376415 814.131202 
L 794.688617 680.254279 
L 796.249625 680.254279 
L 796.249625 680.254279 
" clip-path="url(#p2271bfd5a5)" style="fill: none; stroke: #8c564b; stroke-width: 2; stroke-linecap: square"/>
   </g>
   <g id="line2d_116">
    <path d="M 46.965625 814.131202 
L 796.249625 814.131202 
L 796.249625 814.131202 
" clip-path="url(#p2271bfd5a5)" style="fill: none; stroke: #e377c2; stroke-width: 2; stroke-linecap: square"/>
   </g>
   <g id="line2d_117">
    <path d="M 46.965625 646.785048 
L 47.277827 814.131202 
L 60.078095 814.131202 
L 60.390297 680.254279 
L 66.63433 680.254279 
L 66.946532 814.131202 
L 79.7468 814.131202 
L 80.059002 680.254279 
L 86.303035 680.254279 
L 86.615237 814.131202 
L 99.415505 814.131202 
L 99.727707 680.254279 
L 105.97174 680.254279 
L 106.283942 814.131202 
L 119.08421 814.131202 
L 119.396412 680.254279 
L 125.640445 680.254279 
L 125.952647 814.131202 
L 138.752915 814.131202 
L 139.065117 680.254279 
L 145.30915 680.254279 
L 145.621352 814.131202 
L 158.42162 814.131202 
L 158.733822 680.254279 
L 164.977855 680.254279 
L 165.290057 814.131202 
L 178.090325 814.131202 
L 178.402527 680.254279 
L 184.64656 680.254279 
L 184.958762 814.131202 
L 197.75903 814.131202 
L 198.071232 680.254279 
L 204.315265 680.254279 
L 204.627467 814.131202 
L 217.427735 814.131202 
L 217.739937 680.254279 
L 223.98397 680.254279 
L 224.296172 814.131202 
L 237.09644 814.131202 
L 237.408642 680.254279 
L 243.652675 680.254279 
L 243.964877 814.131202 
L 256.765145 814.131202 
L 257.077347 680.254279 
L 263.32138 680.254279 
L 263.633582 814.131202 
L 276.43385 814.131202 
L 276.746052 680.254279 
L 282.990085 680.254279 
L 283.302287 814.131202 
L 296.102555 814.131202 
L 296.414757 680.254279 
L 302.65879 680.254279 
L 302.970992 814.131202 
L 315.77126 814.131202 
L 316.083462 680.254279 
L 322.327495 680.254279 
L 322.639697 814.131202 
L 335.439965 814.131202 
L 335.752167 680.254279 
L 341.9962 680.254279 
L 342.308402 814.131202 
L 355.10867 814.131202 
L 355.420872 680.254279 
L 361.664905 680.254279 
L 361.977107 814.131202 
L 374.777375 814.131202 
L 375.089577 680.254279 
L 381.33361 680.254279 
L 381.645812 814.131202 
L 394.44608 814.131202 
L 394.758282 680.254279 
L 401.002315 680.254279 
L 401.314517 814.131202 
L 414.114785 814.131202 
L 414.426987 680.254279 
L 420.67102 680.254279 
L 420.983222 814.131202 
L 433.78349 814.131202 
L 434.095692 680.254279 
L 440.339725 680.254279 
L 440.651927 814.131202 
L 453.452195 814.131202 
L 453.764397 680.254279 
L 460.00843 680.254279 
L 460.320632 814.131202 
L 473.1209 814.131202 
L 473.433102 680.254279 
L 479.677135 680.254279 
L 479.989337 814.131202 
L 492.789605 814.131202 
L 493.101807 680.254279 
L 499.34584 680.254279 
L 499.658042 814.131202 
L 512.45831 814.131202 
L 512.770512 680.254279 
L 519.014545 680.254279 
L 519.326747 814.131202 
L 532.127015 814.131202 
L 532.439217 680.254279 
L 538.68325 680.254279 
L 538.995452 814.131202 
L 551.79572 814.131202 
L 552.107922 680.254279 
L 558.351955 680.254279 
L 558.664157 814.131202 
L 571.464425 814.131202 
L 571.776627 680.254279 
L 578.02066 680.254279 
L 578.332862 814.131202 
L 591.13313 814.131202 
L 591.445332 680.254279 
L 597.689365 680.254279 
L 598.001567 814.131202 
L 610.801835 814.131202 
L 611.114037 680.254279 
L 617.35807 680.254279 
L 617.670272 814.131202 
L 630.47054 814.131202 
L 630.782742 680.254279 
L 637.026775 680.254279 
L 637.338977 814.131202 
L 650.139245 814.131202 
L 650.451447 680.254279 
L 656.69548 680.254279 
L 657.007682 814.131202 
L 669.80795 814.131202 
L 670.120152 680.254279 
L 676.364185 680.254279 
L 676.676387 814.131202 
L 689.476655 814.131202 
L 689.788857 680.254279 
L 696.03289 680.254279 
L 696.345092 814.131202 
L 709.14536 814.131202 
L 709.457562 680.254279 
L 715.701595 680.254279 
L 716.013797 814.131202 
L 728.814065 814.131202 
L 729.126267 680.254279 
L 735.3703 680.254279 
L 735.682502 814.131202 
L 748.48277 814.131202 
L 748.794972 680.254279 
L 755.039005 680.254279 
L 755.351207 814.131202 
L 768.151475 814.131202 
L 768.463677 680.254279 
L 774.70771 680.254279 
L 775.019912 814.131202 
L 787.82018 814.131202 
L 788.132382 680.254279 
L 794.376415 680.254279 
L 794.688617 814.131202 
L 796.249625 814.131202 
L 796.249625 814.131202 
" clip-path="url(#p2271bfd5a5)" style="fill: none; stroke: #7f7f7f; stroke-width: 2; stroke-linecap: square"/>
   </g>
   <g id="line2d_118">
    <path d="M 46.965625 814.131202 
L 60.078095 814.131202 
L 60.390297 780.661971 
L 66.63433 780.661971 
L 66.946532 814.131202 
L 79.7468 814.131202 
L 80.059002 780.661971 
L 86.303035 780.661971 
L 86.615237 814.131202 
L 99.415505 814.131202 
L 99.727707 780.661971 
L 105.97174 780.661971 
L 106.283942 814.131202 
L 119.08421 814.131202 
L 119.396412 780.661971 
L 125.640445 780.661971 
L 125.952647 814.131202 
L 138.752915 814.131202 
L 139.065117 780.661971 
L 145.30915 780.661971 
L 145.621352 814.131202 
L 158.42162 814.131202 
L 158.733822 780.661971 
L 164.977855 780.661971 
L 165.290057 814.131202 
L 178.090325 814.131202 
L 178.402527 780.661971 
L 184.64656 780.661971 
L 184.958762 814.131202 
L 197.75903 814.131202 
L 198.071232 780.661971 
L 204.315265 780.661971 
L 204.627467 814.131202 
L 217.427735 814.131202 
L 217.739937 780.661971 
L 223.98397 780.661971 
L 224.296172 814.131202 
L 237.09644 814.131202 
L 237.408642 780.661971 
L 243.652675 780.661971 
L 243.964877 814.131202 
L 256.765145 814.131202 
L 257.077347 780.661971 
L 263.32138 780.661971 
L 263.633582 814.131202 
L 276.43385 814.131202 
L 276.746052 780.661971 
L 282.990085 780.661971 
L 283.302287 814.131202 
L 296.102555 814.131202 
L 296.414757 780.661971 
L 302.65879 780.661971 
L 302.970992 814.131202 
L 315.77126 814.131202 
L 316.083462 780.661971 
L 322.327495 780.661971 
L 322.639697 814.131202 
L 335.439965 814.131202 
L 335.752167 780.661971 
L 341.9962 780.661971 
L 342.308402 814.131202 
L 355.10867 814.131202 
L 355.420872 780.661971 
L 361.664905 780.661971 
L 361.977107 814.131202 
L 374.777375 814.131202 
L 375.089577 780.661971 
L 381.33361 780.661971 
L 381.645812 814.131202 
L 394.44608 814.131202 
L 394.758282 780.661971 
L 401.002315 780.661971 
L 401.314517 814.131202 
L 414.114785 814.131202 
L 414.426987 780.661971 
L 420.67102 780.661971 
L 420.983222 814.131202 
L 433.78349 814.131202 
L 434.095692 780.661971 
L 440.339725 780.661971 
L 440.651927 814.131202 
L 453.452195 814.131202 
L 453.764397 780.661971 
L 460.00843 780.661971 
L 460.320632 814.131202 
L 473.1209 814.131202 
L 473.433102 780.661971 
L 479.677135 780.661971 
L 479.989337 814.131202 
L 492.789605 814.131202 
L 493.101807 780.661971 
L 499.34584 780.661971 
L 499.658042 814.131202 
L 512.45831 814.131202 
L 512.770512 780.661971 
L 519.014545 780.661971 
L 519.326747 814.131202 
L 532.127015 814.131202 
L 532.439217 780.661971 
L 538.68325 780.661971 
L 538.995452 814.131202 
L 551.79572 814.131202 
L 552.107922 780.661971 
L 558.351955 780.661971 
L 558.664157 814.131202 
L 571.464425 814.131202 
L 571.776627 780.661971 
L 578.02066 780.661971 
L 578.332862 814.131202 
L 591.13313 814.131202 
L 591.445332 780.661971 
L 597.689365 780.661971 
L 598.001567 814.131202 
L 610.801835 814.131202 
L 611.114037 780.661971 
L 617.35807 780.661971 
L 617.670272 814.131202 
L 630.47054 814.131202 
L 630.782742 780.661971 
L 637.026775 780.661971 
L 637.338977 814.131202 
L 650.139245 814.131202 
L 650.451447 780.661971 
L 656.69548 780.661971 
L 657.007682 814.131202 
L 669.80795 814.131202 
L 670.120152 780.661971 
L 676.364185 780.661971 
L 676.676387 814.131202 
L 689.476655 814.131202 
L 689.788857 780.661971 
L 696.03289 780.661971 
L 696.345092 814.131202 
L 709.14536 814.131202 
L 709.457562 780.661971 
L 715.701595 780.661971 
L 716.013797 814.131202 
L 728.814065 814.131202 
L 729.126267 780.661971 
L 735.3703 780.661971 
L 735.682502 814.131202 
L 748.48277 814.131202 
L 748.794972 780.661971 
L 755.039005 780.661971 
L 755.351207 814.131202 
L 768.151475 814.131202 
L 768.463677 780.661971 
L 774.70771 780.661971 
L 775.019912 814.131202 
L 787.82018 814.131202 
L 788.132382 780.661971 
L 794.376415 780.661971 
L 794.688617 814.131202 
L 796.249625 814.131202 
L 796.249625 814.131202 
" clip-path="url(#p2271bfd5a5)" style="fill: none; stroke: #bcbd22; stroke-width: 2; stroke-linecap: square"/>
   </g>
   <g id="patch_18">
    <path d="M 46.965625 817.478125 
L 46.965625 643.438125 
" style="fill: none; stroke: #000000; stroke-width: 0.8; stroke-linejoin: miter; stroke-linecap: square"/>
   </g>
   <g id="patch_19">
    <path d="M 796.249625 817.478125 
L 796.249625 643.438125 
" style="fill: none; stroke: #000000; stroke-width: 0.8; stroke-linejoin: miter; stroke-linecap: square"/>
   </g>
   <g id="patch_20">
    <path d="M 46.965625 817.478125 
L 796.249625 817.478125 
" style="fill: none; stroke: #000000; stroke-width: 0.8; stroke-linejoin: miter; stroke-linecap: square"/>
   </g>
   <g id="patch_21">
    <path d="M 46.965625 643.438125 
L 796.249625 643.438125 
" style="fill: none; stroke: #000000; stroke-width: 0.8; stroke-linejoin: miter; stroke-linecap: square"/>
   </g>
   <g id="text_42">
    <!-- Inlet Composition -->
    <g transform="translate(368.946375 637.438125) scale(0.12 -0.12)">
     <defs>
      <path id="DejaVuSans-43" d="M 4122 4306 
L 4122 3641 
Q 3803 3938 3442 4084 
Q 3081 4231 2675 4231 
Q 1875 4231 1450 3742 
Q 1025 3253 1025 2328 
Q 1025 1406 1450 917 
Q 1875 428 2675 428 
Q 3081 428 3442 575 
Q 3803 722 4122 1019 
L 4122 359 
Q 3791 134 3420 21 
Q 3050 -91 2638 -91 
Q 1578 -91 968 557 
Q 359 1206 359 2328 
Q 359 3453 968 4101 
Q 1578 4750 2638 4750 
Q 3056 4750 3426 4639 
Q 3797 4528 4122 4306 
z
" transform="scale(0.015625)"/>
     </defs>
     <use xlink:href="#DejaVuSans-49"/>
     <use xlink:href="#DejaVuSans-6e" transform="translate(29.492188 0)"/>
     <use xlink:href="#DejaVuSans-6c" transform="translate(92.871094 0)"/>
     <use xlink:href="#DejaVuSans-65" transform="translate(120.654297 0)"/>
     <use xlink:href="#DejaVuSans-74" transform="translate(182.177734 0)"/>
     <use xlink:href="#DejaVuSans-20" transform="translate(221.386719 0)"/>
     <use xlink:href="#DejaVuSans-43" transform="translate(253.173828 0)"/>
     <use xlink:href="#DejaVuSans-6f" transform="translate(322.998047 0)"/>
     <use xlink:href="#DejaVuSans-6d" transform="translate(384.179688 0)"/>
     <use xlink:href="#DejaVuSans-70" transform="translate(481.591797 0)"/>
     <use xlink:href="#DejaVuSans-6f" transform="translate(545.068359 0)"/>
     <use xlink:href="#DejaVuSans-73" transform="translate(606.25 0)"/>
     <use xlink:href="#DejaVuSans-69" transform="translate(658.349609 0)"/>
     <use xlink:href="#DejaVuSans-74" transform="translate(686.132812 0)"/>
     <use xlink:href="#DejaVuSans-69" transform="translate(725.341797 0)"/>
     <use xlink:href="#DejaVuSans-6f" transform="translate(753.125 0)"/>
     <use xlink:href="#DejaVuSans-6e" transform="translate(814.306641 0)"/>
    </g>
   </g>
   <g id="legend_1">
    <g id="patch_22">
     <path d="M 805.342465 751.520625 
L 848.346215 751.520625 
Q 849.946215 751.520625 849.946215 749.920625 
L 849.946215 645.038125 
Q 849.946215 643.438125 848.346215 643.438125 
L 805.342465 643.438125 
Q 803.742465 643.438125 803.742465 645.038125 
L 803.742465 749.920625 
Q 803.742465 751.520625 805.342465 751.520625 
z
" style="fill: #ffffff; opacity: 0.8; stroke: #cccccc; stroke-linejoin: miter"/>
    </g>
    <g id="line2d_119">
     <path d="M 806.942465 649.916875 
L 814.942465 649.916875 
L 822.942465 649.916875 
" style="fill: none; stroke: #1f77b4; stroke-width: 2; stroke-linecap: square"/>
    </g>
    <g id="text_43">
     <!-- Ar -->
     <g transform="translate(829.342465 652.716875) scale(0.08 -0.08)">
      <defs>
       <path id="DejaVuSans-41" d="M 2188 4044 
L 1331 1722 
L 3047 1722 
L 2188 4044 
z
M 1831 4666 
L 2547 4666 
L 4325 0 
L 3669 0 
L 3244 1197 
L 1141 1197 
L 716 0 
L 50 0 
L 1831 4666 
z
" transform="scale(0.015625)"/>
      </defs>
      <use xlink:href="#DejaVuSans-41"/>
      <use xlink:href="#DejaVuSans-72" transform="translate(68.408203 0)"/>
     </g>
    </g>
    <g id="line2d_120">
     <path d="M 806.942465 661.659375 
L 814.942465 661.659375 
L 822.942465 661.659375 
" style="fill: none; stroke: #ff7f0e; stroke-width: 2; stroke-linecap: square"/>
    </g>
    <g id="text_44">
     <!-- CH4 -->
     <g transform="translate(829.342465 664.459375) scale(0.08 -0.08)">
      <defs>
       <path id="DejaVuSans-48" d="M 628 4666 
L 1259 4666 
L 1259 2753 
L 3553 2753 
L 3553 4666 
L 4184 4666 
L 4184 0 
L 3553 0 
L 3553 2222 
L 1259 2222 
L 1259 0 
L 628 0 
L 628 4666 
z
" transform="scale(0.015625)"/>
      </defs>
      <use xlink:href="#DejaVuSans-43"/>
      <use xlink:href="#DejaVuSans-48" transform="translate(69.824219 0)"/>
      <use xlink:href="#DejaVuSans-34" transform="translate(145.019531 0)"/>
     </g>
    </g>
    <g id="line2d_121">
     <path d="M 806.942465 673.401875 
L 814.942465 673.401875 
L 822.942465 673.401875 
" style="fill: none; stroke: #2ca02c; stroke-width: 2; stroke-linecap: square"/>
    </g>
    <g id="text_45">
     <!-- CO -->
     <g transform="translate(829.342465 676.201875) scale(0.08 -0.08)">
      <use xlink:href="#DejaVuSans-43"/>
      <use xlink:href="#DejaVuSans-4f" transform="translate(69.824219 0)"/>
     </g>
    </g>
    <g id="line2d_122">
     <path d="M 806.942465 685.144375 
L 814.942465 685.144375 
L 822.942465 685.144375 
" style="fill: none; stroke: #d62728; stroke-width: 2; stroke-linecap: square"/>
    </g>
    <g id="text_46">
     <!-- CO2 -->
     <g transform="translate(829.342465 687.944375) scale(0.08 -0.08)">
      <use xlink:href="#DejaVuSans-43"/>
      <use xlink:href="#DejaVuSans-4f" transform="translate(69.824219 0)"/>
      <use xlink:href="#DejaVuSans-32" transform="translate(148.535156 0)"/>
     </g>
    </g>
    <g id="line2d_123">
     <path d="M 806.942465 696.886875 
L 814.942465 696.886875 
L 822.942465 696.886875 
" style="fill: none; stroke: #9467bd; stroke-width: 2; stroke-linecap: square"/>
    </g>
    <g id="text_47">
     <!-- H2 -->
     <g transform="translate(829.342465 699.686875) scale(0.08 -0.08)">
      <use xlink:href="#DejaVuSans-48"/>
      <use xlink:href="#DejaVuSans-32" transform="translate(75.195312 0)"/>
     </g>
    </g>
    <g id="line2d_124">
     <path d="M 806.942465 708.629375 
L 814.942465 708.629375 
L 822.942465 708.629375 
" style="fill: none; stroke: #8c564b; stroke-width: 2; stroke-linecap: square"/>
    </g>
    <g id="text_48">
     <!-- H2O -->
     <g transform="translate(829.342465 711.429375) scale(0.08 -0.08)">
      <use xlink:href="#DejaVuSans-48"/>
      <use xlink:href="#DejaVuSans-32" transform="translate(75.195312 0)"/>
      <use xlink:href="#DejaVuSans-4f" transform="translate(138.818359 0)"/>
     </g>
    </g>
    <g id="line2d_125">
     <path d="M 806.942465 720.371875 
L 814.942465 720.371875 
L 822.942465 720.371875 
" style="fill: none; stroke: #e377c2; stroke-width: 2; stroke-linecap: square"/>
    </g>
    <g id="text_49">
     <!-- He -->
     <g transform="translate(829.342465 723.171875) scale(0.08 -0.08)">
      <use xlink:href="#DejaVuSans-48"/>
      <use xlink:href="#DejaVuSans-65" transform="translate(75.195312 0)"/>
     </g>
    </g>
    <g id="line2d_126">
     <path d="M 806.942465 732.114375 
L 814.942465 732.114375 
L 822.942465 732.114375 
" style="fill: none; stroke: #7f7f7f; stroke-width: 2; stroke-linecap: square"/>
    </g>
    <g id="text_50">
     <!-- N2 -->
     <g transform="translate(829.342465 734.914375) scale(0.08 -0.08)">
      <defs>
       <path id="DejaVuSans-4e" d="M 628 4666 
L 1478 4666 
L 3547 763 
L 3547 4666 
L 4159 4666 
L 4159 0 
L 3309 0 
L 1241 3903 
L 1241 0 
L 628 0 
L 628 4666 
z
" transform="scale(0.015625)"/>
      </defs>
      <use xlink:href="#DejaVuSans-4e"/>
      <use xlink:href="#DejaVuSans-32" transform="translate(74.804688 0)"/>
     </g>
    </g>
    <g id="line2d_127">
     <path d="M 806.942465 743.856875 
L 814.942465 743.856875 
L 822.942465 743.856875 
" style="fill: none; stroke: #bcbd22; stroke-width: 2; stroke-linecap: square"/>
    </g>
    <g id="text_51">
     <!-- O2 -->
     <g transform="translate(829.342465 746.656875) scale(0.08 -0.08)">
      <use xlink:href="#DejaVuSans-4f"/>
      <use xlink:href="#DejaVuSans-32" transform="translate(78.710938 0)"/>
     </g>
    </g>
   </g>
  </g>
 </g>
 <defs>
  <clipPath id="p27db165c05">
   <rect x="46.965625" y="22.318125" width="749.284" height="174.04"/>
  </clipPath>
  <clipPath id="p69ee964bdb">
   <rect x="46.965625" y="229.358125" width="749.284" height="174.04"/>
  </clipPath>
  <clipPath id="pf4d93a824f">
   <rect x="46.965625" y="436.398125" width="749.284" height="174.04"/>
  </clipPath>
  <clipPath id="p2271bfd5a5">
   <rect x="46.965625" y="643.438125" width="749.284" height="174.04"/>
  </clipPath>
 </defs>
</svg>
