<?xml version="1.0" encoding="utf-8" standalone="no"?>
<!DOCTYPE svg PUBLIC "-//W3C//DTD SVG 1.1//EN"
  "http://www.w3.org/Graphics/SVG/1.1/DTD/svg11.dtd">
<svg xmlns:xlink="http://www.w3.org/1999/xlink" width="857.23424pt" height="567.034375pt" viewBox="0 0 857.23424 567.034375" xmlns="http://www.w3.org/2000/svg" version="1.1">
 <metadata>
  <rdf:RDF xmlns:dc="http://purl.org/dc/elements/1.1/" xmlns:cc="http://creativecommons.org/ns#" xmlns:rdf="http://www.w3.org/1999/02/22-rdf-syntax-ns#">
   <cc:Work>
    <dc:type rdf:resource="http://purl.org/dc/dcmitype/StillImage"/>
    <dc:date>2026-04-23T10:49:49.606191</dc:date>
    <dc:format>image/svg+xml</dc:format>
    <dc:creator>
     <cc:Agent>
      <dc:title>Matplotlib v3.10.8, https://matplotlib.org/</dc:title>
     </cc:Agent>
    </dc:creator>
   </cc:Work>
  </rdf:RDF>
 </metadata>
 <defs>
  <style type="text/css">*{stroke-linejoin: round; stroke-linecap: butt}</style>
 </defs>
 <g id="figure_1">
  <g id="patch_1">
   <path d="M 0 567.034375 
L 857.23424 567.034375 
L 857.23424 0 
L 0 0 
z
" style="fill: #ffffff"/>
  </g>
  <g id="axes_1">
   <g id="patch_2">
    <path d="M 43.78125 260.708125 
L 796.30525 260.708125 
L 796.30525 22.318125 
L 43.78125 22.318125 
z
" style="fill: #ffffff"/>
   </g>
   <g id="matplotlib.axis_1">
    <g id="xtick_1">
     <g id="line2d_1">
      <path d="M 43.78125 260.708125 
L 43.78125 22.318125 
" clip-path="url(#p96231638bc)" style="fill: none; stroke: #b0b0b0; stroke-opacity: 0.3; stroke-width: 0.8; stroke-linecap: square"/>
     </g>
     <g id="line2d_2">
      <defs>
       <path id="maf6a36384d" d="M 0 0 
L 0 3.5 
" style="stroke: #000000; stroke-width: 0.8"/>
      </defs>
      <g>
       <use xlink:href="#maf6a36384d" x="43.78125" y="260.708125" style="stroke: #000000; stroke-width: 0.8"/>
      </g>
     </g>
    </g>
    <g id="xtick_2">
     <g id="line2d_3">
      <path d="M 169.201917 260.708125 
L 169.201917 22.318125 
" clip-path="url(#p96231638bc)" style="fill: none; stroke: #b0b0b0; stroke-opacity: 0.3; stroke-width: 0.8; stroke-linecap: square"/>
     </g>
     <g id="line2d_4">
      <g>
       <use xlink:href="#maf6a36384d" x="169.201917" y="260.708125" style="stroke: #000000; stroke-width: 0.8"/>
      </g>
     </g>
    </g>
    <g id="xtick_3">
     <g id="line2d_5">
      <path d="M 294.622583 260.708125 
L 294.622583 22.318125 
" clip-path="url(#p96231638bc)" style="fill: none; stroke: #b0b0b0; stroke-opacity: 0.3; stroke-width: 0.8; stroke-linecap: square"/>
     </g>
     <g id="line2d_6">
      <g>
       <use xlink:href="#maf6a36384d" x="294.622583" y="260.708125" style="stroke: #000000; stroke-width: 0.8"/>
      </g>
     </g>
    </g>
    <g id="xtick_4">
     <g id="line2d_7">
      <path d="M 420.04325 260.708125 
L 420.04325 22.318125 
" clip-path="url(#p96231638bc)" style="fill: none; stroke: #b0b0b0; stroke-opacity: 0.3; stroke-width: 0.8; stroke-linecap: square"/>
     </g>
     <g id="line2d_8">
      <g>
       <use xlink:href="#maf6a36384d" x="420.04325" y="260.708125" style="stroke: #000000; stroke-width: 0.8"/>
      </g>
     </g>
    </g>
    <g id="xtick_5">
     <g id="line2d_9">
      <path d="M 545.463917 260.708125 
L 545.463917 22.318125 
" clip-path="url(#p96231638bc)" style="fill: none; stroke: #b0b0b0; stroke-opacity: 0.3; stroke-width: 0.8; stroke-linecap: square"/>
     </g>
     <g id="line2d_10">
      <g>
       <use xlink:href="#maf6a36384d" x="545.463917" y="260.708125" style="stroke: #000000; stroke-width: 0.8"/>
      </g>
     </g>
    </g>
    <g id="xtick_6">
     <g id="line2d_11">
      <path d="M 670.884583 260.708125 
L 670.884583 22.318125 
" clip-path="url(#p96231638bc)" style="fill: none; stroke: #b0b0b0; stroke-opacity: 0.3; stroke-width: 0.8; stroke-linecap: square"/>
     </g>
     <g id="line2d_12">
      <g>
       <use xlink:href="#maf6a36384d" x="670.884583" y="260.708125" style="stroke: #000000; stroke-width: 0.8"/>
      </g>
     </g>
    </g>
    <g id="xtick_7">
     <g id="line2d_13">
      <path d="M 796.30525 260.708125 
L 796.30525 22.318125 
" clip-path="url(#p96231638bc)" style="fill: none; stroke: #b0b0b0; stroke-opacity: 0.3; stroke-width: 0.8; stroke-linecap: square"/>
     </g>
     <g id="line2d_14">
      <g>
       <use xlink:href="#maf6a36384d" x="796.30525" y="260.708125" style="stroke: #000000; stroke-width: 0.8"/>
      </g>
     </g>
    </g>
   </g>
   <g id="matplotlib.axis_2">
    <g id="ytick_1">
     <g id="line2d_15">
      <path d="M 43.78125 256.123702 
L 796.30525 256.123702 
" clip-path="url(#p96231638bc)" style="fill: none; stroke: #b0b0b0; stroke-opacity: 0.3; stroke-width: 0.8; stroke-linecap: square"/>
     </g>
     <g id="line2d_16">
      <defs>
       <path id="mb8c4a1a0d2" d="M 0 0 
L -3.5 0 
" style="stroke: #000000; stroke-width: 0.8"/>
      </defs>
      <g>
       <use xlink:href="#mb8c4a1a0d2" x="43.78125" y="256.123702" style="stroke: #000000; stroke-width: 0.8"/>
      </g>
     </g>
     <g id="text_1">
      <!-- 0.0 -->
      <g transform="translate(20.878125 259.922921) scale(0.1 -0.1)">
       <defs>
        <path id="DejaVuSans-30" d="M 2034 4250 
Q 1547 4250 1301 3770 
Q 1056 3291 1056 2328 
Q 1056 1369 1301 889 
Q 1547 409 2034 409 
Q 2525 409 2770 889 
Q 3016 1369 3016 2328 
Q 3016 3291 2770 3770 
Q 2525 4250 2034 4250 
z
M 2034 4750 
Q 2819 4750 3233 4129 
Q 3647 3509 3647 2328 
Q 3647 1150 3233 529 
Q 2819 -91 2034 -91 
Q 1250 -91 836 529 
Q 422 1150 422 2328 
Q 422 3509 836 4129 
Q 1250 4750 2034 4750 
z
" transform="scale(0.015625)"/>
        <path id="DejaVuSans-2e" d="M 684 794 
L 1344 794 
L 1344 0 
L 684 0 
L 684 794 
z
" transform="scale(0.015625)"/>
       </defs>
       <use xlink:href="#DejaVuSans-30"/>
       <use xlink:href="#DejaVuSans-2e" transform="translate(63.623047 0)"/>
       <use xlink:href="#DejaVuSans-30" transform="translate(95.410156 0)"/>
      </g>
     </g>
    </g>
    <g id="ytick_2">
     <g id="line2d_17">
      <path d="M 43.78125 210.279471 
L 796.30525 210.279471 
" clip-path="url(#p96231638bc)" style="fill: none; stroke: #b0b0b0; stroke-opacity: 0.3; stroke-width: 0.8; stroke-linecap: square"/>
     </g>
     <g id="line2d_18">
      <g>
       <use xlink:href="#mb8c4a1a0d2" x="43.78125" y="210.279471" style="stroke: #000000; stroke-width: 0.8"/>
      </g>
     </g>
     <g id="text_2">
      <!-- 0.2 -->
      <g transform="translate(20.878125 214.07869) scale(0.1 -0.1)">
       <defs>
        <path id="DejaVuSans-32" d="M 1228 531 
L 3431 531 
L 3431 0 
L 469 0 
L 469 531 
Q 828 903 1448 1529 
Q 2069 2156 2228 2338 
Q 2531 2678 2651 2914 
Q 2772 3150 2772 3378 
Q 2772 3750 2511 3984 
Q 2250 4219 1831 4219 
Q 1534 4219 1204 4116 
Q 875 4013 500 3803 
L 500 4441 
Q 881 4594 1212 4672 
Q 1544 4750 1819 4750 
Q 2544 4750 2975 4387 
Q 3406 4025 3406 3419 
Q 3406 3131 3298 2873 
Q 3191 2616 2906 2266 
Q 2828 2175 2409 1742 
Q 1991 1309 1228 531 
z
" transform="scale(0.015625)"/>
       </defs>
       <use xlink:href="#DejaVuSans-30"/>
       <use xlink:href="#DejaVuSans-2e" transform="translate(63.623047 0)"/>
       <use xlink:href="#DejaVuSans-32" transform="translate(95.410156 0)"/>
      </g>
     </g>
    </g>
    <g id="ytick_3">
     <g id="line2d_19">
      <path d="M 43.78125 164.43524 
L 796.30525 164.43524 
" clip-path="url(#p96231638bc)" style="fill: none; stroke: #b0b0b0; stroke-opacity: 0.3; stroke-width: 0.8; stroke-linecap: square"/>
     </g>
     <g id="line2d_20">
      <g>
       <use xlink:href="#mb8c4a1a0d2" x="43.78125" y="164.43524" style="stroke: #000000; stroke-width: 0.8"/>
      </g>
     </g>
     <g id="text_3">
      <!-- 0.4 -->
      <g transform="translate(20.878125 168.234459) scale(0.1 -0.1)">
       <defs>
        <path id="DejaVuSans-34" d="M 2419 4116 
L 825 1625 
L 2419 1625 
L 2419 4116 
z
M 2253 4666 
L 3047 4666 
L 3047 1625 
L 3713 1625 
L 3713 1100 
L 3047 1100 
L 3047 0 
L 2419 0 
L 2419 1100 
L 313 1100 
L 313 1709 
L 2253 4666 
z
" transform="scale(0.015625)"/>
       </defs>
       <use xlink:href="#DejaVuSans-30"/>
       <use xlink:href="#DejaVuSans-2e" transform="translate(63.623047 0)"/>
       <use xlink:href="#DejaVuSans-34" transform="translate(95.410156 0)"/>
      </g>
     </g>
    </g>
    <g id="ytick_4">
     <g id="line2d_21">
      <path d="M 43.78125 118.59101 
L 796.30525 118.59101 
" clip-path="url(#p96231638bc)" style="fill: none; stroke: #b0b0b0; stroke-opacity: 0.3; stroke-width: 0.8; stroke-linecap: square"/>
     </g>
     <g id="line2d_22">
      <g>
       <use xlink:href="#mb8c4a1a0d2" x="43.78125" y="118.59101" style="stroke: #000000; stroke-width: 0.8"/>
      </g>
     </g>
     <g id="text_4">
      <!-- 0.6 -->
      <g transform="translate(20.878125 122.390228) scale(0.1 -0.1)">
       <defs>
        <path id="DejaVuSans-36" d="M 2113 2584 
Q 1688 2584 1439 2293 
Q 1191 2003 1191 1497 
Q 1191 994 1439 701 
Q 1688 409 2113 409 
Q 2538 409 2786 701 
Q 3034 994 3034 1497 
Q 3034 2003 2786 2293 
Q 2538 2584 2113 2584 
z
M 3366 4563 
L 3366 3988 
Q 3128 4100 2886 4159 
Q 2644 4219 2406 4219 
Q 1781 4219 1451 3797 
Q 1122 3375 1075 2522 
Q 1259 2794 1537 2939 
Q 1816 3084 2150 3084 
Q 2853 3084 3261 2657 
Q 3669 2231 3669 1497 
Q 3669 778 3244 343 
Q 2819 -91 2113 -91 
Q 1303 -91 875 529 
Q 447 1150 447 2328 
Q 447 3434 972 4092 
Q 1497 4750 2381 4750 
Q 2619 4750 2861 4703 
Q 3103 4656 3366 4563 
z
" transform="scale(0.015625)"/>
       </defs>
       <use xlink:href="#DejaVuSans-30"/>
       <use xlink:href="#DejaVuSans-2e" transform="translate(63.623047 0)"/>
       <use xlink:href="#DejaVuSans-36" transform="translate(95.410156 0)"/>
      </g>
     </g>
    </g>
    <g id="ytick_5">
     <g id="line2d_23">
      <path d="M 43.78125 72.746779 
L 796.30525 72.746779 
" clip-path="url(#p96231638bc)" style="fill: none; stroke: #b0b0b0; stroke-opacity: 0.3; stroke-width: 0.8; stroke-linecap: square"/>
     </g>
     <g id="line2d_24">
      <g>
       <use xlink:href="#mb8c4a1a0d2" x="43.78125" y="72.746779" style="stroke: #000000; stroke-width: 0.8"/>
      </g>
     </g>
     <g id="text_5">
      <!-- 0.8 -->
      <g transform="translate(20.878125 76.545998) scale(0.1 -0.1)">
       <defs>
        <path id="DejaVuSans-38" d="M 2034 2216 
Q 1584 2216 1326 1975 
Q 1069 1734 1069 1313 
Q 1069 891 1326 650 
Q 1584 409 2034 409 
Q 2484 409 2743 651 
Q 3003 894 3003 1313 
Q 3003 1734 2745 1975 
Q 2488 2216 2034 2216 
z
M 1403 2484 
Q 997 2584 770 2862 
Q 544 3141 544 3541 
Q 544 4100 942 4425 
Q 1341 4750 2034 4750 
Q 2731 4750 3128 4425 
Q 3525 4100 3525 3541 
Q 3525 3141 3298 2862 
Q 3072 2584 2669 2484 
Q 3125 2378 3379 2068 
Q 3634 1759 3634 1313 
Q 3634 634 3220 271 
Q 2806 -91 2034 -91 
Q 1263 -91 848 271 
Q 434 634 434 1313 
Q 434 1759 690 2068 
Q 947 2378 1403 2484 
z
M 1172 3481 
Q 1172 3119 1398 2916 
Q 1625 2713 2034 2713 
Q 2441 2713 2670 2916 
Q 2900 3119 2900 3481 
Q 2900 3844 2670 4047 
Q 2441 4250 2034 4250 
Q 1625 4250 1398 4047 
Q 1172 3844 1172 3481 
z
" transform="scale(0.015625)"/>
       </defs>
       <use xlink:href="#DejaVuSans-30"/>
       <use xlink:href="#DejaVuSans-2e" transform="translate(63.623047 0)"/>
       <use xlink:href="#DejaVuSans-38" transform="translate(95.410156 0)"/>
      </g>
     </g>
    </g>
    <g id="ytick_6">
     <g id="line2d_25">
      <path d="M 43.78125 26.902548 
L 796.30525 26.902548 
" clip-path="url(#p96231638bc)" style="fill: none; stroke: #b0b0b0; stroke-opacity: 0.3; stroke-width: 0.8; stroke-linecap: square"/>
     </g>
     <g id="line2d_26">
      <g>
       <use xlink:href="#mb8c4a1a0d2" x="43.78125" y="26.902548" style="stroke: #000000; stroke-width: 0.8"/>
      </g>
     </g>
     <g id="text_6">
      <!-- 1.0 -->
      <g transform="translate(20.878125 30.701767) scale(0.1 -0.1)">
       <defs>
        <path id="DejaVuSans-31" d="M 794 531 
L 1825 531 
L 1825 4091 
L 703 3866 
L 703 4441 
L 1819 4666 
L 2450 4666 
L 2450 531 
L 3481 531 
L 3481 0 
L 794 0 
L 794 531 
z
" transform="scale(0.015625)"/>
       </defs>
       <use xlink:href="#DejaVuSans-31"/>
       <use xlink:href="#DejaVuSans-2e" transform="translate(63.623047 0)"/>
       <use xlink:href="#DejaVuSans-30" transform="translate(95.410156 0)"/>
      </g>
     </g>
    </g>
    <g id="text_7">
     <!-- Mole fraction [-] -->
     <g transform="translate(14.798438 181.442031) rotate(-90) scale(0.1 -0.1)">
      <defs>
       <path id="DejaVuSans-4d" d="M 628 4666 
L 1569 4666 
L 2759 1491 
L 3956 4666 
L 4897 4666 
L 4897 0 
L 4281 0 
L 4281 4097 
L 3078 897 
L 2444 897 
L 1241 4097 
L 1241 0 
L 628 0 
L 628 4666 
z
" transform="scale(0.015625)"/>
       <path id="DejaVuSans-6f" d="M 1959 3097 
Q 1497 3097 1228 2736 
Q 959 2375 959 1747 
Q 959 1119 1226 758 
Q 1494 397 1959 397 
Q 2419 397 2687 759 
Q 2956 1122 2956 1747 
Q 2956 2369 2687 2733 
Q 2419 3097 1959 3097 
z
M 1959 3584 
Q 2709 3584 3137 3096 
Q 3566 2609 3566 1747 
Q 3566 888 3137 398 
Q 2709 -91 1959 -91 
Q 1206 -91 779 398 
Q 353 888 353 1747 
Q 353 2609 779 3096 
Q 1206 3584 1959 3584 
z
" transform="scale(0.015625)"/>
       <path id="DejaVuSans-6c" d="M 603 4863 
L 1178 4863 
L 1178 0 
L 603 0 
L 603 4863 
z
" transform="scale(0.015625)"/>
       <path id="DejaVuSans-65" d="M 3597 1894 
L 3597 1613 
L 953 1613 
Q 991 1019 1311 708 
Q 1631 397 2203 397 
Q 2534 397 2845 478 
Q 3156 559 3463 722 
L 3463 178 
Q 3153 47 2828 -22 
Q 2503 -91 2169 -91 
Q 1331 -91 842 396 
Q 353 884 353 1716 
Q 353 2575 817 3079 
Q 1281 3584 2069 3584 
Q 2775 3584 3186 3129 
Q 3597 2675 3597 1894 
z
M 3022 2063 
Q 3016 2534 2758 2815 
Q 2500 3097 2075 3097 
Q 1594 3097 1305 2825 
Q 1016 2553 972 2059 
L 3022 2063 
z
" transform="scale(0.015625)"/>
       <path id="DejaVuSans-20" transform="scale(0.015625)"/>
       <path id="DejaVuSans-66" d="M 2375 4863 
L 2375 4384 
L 1825 4384 
Q 1516 4384 1395 4259 
Q 1275 4134 1275 3809 
L 1275 3500 
L 2222 3500 
L 2222 3053 
L 1275 3053 
L 1275 0 
L 697 0 
L 697 3053 
L 147 3053 
L 147 3500 
L 697 3500 
L 697 3744 
Q 697 4328 969 4595 
Q 1241 4863 1831 4863 
L 2375 4863 
z
" transform="scale(0.015625)"/>
       <path id="DejaVuSans-72" d="M 2631 2963 
Q 2534 3019 2420 3045 
Q 2306 3072 2169 3072 
Q 1681 3072 1420 2755 
Q 1159 2438 1159 1844 
L 1159 0 
L 581 0 
L 581 3500 
L 1159 3500 
L 1159 2956 
Q 1341 3275 1631 3429 
Q 1922 3584 2338 3584 
Q 2397 3584 2469 3576 
Q 2541 3569 2628 3553 
L 2631 2963 
z
" transform="scale(0.015625)"/>
       <path id="DejaVuSans-61" d="M 2194 1759 
Q 1497 1759 1228 1600 
Q 959 1441 959 1056 
Q 959 750 1161 570 
Q 1363 391 1709 391 
Q 2188 391 2477 730 
Q 2766 1069 2766 1631 
L 2766 1759 
L 2194 1759 
z
M 3341 1997 
L 3341 0 
L 2766 0 
L 2766 531 
Q 2569 213 2275 61 
Q 1981 -91 1556 -91 
Q 1019 -91 701 211 
Q 384 513 384 1019 
Q 384 1609 779 1909 
Q 1175 2209 1959 2209 
L 2766 2209 
L 2766 2266 
Q 2766 2663 2505 2880 
Q 2244 3097 1772 3097 
Q 1472 3097 1187 3025 
Q 903 2953 641 2809 
L 641 3341 
Q 956 3463 1253 3523 
Q 1550 3584 1831 3584 
Q 2591 3584 2966 3190 
Q 3341 2797 3341 1997 
z
" transform="scale(0.015625)"/>
       <path id="DejaVuSans-63" d="M 3122 3366 
L 3122 2828 
Q 2878 2963 2633 3030 
Q 2388 3097 2138 3097 
Q 1578 3097 1268 2742 
Q 959 2388 959 1747 
Q 959 1106 1268 751 
Q 1578 397 2138 397 
Q 2388 397 2633 464 
Q 2878 531 3122 666 
L 3122 134 
Q 2881 22 2623 -34 
Q 2366 -91 2075 -91 
Q 1284 -91 818 406 
Q 353 903 353 1747 
Q 353 2603 823 3093 
Q 1294 3584 2113 3584 
Q 2378 3584 2631 3529 
Q 2884 3475 3122 3366 
z
" transform="scale(0.015625)"/>
       <path id="DejaVuSans-74" d="M 1172 4494 
L 1172 3500 
L 2356 3500 
L 2356 3053 
L 1172 3053 
L 1172 1153 
Q 1172 725 1289 603 
Q 1406 481 1766 481 
L 2356 481 
L 2356 0 
L 1766 0 
Q 1100 0 847 248 
Q 594 497 594 1153 
L 594 3053 
L 172 3053 
L 172 3500 
L 594 3500 
L 594 4494 
L 1172 4494 
z
" transform="scale(0.015625)"/>
       <path id="DejaVuSans-69" d="M 603 3500 
L 1178 3500 
L 1178 0 
L 603 0 
L 603 3500 
z
M 603 4863 
L 1178 4863 
L 1178 4134 
L 603 4134 
L 603 4863 
z
" transform="scale(0.015625)"/>
       <path id="DejaVuSans-6e" d="M 3513 2113 
L 3513 0 
L 2938 0 
L 2938 2094 
Q 2938 2591 2744 2837 
Q 2550 3084 2163 3084 
Q 1697 3084 1428 2787 
Q 1159 2491 1159 1978 
L 1159 0 
L 581 0 
L 581 3500 
L 1159 3500 
L 1159 2956 
Q 1366 3272 1645 3428 
Q 1925 3584 2291 3584 
Q 2894 3584 3203 3211 
Q 3513 2838 3513 2113 
z
" transform="scale(0.015625)"/>
       <path id="DejaVuSans-5b" d="M 550 4863 
L 1875 4863 
L 1875 4416 
L 1125 4416 
L 1125 -397 
L 1875 -397 
L 1875 -844 
L 550 -844 
L 550 4863 
z
" transform="scale(0.015625)"/>
       <path id="DejaVuSans-2d" d="M 313 2009 
L 1997 2009 
L 1997 1497 
L 313 1497 
L 313 2009 
z
" transform="scale(0.015625)"/>
       <path id="DejaVuSans-5d" d="M 1947 4863 
L 1947 -844 
L 622 -844 
L 622 -397 
L 1369 -397 
L 1369 4416 
L 622 4416 
L 622 4863 
L 1947 4863 
z
" transform="scale(0.015625)"/>
      </defs>
      <use xlink:href="#DejaVuSans-4d"/>
      <use xlink:href="#DejaVuSans-6f" transform="translate(86.279297 0)"/>
      <use xlink:href="#DejaVuSans-6c" transform="translate(147.460938 0)"/>
      <use xlink:href="#DejaVuSans-65" transform="translate(175.244141 0)"/>
      <use xlink:href="#DejaVuSans-20" transform="translate(236.767578 0)"/>
      <use xlink:href="#DejaVuSans-66" transform="translate(268.554688 0)"/>
      <use xlink:href="#DejaVuSans-72" transform="translate(303.759766 0)"/>
      <use xlink:href="#DejaVuSans-61" transform="translate(344.873047 0)"/>
      <use xlink:href="#DejaVuSans-63" transform="translate(406.152344 0)"/>
      <use xlink:href="#DejaVuSans-74" transform="translate(461.132812 0)"/>
      <use xlink:href="#DejaVuSans-69" transform="translate(500.341797 0)"/>
      <use xlink:href="#DejaVuSans-6f" transform="translate(528.125 0)"/>
      <use xlink:href="#DejaVuSans-6e" transform="translate(589.306641 0)"/>
      <use xlink:href="#DejaVuSans-20" transform="translate(652.685547 0)"/>
      <use xlink:href="#DejaVuSans-5b" transform="translate(684.472656 0)"/>
      <use xlink:href="#DejaVuSans-2d" transform="translate(723.486328 0)"/>
      <use xlink:href="#DejaVuSans-5d" transform="translate(759.570312 0)"/>
     </g>
    </g>
   </g>
   <g id="line2d_27">
    <path d="M 43.78125 256.123702 
L 156.65985 256.123702 
L 157.914057 210.279471 
L 220.62439 210.279471 
L 221.878597 256.123702 
L 346.045057 256.123702 
L 347.299263 210.279471 
L 410.009597 210.279471 
L 411.263803 256.123702 
L 535.430263 256.123702 
L 536.68447 210.279471 
L 599.394803 210.279471 
L 600.64901 256.123702 
L 724.81547 256.123702 
L 726.069677 210.279471 
L 788.78001 210.279471 
L 790.034217 256.123702 
L 796.30525 256.123702 
L 796.30525 256.123702 
" clip-path="url(#p96231638bc)" style="fill: none; stroke: #1f77b4; stroke-width: 2; stroke-linecap: square"/>
   </g>
   <g id="line2d_28">
    <path d="M 43.78125 256.123702 
L 93.949517 256.123702 
L 95.203723 233.201587 
L 145.37199 233.201587 
L 146.626197 256.123702 
L 283.334723 256.123702 
L 284.58893 233.201587 
L 334.757197 233.201587 
L 336.011403 256.123702 
L 472.71993 256.123702 
L 473.974137 233.201587 
L 524.142403 233.201587 
L 525.39661 256.123702 
L 662.105137 256.123702 
L 663.359343 233.201587 
L 713.52761 233.201587 
L 714.781817 256.123702 
L 796.30525 256.123702 
L 796.30525 256.123702 
" clip-path="url(#p96231638bc)" style="fill: none; stroke: #ff7f0e; stroke-width: 2; stroke-linecap: square"/>
   </g>
   <g id="line2d_29">
    <path d="M 43.78125 256.123702 
L 93.949517 256.123702 
L 95.203723 233.201587 
L 145.37199 233.201587 
L 146.626197 256.123702 
L 283.334723 256.123702 
L 284.58893 233.201587 
L 334.757197 233.201587 
L 336.011403 256.123702 
L 472.71993 256.123702 
L 473.974137 233.201587 
L 524.142403 233.201587 
L 525.39661 256.123702 
L 662.105137 256.123702 
L 663.359343 233.201587 
L 713.52761 233.201587 
L 714.781817 256.123702 
L 796.30525 256.123702 
L 796.30525 256.123702 
" clip-path="url(#p96231638bc)" style="fill: none; stroke: #d62728; stroke-width: 2; stroke-linecap: square"/>
   </g>
   <g id="line2d_30">
    <path d="M 43.78125 256.123702 
L 93.949517 256.123702 
L 95.203723 210.279471 
L 145.37199 210.279471 
L 146.626197 256.123702 
L 283.334723 256.123702 
L 284.58893 210.279471 
L 334.757197 210.279471 
L 336.011403 256.123702 
L 472.71993 256.123702 
L 473.974137 210.279471 
L 524.142403 210.279471 
L 525.39661 256.123702 
L 662.105137 256.123702 
L 663.359343 210.279471 
L 713.52761 210.279471 
L 714.781817 256.123702 
L 796.30525 256.123702 
L 796.30525 256.123702 
" clip-path="url(#p96231638bc)" style="fill: none; stroke: #8c564b; stroke-width: 2; stroke-linecap: square"/>
   </g>
   <g id="line2d_31">
    <path d="M 43.78125 256.123702 
L 156.65985 256.123702 
L 157.914057 118.59101 
L 220.62439 118.59101 
L 221.878597 256.123702 
L 346.045057 256.123702 
L 347.299263 118.59101 
L 410.009597 118.59101 
L 411.263803 256.123702 
L 535.430263 256.123702 
L 536.68447 118.59101 
L 599.394803 118.59101 
L 600.64901 256.123702 
L 724.81547 256.123702 
L 726.069677 118.59101 
L 788.78001 118.59101 
L 790.034217 256.123702 
L 796.30525 256.123702 
L 796.30525 256.123702 
" clip-path="url(#p96231638bc)" style="fill: none; stroke: #e377c2; stroke-width: 2; stroke-linecap: square"/>
   </g>
   <g id="line2d_32">
    <path d="M 43.78125 26.902548 
L 45.035457 72.746779 
L 82.661657 72.746779 
L 83.915863 26.902548 
L 93.949517 26.902548 
L 95.203723 118.59101 
L 145.37199 118.59101 
L 146.626197 26.902548 
L 156.65985 26.902548 
L 157.914057 210.279471 
L 220.62439 210.279471 
L 221.878597 26.902548 
L 233.166457 26.902548 
L 234.420663 72.746779 
L 272.046863 72.746779 
L 273.30107 26.902548 
L 283.334723 26.902548 
L 284.58893 118.59101 
L 334.757197 118.59101 
L 336.011403 26.902548 
L 346.045057 26.902548 
L 347.299263 210.279471 
L 410.009597 210.279471 
L 411.263803 26.902548 
L 422.551663 26.902548 
L 423.80587 72.746779 
L 461.43207 72.746779 
L 462.686277 26.902548 
L 472.71993 26.902548 
L 473.974137 118.59101 
L 524.142403 118.59101 
L 525.39661 26.902548 
L 535.430263 26.902548 
L 536.68447 210.279471 
L 599.394803 210.279471 
L 600.64901 26.902548 
L 611.93687 26.902548 
L 613.191077 72.746779 
L 650.817277 72.746779 
L 652.071483 26.902548 
L 662.105137 26.902548 
L 663.359343 118.59101 
L 713.52761 118.59101 
L 714.781817 26.902548 
L 724.81547 26.902548 
L 726.069677 210.279471 
L 788.78001 210.279471 
L 790.034217 26.902548 
L 796.30525 26.902548 
L 796.30525 26.902548 
" clip-path="url(#p96231638bc)" style="fill: none; stroke: #bcbd22; stroke-width: 2; stroke-linecap: square"/>
   </g>
   <g id="line2d_33">
    <path d="M 43.78125 256.123702 
L 45.035457 210.279471 
L 82.661657 210.279471 
L 83.915863 256.123702 
L 233.166457 256.123702 
L 234.420663 210.279471 
L 272.046863 210.279471 
L 273.30107 256.123702 
L 422.551663 256.123702 
L 423.80587 210.279471 
L 461.43207 210.279471 
L 462.686277 256.123702 
L 611.93687 256.123702 
L 613.191077 210.279471 
L 650.817277 210.279471 
L 652.071483 256.123702 
L 796.30525 256.123702 
L 796.30525 256.123702 
" clip-path="url(#p96231638bc)" style="fill: none; stroke: #17becf; stroke-width: 2; stroke-linecap: square"/>
   </g>
   <g id="patch_3">
    <path d="M 43.78125 260.708125 
L 43.78125 22.318125 
" style="fill: none; stroke: #000000; stroke-width: 0.8; stroke-linejoin: miter; stroke-linecap: square"/>
   </g>
   <g id="patch_4">
    <path d="M 796.30525 260.708125 
L 796.30525 22.318125 
" style="fill: none; stroke: #000000; stroke-width: 0.8; stroke-linejoin: miter; stroke-linecap: square"/>
   </g>
   <g id="patch_5">
    <path d="M 43.78125 260.708125 
L 796.30525 260.708125 
" style="fill: none; stroke: #000000; stroke-width: 0.8; stroke-linejoin: miter; stroke-linecap: square"/>
   </g>
   <g id="patch_6">
    <path d="M 43.78125 22.318125 
L 796.30525 22.318125 
" style="fill: none; stroke: #000000; stroke-width: 0.8; stroke-linejoin: miter; stroke-linecap: square"/>
   </g>
   <g id="text_8">
    <!-- Inlet Composition Program -->
    <g transform="translate(340.162625 16.318125) scale(0.12 -0.12)">
     <defs>
      <path id="DejaVuSans-49" d="M 628 4666 
L 1259 4666 
L 1259 0 
L 628 0 
L 628 4666 
z
" transform="scale(0.015625)"/>
      <path id="DejaVuSans-43" d="M 4122 4306 
L 4122 3641 
Q 3803 3938 3442 4084 
Q 3081 4231 2675 4231 
Q 1875 4231 1450 3742 
Q 1025 3253 1025 2328 
Q 1025 1406 1450 917 
Q 1875 428 2675 428 
Q 3081 428 3442 575 
Q 3803 722 4122 1019 
L 4122 359 
Q 3791 134 3420 21 
Q 3050 -91 2638 -91 
Q 1578 -91 968 557 
Q 359 1206 359 2328 
Q 359 3453 968 4101 
Q 1578 4750 2638 4750 
Q 3056 4750 3426 4639 
Q 3797 4528 4122 4306 
z
" transform="scale(0.015625)"/>
      <path id="DejaVuSans-6d" d="M 3328 2828 
Q 3544 3216 3844 3400 
Q 4144 3584 4550 3584 
Q 5097 3584 5394 3201 
Q 5691 2819 5691 2113 
L 5691 0 
L 5113 0 
L 5113 2094 
Q 5113 2597 4934 2840 
Q 4756 3084 4391 3084 
Q 3944 3084 3684 2787 
Q 3425 2491 3425 1978 
L 3425 0 
L 2847 0 
L 2847 2094 
Q 2847 2600 2669 2842 
Q 2491 3084 2119 3084 
Q 1678 3084 1418 2786 
Q 1159 2488 1159 1978 
L 1159 0 
L 581 0 
L 581 3500 
L 1159 3500 
L 1159 2956 
Q 1356 3278 1631 3431 
Q 1906 3584 2284 3584 
Q 2666 3584 2933 3390 
Q 3200 3197 3328 2828 
z
" transform="scale(0.015625)"/>
      <path id="DejaVuSans-70" d="M 1159 525 
L 1159 -1331 
L 581 -1331 
L 581 3500 
L 1159 3500 
L 1159 2969 
Q 1341 3281 1617 3432 
Q 1894 3584 2278 3584 
Q 2916 3584 3314 3078 
Q 3713 2572 3713 1747 
Q 3713 922 3314 415 
Q 2916 -91 2278 -91 
Q 1894 -91 1617 61 
Q 1341 213 1159 525 
z
M 3116 1747 
Q 3116 2381 2855 2742 
Q 2594 3103 2138 3103 
Q 1681 3103 1420 2742 
Q 1159 2381 1159 1747 
Q 1159 1113 1420 752 
Q 1681 391 2138 391 
Q 2594 391 2855 752 
Q 3116 1113 3116 1747 
z
" transform="scale(0.015625)"/>
      <path id="DejaVuSans-73" d="M 2834 3397 
L 2834 2853 
Q 2591 2978 2328 3040 
Q 2066 3103 1784 3103 
Q 1356 3103 1142 2972 
Q 928 2841 928 2578 
Q 928 2378 1081 2264 
Q 1234 2150 1697 2047 
L 1894 2003 
Q 2506 1872 2764 1633 
Q 3022 1394 3022 966 
Q 3022 478 2636 193 
Q 2250 -91 1575 -91 
Q 1294 -91 989 -36 
Q 684 19 347 128 
L 347 722 
Q 666 556 975 473 
Q 1284 391 1588 391 
Q 1994 391 2212 530 
Q 2431 669 2431 922 
Q 2431 1156 2273 1281 
Q 2116 1406 1581 1522 
L 1381 1569 
Q 847 1681 609 1914 
Q 372 2147 372 2553 
Q 372 3047 722 3315 
Q 1072 3584 1716 3584 
Q 2034 3584 2315 3537 
Q 2597 3491 2834 3397 
z
" transform="scale(0.015625)"/>
      <path id="DejaVuSans-50" d="M 1259 4147 
L 1259 2394 
L 2053 2394 
Q 2494 2394 2734 2622 
Q 2975 2850 2975 3272 
Q 2975 3691 2734 3919 
Q 2494 4147 2053 4147 
L 1259 4147 
z
M 628 4666 
L 2053 4666 
Q 2838 4666 3239 4311 
Q 3641 3956 3641 3272 
Q 3641 2581 3239 2228 
Q 2838 1875 2053 1875 
L 1259 1875 
L 1259 0 
L 628 0 
L 628 4666 
z
" transform="scale(0.015625)"/>
      <path id="DejaVuSans-67" d="M 2906 1791 
Q 2906 2416 2648 2759 
Q 2391 3103 1925 3103 
Q 1463 3103 1205 2759 
Q 947 2416 947 1791 
Q 947 1169 1205 825 
Q 1463 481 1925 481 
Q 2391 481 2648 825 
Q 2906 1169 2906 1791 
z
M 3481 434 
Q 3481 -459 3084 -895 
Q 2688 -1331 1869 -1331 
Q 1566 -1331 1297 -1286 
Q 1028 -1241 775 -1147 
L 775 -588 
Q 1028 -725 1275 -790 
Q 1522 -856 1778 -856 
Q 2344 -856 2625 -561 
Q 2906 -266 2906 331 
L 2906 616 
Q 2728 306 2450 153 
Q 2172 0 1784 0 
Q 1141 0 747 490 
Q 353 981 353 1791 
Q 353 2603 747 3093 
Q 1141 3584 1784 3584 
Q 2172 3584 2450 3431 
Q 2728 3278 2906 2969 
L 2906 3500 
L 3481 3500 
L 3481 434 
z
" transform="scale(0.015625)"/>
     </defs>
     <use xlink:href="#DejaVuSans-49"/>
     <use xlink:href="#DejaVuSans-6e" transform="translate(29.492188 0)"/>
     <use xlink:href="#DejaVuSans-6c" transform="translate(92.871094 0)"/>
     <use xlink:href="#DejaVuSans-65" transform="translate(120.654297 0)"/>
     <use xlink:href="#DejaVuSans-74" transform="translate(182.177734 0)"/>
     <use xlink:href="#DejaVuSans-20" transform="translate(221.386719 0)"/>
     <use xlink:href="#DejaVuSans-43" transform="translate(253.173828 0)"/>
     <use xlink:href="#DejaVuSans-6f" transform="translate(322.998047 0)"/>
     <use xlink:href="#DejaVuSans-6d" transform="translate(384.179688 0)"/>
     <use xlink:href="#DejaVuSans-70" transform="translate(481.591797 0)"/>
     <use xlink:href="#DejaVuSans-6f" transform="translate(545.068359 0)"/>
     <use xlink:href="#DejaVuSans-73" transform="translate(606.25 0)"/>
     <use xlink:href="#DejaVuSans-69" transform="translate(658.349609 0)"/>
     <use xlink:href="#DejaVuSans-74" transform="translate(686.132812 0)"/>
     <use xlink:href="#DejaVuSans-69" transform="translate(725.341797 0)"/>
     <use xlink:href="#DejaVuSans-6f" transform="translate(753.125 0)"/>
     <use xlink:href="#DejaVuSans-6e" transform="translate(814.306641 0)"/>
     <use xlink:href="#DejaVuSans-20" transform="translate(877.685547 0)"/>
     <use xlink:href="#DejaVuSans-50" transform="translate(909.472656 0)"/>
     <use xlink:href="#DejaVuSans-72" transform="translate(968.025391 0)"/>
     <use xlink:href="#DejaVuSans-6f" transform="translate(1006.888672 0)"/>
     <use xlink:href="#DejaVuSans-67" transform="translate(1068.070312 0)"/>
     <use xlink:href="#DejaVuSans-72" transform="translate(1131.546875 0)"/>
     <use xlink:href="#DejaVuSans-61" transform="translate(1172.660156 0)"/>
     <use xlink:href="#DejaVuSans-6d" transform="translate(1233.939453 0)"/>
    </g>
   </g>
   <g id="legend_1">
    <g id="patch_7">
     <path d="M 805.43049 106.915625 
L 848.43424 106.915625 
Q 850.03424 106.915625 850.03424 105.315625 
L 850.03424 23.918125 
Q 850.03424 22.318125 848.43424 22.318125 
L 805.43049 22.318125 
Q 803.83049 22.318125 803.83049 23.918125 
L 803.83049 105.315625 
Q 803.83049 106.915625 805.43049 106.915625 
z
" style="fill: #ffffff; opacity: 0.8; stroke: #cccccc; stroke-linejoin: miter"/>
    </g>
    <g id="line2d_34">
     <path d="M 807.03049 28.796875 
L 815.03049 28.796875 
L 823.03049 28.796875 
" style="fill: none; stroke: #1f77b4; stroke-width: 2; stroke-linecap: square"/>
    </g>
    <g id="text_9">
     <!-- CH4 -->
     <g transform="translate(829.43049 31.596875) scale(0.08 -0.08)">
      <defs>
       <path id="DejaVuSans-48" d="M 628 4666 
L 1259 4666 
L 1259 2753 
L 3553 2753 
L 3553 4666 
L 4184 4666 
L 4184 0 
L 3553 0 
L 3553 2222 
L 1259 2222 
L 1259 0 
L 628 0 
L 628 4666 
z
" transform="scale(0.015625)"/>
      </defs>
      <use xlink:href="#DejaVuSans-43"/>
      <use xlink:href="#DejaVuSans-48" transform="translate(69.824219 0)"/>
      <use xlink:href="#DejaVuSans-34" transform="translate(145.019531 0)"/>
     </g>
    </g>
    <g id="line2d_35">
     <path d="M 807.03049 40.539375 
L 815.03049 40.539375 
L 823.03049 40.539375 
" style="fill: none; stroke: #ff7f0e; stroke-width: 2; stroke-linecap: square"/>
    </g>
    <g id="text_10">
     <!-- CO -->
     <g transform="translate(829.43049 43.339375) scale(0.08 -0.08)">
      <defs>
       <path id="DejaVuSans-4f" d="M 2522 4238 
Q 1834 4238 1429 3725 
Q 1025 3213 1025 2328 
Q 1025 1447 1429 934 
Q 1834 422 2522 422 
Q 3209 422 3611 934 
Q 4013 1447 4013 2328 
Q 4013 3213 3611 3725 
Q 3209 4238 2522 4238 
z
M 2522 4750 
Q 3503 4750 4090 4092 
Q 4678 3434 4678 2328 
Q 4678 1225 4090 567 
Q 3503 -91 2522 -91 
Q 1538 -91 948 565 
Q 359 1222 359 2328 
Q 359 3434 948 4092 
Q 1538 4750 2522 4750 
z
" transform="scale(0.015625)"/>
      </defs>
      <use xlink:href="#DejaVuSans-43"/>
      <use xlink:href="#DejaVuSans-4f" transform="translate(69.824219 0)"/>
     </g>
    </g>
    <g id="line2d_36">
     <path d="M 807.03049 52.281875 
L 815.03049 52.281875 
L 823.03049 52.281875 
" style="fill: none; stroke: #d62728; stroke-width: 2; stroke-linecap: square"/>
    </g>
    <g id="text_11">
     <!-- CO2 -->
     <g transform="translate(829.43049 55.081875) scale(0.08 -0.08)">
      <use xlink:href="#DejaVuSans-43"/>
      <use xlink:href="#DejaVuSans-4f" transform="translate(69.824219 0)"/>
      <use xlink:href="#DejaVuSans-32" transform="translate(148.535156 0)"/>
     </g>
    </g>
    <g id="line2d_37">
     <path d="M 807.03049 64.024375 
L 815.03049 64.024375 
L 823.03049 64.024375 
" style="fill: none; stroke: #8c564b; stroke-width: 2; stroke-linecap: square"/>
    </g>
    <g id="text_12">
     <!-- H2 -->
     <g transform="translate(829.43049 66.824375) scale(0.08 -0.08)">
      <use xlink:href="#DejaVuSans-48"/>
      <use xlink:href="#DejaVuSans-32" transform="translate(75.195312 0)"/>
     </g>
    </g>
    <g id="line2d_38">
     <path d="M 807.03049 75.766875 
L 815.03049 75.766875 
L 823.03049 75.766875 
" style="fill: none; stroke: #e377c2; stroke-width: 2; stroke-linecap: square"/>
    </g>
    <g id="text_13">
     <!-- H2O -->
     <g transform="translate(829.43049 78.566875) scale(0.08 -0.08)">
      <use xlink:href="#DejaVuSans-48"/>
      <use xlink:href="#DejaVuSans-32" transform="translate(75.195312 0)"/>
      <use xlink:href="#DejaVuSans-4f" transform="translate(138.818359 0)"/>
     </g>
    </g>
    <g id="line2d_39">
     <path d="M 807.03049 87.509375 
L 815.03049 87.509375 
L 823.03049 87.509375 
" style="fill: none; stroke: #bcbd22; stroke-width: 2; stroke-linecap: square"/>
    </g>
    <g id="text_14">
     <!-- N2 -->
     <g transform="translate(829.43049 90.309375) scale(0.08 -0.08)">
      <defs>
       <path id="DejaVuSans-4e" d="M 628 4666 
L 1478 4666 
L 3547 763 
L 3547 4666 
L 4159 4666 
L 4159 0 
L 3309 0 
L 1241 3903 
L 1241 0 
L 628 0 
L 628 4666 
z
" transform="scale(0.015625)"/>
      </defs>
      <use xlink:href="#DejaVuSans-4e"/>
      <use xlink:href="#DejaVuSans-32" transform="translate(74.804688 0)"/>
     </g>
    </g>
    <g id="line2d_40">
     <path d="M 807.03049 99.251875 
L 815.03049 99.251875 
L 823.03049 99.251875 
" style="fill: none; stroke: #17becf; stroke-width: 2; stroke-linecap: square"/>
    </g>
    <g id="text_15">
     <!-- O2 -->
     <g transform="translate(829.43049 102.051875) scale(0.08 -0.08)">
      <use xlink:href="#DejaVuSans-4f"/>
      <use xlink:href="#DejaVuSans-32" transform="translate(78.710938 0)"/>
     </g>
    </g>
   </g>
  </g>
  <g id="axes_2">
   <g id="patch_8">
    <path d="M 43.78125 529.478125 
L 796.30525 529.478125 
L 796.30525 291.088125 
L 43.78125 291.088125 
z
" style="fill: #ffffff"/>
   </g>
   <g id="matplotlib.axis_3">
    <g id="xtick_8">
     <g id="line2d_41">
      <path d="M 43.78125 529.478125 
L 43.78125 291.088125 
" clip-path="url(#p7727091a26)" style="fill: none; stroke: #b0b0b0; stroke-opacity: 0.3; stroke-width: 0.8; stroke-linecap: square"/>
     </g>
     <g id="line2d_42">
      <g>
       <use xlink:href="#maf6a36384d" x="43.78125" y="529.478125" style="stroke: #000000; stroke-width: 0.8"/>
      </g>
     </g>
     <g id="text_16">
      <!-- 0 -->
      <g transform="translate(40.6 544.076562) scale(0.1 -0.1)">
       <use xlink:href="#DejaVuSans-30"/>
      </g>
     </g>
    </g>
    <g id="xtick_9">
     <g id="line2d_43">
      <path d="M 169.201917 529.478125 
L 169.201917 291.088125 
" clip-path="url(#p7727091a26)" style="fill: none; stroke: #b0b0b0; stroke-opacity: 0.3; stroke-width: 0.8; stroke-linecap: square"/>
     </g>
     <g id="line2d_44">
      <g>
       <use xlink:href="#maf6a36384d" x="169.201917" y="529.478125" style="stroke: #000000; stroke-width: 0.8"/>
      </g>
     </g>
     <g id="text_17">
      <!-- 500 -->
      <g transform="translate(159.658167 544.076562) scale(0.1 -0.1)">
       <defs>
        <path id="DejaVuSans-35" d="M 691 4666 
L 3169 4666 
L 3169 4134 
L 1269 4134 
L 1269 2991 
Q 1406 3038 1543 3061 
Q 1681 3084 1819 3084 
Q 2600 3084 3056 2656 
Q 3513 2228 3513 1497 
Q 3513 744 3044 326 
Q 2575 -91 1722 -91 
Q 1428 -91 1123 -41 
Q 819 9 494 109 
L 494 744 
Q 775 591 1075 516 
Q 1375 441 1709 441 
Q 2250 441 2565 725 
Q 2881 1009 2881 1497 
Q 2881 1984 2565 2268 
Q 2250 2553 1709 2553 
Q 1456 2553 1204 2497 
Q 953 2441 691 2322 
L 691 4666 
z
" transform="scale(0.015625)"/>
       </defs>
       <use xlink:href="#DejaVuSans-35"/>
       <use xlink:href="#DejaVuSans-30" transform="translate(63.623047 0)"/>
       <use xlink:href="#DejaVuSans-30" transform="translate(127.246094 0)"/>
      </g>
     </g>
    </g>
    <g id="xtick_10">
     <g id="line2d_45">
      <path d="M 294.622583 529.478125 
L 294.622583 291.088125 
" clip-path="url(#p7727091a26)" style="fill: none; stroke: #b0b0b0; stroke-opacity: 0.3; stroke-width: 0.8; stroke-linecap: square"/>
     </g>
     <g id="line2d_46">
      <g>
       <use xlink:href="#maf6a36384d" x="294.622583" y="529.478125" style="stroke: #000000; stroke-width: 0.8"/>
      </g>
     </g>
     <g id="text_18">
      <!-- 1000 -->
      <g transform="translate(281.897583 544.076562) scale(0.1 -0.1)">
       <use xlink:href="#DejaVuSans-31"/>
       <use xlink:href="#DejaVuSans-30" transform="translate(63.623047 0)"/>
       <use xlink:href="#DejaVuSans-30" transform="translate(127.246094 0)"/>
       <use xlink:href="#DejaVuSans-30" transform="translate(190.869141 0)"/>
      </g>
     </g>
    </g>
    <g id="xtick_11">
     <g id="line2d_47">
      <path d="M 420.04325 529.478125 
L 420.04325 291.088125 
" clip-path="url(#p7727091a26)" style="fill: none; stroke: #b0b0b0; stroke-opacity: 0.3; stroke-width: 0.8; stroke-linecap: square"/>
     </g>
     <g id="line2d_48">
      <g>
       <use xlink:href="#maf6a36384d" x="420.04325" y="529.478125" style="stroke: #000000; stroke-width: 0.8"/>
      </g>
     </g>
     <g id="text_19">
      <!-- 1500 -->
      <g transform="translate(407.31825 544.076562) scale(0.1 -0.1)">
       <use xlink:href="#DejaVuSans-31"/>
       <use xlink:href="#DejaVuSans-35" transform="translate(63.623047 0)"/>
       <use xlink:href="#DejaVuSans-30" transform="translate(127.246094 0)"/>
       <use xlink:href="#DejaVuSans-30" transform="translate(190.869141 0)"/>
      </g>
     </g>
    </g>
    <g id="xtick_12">
     <g id="line2d_49">
      <path d="M 545.463917 529.478125 
L 545.463917 291.088125 
" clip-path="url(#p7727091a26)" style="fill: none; stroke: #b0b0b0; stroke-opacity: 0.3; stroke-width: 0.8; stroke-linecap: square"/>
     </g>
     <g id="line2d_50">
      <g>
       <use xlink:href="#maf6a36384d" x="545.463917" y="529.478125" style="stroke: #000000; stroke-width: 0.8"/>
      </g>
     </g>
     <g id="text_20">
      <!-- 2000 -->
      <g transform="translate(532.738917 544.076562) scale(0.1 -0.1)">
       <use xlink:href="#DejaVuSans-32"/>
       <use xlink:href="#DejaVuSans-30" transform="translate(63.623047 0)"/>
       <use xlink:href="#DejaVuSans-30" transform="translate(127.246094 0)"/>
       <use xlink:href="#DejaVuSans-30" transform="translate(190.869141 0)"/>
      </g>
     </g>
    </g>
    <g id="xtick_13">
     <g id="line2d_51">
      <path d="M 670.884583 529.478125 
L 670.884583 291.088125 
" clip-path="url(#p7727091a26)" style="fill: none; stroke: #b0b0b0; stroke-opacity: 0.3; stroke-width: 0.8; stroke-linecap: square"/>
     </g>
     <g id="line2d_52">
      <g>
       <use xlink:href="#maf6a36384d" x="670.884583" y="529.478125" style="stroke: #000000; stroke-width: 0.8"/>
      </g>
     </g>
     <g id="text_21">
      <!-- 2500 -->
      <g transform="translate(658.159583 544.076562) scale(0.1 -0.1)">
       <use xlink:href="#DejaVuSans-32"/>
       <use xlink:href="#DejaVuSans-35" transform="translate(63.623047 0)"/>
       <use xlink:href="#DejaVuSans-30" transform="translate(127.246094 0)"/>
       <use xlink:href="#DejaVuSans-30" transform="translate(190.869141 0)"/>
      </g>
     </g>
    </g>
    <g id="xtick_14">
     <g id="line2d_53">
      <path d="M 796.30525 529.478125 
L 796.30525 291.088125 
" clip-path="url(#p7727091a26)" style="fill: none; stroke: #b0b0b0; stroke-opacity: 0.3; stroke-width: 0.8; stroke-linecap: square"/>
     </g>
     <g id="line2d_54">
      <g>
       <use xlink:href="#maf6a36384d" x="796.30525" y="529.478125" style="stroke: #000000; stroke-width: 0.8"/>
      </g>
     </g>
     <g id="text_22">
      <!-- 3000 -->
      <g transform="translate(783.58025 544.076562) scale(0.1 -0.1)">
       <defs>
        <path id="DejaVuSans-33" d="M 2597 2516 
Q 3050 2419 3304 2112 
Q 3559 1806 3559 1356 
Q 3559 666 3084 287 
Q 2609 -91 1734 -91 
Q 1441 -91 1130 -33 
Q 819 25 488 141 
L 488 750 
Q 750 597 1062 519 
Q 1375 441 1716 441 
Q 2309 441 2620 675 
Q 2931 909 2931 1356 
Q 2931 1769 2642 2001 
Q 2353 2234 1838 2234 
L 1294 2234 
L 1294 2753 
L 1863 2753 
Q 2328 2753 2575 2939 
Q 2822 3125 2822 3475 
Q 2822 3834 2567 4026 
Q 2313 4219 1838 4219 
Q 1578 4219 1281 4162 
Q 984 4106 628 3988 
L 628 4550 
Q 988 4650 1302 4700 
Q 1616 4750 1894 4750 
Q 2613 4750 3031 4423 
Q 3450 4097 3450 3541 
Q 3450 3153 3228 2886 
Q 3006 2619 2597 2516 
z
" transform="scale(0.015625)"/>
       </defs>
       <use xlink:href="#DejaVuSans-33"/>
       <use xlink:href="#DejaVuSans-30" transform="translate(63.623047 0)"/>
       <use xlink:href="#DejaVuSans-30" transform="translate(127.246094 0)"/>
       <use xlink:href="#DejaVuSans-30" transform="translate(190.869141 0)"/>
      </g>
     </g>
    </g>
    <g id="text_23">
     <!-- Time [s] -->
     <g transform="translate(399.714344 557.754687) scale(0.1 -0.1)">
      <defs>
       <path id="DejaVuSans-54" d="M -19 4666 
L 3928 4666 
L 3928 4134 
L 2272 4134 
L 2272 0 
L 1638 0 
L 1638 4134 
L -19 4134 
L -19 4666 
z
" transform="scale(0.015625)"/>
      </defs>
      <use xlink:href="#DejaVuSans-54"/>
      <use xlink:href="#DejaVuSans-69" transform="translate(57.958984 0)"/>
      <use xlink:href="#DejaVuSans-6d" transform="translate(85.742188 0)"/>
      <use xlink:href="#DejaVuSans-65" transform="translate(183.154297 0)"/>
      <use xlink:href="#DejaVuSans-20" transform="translate(244.677734 0)"/>
      <use xlink:href="#DejaVuSans-5b" transform="translate(276.464844 0)"/>
      <use xlink:href="#DejaVuSans-73" transform="translate(315.478516 0)"/>
      <use xlink:href="#DejaVuSans-5d" transform="translate(367.578125 0)"/>
     </g>
    </g>
   </g>
   <g id="matplotlib.axis_4">
    <g id="ytick_7">
     <g id="line2d_55">
      <path d="M 43.78125 524.893702 
L 796.30525 524.893702 
" clip-path="url(#p7727091a26)" style="fill: none; stroke: #b0b0b0; stroke-opacity: 0.3; stroke-width: 0.8; stroke-linecap: square"/>
     </g>
     <g id="line2d_56">
      <g>
       <use xlink:href="#mb8c4a1a0d2" x="43.78125" y="524.893702" style="stroke: #000000; stroke-width: 0.8"/>
      </g>
     </g>
     <g id="text_24">
      <!-- 0.0 -->
      <g transform="translate(20.878125 528.692921) scale(0.1 -0.1)">
       <use xlink:href="#DejaVuSans-30"/>
       <use xlink:href="#DejaVuSans-2e" transform="translate(63.623047 0)"/>
       <use xlink:href="#DejaVuSans-30" transform="translate(95.410156 0)"/>
      </g>
     </g>
    </g>
    <g id="ytick_8">
     <g id="line2d_57">
      <path d="M 43.78125 479.049471 
L 796.30525 479.049471 
" clip-path="url(#p7727091a26)" style="fill: none; stroke: #b0b0b0; stroke-opacity: 0.3; stroke-width: 0.8; stroke-linecap: square"/>
     </g>
     <g id="line2d_58">
      <g>
       <use xlink:href="#mb8c4a1a0d2" x="43.78125" y="479.049471" style="stroke: #000000; stroke-width: 0.8"/>
      </g>
     </g>
     <g id="text_25">
      <!-- 0.2 -->
      <g transform="translate(20.878125 482.84869) scale(0.1 -0.1)">
       <use xlink:href="#DejaVuSans-30"/>
       <use xlink:href="#DejaVuSans-2e" transform="translate(63.623047 0)"/>
       <use xlink:href="#DejaVuSans-32" transform="translate(95.410156 0)"/>
      </g>
     </g>
    </g>
    <g id="ytick_9">
     <g id="line2d_59">
      <path d="M 43.78125 433.20524 
L 796.30525 433.20524 
" clip-path="url(#p7727091a26)" style="fill: none; stroke: #b0b0b0; stroke-opacity: 0.3; stroke-width: 0.8; stroke-linecap: square"/>
     </g>
     <g id="line2d_60">
      <g>
       <use xlink:href="#mb8c4a1a0d2" x="43.78125" y="433.20524" style="stroke: #000000; stroke-width: 0.8"/>
      </g>
     </g>
     <g id="text_26">
      <!-- 0.4 -->
      <g transform="translate(20.878125 437.004459) scale(0.1 -0.1)">
       <use xlink:href="#DejaVuSans-30"/>
       <use xlink:href="#DejaVuSans-2e" transform="translate(63.623047 0)"/>
       <use xlink:href="#DejaVuSans-34" transform="translate(95.410156 0)"/>
      </g>
     </g>
    </g>
    <g id="ytick_10">
     <g id="line2d_61">
      <path d="M 43.78125 387.36101 
L 796.30525 387.36101 
" clip-path="url(#p7727091a26)" style="fill: none; stroke: #b0b0b0; stroke-opacity: 0.3; stroke-width: 0.8; stroke-linecap: square"/>
     </g>
     <g id="line2d_62">
      <g>
       <use xlink:href="#mb8c4a1a0d2" x="43.78125" y="387.36101" style="stroke: #000000; stroke-width: 0.8"/>
      </g>
     </g>
     <g id="text_27">
      <!-- 0.6 -->
      <g transform="translate(20.878125 391.160228) scale(0.1 -0.1)">
       <use xlink:href="#DejaVuSans-30"/>
       <use xlink:href="#DejaVuSans-2e" transform="translate(63.623047 0)"/>
       <use xlink:href="#DejaVuSans-36" transform="translate(95.410156 0)"/>
      </g>
     </g>
    </g>
    <g id="ytick_11">
     <g id="line2d_63">
      <path d="M 43.78125 341.516779 
L 796.30525 341.516779 
" clip-path="url(#p7727091a26)" style="fill: none; stroke: #b0b0b0; stroke-opacity: 0.3; stroke-width: 0.8; stroke-linecap: square"/>
     </g>
     <g id="line2d_64">
      <g>
       <use xlink:href="#mb8c4a1a0d2" x="43.78125" y="341.516779" style="stroke: #000000; stroke-width: 0.8"/>
      </g>
     </g>
     <g id="text_28">
      <!-- 0.8 -->
      <g transform="translate(20.878125 345.315998) scale(0.1 -0.1)">
       <use xlink:href="#DejaVuSans-30"/>
       <use xlink:href="#DejaVuSans-2e" transform="translate(63.623047 0)"/>
       <use xlink:href="#DejaVuSans-38" transform="translate(95.410156 0)"/>
      </g>
     </g>
    </g>
    <g id="ytick_12">
     <g id="line2d_65">
      <path d="M 43.78125 295.672548 
L 796.30525 295.672548 
" clip-path="url(#p7727091a26)" style="fill: none; stroke: #b0b0b0; stroke-opacity: 0.3; stroke-width: 0.8; stroke-linecap: square"/>
     </g>
     <g id="line2d_66">
      <g>
       <use xlink:href="#mb8c4a1a0d2" x="43.78125" y="295.672548" style="stroke: #000000; stroke-width: 0.8"/>
      </g>
     </g>
     <g id="text_29">
      <!-- 1.0 -->
      <g transform="translate(20.878125 299.471767) scale(0.1 -0.1)">
       <use xlink:href="#DejaVuSans-31"/>
       <use xlink:href="#DejaVuSans-2e" transform="translate(63.623047 0)"/>
       <use xlink:href="#DejaVuSans-30" transform="translate(95.410156 0)"/>
      </g>
     </g>
    </g>
    <g id="text_30">
     <!-- Mole fraction [-] -->
     <g transform="translate(14.798438 450.212031) rotate(-90) scale(0.1 -0.1)">
      <use xlink:href="#DejaVuSans-4d"/>
      <use xlink:href="#DejaVuSans-6f" transform="translate(86.279297 0)"/>
      <use xlink:href="#DejaVuSans-6c" transform="translate(147.460938 0)"/>
      <use xlink:href="#DejaVuSans-65" transform="translate(175.244141 0)"/>
      <use xlink:href="#DejaVuSans-20" transform="translate(236.767578 0)"/>
      <use xlink:href="#DejaVuSans-66" transform="translate(268.554688 0)"/>
      <use xlink:href="#DejaVuSans-72" transform="translate(303.759766 0)"/>
      <use xlink:href="#DejaVuSans-61" transform="translate(344.873047 0)"/>
      <use xlink:href="#DejaVuSans-63" transform="translate(406.152344 0)"/>
      <use xlink:href="#DejaVuSans-74" transform="translate(461.132812 0)"/>
      <use xlink:href="#DejaVuSans-69" transform="translate(500.341797 0)"/>
      <use xlink:href="#DejaVuSans-6f" transform="translate(528.125 0)"/>
      <use xlink:href="#DejaVuSans-6e" transform="translate(589.306641 0)"/>
      <use xlink:href="#DejaVuSans-20" transform="translate(652.685547 0)"/>
      <use xlink:href="#DejaVuSans-5b" transform="translate(684.472656 0)"/>
      <use xlink:href="#DejaVuSans-2d" transform="translate(723.486328 0)"/>
      <use xlink:href="#DejaVuSans-5d" transform="translate(759.570312 0)"/>
     </g>
    </g>
   </g>
   <g id="line2d_67">
    <path d="M 43.78125 524.893702 
L 157.914057 524.844266 
L 158.666581 524.12026 
L 159.419105 524.080481 
L 174.218743 524.573333 
L 189.770906 524.759476 
L 219.871866 524.856592 
L 311.679794 524.893702 
L 537.938677 524.783255 
L 558.507666 524.785721 
L 726.571359 524.779401 
L 727.323883 524.688874 
L 738.862585 524.707215 
L 796.30525 524.893702 
L 796.30525 524.893702 
" clip-path="url(#p7727091a26)" style="fill: none; stroke: #1f77b4; stroke-width: 2; stroke-linecap: square"/>
   </g>
   <g id="line2d_68">
    <path d="M 43.78125 524.893702 
L 140.606005 524.802393 
L 141.60937 524.648916 
L 144.368625 524.423618 
L 145.37199 524.127446 
L 146.375355 523.692577 
L 146.626197 523.80358 
L 147.629562 524.806147 
L 148.632927 524.881704 
L 156.409009 524.869154 
L 156.910691 524.781055 
L 157.161533 524.483787 
L 157.412374 523.338634 
L 157.663215 520.188756 
L 158.415739 505.910626 
L 158.666581 504.513324 
L 158.917422 504.039756 
L 159.419105 503.775125 
L 160.924153 503.528752 
L 166.191821 503.006994 
L 175.47295 502.313521 
L 187.764175 501.629019 
L 203.065497 501.006024 
L 218.617659 500.584196 
L 220.373549 500.652794 
L 220.875231 500.900261 
L 221.126073 501.420721 
L 221.376914 502.706278 
L 221.878597 507.992071 
L 222.881962 521.848729 
L 223.132803 523.398204 
L 223.383645 524.152593 
L 223.885327 524.646037 
L 224.637851 524.795628 
L 226.895423 524.869034 
L 240.440855 524.89358 
L 330.743735 524.793759 
L 334.506355 524.48774 
L 336.011403 524.108605 
L 337.014769 524.823693 
L 338.018134 524.883159 
L 346.045057 524.854966 
L 346.295898 524.802166 
L 346.546739 524.567208 
L 346.797581 523.556603 
L 347.048422 519.954308 
L 347.550105 506.487416 
L 347.800946 502.605532 
L 348.051787 500.948844 
L 348.302629 500.383901 
L 348.804311 500.113672 
L 350.058518 500.012125 
L 355.827869 499.971814 
L 391.447338 500.013827 
L 409.006231 500.18706 
L 410.009597 500.34147 
L 410.260438 500.50439 
L 410.511279 500.966 
L 410.762121 502.130341 
L 411.263803 507.191924 
L 412.267169 521.35444 
L 412.51801 523.116644 
L 412.768851 524.014064 
L 413.019693 524.427318 
L 413.521375 524.707836 
L 414.524741 524.825342 
L 418.287361 524.881337 
L 453.405147 524.893681 
L 519.125577 524.793502 
L 522.135673 524.329115 
L 523.389879 523.993514 
L 523.891562 523.711798 
L 524.393245 523.223391 
L 524.894927 522.711669 
L 525.145769 522.73954 
L 525.39661 523.045711 
L 526.149134 524.56744 
L 526.650817 524.833575 
L 528.155865 524.886088 
L 535.430263 524.845897 
L 535.681105 524.781618 
L 535.931946 524.518154 
L 536.182787 523.530154 
L 536.433629 520.62684 
L 537.186153 504.654583 
L 537.436994 502.581679 
L 537.687835 501.884711 
L 538.189518 501.584339 
L 539.443725 501.487983 
L 545.965599 501.451409 
L 599.143962 501.361516 
L 599.645645 501.57605 
L 599.896486 501.999487 
L 600.147327 503.075832 
L 600.64901 507.824655 
L 601.652375 521.375705 
L 601.903217 523.115668 
L 602.154058 524.013057 
L 602.404899 524.429444 
L 602.906582 524.711682 
L 603.909947 524.827555 
L 607.672567 524.881815 
L 644.044561 524.893687 
L 708.259942 524.802388 
L 709.514149 524.572744 
L 710.768355 524.367129 
L 712.273403 524.080892 
L 713.025927 523.764113 
L 713.52761 523.373513 
L 714.280134 522.577773 
L 714.530975 522.629054 
L 714.781817 522.966614 
L 715.534341 524.556095 
L 716.036023 524.832675 
L 717.29023 524.88454 
L 724.81547 524.847795 
L 725.066311 524.785137 
L 725.317153 524.529527 
L 725.567994 523.584486 
L 725.818835 520.842264 
L 726.571359 505.270178 
L 726.822201 503.15496 
L 727.073042 502.437002 
L 727.574725 502.128787 
L 728.828931 502.022535 
L 735.601647 501.922413 
L 786.773279 501.423894 
L 788.529169 501.516376 
L 789.030851 501.727349 
L 789.281693 502.145816 
L 789.532534 503.211268 
L 790.034217 507.920083 
L 791.037582 521.385659 
L 791.288423 523.11961 
L 791.539265 524.014896 
L 791.790106 524.430615 
L 792.291789 524.712359 
L 793.295154 524.827916 
L 796.30525 524.878752 
L 796.30525 524.878752 
" clip-path="url(#p7727091a26)" style="fill: none; stroke: #ff7f0e; stroke-width: 2; stroke-linecap: square"/>
   </g>
   <g id="line2d_69">
    <path d="M 43.78125 524.893702 
L 92.444469 524.80076 
L 93.447834 524.652067 
L 93.949517 524.359329 
L 94.200358 523.902091 
L 94.451199 522.543754 
L 94.702041 519.100278 
L 95.203723 505.592639 
L 95.956247 484.477098 
L 96.207089 481.456333 
L 96.45793 480.13982 
L 96.708771 479.617613 
L 97.210454 479.290516 
L 98.213819 479.140994 
L 101.223915 479.070237 
L 120.538698 479.051323 
L 140.606005 479.159214 
L 141.60937 479.321064 
L 143.866942 479.538922 
L 144.619466 479.750006 
L 145.121149 480.057887 
L 145.37199 480.362701 
L 145.622831 480.980657 
L 145.873673 482.564454 
L 146.124514 486.269659 
L 146.626197 499.924781 
L 147.127879 514.86882 
L 147.378721 519.976865 
L 147.629562 522.727131 
L 147.880403 523.904151 
L 148.131245 524.367403 
L 148.632927 524.661786 
L 149.636293 524.797911 
L 152.646389 524.849854 
L 155.656485 524.750511 
L 156.409009 524.560175 
L 156.65985 524.377221 
L 156.910691 523.922021 
L 157.161533 522.499863 
L 157.663215 516.029267 
L 157.914057 514.766133 
L 158.164898 514.843156 
L 159.168263 514.035261 
L 160.42247 514.052448 
L 190.52343 515.633501 
L 208.834847 516.262328 
L 220.875231 516.691062 
L 221.126073 516.873384 
L 221.376914 517.315906 
L 221.878597 519.125188 
L 222.881962 523.855237 
L 223.132803 524.383678 
L 223.634486 524.756451 
L 224.637851 524.860227 
L 229.905519 524.890576 
L 281.327993 524.826919 
L 282.833041 524.648854 
L 283.334723 524.349247 
L 283.585565 523.877544 
L 283.836406 522.471504 
L 284.087247 518.929067 
L 284.58893 505.257136 
L 285.341454 484.260124 
L 285.592295 481.339161 
L 285.843137 480.090994 
L 286.093978 479.599254 
L 286.595661 479.286232 
L 287.599026 479.140014 
L 290.609122 479.070095 
L 309.923905 479.051258 
L 330.492894 479.150418 
L 334.004673 479.53288 
L 334.506355 479.79792 
L 334.757197 480.070636 
L 335.008038 480.639898 
L 335.258879 482.135105 
L 335.509721 485.709242 
L 336.011403 499.232073 
L 336.763927 519.680892 
L 337.014769 522.583336 
L 337.26561 523.843752 
L 337.516451 524.342395 
L 338.018134 524.655408 
L 339.021499 524.796555 
L 342.031595 524.850039 
L 345.041691 524.752554 
L 345.794215 524.565334 
L 346.045057 524.385578 
L 346.295898 523.939515 
L 346.546739 522.539929 
L 347.048422 516.61677 
L 347.299263 516.876554 
L 347.550105 517.694041 
L 347.800946 517.633967 
L 348.302629 517.195915 
L 349.055153 517.10338 
L 353.570297 517.082784 
L 398.470895 517.004989 
L 410.260438 517.024113 
L 410.511279 517.172018 
L 410.762121 517.548349 
L 411.263803 519.184991 
L 412.267169 523.752646 
L 412.51801 524.320505 
L 413.019693 524.743036 
L 413.772217 524.84991 
L 417.283995 524.888107 
L 468.204786 524.872586 
L 471.716565 524.754947 
L 472.469089 524.559695 
L 472.71993 524.376512 
L 472.970771 523.945805 
L 473.221613 522.67644 
L 473.472454 519.41434 
L 473.974137 506.208209 
L 474.726661 484.876192 
L 474.977502 481.661746 
L 475.228343 480.230098 
L 475.479185 479.654918 
L 475.980867 479.298408 
L 476.984233 479.142343 
L 479.994329 479.070321 
L 499.05827 479.051367 
L 518.874735 479.144129 
L 520.128942 479.354302 
L 521.63399 479.58931 
L 522.888197 479.885324 
L 523.640721 480.306541 
L 524.142403 480.958103 
L 524.393245 481.66446 
L 524.644086 483.231352 
L 524.894927 486.681462 
L 525.39661 499.523457 
L 526.149134 519.344935 
L 526.399975 522.381029 
L 526.650817 523.754855 
L 526.901658 524.308967 
L 527.403341 524.65048 
L 528.406706 524.796367 
L 531.165961 524.850584 
L 534.426898 524.756303 
L 535.179422 524.58048 
L 535.430263 524.4154 
L 535.681105 524.014173 
L 535.931946 522.759454 
L 536.68447 515.153638 
L 537.186153 515.855886 
L 537.687835 515.798081 
L 538.691201 515.694797 
L 543.958869 515.671864 
L 577.571607 515.812251 
L 599.645645 515.989644 
L 599.896486 516.152041 
L 600.147327 516.565578 
L 600.64901 518.386571 
L 601.652375 523.554606 
L 601.903217 524.216701 
L 602.404899 524.716729 
L 603.157423 524.84337 
L 606.418361 524.886752 
L 652.573166 524.887155 
L 660.85093 524.782738 
L 661.603454 524.659146 
L 662.105137 524.383153 
L 662.355978 523.962188 
L 662.606819 522.72569 
L 662.857661 519.533055 
L 663.359343 506.451127 
L 664.111867 485.039637 
L 664.362709 481.752836 
L 664.61355 480.268491 
L 664.864391 479.670557 
L 665.366074 479.302052 
L 666.369439 479.143153 
L 669.128694 479.07234 
L 685.935063 479.051444 
L 708.259942 479.156231 
L 709.263307 479.324671 
L 710.517514 479.583289 
L 712.022562 479.883135 
L 712.775086 480.22296 
L 713.276769 480.676428 
L 713.52761 481.079154 
L 713.778451 481.789655 
L 714.029293 483.346121 
L 714.280134 486.752484 
L 714.781817 499.4742 
L 715.534341 519.269148 
L 715.785182 522.337446 
L 716.036023 523.735413 
L 716.286865 524.30098 
L 716.788547 524.648664 
L 717.791913 524.795939 
L 720.551167 524.850473 
L 723.812105 524.756183 
L 724.564629 524.580819 
L 724.81547 524.416667 
L 725.066311 524.018718 
L 725.317153 522.773418 
L 726.069677 514.755825 
L 726.320518 514.944155 
L 726.571359 515.315983 
L 726.822201 515.374974 
L 727.825566 515.229784 
L 731.337345 515.223916 
L 770.217751 515.619756 
L 789.030851 515.850588 
L 789.281693 516.01562 
L 789.532534 516.43516 
L 790.034217 518.283016 
L 791.037582 523.530841 
L 791.288423 524.204535 
L 791.790106 524.713816 
L 792.54263 524.842722 
L 795.803567 524.886745 
L 796.30525 524.887895 
L 796.30525 524.887895 
" clip-path="url(#p7727091a26)" style="fill: none; stroke: #d62728; stroke-width: 2; stroke-linecap: square"/>
   </g>
   <g id="line2d_70">
    <path d="M 43.78125 524.893702 
L 141.107687 524.798117 
L 145.37199 524.454674 
L 146.375355 524.089926 
L 146.626197 524.119925 
L 147.880403 524.850228 
L 149.887134 524.886814 
L 156.409009 524.793637 
L 156.65985 524.717033 
L 156.910691 524.455612 
L 157.161533 523.188345 
L 157.412374 517.654814 
L 157.663215 501.873966 
L 158.415739 428.768189 
L 158.666581 421.529215 
L 158.917422 419.171561 
L 159.168263 418.385862 
L 159.669946 417.876865 
L 160.42247 417.633769 
L 161.927518 417.464678 
L 165.690138 417.331106 
L 172.964537 417.315419 
L 185.004921 417.534932 
L 218.366818 418.450242 
L 219.621025 418.617601 
L 220.122707 418.798999 
L 220.373549 418.976647 
L 220.62439 419.312206 
L 220.875231 420.107534 
L 221.126073 422.39837 
L 221.376914 428.025317 
L 221.878597 451.120184 
L 222.881962 511.609199 
L 223.132803 518.370538 
L 223.383645 521.662016 
L 223.634486 523.139714 
L 223.885327 523.81453 
L 224.38701 524.345202 
L 225.139534 524.610497 
L 226.644582 524.774217 
L 230.407202 524.859318 
L 248.216937 524.893634 
L 332.248783 524.786428 
L 334.506355 524.617432 
L 336.011403 524.398075 
L 337.014769 524.851288 
L 338.770658 524.88939 
L 345.794215 524.824 
L 346.045057 524.769724 
L 346.295898 524.584069 
L 346.546739 523.681397 
L 346.797581 519.476692 
L 347.048422 505.702899 
L 347.800946 430.450627 
L 348.051787 423.050163 
L 348.302629 420.6008 
L 348.55347 419.784361 
L 349.055153 419.277614 
L 349.807677 419.060477 
L 351.312725 418.945647 
L 356.329551 418.894127 
L 408.504549 418.882796 
L 409.507914 419.10954 
L 409.758755 419.266637 
L 410.009597 419.562607 
L 410.260438 420.252101 
L 410.511279 422.228713 
L 410.762121 427.227246 
L 411.263803 448.958932 
L 412.267169 509.716104 
L 412.51801 517.273311 
L 412.768851 521.121871 
L 413.019693 522.894132 
L 413.270534 523.70204 
L 413.772217 524.314074 
L 414.524741 524.601158 
L 415.778947 524.756339 
L 419.039885 524.851502 
L 432.836158 524.893547 
L 520.128942 524.790152 
L 523.891562 524.377218 
L 525.145769 523.852716 
L 525.39661 523.967149 
L 526.399975 524.807465 
L 527.403341 524.880654 
L 534.677739 524.852993 
L 535.430263 524.753807 
L 535.681105 524.566203 
L 535.931946 523.694427 
L 536.182787 519.812547 
L 536.433629 507.466574 
L 537.186153 433.144046 
L 537.436994 423.045929 
L 537.687835 419.695173 
L 537.938677 418.665916 
L 538.440359 418.095202 
L 539.192883 417.868046 
L 540.697931 417.747901 
L 545.463917 417.693744 
L 570.798891 417.756754 
L 597.889755 417.96906 
L 598.893121 418.204078 
L 599.143962 418.36096 
L 599.394803 418.654046 
L 599.645645 419.329188 
L 599.896486 421.249252 
L 600.147327 426.132623 
L 600.64901 447.663426 
L 601.652375 508.98776 
L 601.903217 516.855201 
L 602.154058 520.912669 
L 602.404899 522.795295 
L 602.655741 523.653925 
L 603.157423 524.298366 
L 603.909947 524.595246 
L 605.164154 524.754091 
L 608.425091 524.850948 
L 622.221365 524.89354 
L 709.263307 524.80946 
L 713.52761 524.223699 
L 714.530975 523.738543 
L 714.781817 523.861286 
L 715.785182 524.796612 
L 716.788547 524.87961 
L 724.062946 524.852478 
L 724.81547 524.753064 
L 725.066311 524.56685 
L 725.317153 523.705113 
L 725.567994 519.871957 
L 725.818835 507.66782 
L 726.571359 433.473701 
L 726.822201 423.001611 
L 727.073042 419.480098 
L 727.323883 418.406373 
L 727.825566 417.826624 
L 728.57809 417.60054 
L 730.083138 417.48597 
L 734.849123 417.449048 
L 762.44167 417.602199 
L 787.274962 417.863026 
L 788.278327 418.098451 
L 788.529169 418.255349 
L 788.78001 418.548246 
L 789.030851 419.222375 
L 789.281693 421.137901 
L 789.532534 426.012421 
L 790.034217 447.530299 
L 791.037582 508.918349 
L 791.288423 516.814977 
L 791.539265 520.892001 
L 791.790106 522.785108 
L 792.040947 523.648507 
L 792.54263 524.296258 
L 793.295154 524.594326 
L 794.549361 524.753718 
L 796.30525 524.825807 
L 796.30525 524.825807 
" clip-path="url(#p7727091a26)" style="fill: none; stroke: #8c564b; stroke-width: 2; stroke-linecap: square"/>
   </g>
   <g id="line2d_71">
    <path d="M 43.78125 524.893702 
L 92.444469 524.800241 
L 93.447834 524.651528 
L 93.949517 524.358781 
L 94.200358 523.901539 
L 94.451199 522.543196 
L 94.702041 519.099716 
L 95.203723 505.592066 
L 95.956247 484.476509 
L 96.207089 481.455739 
L 96.45793 480.139221 
L 96.708771 479.617008 
L 97.210454 479.2899 
L 98.213819 479.140354 
L 101.223915 479.069518 
L 120.538698 479.049503 
L 141.107687 479.157394 
L 144.619466 479.495359 
L 145.121149 479.749974 
L 145.37199 480.017824 
L 145.622831 480.590949 
L 145.873673 482.132042 
L 146.124514 485.821246 
L 146.626197 499.586576 
L 147.127879 514.752677 
L 147.378721 519.925106 
L 147.629562 522.697424 
L 147.880403 523.877873 
L 148.131245 524.340359 
L 148.632927 524.631562 
L 149.636293 524.759445 
L 152.144706 524.769728 
L 154.402278 524.609061 
L 155.405643 524.341258 
L 155.907326 524.016049 
L 156.158167 523.722597 
L 156.409009 523.233534 
L 156.65985 522.29218 
L 156.910691 519.93707 
L 157.161533 512.60539 
L 157.663215 480.079221 
L 157.914057 474.012393 
L 158.164898 474.337847 
L 158.917422 469.89142 
L 159.168263 469.513672 
L 159.669946 469.259588 
L 160.673311 469.13723 
L 164.18509 469.080744 
L 175.974633 468.877081 
L 219.871866 467.860286 
L 220.373549 467.999678 
L 220.62439 468.17359 
L 220.875231 468.596395 
L 221.126073 469.82679 
L 221.376914 472.855752 
L 221.878597 485.281807 
L 222.881962 517.761647 
L 223.132803 521.390087 
L 223.383645 523.156898 
L 223.634486 523.950416 
L 224.136169 524.4949 
L 224.888693 524.708513 
L 226.644582 524.829087 
L 232.413933 524.881532 
L 278.317897 524.874447 
L 282.331358 524.750151 
L 283.083882 524.544669 
L 283.334723 524.348117 
L 283.585565 523.876416 
L 283.836406 522.470376 
L 284.087247 518.927939 
L 284.58893 505.256008 
L 285.341454 484.258996 
L 285.592295 481.338032 
L 285.843137 480.089864 
L 286.093978 479.598124 
L 286.595661 479.2851 
L 287.599026 479.138877 
L 290.609122 479.068929 
L 310.174746 479.049169 
L 331.245418 479.150917 
L 333.50299 479.31036 
L 334.255514 479.510457 
L 334.757197 479.89724 
L 335.008038 480.429005 
L 335.258879 481.876864 
L 335.509721 485.406212 
L 336.011403 498.920663 
L 336.763927 519.593886 
L 337.014769 522.529287 
L 337.26561 523.802168 
L 337.516451 524.305162 
L 338.018134 524.619372 
L 339.021499 524.754852 
L 341.529913 524.767481 
L 343.787485 524.606418 
L 344.79085 524.338499 
L 345.292533 524.014541 
L 345.543374 523.723219 
L 345.794215 523.239319 
L 346.045057 522.31203 
L 346.295898 520.001759 
L 346.546739 512.729904 
L 347.048422 478.0233 
L 347.299263 471.717094 
L 347.550105 473.183583 
L 347.800946 471.579401 
L 348.051787 469.232227 
L 348.302629 468.116478 
L 348.55347 467.693999 
L 349.055153 467.418984 
L 350.058518 467.279725 
L 353.068614 467.209572 
L 371.12919 467.185026 
L 404.491087 467.316933 
L 409.006231 467.465927 
L 409.758755 467.646619 
L 410.009597 467.81066 
L 410.260438 468.187405 
L 410.511279 469.261228 
L 410.762121 471.973072 
L 411.263803 483.755884 
L 412.267169 516.670387 
L 412.51801 520.763653 
L 412.768851 522.848548 
L 413.019693 523.808904 
L 413.270534 524.246847 
L 413.772217 524.578776 
L 414.775582 524.760447 
L 417.283995 524.853843 
L 427.066807 524.875624 
L 470.462358 524.836005 
L 471.967406 524.71494 
L 472.469089 524.558552 
L 472.71993 524.375369 
L 472.970771 523.944663 
L 473.221613 522.675299 
L 473.472454 519.413199 
L 473.974137 506.207068 
L 474.726661 484.875051 
L 474.977502 481.660604 
L 475.228343 480.228956 
L 475.479185 479.653775 
L 475.980867 479.297264 
L 476.984233 479.141194 
L 479.994329 479.069143 
L 499.05827 479.049241 
L 519.878101 479.139124 
L 523.389879 479.594068 
L 523.891562 479.880962 
L 524.142403 480.163263 
L 524.393245 480.725355 
L 524.644086 482.138791 
L 524.894927 485.500471 
L 525.39661 498.580168 
L 526.149134 519.181421 
L 526.399975 522.308039 
L 526.650817 523.710559 
L 526.901658 524.272268 
L 527.403341 524.615754 
L 528.406706 524.75605 
L 530.915119 524.769803 
L 533.172691 524.613051 
L 534.176057 524.353926 
L 534.677739 524.042559 
L 534.928581 523.764099 
L 535.179422 523.304371 
L 535.430263 522.431864 
L 535.681105 520.290314 
L 535.931946 513.56938 
L 536.68447 469.219062 
L 536.935311 469.013861 
L 537.186153 470.083977 
L 537.436994 469.807399 
L 537.938677 468.93491 
L 538.440359 468.671386 
L 539.443725 468.533038 
L 542.453821 468.466342 
L 577.320766 468.335586 
L 597.638914 468.357317 
L 598.893121 468.497602 
L 599.394803 468.738392 
L 599.645645 469.098397 
L 599.896486 470.120887 
L 600.147327 472.718946 
L 600.64901 484.144813 
L 601.652375 516.514138 
L 601.903217 520.657765 
L 602.154058 522.794933 
L 602.404899 523.786816 
L 602.655741 524.239359 
L 603.157423 524.579192 
L 604.160789 524.761661 
L 606.669202 524.854388 
L 616.702855 524.876059 
L 659.596723 524.843504 
L 661.352613 524.716306 
L 661.854295 524.562036 
L 662.105137 524.382023 
L 662.355978 523.961059 
L 662.606819 522.724561 
L 662.857661 519.531927 
L 663.359343 506.449999 
L 664.111867 485.038509 
L 664.362709 481.751707 
L 664.61355 480.267362 
L 664.864391 479.669428 
L 665.366074 479.300921 
L 666.369439 479.142017 
L 669.128694 479.07118 
L 685.935063 479.049598 
L 709.263307 479.145649 
L 712.775086 479.625213 
L 713.276769 479.921684 
L 713.52761 480.211326 
L 713.778451 480.78157 
L 714.029293 482.198537 
L 714.280134 485.543016 
L 714.781817 498.557722 
L 715.534341 519.118883 
L 715.785182 522.271854 
L 716.036023 523.695021 
L 716.286865 524.266614 
L 716.788547 524.61517 
L 717.791913 524.756263 
L 720.300326 524.770133 
L 722.557898 524.613893 
L 723.561263 524.35589 
L 724.062946 524.04628 
L 724.313787 523.76962 
L 724.564629 523.313278 
L 724.81547 522.448368 
L 725.066311 520.329923 
L 725.317153 513.685322 
L 726.069677 469.120315 
L 726.320518 468.714696 
L 726.571359 469.979446 
L 726.822201 469.987323 
L 727.323883 469.25873 
L 727.825566 468.99741 
L 728.828931 468.853527 
L 731.839027 468.771943 
L 758.929891 468.562967 
L 786.522438 468.459591 
L 788.278327 468.614299 
L 788.78001 468.853435 
L 789.030851 469.211944 
L 789.281693 470.230318 
L 789.532534 472.819651 
L 790.034217 484.21559 
L 791.037582 516.513798 
L 791.288423 520.656324 
L 791.539265 522.794812 
L 791.790106 523.787755 
L 792.040947 524.240609 
L 792.54263 524.580354 
L 793.545995 524.762439 
L 796.054409 524.85481 
L 796.30525 524.858104 
L 796.30525 524.858104 
" clip-path="url(#p7727091a26)" style="fill: none; stroke: #e377c2; stroke-width: 2; stroke-linecap: square"/>
   </g>
   <g id="line2d_72">
    <path d="M 43.78125 295.672548 
L 91.441103 295.772124 
L 92.946151 295.954793 
L 93.447834 296.156359 
L 93.698675 296.358344 
L 93.949517 296.741843 
L 94.200358 297.656323 
L 94.451199 300.373004 
L 94.702041 307.259959 
L 95.203723 334.275248 
L 95.956247 376.506345 
L 96.207089 382.54788 
L 96.45793 385.180911 
L 96.708771 386.22533 
L 97.210454 386.879536 
L 97.962978 387.138788 
L 99.468026 387.27599 
L 103.98317 387.342603 
L 133.582447 387.35763 
L 143.365259 387.243811 
L 144.368625 387.09459 
L 144.870307 386.889877 
L 145.121149 386.68242 
L 145.37199 386.284711 
L 145.622831 385.327099 
L 145.873673 382.471746 
L 146.124514 375.29544 
L 146.626197 347.812494 
L 147.378721 305.950048 
L 147.629562 300.207193 
L 147.880403 297.763411 
L 148.131245 296.803304 
L 148.632927 296.192847 
L 149.385451 295.950683 
L 150.890499 295.8432 
L 153.398913 295.912143 
L 154.653119 296.095359 
L 155.405643 296.377571 
L 155.907326 296.789852 
L 156.158167 297.163827 
L 156.409009 297.790856 
L 156.65985 299.012083 
L 156.910691 302.151597 
L 157.161533 312.469971 
L 157.412374 338.363084 
L 158.164898 450.767473 
L 158.415739 473.747004 
L 158.666581 484.871316 
L 158.917422 488.870988 
L 159.168263 490.268555 
L 159.669946 491.177232 
L 160.171629 491.493724 
L 161.174994 491.737692 
L 163.181725 491.889166 
L 168.951075 492.004603 
L 188.265858 492.102746 
L 216.610929 492.058494 
L 218.868501 491.894898 
L 219.621025 491.697056 
L 220.122707 491.379891 
L 220.373549 491.060459 
L 220.62439 490.448846 
L 220.875231 488.986664 
L 221.126073 484.760214 
L 221.376914 474.371057 
L 221.878597 431.739899 
L 222.881962 320.172612 
L 223.132803 307.704857 
L 223.383645 301.63491 
L 223.634486 298.909451 
L 223.885327 297.664615 
L 224.38701 296.68548 
L 224.888693 296.307135 
L 225.641217 296.047655 
L 227.146265 295.850316 
L 230.407202 295.736524 
L 240.942538 295.688547 
L 279.822945 295.736057 
L 282.080517 295.902261 
L 282.833041 296.163378 
L 283.083882 296.369485 
L 283.334723 296.76259 
L 283.585565 297.705994 
L 283.836406 300.518073 
L 284.087247 307.602947 
L 284.58893 334.946809 
L 285.341454 376.940832 
L 285.592295 382.782759 
L 285.843137 385.279094 
L 286.093978 386.262574 
L 286.595661 386.88862 
L 287.348185 387.141841 
L 288.853233 387.277034 
L 293.368377 387.343194 
L 322.967654 387.357882 
L 332.750466 387.244907 
L 333.753831 387.097702 
L 334.255514 386.89648 
L 334.506355 386.693088 
L 334.757197 386.305503 
L 335.008038 385.380612 
L 335.258879 382.641135 
L 335.509721 375.700161 
L 336.011403 348.587939 
L 336.763927 306.440327 
L 337.014769 300.459752 
L 337.26561 297.8704 
L 337.516451 296.846275 
L 338.018134 296.202723 
L 338.770658 295.953399 
L 340.275706 295.843693 
L 342.784119 295.911169 
L 344.038326 296.092099 
L 344.79085 296.36986 
L 345.292533 296.773761 
L 345.543374 297.138588 
L 345.794215 297.747504 
L 346.045057 298.925057 
L 346.295898 301.919846 
L 346.546739 311.728918 
L 346.797581 336.736674 
L 347.800946 472.988717 
L 348.051787 484.68695 
L 348.302629 488.965377 
L 348.55347 490.452106 
L 348.804311 491.071846 
L 349.305994 491.583756 
L 350.058518 491.857936 
L 351.312725 492.011637 
L 354.573662 492.104338 
L 368.369935 492.138398 
L 406.497818 492.049552 
L 408.504549 491.861695 
L 409.257073 491.603517 
L 409.758755 491.129009 
L 410.009597 490.576958 
L 410.260438 489.297351 
L 410.511279 485.636449 
L 410.762121 476.383065 
L 411.263803 436.162569 
L 412.267169 323.753834 
L 412.51801 309.77325 
L 412.768851 302.653104 
L 413.019693 299.373965 
L 413.270534 297.878945 
L 413.772217 296.74619 
L 414.273899 296.333238 
L 415.026423 296.058651 
L 416.28063 295.874229 
L 419.039885 295.751143 
L 427.066807 295.696019 
L 465.445531 295.693434 
L 470.964041 295.827834 
L 471.967406 296.028928 
L 472.469089 296.341707 
L 472.71993 296.708072 
L 472.970771 297.569486 
L 473.221613 300.108214 
L 473.472454 306.632414 
L 473.974137 333.044675 
L 474.726661 375.708708 
L 474.977502 382.137602 
L 475.228343 385.000898 
L 475.479185 386.151259 
L 475.730026 386.632828 
L 476.231709 386.9949 
L 476.984233 387.176415 
L 478.740122 387.293962 
L 484.509473 387.348984 
L 519.878101 387.327373 
L 522.637355 387.195316 
L 523.389879 387.026059 
L 523.891562 386.714004 
L 524.142403 386.3485 
L 524.393245 385.490069 
L 524.644086 382.969545 
L 524.894927 376.481119 
L 525.39661 350.130871 
L 526.149134 307.447698 
L 526.399975 300.990015 
L 526.650817 298.098163 
L 526.901658 296.937564 
L 527.152499 296.453964 
L 527.654182 296.092882 
L 528.406706 295.920615 
L 530.162595 295.839304 
L 532.671009 295.958845 
L 533.674374 296.153842 
L 534.426898 296.518575 
L 534.928581 297.101249 
L 535.179422 297.684335 
L 535.430263 298.800386 
L 535.681105 301.595048 
L 535.931946 310.705941 
L 536.182787 334.492123 
L 537.186153 471.572068 
L 537.436994 484.034175 
L 537.687835 488.714314 
L 537.938677 490.343147 
L 538.189518 491.008283 
L 538.691201 491.54243 
L 539.443725 491.825714 
L 540.697931 491.982014 
L 543.958869 492.076041 
L 557.755142 492.111769 
L 595.883025 492.030109 
L 597.889755 491.844851 
L 598.642279 491.5866 
L 599.143962 491.120818 
L 599.394803 490.580846 
L 599.645645 489.338036 
L 599.896486 485.80519 
L 600.147327 476.823208 
L 600.64901 437.260876 
L 601.652375 324.815436 
L 601.903217 310.402058 
L 602.154058 302.968485 
L 602.404899 299.519073 
L 602.655741 297.945666 
L 603.157423 296.764539 
L 603.659106 296.340936 
L 604.41163 296.061852 
L 605.665837 295.875375 
L 608.425091 295.751391 
L 616.452014 295.696043 
L 654.830738 295.693366 
L 660.349247 295.827028 
L 661.352613 296.026209 
L 661.854295 296.33475 
L 662.105137 296.694777 
L 662.355978 297.536706 
L 662.606819 300.009703 
L 662.857661 306.394971 
L 663.359343 332.558826 
L 664.111867 375.381806 
L 664.362709 381.955409 
L 664.61355 384.924099 
L 664.864391 386.119967 
L 665.115233 386.617808 
L 665.616915 386.989977 
L 666.369439 387.174783 
L 668.125329 387.293686 
L 673.894679 387.348922 
L 709.263307 387.327357 
L 712.022562 387.196001 
L 712.775086 387.028196 
L 713.276769 386.72045 
L 713.52761 386.359664 
L 713.778451 385.513285 
L 714.029293 383.023481 
L 714.280134 376.606825 
L 714.781817 350.387534 
L 715.534341 307.621912 
L 715.785182 301.08414 
L 716.036023 298.138797 
L 716.286865 296.953789 
L 716.537706 296.460827 
L 717.039389 296.094717 
L 717.791913 295.921109 
L 719.547802 295.839232 
L 722.056215 295.95831 
L 723.059581 296.152688 
L 723.812105 296.515885 
L 724.313787 297.095385 
L 724.564629 297.674567 
L 724.81547 298.781462 
L 725.066311 301.546729 
L 725.317153 310.553976 
L 725.567994 334.152396 
L 726.571359 471.322349 
L 726.822201 483.903487 
L 727.073042 488.651174 
L 727.323883 490.303757 
L 727.574725 490.976117 
L 728.076407 491.513707 
L 728.828931 491.798295 
L 730.083138 491.955958 
L 733.344075 492.051628 
L 747.140349 492.094758 
L 785.268231 492.022744 
L 787.274962 491.836491 
L 788.027486 491.579791 
L 788.529169 491.115828 
L 788.78001 490.577074 
L 789.030851 489.337104 
L 789.281693 485.814235 
L 789.532534 476.852427 
L 790.034217 437.338458 
L 791.037582 324.899063 
L 791.288423 310.451956 
L 791.539265 302.993325 
L 791.790106 299.530063 
L 792.040947 297.950559 
L 792.54263 296.765563 
L 793.044313 296.341108 
L 793.796837 296.061612 
L 795.051043 295.874971 
L 796.30525 295.796798 
L 796.30525 295.796798 
" clip-path="url(#p7727091a26)" style="fill: none; stroke: #bcbd22; stroke-width: 2; stroke-linecap: square"/>
   </g>
   <g id="line2d_73">
    <path d="M 43.78125 524.893702 
L 796.30525 524.893702 
L 796.30525 524.893702 
" clip-path="url(#p7727091a26)" style="fill: none; stroke: #17becf; stroke-width: 2; stroke-linecap: square"/>
   </g>
   <g id="patch_9">
    <path d="M 43.78125 529.478125 
L 43.78125 291.088125 
" style="fill: none; stroke: #000000; stroke-width: 0.8; stroke-linejoin: miter; stroke-linecap: square"/>
   </g>
   <g id="patch_10">
    <path d="M 796.30525 529.478125 
L 796.30525 291.088125 
" style="fill: none; stroke: #000000; stroke-width: 0.8; stroke-linejoin: miter; stroke-linecap: square"/>
   </g>
   <g id="patch_11">
    <path d="M 43.78125 529.478125 
L 796.30525 529.478125 
" style="fill: none; stroke: #000000; stroke-width: 0.8; stroke-linejoin: miter; stroke-linecap: square"/>
   </g>
   <g id="patch_12">
    <path d="M 43.78125 291.088125 
L 796.30525 291.088125 
" style="fill: none; stroke: #000000; stroke-width: 0.8; stroke-linejoin: miter; stroke-linecap: square"/>
   </g>
   <g id="text_31">
    <!-- Outlet Composition -->
    <g transform="translate(362.076687 285.088125) scale(0.12 -0.12)">
     <defs>
      <path id="DejaVuSans-75" d="M 544 1381 
L 544 3500 
L 1119 3500 
L 1119 1403 
Q 1119 906 1312 657 
Q 1506 409 1894 409 
Q 2359 409 2629 706 
Q 2900 1003 2900 1516 
L 2900 3500 
L 3475 3500 
L 3475 0 
L 2900 0 
L 2900 538 
Q 2691 219 2414 64 
Q 2138 -91 1772 -91 
Q 1169 -91 856 284 
Q 544 659 544 1381 
z
M 1991 3584 
L 1991 3584 
z
" transform="scale(0.015625)"/>
     </defs>
     <use xlink:href="#DejaVuSans-4f"/>
     <use xlink:href="#DejaVuSans-75" transform="translate(78.710938 0)"/>
     <use xlink:href="#DejaVuSans-74" transform="translate(142.089844 0)"/>
     <use xlink:href="#DejaVuSans-6c" transform="translate(181.298828 0)"/>
     <use xlink:href="#DejaVuSans-65" transform="translate(209.082031 0)"/>
     <use xlink:href="#DejaVuSans-74" transform="translate(270.605469 0)"/>
     <use xlink:href="#DejaVuSans-20" transform="translate(309.814453 0)"/>
     <use xlink:href="#DejaVuSans-43" transform="translate(341.601562 0)"/>
     <use xlink:href="#DejaVuSans-6f" transform="translate(411.425781 0)"/>
     <use xlink:href="#DejaVuSans-6d" transform="translate(472.607422 0)"/>
     <use xlink:href="#DejaVuSans-70" transform="translate(570.019531 0)"/>
     <use xlink:href="#DejaVuSans-6f" transform="translate(633.496094 0)"/>
     <use xlink:href="#DejaVuSans-73" transform="translate(694.677734 0)"/>
     <use xlink:href="#DejaVuSans-69" transform="translate(746.777344 0)"/>
     <use xlink:href="#DejaVuSans-74" transform="translate(774.560547 0)"/>
     <use xlink:href="#DejaVuSans-69" transform="translate(813.769531 0)"/>
     <use xlink:href="#DejaVuSans-6f" transform="translate(841.552734 0)"/>
     <use xlink:href="#DejaVuSans-6e" transform="translate(902.734375 0)"/>
    </g>
   </g>
  </g>
 </g>
 <defs>
  <clipPath id="p96231638bc">
   <rect x="43.78125" y="22.318125" width="752.524" height="238.39"/>
  </clipPath>
  <clipPath id="p7727091a26">
   <rect x="43.78125" y="291.088125" width="752.524" height="238.39"/>
  </clipPath>
 </defs>
</svg>
