<?xml version="1.0" encoding="utf-8" standalone="no"?>
<!DOCTYPE svg PUBLIC "-//W3C//DTD SVG 1.1//EN"
  "http://www.w3.org/Graphics/SVG/1.1/DTD/svg11.dtd">
<svg xmlns:xlink="http://www.w3.org/1999/xlink" width="856.808125pt" height="711.034375pt" viewBox="0 0 856.808125 711.034375" xmlns="http://www.w3.org/2000/svg" version="1.1">
 <metadata>
  <rdf:RDF xmlns:dc="http://purl.org/dc/elements/1.1/" xmlns:cc="http://creativecommons.org/ns#" xmlns:rdf="http://www.w3.org/1999/02/22-rdf-syntax-ns#">
   <cc:Work>
    <dc:type rdf:resource="http://purl.org/dc/dcmitype/StillImage"/>
    <dc:date>2026-04-23T10:49:49.764252</dc:date>
    <dc:format>image/svg+xml</dc:format>
    <dc:creator>
     <cc:Agent>
      <dc:title>Matplotlib v3.10.8, https://matplotlib.org/</dc:title>
     </cc:Agent>
    </dc:creator>
   </cc:Work>
  </rdf:RDF>
 </metadata>
 <defs>
  <style type="text/css">*{stroke-linejoin: round; stroke-linecap: butt}</style>
 </defs>
 <g id="figure_1">
  <g id="patch_1">
   <path d="M 0 711.034375 
L 856.808125 711.034375 
L 856.808125 0 
L 0 0 
z
" style="fill: #ffffff"/>
  </g>
  <g id="axes_1">
   <g id="patch_2">
    <path d="M 66.053125 219.118125 
L 836.883125 219.118125 
L 836.883125 22.318125 
L 66.053125 22.318125 
z
" style="fill: #ffffff"/>
   </g>
   <g id="matplotlib.axis_1">
    <g id="xtick_1">
     <g id="line2d_1">
      <path d="M 66.053125 219.118125 
L 66.053125 22.318125 
" clip-path="url(#p199f2330d9)" style="fill: none; stroke: #b0b0b0; stroke-opacity: 0.3; stroke-width: 0.8; stroke-linecap: square"/>
     </g>
     <g id="line2d_2">
      <defs>
       <path id="mdf26ea1780" d="M 0 0 
L 0 3.5 
" style="stroke: #000000; stroke-width: 0.8"/>
      </defs>
      <g>
       <use xlink:href="#mdf26ea1780" x="66.053125" y="219.118125" style="stroke: #000000; stroke-width: 0.8"/>
      </g>
     </g>
    </g>
    <g id="xtick_2">
     <g id="line2d_3">
      <path d="M 194.524792 219.118125 
L 194.524792 22.318125 
" clip-path="url(#p199f2330d9)" style="fill: none; stroke: #b0b0b0; stroke-opacity: 0.3; stroke-width: 0.8; stroke-linecap: square"/>
     </g>
     <g id="line2d_4">
      <g>
       <use xlink:href="#mdf26ea1780" x="194.524792" y="219.118125" style="stroke: #000000; stroke-width: 0.8"/>
      </g>
     </g>
    </g>
    <g id="xtick_3">
     <g id="line2d_5">
      <path d="M 322.996458 219.118125 
L 322.996458 22.318125 
" clip-path="url(#p199f2330d9)" style="fill: none; stroke: #b0b0b0; stroke-opacity: 0.3; stroke-width: 0.8; stroke-linecap: square"/>
     </g>
     <g id="line2d_6">
      <g>
       <use xlink:href="#mdf26ea1780" x="322.996458" y="219.118125" style="stroke: #000000; stroke-width: 0.8"/>
      </g>
     </g>
    </g>
    <g id="xtick_4">
     <g id="line2d_7">
      <path d="M 451.468125 219.118125 
L 451.468125 22.318125 
" clip-path="url(#p199f2330d9)" style="fill: none; stroke: #b0b0b0; stroke-opacity: 0.3; stroke-width: 0.8; stroke-linecap: square"/>
     </g>
     <g id="line2d_8">
      <g>
       <use xlink:href="#mdf26ea1780" x="451.468125" y="219.118125" style="stroke: #000000; stroke-width: 0.8"/>
      </g>
     </g>
    </g>
    <g id="xtick_5">
     <g id="line2d_9">
      <path d="M 579.939792 219.118125 
L 579.939792 22.318125 
" clip-path="url(#p199f2330d9)" style="fill: none; stroke: #b0b0b0; stroke-opacity: 0.3; stroke-width: 0.8; stroke-linecap: square"/>
     </g>
     <g id="line2d_10">
      <g>
       <use xlink:href="#mdf26ea1780" x="579.939792" y="219.118125" style="stroke: #000000; stroke-width: 0.8"/>
      </g>
     </g>
    </g>
    <g id="xtick_6">
     <g id="line2d_11">
      <path d="M 708.411458 219.118125 
L 708.411458 22.318125 
" clip-path="url(#p199f2330d9)" style="fill: none; stroke: #b0b0b0; stroke-opacity: 0.3; stroke-width: 0.8; stroke-linecap: square"/>
     </g>
     <g id="line2d_12">
      <g>
       <use xlink:href="#mdf26ea1780" x="708.411458" y="219.118125" style="stroke: #000000; stroke-width: 0.8"/>
      </g>
     </g>
    </g>
    <g id="xtick_7">
     <g id="line2d_13">
      <path d="M 836.883125 219.118125 
L 836.883125 22.318125 
" clip-path="url(#p199f2330d9)" style="fill: none; stroke: #b0b0b0; stroke-opacity: 0.3; stroke-width: 0.8; stroke-linecap: square"/>
     </g>
     <g id="line2d_14">
      <g>
       <use xlink:href="#mdf26ea1780" x="836.883125" y="219.118125" style="stroke: #000000; stroke-width: 0.8"/>
      </g>
     </g>
    </g>
   </g>
   <g id="matplotlib.axis_2">
    <g id="ytick_1">
     <g id="line2d_15">
      <path d="M 66.053125 210.17267 
L 836.883125 210.17267 
" clip-path="url(#p199f2330d9)" style="fill: none; stroke: #b0b0b0; stroke-opacity: 0.3; stroke-width: 0.8; stroke-linecap: square"/>
     </g>
     <g id="line2d_16">
      <defs>
       <path id="mfadd408a8e" d="M 0 0 
L -3.5 0 
" style="stroke: #000000; stroke-width: 0.8"/>
      </defs>
      <g>
       <use xlink:href="#mfadd408a8e" x="66.053125" y="210.17267" style="stroke: #000000; stroke-width: 0.8"/>
      </g>
     </g>
     <g id="text_1">
      <!-- 1000 -->
      <g transform="translate(33.603125 213.971889) scale(0.1 -0.1)">
       <defs>
        <path id="DejaVuSans-31" d="M 794 531 
L 1825 531 
L 1825 4091 
L 703 3866 
L 703 4441 
L 1819 4666 
L 2450 4666 
L 2450 531 
L 3481 531 
L 3481 0 
L 794 0 
L 794 531 
z
" transform="scale(0.015625)"/>
        <path id="DejaVuSans-30" d="M 2034 4250 
Q 1547 4250 1301 3770 
Q 1056 3291 1056 2328 
Q 1056 1369 1301 889 
Q 1547 409 2034 409 
Q 2525 409 2770 889 
Q 3016 1369 3016 2328 
Q 3016 3291 2770 3770 
Q 2525 4250 2034 4250 
z
M 2034 4750 
Q 2819 4750 3233 4129 
Q 3647 3509 3647 2328 
Q 3647 1150 3233 529 
Q 2819 -91 2034 -91 
Q 1250 -91 836 529 
Q 422 1150 422 2328 
Q 422 3509 836 4129 
Q 1250 4750 2034 4750 
z
" transform="scale(0.015625)"/>
       </defs>
       <use xlink:href="#DejaVuSans-31"/>
       <use xlink:href="#DejaVuSans-30" transform="translate(63.623047 0)"/>
       <use xlink:href="#DejaVuSans-30" transform="translate(127.246094 0)"/>
       <use xlink:href="#DejaVuSans-30" transform="translate(190.869141 0)"/>
      </g>
     </g>
    </g>
    <g id="ytick_2">
     <g id="line2d_17">
      <path d="M 66.053125 181.107207 
L 836.883125 181.107207 
" clip-path="url(#p199f2330d9)" style="fill: none; stroke: #b0b0b0; stroke-opacity: 0.3; stroke-width: 0.8; stroke-linecap: square"/>
     </g>
     <g id="line2d_18">
      <g>
       <use xlink:href="#mfadd408a8e" x="66.053125" y="181.107207" style="stroke: #000000; stroke-width: 0.8"/>
      </g>
     </g>
     <g id="text_2">
      <!-- 1050 -->
      <g transform="translate(33.603125 184.906426) scale(0.1 -0.1)">
       <defs>
        <path id="DejaVuSans-35" d="M 691 4666 
L 3169 4666 
L 3169 4134 
L 1269 4134 
L 1269 2991 
Q 1406 3038 1543 3061 
Q 1681 3084 1819 3084 
Q 2600 3084 3056 2656 
Q 3513 2228 3513 1497 
Q 3513 744 3044 326 
Q 2575 -91 1722 -91 
Q 1428 -91 1123 -41 
Q 819 9 494 109 
L 494 744 
Q 775 591 1075 516 
Q 1375 441 1709 441 
Q 2250 441 2565 725 
Q 2881 1009 2881 1497 
Q 2881 1984 2565 2268 
Q 2250 2553 1709 2553 
Q 1456 2553 1204 2497 
Q 953 2441 691 2322 
L 691 4666 
z
" transform="scale(0.015625)"/>
       </defs>
       <use xlink:href="#DejaVuSans-31"/>
       <use xlink:href="#DejaVuSans-30" transform="translate(63.623047 0)"/>
       <use xlink:href="#DejaVuSans-35" transform="translate(127.246094 0)"/>
       <use xlink:href="#DejaVuSans-30" transform="translate(190.869141 0)"/>
      </g>
     </g>
    </g>
    <g id="ytick_3">
     <g id="line2d_19">
      <path d="M 66.053125 152.041743 
L 836.883125 152.041743 
" clip-path="url(#p199f2330d9)" style="fill: none; stroke: #b0b0b0; stroke-opacity: 0.3; stroke-width: 0.8; stroke-linecap: square"/>
     </g>
     <g id="line2d_20">
      <g>
       <use xlink:href="#mfadd408a8e" x="66.053125" y="152.041743" style="stroke: #000000; stroke-width: 0.8"/>
      </g>
     </g>
     <g id="text_3">
      <!-- 1100 -->
      <g transform="translate(33.603125 155.840962) scale(0.1 -0.1)">
       <use xlink:href="#DejaVuSans-31"/>
       <use xlink:href="#DejaVuSans-31" transform="translate(63.623047 0)"/>
       <use xlink:href="#DejaVuSans-30" transform="translate(127.246094 0)"/>
       <use xlink:href="#DejaVuSans-30" transform="translate(190.869141 0)"/>
      </g>
     </g>
    </g>
    <g id="ytick_4">
     <g id="line2d_21">
      <path d="M 66.053125 122.97628 
L 836.883125 122.97628 
" clip-path="url(#p199f2330d9)" style="fill: none; stroke: #b0b0b0; stroke-opacity: 0.3; stroke-width: 0.8; stroke-linecap: square"/>
     </g>
     <g id="line2d_22">
      <g>
       <use xlink:href="#mfadd408a8e" x="66.053125" y="122.97628" style="stroke: #000000; stroke-width: 0.8"/>
      </g>
     </g>
     <g id="text_4">
      <!-- 1150 -->
      <g transform="translate(33.603125 126.775498) scale(0.1 -0.1)">
       <use xlink:href="#DejaVuSans-31"/>
       <use xlink:href="#DejaVuSans-31" transform="translate(63.623047 0)"/>
       <use xlink:href="#DejaVuSans-35" transform="translate(127.246094 0)"/>
       <use xlink:href="#DejaVuSans-30" transform="translate(190.869141 0)"/>
      </g>
     </g>
    </g>
    <g id="ytick_5">
     <g id="line2d_23">
      <path d="M 66.053125 93.910816 
L 836.883125 93.910816 
" clip-path="url(#p199f2330d9)" style="fill: none; stroke: #b0b0b0; stroke-opacity: 0.3; stroke-width: 0.8; stroke-linecap: square"/>
     </g>
     <g id="line2d_24">
      <g>
       <use xlink:href="#mfadd408a8e" x="66.053125" y="93.910816" style="stroke: #000000; stroke-width: 0.8"/>
      </g>
     </g>
     <g id="text_5">
      <!-- 1200 -->
      <g transform="translate(33.603125 97.710035) scale(0.1 -0.1)">
       <defs>
        <path id="DejaVuSans-32" d="M 1228 531 
L 3431 531 
L 3431 0 
L 469 0 
L 469 531 
Q 828 903 1448 1529 
Q 2069 2156 2228 2338 
Q 2531 2678 2651 2914 
Q 2772 3150 2772 3378 
Q 2772 3750 2511 3984 
Q 2250 4219 1831 4219 
Q 1534 4219 1204 4116 
Q 875 4013 500 3803 
L 500 4441 
Q 881 4594 1212 4672 
Q 1544 4750 1819 4750 
Q 2544 4750 2975 4387 
Q 3406 4025 3406 3419 
Q 3406 3131 3298 2873 
Q 3191 2616 2906 2266 
Q 2828 2175 2409 1742 
Q 1991 1309 1228 531 
z
" transform="scale(0.015625)"/>
       </defs>
       <use xlink:href="#DejaVuSans-31"/>
       <use xlink:href="#DejaVuSans-32" transform="translate(63.623047 0)"/>
       <use xlink:href="#DejaVuSans-30" transform="translate(127.246094 0)"/>
       <use xlink:href="#DejaVuSans-30" transform="translate(190.869141 0)"/>
      </g>
     </g>
    </g>
    <g id="ytick_6">
     <g id="line2d_25">
      <path d="M 66.053125 64.845353 
L 836.883125 64.845353 
" clip-path="url(#p199f2330d9)" style="fill: none; stroke: #b0b0b0; stroke-opacity: 0.3; stroke-width: 0.8; stroke-linecap: square"/>
     </g>
     <g id="line2d_26">
      <g>
       <use xlink:href="#mfadd408a8e" x="66.053125" y="64.845353" style="stroke: #000000; stroke-width: 0.8"/>
      </g>
     </g>
     <g id="text_6">
      <!-- 1250 -->
      <g transform="translate(33.603125 68.644571) scale(0.1 -0.1)">
       <use xlink:href="#DejaVuSans-31"/>
       <use xlink:href="#DejaVuSans-32" transform="translate(63.623047 0)"/>
       <use xlink:href="#DejaVuSans-35" transform="translate(127.246094 0)"/>
       <use xlink:href="#DejaVuSans-30" transform="translate(190.869141 0)"/>
      </g>
     </g>
    </g>
    <g id="ytick_7">
     <g id="line2d_27">
      <path d="M 66.053125 35.779889 
L 836.883125 35.779889 
" clip-path="url(#p199f2330d9)" style="fill: none; stroke: #b0b0b0; stroke-opacity: 0.3; stroke-width: 0.8; stroke-linecap: square"/>
     </g>
     <g id="line2d_28">
      <g>
       <use xlink:href="#mfadd408a8e" x="66.053125" y="35.779889" style="stroke: #000000; stroke-width: 0.8"/>
      </g>
     </g>
     <g id="text_7">
      <!-- 1300 -->
      <g transform="translate(33.603125 39.579108) scale(0.1 -0.1)">
       <defs>
        <path id="DejaVuSans-33" d="M 2597 2516 
Q 3050 2419 3304 2112 
Q 3559 1806 3559 1356 
Q 3559 666 3084 287 
Q 2609 -91 1734 -91 
Q 1441 -91 1130 -33 
Q 819 25 488 141 
L 488 750 
Q 750 597 1062 519 
Q 1375 441 1716 441 
Q 2309 441 2620 675 
Q 2931 909 2931 1356 
Q 2931 1769 2642 2001 
Q 2353 2234 1838 2234 
L 1294 2234 
L 1294 2753 
L 1863 2753 
Q 2328 2753 2575 2939 
Q 2822 3125 2822 3475 
Q 2822 3834 2567 4026 
Q 2313 4219 1838 4219 
Q 1578 4219 1281 4162 
Q 984 4106 628 3988 
L 628 4550 
Q 988 4650 1302 4700 
Q 1616 4750 1894 4750 
Q 2613 4750 3031 4423 
Q 3450 4097 3450 3541 
Q 3450 3153 3228 2886 
Q 3006 2619 2597 2516 
z
" transform="scale(0.015625)"/>
       </defs>
       <use xlink:href="#DejaVuSans-31"/>
       <use xlink:href="#DejaVuSans-33" transform="translate(63.623047 0)"/>
       <use xlink:href="#DejaVuSans-30" transform="translate(127.246094 0)"/>
       <use xlink:href="#DejaVuSans-30" transform="translate(190.869141 0)"/>
      </g>
     </g>
    </g>
    <g id="text_8">
     <!-- Temperature [K] -->
     <g transform="translate(27.523438 161.157187) rotate(-90) scale(0.1 -0.1)">
      <defs>
       <path id="DejaVuSans-54" d="M -19 4666 
L 3928 4666 
L 3928 4134 
L 2272 4134 
L 2272 0 
L 1638 0 
L 1638 4134 
L -19 4134 
L -19 4666 
z
" transform="scale(0.015625)"/>
       <path id="DejaVuSans-65" d="M 3597 1894 
L 3597 1613 
L 953 1613 
Q 991 1019 1311 708 
Q 1631 397 2203 397 
Q 2534 397 2845 478 
Q 3156 559 3463 722 
L 3463 178 
Q 3153 47 2828 -22 
Q 2503 -91 2169 -91 
Q 1331 -91 842 396 
Q 353 884 353 1716 
Q 353 2575 817 3079 
Q 1281 3584 2069 3584 
Q 2775 3584 3186 3129 
Q 3597 2675 3597 1894 
z
M 3022 2063 
Q 3016 2534 2758 2815 
Q 2500 3097 2075 3097 
Q 1594 3097 1305 2825 
Q 1016 2553 972 2059 
L 3022 2063 
z
" transform="scale(0.015625)"/>
       <path id="DejaVuSans-6d" d="M 3328 2828 
Q 3544 3216 3844 3400 
Q 4144 3584 4550 3584 
Q 5097 3584 5394 3201 
Q 5691 2819 5691 2113 
L 5691 0 
L 5113 0 
L 5113 2094 
Q 5113 2597 4934 2840 
Q 4756 3084 4391 3084 
Q 3944 3084 3684 2787 
Q 3425 2491 3425 1978 
L 3425 0 
L 2847 0 
L 2847 2094 
Q 2847 2600 2669 2842 
Q 2491 3084 2119 3084 
Q 1678 3084 1418 2786 
Q 1159 2488 1159 1978 
L 1159 0 
L 581 0 
L 581 3500 
L 1159 3500 
L 1159 2956 
Q 1356 3278 1631 3431 
Q 1906 3584 2284 3584 
Q 2666 3584 2933 3390 
Q 3200 3197 3328 2828 
z
" transform="scale(0.015625)"/>
       <path id="DejaVuSans-70" d="M 1159 525 
L 1159 -1331 
L 581 -1331 
L 581 3500 
L 1159 3500 
L 1159 2969 
Q 1341 3281 1617 3432 
Q 1894 3584 2278 3584 
Q 2916 3584 3314 3078 
Q 3713 2572 3713 1747 
Q 3713 922 3314 415 
Q 2916 -91 2278 -91 
Q 1894 -91 1617 61 
Q 1341 213 1159 525 
z
M 3116 1747 
Q 3116 2381 2855 2742 
Q 2594 3103 2138 3103 
Q 1681 3103 1420 2742 
Q 1159 2381 1159 1747 
Q 1159 1113 1420 752 
Q 1681 391 2138 391 
Q 2594 391 2855 752 
Q 3116 1113 3116 1747 
z
" transform="scale(0.015625)"/>
       <path id="DejaVuSans-72" d="M 2631 2963 
Q 2534 3019 2420 3045 
Q 2306 3072 2169 3072 
Q 1681 3072 1420 2755 
Q 1159 2438 1159 1844 
L 1159 0 
L 581 0 
L 581 3500 
L 1159 3500 
L 1159 2956 
Q 1341 3275 1631 3429 
Q 1922 3584 2338 3584 
Q 2397 3584 2469 3576 
Q 2541 3569 2628 3553 
L 2631 2963 
z
" transform="scale(0.015625)"/>
       <path id="DejaVuSans-61" d="M 2194 1759 
Q 1497 1759 1228 1600 
Q 959 1441 959 1056 
Q 959 750 1161 570 
Q 1363 391 1709 391 
Q 2188 391 2477 730 
Q 2766 1069 2766 1631 
L 2766 1759 
L 2194 1759 
z
M 3341 1997 
L 3341 0 
L 2766 0 
L 2766 531 
Q 2569 213 2275 61 
Q 1981 -91 1556 -91 
Q 1019 -91 701 211 
Q 384 513 384 1019 
Q 384 1609 779 1909 
Q 1175 2209 1959 2209 
L 2766 2209 
L 2766 2266 
Q 2766 2663 2505 2880 
Q 2244 3097 1772 3097 
Q 1472 3097 1187 3025 
Q 903 2953 641 2809 
L 641 3341 
Q 956 3463 1253 3523 
Q 1550 3584 1831 3584 
Q 2591 3584 2966 3190 
Q 3341 2797 3341 1997 
z
" transform="scale(0.015625)"/>
       <path id="DejaVuSans-74" d="M 1172 4494 
L 1172 3500 
L 2356 3500 
L 2356 3053 
L 1172 3053 
L 1172 1153 
Q 1172 725 1289 603 
Q 1406 481 1766 481 
L 2356 481 
L 2356 0 
L 1766 0 
Q 1100 0 847 248 
Q 594 497 594 1153 
L 594 3053 
L 172 3053 
L 172 3500 
L 594 3500 
L 594 4494 
L 1172 4494 
z
" transform="scale(0.015625)"/>
       <path id="DejaVuSans-75" d="M 544 1381 
L 544 3500 
L 1119 3500 
L 1119 1403 
Q 1119 906 1312 657 
Q 1506 409 1894 409 
Q 2359 409 2629 706 
Q 2900 1003 2900 1516 
L 2900 3500 
L 3475 3500 
L 3475 0 
L 2900 0 
L 2900 538 
Q 2691 219 2414 64 
Q 2138 -91 1772 -91 
Q 1169 -91 856 284 
Q 544 659 544 1381 
z
M 1991 3584 
L 1991 3584 
z
" transform="scale(0.015625)"/>
       <path id="DejaVuSans-20" transform="scale(0.015625)"/>
       <path id="DejaVuSans-5b" d="M 550 4863 
L 1875 4863 
L 1875 4416 
L 1125 4416 
L 1125 -397 
L 1875 -397 
L 1875 -844 
L 550 -844 
L 550 4863 
z
" transform="scale(0.015625)"/>
       <path id="DejaVuSans-4b" d="M 628 4666 
L 1259 4666 
L 1259 2694 
L 3353 4666 
L 4166 4666 
L 1850 2491 
L 4331 0 
L 3500 0 
L 1259 2247 
L 1259 0 
L 628 0 
L 628 4666 
z
" transform="scale(0.015625)"/>
       <path id="DejaVuSans-5d" d="M 1947 4863 
L 1947 -844 
L 622 -844 
L 622 -397 
L 1369 -397 
L 1369 4416 
L 622 4416 
L 622 4863 
L 1947 4863 
z
" transform="scale(0.015625)"/>
      </defs>
      <use xlink:href="#DejaVuSans-54"/>
      <use xlink:href="#DejaVuSans-65" transform="translate(44.083984 0)"/>
      <use xlink:href="#DejaVuSans-6d" transform="translate(105.607422 0)"/>
      <use xlink:href="#DejaVuSans-70" transform="translate(203.019531 0)"/>
      <use xlink:href="#DejaVuSans-65" transform="translate(266.496094 0)"/>
      <use xlink:href="#DejaVuSans-72" transform="translate(328.019531 0)"/>
      <use xlink:href="#DejaVuSans-61" transform="translate(369.132812 0)"/>
      <use xlink:href="#DejaVuSans-74" transform="translate(430.412109 0)"/>
      <use xlink:href="#DejaVuSans-75" transform="translate(469.621094 0)"/>
      <use xlink:href="#DejaVuSans-72" transform="translate(533 0)"/>
      <use xlink:href="#DejaVuSans-65" transform="translate(571.863281 0)"/>
      <use xlink:href="#DejaVuSans-20" transform="translate(633.386719 0)"/>
      <use xlink:href="#DejaVuSans-5b" transform="translate(665.173828 0)"/>
      <use xlink:href="#DejaVuSans-4b" transform="translate(704.1875 0)"/>
      <use xlink:href="#DejaVuSans-5d" transform="translate(769.763672 0)"/>
     </g>
    </g>
   </g>
   <g id="line2d_29">
    <path d="M 66.053125 210.17267 
L 104.851568 210.07184 
L 110.247378 209.721091 
L 114.615415 209.255948 
L 118.726508 208.592028 
L 121.552885 207.89248 
L 124.893148 206.844132 
L 128.233412 205.559227 
L 131.573675 204.035168 
L 134.913938 202.273498 
L 138.511145 200.116437 
L 142.108352 197.699637 
L 145.962502 194.836797 
L 150.073595 191.492312 
L 154.441632 187.638186 
L 159.066612 183.255922 
L 164.205478 178.071563 
L 169.858232 172.044611 
L 172.427665 169.376586 
L 180.392908 161.708287 
L 182.448455 159.540093 
L 183.219285 158.374803 
L 185.274832 154.498028 
L 190.670642 144.507498 
L 196.580338 134.033909 
L 203.003922 123.089476 
L 209.427505 112.569859 
L 215.594145 102.8863 
L 221.246898 94.402929 
L 226.642708 86.693373 
L 231.781575 79.737606 
L 236.663498 73.51341 
L 241.031535 68.290105 
L 245.142628 63.699969 
L 247.969005 60.787041 
L 249.253722 59.815818 
L 253.364815 57.264911 
L 258.503682 54.316337 
L 261.330058 52.876648 
L 266.468925 50.820241 
L 272.121678 48.787781 
L 277.517488 47.086454 
L 282.913298 45.629633 
L 288.052165 44.47722 
L 293.191032 43.554595 
L 304.239595 41.93178 
L 317.086762 40.314974 
L 335.843625 37.730167 
L 357.683808 34.66328 
L 366.676825 33.657347 
L 393.141988 31.447599 
L 399.308628 31.270923 
L 404.961382 31.322106 
L 410.357192 31.582502 
L 415.753002 32.067181 
L 420.891868 32.753814 
L 425.773792 33.628845 
L 430.398772 34.684665 
L 434.509865 35.842881 
L 438.364015 37.16163 
L 446.329258 40.07183 
L 450.954238 41.726308 
L 467.398612 48.153547 
L 473.822195 51.0867 
L 480.245778 54.304571 
L 486.412418 57.646429 
L 495.405435 62.780734 
L 500.287358 66.243798 
L 509.023432 72.547428 
L 514.162298 76.454334 
L 518.787278 79.697641 
L 523.155315 82.499181 
L 527.523352 85.035995 
L 531.891388 87.306321 
L 536.259425 89.314905 
L 540.627462 91.071404 
L 544.995498 92.589122 
L 549.620478 93.952863 
L 554.245458 95.083556 
L 558.870438 95.977355 
L 562.981532 96.518834 
L 568.634285 97.058325 
L 575.571755 97.48594 
L 579.425905 97.444984 
L 583.793942 97.162562 
L 588.675865 96.605174 
L 594.328618 95.720187 
L 601.779975 94.305327 
L 620.793782 90.58158 
L 626.189592 89.806848 
L 630.557628 89.403667 
L 634.154835 89.297697 
L 638.008985 89.438085 
L 642.633965 89.774539 
L 647.258945 90.330787 
L 656.765848 91.826653 
L 662.418602 92.999598 
L 668.071355 94.400599 
L 673.724108 96.025433 
L 679.890748 98.043062 
L 689.397652 101.443361 
L 695.307348 104.109822 
L 705.842025 108.939289 
L 710.467005 110.937513 
L 714.835042 112.593371 
L 719.203078 114.010634 
L 723.571115 115.185215 
L 727.939152 116.120312 
L 732.307188 116.824731 
L 736.675225 117.311387 
L 741.300205 117.606744 
L 746.182128 117.694863 
L 751.064052 117.566553 
L 757.487635 117.139102 
L 763.654275 116.538624 
L 765.709822 116.179781 
L 769.563972 115.207828 
L 774.188952 113.809088 
L 779.584762 111.933598 
L 786.522232 109.271239 
L 808.619358 100.607058 
L 814.529055 98.620825 
L 819.410978 97.209735 
L 823.522072 96.246865 
L 827.119278 95.635517 
L 830.202598 95.345176 
L 834.056748 95.279701 
L 836.883125 95.335732 
L 836.883125 95.335732 
" clip-path="url(#p199f2330d9)" style="fill: none; stroke: #d94841; stroke-width: 2; stroke-linecap: square"/>
   </g>
   <g id="patch_3">
    <path d="M 66.053125 219.118125 
L 66.053125 22.318125 
" style="fill: none; stroke: #000000; stroke-width: 0.8; stroke-linejoin: miter; stroke-linecap: square"/>
   </g>
   <g id="patch_4">
    <path d="M 836.883125 219.118125 
L 836.883125 22.318125 
" style="fill: none; stroke: #000000; stroke-width: 0.8; stroke-linejoin: miter; stroke-linecap: square"/>
   </g>
   <g id="patch_5">
    <path d="M 66.053125 219.118125 
L 836.883125 219.118125 
" style="fill: none; stroke: #000000; stroke-width: 0.8; stroke-linejoin: miter; stroke-linecap: square"/>
   </g>
   <g id="patch_6">
    <path d="M 66.053125 22.318125 
L 836.883125 22.318125 
" style="fill: none; stroke: #000000; stroke-width: 0.8; stroke-linejoin: miter; stroke-linecap: square"/>
   </g>
   <g id="text_9">
    <!-- Outlet Temperature -->
    <g transform="translate(392.969063 16.318125) scale(0.12 -0.12)">
     <defs>
      <path id="DejaVuSans-4f" d="M 2522 4238 
Q 1834 4238 1429 3725 
Q 1025 3213 1025 2328 
Q 1025 1447 1429 934 
Q 1834 422 2522 422 
Q 3209 422 3611 934 
Q 4013 1447 4013 2328 
Q 4013 3213 3611 3725 
Q 3209 4238 2522 4238 
z
M 2522 4750 
Q 3503 4750 4090 4092 
Q 4678 3434 4678 2328 
Q 4678 1225 4090 567 
Q 3503 -91 2522 -91 
Q 1538 -91 948 565 
Q 359 1222 359 2328 
Q 359 3434 948 4092 
Q 1538 4750 2522 4750 
z
" transform="scale(0.015625)"/>
      <path id="DejaVuSans-6c" d="M 603 4863 
L 1178 4863 
L 1178 0 
L 603 0 
L 603 4863 
z
" transform="scale(0.015625)"/>
     </defs>
     <use xlink:href="#DejaVuSans-4f"/>
     <use xlink:href="#DejaVuSans-75" transform="translate(78.710938 0)"/>
     <use xlink:href="#DejaVuSans-74" transform="translate(142.089844 0)"/>
     <use xlink:href="#DejaVuSans-6c" transform="translate(181.298828 0)"/>
     <use xlink:href="#DejaVuSans-65" transform="translate(209.082031 0)"/>
     <use xlink:href="#DejaVuSans-74" transform="translate(270.605469 0)"/>
     <use xlink:href="#DejaVuSans-20" transform="translate(309.814453 0)"/>
     <use xlink:href="#DejaVuSans-54" transform="translate(341.601562 0)"/>
     <use xlink:href="#DejaVuSans-65" transform="translate(385.685547 0)"/>
     <use xlink:href="#DejaVuSans-6d" transform="translate(447.208984 0)"/>
     <use xlink:href="#DejaVuSans-70" transform="translate(544.621094 0)"/>
     <use xlink:href="#DejaVuSans-65" transform="translate(608.097656 0)"/>
     <use xlink:href="#DejaVuSans-72" transform="translate(669.621094 0)"/>
     <use xlink:href="#DejaVuSans-61" transform="translate(710.734375 0)"/>
     <use xlink:href="#DejaVuSans-74" transform="translate(772.013672 0)"/>
     <use xlink:href="#DejaVuSans-75" transform="translate(811.222656 0)"/>
     <use xlink:href="#DejaVuSans-72" transform="translate(874.601562 0)"/>
     <use xlink:href="#DejaVuSans-65" transform="translate(913.464844 0)"/>
    </g>
   </g>
  </g>
  <g id="axes_2">
   <g id="patch_7">
    <path d="M 66.053125 446.298125 
L 836.883125 446.298125 
L 836.883125 249.498125 
L 66.053125 249.498125 
z
" style="fill: #ffffff"/>
   </g>
   <g id="matplotlib.axis_3">
    <g id="xtick_8">
     <g id="line2d_30">
      <path d="M 66.053125 446.298125 
L 66.053125 249.498125 
" clip-path="url(#pcc827cb13f)" style="fill: none; stroke: #b0b0b0; stroke-opacity: 0.3; stroke-width: 0.8; stroke-linecap: square"/>
     </g>
     <g id="line2d_31">
      <g>
       <use xlink:href="#mdf26ea1780" x="66.053125" y="446.298125" style="stroke: #000000; stroke-width: 0.8"/>
      </g>
     </g>
    </g>
    <g id="xtick_9">
     <g id="line2d_32">
      <path d="M 194.524792 446.298125 
L 194.524792 249.498125 
" clip-path="url(#pcc827cb13f)" style="fill: none; stroke: #b0b0b0; stroke-opacity: 0.3; stroke-width: 0.8; stroke-linecap: square"/>
     </g>
     <g id="line2d_33">
      <g>
       <use xlink:href="#mdf26ea1780" x="194.524792" y="446.298125" style="stroke: #000000; stroke-width: 0.8"/>
      </g>
     </g>
    </g>
    <g id="xtick_10">
     <g id="line2d_34">
      <path d="M 322.996458 446.298125 
L 322.996458 249.498125 
" clip-path="url(#pcc827cb13f)" style="fill: none; stroke: #b0b0b0; stroke-opacity: 0.3; stroke-width: 0.8; stroke-linecap: square"/>
     </g>
     <g id="line2d_35">
      <g>
       <use xlink:href="#mdf26ea1780" x="322.996458" y="446.298125" style="stroke: #000000; stroke-width: 0.8"/>
      </g>
     </g>
    </g>
    <g id="xtick_11">
     <g id="line2d_36">
      <path d="M 451.468125 446.298125 
L 451.468125 249.498125 
" clip-path="url(#pcc827cb13f)" style="fill: none; stroke: #b0b0b0; stroke-opacity: 0.3; stroke-width: 0.8; stroke-linecap: square"/>
     </g>
     <g id="line2d_37">
      <g>
       <use xlink:href="#mdf26ea1780" x="451.468125" y="446.298125" style="stroke: #000000; stroke-width: 0.8"/>
      </g>
     </g>
    </g>
    <g id="xtick_12">
     <g id="line2d_38">
      <path d="M 579.939792 446.298125 
L 579.939792 249.498125 
" clip-path="url(#pcc827cb13f)" style="fill: none; stroke: #b0b0b0; stroke-opacity: 0.3; stroke-width: 0.8; stroke-linecap: square"/>
     </g>
     <g id="line2d_39">
      <g>
       <use xlink:href="#mdf26ea1780" x="579.939792" y="446.298125" style="stroke: #000000; stroke-width: 0.8"/>
      </g>
     </g>
    </g>
    <g id="xtick_13">
     <g id="line2d_40">
      <path d="M 708.411458 446.298125 
L 708.411458 249.498125 
" clip-path="url(#pcc827cb13f)" style="fill: none; stroke: #b0b0b0; stroke-opacity: 0.3; stroke-width: 0.8; stroke-linecap: square"/>
     </g>
     <g id="line2d_41">
      <g>
       <use xlink:href="#mdf26ea1780" x="708.411458" y="446.298125" style="stroke: #000000; stroke-width: 0.8"/>
      </g>
     </g>
    </g>
    <g id="xtick_14">
     <g id="line2d_42">
      <path d="M 836.883125 446.298125 
L 836.883125 249.498125 
" clip-path="url(#pcc827cb13f)" style="fill: none; stroke: #b0b0b0; stroke-opacity: 0.3; stroke-width: 0.8; stroke-linecap: square"/>
     </g>
     <g id="line2d_43">
      <g>
       <use xlink:href="#mdf26ea1780" x="836.883125" y="446.298125" style="stroke: #000000; stroke-width: 0.8"/>
      </g>
     </g>
    </g>
   </g>
   <g id="matplotlib.axis_4">
    <g id="ytick_8">
     <g id="line2d_44">
      <path d="M 66.053125 419.461761 
L 836.883125 419.461761 
" clip-path="url(#pcc827cb13f)" style="fill: none; stroke: #b0b0b0; stroke-opacity: 0.3; stroke-width: 0.8; stroke-linecap: square"/>
     </g>
     <g id="line2d_45">
      <g>
       <use xlink:href="#mfadd408a8e" x="66.053125" y="419.461761" style="stroke: #000000; stroke-width: 0.8"/>
      </g>
     </g>
     <g id="text_10">
      <!-- 480000 -->
      <g transform="translate(20.878125 423.26098) scale(0.1 -0.1)">
       <defs>
        <path id="DejaVuSans-34" d="M 2419 4116 
L 825 1625 
L 2419 1625 
L 2419 4116 
z
M 2253 4666 
L 3047 4666 
L 3047 1625 
L 3713 1625 
L 3713 1100 
L 3047 1100 
L 3047 0 
L 2419 0 
L 2419 1100 
L 313 1100 
L 313 1709 
L 2253 4666 
z
" transform="scale(0.015625)"/>
        <path id="DejaVuSans-38" d="M 2034 2216 
Q 1584 2216 1326 1975 
Q 1069 1734 1069 1313 
Q 1069 891 1326 650 
Q 1584 409 2034 409 
Q 2484 409 2743 651 
Q 3003 894 3003 1313 
Q 3003 1734 2745 1975 
Q 2488 2216 2034 2216 
z
M 1403 2484 
Q 997 2584 770 2862 
Q 544 3141 544 3541 
Q 544 4100 942 4425 
Q 1341 4750 2034 4750 
Q 2731 4750 3128 4425 
Q 3525 4100 3525 3541 
Q 3525 3141 3298 2862 
Q 3072 2584 2669 2484 
Q 3125 2378 3379 2068 
Q 3634 1759 3634 1313 
Q 3634 634 3220 271 
Q 2806 -91 2034 -91 
Q 1263 -91 848 271 
Q 434 634 434 1313 
Q 434 1759 690 2068 
Q 947 2378 1403 2484 
z
M 1172 3481 
Q 1172 3119 1398 2916 
Q 1625 2713 2034 2713 
Q 2441 2713 2670 2916 
Q 2900 3119 2900 3481 
Q 2900 3844 2670 4047 
Q 2441 4250 2034 4250 
Q 1625 4250 1398 4047 
Q 1172 3844 1172 3481 
z
" transform="scale(0.015625)"/>
       </defs>
       <use xlink:href="#DejaVuSans-34"/>
       <use xlink:href="#DejaVuSans-38" transform="translate(63.623047 0)"/>
       <use xlink:href="#DejaVuSans-30" transform="translate(127.246094 0)"/>
       <use xlink:href="#DejaVuSans-30" transform="translate(190.869141 0)"/>
       <use xlink:href="#DejaVuSans-30" transform="translate(254.492188 0)"/>
       <use xlink:href="#DejaVuSans-30" transform="translate(318.115234 0)"/>
      </g>
     </g>
    </g>
    <g id="ytick_9">
     <g id="line2d_46">
      <path d="M 66.053125 383.679943 
L 836.883125 383.679943 
" clip-path="url(#pcc827cb13f)" style="fill: none; stroke: #b0b0b0; stroke-opacity: 0.3; stroke-width: 0.8; stroke-linecap: square"/>
     </g>
     <g id="line2d_47">
      <g>
       <use xlink:href="#mfadd408a8e" x="66.053125" y="383.679943" style="stroke: #000000; stroke-width: 0.8"/>
      </g>
     </g>
     <g id="text_11">
      <!-- 490000 -->
      <g transform="translate(20.878125 387.479162) scale(0.1 -0.1)">
       <defs>
        <path id="DejaVuSans-39" d="M 703 97 
L 703 672 
Q 941 559 1184 500 
Q 1428 441 1663 441 
Q 2288 441 2617 861 
Q 2947 1281 2994 2138 
Q 2813 1869 2534 1725 
Q 2256 1581 1919 1581 
Q 1219 1581 811 2004 
Q 403 2428 403 3163 
Q 403 3881 828 4315 
Q 1253 4750 1959 4750 
Q 2769 4750 3195 4129 
Q 3622 3509 3622 2328 
Q 3622 1225 3098 567 
Q 2575 -91 1691 -91 
Q 1453 -91 1209 -44 
Q 966 3 703 97 
z
M 1959 2075 
Q 2384 2075 2632 2365 
Q 2881 2656 2881 3163 
Q 2881 3666 2632 3958 
Q 2384 4250 1959 4250 
Q 1534 4250 1286 3958 
Q 1038 3666 1038 3163 
Q 1038 2656 1286 2365 
Q 1534 2075 1959 2075 
z
" transform="scale(0.015625)"/>
       </defs>
       <use xlink:href="#DejaVuSans-34"/>
       <use xlink:href="#DejaVuSans-39" transform="translate(63.623047 0)"/>
       <use xlink:href="#DejaVuSans-30" transform="translate(127.246094 0)"/>
       <use xlink:href="#DejaVuSans-30" transform="translate(190.869141 0)"/>
       <use xlink:href="#DejaVuSans-30" transform="translate(254.492188 0)"/>
       <use xlink:href="#DejaVuSans-30" transform="translate(318.115234 0)"/>
      </g>
     </g>
    </g>
    <g id="ytick_10">
     <g id="line2d_48">
      <path d="M 66.053125 347.898125 
L 836.883125 347.898125 
" clip-path="url(#pcc827cb13f)" style="fill: none; stroke: #b0b0b0; stroke-opacity: 0.3; stroke-width: 0.8; stroke-linecap: square"/>
     </g>
     <g id="line2d_49">
      <g>
       <use xlink:href="#mfadd408a8e" x="66.053125" y="347.898125" style="stroke: #000000; stroke-width: 0.8"/>
      </g>
     </g>
     <g id="text_12">
      <!-- 500000 -->
      <g transform="translate(20.878125 351.697344) scale(0.1 -0.1)">
       <use xlink:href="#DejaVuSans-35"/>
       <use xlink:href="#DejaVuSans-30" transform="translate(63.623047 0)"/>
       <use xlink:href="#DejaVuSans-30" transform="translate(127.246094 0)"/>
       <use xlink:href="#DejaVuSans-30" transform="translate(190.869141 0)"/>
       <use xlink:href="#DejaVuSans-30" transform="translate(254.492188 0)"/>
       <use xlink:href="#DejaVuSans-30" transform="translate(318.115234 0)"/>
      </g>
     </g>
    </g>
    <g id="ytick_11">
     <g id="line2d_50">
      <path d="M 66.053125 312.116307 
L 836.883125 312.116307 
" clip-path="url(#pcc827cb13f)" style="fill: none; stroke: #b0b0b0; stroke-opacity: 0.3; stroke-width: 0.8; stroke-linecap: square"/>
     </g>
     <g id="line2d_51">
      <g>
       <use xlink:href="#mfadd408a8e" x="66.053125" y="312.116307" style="stroke: #000000; stroke-width: 0.8"/>
      </g>
     </g>
     <g id="text_13">
      <!-- 510000 -->
      <g transform="translate(20.878125 315.915526) scale(0.1 -0.1)">
       <use xlink:href="#DejaVuSans-35"/>
       <use xlink:href="#DejaVuSans-31" transform="translate(63.623047 0)"/>
       <use xlink:href="#DejaVuSans-30" transform="translate(127.246094 0)"/>
       <use xlink:href="#DejaVuSans-30" transform="translate(190.869141 0)"/>
       <use xlink:href="#DejaVuSans-30" transform="translate(254.492188 0)"/>
       <use xlink:href="#DejaVuSans-30" transform="translate(318.115234 0)"/>
      </g>
     </g>
    </g>
    <g id="ytick_12">
     <g id="line2d_52">
      <path d="M 66.053125 276.334489 
L 836.883125 276.334489 
" clip-path="url(#pcc827cb13f)" style="fill: none; stroke: #b0b0b0; stroke-opacity: 0.3; stroke-width: 0.8; stroke-linecap: square"/>
     </g>
     <g id="line2d_53">
      <g>
       <use xlink:href="#mfadd408a8e" x="66.053125" y="276.334489" style="stroke: #000000; stroke-width: 0.8"/>
      </g>
     </g>
     <g id="text_14">
      <!-- 520000 -->
      <g transform="translate(20.878125 280.133707) scale(0.1 -0.1)">
       <use xlink:href="#DejaVuSans-35"/>
       <use xlink:href="#DejaVuSans-32" transform="translate(63.623047 0)"/>
       <use xlink:href="#DejaVuSans-30" transform="translate(127.246094 0)"/>
       <use xlink:href="#DejaVuSans-30" transform="translate(190.869141 0)"/>
       <use xlink:href="#DejaVuSans-30" transform="translate(254.492188 0)"/>
       <use xlink:href="#DejaVuSans-30" transform="translate(318.115234 0)"/>
      </g>
     </g>
    </g>
    <g id="text_15">
     <!-- Pressure [Pa] -->
     <g transform="translate(14.798438 380.587187) rotate(-90) scale(0.1 -0.1)">
      <defs>
       <path id="DejaVuSans-50" d="M 1259 4147 
L 1259 2394 
L 2053 2394 
Q 2494 2394 2734 2622 
Q 2975 2850 2975 3272 
Q 2975 3691 2734 3919 
Q 2494 4147 2053 4147 
L 1259 4147 
z
M 628 4666 
L 2053 4666 
Q 2838 4666 3239 4311 
Q 3641 3956 3641 3272 
Q 3641 2581 3239 2228 
Q 2838 1875 2053 1875 
L 1259 1875 
L 1259 0 
L 628 0 
L 628 4666 
z
" transform="scale(0.015625)"/>
       <path id="DejaVuSans-73" d="M 2834 3397 
L 2834 2853 
Q 2591 2978 2328 3040 
Q 2066 3103 1784 3103 
Q 1356 3103 1142 2972 
Q 928 2841 928 2578 
Q 928 2378 1081 2264 
Q 1234 2150 1697 2047 
L 1894 2003 
Q 2506 1872 2764 1633 
Q 3022 1394 3022 966 
Q 3022 478 2636 193 
Q 2250 -91 1575 -91 
Q 1294 -91 989 -36 
Q 684 19 347 128 
L 347 722 
Q 666 556 975 473 
Q 1284 391 1588 391 
Q 1994 391 2212 530 
Q 2431 669 2431 922 
Q 2431 1156 2273 1281 
Q 2116 1406 1581 1522 
L 1381 1569 
Q 847 1681 609 1914 
Q 372 2147 372 2553 
Q 372 3047 722 3315 
Q 1072 3584 1716 3584 
Q 2034 3584 2315 3537 
Q 2597 3491 2834 3397 
z
" transform="scale(0.015625)"/>
      </defs>
      <use xlink:href="#DejaVuSans-50"/>
      <use xlink:href="#DejaVuSans-72" transform="translate(58.552734 0)"/>
      <use xlink:href="#DejaVuSans-65" transform="translate(97.416016 0)"/>
      <use xlink:href="#DejaVuSans-73" transform="translate(158.939453 0)"/>
      <use xlink:href="#DejaVuSans-73" transform="translate(211.039062 0)"/>
      <use xlink:href="#DejaVuSans-75" transform="translate(263.138672 0)"/>
      <use xlink:href="#DejaVuSans-72" transform="translate(326.517578 0)"/>
      <use xlink:href="#DejaVuSans-65" transform="translate(365.380859 0)"/>
      <use xlink:href="#DejaVuSans-20" transform="translate(426.904297 0)"/>
      <use xlink:href="#DejaVuSans-5b" transform="translate(458.691406 0)"/>
      <use xlink:href="#DejaVuSans-50" transform="translate(497.705078 0)"/>
      <use xlink:href="#DejaVuSans-61" transform="translate(553.507812 0)"/>
      <use xlink:href="#DejaVuSans-5d" transform="translate(614.787109 0)"/>
     </g>
    </g>
   </g>
   <g id="line2d_54">
    <path d="M 66.053125 347.898125 
L 836.883125 347.898125 
L 836.883125 347.898125 
" clip-path="url(#pcc827cb13f)" style="fill: none; stroke: #1d3557; stroke-width: 2; stroke-linecap: square"/>
   </g>
   <g id="patch_8">
    <path d="M 66.053125 446.298125 
L 66.053125 249.498125 
" style="fill: none; stroke: #000000; stroke-width: 0.8; stroke-linejoin: miter; stroke-linecap: square"/>
   </g>
   <g id="patch_9">
    <path d="M 836.883125 446.298125 
L 836.883125 249.498125 
" style="fill: none; stroke: #000000; stroke-width: 0.8; stroke-linejoin: miter; stroke-linecap: square"/>
   </g>
   <g id="patch_10">
    <path d="M 66.053125 446.298125 
L 836.883125 446.298125 
" style="fill: none; stroke: #000000; stroke-width: 0.8; stroke-linejoin: miter; stroke-linecap: square"/>
   </g>
   <g id="patch_11">
    <path d="M 66.053125 249.498125 
L 836.883125 249.498125 
" style="fill: none; stroke: #000000; stroke-width: 0.8; stroke-linejoin: miter; stroke-linecap: square"/>
   </g>
   <g id="text_16">
    <!-- Outlet Pressure -->
    <g transform="translate(405.359063 243.498125) scale(0.12 -0.12)">
     <use xlink:href="#DejaVuSans-4f"/>
     <use xlink:href="#DejaVuSans-75" transform="translate(78.710938 0)"/>
     <use xlink:href="#DejaVuSans-74" transform="translate(142.089844 0)"/>
     <use xlink:href="#DejaVuSans-6c" transform="translate(181.298828 0)"/>
     <use xlink:href="#DejaVuSans-65" transform="translate(209.082031 0)"/>
     <use xlink:href="#DejaVuSans-74" transform="translate(270.605469 0)"/>
     <use xlink:href="#DejaVuSans-20" transform="translate(309.814453 0)"/>
     <use xlink:href="#DejaVuSans-50" transform="translate(341.601562 0)"/>
     <use xlink:href="#DejaVuSans-72" transform="translate(400.154297 0)"/>
     <use xlink:href="#DejaVuSans-65" transform="translate(439.017578 0)"/>
     <use xlink:href="#DejaVuSans-73" transform="translate(500.541016 0)"/>
     <use xlink:href="#DejaVuSans-73" transform="translate(552.640625 0)"/>
     <use xlink:href="#DejaVuSans-75" transform="translate(604.740234 0)"/>
     <use xlink:href="#DejaVuSans-72" transform="translate(668.119141 0)"/>
     <use xlink:href="#DejaVuSans-65" transform="translate(706.982422 0)"/>
    </g>
   </g>
  </g>
  <g id="axes_3">
   <g id="patch_12">
    <path d="M 66.053125 673.478125 
L 836.883125 673.478125 
L 836.883125 476.678125 
L 66.053125 476.678125 
z
" style="fill: #ffffff"/>
   </g>
   <g id="matplotlib.axis_5">
    <g id="xtick_15">
     <g id="line2d_55">
      <path d="M 66.053125 673.478125 
L 66.053125 476.678125 
" clip-path="url(#pb6918a20b5)" style="fill: none; stroke: #b0b0b0; stroke-opacity: 0.3; stroke-width: 0.8; stroke-linecap: square"/>
     </g>
     <g id="line2d_56">
      <g>
       <use xlink:href="#mdf26ea1780" x="66.053125" y="673.478125" style="stroke: #000000; stroke-width: 0.8"/>
      </g>
     </g>
     <g id="text_17">
      <!-- 0 -->
      <g transform="translate(62.871875 688.076562) scale(0.1 -0.1)">
       <use xlink:href="#DejaVuSans-30"/>
      </g>
     </g>
    </g>
    <g id="xtick_16">
     <g id="line2d_57">
      <path d="M 194.524792 673.478125 
L 194.524792 476.678125 
" clip-path="url(#pb6918a20b5)" style="fill: none; stroke: #b0b0b0; stroke-opacity: 0.3; stroke-width: 0.8; stroke-linecap: square"/>
     </g>
     <g id="line2d_58">
      <g>
       <use xlink:href="#mdf26ea1780" x="194.524792" y="673.478125" style="stroke: #000000; stroke-width: 0.8"/>
      </g>
     </g>
     <g id="text_18">
      <!-- 500 -->
      <g transform="translate(184.981042 688.076562) scale(0.1 -0.1)">
       <use xlink:href="#DejaVuSans-35"/>
       <use xlink:href="#DejaVuSans-30" transform="translate(63.623047 0)"/>
       <use xlink:href="#DejaVuSans-30" transform="translate(127.246094 0)"/>
      </g>
     </g>
    </g>
    <g id="xtick_17">
     <g id="line2d_59">
      <path d="M 322.996458 673.478125 
L 322.996458 476.678125 
" clip-path="url(#pb6918a20b5)" style="fill: none; stroke: #b0b0b0; stroke-opacity: 0.3; stroke-width: 0.8; stroke-linecap: square"/>
     </g>
     <g id="line2d_60">
      <g>
       <use xlink:href="#mdf26ea1780" x="322.996458" y="673.478125" style="stroke: #000000; stroke-width: 0.8"/>
      </g>
     </g>
     <g id="text_19">
      <!-- 1000 -->
      <g transform="translate(310.271458 688.076562) scale(0.1 -0.1)">
       <use xlink:href="#DejaVuSans-31"/>
       <use xlink:href="#DejaVuSans-30" transform="translate(63.623047 0)"/>
       <use xlink:href="#DejaVuSans-30" transform="translate(127.246094 0)"/>
       <use xlink:href="#DejaVuSans-30" transform="translate(190.869141 0)"/>
      </g>
     </g>
    </g>
    <g id="xtick_18">
     <g id="line2d_61">
      <path d="M 451.468125 673.478125 
L 451.468125 476.678125 
" clip-path="url(#pb6918a20b5)" style="fill: none; stroke: #b0b0b0; stroke-opacity: 0.3; stroke-width: 0.8; stroke-linecap: square"/>
     </g>
     <g id="line2d_62">
      <g>
       <use xlink:href="#mdf26ea1780" x="451.468125" y="673.478125" style="stroke: #000000; stroke-width: 0.8"/>
      </g>
     </g>
     <g id="text_20">
      <!-- 1500 -->
      <g transform="translate(438.743125 688.076562) scale(0.1 -0.1)">
       <use xlink:href="#DejaVuSans-31"/>
       <use xlink:href="#DejaVuSans-35" transform="translate(63.623047 0)"/>
       <use xlink:href="#DejaVuSans-30" transform="translate(127.246094 0)"/>
       <use xlink:href="#DejaVuSans-30" transform="translate(190.869141 0)"/>
      </g>
     </g>
    </g>
    <g id="xtick_19">
     <g id="line2d_63">
      <path d="M 579.939792 673.478125 
L 579.939792 476.678125 
" clip-path="url(#pb6918a20b5)" style="fill: none; stroke: #b0b0b0; stroke-opacity: 0.3; stroke-width: 0.8; stroke-linecap: square"/>
     </g>
     <g id="line2d_64">
      <g>
       <use xlink:href="#mdf26ea1780" x="579.939792" y="673.478125" style="stroke: #000000; stroke-width: 0.8"/>
      </g>
     </g>
     <g id="text_21">
      <!-- 2000 -->
      <g transform="translate(567.214792 688.076562) scale(0.1 -0.1)">
       <use xlink:href="#DejaVuSans-32"/>
       <use xlink:href="#DejaVuSans-30" transform="translate(63.623047 0)"/>
       <use xlink:href="#DejaVuSans-30" transform="translate(127.246094 0)"/>
       <use xlink:href="#DejaVuSans-30" transform="translate(190.869141 0)"/>
      </g>
     </g>
    </g>
    <g id="xtick_20">
     <g id="line2d_65">
      <path d="M 708.411458 673.478125 
L 708.411458 476.678125 
" clip-path="url(#pb6918a20b5)" style="fill: none; stroke: #b0b0b0; stroke-opacity: 0.3; stroke-width: 0.8; stroke-linecap: square"/>
     </g>
     <g id="line2d_66">
      <g>
       <use xlink:href="#mdf26ea1780" x="708.411458" y="673.478125" style="stroke: #000000; stroke-width: 0.8"/>
      </g>
     </g>
     <g id="text_22">
      <!-- 2500 -->
      <g transform="translate(695.686458 688.076562) scale(0.1 -0.1)">
       <use xlink:href="#DejaVuSans-32"/>
       <use xlink:href="#DejaVuSans-35" transform="translate(63.623047 0)"/>
       <use xlink:href="#DejaVuSans-30" transform="translate(127.246094 0)"/>
       <use xlink:href="#DejaVuSans-30" transform="translate(190.869141 0)"/>
      </g>
     </g>
    </g>
    <g id="xtick_21">
     <g id="line2d_67">
      <path d="M 836.883125 673.478125 
L 836.883125 476.678125 
" clip-path="url(#pb6918a20b5)" style="fill: none; stroke: #b0b0b0; stroke-opacity: 0.3; stroke-width: 0.8; stroke-linecap: square"/>
     </g>
     <g id="line2d_68">
      <g>
       <use xlink:href="#mdf26ea1780" x="836.883125" y="673.478125" style="stroke: #000000; stroke-width: 0.8"/>
      </g>
     </g>
     <g id="text_23">
      <!-- 3000 -->
      <g transform="translate(824.158125 688.076562) scale(0.1 -0.1)">
       <use xlink:href="#DejaVuSans-33"/>
       <use xlink:href="#DejaVuSans-30" transform="translate(63.623047 0)"/>
       <use xlink:href="#DejaVuSans-30" transform="translate(127.246094 0)"/>
       <use xlink:href="#DejaVuSans-30" transform="translate(190.869141 0)"/>
      </g>
     </g>
    </g>
    <g id="text_24">
     <!-- Time [s] -->
     <g transform="translate(431.139219 701.754687) scale(0.1 -0.1)">
      <defs>
       <path id="DejaVuSans-69" d="M 603 3500 
L 1178 3500 
L 1178 0 
L 603 0 
L 603 3500 
z
M 603 4863 
L 1178 4863 
L 1178 4134 
L 603 4134 
L 603 4863 
z
" transform="scale(0.015625)"/>
      </defs>
      <use xlink:href="#DejaVuSans-54"/>
      <use xlink:href="#DejaVuSans-69" transform="translate(57.958984 0)"/>
      <use xlink:href="#DejaVuSans-6d" transform="translate(85.742188 0)"/>
      <use xlink:href="#DejaVuSans-65" transform="translate(183.154297 0)"/>
      <use xlink:href="#DejaVuSans-20" transform="translate(244.677734 0)"/>
      <use xlink:href="#DejaVuSans-5b" transform="translate(276.464844 0)"/>
      <use xlink:href="#DejaVuSans-73" transform="translate(315.478516 0)"/>
      <use xlink:href="#DejaVuSans-5d" transform="translate(367.578125 0)"/>
     </g>
    </g>
   </g>
   <g id="matplotlib.axis_6">
    <g id="ytick_13">
     <g id="line2d_69">
      <path d="M 66.053125 665.636055 
L 836.883125 665.636055 
" clip-path="url(#pb6918a20b5)" style="fill: none; stroke: #b0b0b0; stroke-opacity: 0.3; stroke-width: 0.8; stroke-linecap: square"/>
     </g>
     <g id="line2d_70">
      <g>
       <use xlink:href="#mfadd408a8e" x="66.053125" y="665.636055" style="stroke: #000000; stroke-width: 0.8"/>
      </g>
     </g>
     <g id="text_25">
      <!-- 0.8 -->
      <g transform="translate(43.15 669.435274) scale(0.1 -0.1)">
       <defs>
        <path id="DejaVuSans-2e" d="M 684 794 
L 1344 794 
L 1344 0 
L 684 0 
L 684 794 
z
" transform="scale(0.015625)"/>
       </defs>
       <use xlink:href="#DejaVuSans-30"/>
       <use xlink:href="#DejaVuSans-2e" transform="translate(63.623047 0)"/>
       <use xlink:href="#DejaVuSans-38" transform="translate(95.410156 0)"/>
      </g>
     </g>
    </g>
    <g id="ytick_14">
     <g id="line2d_71">
      <path d="M 66.053125 635.360263 
L 836.883125 635.360263 
" clip-path="url(#pb6918a20b5)" style="fill: none; stroke: #b0b0b0; stroke-opacity: 0.3; stroke-width: 0.8; stroke-linecap: square"/>
     </g>
     <g id="line2d_72">
      <g>
       <use xlink:href="#mfadd408a8e" x="66.053125" y="635.360263" style="stroke: #000000; stroke-width: 0.8"/>
      </g>
     </g>
     <g id="text_26">
      <!-- 0.9 -->
      <g transform="translate(43.15 639.159482) scale(0.1 -0.1)">
       <use xlink:href="#DejaVuSans-30"/>
       <use xlink:href="#DejaVuSans-2e" transform="translate(63.623047 0)"/>
       <use xlink:href="#DejaVuSans-39" transform="translate(95.410156 0)"/>
      </g>
     </g>
    </g>
    <g id="ytick_15">
     <g id="line2d_73">
      <path d="M 66.053125 605.084471 
L 836.883125 605.084471 
" clip-path="url(#pb6918a20b5)" style="fill: none; stroke: #b0b0b0; stroke-opacity: 0.3; stroke-width: 0.8; stroke-linecap: square"/>
     </g>
     <g id="line2d_74">
      <g>
       <use xlink:href="#mfadd408a8e" x="66.053125" y="605.084471" style="stroke: #000000; stroke-width: 0.8"/>
      </g>
     </g>
     <g id="text_27">
      <!-- 1.0 -->
      <g transform="translate(43.15 608.88369) scale(0.1 -0.1)">
       <use xlink:href="#DejaVuSans-31"/>
       <use xlink:href="#DejaVuSans-2e" transform="translate(63.623047 0)"/>
       <use xlink:href="#DejaVuSans-30" transform="translate(95.410156 0)"/>
      </g>
     </g>
    </g>
    <g id="ytick_16">
     <g id="line2d_75">
      <path d="M 66.053125 574.808678 
L 836.883125 574.808678 
" clip-path="url(#pb6918a20b5)" style="fill: none; stroke: #b0b0b0; stroke-opacity: 0.3; stroke-width: 0.8; stroke-linecap: square"/>
     </g>
     <g id="line2d_76">
      <g>
       <use xlink:href="#mfadd408a8e" x="66.053125" y="574.808678" style="stroke: #000000; stroke-width: 0.8"/>
      </g>
     </g>
     <g id="text_28">
      <!-- 1.1 -->
      <g transform="translate(43.15 578.607897) scale(0.1 -0.1)">
       <use xlink:href="#DejaVuSans-31"/>
       <use xlink:href="#DejaVuSans-2e" transform="translate(63.623047 0)"/>
       <use xlink:href="#DejaVuSans-31" transform="translate(95.410156 0)"/>
      </g>
     </g>
    </g>
    <g id="ytick_17">
     <g id="line2d_77">
      <path d="M 66.053125 544.532886 
L 836.883125 544.532886 
" clip-path="url(#pb6918a20b5)" style="fill: none; stroke: #b0b0b0; stroke-opacity: 0.3; stroke-width: 0.8; stroke-linecap: square"/>
     </g>
     <g id="line2d_78">
      <g>
       <use xlink:href="#mfadd408a8e" x="66.053125" y="544.532886" style="stroke: #000000; stroke-width: 0.8"/>
      </g>
     </g>
     <g id="text_29">
      <!-- 1.2 -->
      <g transform="translate(43.15 548.332105) scale(0.1 -0.1)">
       <use xlink:href="#DejaVuSans-31"/>
       <use xlink:href="#DejaVuSans-2e" transform="translate(63.623047 0)"/>
       <use xlink:href="#DejaVuSans-32" transform="translate(95.410156 0)"/>
      </g>
     </g>
    </g>
    <g id="ytick_18">
     <g id="line2d_79">
      <path d="M 66.053125 514.257094 
L 836.883125 514.257094 
" clip-path="url(#pb6918a20b5)" style="fill: none; stroke: #b0b0b0; stroke-opacity: 0.3; stroke-width: 0.8; stroke-linecap: square"/>
     </g>
     <g id="line2d_80">
      <g>
       <use xlink:href="#mfadd408a8e" x="66.053125" y="514.257094" style="stroke: #000000; stroke-width: 0.8"/>
      </g>
     </g>
     <g id="text_30">
      <!-- 1.3 -->
      <g transform="translate(43.15 518.056313) scale(0.1 -0.1)">
       <use xlink:href="#DejaVuSans-31"/>
       <use xlink:href="#DejaVuSans-2e" transform="translate(63.623047 0)"/>
       <use xlink:href="#DejaVuSans-33" transform="translate(95.410156 0)"/>
      </g>
     </g>
    </g>
    <g id="ytick_19">
     <g id="line2d_81">
      <path d="M 66.053125 483.981301 
L 836.883125 483.981301 
" clip-path="url(#pb6918a20b5)" style="fill: none; stroke: #b0b0b0; stroke-opacity: 0.3; stroke-width: 0.8; stroke-linecap: square"/>
     </g>
     <g id="line2d_82">
      <g>
       <use xlink:href="#mfadd408a8e" x="66.053125" y="483.981301" style="stroke: #000000; stroke-width: 0.8"/>
      </g>
     </g>
     <g id="text_31">
      <!-- 1.4 -->
      <g transform="translate(43.15 487.78052) scale(0.1 -0.1)">
       <use xlink:href="#DejaVuSans-31"/>
       <use xlink:href="#DejaVuSans-2e" transform="translate(63.623047 0)"/>
       <use xlink:href="#DejaVuSans-34" transform="translate(95.410156 0)"/>
      </g>
     </g>
    </g>
    <g id="text_32">
     <!-- Flowrate [mol/s] -->
     <g transform="translate(37.070312 615.746094) rotate(-90) scale(0.1 -0.1)">
      <defs>
       <path id="DejaVuSans-46" d="M 628 4666 
L 3309 4666 
L 3309 4134 
L 1259 4134 
L 1259 2759 
L 3109 2759 
L 3109 2228 
L 1259 2228 
L 1259 0 
L 628 0 
L 628 4666 
z
" transform="scale(0.015625)"/>
       <path id="DejaVuSans-6f" d="M 1959 3097 
Q 1497 3097 1228 2736 
Q 959 2375 959 1747 
Q 959 1119 1226 758 
Q 1494 397 1959 397 
Q 2419 397 2687 759 
Q 2956 1122 2956 1747 
Q 2956 2369 2687 2733 
Q 2419 3097 1959 3097 
z
M 1959 3584 
Q 2709 3584 3137 3096 
Q 3566 2609 3566 1747 
Q 3566 888 3137 398 
Q 2709 -91 1959 -91 
Q 1206 -91 779 398 
Q 353 888 353 1747 
Q 353 2609 779 3096 
Q 1206 3584 1959 3584 
z
" transform="scale(0.015625)"/>
       <path id="DejaVuSans-77" d="M 269 3500 
L 844 3500 
L 1563 769 
L 2278 3500 
L 2956 3500 
L 3675 769 
L 4391 3500 
L 4966 3500 
L 4050 0 
L 3372 0 
L 2619 2869 
L 1863 0 
L 1184 0 
L 269 3500 
z
" transform="scale(0.015625)"/>
       <path id="DejaVuSans-2f" d="M 1625 4666 
L 2156 4666 
L 531 -594 
L 0 -594 
L 1625 4666 
z
" transform="scale(0.015625)"/>
      </defs>
      <use xlink:href="#DejaVuSans-46"/>
      <use xlink:href="#DejaVuSans-6c" transform="translate(57.519531 0)"/>
      <use xlink:href="#DejaVuSans-6f" transform="translate(85.302734 0)"/>
      <use xlink:href="#DejaVuSans-77" transform="translate(146.484375 0)"/>
      <use xlink:href="#DejaVuSans-72" transform="translate(228.271484 0)"/>
      <use xlink:href="#DejaVuSans-61" transform="translate(269.384766 0)"/>
      <use xlink:href="#DejaVuSans-74" transform="translate(330.664062 0)"/>
      <use xlink:href="#DejaVuSans-65" transform="translate(369.873047 0)"/>
      <use xlink:href="#DejaVuSans-20" transform="translate(431.396484 0)"/>
      <use xlink:href="#DejaVuSans-5b" transform="translate(463.183594 0)"/>
      <use xlink:href="#DejaVuSans-6d" transform="translate(502.197266 0)"/>
      <use xlink:href="#DejaVuSans-6f" transform="translate(599.609375 0)"/>
      <use xlink:href="#DejaVuSans-6c" transform="translate(660.791016 0)"/>
      <use xlink:href="#DejaVuSans-2f" transform="translate(688.574219 0)"/>
      <use xlink:href="#DejaVuSans-73" transform="translate(722.265625 0)"/>
      <use xlink:href="#DejaVuSans-5d" transform="translate(774.365234 0)"/>
     </g>
    </g>
   </g>
   <g id="line2d_83">
    <path d="M 66.053125 605.084215 
L 66.823955 639.562944 
L 67.337842 658.54063 
L 67.594785 662.134345 
L 67.851728 663.199763 
L 68.365615 663.845418 
L 69.136445 664.131 
L 70.421162 664.262459 
L 71.705878 664.180536 
L 72.476708 663.936729 
L 72.990595 663.532101 
L 73.504482 662.601921 
L 73.761425 661.960639 
L 74.018368 661.840749 
L 74.789198 664.082465 
L 75.303085 664.296499 
L 76.587802 664.32846 
L 77.872518 664.155352 
L 78.386405 663.94318 
L 78.900292 663.489254 
L 79.414178 662.484057 
L 79.671122 661.914611 
L 79.928065 662.077857 
L 80.441952 663.824067 
L 80.698895 664.16158 
L 81.212782 664.319687 
L 82.754442 664.32401 
L 83.782215 664.147564 
L 84.296102 663.91418 
L 84.809988 663.408505 
L 85.580818 661.88269 
L 85.837762 662.327439 
L 86.351648 663.961485 
L 86.608592 664.212602 
L 87.122478 664.330808 
L 88.664138 664.322404 
L 89.691912 664.128259 
L 90.205798 663.870104 
L 90.719685 663.302267 
L 91.490515 661.911718 
L 92.261345 664.061735 
L 92.775232 664.311594 
L 94.059948 664.347895 
L 95.344665 664.183332 
L 95.858552 663.982959 
L 96.372438 663.560729 
L 96.886325 662.61268 
L 97.143268 662.015119 
L 97.400212 662.013838 
L 97.914098 663.739268 
L 98.171042 664.129525 
L 98.684928 664.313459 
L 99.969645 664.33264 
L 100.997418 664.209053 
L 101.768248 663.915684 
L 102.282135 663.435524 
L 102.796022 662.392452 
L 103.052965 661.871687 
L 103.309908 662.132544 
L 103.823795 663.792387 
L 104.080738 664.06897 
L 104.594625 664.143021 
L 105.108512 664.028621 
L 105.365455 663.891638 
L 105.622398 663.625609 
L 105.879342 663.00481 
L 106.136285 661.132648 
L 106.393228 656.046836 
L 106.907115 637.031816 
L 107.421002 616.597894 
L 107.677945 610.062377 
L 107.934888 607.107883 
L 108.191832 606.032679 
L 108.448775 605.620559 
L 108.962662 605.322557 
L 109.990435 605.157053 
L 112.816812 605.075411 
L 135.941712 604.984969 
L 169.858232 604.978488 
L 170.629062 604.827373 
L 171.656835 605.061838 
L 174.997098 605.063329 
L 178.851248 604.934034 
L 179.879022 604.750473 
L 180.392908 604.514384 
L 180.649852 604.291372 
L 180.906795 603.903777 
L 181.163738 603.124878 
L 181.420682 601.134626 
L 181.677625 594.348752 
L 182.191512 556.810603 
L 182.962342 497.181224 
L 183.219285 490.805032 
L 183.476228 489.68499 
L 183.990115 489.001934 
L 184.504002 488.623937 
L 185.531775 488.244861 
L 187.587322 487.820213 
L 190.927585 487.353284 
L 197.865055 486.675 
L 203.003922 486.3466 
L 217.649692 485.834014 
L 229.212142 485.640442 
L 236.149612 485.653514 
L 245.399572 485.803234 
L 246.170402 486.088031 
L 246.427345 486.302252 
L 246.684288 486.686924 
L 246.941232 487.519934 
L 247.198175 489.934802 
L 247.455118 496.771784 
L 247.969005 528.118844 
L 248.739835 588.130712 
L 248.996778 598.383005 
L 249.253722 602.798224 
L 249.510665 604.121169 
L 249.767608 604.505738 
L 250.281495 604.77437 
L 251.309268 604.964721 
L 253.621758 605.087625 
L 258.246738 605.287188 
L 259.017568 605.508188 
L 259.274512 605.691318 
L 259.531455 606.055196 
L 259.788398 606.971381 
L 260.045342 610.078304 
L 260.559228 628.271183 
L 261.330058 657.909469 
L 261.587002 661.531419 
L 261.843945 662.625479 
L 262.357832 663.31835 
L 263.128662 663.66042 
L 264.156435 663.831211 
L 265.441152 663.811582 
L 266.211982 663.606839 
L 266.725868 663.26342 
L 267.239755 662.473159 
L 267.753642 661.00721 
L 268.010585 661.011324 
L 268.524472 663.066633 
L 268.781415 663.51707 
L 269.295302 663.75513 
L 270.580018 663.855431 
L 271.607792 663.751216 
L 272.378622 663.420322 
L 272.892508 662.837338 
L 273.406395 661.526003 
L 273.663338 660.879972 
L 273.920282 661.246195 
L 274.434168 663.282613 
L 274.691112 663.633983 
L 275.204998 663.82371 
L 276.489715 663.910191 
L 277.517488 663.795508 
L 278.031375 663.605592 
L 278.545262 663.191175 
L 278.802205 662.807727 
L 279.573035 660.973625 
L 279.829978 661.647067 
L 280.343865 663.527704 
L 280.600808 663.798388 
L 281.114695 663.948383 
L 282.399412 664.018323 
L 283.427185 663.894634 
L 283.941072 663.696554 
L 284.454958 663.257654 
L 284.711902 662.847447 
L 285.225788 661.483183 
L 285.482732 661.274434 
L 286.253562 663.830093 
L 286.767448 664.111058 
L 288.052165 664.204162 
L 289.079938 664.127972 
L 289.850768 663.871594 
L 290.364655 663.420795 
L 290.878542 662.376812 
L 291.135485 661.734753 
L 291.392428 661.822335 
L 291.906315 663.809259 
L 292.163258 664.223554 
L 292.677145 664.417471 
L 294.218805 664.4481 
L 295.246578 664.298523 
L 295.760465 664.090567 
L 296.274352 663.635871 
L 296.788238 662.626223 
L 297.045182 662.127421 
L 297.302125 662.43477 
L 297.816012 664.177962 
L 298.072955 664.460462 
L 298.586842 664.528601 
L 299.100728 664.413651 
L 299.614615 664.036973 
L 299.871558 663.482837 
L 300.128502 661.863013 
L 300.385445 657.342419 
L 300.899332 639.116023 
L 301.670162 611.283149 
L 301.927105 607.735727 
L 302.184048 606.360443 
L 302.440992 605.838558 
L 302.954878 605.487353 
L 303.982652 605.30671 
L 306.552085 605.222753 
L 325.822835 605.123487 
L 363.850448 605.081618 
L 364.364335 604.758736 
L 364.878222 604.934076 
L 365.392108 605.145246 
L 366.676825 605.181936 
L 372.586522 605.057756 
L 373.871238 604.850189 
L 374.385125 604.613823 
L 374.642068 604.390755 
L 374.899012 604.003232 
L 375.155955 603.224758 
L 375.412898 601.236244 
L 375.669842 594.462015 
L 376.183728 557.205908 
L 376.954558 497.633553 
L 377.211502 489.925784 
L 377.468445 487.577302 
L 377.725388 486.725714 
L 378.239275 486.104994 
L 379.010105 485.825815 
L 380.294822 485.705694 
L 384.148972 485.666582 
L 438.877902 485.807441 
L 439.905675 486.030866 
L 440.419562 486.359504 
L 440.676505 486.716732 
L 440.933448 487.489272 
L 441.190392 489.718801 
L 441.447335 495.920398 
L 441.704278 507.553929 
L 442.218165 545.295106 
L 442.732052 584.501592 
L 442.988995 596.276878 
L 443.245938 602.104565 
L 443.502882 604.010151 
L 443.759825 604.510236 
L 444.273712 604.796805 
L 445.301485 604.986883 
L 447.613975 605.108191 
L 452.238955 605.304624 
L 453.009785 605.525133 
L 453.266728 605.708112 
L 453.523672 606.071936 
L 453.780615 606.988267 
L 454.037558 610.096201 
L 454.551445 628.289625 
L 455.322275 657.923909 
L 455.579218 661.543859 
L 455.836162 662.637508 
L 456.350048 663.329849 
L 457.120878 663.671434 
L 458.148652 663.841611 
L 459.433368 663.821293 
L 460.204198 663.615499 
L 460.718085 663.271855 
L 461.231972 662.480883 
L 461.745858 661.014055 
L 462.002802 661.01707 
L 462.516688 663.071943 
L 462.773632 663.522342 
L 463.287518 663.759811 
L 464.572235 663.859075 
L 465.600008 663.753638 
L 466.370838 663.419826 
L 466.884725 662.836283 
L 467.398612 661.522106 
L 467.655555 660.872608 
L 467.912498 661.238015 
L 468.426385 663.273472 
L 468.683328 663.624923 
L 469.197215 663.814525 
L 470.481932 663.899547 
L 471.509705 663.782061 
L 472.023592 663.589553 
L 472.537478 663.171082 
L 472.794422 662.784276 
L 473.565252 660.93365 
L 473.822195 661.601109 
L 474.336082 663.483351 
L 474.593025 663.755115 
L 475.106912 663.905423 
L 476.391628 663.972708 
L 477.419402 663.841908 
L 477.933288 663.635906 
L 478.447175 663.186361 
L 478.704118 662.765722 
L 479.474948 661.138554 
L 480.245778 663.700887 
L 480.759665 663.986188 
L 482.044382 664.078871 
L 483.072155 663.991521 
L 483.842985 663.713214 
L 484.356872 663.233427 
L 484.870758 662.125038 
L 485.127702 661.436433 
L 485.384645 661.491873 
L 485.898532 663.509206 
L 486.155475 663.939265 
L 486.669362 664.15176 
L 487.954078 664.216042 
L 488.981852 664.113803 
L 489.752682 663.819287 
L 490.266568 663.313666 
L 490.780455 662.181253 
L 491.037398 661.622216 
L 491.294342 661.95434 
L 491.808228 663.821094 
L 492.065172 664.123794 
L 492.579058 664.215497 
L 493.092945 664.119708 
L 493.606832 663.766899 
L 493.863775 663.236103 
L 494.120718 661.665103 
L 494.377662 657.256932 
L 494.891548 639.25121 
L 495.662378 611.418212 
L 495.919322 607.79208 
L 496.176265 606.373813 
L 496.433208 605.835789 
L 496.947095 605.476961 
L 497.974868 605.294324 
L 500.544302 605.209156 
L 520.328938 605.097423 
L 557.585722 605.071193 
L 558.099608 604.892218 
L 558.356552 604.71072 
L 558.870438 604.889039 
L 559.384325 605.105191 
L 560.669042 605.145288 
L 566.578738 605.02058 
L 567.863455 604.812844 
L 568.377342 604.576363 
L 568.634285 604.353209 
L 568.891228 603.965533 
L 569.148172 603.186766 
L 569.405115 601.197415 
L 569.662058 594.420209 
L 570.175945 557.157995 
L 570.946775 497.622283 
L 571.203718 490.003361 
L 571.460662 487.781555 
L 571.717605 486.993146 
L 572.231492 486.397092 
L 573.002322 486.123067 
L 574.287038 486.005296 
L 578.398132 485.967804 
L 617.967405 485.886241 
L 631.328458 485.942608 
L 633.384005 486.120201 
L 634.154835 486.392302 
L 634.411778 486.593343 
L 634.668722 486.949967 
L 634.925665 487.717176 
L 635.182608 489.935705 
L 635.439552 496.098363 
L 635.696495 507.635602 
L 636.210382 545.147603 
L 636.724268 584.322662 
L 636.981212 596.163376 
L 637.238155 602.050594 
L 637.495098 603.979968 
L 637.752042 604.484611 
L 638.265928 604.771946 
L 639.293702 604.962178 
L 641.606192 605.083799 
L 646.231172 605.280842 
L 647.002002 605.501479 
L 647.258945 605.684542 
L 647.515888 606.048423 
L 647.772832 606.965033 
L 648.029775 610.073696 
L 648.543662 628.269291 
L 649.314492 657.906504 
L 649.571435 661.525014 
L 649.828378 662.618643 
L 650.342265 663.311017 
L 651.113095 663.652708 
L 652.140868 663.822953 
L 653.425585 663.802604 
L 654.196415 663.597111 
L 654.710302 663.253934 
L 655.224188 662.463095 
L 655.738075 660.995966 
L 655.995018 660.998195 
L 656.508905 663.053225 
L 656.765848 663.503613 
L 657.279735 663.741527 
L 658.564452 663.840915 
L 659.592225 663.735633 
L 660.363055 663.40178 
L 660.876942 662.818236 
L 661.390828 661.505174 
L 661.647772 660.855213 
L 661.904715 661.219085 
L 662.418602 663.255404 
L 662.675545 663.606965 
L 663.189432 663.796634 
L 664.474148 663.881753 
L 665.501922 663.764221 
L 666.015808 663.571828 
L 666.529695 663.15354 
L 666.786638 662.766663 
L 667.557468 660.915829 
L 667.814412 661.583038 
L 668.328298 663.465648 
L 668.585242 663.737337 
L 669.099128 663.887697 
L 670.383845 663.955016 
L 671.411618 663.82413 
L 671.925505 663.618506 
L 672.439392 663.167505 
L 672.696335 662.748685 
L 673.467165 661.121129 
L 674.237995 663.682273 
L 674.751882 663.967436 
L 676.036598 664.060006 
L 677.064372 663.972648 
L 677.835202 663.693781 
L 678.349088 663.213152 
L 678.862975 662.10229 
L 679.119918 661.411924 
L 679.376862 661.470818 
L 679.890748 663.484583 
L 680.147692 663.914867 
L 680.661578 664.127225 
L 681.946295 664.190619 
L 682.974068 664.086917 
L 683.744898 663.790573 
L 684.258785 663.281353 
L 684.772672 662.144877 
L 685.029615 661.578037 
L 685.286558 661.909675 
L 685.800445 663.777516 
L 686.057388 664.081439 
L 686.571275 664.172146 
L 687.085162 664.077441 
L 687.599048 663.724736 
L 687.855992 663.194185 
L 688.112935 661.625168 
L 688.369878 657.219874 
L 688.883765 639.22322 
L 689.654595 611.395806 
L 689.911538 607.768981 
L 690.168482 606.350094 
L 690.425425 605.811751 
L 690.939312 605.453049 
L 691.967085 605.270562 
L 694.536518 605.185753 
L 714.578098 605.0734 
L 751.577938 605.053395 
L 752.091825 604.874769 
L 752.348768 604.693521 
L 752.862655 604.872312 
L 753.376542 605.089313 
L 754.661258 605.130771 
L 760.570955 605.006837 
L 761.855672 604.799242 
L 762.369558 604.562809 
L 762.626502 604.339666 
L 762.883445 603.952 
L 763.140388 603.173198 
L 763.397332 601.183714 
L 763.654275 594.405982 
L 764.168162 557.141676 
L 764.938992 497.618407 
L 765.195935 490.078632 
L 765.452878 487.993314 
L 765.709822 487.287306 
L 766.223708 486.723086 
L 766.994538 486.449418 
L 768.536198 486.313824 
L 773.418122 486.253039 
L 825.577618 486.017247 
L 827.376222 486.183126 
L 828.147052 486.453681 
L 828.403995 486.652938 
L 828.660938 487.008536 
L 828.917882 487.774805 
L 829.174825 489.990582 
L 829.431768 496.149507 
L 829.688712 507.678754 
L 830.202598 545.162738 
L 830.716485 584.313202 
L 830.973428 596.150863 
L 831.230372 602.037983 
L 831.487315 603.968285 
L 831.744258 604.473187 
L 832.258145 604.759988 
L 833.285918 604.948259 
L 835.598408 605.061663 
L 836.883125 605.083345 
L 836.883125 605.083345 
" clip-path="url(#pb6918a20b5)" style="fill: none; stroke: #2a9d8f; stroke-width: 2; stroke-linecap: square"/>
   </g>
   <g id="patch_13">
    <path d="M 66.053125 673.478125 
L 66.053125 476.678125 
" style="fill: none; stroke: #000000; stroke-width: 0.8; stroke-linejoin: miter; stroke-linecap: square"/>
   </g>
   <g id="patch_14">
    <path d="M 836.883125 673.478125 
L 836.883125 476.678125 
" style="fill: none; stroke: #000000; stroke-width: 0.8; stroke-linejoin: miter; stroke-linecap: square"/>
   </g>
   <g id="patch_15">
    <path d="M 66.053125 673.478125 
L 836.883125 673.478125 
" style="fill: none; stroke: #000000; stroke-width: 0.8; stroke-linejoin: miter; stroke-linecap: square"/>
   </g>
   <g id="patch_16">
    <path d="M 66.053125 476.678125 
L 836.883125 476.678125 
" style="fill: none; stroke: #000000; stroke-width: 0.8; stroke-linejoin: miter; stroke-linecap: square"/>
   </g>
   <g id="text_33">
    <!-- Overall Outlet Flowrate -->
    <g transform="translate(381.73875 470.678125) scale(0.12 -0.12)">
     <defs>
      <path id="DejaVuSans-76" d="M 191 3500 
L 800 3500 
L 1894 563 
L 2988 3500 
L 3597 3500 
L 2284 0 
L 1503 0 
L 191 3500 
z
" transform="scale(0.015625)"/>
     </defs>
     <use xlink:href="#DejaVuSans-4f"/>
     <use xlink:href="#DejaVuSans-76" transform="translate(78.710938 0)"/>
     <use xlink:href="#DejaVuSans-65" transform="translate(137.890625 0)"/>
     <use xlink:href="#DejaVuSans-72" transform="translate(199.414062 0)"/>
     <use xlink:href="#DejaVuSans-61" transform="translate(240.527344 0)"/>
     <use xlink:href="#DejaVuSans-6c" transform="translate(301.806641 0)"/>
     <use xlink:href="#DejaVuSans-6c" transform="translate(329.589844 0)"/>
     <use xlink:href="#DejaVuSans-20" transform="translate(357.373047 0)"/>
     <use xlink:href="#DejaVuSans-4f" transform="translate(389.160156 0)"/>
     <use xlink:href="#DejaVuSans-75" transform="translate(467.871094 0)"/>
     <use xlink:href="#DejaVuSans-74" transform="translate(531.25 0)"/>
     <use xlink:href="#DejaVuSans-6c" transform="translate(570.458984 0)"/>
     <use xlink:href="#DejaVuSans-65" transform="translate(598.242188 0)"/>
     <use xlink:href="#DejaVuSans-74" transform="translate(659.765625 0)"/>
     <use xlink:href="#DejaVuSans-20" transform="translate(698.974609 0)"/>
     <use xlink:href="#DejaVuSans-46" transform="translate(730.761719 0)"/>
     <use xlink:href="#DejaVuSans-6c" transform="translate(788.28125 0)"/>
     <use xlink:href="#DejaVuSans-6f" transform="translate(816.064453 0)"/>
     <use xlink:href="#DejaVuSans-77" transform="translate(877.246094 0)"/>
     <use xlink:href="#DejaVuSans-72" transform="translate(959.033203 0)"/>
     <use xlink:href="#DejaVuSans-61" transform="translate(1000.146484 0)"/>
     <use xlink:href="#DejaVuSans-74" transform="translate(1061.425781 0)"/>
     <use xlink:href="#DejaVuSans-65" transform="translate(1100.634766 0)"/>
    </g>
   </g>
  </g>
 </g>
 <defs>
  <clipPath id="p199f2330d9">
   <rect x="66.053125" y="22.318125" width="770.83" height="196.8"/>
  </clipPath>
  <clipPath id="pcc827cb13f">
   <rect x="66.053125" y="249.498125" width="770.83" height="196.8"/>
  </clipPath>
  <clipPath id="pb6918a20b5">
   <rect x="66.053125" y="476.678125" width="770.83" height="196.8"/>
  </clipPath>
 </defs>
</svg>
