<?xml version="1.0" encoding="utf-8" standalone="no"?>
<!DOCTYPE svg PUBLIC "-//W3C//DTD SVG 1.1//EN"
  "http://www.w3.org/Graphics/SVG/1.1/DTD/svg11.dtd">
<svg xmlns:xlink="http://www.w3.org/1999/xlink" width="856.593125pt" height="711.034375pt" viewBox="0 0 856.593125 711.034375" xmlns="http://www.w3.org/2000/svg" version="1.1">
 <metadata>
  <rdf:RDF xmlns:dc="http://purl.org/dc/elements/1.1/" xmlns:cc="http://creativecommons.org/ns#" xmlns:rdf="http://www.w3.org/1999/02/22-rdf-syntax-ns#">
   <cc:Work>
    <dc:type rdf:resource="http://purl.org/dc/dcmitype/StillImage"/>
    <dc:date>2026-04-21T11:27:00.123476</dc:date>
    <dc:format>image/svg+xml</dc:format>
    <dc:creator>
     <cc:Agent>
      <dc:title>Matplotlib v3.10.8, https://matplotlib.org/</dc:title>
     </cc:Agent>
    </dc:creator>
   </cc:Work>
  </rdf:RDF>
 </metadata>
 <defs>
  <style type="text/css">*{stroke-linejoin: round; stroke-linecap: butt}</style>
 </defs>
 <g id="figure_1">
  <g id="patch_1">
   <path d="M 0 711.034375 
L 856.593125 711.034375 
L 856.593125 0 
L 0 0 
z
" style="fill: #ffffff"/>
  </g>
  <g id="axes_1">
   <g id="patch_2">
    <path d="M 53.328125 219.118125 
L 836.668125 219.118125 
L 836.668125 22.318125 
L 53.328125 22.318125 
z
" style="fill: #ffffff"/>
   </g>
   <g id="matplotlib.axis_1">
    <g id="xtick_1">
     <g id="line2d_1">
      <path d="M 53.328125 219.118125 
L 53.328125 22.318125 
" clip-path="url(#p4abe54082a)" style="fill: none; stroke: #b0b0b0; stroke-opacity: 0.3; stroke-width: 0.8; stroke-linecap: square"/>
     </g>
     <g id="line2d_2">
      <defs>
       <path id="mab4aa75532" d="M 0 0 
L 0 3.5 
" style="stroke: #000000; stroke-width: 0.8"/>
      </defs>
      <g>
       <use xlink:href="#mab4aa75532" x="53.328125" y="219.118125" style="stroke: #000000; stroke-width: 0.8"/>
      </g>
     </g>
    </g>
    <g id="xtick_2">
     <g id="line2d_3">
      <path d="M 183.884792 219.118125 
L 183.884792 22.318125 
" clip-path="url(#p4abe54082a)" style="fill: none; stroke: #b0b0b0; stroke-opacity: 0.3; stroke-width: 0.8; stroke-linecap: square"/>
     </g>
     <g id="line2d_4">
      <g>
       <use xlink:href="#mab4aa75532" x="183.884792" y="219.118125" style="stroke: #000000; stroke-width: 0.8"/>
      </g>
     </g>
    </g>
    <g id="xtick_3">
     <g id="line2d_5">
      <path d="M 314.441458 219.118125 
L 314.441458 22.318125 
" clip-path="url(#p4abe54082a)" style="fill: none; stroke: #b0b0b0; stroke-opacity: 0.3; stroke-width: 0.8; stroke-linecap: square"/>
     </g>
     <g id="line2d_6">
      <g>
       <use xlink:href="#mab4aa75532" x="314.441458" y="219.118125" style="stroke: #000000; stroke-width: 0.8"/>
      </g>
     </g>
    </g>
    <g id="xtick_4">
     <g id="line2d_7">
      <path d="M 444.998125 219.118125 
L 444.998125 22.318125 
" clip-path="url(#p4abe54082a)" style="fill: none; stroke: #b0b0b0; stroke-opacity: 0.3; stroke-width: 0.8; stroke-linecap: square"/>
     </g>
     <g id="line2d_8">
      <g>
       <use xlink:href="#mab4aa75532" x="444.998125" y="219.118125" style="stroke: #000000; stroke-width: 0.8"/>
      </g>
     </g>
    </g>
    <g id="xtick_5">
     <g id="line2d_9">
      <path d="M 575.554792 219.118125 
L 575.554792 22.318125 
" clip-path="url(#p4abe54082a)" style="fill: none; stroke: #b0b0b0; stroke-opacity: 0.3; stroke-width: 0.8; stroke-linecap: square"/>
     </g>
     <g id="line2d_10">
      <g>
       <use xlink:href="#mab4aa75532" x="575.554792" y="219.118125" style="stroke: #000000; stroke-width: 0.8"/>
      </g>
     </g>
    </g>
    <g id="xtick_6">
     <g id="line2d_11">
      <path d="M 706.111458 219.118125 
L 706.111458 22.318125 
" clip-path="url(#p4abe54082a)" style="fill: none; stroke: #b0b0b0; stroke-opacity: 0.3; stroke-width: 0.8; stroke-linecap: square"/>
     </g>
     <g id="line2d_12">
      <g>
       <use xlink:href="#mab4aa75532" x="706.111458" y="219.118125" style="stroke: #000000; stroke-width: 0.8"/>
      </g>
     </g>
    </g>
    <g id="xtick_7">
     <g id="line2d_13">
      <path d="M 836.668125 219.118125 
L 836.668125 22.318125 
" clip-path="url(#p4abe54082a)" style="fill: none; stroke: #b0b0b0; stroke-opacity: 0.3; stroke-width: 0.8; stroke-linecap: square"/>
     </g>
     <g id="line2d_14">
      <g>
       <use xlink:href="#mab4aa75532" x="836.668125" y="219.118125" style="stroke: #000000; stroke-width: 0.8"/>
      </g>
     </g>
    </g>
   </g>
   <g id="matplotlib.axis_2">
    <g id="ytick_1">
     <g id="line2d_15">
      <path d="M 53.328125 210.099167 
L 836.668125 210.099167 
" clip-path="url(#p4abe54082a)" style="fill: none; stroke: #b0b0b0; stroke-opacity: 0.3; stroke-width: 0.8; stroke-linecap: square"/>
     </g>
     <g id="line2d_16">
      <defs>
       <path id="m160bfb30bf" d="M 0 0 
L -3.5 0 
" style="stroke: #000000; stroke-width: 0.8"/>
      </defs>
      <g>
       <use xlink:href="#m160bfb30bf" x="53.328125" y="210.099167" style="stroke: #000000; stroke-width: 0.8"/>
      </g>
     </g>
     <g id="text_1">
      <!-- 600 -->
      <g transform="translate(27.240625 213.898386) scale(0.1 -0.1)">
       <defs>
        <path id="DejaVuSans-36" d="M 2113 2584 
Q 1688 2584 1439 2293 
Q 1191 2003 1191 1497 
Q 1191 994 1439 701 
Q 1688 409 2113 409 
Q 2538 409 2786 701 
Q 3034 994 3034 1497 
Q 3034 2003 2786 2293 
Q 2538 2584 2113 2584 
z
M 3366 4563 
L 3366 3988 
Q 3128 4100 2886 4159 
Q 2644 4219 2406 4219 
Q 1781 4219 1451 3797 
Q 1122 3375 1075 2522 
Q 1259 2794 1537 2939 
Q 1816 3084 2150 3084 
Q 2853 3084 3261 2657 
Q 3669 2231 3669 1497 
Q 3669 778 3244 343 
Q 2819 -91 2113 -91 
Q 1303 -91 875 529 
Q 447 1150 447 2328 
Q 447 3434 972 4092 
Q 1497 4750 2381 4750 
Q 2619 4750 2861 4703 
Q 3103 4656 3366 4563 
z
" transform="scale(0.015625)"/>
        <path id="DejaVuSans-30" d="M 2034 4250 
Q 1547 4250 1301 3770 
Q 1056 3291 1056 2328 
Q 1056 1369 1301 889 
Q 1547 409 2034 409 
Q 2525 409 2770 889 
Q 3016 1369 3016 2328 
Q 3016 3291 2770 3770 
Q 2525 4250 2034 4250 
z
M 2034 4750 
Q 2819 4750 3233 4129 
Q 3647 3509 3647 2328 
Q 3647 1150 3233 529 
Q 2819 -91 2034 -91 
Q 1250 -91 836 529 
Q 422 1150 422 2328 
Q 422 3509 836 4129 
Q 1250 4750 2034 4750 
z
" transform="scale(0.015625)"/>
       </defs>
       <use xlink:href="#DejaVuSans-36"/>
       <use xlink:href="#DejaVuSans-30" transform="translate(63.623047 0)"/>
       <use xlink:href="#DejaVuSans-30" transform="translate(127.246094 0)"/>
      </g>
     </g>
    </g>
    <g id="ytick_2">
     <g id="line2d_17">
      <path d="M 53.328125 181.320514 
L 836.668125 181.320514 
" clip-path="url(#p4abe54082a)" style="fill: none; stroke: #b0b0b0; stroke-opacity: 0.3; stroke-width: 0.8; stroke-linecap: square"/>
     </g>
     <g id="line2d_18">
      <g>
       <use xlink:href="#m160bfb30bf" x="53.328125" y="181.320514" style="stroke: #000000; stroke-width: 0.8"/>
      </g>
     </g>
     <g id="text_2">
      <!-- 700 -->
      <g transform="translate(27.240625 185.119733) scale(0.1 -0.1)">
       <defs>
        <path id="DejaVuSans-37" d="M 525 4666 
L 3525 4666 
L 3525 4397 
L 1831 0 
L 1172 0 
L 2766 4134 
L 525 4134 
L 525 4666 
z
" transform="scale(0.015625)"/>
       </defs>
       <use xlink:href="#DejaVuSans-37"/>
       <use xlink:href="#DejaVuSans-30" transform="translate(63.623047 0)"/>
       <use xlink:href="#DejaVuSans-30" transform="translate(127.246094 0)"/>
      </g>
     </g>
    </g>
    <g id="ytick_3">
     <g id="line2d_19">
      <path d="M 53.328125 152.541861 
L 836.668125 152.541861 
" clip-path="url(#p4abe54082a)" style="fill: none; stroke: #b0b0b0; stroke-opacity: 0.3; stroke-width: 0.8; stroke-linecap: square"/>
     </g>
     <g id="line2d_20">
      <g>
       <use xlink:href="#m160bfb30bf" x="53.328125" y="152.541861" style="stroke: #000000; stroke-width: 0.8"/>
      </g>
     </g>
     <g id="text_3">
      <!-- 800 -->
      <g transform="translate(27.240625 156.341079) scale(0.1 -0.1)">
       <defs>
        <path id="DejaVuSans-38" d="M 2034 2216 
Q 1584 2216 1326 1975 
Q 1069 1734 1069 1313 
Q 1069 891 1326 650 
Q 1584 409 2034 409 
Q 2484 409 2743 651 
Q 3003 894 3003 1313 
Q 3003 1734 2745 1975 
Q 2488 2216 2034 2216 
z
M 1403 2484 
Q 997 2584 770 2862 
Q 544 3141 544 3541 
Q 544 4100 942 4425 
Q 1341 4750 2034 4750 
Q 2731 4750 3128 4425 
Q 3525 4100 3525 3541 
Q 3525 3141 3298 2862 
Q 3072 2584 2669 2484 
Q 3125 2378 3379 2068 
Q 3634 1759 3634 1313 
Q 3634 634 3220 271 
Q 2806 -91 2034 -91 
Q 1263 -91 848 271 
Q 434 634 434 1313 
Q 434 1759 690 2068 
Q 947 2378 1403 2484 
z
M 1172 3481 
Q 1172 3119 1398 2916 
Q 1625 2713 2034 2713 
Q 2441 2713 2670 2916 
Q 2900 3119 2900 3481 
Q 2900 3844 2670 4047 
Q 2441 4250 2034 4250 
Q 1625 4250 1398 4047 
Q 1172 3844 1172 3481 
z
" transform="scale(0.015625)"/>
       </defs>
       <use xlink:href="#DejaVuSans-38"/>
       <use xlink:href="#DejaVuSans-30" transform="translate(63.623047 0)"/>
       <use xlink:href="#DejaVuSans-30" transform="translate(127.246094 0)"/>
      </g>
     </g>
    </g>
    <g id="ytick_4">
     <g id="line2d_21">
      <path d="M 53.328125 123.763208 
L 836.668125 123.763208 
" clip-path="url(#p4abe54082a)" style="fill: none; stroke: #b0b0b0; stroke-opacity: 0.3; stroke-width: 0.8; stroke-linecap: square"/>
     </g>
     <g id="line2d_22">
      <g>
       <use xlink:href="#m160bfb30bf" x="53.328125" y="123.763208" style="stroke: #000000; stroke-width: 0.8"/>
      </g>
     </g>
     <g id="text_4">
      <!-- 900 -->
      <g transform="translate(27.240625 127.562426) scale(0.1 -0.1)">
       <defs>
        <path id="DejaVuSans-39" d="M 703 97 
L 703 672 
Q 941 559 1184 500 
Q 1428 441 1663 441 
Q 2288 441 2617 861 
Q 2947 1281 2994 2138 
Q 2813 1869 2534 1725 
Q 2256 1581 1919 1581 
Q 1219 1581 811 2004 
Q 403 2428 403 3163 
Q 403 3881 828 4315 
Q 1253 4750 1959 4750 
Q 2769 4750 3195 4129 
Q 3622 3509 3622 2328 
Q 3622 1225 3098 567 
Q 2575 -91 1691 -91 
Q 1453 -91 1209 -44 
Q 966 3 703 97 
z
M 1959 2075 
Q 2384 2075 2632 2365 
Q 2881 2656 2881 3163 
Q 2881 3666 2632 3958 
Q 2384 4250 1959 4250 
Q 1534 4250 1286 3958 
Q 1038 3666 1038 3163 
Q 1038 2656 1286 2365 
Q 1534 2075 1959 2075 
z
" transform="scale(0.015625)"/>
       </defs>
       <use xlink:href="#DejaVuSans-39"/>
       <use xlink:href="#DejaVuSans-30" transform="translate(63.623047 0)"/>
       <use xlink:href="#DejaVuSans-30" transform="translate(127.246094 0)"/>
      </g>
     </g>
    </g>
    <g id="ytick_5">
     <g id="line2d_23">
      <path d="M 53.328125 94.984554 
L 836.668125 94.984554 
" clip-path="url(#p4abe54082a)" style="fill: none; stroke: #b0b0b0; stroke-opacity: 0.3; stroke-width: 0.8; stroke-linecap: square"/>
     </g>
     <g id="line2d_24">
      <g>
       <use xlink:href="#m160bfb30bf" x="53.328125" y="94.984554" style="stroke: #000000; stroke-width: 0.8"/>
      </g>
     </g>
     <g id="text_5">
      <!-- 1000 -->
      <g transform="translate(20.878125 98.783773) scale(0.1 -0.1)">
       <defs>
        <path id="DejaVuSans-31" d="M 794 531 
L 1825 531 
L 1825 4091 
L 703 3866 
L 703 4441 
L 1819 4666 
L 2450 4666 
L 2450 531 
L 3481 531 
L 3481 0 
L 794 0 
L 794 531 
z
" transform="scale(0.015625)"/>
       </defs>
       <use xlink:href="#DejaVuSans-31"/>
       <use xlink:href="#DejaVuSans-30" transform="translate(63.623047 0)"/>
       <use xlink:href="#DejaVuSans-30" transform="translate(127.246094 0)"/>
       <use xlink:href="#DejaVuSans-30" transform="translate(190.869141 0)"/>
      </g>
     </g>
    </g>
    <g id="ytick_6">
     <g id="line2d_25">
      <path d="M 53.328125 66.205901 
L 836.668125 66.205901 
" clip-path="url(#p4abe54082a)" style="fill: none; stroke: #b0b0b0; stroke-opacity: 0.3; stroke-width: 0.8; stroke-linecap: square"/>
     </g>
     <g id="line2d_26">
      <g>
       <use xlink:href="#m160bfb30bf" x="53.328125" y="66.205901" style="stroke: #000000; stroke-width: 0.8"/>
      </g>
     </g>
     <g id="text_6">
      <!-- 1100 -->
      <g transform="translate(20.878125 70.00512) scale(0.1 -0.1)">
       <use xlink:href="#DejaVuSans-31"/>
       <use xlink:href="#DejaVuSans-31" transform="translate(63.623047 0)"/>
       <use xlink:href="#DejaVuSans-30" transform="translate(127.246094 0)"/>
       <use xlink:href="#DejaVuSans-30" transform="translate(190.869141 0)"/>
      </g>
     </g>
    </g>
    <g id="ytick_7">
     <g id="line2d_27">
      <path d="M 53.328125 37.427248 
L 836.668125 37.427248 
" clip-path="url(#p4abe54082a)" style="fill: none; stroke: #b0b0b0; stroke-opacity: 0.3; stroke-width: 0.8; stroke-linecap: square"/>
     </g>
     <g id="line2d_28">
      <g>
       <use xlink:href="#m160bfb30bf" x="53.328125" y="37.427248" style="stroke: #000000; stroke-width: 0.8"/>
      </g>
     </g>
     <g id="text_7">
      <!-- 1200 -->
      <g transform="translate(20.878125 41.226467) scale(0.1 -0.1)">
       <defs>
        <path id="DejaVuSans-32" d="M 1228 531 
L 3431 531 
L 3431 0 
L 469 0 
L 469 531 
Q 828 903 1448 1529 
Q 2069 2156 2228 2338 
Q 2531 2678 2651 2914 
Q 2772 3150 2772 3378 
Q 2772 3750 2511 3984 
Q 2250 4219 1831 4219 
Q 1534 4219 1204 4116 
Q 875 4013 500 3803 
L 500 4441 
Q 881 4594 1212 4672 
Q 1544 4750 1819 4750 
Q 2544 4750 2975 4387 
Q 3406 4025 3406 3419 
Q 3406 3131 3298 2873 
Q 3191 2616 2906 2266 
Q 2828 2175 2409 1742 
Q 1991 1309 1228 531 
z
" transform="scale(0.015625)"/>
       </defs>
       <use xlink:href="#DejaVuSans-31"/>
       <use xlink:href="#DejaVuSans-32" transform="translate(63.623047 0)"/>
       <use xlink:href="#DejaVuSans-30" transform="translate(127.246094 0)"/>
       <use xlink:href="#DejaVuSans-30" transform="translate(190.869141 0)"/>
      </g>
     </g>
    </g>
    <g id="text_8">
     <!-- Temperature [K] -->
     <g transform="translate(14.798438 161.157187) rotate(-90) scale(0.1 -0.1)">
      <defs>
       <path id="DejaVuSans-54" d="M -19 4666 
L 3928 4666 
L 3928 4134 
L 2272 4134 
L 2272 0 
L 1638 0 
L 1638 4134 
L -19 4134 
L -19 4666 
z
" transform="scale(0.015625)"/>
       <path id="DejaVuSans-65" d="M 3597 1894 
L 3597 1613 
L 953 1613 
Q 991 1019 1311 708 
Q 1631 397 2203 397 
Q 2534 397 2845 478 
Q 3156 559 3463 722 
L 3463 178 
Q 3153 47 2828 -22 
Q 2503 -91 2169 -91 
Q 1331 -91 842 396 
Q 353 884 353 1716 
Q 353 2575 817 3079 
Q 1281 3584 2069 3584 
Q 2775 3584 3186 3129 
Q 3597 2675 3597 1894 
z
M 3022 2063 
Q 3016 2534 2758 2815 
Q 2500 3097 2075 3097 
Q 1594 3097 1305 2825 
Q 1016 2553 972 2059 
L 3022 2063 
z
" transform="scale(0.015625)"/>
       <path id="DejaVuSans-6d" d="M 3328 2828 
Q 3544 3216 3844 3400 
Q 4144 3584 4550 3584 
Q 5097 3584 5394 3201 
Q 5691 2819 5691 2113 
L 5691 0 
L 5113 0 
L 5113 2094 
Q 5113 2597 4934 2840 
Q 4756 3084 4391 3084 
Q 3944 3084 3684 2787 
Q 3425 2491 3425 1978 
L 3425 0 
L 2847 0 
L 2847 2094 
Q 2847 2600 2669 2842 
Q 2491 3084 2119 3084 
Q 1678 3084 1418 2786 
Q 1159 2488 1159 1978 
L 1159 0 
L 581 0 
L 581 3500 
L 1159 3500 
L 1159 2956 
Q 1356 3278 1631 3431 
Q 1906 3584 2284 3584 
Q 2666 3584 2933 3390 
Q 3200 3197 3328 2828 
z
" transform="scale(0.015625)"/>
       <path id="DejaVuSans-70" d="M 1159 525 
L 1159 -1331 
L 581 -1331 
L 581 3500 
L 1159 3500 
L 1159 2969 
Q 1341 3281 1617 3432 
Q 1894 3584 2278 3584 
Q 2916 3584 3314 3078 
Q 3713 2572 3713 1747 
Q 3713 922 3314 415 
Q 2916 -91 2278 -91 
Q 1894 -91 1617 61 
Q 1341 213 1159 525 
z
M 3116 1747 
Q 3116 2381 2855 2742 
Q 2594 3103 2138 3103 
Q 1681 3103 1420 2742 
Q 1159 2381 1159 1747 
Q 1159 1113 1420 752 
Q 1681 391 2138 391 
Q 2594 391 2855 752 
Q 3116 1113 3116 1747 
z
" transform="scale(0.015625)"/>
       <path id="DejaVuSans-72" d="M 2631 2963 
Q 2534 3019 2420 3045 
Q 2306 3072 2169 3072 
Q 1681 3072 1420 2755 
Q 1159 2438 1159 1844 
L 1159 0 
L 581 0 
L 581 3500 
L 1159 3500 
L 1159 2956 
Q 1341 3275 1631 3429 
Q 1922 3584 2338 3584 
Q 2397 3584 2469 3576 
Q 2541 3569 2628 3553 
L 2631 2963 
z
" transform="scale(0.015625)"/>
       <path id="DejaVuSans-61" d="M 2194 1759 
Q 1497 1759 1228 1600 
Q 959 1441 959 1056 
Q 959 750 1161 570 
Q 1363 391 1709 391 
Q 2188 391 2477 730 
Q 2766 1069 2766 1631 
L 2766 1759 
L 2194 1759 
z
M 3341 1997 
L 3341 0 
L 2766 0 
L 2766 531 
Q 2569 213 2275 61 
Q 1981 -91 1556 -91 
Q 1019 -91 701 211 
Q 384 513 384 1019 
Q 384 1609 779 1909 
Q 1175 2209 1959 2209 
L 2766 2209 
L 2766 2266 
Q 2766 2663 2505 2880 
Q 2244 3097 1772 3097 
Q 1472 3097 1187 3025 
Q 903 2953 641 2809 
L 641 3341 
Q 956 3463 1253 3523 
Q 1550 3584 1831 3584 
Q 2591 3584 2966 3190 
Q 3341 2797 3341 1997 
z
" transform="scale(0.015625)"/>
       <path id="DejaVuSans-74" d="M 1172 4494 
L 1172 3500 
L 2356 3500 
L 2356 3053 
L 1172 3053 
L 1172 1153 
Q 1172 725 1289 603 
Q 1406 481 1766 481 
L 2356 481 
L 2356 0 
L 1766 0 
Q 1100 0 847 248 
Q 594 497 594 1153 
L 594 3053 
L 172 3053 
L 172 3500 
L 594 3500 
L 594 4494 
L 1172 4494 
z
" transform="scale(0.015625)"/>
       <path id="DejaVuSans-75" d="M 544 1381 
L 544 3500 
L 1119 3500 
L 1119 1403 
Q 1119 906 1312 657 
Q 1506 409 1894 409 
Q 2359 409 2629 706 
Q 2900 1003 2900 1516 
L 2900 3500 
L 3475 3500 
L 3475 0 
L 2900 0 
L 2900 538 
Q 2691 219 2414 64 
Q 2138 -91 1772 -91 
Q 1169 -91 856 284 
Q 544 659 544 1381 
z
M 1991 3584 
L 1991 3584 
z
" transform="scale(0.015625)"/>
       <path id="DejaVuSans-20" transform="scale(0.015625)"/>
       <path id="DejaVuSans-5b" d="M 550 4863 
L 1875 4863 
L 1875 4416 
L 1125 4416 
L 1125 -397 
L 1875 -397 
L 1875 -844 
L 550 -844 
L 550 4863 
z
" transform="scale(0.015625)"/>
       <path id="DejaVuSans-4b" d="M 628 4666 
L 1259 4666 
L 1259 2694 
L 3353 4666 
L 4166 4666 
L 1850 2491 
L 4331 0 
L 3500 0 
L 1259 2247 
L 1259 0 
L 628 0 
L 628 4666 
z
" transform="scale(0.015625)"/>
       <path id="DejaVuSans-5d" d="M 1947 4863 
L 1947 -844 
L 622 -844 
L 622 -397 
L 1369 -397 
L 1369 4416 
L 622 4416 
L 622 4863 
L 1947 4863 
z
" transform="scale(0.015625)"/>
      </defs>
      <use xlink:href="#DejaVuSans-54"/>
      <use xlink:href="#DejaVuSans-65" transform="translate(44.083984 0)"/>
      <use xlink:href="#DejaVuSans-6d" transform="translate(105.607422 0)"/>
      <use xlink:href="#DejaVuSans-70" transform="translate(203.019531 0)"/>
      <use xlink:href="#DejaVuSans-65" transform="translate(266.496094 0)"/>
      <use xlink:href="#DejaVuSans-72" transform="translate(328.019531 0)"/>
      <use xlink:href="#DejaVuSans-61" transform="translate(369.132812 0)"/>
      <use xlink:href="#DejaVuSans-74" transform="translate(430.412109 0)"/>
      <use xlink:href="#DejaVuSans-75" transform="translate(469.621094 0)"/>
      <use xlink:href="#DejaVuSans-72" transform="translate(533 0)"/>
      <use xlink:href="#DejaVuSans-65" transform="translate(571.863281 0)"/>
      <use xlink:href="#DejaVuSans-20" transform="translate(633.386719 0)"/>
      <use xlink:href="#DejaVuSans-5b" transform="translate(665.173828 0)"/>
      <use xlink:href="#DejaVuSans-4b" transform="translate(704.1875 0)"/>
      <use xlink:href="#DejaVuSans-5d" transform="translate(769.763672 0)"/>
     </g>
    </g>
   </g>
   <g id="line2d_29">
    <path d="M 53.328125 210.099167 
L 133.228805 209.989611 
L 150.984512 209.979299 
L 160.123478 209.865682 
L 162.995725 209.596679 
L 164.040178 209.334673 
L 164.823518 208.930821 
L 165.867972 208.108223 
L 166.912425 206.963822 
L 167.956878 205.487683 
L 169.001332 203.629406 
L 169.784672 201.846529 
L 170.306898 200.03792 
L 170.568012 198.372228 
L 171.090238 193.026637 
L 171.873578 182.148782 
L 174.745825 136.367537 
L 176.573618 109.189728 
L 177.095845 103.393316 
L 177.356958 102.541462 
L 178.140298 102.492703 
L 267.702172 102.624787 
L 298.252432 102.89395 
L 320.969292 103.310912 
L 325.669332 103.321371 
L 327.497125 103.289053 
L 341.597245 103.737911 
L 344.469492 103.967966 
L 346.297285 104.341612 
L 347.080625 104.706119 
L 347.863965 105.408496 
L 348.647305 106.480606 
L 349.691758 108.345956 
L 351.258438 111.221568 
L 352.041778 112.085828 
L 352.825118 112.619707 
L 353.869572 113.053336 
L 362.225198 115.612792 
L 365.619672 117.064862 
L 370.319712 119.350477 
L 383.897605 126.138625 
L 386.769852 127.17392 
L 389.642098 127.912047 
L 393.558798 128.667426 
L 399.042178 129.400162 
L 408.181145 130.415133 
L 411.053392 130.493897 
L 411.836732 130.356113 
L 412.881185 129.907728 
L 413.925638 129.158487 
L 414.970092 128.101025 
L 416.014545 126.706161 
L 416.797885 125.374544 
L 417.320112 124.238566 
L 417.581225 123.467081 
L 417.842338 122.240563 
L 418.364565 117.506295 
L 419.147905 107.119073 
L 424.109058 34.299706 
L 424.370172 31.947919 
L 424.631285 31.26358 
L 425.675738 31.384492 
L 444.998125 34.260481 
L 461.448265 36.929996 
L 475.809498 39.484466 
L 488.865165 42.032651 
L 500.876378 44.599563 
L 512.365365 47.278151 
L 523.593238 50.123855 
L 534.559998 53.1318 
L 545.526758 56.37141 
L 556.493518 59.843482 
L 567.721392 63.634727 
L 579.210378 67.751997 
L 589.916025 71.781243 
L 590.177138 71.448477 
L 592.788272 71.0688 
L 593.571612 71.087509 
L 594.616065 71.420332 
L 597.749425 72.798799 
L 602.188352 75.000961 
L 604.538372 76.394272 
L 606.366165 77.677583 
L 607.149505 78.592752 
L 607.932845 79.900219 
L 608.977298 82.137962 
L 610.021752 84.890926 
L 610.805092 86.9942 
L 611.849545 88.92391 
L 615.505132 94.992804 
L 619.160718 100.611666 
L 623.077418 106.199575 
L 631.171932 117.235898 
L 634.827518 121.919056 
L 638.221992 125.901489 
L 641.355352 129.246074 
L 644.488712 132.262478 
L 647.099845 134.485779 
L 649.972092 136.607789 
L 651.799885 137.669155 
L 653.888792 138.607419 
L 656.238812 139.423946 
L 659.633285 140.34406 
L 662.244418 140.805919 
L 664.594438 141.018812 
L 665.377778 140.907978 
L 666.422232 140.491877 
L 667.466685 139.77114 
L 668.511138 138.738047 
L 669.555592 137.358048 
L 670.338932 136.013984 
L 670.861158 134.80003 
L 671.122272 133.852581 
L 671.383385 132.231168 
L 671.905612 126.922015 
L 672.950065 112.383989 
L 677.127878 50.359315 
L 677.650105 44.118944 
L 677.911218 42.492186 
L 678.172332 42.319565 
L 684.177938 43.833458 
L 693.578018 46.389653 
L 702.194758 48.958053 
L 710.550385 51.675625 
L 718.906012 54.627649 
L 727.261638 57.81706 
L 735.878378 61.350557 
L 744.756232 65.239805 
L 753.895198 69.487376 
L 763.817505 74.35125 
L 774.523152 79.85209 
L 786.795478 86.416499 
L 801.940052 94.78419 
L 836.668125 114.325899 
L 836.668125 114.325899 
" clip-path="url(#p4abe54082a)" style="fill: none; stroke: #d94841; stroke-width: 2; stroke-linecap: square"/>
   </g>
   <g id="patch_3">
    <path d="M 53.328125 219.118125 
L 53.328125 22.318125 
" style="fill: none; stroke: #000000; stroke-width: 0.8; stroke-linejoin: miter; stroke-linecap: square"/>
   </g>
   <g id="patch_4">
    <path d="M 836.668125 219.118125 
L 836.668125 22.318125 
" style="fill: none; stroke: #000000; stroke-width: 0.8; stroke-linejoin: miter; stroke-linecap: square"/>
   </g>
   <g id="patch_5">
    <path d="M 53.328125 219.118125 
L 836.668125 219.118125 
" style="fill: none; stroke: #000000; stroke-width: 0.8; stroke-linejoin: miter; stroke-linecap: square"/>
   </g>
   <g id="patch_6">
    <path d="M 53.328125 22.318125 
L 836.668125 22.318125 
" style="fill: none; stroke: #000000; stroke-width: 0.8; stroke-linejoin: miter; stroke-linecap: square"/>
   </g>
   <g id="text_9">
    <!-- Outlet Temperature -->
    <g transform="translate(386.499063 16.318125) scale(0.12 -0.12)">
     <defs>
      <path id="DejaVuSans-4f" d="M 2522 4238 
Q 1834 4238 1429 3725 
Q 1025 3213 1025 2328 
Q 1025 1447 1429 934 
Q 1834 422 2522 422 
Q 3209 422 3611 934 
Q 4013 1447 4013 2328 
Q 4013 3213 3611 3725 
Q 3209 4238 2522 4238 
z
M 2522 4750 
Q 3503 4750 4090 4092 
Q 4678 3434 4678 2328 
Q 4678 1225 4090 567 
Q 3503 -91 2522 -91 
Q 1538 -91 948 565 
Q 359 1222 359 2328 
Q 359 3434 948 4092 
Q 1538 4750 2522 4750 
z
" transform="scale(0.015625)"/>
      <path id="DejaVuSans-6c" d="M 603 4863 
L 1178 4863 
L 1178 0 
L 603 0 
L 603 4863 
z
" transform="scale(0.015625)"/>
     </defs>
     <use xlink:href="#DejaVuSans-4f"/>
     <use xlink:href="#DejaVuSans-75" transform="translate(78.710938 0)"/>
     <use xlink:href="#DejaVuSans-74" transform="translate(142.089844 0)"/>
     <use xlink:href="#DejaVuSans-6c" transform="translate(181.298828 0)"/>
     <use xlink:href="#DejaVuSans-65" transform="translate(209.082031 0)"/>
     <use xlink:href="#DejaVuSans-74" transform="translate(270.605469 0)"/>
     <use xlink:href="#DejaVuSans-20" transform="translate(309.814453 0)"/>
     <use xlink:href="#DejaVuSans-54" transform="translate(341.601562 0)"/>
     <use xlink:href="#DejaVuSans-65" transform="translate(385.685547 0)"/>
     <use xlink:href="#DejaVuSans-6d" transform="translate(447.208984 0)"/>
     <use xlink:href="#DejaVuSans-70" transform="translate(544.621094 0)"/>
     <use xlink:href="#DejaVuSans-65" transform="translate(608.097656 0)"/>
     <use xlink:href="#DejaVuSans-72" transform="translate(669.621094 0)"/>
     <use xlink:href="#DejaVuSans-61" transform="translate(710.734375 0)"/>
     <use xlink:href="#DejaVuSans-74" transform="translate(772.013672 0)"/>
     <use xlink:href="#DejaVuSans-75" transform="translate(811.222656 0)"/>
     <use xlink:href="#DejaVuSans-72" transform="translate(874.601562 0)"/>
     <use xlink:href="#DejaVuSans-65" transform="translate(913.464844 0)"/>
    </g>
   </g>
  </g>
  <g id="axes_2">
   <g id="patch_7">
    <path d="M 53.328125 446.298125 
L 836.668125 446.298125 
L 836.668125 249.498125 
L 53.328125 249.498125 
z
" style="fill: #ffffff"/>
   </g>
   <g id="matplotlib.axis_3">
    <g id="xtick_8">
     <g id="line2d_30">
      <path d="M 53.328125 446.298125 
L 53.328125 249.498125 
" clip-path="url(#pcc1c191237)" style="fill: none; stroke: #b0b0b0; stroke-opacity: 0.3; stroke-width: 0.8; stroke-linecap: square"/>
     </g>
     <g id="line2d_31">
      <g>
       <use xlink:href="#mab4aa75532" x="53.328125" y="446.298125" style="stroke: #000000; stroke-width: 0.8"/>
      </g>
     </g>
    </g>
    <g id="xtick_9">
     <g id="line2d_32">
      <path d="M 183.884792 446.298125 
L 183.884792 249.498125 
" clip-path="url(#pcc1c191237)" style="fill: none; stroke: #b0b0b0; stroke-opacity: 0.3; stroke-width: 0.8; stroke-linecap: square"/>
     </g>
     <g id="line2d_33">
      <g>
       <use xlink:href="#mab4aa75532" x="183.884792" y="446.298125" style="stroke: #000000; stroke-width: 0.8"/>
      </g>
     </g>
    </g>
    <g id="xtick_10">
     <g id="line2d_34">
      <path d="M 314.441458 446.298125 
L 314.441458 249.498125 
" clip-path="url(#pcc1c191237)" style="fill: none; stroke: #b0b0b0; stroke-opacity: 0.3; stroke-width: 0.8; stroke-linecap: square"/>
     </g>
     <g id="line2d_35">
      <g>
       <use xlink:href="#mab4aa75532" x="314.441458" y="446.298125" style="stroke: #000000; stroke-width: 0.8"/>
      </g>
     </g>
    </g>
    <g id="xtick_11">
     <g id="line2d_36">
      <path d="M 444.998125 446.298125 
L 444.998125 249.498125 
" clip-path="url(#pcc1c191237)" style="fill: none; stroke: #b0b0b0; stroke-opacity: 0.3; stroke-width: 0.8; stroke-linecap: square"/>
     </g>
     <g id="line2d_37">
      <g>
       <use xlink:href="#mab4aa75532" x="444.998125" y="446.298125" style="stroke: #000000; stroke-width: 0.8"/>
      </g>
     </g>
    </g>
    <g id="xtick_12">
     <g id="line2d_38">
      <path d="M 575.554792 446.298125 
L 575.554792 249.498125 
" clip-path="url(#pcc1c191237)" style="fill: none; stroke: #b0b0b0; stroke-opacity: 0.3; stroke-width: 0.8; stroke-linecap: square"/>
     </g>
     <g id="line2d_39">
      <g>
       <use xlink:href="#mab4aa75532" x="575.554792" y="446.298125" style="stroke: #000000; stroke-width: 0.8"/>
      </g>
     </g>
    </g>
    <g id="xtick_13">
     <g id="line2d_40">
      <path d="M 706.111458 446.298125 
L 706.111458 249.498125 
" clip-path="url(#pcc1c191237)" style="fill: none; stroke: #b0b0b0; stroke-opacity: 0.3; stroke-width: 0.8; stroke-linecap: square"/>
     </g>
     <g id="line2d_41">
      <g>
       <use xlink:href="#mab4aa75532" x="706.111458" y="446.298125" style="stroke: #000000; stroke-width: 0.8"/>
      </g>
     </g>
    </g>
    <g id="xtick_14">
     <g id="line2d_42">
      <path d="M 836.668125 446.298125 
L 836.668125 249.498125 
" clip-path="url(#pcc1c191237)" style="fill: none; stroke: #b0b0b0; stroke-opacity: 0.3; stroke-width: 0.8; stroke-linecap: square"/>
     </g>
     <g id="line2d_43">
      <g>
       <use xlink:href="#mab4aa75532" x="836.668125" y="446.298125" style="stroke: #000000; stroke-width: 0.8"/>
      </g>
     </g>
    </g>
   </g>
   <g id="matplotlib.axis_4">
    <g id="ytick_8">
     <g id="line2d_44">
      <path d="M 53.328125 419.461761 
L 836.668125 419.461761 
" clip-path="url(#pcc1c191237)" style="fill: none; stroke: #b0b0b0; stroke-opacity: 0.3; stroke-width: 0.8; stroke-linecap: square"/>
     </g>
     <g id="line2d_45">
      <g>
       <use xlink:href="#m160bfb30bf" x="53.328125" y="419.461761" style="stroke: #000000; stroke-width: 0.8"/>
      </g>
     </g>
     <g id="text_10">
      <!-- 4.8 -->
      <g transform="translate(30.425 423.26098) scale(0.1 -0.1)">
       <defs>
        <path id="DejaVuSans-34" d="M 2419 4116 
L 825 1625 
L 2419 1625 
L 2419 4116 
z
M 2253 4666 
L 3047 4666 
L 3047 1625 
L 3713 1625 
L 3713 1100 
L 3047 1100 
L 3047 0 
L 2419 0 
L 2419 1100 
L 313 1100 
L 313 1709 
L 2253 4666 
z
" transform="scale(0.015625)"/>
        <path id="DejaVuSans-2e" d="M 684 794 
L 1344 794 
L 1344 0 
L 684 0 
L 684 794 
z
" transform="scale(0.015625)"/>
       </defs>
       <use xlink:href="#DejaVuSans-34"/>
       <use xlink:href="#DejaVuSans-2e" transform="translate(63.623047 0)"/>
       <use xlink:href="#DejaVuSans-38" transform="translate(95.410156 0)"/>
      </g>
     </g>
    </g>
    <g id="ytick_9">
     <g id="line2d_46">
      <path d="M 53.328125 383.679943 
L 836.668125 383.679943 
" clip-path="url(#pcc1c191237)" style="fill: none; stroke: #b0b0b0; stroke-opacity: 0.3; stroke-width: 0.8; stroke-linecap: square"/>
     </g>
     <g id="line2d_47">
      <g>
       <use xlink:href="#m160bfb30bf" x="53.328125" y="383.679943" style="stroke: #000000; stroke-width: 0.8"/>
      </g>
     </g>
     <g id="text_11">
      <!-- 4.9 -->
      <g transform="translate(30.425 387.479162) scale(0.1 -0.1)">
       <use xlink:href="#DejaVuSans-34"/>
       <use xlink:href="#DejaVuSans-2e" transform="translate(63.623047 0)"/>
       <use xlink:href="#DejaVuSans-39" transform="translate(95.410156 0)"/>
      </g>
     </g>
    </g>
    <g id="ytick_10">
     <g id="line2d_48">
      <path d="M 53.328125 347.898125 
L 836.668125 347.898125 
" clip-path="url(#pcc1c191237)" style="fill: none; stroke: #b0b0b0; stroke-opacity: 0.3; stroke-width: 0.8; stroke-linecap: square"/>
     </g>
     <g id="line2d_49">
      <g>
       <use xlink:href="#m160bfb30bf" x="53.328125" y="347.898125" style="stroke: #000000; stroke-width: 0.8"/>
      </g>
     </g>
     <g id="text_12">
      <!-- 5.0 -->
      <g transform="translate(30.425 351.697344) scale(0.1 -0.1)">
       <defs>
        <path id="DejaVuSans-35" d="M 691 4666 
L 3169 4666 
L 3169 4134 
L 1269 4134 
L 1269 2991 
Q 1406 3038 1543 3061 
Q 1681 3084 1819 3084 
Q 2600 3084 3056 2656 
Q 3513 2228 3513 1497 
Q 3513 744 3044 326 
Q 2575 -91 1722 -91 
Q 1428 -91 1123 -41 
Q 819 9 494 109 
L 494 744 
Q 775 591 1075 516 
Q 1375 441 1709 441 
Q 2250 441 2565 725 
Q 2881 1009 2881 1497 
Q 2881 1984 2565 2268 
Q 2250 2553 1709 2553 
Q 1456 2553 1204 2497 
Q 953 2441 691 2322 
L 691 4666 
z
" transform="scale(0.015625)"/>
       </defs>
       <use xlink:href="#DejaVuSans-35"/>
       <use xlink:href="#DejaVuSans-2e" transform="translate(63.623047 0)"/>
       <use xlink:href="#DejaVuSans-30" transform="translate(95.410156 0)"/>
      </g>
     </g>
    </g>
    <g id="ytick_11">
     <g id="line2d_50">
      <path d="M 53.328125 312.116307 
L 836.668125 312.116307 
" clip-path="url(#pcc1c191237)" style="fill: none; stroke: #b0b0b0; stroke-opacity: 0.3; stroke-width: 0.8; stroke-linecap: square"/>
     </g>
     <g id="line2d_51">
      <g>
       <use xlink:href="#m160bfb30bf" x="53.328125" y="312.116307" style="stroke: #000000; stroke-width: 0.8"/>
      </g>
     </g>
     <g id="text_13">
      <!-- 5.1 -->
      <g transform="translate(30.425 315.915526) scale(0.1 -0.1)">
       <use xlink:href="#DejaVuSans-35"/>
       <use xlink:href="#DejaVuSans-2e" transform="translate(63.623047 0)"/>
       <use xlink:href="#DejaVuSans-31" transform="translate(95.410156 0)"/>
      </g>
     </g>
    </g>
    <g id="ytick_12">
     <g id="line2d_52">
      <path d="M 53.328125 276.334489 
L 836.668125 276.334489 
" clip-path="url(#pcc1c191237)" style="fill: none; stroke: #b0b0b0; stroke-opacity: 0.3; stroke-width: 0.8; stroke-linecap: square"/>
     </g>
     <g id="line2d_53">
      <g>
       <use xlink:href="#m160bfb30bf" x="53.328125" y="276.334489" style="stroke: #000000; stroke-width: 0.8"/>
      </g>
     </g>
     <g id="text_14">
      <!-- 5.2 -->
      <g transform="translate(30.425 280.133707) scale(0.1 -0.1)">
       <use xlink:href="#DejaVuSans-35"/>
       <use xlink:href="#DejaVuSans-2e" transform="translate(63.623047 0)"/>
       <use xlink:href="#DejaVuSans-32" transform="translate(95.410156 0)"/>
      </g>
     </g>
    </g>
    <g id="text_15">
     <!-- Pressure [Pa] -->
     <g transform="translate(24.345313 380.587187) rotate(-90) scale(0.1 -0.1)">
      <defs>
       <path id="DejaVuSans-50" d="M 1259 4147 
L 1259 2394 
L 2053 2394 
Q 2494 2394 2734 2622 
Q 2975 2850 2975 3272 
Q 2975 3691 2734 3919 
Q 2494 4147 2053 4147 
L 1259 4147 
z
M 628 4666 
L 2053 4666 
Q 2838 4666 3239 4311 
Q 3641 3956 3641 3272 
Q 3641 2581 3239 2228 
Q 2838 1875 2053 1875 
L 1259 1875 
L 1259 0 
L 628 0 
L 628 4666 
z
" transform="scale(0.015625)"/>
       <path id="DejaVuSans-73" d="M 2834 3397 
L 2834 2853 
Q 2591 2978 2328 3040 
Q 2066 3103 1784 3103 
Q 1356 3103 1142 2972 
Q 928 2841 928 2578 
Q 928 2378 1081 2264 
Q 1234 2150 1697 2047 
L 1894 2003 
Q 2506 1872 2764 1633 
Q 3022 1394 3022 966 
Q 3022 478 2636 193 
Q 2250 -91 1575 -91 
Q 1294 -91 989 -36 
Q 684 19 347 128 
L 347 722 
Q 666 556 975 473 
Q 1284 391 1588 391 
Q 1994 391 2212 530 
Q 2431 669 2431 922 
Q 2431 1156 2273 1281 
Q 2116 1406 1581 1522 
L 1381 1569 
Q 847 1681 609 1914 
Q 372 2147 372 2553 
Q 372 3047 722 3315 
Q 1072 3584 1716 3584 
Q 2034 3584 2315 3537 
Q 2597 3491 2834 3397 
z
" transform="scale(0.015625)"/>
      </defs>
      <use xlink:href="#DejaVuSans-50"/>
      <use xlink:href="#DejaVuSans-72" transform="translate(58.552734 0)"/>
      <use xlink:href="#DejaVuSans-65" transform="translate(97.416016 0)"/>
      <use xlink:href="#DejaVuSans-73" transform="translate(158.939453 0)"/>
      <use xlink:href="#DejaVuSans-73" transform="translate(211.039062 0)"/>
      <use xlink:href="#DejaVuSans-75" transform="translate(263.138672 0)"/>
      <use xlink:href="#DejaVuSans-72" transform="translate(326.517578 0)"/>
      <use xlink:href="#DejaVuSans-65" transform="translate(365.380859 0)"/>
      <use xlink:href="#DejaVuSans-20" transform="translate(426.904297 0)"/>
      <use xlink:href="#DejaVuSans-5b" transform="translate(458.691406 0)"/>
      <use xlink:href="#DejaVuSans-50" transform="translate(497.705078 0)"/>
      <use xlink:href="#DejaVuSans-61" transform="translate(553.507812 0)"/>
      <use xlink:href="#DejaVuSans-5d" transform="translate(614.787109 0)"/>
     </g>
    </g>
    <g id="text_16">
     <!-- 1e6 -->
     <g transform="translate(53.328125 246.498125) scale(0.1 -0.1)">
      <use xlink:href="#DejaVuSans-31"/>
      <use xlink:href="#DejaVuSans-65" transform="translate(63.623047 0)"/>
      <use xlink:href="#DejaVuSans-36" transform="translate(125.146484 0)"/>
     </g>
    </g>
   </g>
   <g id="line2d_54">
    <path d="M 53.328125 347.898125 
L 836.668125 347.898125 
L 836.668125 347.898125 
" clip-path="url(#pcc1c191237)" style="fill: none; stroke: #1d3557; stroke-width: 2; stroke-linecap: square"/>
   </g>
   <g id="patch_8">
    <path d="M 53.328125 446.298125 
L 53.328125 249.498125 
" style="fill: none; stroke: #000000; stroke-width: 0.8; stroke-linejoin: miter; stroke-linecap: square"/>
   </g>
   <g id="patch_9">
    <path d="M 836.668125 446.298125 
L 836.668125 249.498125 
" style="fill: none; stroke: #000000; stroke-width: 0.8; stroke-linejoin: miter; stroke-linecap: square"/>
   </g>
   <g id="patch_10">
    <path d="M 53.328125 446.298125 
L 836.668125 446.298125 
" style="fill: none; stroke: #000000; stroke-width: 0.8; stroke-linejoin: miter; stroke-linecap: square"/>
   </g>
   <g id="patch_11">
    <path d="M 53.328125 249.498125 
L 836.668125 249.498125 
" style="fill: none; stroke: #000000; stroke-width: 0.8; stroke-linejoin: miter; stroke-linecap: square"/>
   </g>
   <g id="text_17">
    <!-- Outlet Pressure -->
    <g transform="translate(398.889063 243.498125) scale(0.12 -0.12)">
     <use xlink:href="#DejaVuSans-4f"/>
     <use xlink:href="#DejaVuSans-75" transform="translate(78.710938 0)"/>
     <use xlink:href="#DejaVuSans-74" transform="translate(142.089844 0)"/>
     <use xlink:href="#DejaVuSans-6c" transform="translate(181.298828 0)"/>
     <use xlink:href="#DejaVuSans-65" transform="translate(209.082031 0)"/>
     <use xlink:href="#DejaVuSans-74" transform="translate(270.605469 0)"/>
     <use xlink:href="#DejaVuSans-20" transform="translate(309.814453 0)"/>
     <use xlink:href="#DejaVuSans-50" transform="translate(341.601562 0)"/>
     <use xlink:href="#DejaVuSans-72" transform="translate(400.154297 0)"/>
     <use xlink:href="#DejaVuSans-65" transform="translate(439.017578 0)"/>
     <use xlink:href="#DejaVuSans-73" transform="translate(500.541016 0)"/>
     <use xlink:href="#DejaVuSans-73" transform="translate(552.640625 0)"/>
     <use xlink:href="#DejaVuSans-75" transform="translate(604.740234 0)"/>
     <use xlink:href="#DejaVuSans-72" transform="translate(668.119141 0)"/>
     <use xlink:href="#DejaVuSans-65" transform="translate(706.982422 0)"/>
    </g>
   </g>
  </g>
  <g id="axes_3">
   <g id="patch_12">
    <path d="M 53.328125 673.478125 
L 836.668125 673.478125 
L 836.668125 476.678125 
L 53.328125 476.678125 
z
" style="fill: #ffffff"/>
   </g>
   <g id="matplotlib.axis_5">
    <g id="xtick_15">
     <g id="line2d_55">
      <path d="M 53.328125 673.478125 
L 53.328125 476.678125 
" clip-path="url(#p36f5073f46)" style="fill: none; stroke: #b0b0b0; stroke-opacity: 0.3; stroke-width: 0.8; stroke-linecap: square"/>
     </g>
     <g id="line2d_56">
      <g>
       <use xlink:href="#mab4aa75532" x="53.328125" y="673.478125" style="stroke: #000000; stroke-width: 0.8"/>
      </g>
     </g>
     <g id="text_18">
      <!-- 0 -->
      <g transform="translate(50.146875 688.076562) scale(0.1 -0.1)">
       <use xlink:href="#DejaVuSans-30"/>
      </g>
     </g>
    </g>
    <g id="xtick_16">
     <g id="line2d_57">
      <path d="M 183.884792 673.478125 
L 183.884792 476.678125 
" clip-path="url(#p36f5073f46)" style="fill: none; stroke: #b0b0b0; stroke-opacity: 0.3; stroke-width: 0.8; stroke-linecap: square"/>
     </g>
     <g id="line2d_58">
      <g>
       <use xlink:href="#mab4aa75532" x="183.884792" y="673.478125" style="stroke: #000000; stroke-width: 0.8"/>
      </g>
     </g>
     <g id="text_19">
      <!-- 500 -->
      <g transform="translate(174.341042 688.076562) scale(0.1 -0.1)">
       <use xlink:href="#DejaVuSans-35"/>
       <use xlink:href="#DejaVuSans-30" transform="translate(63.623047 0)"/>
       <use xlink:href="#DejaVuSans-30" transform="translate(127.246094 0)"/>
      </g>
     </g>
    </g>
    <g id="xtick_17">
     <g id="line2d_59">
      <path d="M 314.441458 673.478125 
L 314.441458 476.678125 
" clip-path="url(#p36f5073f46)" style="fill: none; stroke: #b0b0b0; stroke-opacity: 0.3; stroke-width: 0.8; stroke-linecap: square"/>
     </g>
     <g id="line2d_60">
      <g>
       <use xlink:href="#mab4aa75532" x="314.441458" y="673.478125" style="stroke: #000000; stroke-width: 0.8"/>
      </g>
     </g>
     <g id="text_20">
      <!-- 1000 -->
      <g transform="translate(301.716458 688.076562) scale(0.1 -0.1)">
       <use xlink:href="#DejaVuSans-31"/>
       <use xlink:href="#DejaVuSans-30" transform="translate(63.623047 0)"/>
       <use xlink:href="#DejaVuSans-30" transform="translate(127.246094 0)"/>
       <use xlink:href="#DejaVuSans-30" transform="translate(190.869141 0)"/>
      </g>
     </g>
    </g>
    <g id="xtick_18">
     <g id="line2d_61">
      <path d="M 444.998125 673.478125 
L 444.998125 476.678125 
" clip-path="url(#p36f5073f46)" style="fill: none; stroke: #b0b0b0; stroke-opacity: 0.3; stroke-width: 0.8; stroke-linecap: square"/>
     </g>
     <g id="line2d_62">
      <g>
       <use xlink:href="#mab4aa75532" x="444.998125" y="673.478125" style="stroke: #000000; stroke-width: 0.8"/>
      </g>
     </g>
     <g id="text_21">
      <!-- 1500 -->
      <g transform="translate(432.273125 688.076562) scale(0.1 -0.1)">
       <use xlink:href="#DejaVuSans-31"/>
       <use xlink:href="#DejaVuSans-35" transform="translate(63.623047 0)"/>
       <use xlink:href="#DejaVuSans-30" transform="translate(127.246094 0)"/>
       <use xlink:href="#DejaVuSans-30" transform="translate(190.869141 0)"/>
      </g>
     </g>
    </g>
    <g id="xtick_19">
     <g id="line2d_63">
      <path d="M 575.554792 673.478125 
L 575.554792 476.678125 
" clip-path="url(#p36f5073f46)" style="fill: none; stroke: #b0b0b0; stroke-opacity: 0.3; stroke-width: 0.8; stroke-linecap: square"/>
     </g>
     <g id="line2d_64">
      <g>
       <use xlink:href="#mab4aa75532" x="575.554792" y="673.478125" style="stroke: #000000; stroke-width: 0.8"/>
      </g>
     </g>
     <g id="text_22">
      <!-- 2000 -->
      <g transform="translate(562.829792 688.076562) scale(0.1 -0.1)">
       <use xlink:href="#DejaVuSans-32"/>
       <use xlink:href="#DejaVuSans-30" transform="translate(63.623047 0)"/>
       <use xlink:href="#DejaVuSans-30" transform="translate(127.246094 0)"/>
       <use xlink:href="#DejaVuSans-30" transform="translate(190.869141 0)"/>
      </g>
     </g>
    </g>
    <g id="xtick_20">
     <g id="line2d_65">
      <path d="M 706.111458 673.478125 
L 706.111458 476.678125 
" clip-path="url(#p36f5073f46)" style="fill: none; stroke: #b0b0b0; stroke-opacity: 0.3; stroke-width: 0.8; stroke-linecap: square"/>
     </g>
     <g id="line2d_66">
      <g>
       <use xlink:href="#mab4aa75532" x="706.111458" y="673.478125" style="stroke: #000000; stroke-width: 0.8"/>
      </g>
     </g>
     <g id="text_23">
      <!-- 2500 -->
      <g transform="translate(693.386458 688.076562) scale(0.1 -0.1)">
       <use xlink:href="#DejaVuSans-32"/>
       <use xlink:href="#DejaVuSans-35" transform="translate(63.623047 0)"/>
       <use xlink:href="#DejaVuSans-30" transform="translate(127.246094 0)"/>
       <use xlink:href="#DejaVuSans-30" transform="translate(190.869141 0)"/>
      </g>
     </g>
    </g>
    <g id="xtick_21">
     <g id="line2d_67">
      <path d="M 836.668125 673.478125 
L 836.668125 476.678125 
" clip-path="url(#p36f5073f46)" style="fill: none; stroke: #b0b0b0; stroke-opacity: 0.3; stroke-width: 0.8; stroke-linecap: square"/>
     </g>
     <g id="line2d_68">
      <g>
       <use xlink:href="#mab4aa75532" x="836.668125" y="673.478125" style="stroke: #000000; stroke-width: 0.8"/>
      </g>
     </g>
     <g id="text_24">
      <!-- 3000 -->
      <g transform="translate(823.943125 688.076562) scale(0.1 -0.1)">
       <defs>
        <path id="DejaVuSans-33" d="M 2597 2516 
Q 3050 2419 3304 2112 
Q 3559 1806 3559 1356 
Q 3559 666 3084 287 
Q 2609 -91 1734 -91 
Q 1441 -91 1130 -33 
Q 819 25 488 141 
L 488 750 
Q 750 597 1062 519 
Q 1375 441 1716 441 
Q 2309 441 2620 675 
Q 2931 909 2931 1356 
Q 2931 1769 2642 2001 
Q 2353 2234 1838 2234 
L 1294 2234 
L 1294 2753 
L 1863 2753 
Q 2328 2753 2575 2939 
Q 2822 3125 2822 3475 
Q 2822 3834 2567 4026 
Q 2313 4219 1838 4219 
Q 1578 4219 1281 4162 
Q 984 4106 628 3988 
L 628 4550 
Q 988 4650 1302 4700 
Q 1616 4750 1894 4750 
Q 2613 4750 3031 4423 
Q 3450 4097 3450 3541 
Q 3450 3153 3228 2886 
Q 3006 2619 2597 2516 
z
" transform="scale(0.015625)"/>
       </defs>
       <use xlink:href="#DejaVuSans-33"/>
       <use xlink:href="#DejaVuSans-30" transform="translate(63.623047 0)"/>
       <use xlink:href="#DejaVuSans-30" transform="translate(127.246094 0)"/>
       <use xlink:href="#DejaVuSans-30" transform="translate(190.869141 0)"/>
      </g>
     </g>
    </g>
    <g id="text_25">
     <!-- Time [s] -->
     <g transform="translate(424.669219 701.754687) scale(0.1 -0.1)">
      <defs>
       <path id="DejaVuSans-69" d="M 603 3500 
L 1178 3500 
L 1178 0 
L 603 0 
L 603 3500 
z
M 603 4863 
L 1178 4863 
L 1178 4134 
L 603 4134 
L 603 4863 
z
" transform="scale(0.015625)"/>
      </defs>
      <use xlink:href="#DejaVuSans-54"/>
      <use xlink:href="#DejaVuSans-69" transform="translate(57.958984 0)"/>
      <use xlink:href="#DejaVuSans-6d" transform="translate(85.742188 0)"/>
      <use xlink:href="#DejaVuSans-65" transform="translate(183.154297 0)"/>
      <use xlink:href="#DejaVuSans-20" transform="translate(244.677734 0)"/>
      <use xlink:href="#DejaVuSans-5b" transform="translate(276.464844 0)"/>
      <use xlink:href="#DejaVuSans-73" transform="translate(315.478516 0)"/>
      <use xlink:href="#DejaVuSans-5d" transform="translate(367.578125 0)"/>
     </g>
    </g>
   </g>
   <g id="matplotlib.axis_6">
    <g id="ytick_13">
     <g id="line2d_69">
      <path d="M 53.328125 643.06918 
L 836.668125 643.06918 
" clip-path="url(#p36f5073f46)" style="fill: none; stroke: #b0b0b0; stroke-opacity: 0.3; stroke-width: 0.8; stroke-linecap: square"/>
     </g>
     <g id="line2d_70">
      <g>
       <use xlink:href="#m160bfb30bf" x="53.328125" y="643.06918" style="stroke: #000000; stroke-width: 0.8"/>
      </g>
     </g>
     <g id="text_26">
      <!-- 0.9 -->
      <g transform="translate(30.425 646.868399) scale(0.1 -0.1)">
       <use xlink:href="#DejaVuSans-30"/>
       <use xlink:href="#DejaVuSans-2e" transform="translate(63.623047 0)"/>
       <use xlink:href="#DejaVuSans-39" transform="translate(95.410156 0)"/>
      </g>
     </g>
    </g>
    <g id="ytick_14">
     <g id="line2d_71">
      <path d="M 53.328125 610.841542 
L 836.668125 610.841542 
" clip-path="url(#p36f5073f46)" style="fill: none; stroke: #b0b0b0; stroke-opacity: 0.3; stroke-width: 0.8; stroke-linecap: square"/>
     </g>
     <g id="line2d_72">
      <g>
       <use xlink:href="#m160bfb30bf" x="53.328125" y="610.841542" style="stroke: #000000; stroke-width: 0.8"/>
      </g>
     </g>
     <g id="text_27">
      <!-- 1.0 -->
      <g transform="translate(30.425 614.640761) scale(0.1 -0.1)">
       <use xlink:href="#DejaVuSans-31"/>
       <use xlink:href="#DejaVuSans-2e" transform="translate(63.623047 0)"/>
       <use xlink:href="#DejaVuSans-30" transform="translate(95.410156 0)"/>
      </g>
     </g>
    </g>
    <g id="ytick_15">
     <g id="line2d_73">
      <path d="M 53.328125 578.613905 
L 836.668125 578.613905 
" clip-path="url(#p36f5073f46)" style="fill: none; stroke: #b0b0b0; stroke-opacity: 0.3; stroke-width: 0.8; stroke-linecap: square"/>
     </g>
     <g id="line2d_74">
      <g>
       <use xlink:href="#m160bfb30bf" x="53.328125" y="578.613905" style="stroke: #000000; stroke-width: 0.8"/>
      </g>
     </g>
     <g id="text_28">
      <!-- 1.1 -->
      <g transform="translate(30.425 582.413124) scale(0.1 -0.1)">
       <use xlink:href="#DejaVuSans-31"/>
       <use xlink:href="#DejaVuSans-2e" transform="translate(63.623047 0)"/>
       <use xlink:href="#DejaVuSans-31" transform="translate(95.410156 0)"/>
      </g>
     </g>
    </g>
    <g id="ytick_16">
     <g id="line2d_75">
      <path d="M 53.328125 546.386267 
L 836.668125 546.386267 
" clip-path="url(#p36f5073f46)" style="fill: none; stroke: #b0b0b0; stroke-opacity: 0.3; stroke-width: 0.8; stroke-linecap: square"/>
     </g>
     <g id="line2d_76">
      <g>
       <use xlink:href="#m160bfb30bf" x="53.328125" y="546.386267" style="stroke: #000000; stroke-width: 0.8"/>
      </g>
     </g>
     <g id="text_29">
      <!-- 1.2 -->
      <g transform="translate(30.425 550.185486) scale(0.1 -0.1)">
       <use xlink:href="#DejaVuSans-31"/>
       <use xlink:href="#DejaVuSans-2e" transform="translate(63.623047 0)"/>
       <use xlink:href="#DejaVuSans-32" transform="translate(95.410156 0)"/>
      </g>
     </g>
    </g>
    <g id="ytick_17">
     <g id="line2d_77">
      <path d="M 53.328125 514.15863 
L 836.668125 514.15863 
" clip-path="url(#p36f5073f46)" style="fill: none; stroke: #b0b0b0; stroke-opacity: 0.3; stroke-width: 0.8; stroke-linecap: square"/>
     </g>
     <g id="line2d_78">
      <g>
       <use xlink:href="#m160bfb30bf" x="53.328125" y="514.15863" style="stroke: #000000; stroke-width: 0.8"/>
      </g>
     </g>
     <g id="text_30">
      <!-- 1.3 -->
      <g transform="translate(30.425 517.957849) scale(0.1 -0.1)">
       <use xlink:href="#DejaVuSans-31"/>
       <use xlink:href="#DejaVuSans-2e" transform="translate(63.623047 0)"/>
       <use xlink:href="#DejaVuSans-33" transform="translate(95.410156 0)"/>
      </g>
     </g>
    </g>
    <g id="ytick_18">
     <g id="line2d_79">
      <path d="M 53.328125 481.930992 
L 836.668125 481.930992 
" clip-path="url(#p36f5073f46)" style="fill: none; stroke: #b0b0b0; stroke-opacity: 0.3; stroke-width: 0.8; stroke-linecap: square"/>
     </g>
     <g id="line2d_80">
      <g>
       <use xlink:href="#m160bfb30bf" x="53.328125" y="481.930992" style="stroke: #000000; stroke-width: 0.8"/>
      </g>
     </g>
     <g id="text_31">
      <!-- 1.4 -->
      <g transform="translate(30.425 485.730211) scale(0.1 -0.1)">
       <use xlink:href="#DejaVuSans-31"/>
       <use xlink:href="#DejaVuSans-2e" transform="translate(63.623047 0)"/>
       <use xlink:href="#DejaVuSans-34" transform="translate(95.410156 0)"/>
      </g>
     </g>
    </g>
    <g id="text_32">
     <!-- Flowrate [mol/s] -->
     <g transform="translate(24.345313 615.746094) rotate(-90) scale(0.1 -0.1)">
      <defs>
       <path id="DejaVuSans-46" d="M 628 4666 
L 3309 4666 
L 3309 4134 
L 1259 4134 
L 1259 2759 
L 3109 2759 
L 3109 2228 
L 1259 2228 
L 1259 0 
L 628 0 
L 628 4666 
z
" transform="scale(0.015625)"/>
       <path id="DejaVuSans-6f" d="M 1959 3097 
Q 1497 3097 1228 2736 
Q 959 2375 959 1747 
Q 959 1119 1226 758 
Q 1494 397 1959 397 
Q 2419 397 2687 759 
Q 2956 1122 2956 1747 
Q 2956 2369 2687 2733 
Q 2419 3097 1959 3097 
z
M 1959 3584 
Q 2709 3584 3137 3096 
Q 3566 2609 3566 1747 
Q 3566 888 3137 398 
Q 2709 -91 1959 -91 
Q 1206 -91 779 398 
Q 353 888 353 1747 
Q 353 2609 779 3096 
Q 1206 3584 1959 3584 
z
" transform="scale(0.015625)"/>
       <path id="DejaVuSans-77" d="M 269 3500 
L 844 3500 
L 1563 769 
L 2278 3500 
L 2956 3500 
L 3675 769 
L 4391 3500 
L 4966 3500 
L 4050 0 
L 3372 0 
L 2619 2869 
L 1863 0 
L 1184 0 
L 269 3500 
z
" transform="scale(0.015625)"/>
       <path id="DejaVuSans-2f" d="M 1625 4666 
L 2156 4666 
L 531 -594 
L 0 -594 
L 1625 4666 
z
" transform="scale(0.015625)"/>
      </defs>
      <use xlink:href="#DejaVuSans-46"/>
      <use xlink:href="#DejaVuSans-6c" transform="translate(57.519531 0)"/>
      <use xlink:href="#DejaVuSans-6f" transform="translate(85.302734 0)"/>
      <use xlink:href="#DejaVuSans-77" transform="translate(146.484375 0)"/>
      <use xlink:href="#DejaVuSans-72" transform="translate(228.271484 0)"/>
      <use xlink:href="#DejaVuSans-61" transform="translate(269.384766 0)"/>
      <use xlink:href="#DejaVuSans-74" transform="translate(330.664062 0)"/>
      <use xlink:href="#DejaVuSans-65" transform="translate(369.873047 0)"/>
      <use xlink:href="#DejaVuSans-20" transform="translate(431.396484 0)"/>
      <use xlink:href="#DejaVuSans-5b" transform="translate(463.183594 0)"/>
      <use xlink:href="#DejaVuSans-6d" transform="translate(502.197266 0)"/>
      <use xlink:href="#DejaVuSans-6f" transform="translate(599.609375 0)"/>
      <use xlink:href="#DejaVuSans-6c" transform="translate(660.791016 0)"/>
      <use xlink:href="#DejaVuSans-2f" transform="translate(688.574219 0)"/>
      <use xlink:href="#DejaVuSans-73" transform="translate(722.265625 0)"/>
      <use xlink:href="#DejaVuSans-5d" transform="translate(774.365234 0)"/>
     </g>
    </g>
   </g>
   <g id="line2d_81">
    <path d="M 53.328125 610.84127 
L 54.372578 609.986236 
L 55.155918 609.812927 
L 58.028165 609.625661 
L 62.467092 609.526845 
L 80.745025 609.719796 
L 82.050592 610.204608 
L 83.617272 610.45731 
L 87.272858 610.772912 
L 91.711785 610.954432 
L 95.628485 610.88424 
L 102.939658 610.82919 
L 107.117472 610.916329 
L 107.639698 611.055537 
L 107.900812 611.288555 
L 108.161925 612.083122 
L 108.423038 614.20491 
L 108.945265 621.060448 
L 109.728605 633.093328 
L 110.773058 642.180011 
L 111.034172 642.75381 
L 111.295285 641.369061 
L 111.817512 641.886501 
L 112.078625 641.345085 
L 112.339738 639.4678 
L 112.861965 631.398968 
L 113.123078 636.408513 
L 113.384192 648.928467 
L 113.906418 649.860656 
L 114.167532 650.002026 
L 114.428645 649.730977 
L 114.689758 648.510934 
L 114.950872 644.421467 
L 115.473098 617.116173 
L 115.734212 618.619654 
L 117.039778 633.137746 
L 117.823118 639.391807 
L 118.345345 642.316742 
L 118.867572 644.42159 
L 119.128685 646.7915 
L 119.650912 649.034288 
L 120.173138 650.451567 
L 120.695365 651.365584 
L 120.956478 651.582714 
L 121.217592 651.494554 
L 121.478705 650.768185 
L 121.739818 648.303993 
L 122.000932 639.963976 
L 122.262045 621.31076 
L 122.523158 616.937121 
L 123.567612 630.223072 
L 124.350952 637.626818 
L 125.134292 643.05651 
L 125.917632 647.090436 
L 126.700972 649.86312 
L 127.223198 651.155052 
L 127.745425 651.913726 
L 128.006538 651.953469 
L 128.267652 651.502856 
L 128.528765 649.840597 
L 128.789878 644.291175 
L 129.312105 616.545479 
L 130.095445 626.495206 
L 130.878785 634.927785 
L 131.662125 641.145831 
L 132.445465 645.664643 
L 133.228805 648.876935 
L 134.012145 651.070447 
L 134.534372 651.918309 
L 134.795485 652.044532 
L 135.056598 651.777993 
L 135.317712 650.627069 
L 135.578825 646.828551 
L 136.101052 617.479519 
L 136.362165 618.297816 
L 137.145505 628.672198 
L 137.928845 636.578355 
L 138.712185 642.359623 
L 139.495525 646.525458 
L 140.278865 649.496422 
L 141.062205 651.468835 
L 141.584432 652.084718 
L 141.845545 651.977321 
L 142.106658 651.200939 
L 142.367772 648.593527 
L 142.628885 639.752003 
L 142.889998 620.862949 
L 143.151112 617.297111 
L 144.195565 630.792721 
L 144.978905 638.169809 
L 145.762245 643.532711 
L 146.545585 647.384778 
L 147.328925 650.11578 
L 147.851152 651.389515 
L 148.373378 652.119566 
L 148.634492 652.132229 
L 148.895605 651.628272 
L 149.156718 649.83015 
L 149.417832 643.790742 
L 149.940058 616.706997 
L 151.506738 635.29004 
L 152.290078 641.468197 
L 153.073418 645.919743 
L 153.856758 649.103806 
L 154.640098 651.279442 
L 155.162325 652.113028 
L 155.423438 652.226346 
L 155.684552 651.930914 
L 155.945665 650.699106 
L 156.206778 646.608478 
L 156.729005 617.336482 
L 156.990118 618.741387 
L 157.773458 629.080466 
L 158.556798 636.932515 
L 159.340138 642.669435 
L 160.123478 646.798039 
L 160.906818 649.73965 
L 161.690158 651.688697 
L 162.212385 652.282039 
L 162.473498 652.153023 
L 162.734612 651.323101 
L 162.995725 648.55391 
L 163.256838 639.179445 
L 163.517952 620.360719 
L 163.779065 617.665964 
L 164.823518 631.159805 
L 165.606858 638.522279 
L 166.390198 643.881386 
L 167.173538 647.750564 
L 167.956878 650.510011 
L 168.479105 651.810166 
L 169.001332 652.567693 
L 169.262445 652.589272 
L 169.523558 652.081258 
L 169.784672 650.228556 
L 170.045785 643.941668 
L 170.306898 626.475403 
L 170.568012 617.442394 
L 172.134692 636.921795 
L 172.918032 643.598777 
L 173.701372 648.537483 
L 174.484712 652.169569 
L 175.268052 654.719445 
L 175.790278 655.726562 
L 176.051392 655.881141 
L 176.312505 655.567548 
L 176.573618 654.184884 
L 176.834732 649.581304 
L 177.356958 616.200548 
L 177.618072 613.899602 
L 178.923638 613.880425 
L 244.985312 614.030874 
L 319.924838 614.210354 
L 322.535972 614.420752 
L 323.580425 603.673433 
L 324.102652 598.967476 
L 324.624878 591.383055 
L 324.885992 584.962265 
L 325.147105 574.385625 
L 325.408218 553.470061 
L 325.930445 489.625241 
L 326.191558 490.158372 
L 326.452672 489.039905 
L 326.713785 486.019936 
L 326.974898 485.62358 
L 327.236012 487.862624 
L 329.324918 515.817546 
L 329.847145 519.314874 
L 330.369372 520.841702 
L 330.630485 521.076228 
L 331.152712 521.076574 
L 331.674938 521.09556 
L 331.936052 521.272819 
L 332.197165 521.622987 
L 332.719392 522.85575 
L 333.241618 524.179435 
L 333.502732 524.434858 
L 333.763845 524.267156 
L 334.024958 523.699784 
L 334.547185 521.751658 
L 335.591638 517.286464 
L 336.113865 516.05462 
L 336.374978 515.893276 
L 336.636092 516.007785 
L 336.897205 516.417862 
L 337.158318 517.170763 
L 338.202772 521.637797 
L 338.463885 521.822286 
L 338.724998 521.443961 
L 339.247225 519.602492 
L 340.291678 515.314689 
L 340.552792 514.697445 
L 340.813905 514.421703 
L 341.075018 514.461761 
L 341.336132 514.799009 
L 341.597245 515.506299 
L 342.119472 518.288022 
L 342.641698 521.325828 
L 342.902812 521.935569 
L 343.163925 521.81061 
L 343.425038 521.12942 
L 344.991718 515.082839 
L 345.252832 514.873894 
L 345.513945 514.944992 
L 345.775058 515.311873 
L 346.036172 516.189613 
L 346.297285 517.817623 
L 347.080625 524.466408 
L 347.341738 525.291384 
L 347.602852 525.373038 
L 348.125078 524.618273 
L 348.386192 524.247279 
L 348.647305 524.081775 
L 348.908418 524.238377 
L 349.169532 524.865885 
L 349.430645 526.146438 
L 349.952872 531.021543 
L 350.475098 539.391665 
L 351.258438 559.024968 
L 352.041778 575.824247 
L 352.564005 583.310298 
L 353.347345 590.815883 
L 354.130685 595.836748 
L 354.652912 597.209393 
L 355.175138 597.821213 
L 355.958478 598.395857 
L 357.002932 598.821297 
L 358.047385 598.995816 
L 359.091838 598.964866 
L 360.658518 598.658158 
L 363.008538 598.198265 
L 364.575218 598.172708 
L 366.403012 598.439406 
L 368.753032 599.049944 
L 372.147505 600.155463 
L 372.930845 600.523686 
L 373.191958 600.761976 
L 373.714185 601.920026 
L 374.236412 603.846593 
L 374.758638 605.887799 
L 375.280865 605.485627 
L 375.541978 606.60957 
L 377.108658 616.942641 
L 377.369772 618.006586 
L 377.630885 618.269087 
L 377.891998 617.003051 
L 378.414225 610.502122 
L 378.675338 610.123996 
L 379.197565 613.720794 
L 379.458678 614.73079 
L 380.503132 621.000397 
L 380.764245 621.121326 
L 381.025358 619.999001 
L 381.286472 617.301749 
L 382.069812 604.513824 
L 382.330925 609.255303 
L 382.592038 626.228511 
L 382.853152 632.146205 
L 383.375378 635.70465 
L 383.636492 636.375178 
L 383.897605 635.024951 
L 384.158718 628.116101 
L 384.419832 617.146625 
L 384.680945 618.076664 
L 385.464285 630.740312 
L 385.986512 635.873342 
L 386.508738 640.29497 
L 387.030965 645.021064 
L 387.814305 649.404963 
L 388.597645 652.641346 
L 389.119872 654.16978 
L 389.380985 654.685635 
L 389.642098 654.922849 
L 389.903212 654.603134 
L 390.164325 652.815544 
L 390.425438 646.003551 
L 390.686552 628.822611 
L 390.947665 625.421464 
L 391.469892 636.106707 
L 391.992118 643.400489 
L 392.514345 648.422658 
L 393.297685 653.477075 
L 394.081025 656.778058 
L 394.864365 659.022427 
L 395.647705 660.487225 
L 396.169932 660.946209 
L 396.431045 660.875736 
L 396.692158 660.34246 
L 396.953272 658.580841 
L 397.214385 652.536777 
L 397.475498 635.102032 
L 397.736612 628.546634 
L 398.258838 639.884797 
L 398.781065 647.229541 
L 399.303292 651.961746 
L 399.825518 655.15942 
L 400.608858 658.308287 
L 401.392198 660.331346 
L 402.175538 661.647503 
L 402.697765 662.142768 
L 402.958878 662.212408 
L 403.219992 662.060772 
L 403.481105 661.432048 
L 403.742218 659.504802 
L 404.003332 652.916771 
L 404.264445 634.730812 
L 404.525558 629.982027 
L 405.047785 641.842407 
L 405.570012 649.154426 
L 406.092238 653.719931 
L 406.614465 656.723371 
L 407.136692 658.801828 
L 407.920032 660.91001 
L 408.703372 662.272863 
L 409.225598 662.843225 
L 409.486712 663.000319 
L 409.747825 663.019737 
L 410.008938 662.798405 
L 410.270052 662.036095 
L 410.531165 659.713874 
L 410.792278 651.610556 
L 411.053392 632.654464 
L 411.314505 631.967518 
L 411.836732 643.957365 
L 412.358958 651.017462 
L 412.881185 655.331951 
L 413.403412 658.120697 
L 413.925638 660.025987 
L 414.708978 661.942016 
L 415.492318 663.170576 
L 416.014545 663.664382 
L 416.275658 663.779579 
L 416.536772 663.7448 
L 416.797885 663.432333 
L 417.058998 662.45398 
L 417.320112 659.399901 
L 417.581225 648.597501 
L 417.842338 630.779789 
L 418.103452 634.462253 
L 418.625678 646.069167 
L 419.147905 652.77409 
L 419.670132 656.859106 
L 420.192358 659.502048 
L 420.714585 661.312383 
L 421.497925 663.128997 
L 422.020152 663.929244 
L 422.542378 664.427887 
L 422.803492 664.53267 
L 423.064605 664.495683 
L 423.325718 664.213936 
L 423.586832 663.475931 
L 423.847945 661.603936 
L 424.109058 656.03537 
L 424.631285 616.706393 
L 424.892398 614.93438 
L 427.764645 614.924547 
L 514.454272 614.832683 
L 588.610458 614.752506 
L 589.393798 614.814354 
L 589.654912 614.04585 
L 589.916025 605.114806 
L 590.177138 611.477511 
L 590.699365 608.638444 
L 591.482705 605.246867 
L 592.004932 601.932983 
L 592.527158 596.927425 
L 592.788272 593.201577 
L 593.049385 587.339812 
L 594.354952 534.671068 
L 594.616065 517.965024 
L 594.877178 509.676862 
L 595.138292 509.596765 
L 595.921632 516.54478 
L 596.182745 517.226808 
L 596.443858 516.966778 
L 596.966085 514.310772 
L 597.227198 512.89144 
L 597.488312 512.094774 
L 597.749425 511.903967 
L 598.010538 512.066773 
L 598.532765 512.88793 
L 599.054992 514.187231 
L 599.838332 516.998289 
L 601.143898 522.990759 
L 601.405012 523.357654 
L 601.666125 523.243763 
L 601.927238 522.732956 
L 602.449465 520.948094 
L 604.016145 514.86152 
L 604.277258 514.335525 
L 604.538372 514.10932 
L 604.799485 514.165808 
L 605.060598 514.506925 
L 605.321712 515.258258 
L 605.582825 516.654519 
L 606.366165 523.205687 
L 606.627278 524.092244 
L 606.888392 523.853571 
L 607.410618 521.265021 
L 607.932845 517.121999 
L 608.455072 512.823474 
L 608.716185 511.512997 
L 608.977298 510.848686 
L 609.238412 510.935156 
L 609.499525 511.867237 
L 609.760638 513.709612 
L 610.021752 516.965225 
L 610.282865 523.122679 
L 611.066205 552.142935 
L 611.327318 554.91848 
L 611.849545 556.816299 
L 612.893998 558.918902 
L 613.938452 561.194474 
L 614.721792 563.369619 
L 615.766245 566.992875 
L 617.594038 574.545668 
L 619.421832 581.747887 
L 620.727398 585.972532 
L 622.032965 589.362548 
L 623.338532 592.145718 
L 624.382985 593.958331 
L 625.427438 595.380667 
L 626.471892 596.443715 
L 627.516345 597.219542 
L 629.083025 598.062814 
L 632.477498 599.7658 
L 635.349745 601.549338 
L 638.221992 603.508283 
L 638.744218 604.135042 
L 639.788672 604.796688 
L 640.572012 605.546761 
L 641.355352 606.659425 
L 641.877578 607.814564 
L 643.444258 612.362915 
L 643.705372 612.387189 
L 644.227598 611.076605 
L 644.488712 611.723347 
L 645.533165 616.266027 
L 646.577618 620.476396 
L 646.838732 621.025855 
L 647.099845 620.787768 
L 647.622072 618.973283 
L 647.883185 617.574209 
L 648.405412 612.330319 
L 648.927638 606.664562 
L 649.188752 605.16924 
L 649.449865 605.130868 
L 649.710978 606.895084 
L 650.494318 617.45382 
L 651.016545 616.810062 
L 651.538772 623.095099 
L 652.060998 628.979474 
L 652.583225 632.396808 
L 652.844338 632.904326 
L 653.105452 632.590885 
L 653.366565 632.066184 
L 653.627678 633.718043 
L 653.888792 639.858883 
L 654.411018 643.830317 
L 655.455472 649.248005 
L 655.977698 651.175187 
L 656.238812 651.83506 
L 656.499925 652.122357 
L 656.761038 651.599426 
L 657.022152 648.739097 
L 657.544378 624.978159 
L 657.805492 627.655325 
L 658.327718 637.135583 
L 658.849945 643.622071 
L 659.633285 649.994073 
L 660.416625 654.193906 
L 661.199965 657.095828 
L 661.983305 659.071656 
L 662.505532 659.961005 
L 663.027758 660.420423 
L 663.288872 660.355652 
L 663.549985 659.83981 
L 663.811098 658.11602 
L 664.072212 652.232994 
L 664.333325 635.130148 
L 664.594438 628.238677 
L 665.116665 639.539368 
L 665.638892 646.920235 
L 666.161118 651.683751 
L 666.683345 654.910111 
L 667.466685 658.097982 
L 668.250025 660.157204 
L 669.033365 661.510413 
L 669.555592 662.036674 
L 669.816705 662.126141 
L 670.077818 662.002163 
L 670.338932 661.425124 
L 670.600045 659.62103 
L 670.861158 653.455737 
L 671.122272 635.67989 
L 671.383385 629.781252 
L 671.905612 641.826317 
L 672.427838 649.326767 
L 672.950065 654.024737 
L 673.472292 657.13131 
L 674.255632 660.140565 
L 675.038972 662.036018 
L 675.561198 662.883363 
L 676.083425 663.39912 
L 676.344538 663.489 
L 676.605652 663.398527 
L 676.866765 662.996711 
L 677.127878 661.917714 
L 677.388992 659.011189 
L 677.650105 649.457872 
L 677.911218 624.985449 
L 678.172332 614.949358 
L 678.433445 614.702101 
L 784.445458 614.26025 
L 836.668125 613.78343 
L 836.668125 613.78343 
" clip-path="url(#p36f5073f46)" style="fill: none; stroke: #2a9d8f; stroke-width: 2; stroke-linecap: square"/>
   </g>
   <g id="patch_13">
    <path d="M 53.328125 673.478125 
L 53.328125 476.678125 
" style="fill: none; stroke: #000000; stroke-width: 0.8; stroke-linejoin: miter; stroke-linecap: square"/>
   </g>
   <g id="patch_14">
    <path d="M 836.668125 673.478125 
L 836.668125 476.678125 
" style="fill: none; stroke: #000000; stroke-width: 0.8; stroke-linejoin: miter; stroke-linecap: square"/>
   </g>
   <g id="patch_15">
    <path d="M 53.328125 673.478125 
L 836.668125 673.478125 
" style="fill: none; stroke: #000000; stroke-width: 0.8; stroke-linejoin: miter; stroke-linecap: square"/>
   </g>
   <g id="patch_16">
    <path d="M 53.328125 476.678125 
L 836.668125 476.678125 
" style="fill: none; stroke: #000000; stroke-width: 0.8; stroke-linejoin: miter; stroke-linecap: square"/>
   </g>
   <g id="text_33">
    <!-- Overall Outlet Flowrate -->
    <g transform="translate(375.26875 470.678125) scale(0.12 -0.12)">
     <defs>
      <path id="DejaVuSans-76" d="M 191 3500 
L 800 3500 
L 1894 563 
L 2988 3500 
L 3597 3500 
L 2284 0 
L 1503 0 
L 191 3500 
z
" transform="scale(0.015625)"/>
     </defs>
     <use xlink:href="#DejaVuSans-4f"/>
     <use xlink:href="#DejaVuSans-76" transform="translate(78.710938 0)"/>
     <use xlink:href="#DejaVuSans-65" transform="translate(137.890625 0)"/>
     <use xlink:href="#DejaVuSans-72" transform="translate(199.414062 0)"/>
     <use xlink:href="#DejaVuSans-61" transform="translate(240.527344 0)"/>
     <use xlink:href="#DejaVuSans-6c" transform="translate(301.806641 0)"/>
     <use xlink:href="#DejaVuSans-6c" transform="translate(329.589844 0)"/>
     <use xlink:href="#DejaVuSans-20" transform="translate(357.373047 0)"/>
     <use xlink:href="#DejaVuSans-4f" transform="translate(389.160156 0)"/>
     <use xlink:href="#DejaVuSans-75" transform="translate(467.871094 0)"/>
     <use xlink:href="#DejaVuSans-74" transform="translate(531.25 0)"/>
     <use xlink:href="#DejaVuSans-6c" transform="translate(570.458984 0)"/>
     <use xlink:href="#DejaVuSans-65" transform="translate(598.242188 0)"/>
     <use xlink:href="#DejaVuSans-74" transform="translate(659.765625 0)"/>
     <use xlink:href="#DejaVuSans-20" transform="translate(698.974609 0)"/>
     <use xlink:href="#DejaVuSans-46" transform="translate(730.761719 0)"/>
     <use xlink:href="#DejaVuSans-6c" transform="translate(788.28125 0)"/>
     <use xlink:href="#DejaVuSans-6f" transform="translate(816.064453 0)"/>
     <use xlink:href="#DejaVuSans-77" transform="translate(877.246094 0)"/>
     <use xlink:href="#DejaVuSans-72" transform="translate(959.033203 0)"/>
     <use xlink:href="#DejaVuSans-61" transform="translate(1000.146484 0)"/>
     <use xlink:href="#DejaVuSans-74" transform="translate(1061.425781 0)"/>
     <use xlink:href="#DejaVuSans-65" transform="translate(1100.634766 0)"/>
    </g>
   </g>
  </g>
 </g>
 <defs>
  <clipPath id="p4abe54082a">
   <rect x="53.328125" y="22.318125" width="783.34" height="196.8"/>
  </clipPath>
  <clipPath id="pcc1c191237">
   <rect x="53.328125" y="249.498125" width="783.34" height="196.8"/>
  </clipPath>
  <clipPath id="p36f5073f46">
   <rect x="53.328125" y="476.678125" width="783.34" height="196.8"/>
  </clipPath>
 </defs>
</svg>
