<?xml version="1.0" encoding="utf-8" standalone="no"?>
<!DOCTYPE svg PUBLIC "-//W3C//DTD SVG 1.1//EN"
  "http://www.w3.org/Graphics/SVG/1.1/DTD/svg11.dtd">
<svg xmlns:xlink="http://www.w3.org/1999/xlink" width="857.23424pt" height="567.034375pt" viewBox="0 0 857.23424 567.034375" xmlns="http://www.w3.org/2000/svg" version="1.1">
 <metadata>
  <rdf:RDF xmlns:dc="http://purl.org/dc/elements/1.1/" xmlns:cc="http://creativecommons.org/ns#" xmlns:rdf="http://www.w3.org/1999/02/22-rdf-syntax-ns#">
   <cc:Work>
    <dc:type rdf:resource="http://purl.org/dc/dcmitype/StillImage"/>
    <dc:date>2026-04-21T11:26:59.590103</dc:date>
    <dc:format>image/svg+xml</dc:format>
    <dc:creator>
     <cc:Agent>
      <dc:title>Matplotlib v3.10.8, https://matplotlib.org/</dc:title>
     </cc:Agent>
    </dc:creator>
   </cc:Work>
  </rdf:RDF>
 </metadata>
 <defs>
  <style type="text/css">*{stroke-linejoin: round; stroke-linecap: butt}</style>
 </defs>
 <g id="figure_1">
  <g id="patch_1">
   <path d="M 0 567.034375 
L 857.23424 567.034375 
L 857.23424 0 
L 0 0 
z
" style="fill: #ffffff"/>
  </g>
  <g id="axes_1">
   <g id="patch_2">
    <path d="M 43.78125 260.708125 
L 796.30525 260.708125 
L 796.30525 22.318125 
L 43.78125 22.318125 
z
" style="fill: #ffffff"/>
   </g>
   <g id="matplotlib.axis_1">
    <g id="xtick_1">
     <g id="line2d_1">
      <path d="M 43.78125 260.708125 
L 43.78125 22.318125 
" clip-path="url(#p3a4f40f453)" style="fill: none; stroke: #b0b0b0; stroke-opacity: 0.3; stroke-width: 0.8; stroke-linecap: square"/>
     </g>
     <g id="line2d_2">
      <defs>
       <path id="m4b2b339bb9" d="M 0 0 
L 0 3.5 
" style="stroke: #000000; stroke-width: 0.8"/>
      </defs>
      <g>
       <use xlink:href="#m4b2b339bb9" x="43.78125" y="260.708125" style="stroke: #000000; stroke-width: 0.8"/>
      </g>
     </g>
    </g>
    <g id="xtick_2">
     <g id="line2d_3">
      <path d="M 169.201917 260.708125 
L 169.201917 22.318125 
" clip-path="url(#p3a4f40f453)" style="fill: none; stroke: #b0b0b0; stroke-opacity: 0.3; stroke-width: 0.8; stroke-linecap: square"/>
     </g>
     <g id="line2d_4">
      <g>
       <use xlink:href="#m4b2b339bb9" x="169.201917" y="260.708125" style="stroke: #000000; stroke-width: 0.8"/>
      </g>
     </g>
    </g>
    <g id="xtick_3">
     <g id="line2d_5">
      <path d="M 294.622583 260.708125 
L 294.622583 22.318125 
" clip-path="url(#p3a4f40f453)" style="fill: none; stroke: #b0b0b0; stroke-opacity: 0.3; stroke-width: 0.8; stroke-linecap: square"/>
     </g>
     <g id="line2d_6">
      <g>
       <use xlink:href="#m4b2b339bb9" x="294.622583" y="260.708125" style="stroke: #000000; stroke-width: 0.8"/>
      </g>
     </g>
    </g>
    <g id="xtick_4">
     <g id="line2d_7">
      <path d="M 420.04325 260.708125 
L 420.04325 22.318125 
" clip-path="url(#p3a4f40f453)" style="fill: none; stroke: #b0b0b0; stroke-opacity: 0.3; stroke-width: 0.8; stroke-linecap: square"/>
     </g>
     <g id="line2d_8">
      <g>
       <use xlink:href="#m4b2b339bb9" x="420.04325" y="260.708125" style="stroke: #000000; stroke-width: 0.8"/>
      </g>
     </g>
    </g>
    <g id="xtick_5">
     <g id="line2d_9">
      <path d="M 545.463917 260.708125 
L 545.463917 22.318125 
" clip-path="url(#p3a4f40f453)" style="fill: none; stroke: #b0b0b0; stroke-opacity: 0.3; stroke-width: 0.8; stroke-linecap: square"/>
     </g>
     <g id="line2d_10">
      <g>
       <use xlink:href="#m4b2b339bb9" x="545.463917" y="260.708125" style="stroke: #000000; stroke-width: 0.8"/>
      </g>
     </g>
    </g>
    <g id="xtick_6">
     <g id="line2d_11">
      <path d="M 670.884583 260.708125 
L 670.884583 22.318125 
" clip-path="url(#p3a4f40f453)" style="fill: none; stroke: #b0b0b0; stroke-opacity: 0.3; stroke-width: 0.8; stroke-linecap: square"/>
     </g>
     <g id="line2d_12">
      <g>
       <use xlink:href="#m4b2b339bb9" x="670.884583" y="260.708125" style="stroke: #000000; stroke-width: 0.8"/>
      </g>
     </g>
    </g>
    <g id="xtick_7">
     <g id="line2d_13">
      <path d="M 796.30525 260.708125 
L 796.30525 22.318125 
" clip-path="url(#p3a4f40f453)" style="fill: none; stroke: #b0b0b0; stroke-opacity: 0.3; stroke-width: 0.8; stroke-linecap: square"/>
     </g>
     <g id="line2d_14">
      <g>
       <use xlink:href="#m4b2b339bb9" x="796.30525" y="260.708125" style="stroke: #000000; stroke-width: 0.8"/>
      </g>
     </g>
    </g>
   </g>
   <g id="matplotlib.axis_2">
    <g id="ytick_1">
     <g id="line2d_15">
      <path d="M 43.78125 256.123702 
L 796.30525 256.123702 
" clip-path="url(#p3a4f40f453)" style="fill: none; stroke: #b0b0b0; stroke-opacity: 0.3; stroke-width: 0.8; stroke-linecap: square"/>
     </g>
     <g id="line2d_16">
      <defs>
       <path id="md3de934d3d" d="M 0 0 
L -3.5 0 
" style="stroke: #000000; stroke-width: 0.8"/>
      </defs>
      <g>
       <use xlink:href="#md3de934d3d" x="43.78125" y="256.123702" style="stroke: #000000; stroke-width: 0.8"/>
      </g>
     </g>
     <g id="text_1">
      <!-- 0.0 -->
      <g transform="translate(20.878125 259.922921) scale(0.1 -0.1)">
       <defs>
        <path id="DejaVuSans-30" d="M 2034 4250 
Q 1547 4250 1301 3770 
Q 1056 3291 1056 2328 
Q 1056 1369 1301 889 
Q 1547 409 2034 409 
Q 2525 409 2770 889 
Q 3016 1369 3016 2328 
Q 3016 3291 2770 3770 
Q 2525 4250 2034 4250 
z
M 2034 4750 
Q 2819 4750 3233 4129 
Q 3647 3509 3647 2328 
Q 3647 1150 3233 529 
Q 2819 -91 2034 -91 
Q 1250 -91 836 529 
Q 422 1150 422 2328 
Q 422 3509 836 4129 
Q 1250 4750 2034 4750 
z
" transform="scale(0.015625)"/>
        <path id="DejaVuSans-2e" d="M 684 794 
L 1344 794 
L 1344 0 
L 684 0 
L 684 794 
z
" transform="scale(0.015625)"/>
       </defs>
       <use xlink:href="#DejaVuSans-30"/>
       <use xlink:href="#DejaVuSans-2e" transform="translate(63.623047 0)"/>
       <use xlink:href="#DejaVuSans-30" transform="translate(95.410156 0)"/>
      </g>
     </g>
    </g>
    <g id="ytick_2">
     <g id="line2d_17">
      <path d="M 43.78125 210.279471 
L 796.30525 210.279471 
" clip-path="url(#p3a4f40f453)" style="fill: none; stroke: #b0b0b0; stroke-opacity: 0.3; stroke-width: 0.8; stroke-linecap: square"/>
     </g>
     <g id="line2d_18">
      <g>
       <use xlink:href="#md3de934d3d" x="43.78125" y="210.279471" style="stroke: #000000; stroke-width: 0.8"/>
      </g>
     </g>
     <g id="text_2">
      <!-- 0.2 -->
      <g transform="translate(20.878125 214.07869) scale(0.1 -0.1)">
       <defs>
        <path id="DejaVuSans-32" d="M 1228 531 
L 3431 531 
L 3431 0 
L 469 0 
L 469 531 
Q 828 903 1448 1529 
Q 2069 2156 2228 2338 
Q 2531 2678 2651 2914 
Q 2772 3150 2772 3378 
Q 2772 3750 2511 3984 
Q 2250 4219 1831 4219 
Q 1534 4219 1204 4116 
Q 875 4013 500 3803 
L 500 4441 
Q 881 4594 1212 4672 
Q 1544 4750 1819 4750 
Q 2544 4750 2975 4387 
Q 3406 4025 3406 3419 
Q 3406 3131 3298 2873 
Q 3191 2616 2906 2266 
Q 2828 2175 2409 1742 
Q 1991 1309 1228 531 
z
" transform="scale(0.015625)"/>
       </defs>
       <use xlink:href="#DejaVuSans-30"/>
       <use xlink:href="#DejaVuSans-2e" transform="translate(63.623047 0)"/>
       <use xlink:href="#DejaVuSans-32" transform="translate(95.410156 0)"/>
      </g>
     </g>
    </g>
    <g id="ytick_3">
     <g id="line2d_19">
      <path d="M 43.78125 164.43524 
L 796.30525 164.43524 
" clip-path="url(#p3a4f40f453)" style="fill: none; stroke: #b0b0b0; stroke-opacity: 0.3; stroke-width: 0.8; stroke-linecap: square"/>
     </g>
     <g id="line2d_20">
      <g>
       <use xlink:href="#md3de934d3d" x="43.78125" y="164.43524" style="stroke: #000000; stroke-width: 0.8"/>
      </g>
     </g>
     <g id="text_3">
      <!-- 0.4 -->
      <g transform="translate(20.878125 168.234459) scale(0.1 -0.1)">
       <defs>
        <path id="DejaVuSans-34" d="M 2419 4116 
L 825 1625 
L 2419 1625 
L 2419 4116 
z
M 2253 4666 
L 3047 4666 
L 3047 1625 
L 3713 1625 
L 3713 1100 
L 3047 1100 
L 3047 0 
L 2419 0 
L 2419 1100 
L 313 1100 
L 313 1709 
L 2253 4666 
z
" transform="scale(0.015625)"/>
       </defs>
       <use xlink:href="#DejaVuSans-30"/>
       <use xlink:href="#DejaVuSans-2e" transform="translate(63.623047 0)"/>
       <use xlink:href="#DejaVuSans-34" transform="translate(95.410156 0)"/>
      </g>
     </g>
    </g>
    <g id="ytick_4">
     <g id="line2d_21">
      <path d="M 43.78125 118.59101 
L 796.30525 118.59101 
" clip-path="url(#p3a4f40f453)" style="fill: none; stroke: #b0b0b0; stroke-opacity: 0.3; stroke-width: 0.8; stroke-linecap: square"/>
     </g>
     <g id="line2d_22">
      <g>
       <use xlink:href="#md3de934d3d" x="43.78125" y="118.59101" style="stroke: #000000; stroke-width: 0.8"/>
      </g>
     </g>
     <g id="text_4">
      <!-- 0.6 -->
      <g transform="translate(20.878125 122.390228) scale(0.1 -0.1)">
       <defs>
        <path id="DejaVuSans-36" d="M 2113 2584 
Q 1688 2584 1439 2293 
Q 1191 2003 1191 1497 
Q 1191 994 1439 701 
Q 1688 409 2113 409 
Q 2538 409 2786 701 
Q 3034 994 3034 1497 
Q 3034 2003 2786 2293 
Q 2538 2584 2113 2584 
z
M 3366 4563 
L 3366 3988 
Q 3128 4100 2886 4159 
Q 2644 4219 2406 4219 
Q 1781 4219 1451 3797 
Q 1122 3375 1075 2522 
Q 1259 2794 1537 2939 
Q 1816 3084 2150 3084 
Q 2853 3084 3261 2657 
Q 3669 2231 3669 1497 
Q 3669 778 3244 343 
Q 2819 -91 2113 -91 
Q 1303 -91 875 529 
Q 447 1150 447 2328 
Q 447 3434 972 4092 
Q 1497 4750 2381 4750 
Q 2619 4750 2861 4703 
Q 3103 4656 3366 4563 
z
" transform="scale(0.015625)"/>
       </defs>
       <use xlink:href="#DejaVuSans-30"/>
       <use xlink:href="#DejaVuSans-2e" transform="translate(63.623047 0)"/>
       <use xlink:href="#DejaVuSans-36" transform="translate(95.410156 0)"/>
      </g>
     </g>
    </g>
    <g id="ytick_5">
     <g id="line2d_23">
      <path d="M 43.78125 72.746779 
L 796.30525 72.746779 
" clip-path="url(#p3a4f40f453)" style="fill: none; stroke: #b0b0b0; stroke-opacity: 0.3; stroke-width: 0.8; stroke-linecap: square"/>
     </g>
     <g id="line2d_24">
      <g>
       <use xlink:href="#md3de934d3d" x="43.78125" y="72.746779" style="stroke: #000000; stroke-width: 0.8"/>
      </g>
     </g>
     <g id="text_5">
      <!-- 0.8 -->
      <g transform="translate(20.878125 76.545998) scale(0.1 -0.1)">
       <defs>
        <path id="DejaVuSans-38" d="M 2034 2216 
Q 1584 2216 1326 1975 
Q 1069 1734 1069 1313 
Q 1069 891 1326 650 
Q 1584 409 2034 409 
Q 2484 409 2743 651 
Q 3003 894 3003 1313 
Q 3003 1734 2745 1975 
Q 2488 2216 2034 2216 
z
M 1403 2484 
Q 997 2584 770 2862 
Q 544 3141 544 3541 
Q 544 4100 942 4425 
Q 1341 4750 2034 4750 
Q 2731 4750 3128 4425 
Q 3525 4100 3525 3541 
Q 3525 3141 3298 2862 
Q 3072 2584 2669 2484 
Q 3125 2378 3379 2068 
Q 3634 1759 3634 1313 
Q 3634 634 3220 271 
Q 2806 -91 2034 -91 
Q 1263 -91 848 271 
Q 434 634 434 1313 
Q 434 1759 690 2068 
Q 947 2378 1403 2484 
z
M 1172 3481 
Q 1172 3119 1398 2916 
Q 1625 2713 2034 2713 
Q 2441 2713 2670 2916 
Q 2900 3119 2900 3481 
Q 2900 3844 2670 4047 
Q 2441 4250 2034 4250 
Q 1625 4250 1398 4047 
Q 1172 3844 1172 3481 
z
" transform="scale(0.015625)"/>
       </defs>
       <use xlink:href="#DejaVuSans-30"/>
       <use xlink:href="#DejaVuSans-2e" transform="translate(63.623047 0)"/>
       <use xlink:href="#DejaVuSans-38" transform="translate(95.410156 0)"/>
      </g>
     </g>
    </g>
    <g id="ytick_6">
     <g id="line2d_25">
      <path d="M 43.78125 26.902548 
L 796.30525 26.902548 
" clip-path="url(#p3a4f40f453)" style="fill: none; stroke: #b0b0b0; stroke-opacity: 0.3; stroke-width: 0.8; stroke-linecap: square"/>
     </g>
     <g id="line2d_26">
      <g>
       <use xlink:href="#md3de934d3d" x="43.78125" y="26.902548" style="stroke: #000000; stroke-width: 0.8"/>
      </g>
     </g>
     <g id="text_6">
      <!-- 1.0 -->
      <g transform="translate(20.878125 30.701767) scale(0.1 -0.1)">
       <defs>
        <path id="DejaVuSans-31" d="M 794 531 
L 1825 531 
L 1825 4091 
L 703 3866 
L 703 4441 
L 1819 4666 
L 2450 4666 
L 2450 531 
L 3481 531 
L 3481 0 
L 794 0 
L 794 531 
z
" transform="scale(0.015625)"/>
       </defs>
       <use xlink:href="#DejaVuSans-31"/>
       <use xlink:href="#DejaVuSans-2e" transform="translate(63.623047 0)"/>
       <use xlink:href="#DejaVuSans-30" transform="translate(95.410156 0)"/>
      </g>
     </g>
    </g>
    <g id="text_7">
     <!-- Mole fraction [-] -->
     <g transform="translate(14.798438 181.442031) rotate(-90) scale(0.1 -0.1)">
      <defs>
       <path id="DejaVuSans-4d" d="M 628 4666 
L 1569 4666 
L 2759 1491 
L 3956 4666 
L 4897 4666 
L 4897 0 
L 4281 0 
L 4281 4097 
L 3078 897 
L 2444 897 
L 1241 4097 
L 1241 0 
L 628 0 
L 628 4666 
z
" transform="scale(0.015625)"/>
       <path id="DejaVuSans-6f" d="M 1959 3097 
Q 1497 3097 1228 2736 
Q 959 2375 959 1747 
Q 959 1119 1226 758 
Q 1494 397 1959 397 
Q 2419 397 2687 759 
Q 2956 1122 2956 1747 
Q 2956 2369 2687 2733 
Q 2419 3097 1959 3097 
z
M 1959 3584 
Q 2709 3584 3137 3096 
Q 3566 2609 3566 1747 
Q 3566 888 3137 398 
Q 2709 -91 1959 -91 
Q 1206 -91 779 398 
Q 353 888 353 1747 
Q 353 2609 779 3096 
Q 1206 3584 1959 3584 
z
" transform="scale(0.015625)"/>
       <path id="DejaVuSans-6c" d="M 603 4863 
L 1178 4863 
L 1178 0 
L 603 0 
L 603 4863 
z
" transform="scale(0.015625)"/>
       <path id="DejaVuSans-65" d="M 3597 1894 
L 3597 1613 
L 953 1613 
Q 991 1019 1311 708 
Q 1631 397 2203 397 
Q 2534 397 2845 478 
Q 3156 559 3463 722 
L 3463 178 
Q 3153 47 2828 -22 
Q 2503 -91 2169 -91 
Q 1331 -91 842 396 
Q 353 884 353 1716 
Q 353 2575 817 3079 
Q 1281 3584 2069 3584 
Q 2775 3584 3186 3129 
Q 3597 2675 3597 1894 
z
M 3022 2063 
Q 3016 2534 2758 2815 
Q 2500 3097 2075 3097 
Q 1594 3097 1305 2825 
Q 1016 2553 972 2059 
L 3022 2063 
z
" transform="scale(0.015625)"/>
       <path id="DejaVuSans-20" transform="scale(0.015625)"/>
       <path id="DejaVuSans-66" d="M 2375 4863 
L 2375 4384 
L 1825 4384 
Q 1516 4384 1395 4259 
Q 1275 4134 1275 3809 
L 1275 3500 
L 2222 3500 
L 2222 3053 
L 1275 3053 
L 1275 0 
L 697 0 
L 697 3053 
L 147 3053 
L 147 3500 
L 697 3500 
L 697 3744 
Q 697 4328 969 4595 
Q 1241 4863 1831 4863 
L 2375 4863 
z
" transform="scale(0.015625)"/>
       <path id="DejaVuSans-72" d="M 2631 2963 
Q 2534 3019 2420 3045 
Q 2306 3072 2169 3072 
Q 1681 3072 1420 2755 
Q 1159 2438 1159 1844 
L 1159 0 
L 581 0 
L 581 3500 
L 1159 3500 
L 1159 2956 
Q 1341 3275 1631 3429 
Q 1922 3584 2338 3584 
Q 2397 3584 2469 3576 
Q 2541 3569 2628 3553 
L 2631 2963 
z
" transform="scale(0.015625)"/>
       <path id="DejaVuSans-61" d="M 2194 1759 
Q 1497 1759 1228 1600 
Q 959 1441 959 1056 
Q 959 750 1161 570 
Q 1363 391 1709 391 
Q 2188 391 2477 730 
Q 2766 1069 2766 1631 
L 2766 1759 
L 2194 1759 
z
M 3341 1997 
L 3341 0 
L 2766 0 
L 2766 531 
Q 2569 213 2275 61 
Q 1981 -91 1556 -91 
Q 1019 -91 701 211 
Q 384 513 384 1019 
Q 384 1609 779 1909 
Q 1175 2209 1959 2209 
L 2766 2209 
L 2766 2266 
Q 2766 2663 2505 2880 
Q 2244 3097 1772 3097 
Q 1472 3097 1187 3025 
Q 903 2953 641 2809 
L 641 3341 
Q 956 3463 1253 3523 
Q 1550 3584 1831 3584 
Q 2591 3584 2966 3190 
Q 3341 2797 3341 1997 
z
" transform="scale(0.015625)"/>
       <path id="DejaVuSans-63" d="M 3122 3366 
L 3122 2828 
Q 2878 2963 2633 3030 
Q 2388 3097 2138 3097 
Q 1578 3097 1268 2742 
Q 959 2388 959 1747 
Q 959 1106 1268 751 
Q 1578 397 2138 397 
Q 2388 397 2633 464 
Q 2878 531 3122 666 
L 3122 134 
Q 2881 22 2623 -34 
Q 2366 -91 2075 -91 
Q 1284 -91 818 406 
Q 353 903 353 1747 
Q 353 2603 823 3093 
Q 1294 3584 2113 3584 
Q 2378 3584 2631 3529 
Q 2884 3475 3122 3366 
z
" transform="scale(0.015625)"/>
       <path id="DejaVuSans-74" d="M 1172 4494 
L 1172 3500 
L 2356 3500 
L 2356 3053 
L 1172 3053 
L 1172 1153 
Q 1172 725 1289 603 
Q 1406 481 1766 481 
L 2356 481 
L 2356 0 
L 1766 0 
Q 1100 0 847 248 
Q 594 497 594 1153 
L 594 3053 
L 172 3053 
L 172 3500 
L 594 3500 
L 594 4494 
L 1172 4494 
z
" transform="scale(0.015625)"/>
       <path id="DejaVuSans-69" d="M 603 3500 
L 1178 3500 
L 1178 0 
L 603 0 
L 603 3500 
z
M 603 4863 
L 1178 4863 
L 1178 4134 
L 603 4134 
L 603 4863 
z
" transform="scale(0.015625)"/>
       <path id="DejaVuSans-6e" d="M 3513 2113 
L 3513 0 
L 2938 0 
L 2938 2094 
Q 2938 2591 2744 2837 
Q 2550 3084 2163 3084 
Q 1697 3084 1428 2787 
Q 1159 2491 1159 1978 
L 1159 0 
L 581 0 
L 581 3500 
L 1159 3500 
L 1159 2956 
Q 1366 3272 1645 3428 
Q 1925 3584 2291 3584 
Q 2894 3584 3203 3211 
Q 3513 2838 3513 2113 
z
" transform="scale(0.015625)"/>
       <path id="DejaVuSans-5b" d="M 550 4863 
L 1875 4863 
L 1875 4416 
L 1125 4416 
L 1125 -397 
L 1875 -397 
L 1875 -844 
L 550 -844 
L 550 4863 
z
" transform="scale(0.015625)"/>
       <path id="DejaVuSans-2d" d="M 313 2009 
L 1997 2009 
L 1997 1497 
L 313 1497 
L 313 2009 
z
" transform="scale(0.015625)"/>
       <path id="DejaVuSans-5d" d="M 1947 4863 
L 1947 -844 
L 622 -844 
L 622 -397 
L 1369 -397 
L 1369 4416 
L 622 4416 
L 622 4863 
L 1947 4863 
z
" transform="scale(0.015625)"/>
      </defs>
      <use xlink:href="#DejaVuSans-4d"/>
      <use xlink:href="#DejaVuSans-6f" transform="translate(86.279297 0)"/>
      <use xlink:href="#DejaVuSans-6c" transform="translate(147.460938 0)"/>
      <use xlink:href="#DejaVuSans-65" transform="translate(175.244141 0)"/>
      <use xlink:href="#DejaVuSans-20" transform="translate(236.767578 0)"/>
      <use xlink:href="#DejaVuSans-66" transform="translate(268.554688 0)"/>
      <use xlink:href="#DejaVuSans-72" transform="translate(303.759766 0)"/>
      <use xlink:href="#DejaVuSans-61" transform="translate(344.873047 0)"/>
      <use xlink:href="#DejaVuSans-63" transform="translate(406.152344 0)"/>
      <use xlink:href="#DejaVuSans-74" transform="translate(461.132812 0)"/>
      <use xlink:href="#DejaVuSans-69" transform="translate(500.341797 0)"/>
      <use xlink:href="#DejaVuSans-6f" transform="translate(528.125 0)"/>
      <use xlink:href="#DejaVuSans-6e" transform="translate(589.306641 0)"/>
      <use xlink:href="#DejaVuSans-20" transform="translate(652.685547 0)"/>
      <use xlink:href="#DejaVuSans-5b" transform="translate(684.472656 0)"/>
      <use xlink:href="#DejaVuSans-2d" transform="translate(723.486328 0)"/>
      <use xlink:href="#DejaVuSans-5d" transform="translate(759.570312 0)"/>
     </g>
    </g>
   </g>
   <g id="line2d_27">
    <path d="M 43.78125 256.123702 
L 70.11959 256.123702 
L 71.373797 187.357356 
L 96.45793 187.357356 
L 97.712137 256.123702 
L 324.723543 256.123702 
L 325.97775 187.357356 
L 351.061883 187.357356 
L 352.31609 256.123702 
L 579.327497 256.123702 
L 580.581703 187.357356 
L 605.665837 187.357356 
L 606.920043 256.123702 
L 796.30525 256.123702 
L 796.30525 256.123702 
" clip-path="url(#p3a4f40f453)" style="fill: none; stroke: #1f77b4; stroke-width: 2; stroke-linecap: square"/>
   </g>
   <g id="line2d_28">
    <path d="M 43.78125 256.123702 
L 45.035457 210.279471 
L 96.45793 210.279471 
L 97.712137 256.123702 
L 298.385203 256.123702 
L 299.63941 210.279471 
L 351.061883 210.279471 
L 352.31609 256.123702 
L 552.989157 256.123702 
L 554.243363 210.279471 
L 605.665837 210.279471 
L 606.920043 256.123702 
L 796.30525 256.123702 
L 796.30525 256.123702 
" clip-path="url(#p3a4f40f453)" style="fill: none; stroke: #ff7f0e; stroke-width: 2; stroke-linecap: square"/>
   </g>
   <g id="line2d_29">
    <path d="M 43.78125 256.123702 
L 70.11959 256.123702 
L 71.373797 244.662644 
L 96.45793 244.662644 
L 97.712137 256.123702 
L 324.723543 256.123702 
L 325.97775 244.662644 
L 351.061883 244.662644 
L 352.31609 256.123702 
L 579.327497 256.123702 
L 580.581703 244.662644 
L 605.665837 244.662644 
L 606.920043 256.123702 
L 796.30525 256.123702 
L 796.30525 256.123702 
" clip-path="url(#p3a4f40f453)" style="fill: none; stroke: #2ca02c; stroke-width: 2; stroke-linecap: square"/>
   </g>
   <g id="line2d_30">
    <path d="M 43.78125 256.123702 
L 70.11959 256.123702 
L 71.373797 164.43524 
L 96.45793 164.43524 
L 97.712137 256.123702 
L 324.723543 256.123702 
L 325.97775 164.43524 
L 351.061883 164.43524 
L 352.31609 256.123702 
L 579.327497 256.123702 
L 580.581703 164.43524 
L 605.665837 164.43524 
L 606.920043 256.123702 
L 796.30525 256.123702 
L 796.30525 256.123702 
" clip-path="url(#p3a4f40f453)" style="fill: none; stroke: #9467bd; stroke-width: 2; stroke-linecap: square"/>
   </g>
   <g id="line2d_31">
    <path d="M 43.78125 256.123702 
L 796.30525 256.123702 
L 796.30525 256.123702 
" clip-path="url(#p3a4f40f453)" style="fill: none; stroke: #8c564b; stroke-width: 2; stroke-linecap: square"/>
   </g>
   <g id="line2d_32">
    <path d="M 43.78125 256.123702 
L 45.035457 72.746779 
L 70.11959 72.746779 
L 71.373797 244.662644 
L 96.45793 244.662644 
L 97.712137 256.123702 
L 298.385203 256.123702 
L 299.63941 72.746779 
L 324.723543 72.746779 
L 325.97775 244.662644 
L 351.061883 244.662644 
L 352.31609 256.123702 
L 552.989157 256.123702 
L 554.243363 72.746779 
L 579.327497 72.746779 
L 580.581703 244.662644 
L 605.665837 244.662644 
L 606.920043 256.123702 
L 796.30525 256.123702 
L 796.30525 256.123702 
" clip-path="url(#p3a4f40f453)" style="fill: none; stroke: #7f7f7f; stroke-width: 2; stroke-linecap: square"/>
   </g>
   <g id="line2d_33">
    <path d="M 43.78125 26.902548 
L 45.035457 256.123702 
L 96.45793 256.123702 
L 97.712137 72.746779 
L 298.385203 72.746779 
L 299.63941 256.123702 
L 351.061883 256.123702 
L 352.31609 72.746779 
L 552.989157 72.746779 
L 554.243363 256.123702 
L 605.665837 256.123702 
L 606.920043 72.746779 
L 796.30525 72.746779 
L 796.30525 72.746779 
" clip-path="url(#p3a4f40f453)" style="fill: none; stroke: #bcbd22; stroke-width: 2; stroke-linecap: square"/>
   </g>
   <g id="line2d_34">
    <path d="M 43.78125 256.123702 
L 96.45793 256.123702 
L 97.712137 210.279471 
L 298.385203 210.279471 
L 299.63941 256.123702 
L 351.061883 256.123702 
L 352.31609 210.279471 
L 552.989157 210.279471 
L 554.243363 256.123702 
L 605.665837 256.123702 
L 606.920043 210.279471 
L 796.30525 210.279471 
L 796.30525 210.279471 
" clip-path="url(#p3a4f40f453)" style="fill: none; stroke: #17becf; stroke-width: 2; stroke-linecap: square"/>
   </g>
   <g id="patch_3">
    <path d="M 43.78125 260.708125 
L 43.78125 22.318125 
" style="fill: none; stroke: #000000; stroke-width: 0.8; stroke-linejoin: miter; stroke-linecap: square"/>
   </g>
   <g id="patch_4">
    <path d="M 796.30525 260.708125 
L 796.30525 22.318125 
" style="fill: none; stroke: #000000; stroke-width: 0.8; stroke-linejoin: miter; stroke-linecap: square"/>
   </g>
   <g id="patch_5">
    <path d="M 43.78125 260.708125 
L 796.30525 260.708125 
" style="fill: none; stroke: #000000; stroke-width: 0.8; stroke-linejoin: miter; stroke-linecap: square"/>
   </g>
   <g id="patch_6">
    <path d="M 43.78125 22.318125 
L 796.30525 22.318125 
" style="fill: none; stroke: #000000; stroke-width: 0.8; stroke-linejoin: miter; stroke-linecap: square"/>
   </g>
   <g id="text_8">
    <!-- Inlet Composition Program -->
    <g transform="translate(340.162625 16.318125) scale(0.12 -0.12)">
     <defs>
      <path id="DejaVuSans-49" d="M 628 4666 
L 1259 4666 
L 1259 0 
L 628 0 
L 628 4666 
z
" transform="scale(0.015625)"/>
      <path id="DejaVuSans-43" d="M 4122 4306 
L 4122 3641 
Q 3803 3938 3442 4084 
Q 3081 4231 2675 4231 
Q 1875 4231 1450 3742 
Q 1025 3253 1025 2328 
Q 1025 1406 1450 917 
Q 1875 428 2675 428 
Q 3081 428 3442 575 
Q 3803 722 4122 1019 
L 4122 359 
Q 3791 134 3420 21 
Q 3050 -91 2638 -91 
Q 1578 -91 968 557 
Q 359 1206 359 2328 
Q 359 3453 968 4101 
Q 1578 4750 2638 4750 
Q 3056 4750 3426 4639 
Q 3797 4528 4122 4306 
z
" transform="scale(0.015625)"/>
      <path id="DejaVuSans-6d" d="M 3328 2828 
Q 3544 3216 3844 3400 
Q 4144 3584 4550 3584 
Q 5097 3584 5394 3201 
Q 5691 2819 5691 2113 
L 5691 0 
L 5113 0 
L 5113 2094 
Q 5113 2597 4934 2840 
Q 4756 3084 4391 3084 
Q 3944 3084 3684 2787 
Q 3425 2491 3425 1978 
L 3425 0 
L 2847 0 
L 2847 2094 
Q 2847 2600 2669 2842 
Q 2491 3084 2119 3084 
Q 1678 3084 1418 2786 
Q 1159 2488 1159 1978 
L 1159 0 
L 581 0 
L 581 3500 
L 1159 3500 
L 1159 2956 
Q 1356 3278 1631 3431 
Q 1906 3584 2284 3584 
Q 2666 3584 2933 3390 
Q 3200 3197 3328 2828 
z
" transform="scale(0.015625)"/>
      <path id="DejaVuSans-70" d="M 1159 525 
L 1159 -1331 
L 581 -1331 
L 581 3500 
L 1159 3500 
L 1159 2969 
Q 1341 3281 1617 3432 
Q 1894 3584 2278 3584 
Q 2916 3584 3314 3078 
Q 3713 2572 3713 1747 
Q 3713 922 3314 415 
Q 2916 -91 2278 -91 
Q 1894 -91 1617 61 
Q 1341 213 1159 525 
z
M 3116 1747 
Q 3116 2381 2855 2742 
Q 2594 3103 2138 3103 
Q 1681 3103 1420 2742 
Q 1159 2381 1159 1747 
Q 1159 1113 1420 752 
Q 1681 391 2138 391 
Q 2594 391 2855 752 
Q 3116 1113 3116 1747 
z
" transform="scale(0.015625)"/>
      <path id="DejaVuSans-73" d="M 2834 3397 
L 2834 2853 
Q 2591 2978 2328 3040 
Q 2066 3103 1784 3103 
Q 1356 3103 1142 2972 
Q 928 2841 928 2578 
Q 928 2378 1081 2264 
Q 1234 2150 1697 2047 
L 1894 2003 
Q 2506 1872 2764 1633 
Q 3022 1394 3022 966 
Q 3022 478 2636 193 
Q 2250 -91 1575 -91 
Q 1294 -91 989 -36 
Q 684 19 347 128 
L 347 722 
Q 666 556 975 473 
Q 1284 391 1588 391 
Q 1994 391 2212 530 
Q 2431 669 2431 922 
Q 2431 1156 2273 1281 
Q 2116 1406 1581 1522 
L 1381 1569 
Q 847 1681 609 1914 
Q 372 2147 372 2553 
Q 372 3047 722 3315 
Q 1072 3584 1716 3584 
Q 2034 3584 2315 3537 
Q 2597 3491 2834 3397 
z
" transform="scale(0.015625)"/>
      <path id="DejaVuSans-50" d="M 1259 4147 
L 1259 2394 
L 2053 2394 
Q 2494 2394 2734 2622 
Q 2975 2850 2975 3272 
Q 2975 3691 2734 3919 
Q 2494 4147 2053 4147 
L 1259 4147 
z
M 628 4666 
L 2053 4666 
Q 2838 4666 3239 4311 
Q 3641 3956 3641 3272 
Q 3641 2581 3239 2228 
Q 2838 1875 2053 1875 
L 1259 1875 
L 1259 0 
L 628 0 
L 628 4666 
z
" transform="scale(0.015625)"/>
      <path id="DejaVuSans-67" d="M 2906 1791 
Q 2906 2416 2648 2759 
Q 2391 3103 1925 3103 
Q 1463 3103 1205 2759 
Q 947 2416 947 1791 
Q 947 1169 1205 825 
Q 1463 481 1925 481 
Q 2391 481 2648 825 
Q 2906 1169 2906 1791 
z
M 3481 434 
Q 3481 -459 3084 -895 
Q 2688 -1331 1869 -1331 
Q 1566 -1331 1297 -1286 
Q 1028 -1241 775 -1147 
L 775 -588 
Q 1028 -725 1275 -790 
Q 1522 -856 1778 -856 
Q 2344 -856 2625 -561 
Q 2906 -266 2906 331 
L 2906 616 
Q 2728 306 2450 153 
Q 2172 0 1784 0 
Q 1141 0 747 490 
Q 353 981 353 1791 
Q 353 2603 747 3093 
Q 1141 3584 1784 3584 
Q 2172 3584 2450 3431 
Q 2728 3278 2906 2969 
L 2906 3500 
L 3481 3500 
L 3481 434 
z
" transform="scale(0.015625)"/>
     </defs>
     <use xlink:href="#DejaVuSans-49"/>
     <use xlink:href="#DejaVuSans-6e" transform="translate(29.492188 0)"/>
     <use xlink:href="#DejaVuSans-6c" transform="translate(92.871094 0)"/>
     <use xlink:href="#DejaVuSans-65" transform="translate(120.654297 0)"/>
     <use xlink:href="#DejaVuSans-74" transform="translate(182.177734 0)"/>
     <use xlink:href="#DejaVuSans-20" transform="translate(221.386719 0)"/>
     <use xlink:href="#DejaVuSans-43" transform="translate(253.173828 0)"/>
     <use xlink:href="#DejaVuSans-6f" transform="translate(322.998047 0)"/>
     <use xlink:href="#DejaVuSans-6d" transform="translate(384.179688 0)"/>
     <use xlink:href="#DejaVuSans-70" transform="translate(481.591797 0)"/>
     <use xlink:href="#DejaVuSans-6f" transform="translate(545.068359 0)"/>
     <use xlink:href="#DejaVuSans-73" transform="translate(606.25 0)"/>
     <use xlink:href="#DejaVuSans-69" transform="translate(658.349609 0)"/>
     <use xlink:href="#DejaVuSans-74" transform="translate(686.132812 0)"/>
     <use xlink:href="#DejaVuSans-69" transform="translate(725.341797 0)"/>
     <use xlink:href="#DejaVuSans-6f" transform="translate(753.125 0)"/>
     <use xlink:href="#DejaVuSans-6e" transform="translate(814.306641 0)"/>
     <use xlink:href="#DejaVuSans-20" transform="translate(877.685547 0)"/>
     <use xlink:href="#DejaVuSans-50" transform="translate(909.472656 0)"/>
     <use xlink:href="#DejaVuSans-72" transform="translate(968.025391 0)"/>
     <use xlink:href="#DejaVuSans-6f" transform="translate(1006.888672 0)"/>
     <use xlink:href="#DejaVuSans-67" transform="translate(1068.070312 0)"/>
     <use xlink:href="#DejaVuSans-72" transform="translate(1131.546875 0)"/>
     <use xlink:href="#DejaVuSans-61" transform="translate(1172.660156 0)"/>
     <use xlink:href="#DejaVuSans-6d" transform="translate(1233.939453 0)"/>
    </g>
   </g>
   <g id="legend_1">
    <g id="patch_7">
     <path d="M 805.43049 118.658125 
L 848.43424 118.658125 
Q 850.03424 118.658125 850.03424 117.058125 
L 850.03424 23.918125 
Q 850.03424 22.318125 848.43424 22.318125 
L 805.43049 22.318125 
Q 803.83049 22.318125 803.83049 23.918125 
L 803.83049 117.058125 
Q 803.83049 118.658125 805.43049 118.658125 
z
" style="fill: #ffffff; opacity: 0.8; stroke: #cccccc; stroke-linejoin: miter"/>
    </g>
    <g id="line2d_35">
     <path d="M 807.03049 28.796875 
L 815.03049 28.796875 
L 823.03049 28.796875 
" style="fill: none; stroke: #1f77b4; stroke-width: 2; stroke-linecap: square"/>
    </g>
    <g id="text_9">
     <!-- Ar -->
     <g transform="translate(829.43049 31.596875) scale(0.08 -0.08)">
      <defs>
       <path id="DejaVuSans-41" d="M 2188 4044 
L 1331 1722 
L 3047 1722 
L 2188 4044 
z
M 1831 4666 
L 2547 4666 
L 4325 0 
L 3669 0 
L 3244 1197 
L 1141 1197 
L 716 0 
L 50 0 
L 1831 4666 
z
" transform="scale(0.015625)"/>
      </defs>
      <use xlink:href="#DejaVuSans-41"/>
      <use xlink:href="#DejaVuSans-72" transform="translate(68.408203 0)"/>
     </g>
    </g>
    <g id="line2d_36">
     <path d="M 807.03049 40.539375 
L 815.03049 40.539375 
L 823.03049 40.539375 
" style="fill: none; stroke: #ff7f0e; stroke-width: 2; stroke-linecap: square"/>
    </g>
    <g id="text_10">
     <!-- CH4 -->
     <g transform="translate(829.43049 43.339375) scale(0.08 -0.08)">
      <defs>
       <path id="DejaVuSans-48" d="M 628 4666 
L 1259 4666 
L 1259 2753 
L 3553 2753 
L 3553 4666 
L 4184 4666 
L 4184 0 
L 3553 0 
L 3553 2222 
L 1259 2222 
L 1259 0 
L 628 0 
L 628 4666 
z
" transform="scale(0.015625)"/>
      </defs>
      <use xlink:href="#DejaVuSans-43"/>
      <use xlink:href="#DejaVuSans-48" transform="translate(69.824219 0)"/>
      <use xlink:href="#DejaVuSans-34" transform="translate(145.019531 0)"/>
     </g>
    </g>
    <g id="line2d_37">
     <path d="M 807.03049 52.281875 
L 815.03049 52.281875 
L 823.03049 52.281875 
" style="fill: none; stroke: #2ca02c; stroke-width: 2; stroke-linecap: square"/>
    </g>
    <g id="text_11">
     <!-- CO -->
     <g transform="translate(829.43049 55.081875) scale(0.08 -0.08)">
      <defs>
       <path id="DejaVuSans-4f" d="M 2522 4238 
Q 1834 4238 1429 3725 
Q 1025 3213 1025 2328 
Q 1025 1447 1429 934 
Q 1834 422 2522 422 
Q 3209 422 3611 934 
Q 4013 1447 4013 2328 
Q 4013 3213 3611 3725 
Q 3209 4238 2522 4238 
z
M 2522 4750 
Q 3503 4750 4090 4092 
Q 4678 3434 4678 2328 
Q 4678 1225 4090 567 
Q 3503 -91 2522 -91 
Q 1538 -91 948 565 
Q 359 1222 359 2328 
Q 359 3434 948 4092 
Q 1538 4750 2522 4750 
z
" transform="scale(0.015625)"/>
      </defs>
      <use xlink:href="#DejaVuSans-43"/>
      <use xlink:href="#DejaVuSans-4f" transform="translate(69.824219 0)"/>
     </g>
    </g>
    <g id="line2d_38">
     <path d="M 807.03049 64.024375 
L 815.03049 64.024375 
L 823.03049 64.024375 
" style="fill: none; stroke: #9467bd; stroke-width: 2; stroke-linecap: square"/>
    </g>
    <g id="text_12">
     <!-- CO2 -->
     <g transform="translate(829.43049 66.824375) scale(0.08 -0.08)">
      <use xlink:href="#DejaVuSans-43"/>
      <use xlink:href="#DejaVuSans-4f" transform="translate(69.824219 0)"/>
      <use xlink:href="#DejaVuSans-32" transform="translate(148.535156 0)"/>
     </g>
    </g>
    <g id="line2d_39">
     <path d="M 807.03049 75.766875 
L 815.03049 75.766875 
L 823.03049 75.766875 
" style="fill: none; stroke: #8c564b; stroke-width: 2; stroke-linecap: square"/>
    </g>
    <g id="text_13">
     <!-- H2 -->
     <g transform="translate(829.43049 78.566875) scale(0.08 -0.08)">
      <use xlink:href="#DejaVuSans-48"/>
      <use xlink:href="#DejaVuSans-32" transform="translate(75.195312 0)"/>
     </g>
    </g>
    <g id="line2d_40">
     <path d="M 807.03049 87.509375 
L 815.03049 87.509375 
L 823.03049 87.509375 
" style="fill: none; stroke: #7f7f7f; stroke-width: 2; stroke-linecap: square"/>
    </g>
    <g id="text_14">
     <!-- H2O -->
     <g transform="translate(829.43049 90.309375) scale(0.08 -0.08)">
      <use xlink:href="#DejaVuSans-48"/>
      <use xlink:href="#DejaVuSans-32" transform="translate(75.195312 0)"/>
      <use xlink:href="#DejaVuSans-4f" transform="translate(138.818359 0)"/>
     </g>
    </g>
    <g id="line2d_41">
     <path d="M 807.03049 99.251875 
L 815.03049 99.251875 
L 823.03049 99.251875 
" style="fill: none; stroke: #bcbd22; stroke-width: 2; stroke-linecap: square"/>
    </g>
    <g id="text_15">
     <!-- N2 -->
     <g transform="translate(829.43049 102.051875) scale(0.08 -0.08)">
      <defs>
       <path id="DejaVuSans-4e" d="M 628 4666 
L 1478 4666 
L 3547 763 
L 3547 4666 
L 4159 4666 
L 4159 0 
L 3309 0 
L 1241 3903 
L 1241 0 
L 628 0 
L 628 4666 
z
" transform="scale(0.015625)"/>
      </defs>
      <use xlink:href="#DejaVuSans-4e"/>
      <use xlink:href="#DejaVuSans-32" transform="translate(74.804688 0)"/>
     </g>
    </g>
    <g id="line2d_42">
     <path d="M 807.03049 110.994375 
L 815.03049 110.994375 
L 823.03049 110.994375 
" style="fill: none; stroke: #17becf; stroke-width: 2; stroke-linecap: square"/>
    </g>
    <g id="text_16">
     <!-- O2 -->
     <g transform="translate(829.43049 113.794375) scale(0.08 -0.08)">
      <use xlink:href="#DejaVuSans-4f"/>
      <use xlink:href="#DejaVuSans-32" transform="translate(78.710938 0)"/>
     </g>
    </g>
   </g>
  </g>
  <g id="axes_2">
   <g id="patch_8">
    <path d="M 43.78125 529.478125 
L 796.30525 529.478125 
L 796.30525 291.088125 
L 43.78125 291.088125 
z
" style="fill: #ffffff"/>
   </g>
   <g id="matplotlib.axis_3">
    <g id="xtick_8">
     <g id="line2d_43">
      <path d="M 43.78125 529.478125 
L 43.78125 291.088125 
" clip-path="url(#pd828a6e19d)" style="fill: none; stroke: #b0b0b0; stroke-opacity: 0.3; stroke-width: 0.8; stroke-linecap: square"/>
     </g>
     <g id="line2d_44">
      <g>
       <use xlink:href="#m4b2b339bb9" x="43.78125" y="529.478125" style="stroke: #000000; stroke-width: 0.8"/>
      </g>
     </g>
     <g id="text_17">
      <!-- 0 -->
      <g transform="translate(40.6 544.076562) scale(0.1 -0.1)">
       <use xlink:href="#DejaVuSans-30"/>
      </g>
     </g>
    </g>
    <g id="xtick_9">
     <g id="line2d_45">
      <path d="M 169.201917 529.478125 
L 169.201917 291.088125 
" clip-path="url(#pd828a6e19d)" style="fill: none; stroke: #b0b0b0; stroke-opacity: 0.3; stroke-width: 0.8; stroke-linecap: square"/>
     </g>
     <g id="line2d_46">
      <g>
       <use xlink:href="#m4b2b339bb9" x="169.201917" y="529.478125" style="stroke: #000000; stroke-width: 0.8"/>
      </g>
     </g>
     <g id="text_18">
      <!-- 500 -->
      <g transform="translate(159.658167 544.076562) scale(0.1 -0.1)">
       <defs>
        <path id="DejaVuSans-35" d="M 691 4666 
L 3169 4666 
L 3169 4134 
L 1269 4134 
L 1269 2991 
Q 1406 3038 1543 3061 
Q 1681 3084 1819 3084 
Q 2600 3084 3056 2656 
Q 3513 2228 3513 1497 
Q 3513 744 3044 326 
Q 2575 -91 1722 -91 
Q 1428 -91 1123 -41 
Q 819 9 494 109 
L 494 744 
Q 775 591 1075 516 
Q 1375 441 1709 441 
Q 2250 441 2565 725 
Q 2881 1009 2881 1497 
Q 2881 1984 2565 2268 
Q 2250 2553 1709 2553 
Q 1456 2553 1204 2497 
Q 953 2441 691 2322 
L 691 4666 
z
" transform="scale(0.015625)"/>
       </defs>
       <use xlink:href="#DejaVuSans-35"/>
       <use xlink:href="#DejaVuSans-30" transform="translate(63.623047 0)"/>
       <use xlink:href="#DejaVuSans-30" transform="translate(127.246094 0)"/>
      </g>
     </g>
    </g>
    <g id="xtick_10">
     <g id="line2d_47">
      <path d="M 294.622583 529.478125 
L 294.622583 291.088125 
" clip-path="url(#pd828a6e19d)" style="fill: none; stroke: #b0b0b0; stroke-opacity: 0.3; stroke-width: 0.8; stroke-linecap: square"/>
     </g>
     <g id="line2d_48">
      <g>
       <use xlink:href="#m4b2b339bb9" x="294.622583" y="529.478125" style="stroke: #000000; stroke-width: 0.8"/>
      </g>
     </g>
     <g id="text_19">
      <!-- 1000 -->
      <g transform="translate(281.897583 544.076562) scale(0.1 -0.1)">
       <use xlink:href="#DejaVuSans-31"/>
       <use xlink:href="#DejaVuSans-30" transform="translate(63.623047 0)"/>
       <use xlink:href="#DejaVuSans-30" transform="translate(127.246094 0)"/>
       <use xlink:href="#DejaVuSans-30" transform="translate(190.869141 0)"/>
      </g>
     </g>
    </g>
    <g id="xtick_11">
     <g id="line2d_49">
      <path d="M 420.04325 529.478125 
L 420.04325 291.088125 
" clip-path="url(#pd828a6e19d)" style="fill: none; stroke: #b0b0b0; stroke-opacity: 0.3; stroke-width: 0.8; stroke-linecap: square"/>
     </g>
     <g id="line2d_50">
      <g>
       <use xlink:href="#m4b2b339bb9" x="420.04325" y="529.478125" style="stroke: #000000; stroke-width: 0.8"/>
      </g>
     </g>
     <g id="text_20">
      <!-- 1500 -->
      <g transform="translate(407.31825 544.076562) scale(0.1 -0.1)">
       <use xlink:href="#DejaVuSans-31"/>
       <use xlink:href="#DejaVuSans-35" transform="translate(63.623047 0)"/>
       <use xlink:href="#DejaVuSans-30" transform="translate(127.246094 0)"/>
       <use xlink:href="#DejaVuSans-30" transform="translate(190.869141 0)"/>
      </g>
     </g>
    </g>
    <g id="xtick_12">
     <g id="line2d_51">
      <path d="M 545.463917 529.478125 
L 545.463917 291.088125 
" clip-path="url(#pd828a6e19d)" style="fill: none; stroke: #b0b0b0; stroke-opacity: 0.3; stroke-width: 0.8; stroke-linecap: square"/>
     </g>
     <g id="line2d_52">
      <g>
       <use xlink:href="#m4b2b339bb9" x="545.463917" y="529.478125" style="stroke: #000000; stroke-width: 0.8"/>
      </g>
     </g>
     <g id="text_21">
      <!-- 2000 -->
      <g transform="translate(532.738917 544.076562) scale(0.1 -0.1)">
       <use xlink:href="#DejaVuSans-32"/>
       <use xlink:href="#DejaVuSans-30" transform="translate(63.623047 0)"/>
       <use xlink:href="#DejaVuSans-30" transform="translate(127.246094 0)"/>
       <use xlink:href="#DejaVuSans-30" transform="translate(190.869141 0)"/>
      </g>
     </g>
    </g>
    <g id="xtick_13">
     <g id="line2d_53">
      <path d="M 670.884583 529.478125 
L 670.884583 291.088125 
" clip-path="url(#pd828a6e19d)" style="fill: none; stroke: #b0b0b0; stroke-opacity: 0.3; stroke-width: 0.8; stroke-linecap: square"/>
     </g>
     <g id="line2d_54">
      <g>
       <use xlink:href="#m4b2b339bb9" x="670.884583" y="529.478125" style="stroke: #000000; stroke-width: 0.8"/>
      </g>
     </g>
     <g id="text_22">
      <!-- 2500 -->
      <g transform="translate(658.159583 544.076562) scale(0.1 -0.1)">
       <use xlink:href="#DejaVuSans-32"/>
       <use xlink:href="#DejaVuSans-35" transform="translate(63.623047 0)"/>
       <use xlink:href="#DejaVuSans-30" transform="translate(127.246094 0)"/>
       <use xlink:href="#DejaVuSans-30" transform="translate(190.869141 0)"/>
      </g>
     </g>
    </g>
    <g id="xtick_14">
     <g id="line2d_55">
      <path d="M 796.30525 529.478125 
L 796.30525 291.088125 
" clip-path="url(#pd828a6e19d)" style="fill: none; stroke: #b0b0b0; stroke-opacity: 0.3; stroke-width: 0.8; stroke-linecap: square"/>
     </g>
     <g id="line2d_56">
      <g>
       <use xlink:href="#m4b2b339bb9" x="796.30525" y="529.478125" style="stroke: #000000; stroke-width: 0.8"/>
      </g>
     </g>
     <g id="text_23">
      <!-- 3000 -->
      <g transform="translate(783.58025 544.076562) scale(0.1 -0.1)">
       <defs>
        <path id="DejaVuSans-33" d="M 2597 2516 
Q 3050 2419 3304 2112 
Q 3559 1806 3559 1356 
Q 3559 666 3084 287 
Q 2609 -91 1734 -91 
Q 1441 -91 1130 -33 
Q 819 25 488 141 
L 488 750 
Q 750 597 1062 519 
Q 1375 441 1716 441 
Q 2309 441 2620 675 
Q 2931 909 2931 1356 
Q 2931 1769 2642 2001 
Q 2353 2234 1838 2234 
L 1294 2234 
L 1294 2753 
L 1863 2753 
Q 2328 2753 2575 2939 
Q 2822 3125 2822 3475 
Q 2822 3834 2567 4026 
Q 2313 4219 1838 4219 
Q 1578 4219 1281 4162 
Q 984 4106 628 3988 
L 628 4550 
Q 988 4650 1302 4700 
Q 1616 4750 1894 4750 
Q 2613 4750 3031 4423 
Q 3450 4097 3450 3541 
Q 3450 3153 3228 2886 
Q 3006 2619 2597 2516 
z
" transform="scale(0.015625)"/>
       </defs>
       <use xlink:href="#DejaVuSans-33"/>
       <use xlink:href="#DejaVuSans-30" transform="translate(63.623047 0)"/>
       <use xlink:href="#DejaVuSans-30" transform="translate(127.246094 0)"/>
       <use xlink:href="#DejaVuSans-30" transform="translate(190.869141 0)"/>
      </g>
     </g>
    </g>
    <g id="text_24">
     <!-- Time [s] -->
     <g transform="translate(399.714344 557.754687) scale(0.1 -0.1)">
      <defs>
       <path id="DejaVuSans-54" d="M -19 4666 
L 3928 4666 
L 3928 4134 
L 2272 4134 
L 2272 0 
L 1638 0 
L 1638 4134 
L -19 4134 
L -19 4666 
z
" transform="scale(0.015625)"/>
      </defs>
      <use xlink:href="#DejaVuSans-54"/>
      <use xlink:href="#DejaVuSans-69" transform="translate(57.958984 0)"/>
      <use xlink:href="#DejaVuSans-6d" transform="translate(85.742188 0)"/>
      <use xlink:href="#DejaVuSans-65" transform="translate(183.154297 0)"/>
      <use xlink:href="#DejaVuSans-20" transform="translate(244.677734 0)"/>
      <use xlink:href="#DejaVuSans-5b" transform="translate(276.464844 0)"/>
      <use xlink:href="#DejaVuSans-73" transform="translate(315.478516 0)"/>
      <use xlink:href="#DejaVuSans-5d" transform="translate(367.578125 0)"/>
     </g>
    </g>
   </g>
   <g id="matplotlib.axis_4">
    <g id="ytick_7">
     <g id="line2d_57">
      <path d="M 43.78125 524.893702 
L 796.30525 524.893702 
" clip-path="url(#pd828a6e19d)" style="fill: none; stroke: #b0b0b0; stroke-opacity: 0.3; stroke-width: 0.8; stroke-linecap: square"/>
     </g>
     <g id="line2d_58">
      <g>
       <use xlink:href="#md3de934d3d" x="43.78125" y="524.893702" style="stroke: #000000; stroke-width: 0.8"/>
      </g>
     </g>
     <g id="text_25">
      <!-- 0.0 -->
      <g transform="translate(20.878125 528.692921) scale(0.1 -0.1)">
       <use xlink:href="#DejaVuSans-30"/>
       <use xlink:href="#DejaVuSans-2e" transform="translate(63.623047 0)"/>
       <use xlink:href="#DejaVuSans-30" transform="translate(95.410156 0)"/>
      </g>
     </g>
    </g>
    <g id="ytick_8">
     <g id="line2d_59">
      <path d="M 43.78125 479.049471 
L 796.30525 479.049471 
" clip-path="url(#pd828a6e19d)" style="fill: none; stroke: #b0b0b0; stroke-opacity: 0.3; stroke-width: 0.8; stroke-linecap: square"/>
     </g>
     <g id="line2d_60">
      <g>
       <use xlink:href="#md3de934d3d" x="43.78125" y="479.049471" style="stroke: #000000; stroke-width: 0.8"/>
      </g>
     </g>
     <g id="text_26">
      <!-- 0.2 -->
      <g transform="translate(20.878125 482.84869) scale(0.1 -0.1)">
       <use xlink:href="#DejaVuSans-30"/>
       <use xlink:href="#DejaVuSans-2e" transform="translate(63.623047 0)"/>
       <use xlink:href="#DejaVuSans-32" transform="translate(95.410156 0)"/>
      </g>
     </g>
    </g>
    <g id="ytick_9">
     <g id="line2d_61">
      <path d="M 43.78125 433.20524 
L 796.30525 433.20524 
" clip-path="url(#pd828a6e19d)" style="fill: none; stroke: #b0b0b0; stroke-opacity: 0.3; stroke-width: 0.8; stroke-linecap: square"/>
     </g>
     <g id="line2d_62">
      <g>
       <use xlink:href="#md3de934d3d" x="43.78125" y="433.20524" style="stroke: #000000; stroke-width: 0.8"/>
      </g>
     </g>
     <g id="text_27">
      <!-- 0.4 -->
      <g transform="translate(20.878125 437.004459) scale(0.1 -0.1)">
       <use xlink:href="#DejaVuSans-30"/>
       <use xlink:href="#DejaVuSans-2e" transform="translate(63.623047 0)"/>
       <use xlink:href="#DejaVuSans-34" transform="translate(95.410156 0)"/>
      </g>
     </g>
    </g>
    <g id="ytick_10">
     <g id="line2d_63">
      <path d="M 43.78125 387.36101 
L 796.30525 387.36101 
" clip-path="url(#pd828a6e19d)" style="fill: none; stroke: #b0b0b0; stroke-opacity: 0.3; stroke-width: 0.8; stroke-linecap: square"/>
     </g>
     <g id="line2d_64">
      <g>
       <use xlink:href="#md3de934d3d" x="43.78125" y="387.36101" style="stroke: #000000; stroke-width: 0.8"/>
      </g>
     </g>
     <g id="text_28">
      <!-- 0.6 -->
      <g transform="translate(20.878125 391.160228) scale(0.1 -0.1)">
       <use xlink:href="#DejaVuSans-30"/>
       <use xlink:href="#DejaVuSans-2e" transform="translate(63.623047 0)"/>
       <use xlink:href="#DejaVuSans-36" transform="translate(95.410156 0)"/>
      </g>
     </g>
    </g>
    <g id="ytick_11">
     <g id="line2d_65">
      <path d="M 43.78125 341.516779 
L 796.30525 341.516779 
" clip-path="url(#pd828a6e19d)" style="fill: none; stroke: #b0b0b0; stroke-opacity: 0.3; stroke-width: 0.8; stroke-linecap: square"/>
     </g>
     <g id="line2d_66">
      <g>
       <use xlink:href="#md3de934d3d" x="43.78125" y="341.516779" style="stroke: #000000; stroke-width: 0.8"/>
      </g>
     </g>
     <g id="text_29">
      <!-- 0.8 -->
      <g transform="translate(20.878125 345.315998) scale(0.1 -0.1)">
       <use xlink:href="#DejaVuSans-30"/>
       <use xlink:href="#DejaVuSans-2e" transform="translate(63.623047 0)"/>
       <use xlink:href="#DejaVuSans-38" transform="translate(95.410156 0)"/>
      </g>
     </g>
    </g>
    <g id="ytick_12">
     <g id="line2d_67">
      <path d="M 43.78125 295.672548 
L 796.30525 295.672548 
" clip-path="url(#pd828a6e19d)" style="fill: none; stroke: #b0b0b0; stroke-opacity: 0.3; stroke-width: 0.8; stroke-linecap: square"/>
     </g>
     <g id="line2d_68">
      <g>
       <use xlink:href="#md3de934d3d" x="43.78125" y="295.672548" style="stroke: #000000; stroke-width: 0.8"/>
      </g>
     </g>
     <g id="text_30">
      <!-- 1.0 -->
      <g transform="translate(20.878125 299.471767) scale(0.1 -0.1)">
       <use xlink:href="#DejaVuSans-31"/>
       <use xlink:href="#DejaVuSans-2e" transform="translate(63.623047 0)"/>
       <use xlink:href="#DejaVuSans-30" transform="translate(95.410156 0)"/>
      </g>
     </g>
    </g>
    <g id="text_31">
     <!-- Mole fraction [-] -->
     <g transform="translate(14.798438 450.212031) rotate(-90) scale(0.1 -0.1)">
      <use xlink:href="#DejaVuSans-4d"/>
      <use xlink:href="#DejaVuSans-6f" transform="translate(86.279297 0)"/>
      <use xlink:href="#DejaVuSans-6c" transform="translate(147.460938 0)"/>
      <use xlink:href="#DejaVuSans-65" transform="translate(175.244141 0)"/>
      <use xlink:href="#DejaVuSans-20" transform="translate(236.767578 0)"/>
      <use xlink:href="#DejaVuSans-66" transform="translate(268.554688 0)"/>
      <use xlink:href="#DejaVuSans-72" transform="translate(303.759766 0)"/>
      <use xlink:href="#DejaVuSans-61" transform="translate(344.873047 0)"/>
      <use xlink:href="#DejaVuSans-63" transform="translate(406.152344 0)"/>
      <use xlink:href="#DejaVuSans-74" transform="translate(461.132812 0)"/>
      <use xlink:href="#DejaVuSans-69" transform="translate(500.341797 0)"/>
      <use xlink:href="#DejaVuSans-6f" transform="translate(528.125 0)"/>
      <use xlink:href="#DejaVuSans-6e" transform="translate(589.306641 0)"/>
      <use xlink:href="#DejaVuSans-20" transform="translate(652.685547 0)"/>
      <use xlink:href="#DejaVuSans-5b" transform="translate(684.472656 0)"/>
      <use xlink:href="#DejaVuSans-2d" transform="translate(723.486328 0)"/>
      <use xlink:href="#DejaVuSans-5d" transform="translate(759.570312 0)"/>
     </g>
    </g>
   </g>
   <g id="line2d_69">
    <path d="M 43.78125 524.893702 
L 74.885575 524.807097 
L 75.888941 524.591526 
L 76.641465 524.215315 
L 77.393989 523.537791 
L 78.146513 522.447509 
L 78.899037 520.84879 
L 79.651561 518.679606 
L 80.654926 514.877883 
L 81.658291 510.130063 
L 83.163339 501.740858 
L 86.675118 481.498989 
L 87.929325 475.513596 
L 89.183531 470.535944 
L 90.437738 466.568458 
L 91.441103 464.062877 
L 92.444469 462.076429 
L 93.447834 460.530977 
L 94.451199 459.349032 
L 95.454565 458.459129 
L 96.708771 457.66424 
L 97.962978 457.143505 
L 99.468026 456.755744 
L 101.223915 456.517279 
L 102.478122 456.557622 
L 103.230646 456.749347 
L 103.98317 457.194424 
L 104.735694 457.964881 
L 105.488218 459.12193 
L 106.240742 460.712348 
L 106.993266 462.761297 
L 107.996631 466.174082 
L 109.250838 471.437469 
L 110.254203 476.560665 
L 113.515141 494.513187 
L 115.020189 501.60083 
L 116.525237 507.658146 
L 117.779443 512.146061 
L 118.782809 514.949193 
L 119.786174 517.18493 
L 120.789539 518.960921 
L 121.792905 520.363656 
L 123.047111 521.712981 
L 124.301318 522.769533 
L 125.555525 523.473709 
L 127.060573 524.019022 
L 128.816462 524.401324 
L 131.324875 524.695934 
L 134.836654 524.83868 
L 143.365259 524.891208 
L 287.849867 524.893418 
L 328.486163 524.792765 
L 329.238687 524.593694 
L 329.74037 524.315009 
L 330.242053 523.850582 
L 330.743735 523.137641 
L 331.245418 522.119696 
L 331.997942 519.928978 
L 332.750466 516.881568 
L 333.753831 511.580902 
L 335.008038 503.522461 
L 338.018134 483.384409 
L 339.272341 476.661929 
L 340.275706 472.348426 
L 341.279071 468.954531 
L 342.282437 466.372444 
L 343.285802 464.459319 
L 344.289167 463.068561 
L 345.292533 462.069318 
L 346.295898 461.354517 
L 347.550105 460.737416 
L 349.055153 460.256043 
L 351.061883 459.858027 
L 354.071979 459.50534 
L 355.577027 459.498597 
L 356.329551 459.693067 
L 357.082075 460.185536 
L 357.583758 460.750675 
L 358.336282 462.050973 
L 359.088806 464.022996 
L 359.84133 466.83209 
L 361.095537 472.679957 
L 362.098902 478.501256 
L 365.359839 498.633332 
L 366.614046 505.078396 
L 368.119094 511.572355 
L 369.122459 515.086172 
L 370.125825 517.746137 
L 371.12919 519.755992 
L 372.132555 521.256045 
L 373.135921 522.358824 
L 374.139286 523.16156 
L 375.393493 523.886996 
L 376.647699 524.310323 
L 378.403589 524.626371 
L 380.912002 524.811125 
L 385.176305 524.883422 
L 413.270534 524.893454 
L 583.340958 524.805268 
L 584.344323 524.543417 
L 585.096847 524.05353 
L 585.59853 523.505696 
L 586.351054 522.244915 
L 587.103578 520.357286 
L 587.856102 517.783648 
L 588.859467 513.311604 
L 590.113674 506.371096 
L 594.628818 479.683804 
L 595.883025 474.175945 
L 596.88639 470.620421 
L 597.889755 467.768845 
L 598.893121 465.532059 
L 599.896486 463.806212 
L 600.899851 462.488526 
L 601.903217 461.486982 
L 603.157423 460.563911 
L 604.662471 459.790065 
L 606.418361 459.17786 
L 608.675933 458.65651 
L 610.180981 458.481821 
L 611.184346 458.603732 
L 611.93687 458.975418 
L 612.689394 459.72013 
L 613.441918 460.951406 
L 614.194442 462.757513 
L 614.946966 465.215702 
L 615.69949 468.391289 
L 616.702855 473.736455 
L 618.458745 484.724817 
L 620.465475 497.127735 
L 621.719682 503.724095 
L 622.973889 509.218271 
L 624.228095 513.741624 
L 625.231461 516.729773 
L 626.234826 518.959912 
L 627.238191 520.636782 
L 628.241557 521.890751 
L 629.244922 522.814894 
L 630.499129 523.620122 
L 631.753335 524.16599 
L 633.258383 524.521811 
L 635.265114 524.747745 
L 638.776893 524.868767 
L 650.064753 524.892871 
L 796.30525 524.893693 
L 796.30525 524.893693 
" clip-path="url(#pd828a6e19d)" style="fill: none; stroke: #1f77b4; stroke-width: 2; stroke-linecap: square"/>
   </g>
   <g id="line2d_70">
    <path d="M 43.78125 524.893702 
L 49.048918 524.808426 
L 50.052283 524.589526 
L 50.804807 524.238903 
L 51.557331 523.645112 
L 52.309855 522.735931 
L 53.062379 521.457944 
L 53.814903 519.787457 
L 54.818269 516.971284 
L 56.072475 512.67134 
L 58.580889 502.896256 
L 60.336778 496.445894 
L 61.841826 491.786783 
L 63.096033 488.643483 
L 64.350239 486.161254 
L 65.353605 484.605629 
L 66.35697 483.379938 
L 67.611177 482.232067 
L 68.865383 481.420133 
L 70.11959 480.858775 
L 71.624638 480.419443 
L 73.631369 480.087517 
L 76.892306 479.835717 
L 80.404085 479.512107 
L 84.166705 479.129101 
L 88.431007 479.043325 
L 101.223915 479.069974 
L 102.728963 479.217135 
L 103.732329 479.53319 
L 104.484853 479.99528 
L 105.237377 480.69936 
L 105.989901 481.685058 
L 106.742425 482.978766 
L 107.74579 485.178328 
L 108.999997 488.632825 
L 110.003362 491.947442 
L 113.765982 505.941889 
L 115.27103 510.566108 
L 117.026919 515.130858 
L 118.030285 517.291622 
L 119.03365 519.001081 
L 120.037015 520.351259 
L 121.291222 521.644505 
L 122.545429 522.606283 
L 124.050477 523.484714 
L 125.304683 523.96866 
L 127.060573 524.382051 
L 129.318145 524.659308 
L 132.829923 524.83403 
L 140.355163 524.89088 
L 248.969461 524.893541 
L 302.147823 524.808282 
L 302.900347 524.632921 
L 304.405395 524.072054 
L 305.157919 524.051496 
L 305.910443 524.253037 
L 307.16465 524.662224 
L 308.669698 524.841166 
L 311.930635 524.888375 
L 325.476067 524.801796 
L 326.981115 524.521008 
L 327.733639 524.263946 
L 328.235322 523.914642 
L 328.737005 523.199265 
L 329.238687 521.876163 
L 329.74037 519.5306 
L 330.492894 514.239712 
L 331.747101 505.542575 
L 332.750466 500.371497 
L 333.50299 497.538454 
L 334.255514 495.554817 
L 335.258879 493.595131 
L 336.262245 492.072918 
L 337.516451 490.603461 
L 338.519817 489.732439 
L 339.523182 489.108462 
L 340.777389 488.623208 
L 342.282437 488.342637 
L 351.312725 487.269453 
L 355.577027 486.592607 
L 356.580393 486.671244 
L 357.332917 486.980778 
L 358.085441 487.611034 
L 358.837965 488.652799 
L 359.590489 490.223642 
L 360.593854 493.022131 
L 361.597219 496.48634 
L 362.851426 501.965375 
L 365.108998 511.886001 
L 366.363205 516.337291 
L 367.36657 519.131587 
L 368.369935 521.369684 
L 369.122459 522.576087 
L 369.874983 523.42704 
L 370.627507 524.012136 
L 371.630873 524.493094 
L 372.885079 524.777902 
L 374.640969 524.883656 
L 382.918733 524.893702 
L 557.253459 524.787466 
L 558.005983 524.597249 
L 558.758507 524.178003 
L 559.26019 523.859111 
L 559.511031 524.50944 
L 561.517762 524.554129 
L 564.277017 524.884639 
L 572.303939 524.89102 
L 575.815718 524.790836 
L 577.320766 524.582619 
L 577.822449 524.355003 
L 578.324131 523.799704 
L 578.574973 523.302913 
L 578.825814 522.514514 
L 579.076655 521.184813 
L 580.330862 511.634728 
L 580.832545 509.749977 
L 581.334227 508.524377 
L 582.086751 507.307493 
L 583.090117 506.190463 
L 586.100213 503.17671 
L 587.354419 501.395371 
L 589.110309 498.410549 
L 591.367881 494.620125 
L 592.872929 492.515006 
L 594.127135 491.093412 
L 595.381342 489.96669 
L 596.88639 488.947503 
L 598.642279 488.083229 
L 601.401534 487.043289 
L 608.926774 484.504192 
L 610.682663 484.103423 
L 611.686029 484.124585 
L 612.438553 484.394115 
L 613.191077 484.974401 
L 613.943601 485.941295 
L 614.696125 487.356285 
L 615.448649 489.276873 
L 616.201173 491.771241 
L 617.204538 495.987323 
L 618.458745 502.427923 
L 620.214634 511.468725 
L 621.217999 515.591841 
L 622.221365 518.877026 
L 623.22473 521.310342 
L 623.977254 522.619831 
L 624.729778 523.590365 
L 625.482302 524.187195 
L 626.485667 524.60873 
L 627.739874 524.831494 
L 629.746605 524.892158 
L 673.643838 524.893521 
L 796.30525 524.893691 
L 796.30525 524.893691 
" clip-path="url(#pd828a6e19d)" style="fill: none; stroke: #ff7f0e; stroke-width: 2; stroke-linecap: square"/>
   </g>
   <g id="line2d_71">
    <path d="M 43.78125 524.893702 
L 80.905767 524.803981 
L 81.909133 524.591821 
L 82.661657 524.231426 
L 83.414181 523.651803 
L 84.668387 522.329747 
L 88.180166 518.380673 
L 89.685214 517.087216 
L 91.190262 516.099214 
L 92.69531 515.38169 
L 94.451199 514.815865 
L 96.45793 514.424667 
L 98.966343 514.184891 
L 102.478122 514.093625 
L 104.234011 514.239753 
L 105.488218 514.542622 
L 106.742425 515.056939 
L 108.247473 515.957889 
L 109.752521 517.130187 
L 115.521871 522.282465 
L 117.528602 523.559612 
L 119.03365 524.228132 
L 120.538698 524.643694 
L 122.043746 524.826881 
L 125.806366 524.879896 
L 158.415739 524.893696 
L 325.97775 524.793421 
L 327.482798 524.651219 
L 327.984481 524.395113 
L 329.489529 522.646228 
L 329.991211 522.127105 
L 330.743735 521.754506 
L 332.248783 521.227689 
L 333.001307 520.724744 
L 334.004673 519.727227 
L 335.008038 518.394444 
L 336.262245 516.344304 
L 337.767293 513.45045 
L 342.282437 504.327136 
L 343.536643 502.506442 
L 344.540009 501.435201 
L 345.543374 500.694522 
L 346.546739 500.24198 
L 347.550105 500.022673 
L 348.804311 499.993451 
L 350.309359 500.200352 
L 352.566931 500.781159 
L 355.827869 501.866712 
L 357.332917 502.599865 
L 358.336282 503.302525 
L 359.339647 504.285983 
L 360.593854 505.939142 
L 361.597219 507.580771 
L 362.851426 510.248205 
L 365.108998 515.163085 
L 366.363205 517.403812 
L 367.868253 519.581067 
L 368.871618 520.815138 
L 370.125825 521.993741 
L 371.630873 523.052943 
L 373.135921 523.831435 
L 374.640969 524.372128 
L 376.146017 524.671443 
L 378.403589 524.83419 
L 383.420415 524.891423 
L 465.696373 524.893702 
L 575.564877 524.79056 
L 577.069925 524.642689 
L 577.320766 524.524353 
L 577.571607 524.254037 
L 578.07329 522.993963 
L 578.825814 520.482918 
L 579.327497 518.835266 
L 579.578338 518.516801 
L 579.829179 518.456852 
L 580.581703 518.719907 
L 582.588434 519.518008 
L 584.344323 519.992429 
L 585.347689 520.077685 
L 586.351054 519.930883 
L 587.354419 519.492152 
L 588.357785 518.741434 
L 589.36115 517.700882 
L 590.615357 516.068395 
L 592.371246 513.379305 
L 596.384707 507.080783 
L 597.638914 505.523631 
L 598.893121 504.341297 
L 599.896486 503.699224 
L 600.899851 503.326543 
L 601.903217 503.199992 
L 602.906582 503.282215 
L 604.160789 503.612822 
L 605.916678 504.357119 
L 608.675933 505.824505 
L 612.187711 507.875648 
L 613.692759 508.995621 
L 614.946966 510.195665 
L 615.950331 511.416181 
L 616.953697 512.972938 
L 618.207903 515.416168 
L 619.46211 517.837293 
L 620.465475 519.361618 
L 621.719682 520.811217 
L 622.973889 521.931075 
L 624.478937 522.96311 
L 625.733143 523.601964 
L 627.489033 524.222628 
L 629.244922 524.633075 
L 631.251653 524.827604 
L 635.265114 524.890163 
L 677.908141 524.893702 
L 796.30525 524.893702 
L 796.30525 524.893702 
" clip-path="url(#pd828a6e19d)" style="fill: none; stroke: #2ca02c; stroke-width: 2; stroke-linecap: square"/>
   </g>
   <g id="line2d_72">
    <path d="M 43.78125 524.893702 
L 52.309855 524.794242 
L 61.340143 524.437354 
L 71.624638 524.367386 
L 74.885575 524.250339 
L 75.638099 524.046724 
L 76.390623 523.603874 
L 76.892306 523.10242 
L 77.393989 522.378712 
L 78.146513 520.770928 
L 78.899037 518.414022 
L 79.651561 515.219535 
L 80.654926 509.643541 
L 81.909133 500.9005 
L 87.176801 461.52043 
L 88.431007 454.407964 
L 89.685214 448.616615 
L 90.688579 444.896213 
L 91.691945 441.90744 
L 92.69531 439.55502 
L 93.698675 437.737459 
L 94.702041 436.356637 
L 95.705406 435.323698 
L 96.708771 434.56326 
L 97.962978 433.915315 
L 99.468026 433.432153 
L 100.973074 433.159909 
L 102.227281 433.157716 
L 102.979805 433.34156 
L 103.481487 433.607718 
L 104.234011 434.332731 
L 104.986535 435.510659 
L 105.739059 437.217708 
L 106.491583 439.505743 
L 107.494949 443.475977 
L 108.498314 448.431741 
L 109.752521 455.869074 
L 111.257569 466.936669 
L 113.515141 483.048615 
L 115.020189 492.441344 
L 116.776078 501.843537 
L 117.779443 506.571669 
L 118.782809 510.387725 
L 119.786174 513.469184 
L 120.789539 515.963055 
L 122.043746 518.436222 
L 123.297953 520.372628 
L 124.301318 521.608191 
L 125.304683 522.499906 
L 126.55889 523.282443 
L 127.813097 523.813072 
L 129.568986 524.284937 
L 131.575717 524.602307 
L 134.585813 524.794133 
L 140.355163 524.88166 
L 171.71033 524.893492 
L 303.652871 524.79394 
L 304.154554 524.419426 
L 304.656237 523.679976 
L 305.157919 522.474728 
L 305.659602 520.539955 
L 306.662967 515.002142 
L 308.168015 506.689364 
L 309.171381 502.442611 
L 310.174746 499.249764 
L 311.178111 496.928625 
L 311.930635 495.653779 
L 312.934001 494.438302 
L 313.937366 493.625408 
L 314.940731 493.087986 
L 316.194938 492.676353 
L 317.950827 492.385331 
L 320.459241 492.222916 
L 324.472702 492.20447 
L 326.228591 492.396913 
L 327.482798 492.729243 
L 327.984481 493.129275 
L 328.737005 494.470112 
L 329.238687 495.778302 
L 329.991211 498.718102 
L 330.743735 501.618593 
L 331.245418 502.806889 
L 331.496259 503.106647 
L 331.747101 503.201172 
L 331.997942 503.091899 
L 332.248783 502.785554 
L 332.750466 501.625286 
L 333.252149 499.725678 
L 334.004673 495.615175 
L 335.008038 488.633339 
L 338.018134 466.671708 
L 339.021499 461.082284 
L 340.024865 456.761177 
L 340.777389 454.307446 
L 341.529913 452.436366 
L 342.282437 451.041768 
L 343.034961 450.014268 
L 344.038326 449.045886 
L 345.292533 448.228434 
L 347.048422 447.426839 
L 350.811042 446.053589 
L 354.824503 444.732998 
L 355.827869 444.609477 
L 356.329551 444.696404 
L 356.831234 444.956659 
L 357.332917 445.4445 
L 357.834599 446.212436 
L 358.336282 447.305839 
L 359.088806 449.672607 
L 359.84133 453.089766 
L 361.095537 460.180272 
L 362.349743 468.788813 
L 364.858157 486.05892 
L 366.614046 496.845906 
L 368.369935 506.322019 
L 369.373301 510.803192 
L 370.376666 514.36596 
L 371.380031 517.157918 
L 372.383397 519.299168 
L 373.386762 520.908903 
L 374.640969 522.392589 
L 375.644334 523.234721 
L 376.647699 523.796209 
L 377.901906 524.2477 
L 379.406954 524.559546 
L 381.664526 524.780381 
L 385.427146 524.874126 
L 401.982674 524.892925 
L 559.009349 524.89269 
L 559.26019 524.751423 
L 559.511031 523.785456 
L 560.263555 522.563477 
L 561.016079 520.68838 
L 561.768603 518.157814 
L 562.771969 513.793341 
L 564.527858 505.603061 
L 565.531223 502.037451 
L 566.534589 499.278555 
L 567.537954 497.196296 
L 568.541319 495.68811 
L 569.544685 494.620666 
L 570.54805 493.870893 
L 571.802257 493.235932 
L 573.056463 492.840126 
L 574.561511 492.613636 
L 576.317401 492.583866 
L 577.069925 492.719665 
L 577.320766 492.866934 
L 577.571607 493.188061 
L 578.07329 494.682591 
L 578.574973 496.800047 
L 579.076655 500.229758 
L 579.829179 505.908614 
L 580.330862 507.936175 
L 580.832545 509.049321 
L 581.334227 509.699274 
L 582.086751 510.257255 
L 583.090117 510.644453 
L 583.842641 510.754713 
L 584.595165 510.655666 
L 585.096847 510.415859 
L 585.59853 509.986104 
L 586.100213 509.320503 
L 586.601895 508.376117 
L 587.354419 506.361906 
L 588.106943 503.572169 
L 589.110309 498.675166 
L 590.364515 491.037548 
L 594.127135 466.653157 
L 595.381342 460.469849 
L 596.384707 456.538391 
L 597.388073 453.434797 
L 598.391438 451.023021 
L 599.394803 449.145921 
L 600.64901 447.329581 
L 601.903217 445.895199 
L 603.659106 444.256609 
L 605.916678 442.49627 
L 608.425091 440.81818 
L 609.930139 439.992247 
L 610.682663 439.740405 
L 611.435187 439.729216 
L 611.93687 439.93505 
L 612.438553 440.367905 
L 612.940235 441.072405 
L 613.441918 442.085578 
L 614.194442 444.242157 
L 614.946966 447.237648 
L 615.69949 451.127835 
L 616.953697 459.228727 
L 621.468841 489.105919 
L 623.22473 499.384837 
L 625.231461 509.595029 
L 626.234826 513.492648 
L 627.238191 516.541012 
L 628.241557 518.879628 
L 629.244922 520.654115 
L 630.248287 521.975784 
L 631.502494 523.185238 
L 632.505859 523.795052 
L 633.760066 524.264516 
L 635.265114 524.58068 
L 637.522686 524.791135 
L 641.285306 524.877423 
L 660.349247 524.893105 
L 796.30525 524.893688 
L 796.30525 524.893688 
" clip-path="url(#pd828a6e19d)" style="fill: none; stroke: #9467bd; stroke-width: 2; stroke-linecap: square"/>
   </g>
   <g id="line2d_73">
    <path d="M 43.78125 524.893702 
L 50.553966 524.78337 
L 52.560697 524.444472 
L 57.828365 523.442283 
L 61.089302 523.09357 
L 65.102763 522.902699 
L 72.126321 522.830733 
L 77.64483 522.716697 
L 79.400719 522.448529 
L 83.163339 521.679236 
L 84.417546 521.885751 
L 86.925959 522.646619 
L 89.685214 523.396957 
L 92.193627 523.848061 
L 95.203723 524.149259 
L 99.217185 524.305641 
L 105.989901 524.315187 
L 115.020189 524.233062 
L 119.535333 524.47884 
L 125.806366 524.831751 
L 137.84675 524.891703 
L 304.405395 524.888297 
L 324.221861 524.643017 
L 324.974385 524.329765 
L 325.726909 523.737436 
L 326.479433 522.867902 
L 327.231957 521.608185 
L 327.733639 520.265438 
L 328.235322 517.843214 
L 328.737005 513.135115 
L 329.489529 501.625915 
L 330.242053 491.546678 
L 330.743735 487.444111 
L 331.245418 484.88858 
L 331.747101 483.535057 
L 331.997942 483.234232 
L 332.248783 483.14501 
L 332.499625 483.236724 
L 332.750466 483.4956 
L 333.252149 484.513553 
L 334.004673 486.875425 
L 338.519817 502.745443 
L 339.774023 506.013351 
L 341.02823 508.637457 
L 342.031595 510.294913 
L 343.034961 511.60206 
L 344.038326 512.613049 
L 345.292533 513.549465 
L 346.546739 514.220821 
L 348.302629 514.874558 
L 350.560201 515.446293 
L 354.071979 516.084884 
L 358.336282 516.857023 
L 360.593854 517.523362 
L 363.60395 518.38355 
L 365.610681 518.988963 
L 367.115729 519.682994 
L 368.620777 520.631587 
L 372.383397 523.088526 
L 374.139286 523.965525 
L 375.644334 524.468653 
L 377.149382 524.706957 
L 379.657795 524.849371 
L 385.928829 524.892877 
L 559.009349 524.895017 
L 559.26019 524.779868 
L 560.263555 524.850292 
L 567.788795 524.89139 
L 572.805622 524.783169 
L 573.808987 524.572243 
L 574.561511 524.171628 
L 575.314035 523.543486 
L 576.066559 522.666575 
L 576.568242 521.828809 
L 577.069925 520.539097 
L 577.571607 518.135138 
L 577.822449 515.983043 
L 578.07329 512.631015 
L 578.574973 500.781512 
L 579.578338 470.105812 
L 580.080021 464.053957 
L 580.581703 461.462386 
L 581.083386 460.375856 
L 581.585069 460.024605 
L 582.086751 460.057344 
L 582.839275 460.481981 
L 583.591799 461.177752 
L 584.344323 462.125619 
L 585.096847 463.41189 
L 585.849371 465.154893 
L 586.601895 467.435585 
L 587.605261 471.290676 
L 589.110309 478.252845 
L 592.120405 492.386546 
L 593.625453 498.329797 
L 594.879659 502.513484 
L 596.133866 505.991513 
L 597.388073 508.801706 
L 598.642279 511.014863 
L 599.896486 512.724837 
L 601.150693 514.034212 
L 602.404899 515.039831 
L 603.909947 515.958615 
L 605.665837 516.764881 
L 607.923409 517.544061 
L 610.933505 518.334875 
L 617.706221 519.84896 
L 620.465475 519.955133 
L 621.719682 520.346047 
L 623.22473 521.062327 
L 624.980619 522.179893 
L 626.98735 523.371802 
L 628.743239 524.200852 
L 629.997446 524.562112 
L 631.753335 524.793422 
L 635.515955 524.8877 
L 660.349247 524.893702 
L 796.30525 524.893702 
L 796.30525 524.893702 
" clip-path="url(#pd828a6e19d)" style="fill: none; stroke: #8c564b; stroke-width: 2; stroke-linecap: square"/>
   </g>
   <g id="line2d_74">
    <path d="M 43.78125 524.893702 
L 48.296394 524.789993 
L 49.048918 524.545011 
L 49.550601 524.206039 
L 50.052283 523.645337 
L 50.553966 522.779552 
L 51.055649 521.518349 
L 51.557331 519.771365 
L 52.309855 516.063484 
L 53.062379 510.87328 
L 53.814903 504.110963 
L 54.818269 492.741525 
L 56.072475 475.421241 
L 58.580889 436.129745 
L 60.336778 410.235826 
L 61.590985 394.393976 
L 62.845191 381.240268 
L 63.848557 372.661848 
L 64.851922 365.688573 
L 65.855287 360.140606 
L 66.858653 355.811218 
L 67.862018 352.491447 
L 68.865383 349.98621 
L 69.868749 348.123172 
L 70.872114 346.757136 
L 71.875479 345.768826 
L 72.878845 345.064895 
L 73.88221 344.592564 
L 74.634734 344.409628 
L 75.387258 344.460446 
L 75.888941 344.700242 
L 76.390623 345.180201 
L 76.892306 345.978284 
L 77.393989 347.178526 
L 77.895671 348.864351 
L 78.648195 352.46541 
L 79.400719 357.514881 
L 80.153243 364.090577 
L 81.156609 375.115541 
L 82.410815 391.739695 
L 87.176801 458.460239 
L 88.431007 472.074549 
L 89.685214 483.184171 
L 90.688579 490.332825 
L 91.691945 496.083752 
L 92.69531 500.616826 
L 93.698675 504.12471 
L 94.702041 506.79425 
L 95.705406 508.795065 
L 96.708771 510.271313 
L 97.712137 511.323033 
L 98.715502 512.063016 
L 99.969709 512.706691 
L 101.474757 513.22324 
L 105.989901 514.486955 
L 107.74579 515.337948 
L 109.501679 516.426674 
L 111.006727 517.597178 
L 114.769347 520.513282 
L 117.528602 522.343518 
L 119.03365 523.117799 
L 120.789539 523.751464 
L 122.545429 524.121042 
L 126.057207 524.573279 
L 129.819827 524.781767 
L 135.589178 524.875034 
L 159.419105 524.893224 
L 301.144458 524.805282 
L 301.896982 524.660746 
L 302.398665 524.396355 
L 302.900347 523.852032 
L 303.40203 522.78448 
L 303.903713 520.631763 
L 304.405395 516.855838 
L 304.907078 510.992146 
L 305.408761 502.060335 
L 306.161285 480.94951 
L 308.669698 401.880572 
L 309.673063 379.822281 
L 310.676429 363.461964 
L 311.428953 354.305925 
L 312.181477 347.345231 
L 312.934001 342.153759 
L 313.686525 338.317152 
L 314.439049 335.499131 
L 315.191573 333.451513 
L 315.944097 331.984087 
L 316.696621 330.945413 
L 317.449145 330.2156 
L 318.45251 329.563467 
L 319.706717 329.073085 
L 321.211765 328.778787 
L 322.967654 328.679402 
L 324.221861 328.780354 
L 324.974385 329.081804 
L 325.726909 329.683993 
L 326.479433 330.587768 
L 327.231957 331.910088 
L 327.733639 333.337799 
L 328.235322 335.942709 
L 328.737005 341.044669 
L 329.238687 349.168618 
L 330.242053 366.890195 
L 331.245418 379.984402 
L 334.757197 421.522436 
L 338.519817 471.545163 
L 339.523182 481.632029 
L 340.526547 489.689089 
L 341.529913 495.857827 
L 342.533278 500.422898 
L 343.536643 503.718067 
L 344.540009 506.056395 
L 345.543374 507.700837 
L 346.546739 508.854646 
L 347.550105 509.667481 
L 348.804311 510.364149 
L 350.309359 510.910303 
L 352.31609 511.372762 
L 358.085441 512.50174 
L 359.339647 513.109469 
L 362.600585 514.991162 
L 363.854791 515.235584 
L 365.108998 515.485515 
L 366.112363 515.90979 
L 367.115729 516.593523 
L 368.119094 517.564336 
L 371.630873 521.44847 
L 372.885079 522.480749 
L 374.390127 523.402781 
L 375.644334 523.96531 
L 377.149382 524.376338 
L 379.156113 524.666571 
L 382.166209 524.836246 
L 388.437242 524.888443 
L 471.465723 524.893511 
L 556.250094 524.789106 
L 557.002618 524.599699 
L 557.504301 524.289491 
L 558.005983 523.710114 
L 558.507666 522.725268 
L 559.009349 521.182255 
L 559.26019 519.957119 
L 559.761873 514.550168 
L 560.263555 509.226542 
L 561.016079 498.135341 
L 561.768603 483.320956 
L 562.771969 457.871918 
L 564.778699 403.256067 
L 565.782065 383.224981 
L 566.78543 367.727734 
L 567.788795 356.166932 
L 568.541319 349.67293 
L 569.293843 344.666622 
L 570.046367 340.831825 
L 570.798891 337.889372 
L 571.551415 335.628275 
L 572.303939 333.907007 
L 573.056463 332.636155 
L 573.808987 331.809107 
L 574.31067 331.52116 
L 574.812353 331.43375 
L 575.314035 331.524603 
L 575.815718 331.785508 
L 576.317401 332.258204 
L 576.819083 333.090568 
L 577.320766 334.661319 
L 577.571607 336.03083 
L 577.822449 338.155943 
L 578.07329 341.510803 
L 578.574973 353.495663 
L 579.578338 385.878886 
L 580.080021 392.985105 
L 580.581703 396.215999 
L 581.083386 397.694515 
L 581.585069 398.307311 
L 582.086751 398.472201 
L 582.839275 398.32046 
L 584.344323 397.797353 
L 584.846006 397.830049 
L 585.347689 398.094181 
L 585.849371 398.672431 
L 586.351054 399.647794 
L 586.852737 401.098611 
L 587.354419 403.092051 
L 588.106943 407.201394 
L 588.859467 412.684937 
L 589.862833 421.942716 
L 591.367881 438.652414 
L 593.876294 467.049382 
L 595.130501 478.86613 
L 596.133866 486.655672 
L 597.137231 492.963708 
L 598.140597 497.923623 
L 599.143962 501.73625 
L 600.147327 504.620614 
L 601.150693 506.782302 
L 602.154058 508.397423 
L 603.157423 509.607749 
L 604.41163 510.714141 
L 605.665837 511.510406 
L 607.170885 512.201197 
L 609.177615 512.8556 
L 613.441918 514.132675 
L 615.69949 515.179847 
L 616.702855 515.535612 
L 617.204538 515.522242 
L 617.706221 515.312119 
L 618.458745 514.62188 
L 619.963793 513.025298 
L 620.465475 512.778415 
L 621.217999 512.704611 
L 621.970523 512.87893 
L 622.723047 513.342629 
L 623.475571 514.118254 
L 624.228095 515.196259 
L 627.238191 520.138855 
L 628.492398 521.602306 
L 629.746605 522.705926 
L 631.000811 523.527878 
L 632.255018 524.09323 
L 633.760066 524.473933 
L 635.766797 524.724743 
L 639.027734 524.860354 
L 649.061387 524.893057 
L 796.30525 524.893683 
L 796.30525 524.893683 
" clip-path="url(#pd828a6e19d)" style="fill: none; stroke: #7f7f7f; stroke-width: 2; stroke-linecap: square"/>
   </g>
   <g id="line2d_75">
    <path d="M 43.78125 295.672548 
L 48.045553 295.756272 
L 48.798077 295.982988 
L 49.299759 296.317012 
L 49.801442 296.893548 
L 50.303125 297.814686 
L 50.804807 299.192754 
L 51.30649 301.141381 
L 51.808173 303.76649 
L 52.560697 309.163844 
L 53.313221 316.481309 
L 54.065745 325.766589 
L 55.06911 340.988125 
L 56.323317 363.588423 
L 60.838461 449.308693 
L 62.092667 467.891733 
L 63.346874 483.041724 
L 64.350239 492.780441 
L 65.353605 500.608353 
L 66.35697 506.773697 
L 67.360335 511.541313 
L 68.363701 515.167338 
L 69.367066 517.883689 
L 70.370431 519.890441 
L 71.373797 521.353386 
L 72.377162 522.408349 
L 73.380527 523.161517 
L 74.634734 523.800454 
L 76.139782 524.271072 
L 77.895671 524.573912 
L 80.404085 524.770012 
L 84.919229 524.866386 
L 99.468026 524.857353 
L 101.223915 524.730309 
L 101.976439 524.499642 
L 102.728963 523.994417 
L 103.230646 523.393785 
L 103.732329 522.415459 
L 104.234011 521.003574 
L 104.986535 517.936596 
L 105.739059 513.556927 
L 106.491583 507.728367 
L 107.494949 497.656774 
L 108.498314 485.115994 
L 109.752521 466.327297 
L 111.257569 438.422889 
L 113.515141 397.882492 
L 115.020189 374.299347 
L 116.525237 354.052387 
L 117.779443 338.977718 
L 118.782809 329.520702 
L 119.786174 321.951228 
L 120.789539 315.922134 
L 121.792905 311.15612 
L 122.79627 307.406307 
L 124.050477 303.605963 
L 125.053842 301.446639 
L 126.057207 299.879543 
L 127.060573 298.733655 
L 128.063938 297.893282 
L 129.318145 297.14847 
L 130.823193 296.526406 
L 132.328241 296.16773 
L 134.585813 295.8946 
L 138.097591 295.732853 
L 145.873673 295.678638 
L 155.907326 295.73842 
L 156.65985 296.019224 
L 157.663215 296.273781 
L 160.42247 296.835461 
L 161.174994 297.205484 
L 161.676677 297.671892 
L 161.927518 298.067432 
L 162.178359 298.717697 
L 162.429201 300.004982 
L 162.680042 303.233827 
L 163.432566 323.106641 
L 163.934249 330.702386 
L 164.435931 335.128699 
L 164.937614 337.723166 
L 165.439297 339.252155 
L 165.940979 340.153785 
L 166.442662 340.696926 
L 167.195186 341.131779 
L 168.198551 341.372242 
L 169.954441 341.490811 
L 175.723791 341.516941 
L 301.395299 341.635273 
L 302.147823 341.85814 
L 302.649506 342.2415 
L 303.151189 342.9963 
L 303.652871 344.347754 
L 304.154554 346.540615 
L 304.656237 349.853926 
L 305.157919 354.705089 
L 305.659602 362.172862 
L 306.412126 378.45418 
L 307.666333 414.109803 
L 308.920539 448.850559 
L 309.923905 471.202772 
L 310.92727 488.214851 
L 311.679794 497.80745 
L 312.432318 505.103767 
L 313.184842 510.547744 
L 313.937366 514.57456 
L 314.68989 517.527966 
L 315.442414 519.666622 
L 316.194938 521.193721 
L 316.947462 522.272251 
L 317.699986 523.030987 
L 318.703351 523.712304 
L 319.957558 524.226802 
L 321.462606 524.554713 
L 323.720178 524.766443 
L 327.733639 524.866429 
L 343.034961 524.883756 
L 354.322821 524.793808 
L 355.075345 524.631866 
L 355.577027 524.370184 
L 356.07871 523.871503 
L 356.580393 522.998712 
L 357.082075 521.615556 
L 357.583758 519.575409 
L 358.085441 516.752376 
L 358.837965 510.756628 
L 359.590489 502.11407 
L 360.844695 483.169758 
L 361.848061 464.764745 
L 365.359839 394.155243 
L 366.864887 368.579868 
L 368.620777 342.913408 
L 369.624142 331.377425 
L 370.627507 322.244997 
L 371.630873 315.088982 
L 372.634238 309.571129 
L 373.637603 305.394555 
L 374.640969 302.186757 
L 375.393493 300.368259 
L 376.146017 299.062454 
L 376.898541 298.113901 
L 377.901906 297.238428 
L 378.905271 296.668239 
L 380.159478 296.230545 
L 381.915367 295.902687 
L 384.423781 295.741953 
L 389.691449 295.692024 
L 393.70491 295.759934 
L 395.209958 296.268342 
L 397.969213 296.853923 
L 398.721737 297.241531 
L 399.223419 297.732971 
L 399.474261 298.153923 
L 399.725102 298.858628 
L 399.975943 300.308333 
L 400.226785 304.219535 
L 400.979309 326.721114 
L 401.480991 333.885282 
L 401.982674 337.546907 
L 402.484357 339.435524 
L 402.986039 340.416749 
L 403.487722 340.930849 
L 404.240246 341.286249 
L 405.243611 341.449687 
L 407.752025 341.514207 
L 439.107191 341.517188 
L 556.250094 341.622649 
L 557.002618 341.812021 
L 557.504301 342.122161 
L 558.005983 342.701412 
L 558.507666 343.686034 
L 559.009349 345.228606 
L 559.761873 349.01959 
L 560.514397 354.879556 
L 561.266921 363.103071 
L 562.019445 373.808069 
L 562.771969 387.339917 
L 563.524493 404.673759 
L 565.531223 455.902955 
L 566.534589 475.016489 
L 567.537954 489.55514 
L 568.290478 497.794554 
L 569.043002 504.174329 
L 569.795526 509.074037 
L 570.54805 512.834799 
L 571.300574 515.733916 
L 572.053098 517.964592 
L 572.805622 519.670467 
L 573.558146 520.966154 
L 574.561511 522.211833 
L 575.564877 523.058793 
L 576.568242 523.641895 
L 577.822449 524.121923 
L 579.327497 524.445962 
L 582.337593 524.740318 
L 586.351054 524.858308 
L 598.642279 524.883511 
L 609.428457 524.765983 
L 610.180981 524.543949 
L 610.682663 524.214935 
L 611.184346 523.638818 
L 611.686029 522.699538 
L 612.187711 521.279405 
L 612.689394 519.261564 
L 613.191077 516.538224 
L 613.943601 510.948801 
L 614.696125 503.337782 
L 615.448649 493.495717 
L 616.452014 476.829105 
L 622.221365 371.566541 
L 623.726413 350.472838 
L 625.231461 332.03371 
L 626.234826 322.641753 
L 627.238191 315.296577 
L 628.241557 309.633655 
L 629.244922 305.368583 
L 630.248287 302.254853 
L 631.251653 299.931198 
L 632.004177 298.719943 
L 632.756701 297.85759 
L 633.760066 297.065733 
L 634.763431 296.552445 
L 636.017638 296.168966 
L 637.021003 296.023966 
L 637.522686 296.143977 
L 638.526051 296.366004 
L 641.285306 296.830964 
L 642.03783 297.163752 
L 642.539513 297.57082 
L 643.041195 298.414655 
L 643.292037 299.344034 
L 643.542878 301.501788 
L 643.793719 307.380169 
L 644.295402 323.244264 
L 644.797085 331.926727 
L 645.298767 336.439385 
L 645.80045 338.807547 
L 646.302133 340.060944 
L 646.803815 340.729076 
L 647.305498 341.087769 
L 648.058022 341.342637 
L 649.312229 341.478615 
L 652.824007 341.518037 
L 796.30525 341.516819 
L 796.30525 341.516819 
" clip-path="url(#pd828a6e19d)" style="fill: none; stroke: #bcbd22; stroke-width: 2; stroke-linecap: square"/>
   </g>
   <g id="line2d_76">
    <path d="M 43.78125 524.893702 
L 155.907326 524.83006 
L 156.65985 524.549155 
L 157.663215 524.294361 
L 160.42247 523.732525 
L 161.174994 523.362519 
L 161.676677 522.896076 
L 161.927518 522.500516 
L 162.178359 521.850228 
L 162.429201 520.562913 
L 162.680042 517.334015 
L 163.432566 497.460844 
L 163.934249 489.864951 
L 164.435931 485.438546 
L 164.937614 482.844018 
L 165.439297 481.314988 
L 165.940979 480.413327 
L 166.442662 479.870163 
L 167.195186 479.435282 
L 168.198551 479.194789 
L 169.954441 479.076176 
L 175.723791 479.049935 
L 301.896982 479.108146 
L 302.900347 479.310411 
L 303.40203 479.610405 
L 303.652871 479.935358 
L 304.154554 481.197863 
L 304.656237 483.456208 
L 305.157919 486.998648 
L 305.659602 492.530863 
L 307.16465 512.429036 
L 307.666333 516.752463 
L 308.168015 519.724525 
L 308.669698 521.67623 
L 309.171381 522.920792 
L 309.673063 523.699301 
L 310.174746 524.179274 
L 310.92727 524.570177 
L 311.930635 524.785012 
L 313.686525 524.878907 
L 321.964289 524.893702 
L 393.70491 524.812546 
L 395.209958 524.303331 
L 397.969213 523.716731 
L 398.721737 523.3289 
L 399.223419 522.837317 
L 399.474261 522.416294 
L 399.725102 521.711514 
L 399.975943 520.261725 
L 400.226785 516.350399 
L 400.979309 493.847991 
L 401.480991 486.683382 
L 401.982674 483.021507 
L 402.484357 481.132737 
L 402.986039 480.15141 
L 403.487722 479.637234 
L 404.240246 479.281746 
L 405.243611 479.118214 
L 407.752025 479.053502 
L 438.605509 479.049589 
L 557.253459 479.155579 
L 558.005983 479.345689 
L 558.758507 479.764765 
L 559.009349 479.977692 
L 559.26019 480.410015 
L 559.511031 482.648095 
L 560.263555 486.365729 
L 561.016079 491.8866 
L 561.768603 499.263138 
L 563.775334 520.900692 
L 564.277017 523.057354 
L 564.778699 524.072881 
L 565.280382 524.527665 
L 566.032906 524.785896 
L 567.287113 524.880598 
L 573.808987 524.893702 
L 637.021003 524.833074 
L 637.773527 524.538445 
L 638.776893 524.286181 
L 641.285306 523.771598 
L 642.03783 523.429244 
L 642.539513 523.01764 
L 643.041195 522.170298 
L 643.292037 521.239443 
L 643.542878 519.080301 
L 643.793719 513.200443 
L 644.295402 497.333057 
L 644.797085 488.648019 
L 645.298767 484.133822 
L 645.80045 481.764685 
L 646.302133 480.510631 
L 646.803815 479.842028 
L 647.305498 479.482975 
L 648.058022 479.227696 
L 649.312229 479.091218 
L 652.824007 479.05092 
L 790.786741 479.049484 
L 796.30525 479.049483 
L 796.30525 479.049483 
" clip-path="url(#pd828a6e19d)" style="fill: none; stroke: #17becf; stroke-width: 2; stroke-linecap: square"/>
   </g>
   <g id="patch_9">
    <path d="M 43.78125 529.478125 
L 43.78125 291.088125 
" style="fill: none; stroke: #000000; stroke-width: 0.8; stroke-linejoin: miter; stroke-linecap: square"/>
   </g>
   <g id="patch_10">
    <path d="M 796.30525 529.478125 
L 796.30525 291.088125 
" style="fill: none; stroke: #000000; stroke-width: 0.8; stroke-linejoin: miter; stroke-linecap: square"/>
   </g>
   <g id="patch_11">
    <path d="M 43.78125 529.478125 
L 796.30525 529.478125 
" style="fill: none; stroke: #000000; stroke-width: 0.8; stroke-linejoin: miter; stroke-linecap: square"/>
   </g>
   <g id="patch_12">
    <path d="M 43.78125 291.088125 
L 796.30525 291.088125 
" style="fill: none; stroke: #000000; stroke-width: 0.8; stroke-linejoin: miter; stroke-linecap: square"/>
   </g>
   <g id="text_32">
    <!-- Outlet Composition -->
    <g transform="translate(362.076687 285.088125) scale(0.12 -0.12)">
     <defs>
      <path id="DejaVuSans-75" d="M 544 1381 
L 544 3500 
L 1119 3500 
L 1119 1403 
Q 1119 906 1312 657 
Q 1506 409 1894 409 
Q 2359 409 2629 706 
Q 2900 1003 2900 1516 
L 2900 3500 
L 3475 3500 
L 3475 0 
L 2900 0 
L 2900 538 
Q 2691 219 2414 64 
Q 2138 -91 1772 -91 
Q 1169 -91 856 284 
Q 544 659 544 1381 
z
M 1991 3584 
L 1991 3584 
z
" transform="scale(0.015625)"/>
     </defs>
     <use xlink:href="#DejaVuSans-4f"/>
     <use xlink:href="#DejaVuSans-75" transform="translate(78.710938 0)"/>
     <use xlink:href="#DejaVuSans-74" transform="translate(142.089844 0)"/>
     <use xlink:href="#DejaVuSans-6c" transform="translate(181.298828 0)"/>
     <use xlink:href="#DejaVuSans-65" transform="translate(209.082031 0)"/>
     <use xlink:href="#DejaVuSans-74" transform="translate(270.605469 0)"/>
     <use xlink:href="#DejaVuSans-20" transform="translate(309.814453 0)"/>
     <use xlink:href="#DejaVuSans-43" transform="translate(341.601562 0)"/>
     <use xlink:href="#DejaVuSans-6f" transform="translate(411.425781 0)"/>
     <use xlink:href="#DejaVuSans-6d" transform="translate(472.607422 0)"/>
     <use xlink:href="#DejaVuSans-70" transform="translate(570.019531 0)"/>
     <use xlink:href="#DejaVuSans-6f" transform="translate(633.496094 0)"/>
     <use xlink:href="#DejaVuSans-73" transform="translate(694.677734 0)"/>
     <use xlink:href="#DejaVuSans-69" transform="translate(746.777344 0)"/>
     <use xlink:href="#DejaVuSans-74" transform="translate(774.560547 0)"/>
     <use xlink:href="#DejaVuSans-69" transform="translate(813.769531 0)"/>
     <use xlink:href="#DejaVuSans-6f" transform="translate(841.552734 0)"/>
     <use xlink:href="#DejaVuSans-6e" transform="translate(902.734375 0)"/>
    </g>
   </g>
  </g>
 </g>
 <defs>
  <clipPath id="p3a4f40f453">
   <rect x="43.78125" y="22.318125" width="752.524" height="238.39"/>
  </clipPath>
  <clipPath id="pd828a6e19d">
   <rect x="43.78125" y="291.088125" width="752.524" height="238.39"/>
  </clipPath>
 </defs>
</svg>
