<?xml version="1.0" encoding="UTF-8" standalone="no"?>
<!DOCTYPE svg PUBLIC "-//W3C//DTD SVG 1.1//EN"
 "http://www.w3.org/Graphics/SVG/1.1/DTD/svg11.dtd">
<!-- Generated by graphviz version 12.2.1 (20241206.2353)
 -->
<!-- Title: system_graph Pages: 1 -->
<svg width="1155pt" height="1431pt"
 viewBox="0.00 0.00 1154.59 1430.65" xmlns="http://www.w3.org/2000/svg" xmlns:xlink="http://www.w3.org/1999/xlink">
<g id="graph0" class="graph" transform="scale(1 1) rotate(0) translate(25.2 1405.45)">
<title>system_graph</title>
<polygon fill="white" stroke="none" points="-25.2,25.2 -25.2,-1405.45 1129.39,-1405.45 1129.39,25.2 -25.2,25.2"/>
<text text-anchor="middle" x="552.09" y="-1357.25" font-family="Arial" font-size="20.00">Species and Reaction System Graph</text>
<!-- CH4&#45;&gt;reaction:smr_reaction_xu_froment -->
<g id="edge1" class="edge">
<title>CH4&#45;&gt;reaction:smr_reaction_xu_froment</title>
<path fill="none" stroke="#355070" stroke-width="2.2" d="M75.96,-1271.92C103.8,-1214.18 152.62,-1112.93 180.63,-1054.85"/>
<polygon fill="#355070" stroke="#355070" stroke-width="2.2" points="73.1,-1270.21 71.97,-1280.21 79.09,-1273.1 73.1,-1270.21"/>
<polygon fill="#355070" stroke="#355070" stroke-width="2.2" points="183.53,-1056.49 184.66,-1046.49 177.54,-1053.6 183.53,-1056.49"/>
<text text-anchor="middle" x="124.71" y="-1165.69" font-family="Arial" font-size="13.00" fill="#355070">1</text>
</g>
<!-- CH4&#45;&gt;reaction:overall_reforming_xu_froment -->
<g id="edge2" class="edge">
<title>CH4&#45;&gt;reaction:overall_reforming_xu_froment</title>
<path fill="none" stroke="#355070" stroke-width="2.2" d="M101.49,-1283.04C165.32,-1238.46 279.92,-1158.41 349.02,-1110.16"/>
<polygon fill="#355070" stroke="#355070" stroke-width="2.2" points="99.84,-1280.14 93.95,-1288.3 103.64,-1285.59 99.84,-1280.14"/>
<polygon fill="#355070" stroke="#355070" stroke-width="2.2" points="350.67,-1113.06 356.55,-1104.89 346.86,-1107.61 350.67,-1113.06"/>
<text text-anchor="middle" x="219.46" y="-1200.67" font-family="Arial" font-size="13.00" fill="#355070">1</text>
</g>
<!-- reaction:smr_reaction_xu_froment&#45;&gt;CO -->
<g id="edge16" class="edge">
<title>reaction:smr_reaction_xu_froment&#45;&gt;CO</title>
<path fill="none" stroke="#bc6c25" stroke-width="2.2" d="M239.32,-1052.34C256.29,-1070.09 277.21,-1090.32 298.07,-1106.3 372.24,-1163.09 466.9,-1214.7 529.76,-1246.45"/>
<polygon fill="#bc6c25" stroke="#bc6c25" stroke-width="2.2" points="242.04,-1050.38 233.1,-1045.75 237.2,-1054.94 242.04,-1050.38"/>
<polygon fill="#bc6c25" stroke="#bc6c25" stroke-width="2.2" points="528.15,-1249.37 538.14,-1250.65 531.13,-1243.42 528.15,-1249.37"/>
<text text-anchor="middle" x="373.55" y="-1163.57" font-family="Arial" font-size="13.00" fill="#bc6c25">1</text>
</g>
<!-- reaction:smr_reaction_xu_froment&#45;&gt;H2 -->
<g id="edge17" class="edge">
<title>reaction:smr_reaction_xu_froment&#45;&gt;H2</title>
<path fill="none" stroke="#bc6c25" stroke-width="2.2" d="M211.05,-965.48C222.45,-908.88 241.89,-812.27 253.36,-755.26"/>
<polygon fill="#bc6c25" stroke="#bc6c25" stroke-width="2.2" points="207.86,-964.51 209.25,-974.48 214.38,-965.82 207.86,-964.51"/>
<polygon fill="#bc6c25" stroke="#bc6c25" stroke-width="2.2" points="256.55,-756.28 255.17,-746.31 250.03,-754.97 256.55,-756.28"/>
<text text-anchor="middle" x="228.38" y="-863.4" font-family="Arial" font-size="13.00" fill="#bc6c25">3</text>
</g>
<!-- reaction:overall_reforming_xu_froment&#45;&gt;CO2 -->
<g id="edge20" class="edge">
<title>reaction:overall_reforming_xu_froment&#45;&gt;CO2</title>
<path fill="none" stroke="#bc6c25" stroke-width="2.2" d="M492.48,-1107.98C563.36,-1139.28 662.56,-1183.07 728.04,-1211.98"/>
<polygon fill="#bc6c25" stroke="#bc6c25" stroke-width="2.2" points="494.24,-1105.13 484.21,-1104.33 491.56,-1111.21 494.24,-1105.13"/>
<polygon fill="#bc6c25" stroke="#bc6c25" stroke-width="2.2" points="726.38,-1214.88 736.41,-1215.68 729.06,-1208.8 726.38,-1214.88"/>
<text text-anchor="middle" x="608.6" y="-1163.55" font-family="Arial" font-size="13.00" fill="#bc6c25">1</text>
</g>
<!-- reaction:overall_reforming_xu_froment&#45;&gt;H2 -->
<g id="edge21" class="edge">
<title>reaction:overall_reforming_xu_froment&#45;&gt;H2</title>
<path fill="none" stroke="#bc6c25" stroke-width="2.2" d="M388.72,-1025.49C361.1,-956.26 308.16,-823.57 280.48,-754.17"/>
<polygon fill="#bc6c25" stroke="#bc6c25" stroke-width="2.2" points="385.5,-1026.37 392.1,-1033.96 391.67,-1023.91 385.5,-1026.37"/>
<polygon fill="#bc6c25" stroke="#bc6c25" stroke-width="2.2" points="283.62,-753.06 277.01,-745.47 277.44,-755.53 283.62,-753.06"/>
<text text-anchor="middle" x="330.76" y="-892.24" font-family="Arial" font-size="13.00" fill="#bc6c25">4</text>
</g>
<!-- CO&#45;&gt;reaction:wgs_reaction_xu_froment -->
<g id="edge3" class="edge">
<title>CO&#45;&gt;reaction:wgs_reaction_xu_froment</title>
<path fill="none" stroke="#355070" stroke-width="2.2" d="M590.66,-1232.76C581.28,-1170.58 564.74,-1060.96 555.46,-999.42"/>
<polygon fill="#355070" stroke="#355070" stroke-width="2.2" points="587.35,-1233.13 592.06,-1242.03 593.93,-1232.14 587.35,-1233.13"/>
<polygon fill="#355070" stroke="#355070" stroke-width="2.2" points="558.79,-999.24 554.09,-990.34 552.22,-1000.23 558.79,-999.24"/>
<text text-anchor="middle" x="569.35" y="-1119" font-family="Arial" font-size="13.00" fill="#355070">1</text>
</g>
<!-- CO&#45;&gt;reaction:ni_reduction_co_medrano_an -->
<g id="edge4" class="edge">
<title>CO&#45;&gt;reaction:ni_reduction_co_medrano_an</title>
<path fill="none" stroke="#355070" stroke-width="2.2" d="M633.39,-1248C703.89,-1186.47 859.8,-1050.42 925.96,-992.68"/>
<polygon fill="#355070" stroke="#355070" stroke-width="2.2" points="927.93,-995.37 932.91,-986.62 923.56,-990.36 927.93,-995.37"/>
<text text-anchor="middle" x="780.84" y="-1118.7" font-family="Arial" font-size="13.00" fill="#355070">1</text>
</g>
<!-- reaction:wgs_reaction_xu_froment&#45;&gt;CO2 -->
<g id="edge18" class="edge">
<title>reaction:wgs_reaction_xu_froment&#45;&gt;CO2</title>
<path fill="none" stroke="#bc6c25" stroke-width="2.2" d="M585.33,-996.9C632.52,-1051.77 713.93,-1146.43 760.58,-1200.67"/>
<polygon fill="#bc6c25" stroke="#bc6c25" stroke-width="2.2" points="587.93,-994.82 579.21,-989.78 582.88,-999.15 587.93,-994.82"/>
<polygon fill="#bc6c25" stroke="#bc6c25" stroke-width="2.2" points="757.99,-1202.75 766.7,-1207.79 763.03,-1198.42 757.99,-1202.75"/>
<text text-anchor="middle" x="669.03" y="-1101.23" font-family="Arial" font-size="13.00" fill="#bc6c25">1</text>
</g>
<!-- reaction:wgs_reaction_xu_froment&#45;&gt;H2 -->
<g id="edge19" class="edge">
<title>reaction:wgs_reaction_xu_froment&#45;&gt;H2</title>
<path fill="none" stroke="#bc6c25" stroke-width="2.2" d="M500.37,-912.92C445.73,-866.14 357.56,-790.66 305.33,-745.94"/>
<polygon fill="#bc6c25" stroke="#bc6c25" stroke-width="2.2" points="498.16,-915.4 507.54,-919.05 502.48,-910.35 498.16,-915.4"/>
<polygon fill="#bc6c25" stroke="#bc6c25" stroke-width="2.2" points="307.6,-743.51 298.23,-739.86 303.28,-748.56 307.6,-743.51"/>
<text text-anchor="middle" x="399.03" y="-832.02" font-family="Arial" font-size="13.00" fill="#bc6c25">1</text>
</g>
<!-- reaction:ni_reduction_co_medrano_an&#45;&gt;CO2 -->
<g id="edge24" class="edge">
<title>reaction:ni_reduction_co_medrano_an&#45;&gt;CO2</title>
<path fill="none" stroke="#bc6c25" stroke-width="2.2" d="M946.08,-984.06C921.01,-1027.21 857.21,-1137.03 821.45,-1198.58"/>
<polygon fill="#bc6c25" stroke="#bc6c25" stroke-width="2.2" points="818.69,-1196.72 816.79,-1206.6 824.44,-1200.06 818.69,-1196.72"/>
<text text-anchor="middle" x="876.81" y="-1099.48" font-family="Arial" font-size="13.00" fill="#bc6c25">1</text>
</g>
<!-- reaction:ni_reduction_co_medrano_an&#45;&gt;Ni -->
<g id="edge25" class="edge">
<title>reaction:ni_reduction_co_medrano_an&#45;&gt;Ni</title>
<path fill="none" stroke="#bc6c25" stroke-width="2.2" d="M932.2,-947.61C875.96,-905.37 736.68,-800.77 666.53,-748.08"/>
<polygon fill="#bc6c25" stroke="#bc6c25" stroke-width="2.2" points="668.54,-745.43 658.95,-742.39 664.55,-750.75 668.54,-745.43"/>
<text text-anchor="middle" x="790.73" y="-846.83" font-family="Arial" font-size="13.00" fill="#bc6c25">1</text>
</g>
<!-- H2&#45;&gt;reaction:ni_reduction_h2_medrano_an -->
<g id="edge5" class="edge">
<title>H2&#45;&gt;reaction:ni_reduction_h2_medrano_an</title>
<path fill="none" stroke="#355070" stroke-width="2.2" d="M283.58,-677.58C318.29,-625 387.12,-520.72 420.46,-470.21"/>
<polygon fill="#355070" stroke="#355070" stroke-width="2.2" points="423.09,-472.26 425.55,-462.49 417.54,-468.59 423.09,-472.26"/>
<text text-anchor="middle" x="351.79" y="-571.21" font-family="Arial" font-size="13.00" fill="#355070">1</text>
</g>
<!-- reaction:ni_reduction_h2_medrano_an&#45;&gt;H2O -->
<g id="edge22" class="edge">
<title>reaction:ni_reduction_h2_medrano_an&#45;&gt;H2O</title>
<path fill="none" stroke="#bc6c25" stroke-width="2.2" d="M421.73,-459.8C372.66,-510.62 234.36,-653.87 169.19,-721.38"/>
<polygon fill="#bc6c25" stroke="#bc6c25" stroke-width="2.2" points="167.02,-718.85 162.81,-727.99 171.8,-723.46 167.02,-718.85"/>
<text text-anchor="middle" x="287.42" y="-597.68" font-family="Arial" font-size="13.00" fill="#bc6c25">1</text>
</g>
<!-- reaction:ni_reduction_h2_medrano_an&#45;&gt;Ni -->
<g id="edge23" class="edge">
<title>reaction:ni_reduction_h2_medrano_an&#45;&gt;Ni</title>
<path fill="none" stroke="#bc6c25" stroke-width="2.2" d="M451.89,-459.93C481.51,-503.93 556.76,-615.72 597.51,-676.26"/>
<polygon fill="#bc6c25" stroke="#bc6c25" stroke-width="2.2" points="594.54,-677.8 602.6,-683.82 600.05,-674.08 594.54,-677.8"/>
<text text-anchor="middle" x="524.25" y="-575.64" font-family="Arial" font-size="13.00" fill="#bc6c25">1</text>
</g>
<!-- H2O&#45;&gt;reaction:smr_reaction_xu_froment -->
<g id="edge6" class="edge">
<title>H2O&#45;&gt;reaction:smr_reaction_xu_froment</title>
<path fill="none" stroke="#355070" stroke-width="2.2" d="M146.47,-802.64C158.76,-848.68 177.71,-919.65 189.98,-965.59"/>
<polygon fill="#355070" stroke="#355070" stroke-width="2.2" points="149.75,-802.05 144.09,-793.73 143.33,-803.77 149.75,-802.05"/>
<polygon fill="#355070" stroke="#355070" stroke-width="2.2" points="186.73,-966.31 192.4,-974.63 193.16,-964.59 186.73,-966.31"/>
<text text-anchor="middle" x="164.58" y="-887.14" font-family="Arial" font-size="13.00" fill="#355070">1</text>
</g>
<!-- H2O&#45;&gt;reaction:overall_reforming_xu_froment -->
<g id="edge8" class="edge">
<title>H2O&#45;&gt;reaction:overall_reforming_xu_froment</title>
<path fill="none" stroke="#355070" stroke-width="2.2" d="M166.94,-794.81C217.95,-853.41 316.41,-966.53 369.84,-1027.91"/>
<polygon fill="#355070" stroke="#355070" stroke-width="2.2" points="169.71,-792.93 160.97,-787.95 164.7,-797.3 169.71,-792.93"/>
<polygon fill="#355070" stroke="#355070" stroke-width="2.2" points="367.08,-1029.81 375.83,-1034.79 372.1,-1025.45 367.08,-1029.81"/>
<text text-anchor="middle" x="264.61" y="-913.98" font-family="Arial" font-size="13.00" fill="#355070">2</text>
</g>
<!-- H2O&#45;&gt;reaction:wgs_reaction_xu_froment -->
<g id="edge7" class="edge">
<title>H2O&#45;&gt;reaction:wgs_reaction_xu_froment</title>
<path fill="none" stroke="#355070" stroke-width="2.2" d="M182.69,-780.37C252.69,-813.63 383.24,-875.65 468,-915.93"/>
<polygon fill="#355070" stroke="#355070" stroke-width="2.2" points="184.54,-777.57 174.53,-776.49 181.68,-783.57 184.54,-777.57"/>
<polygon fill="#355070" stroke="#355070" stroke-width="2.2" points="466.37,-918.83 476.38,-919.91 469.23,-912.83 466.37,-918.83"/>
<text text-anchor="middle" x="321.55" y="-850.78" font-family="Arial" font-size="13.00" fill="#355070">1</text>
</g>
<!-- O2&#45;&gt;reaction:ni_oxidation_o2_medrano_an -->
<g id="edge9" class="edge">
<title>O2&#45;&gt;reaction:ni_oxidation_o2_medrano_an</title>
<path fill="none" stroke="#355070" stroke-width="2.2" d="M1029.57,-63.27C984.27,-119.72 886.59,-241.44 842.25,-296.7"/>
<polygon fill="#355070" stroke="#355070" stroke-width="2.2" points="839.8,-294.43 836.45,-303.92 844.99,-298.59 839.8,-294.43"/>
<text text-anchor="middle" x="922.42" y="-187.76" font-family="Arial" font-size="13.00" fill="#355070">0.5</text>
</g>
<!-- reaction:ni_oxidation_o2_medrano_an&#45;&gt;NiO -->
<g id="edge26" class="edge">
<title>reaction:ni_oxidation_o2_medrano_an&#45;&gt;NiO</title>
<path fill="none" stroke="#bc6c25" stroke-width="2.2" d="M828.02,-343.48C846.12,-382.84 888.94,-475.96 914.58,-531.73"/>
<polygon fill="#bc6c25" stroke="#bc6c25" stroke-width="2.2" points="911.55,-533.1 918.54,-540.34 917.59,-530.32 911.55,-533.1"/>
<text text-anchor="middle" x="870.25" y="-446.12" font-family="Arial" font-size="13.00" fill="#bc6c25">1</text>
</g>
<!-- Ni&#45;&gt;reaction:smr_reaction_xu_froment -->
<g id="edge10" class="edge">
<title>Ni&#45;&gt;reaction:smr_reaction_xu_froment</title>
<path fill="none" stroke="#6d597a" stroke-width="1.8" stroke-dasharray="5,2" d="M582.7,-745.89C506.24,-799.04 344.33,-911.59 258.37,-971.35"/>
<polygon fill="#6d597a" stroke="#6d597a" stroke-width="1.8" points="584.38,-748.34 589.66,-741.05 580.99,-743.46 584.38,-748.34"/>
<polygon fill="#6d597a" stroke="#6d597a" stroke-width="1.8" points="256.8,-968.82 251.52,-976.11 260.2,-973.7 256.8,-968.82"/>
<text text-anchor="middle" x="415.14" y="-858.76" font-family="Arial" font-size="13.00" fill="#6d597a">cat</text>
</g>
<!-- Ni&#45;&gt;reaction:overall_reforming_xu_froment -->
<g id="edge12" class="edge">
<title>Ni&#45;&gt;reaction:overall_reforming_xu_froment</title>
<path fill="none" stroke="#6d597a" stroke-width="1.8" stroke-dasharray="5,2" d="M588.15,-750.11C549.27,-787.51 488.51,-851.61 452.23,-917.96 433.54,-952.15 421.54,-994.93 414.55,-1026.4"/>
<polygon fill="#6d597a" stroke="#6d597a" stroke-width="1.8" points="590.02,-752.44 594.12,-744.42 585.92,-748.13 590.02,-752.44"/>
<polygon fill="#6d597a" stroke="#6d597a" stroke-width="1.8" points="411.71,-1025.43 412.85,-1034.37 417.53,-1026.67 411.71,-1025.43"/>
<text text-anchor="middle" x="471.38" y="-875.77" font-family="Arial" font-size="13.00" fill="#6d597a">cat</text>
</g>
<!-- Ni&#45;&gt;reaction:wgs_reaction_xu_froment -->
<g id="edge11" class="edge">
<title>Ni&#45;&gt;reaction:wgs_reaction_xu_froment</title>
<path fill="none" stroke="#6d597a" stroke-width="1.8" stroke-dasharray="5,2" d="M610.89,-759.85C597.2,-802.62 576.34,-867.76 562.6,-910.67"/>
<polygon fill="#6d597a" stroke="#6d597a" stroke-width="1.8" points="613.71,-760.81 613.47,-751.81 608.04,-758.99 613.71,-760.81"/>
<polygon fill="#6d597a" stroke="#6d597a" stroke-width="1.8" points="559.77,-909.74 560.01,-918.74 565.44,-911.56 559.77,-909.74"/>
<text text-anchor="middle" x="577.66" y="-838.18" font-family="Arial" font-size="13.00" fill="#6d597a">cat</text>
</g>
<!-- Ni&#45;&gt;reaction:ni_oxidation_o2_medrano_an -->
<g id="edge13" class="edge">
<title>Ni&#45;&gt;reaction:ni_oxidation_o2_medrano_an</title>
<path fill="none" stroke="#355070" stroke-width="2.2" d="M640.5,-684.96C677.4,-610.76 768.94,-426.72 804.79,-354.64"/>
<polygon fill="#355070" stroke="#355070" stroke-width="2.2" points="807.7,-356.26 808.95,-346.28 801.74,-353.3 807.7,-356.26"/>
<text text-anchor="middle" x="721.72" y="-516.76" font-family="Arial" font-size="13.00" fill="#355070">1</text>
</g>
<!-- NiO&#45;&gt;reaction:ni_reduction_co_medrano_an -->
<g id="edge15" class="edge">
<title>NiO&#45;&gt;reaction:ni_reduction_co_medrano_an</title>
<path fill="none" stroke="#355070" stroke-width="2.2" d="M936.89,-610.07C941.04,-684.89 950.91,-863.18 954.89,-935.09"/>
<polygon fill="#355070" stroke="#355070" stroke-width="2.2" points="951.56,-934.99 955.4,-944.29 958.2,-934.62 951.56,-934.99"/>
<text text-anchor="middle" x="942.49" y="-781.48" font-family="Arial" font-size="13.00" fill="#355070">1</text>
</g>
<!-- NiO&#45;&gt;reaction:ni_reduction_h2_medrano_an -->
<g id="edge14" class="edge">
<title>NiO&#45;&gt;reaction:ni_reduction_h2_medrano_an</title>
<path fill="none" stroke="#355070" stroke-width="2.2" d="M872.75,-559.23C783.25,-534.9 618.2,-490.04 519.67,-463.25"/>
<polygon fill="#355070" stroke="#355070" stroke-width="2.2" points="520.65,-460.07 510.61,-460.79 518.91,-466.49 520.65,-460.07"/>
<text text-anchor="middle" x="686.35" y="-512.23" font-family="Arial" font-size="13.00" fill="#355070">1</text>
</g>
<!-- Ar -->
<g id="node1" class="node">
<title>Ar</title>
<ellipse fill="#81b29a" stroke="#2f3e46" stroke-width="1.6" cx="161.78" cy="-328.43" rx="43.78" ry="33.43"/>
<text text-anchor="middle" x="161.78" y="-331.08" font-family="Arial" font-size="13.00" fill="#1f2933">Ar</text>
<text text-anchor="middle" x="161.78" y="-316.08" font-family="Arial" font-size="13.00" fill="#1f2933">Argon</text>
</g>
<!-- CH4 -->
<g id="node2" class="node">
<title>CH4</title>
<ellipse fill="#81b29a" stroke="#2f3e46" stroke-width="1.6" cx="54.92" cy="-1315.56" rx="54.92" ry="33.43"/>
<text text-anchor="middle" x="54.92" y="-1318.21" font-family="Arial" font-size="13.00" fill="#1f2933">CH4</text>
<text text-anchor="middle" x="54.92" y="-1303.21" font-family="Arial" font-size="13.00" fill="#1f2933">Methane</text>
</g>
<!-- reaction:smr_reaction_xu_froment -->
<g id="node3" class="node">
<title>reaction:smr_reaction_xu_froment</title>
<path fill="#6d597a" stroke="#3d405b" stroke-width="1.6" d="M281.58,-1043.12C281.58,-1043.12 122.4,-1043.12 122.4,-1043.12 116.4,-1043.12 110.4,-1037.12 110.4,-1031.12 110.4,-1031.12 110.4,-989.96 110.4,-989.96 110.4,-983.96 116.4,-977.96 122.4,-977.96 122.4,-977.96 281.58,-977.96 281.58,-977.96 287.58,-977.96 293.58,-983.96 293.58,-989.96 293.58,-989.96 293.58,-1031.12 293.58,-1031.12 293.58,-1037.12 287.58,-1043.12 281.58,-1043.12"/>
<text text-anchor="middle" x="201.99" y="-1020.69" font-family="Arial" font-size="13.00" fill="white">smr_reaction_xu_froment</text>
<text text-anchor="middle" x="201.99" y="-1005.69" font-family="Arial" font-size="13.00" fill="white">reversible</text>
<text text-anchor="middle" x="201.99" y="-990.69" font-family="Arial" font-size="13.00" fill="white">cat: Ni</text>
</g>
<!-- reaction:overall_reforming_xu_froment -->
<g id="node4" class="node">
<title>reaction:overall_reforming_xu_froment</title>
<path fill="#6d597a" stroke="#3d405b" stroke-width="1.6" d="M499.2,-1102.6C499.2,-1102.6 313.77,-1102.6 313.77,-1102.6 307.77,-1102.6 301.77,-1096.6 301.77,-1090.6 301.77,-1090.6 301.77,-1049.44 301.77,-1049.44 301.77,-1043.44 307.77,-1037.44 313.77,-1037.44 313.77,-1037.44 499.2,-1037.44 499.2,-1037.44 505.2,-1037.44 511.2,-1043.44 511.2,-1049.44 511.2,-1049.44 511.2,-1090.6 511.2,-1090.6 511.2,-1096.6 505.2,-1102.6 499.2,-1102.6"/>
<text text-anchor="middle" x="406.49" y="-1080.17" font-family="Arial" font-size="13.00" fill="white">overall_reforming_xu_froment</text>
<text text-anchor="middle" x="406.49" y="-1065.17" font-family="Arial" font-size="13.00" fill="white">reversible</text>
<text text-anchor="middle" x="406.49" y="-1050.17" font-family="Arial" font-size="13.00" fill="white">cat: Ni</text>
</g>
<!-- CO -->
<g id="node5" class="node">
<title>CO</title>
<ellipse fill="#81b29a" stroke="#2f3e46" stroke-width="1.6" cx="597.66" cy="-1279.17" rx="93.1" ry="33.43"/>
<text text-anchor="middle" x="597.66" y="-1281.82" font-family="Arial" font-size="13.00" fill="#1f2933">CO</text>
<text text-anchor="middle" x="597.66" y="-1266.82" font-family="Arial" font-size="13.00" fill="#1f2933">Carbon Monoxide</text>
</g>
<!-- reaction:wgs_reaction_xu_froment -->
<g id="node6" class="node">
<title>reaction:wgs_reaction_xu_froment</title>
<path fill="#6d597a" stroke="#3d405b" stroke-width="1.6" d="M629.36,-986.82C629.36,-986.82 467.93,-986.82 467.93,-986.82 461.93,-986.82 455.93,-980.82 455.93,-974.82 455.93,-974.82 455.93,-933.66 455.93,-933.66 455.93,-927.66 461.93,-921.66 467.93,-921.66 467.93,-921.66 629.36,-921.66 629.36,-921.66 635.36,-921.66 641.36,-927.66 641.36,-933.66 641.36,-933.66 641.36,-974.82 641.36,-974.82 641.36,-980.82 635.36,-986.82 629.36,-986.82"/>
<text text-anchor="middle" x="548.64" y="-964.39" font-family="Arial" font-size="13.00" fill="white">wgs_reaction_xu_froment</text>
<text text-anchor="middle" x="548.64" y="-949.39" font-family="Arial" font-size="13.00" fill="white">reversible</text>
<text text-anchor="middle" x="548.64" y="-934.39" font-family="Arial" font-size="13.00" fill="white">cat: Ni</text>
</g>
<!-- reaction:ni_reduction_co_medrano_an -->
<g id="node7" class="node">
<title>reaction:ni_reduction_co_medrano_an</title>
<path fill="#6d597a" stroke="#3d405b" stroke-width="1.6" d="M1049.32,-983.94C1049.32,-983.94 863.89,-983.94 863.89,-983.94 857.89,-983.94 851.89,-977.94 851.89,-971.94 851.89,-971.94 851.89,-959.94 851.89,-959.94 851.89,-953.94 857.89,-947.94 863.89,-947.94 863.89,-947.94 1049.32,-947.94 1049.32,-947.94 1055.32,-947.94 1061.32,-953.94 1061.32,-959.94 1061.32,-959.94 1061.32,-971.94 1061.32,-971.94 1061.32,-977.94 1055.32,-983.94 1049.32,-983.94"/>
<text text-anchor="middle" x="956.6" y="-961.09" font-family="Arial" font-size="13.00" fill="white">ni_reduction_co_medrano_an</text>
</g>
<!-- CO2 -->
<g id="node8" class="node">
<title>CO2</title>
<ellipse fill="#81b29a" stroke="#2f3e46" stroke-width="1.6" cx="796.18" cy="-1242.07" rx="84.09" ry="33.43"/>
<text text-anchor="middle" x="796.18" y="-1244.72" font-family="Arial" font-size="13.00" fill="#1f2933">CO2</text>
<text text-anchor="middle" x="796.18" y="-1229.72" font-family="Arial" font-size="13.00" fill="#1f2933">Carbon Dioxide</text>
</g>
<!-- H2 -->
<g id="node9" class="node">
<title>H2</title>
<ellipse fill="#81b29a" stroke="#2f3e46" stroke-width="1.6" cx="262.6" cy="-709.36" rx="59.69" ry="33.43"/>
<text text-anchor="middle" x="262.6" y="-712.01" font-family="Arial" font-size="13.00" fill="#1f2933">H2</text>
<text text-anchor="middle" x="262.6" y="-697.01" font-family="Arial" font-size="13.00" fill="#1f2933">Hydrogen</text>
</g>
<!-- reaction:ni_reduction_h2_medrano_an -->
<g id="node10" class="node">
<title>reaction:ni_reduction_h2_medrano_an</title>
<path fill="#6d597a" stroke="#3d405b" stroke-width="1.6" d="M532.54,-459.45C532.54,-459.45 346.36,-459.45 346.36,-459.45 340.36,-459.45 334.36,-453.45 334.36,-447.45 334.36,-447.45 334.36,-435.45 334.36,-435.45 334.36,-429.45 340.36,-423.45 346.36,-423.45 346.36,-423.45 532.54,-423.45 532.54,-423.45 538.54,-423.45 544.54,-429.45 544.54,-435.45 544.54,-435.45 544.54,-447.45 544.54,-447.45 544.54,-453.45 538.54,-459.45 532.54,-459.45"/>
<text text-anchor="middle" x="439.45" y="-436.6" font-family="Arial" font-size="13.00" fill="white">ni_reduction_h2_medrano_an</text>
</g>
<!-- H2O -->
<g id="node11" class="node">
<title>H2O</title>
<ellipse fill="#81b29a" stroke="#2f3e46" stroke-width="1.6" cx="134.4" cy="-757.42" rx="43.25" ry="33.43"/>
<text text-anchor="middle" x="134.4" y="-760.07" font-family="Arial" font-size="13.00" fill="#1f2933">H2O</text>
<text text-anchor="middle" x="134.4" y="-745.07" font-family="Arial" font-size="13.00" fill="#1f2933">Water</text>
</g>
<!-- He -->
<g id="node12" class="node">
<title>He</title>
<ellipse fill="#81b29a" stroke="#2f3e46" stroke-width="1.6" cx="578.5" cy="-328.43" rx="47.5" ry="33.43"/>
<text text-anchor="middle" x="578.5" y="-331.08" font-family="Arial" font-size="13.00" fill="#1f2933">He</text>
<text text-anchor="middle" x="578.5" y="-316.08" font-family="Arial" font-size="13.00" fill="#1f2933">Helium</text>
</g>
<!-- N2 -->
<g id="node13" class="node">
<title>N2</title>
<ellipse fill="#81b29a" stroke="#2f3e46" stroke-width="1.6" cx="821.39" cy="-741.43" rx="54.39" ry="33.43"/>
<text text-anchor="middle" x="821.39" y="-744.08" font-family="Arial" font-size="13.00" fill="#1f2933">N2</text>
<text text-anchor="middle" x="821.39" y="-729.08" font-family="Arial" font-size="13.00" fill="#1f2933">Nitrogen</text>
</g>
<!-- O2 -->
<g id="node14" class="node">
<title>O2</title>
<ellipse fill="#81b29a" stroke="#2f3e46" stroke-width="1.6" cx="1053.51" cy="-33.43" rx="50.68" ry="33.43"/>
<text text-anchor="middle" x="1053.51" y="-36.08" font-family="Arial" font-size="13.00" fill="#1f2933">O2</text>
<text text-anchor="middle" x="1053.51" y="-21.08" font-family="Arial" font-size="13.00" fill="#1f2933">Oxygen</text>
</g>
<!-- reaction:ni_oxidation_o2_medrano_an -->
<g id="node15" class="node">
<title>reaction:ni_oxidation_o2_medrano_an</title>
<path fill="#6d597a" stroke="#3d405b" stroke-width="1.6" d="M911.86,-343.01C911.86,-343.01 727.18,-343.01 727.18,-343.01 721.18,-343.01 715.18,-337.01 715.18,-331.01 715.18,-331.01 715.18,-319.01 715.18,-319.01 715.18,-313.01 721.18,-307.01 727.18,-307.01 727.18,-307.01 911.86,-307.01 911.86,-307.01 917.86,-307.01 923.86,-313.01 923.86,-319.01 923.86,-319.01 923.86,-331.01 923.86,-331.01 923.86,-337.01 917.86,-343.01 911.86,-343.01"/>
<text text-anchor="middle" x="819.52" y="-320.16" font-family="Arial" font-size="13.00" fill="white">ni_oxidation_o2_medrano_an</text>
</g>
<!-- Ni -->
<g id="node16" class="node">
<title>Ni</title>
<ellipse fill="#f2cc8f" stroke="#2f3e46" stroke-width="1.6" cx="624.72" cy="-716.68" rx="44.31" ry="33.43"/>
<text text-anchor="middle" x="624.72" y="-719.33" font-family="Arial" font-size="13.00" fill="#1f2933">Ni</text>
<text text-anchor="middle" x="624.72" y="-704.33" font-family="Arial" font-size="13.00" fill="#1f2933">Nickel</text>
</g>
<!-- NiO -->
<g id="node17" class="node">
<title>NiO</title>
<ellipse fill="#f2cc8f" stroke="#2f3e46" stroke-width="1.6" cx="935.01" cy="-576.16" rx="71.36" ry="33.43"/>
<text text-anchor="middle" x="935.01" y="-578.81" font-family="Arial" font-size="13.00" fill="#1f2933">NiO</text>
<text text-anchor="middle" x="935.01" y="-563.81" font-family="Arial" font-size="13.00" fill="#1f2933">Nickel Oxide</text>
</g>
<!-- CaAl2O4 -->
<g id="node18" class="node">
<title>CaAl2O4</title>
<ellipse fill="#f2cc8f" stroke="#2f3e46" stroke-width="1.6" cx="214.29" cy="-505.43" rx="96.29" ry="33.43"/>
<text text-anchor="middle" x="214.29" y="-508.08" font-family="Arial" font-size="13.00" fill="#1f2933">CaAl2O4</text>
<text text-anchor="middle" x="214.29" y="-493.08" font-family="Arial" font-size="13.00" fill="#1f2933">Calcium Aluminate</text>
</g>
</g>
</svg>
