<?xml version="1.0" encoding="utf-8" standalone="no"?>
<!DOCTYPE svg PUBLIC "-//W3C//DTD SVG 1.1//EN"
  "http://www.w3.org/Graphics/SVG/1.1/DTD/svg11.dtd">
<svg xmlns:xlink="http://www.w3.org/1999/xlink" width="857.23424pt" height="423.034375pt" viewBox="0 0 857.23424 423.034375" xmlns="http://www.w3.org/2000/svg" version="1.1">
 <metadata>
  <rdf:RDF xmlns:dc="http://purl.org/dc/elements/1.1/" xmlns:cc="http://creativecommons.org/ns#" xmlns:rdf="http://www.w3.org/1999/02/22-rdf-syntax-ns#">
   <cc:Work>
    <dc:type rdf:resource="http://purl.org/dc/dcmitype/StillImage"/>
    <dc:date>2026-04-14T13:09:13.520972</dc:date>
    <dc:format>image/svg+xml</dc:format>
    <dc:creator>
     <cc:Agent>
      <dc:title>Matplotlib v3.10.8, https://matplotlib.org/</dc:title>
     </cc:Agent>
    </dc:creator>
   </cc:Work>
  </rdf:RDF>
 </metadata>
 <defs>
  <style type="text/css">*{stroke-linejoin: round; stroke-linecap: butt}</style>
 </defs>
 <g id="figure_1">
  <g id="patch_1">
   <path d="M 0 423.034375 
L 857.23424 423.034375 
L 857.23424 0 
L 0 0 
z
" style="fill: #ffffff"/>
  </g>
  <g id="axes_1">
   <g id="patch_2">
    <path d="M 43.78125 385.478125 
L 796.30525 385.478125 
L 796.30525 22.318125 
L 43.78125 22.318125 
z
" style="fill: #ffffff"/>
   </g>
   <g id="matplotlib.axis_1">
    <g id="xtick_1">
     <g id="line2d_1">
      <path d="M 43.78125 385.478125 
L 43.78125 22.318125 
" clip-path="url(#p4077c9e330)" style="fill: none; stroke: #b0b0b0; stroke-opacity: 0.3; stroke-width: 0.8; stroke-linecap: square"/>
     </g>
     <g id="line2d_2">
      <defs>
       <path id="m1aa82d6b2b" d="M 0 0 
L 0 3.5 
" style="stroke: #000000; stroke-width: 0.8"/>
      </defs>
      <g>
       <use xlink:href="#m1aa82d6b2b" x="43.78125" y="385.478125" style="stroke: #000000; stroke-width: 0.8"/>
      </g>
     </g>
     <g id="text_1">
      <!-- 0 -->
      <g transform="translate(40.6 400.076562) scale(0.1 -0.1)">
       <defs>
        <path id="DejaVuSans-30" d="M 2034 4250 
Q 1547 4250 1301 3770 
Q 1056 3291 1056 2328 
Q 1056 1369 1301 889 
Q 1547 409 2034 409 
Q 2525 409 2770 889 
Q 3016 1369 3016 2328 
Q 3016 3291 2770 3770 
Q 2525 4250 2034 4250 
z
M 2034 4750 
Q 2819 4750 3233 4129 
Q 3647 3509 3647 2328 
Q 3647 1150 3233 529 
Q 2819 -91 2034 -91 
Q 1250 -91 836 529 
Q 422 1150 422 2328 
Q 422 3509 836 4129 
Q 1250 4750 2034 4750 
z
" transform="scale(0.015625)"/>
       </defs>
       <use xlink:href="#DejaVuSans-30"/>
      </g>
     </g>
    </g>
    <g id="xtick_2">
     <g id="line2d_3">
      <path d="M 137.84675 385.478125 
L 137.84675 22.318125 
" clip-path="url(#p4077c9e330)" style="fill: none; stroke: #b0b0b0; stroke-opacity: 0.3; stroke-width: 0.8; stroke-linecap: square"/>
     </g>
     <g id="line2d_4">
      <g>
       <use xlink:href="#m1aa82d6b2b" x="137.84675" y="385.478125" style="stroke: #000000; stroke-width: 0.8"/>
      </g>
     </g>
     <g id="text_2">
      <!-- 1000 -->
      <g transform="translate(125.12175 400.076562) scale(0.1 -0.1)">
       <defs>
        <path id="DejaVuSans-31" d="M 794 531 
L 1825 531 
L 1825 4091 
L 703 3866 
L 703 4441 
L 1819 4666 
L 2450 4666 
L 2450 531 
L 3481 531 
L 3481 0 
L 794 0 
L 794 531 
z
" transform="scale(0.015625)"/>
       </defs>
       <use xlink:href="#DejaVuSans-31"/>
       <use xlink:href="#DejaVuSans-30" transform="translate(63.623047 0)"/>
       <use xlink:href="#DejaVuSans-30" transform="translate(127.246094 0)"/>
       <use xlink:href="#DejaVuSans-30" transform="translate(190.869141 0)"/>
      </g>
     </g>
    </g>
    <g id="xtick_3">
     <g id="line2d_5">
      <path d="M 231.91225 385.478125 
L 231.91225 22.318125 
" clip-path="url(#p4077c9e330)" style="fill: none; stroke: #b0b0b0; stroke-opacity: 0.3; stroke-width: 0.8; stroke-linecap: square"/>
     </g>
     <g id="line2d_6">
      <g>
       <use xlink:href="#m1aa82d6b2b" x="231.91225" y="385.478125" style="stroke: #000000; stroke-width: 0.8"/>
      </g>
     </g>
     <g id="text_3">
      <!-- 2000 -->
      <g transform="translate(219.18725 400.076562) scale(0.1 -0.1)">
       <defs>
        <path id="DejaVuSans-32" d="M 1228 531 
L 3431 531 
L 3431 0 
L 469 0 
L 469 531 
Q 828 903 1448 1529 
Q 2069 2156 2228 2338 
Q 2531 2678 2651 2914 
Q 2772 3150 2772 3378 
Q 2772 3750 2511 3984 
Q 2250 4219 1831 4219 
Q 1534 4219 1204 4116 
Q 875 4013 500 3803 
L 500 4441 
Q 881 4594 1212 4672 
Q 1544 4750 1819 4750 
Q 2544 4750 2975 4387 
Q 3406 4025 3406 3419 
Q 3406 3131 3298 2873 
Q 3191 2616 2906 2266 
Q 2828 2175 2409 1742 
Q 1991 1309 1228 531 
z
" transform="scale(0.015625)"/>
       </defs>
       <use xlink:href="#DejaVuSans-32"/>
       <use xlink:href="#DejaVuSans-30" transform="translate(63.623047 0)"/>
       <use xlink:href="#DejaVuSans-30" transform="translate(127.246094 0)"/>
       <use xlink:href="#DejaVuSans-30" transform="translate(190.869141 0)"/>
      </g>
     </g>
    </g>
    <g id="xtick_4">
     <g id="line2d_7">
      <path d="M 325.97775 385.478125 
L 325.97775 22.318125 
" clip-path="url(#p4077c9e330)" style="fill: none; stroke: #b0b0b0; stroke-opacity: 0.3; stroke-width: 0.8; stroke-linecap: square"/>
     </g>
     <g id="line2d_8">
      <g>
       <use xlink:href="#m1aa82d6b2b" x="325.97775" y="385.478125" style="stroke: #000000; stroke-width: 0.8"/>
      </g>
     </g>
     <g id="text_4">
      <!-- 3000 -->
      <g transform="translate(313.25275 400.076562) scale(0.1 -0.1)">
       <defs>
        <path id="DejaVuSans-33" d="M 2597 2516 
Q 3050 2419 3304 2112 
Q 3559 1806 3559 1356 
Q 3559 666 3084 287 
Q 2609 -91 1734 -91 
Q 1441 -91 1130 -33 
Q 819 25 488 141 
L 488 750 
Q 750 597 1062 519 
Q 1375 441 1716 441 
Q 2309 441 2620 675 
Q 2931 909 2931 1356 
Q 2931 1769 2642 2001 
Q 2353 2234 1838 2234 
L 1294 2234 
L 1294 2753 
L 1863 2753 
Q 2328 2753 2575 2939 
Q 2822 3125 2822 3475 
Q 2822 3834 2567 4026 
Q 2313 4219 1838 4219 
Q 1578 4219 1281 4162 
Q 984 4106 628 3988 
L 628 4550 
Q 988 4650 1302 4700 
Q 1616 4750 1894 4750 
Q 2613 4750 3031 4423 
Q 3450 4097 3450 3541 
Q 3450 3153 3228 2886 
Q 3006 2619 2597 2516 
z
" transform="scale(0.015625)"/>
       </defs>
       <use xlink:href="#DejaVuSans-33"/>
       <use xlink:href="#DejaVuSans-30" transform="translate(63.623047 0)"/>
       <use xlink:href="#DejaVuSans-30" transform="translate(127.246094 0)"/>
       <use xlink:href="#DejaVuSans-30" transform="translate(190.869141 0)"/>
      </g>
     </g>
    </g>
    <g id="xtick_5">
     <g id="line2d_9">
      <path d="M 420.04325 385.478125 
L 420.04325 22.318125 
" clip-path="url(#p4077c9e330)" style="fill: none; stroke: #b0b0b0; stroke-opacity: 0.3; stroke-width: 0.8; stroke-linecap: square"/>
     </g>
     <g id="line2d_10">
      <g>
       <use xlink:href="#m1aa82d6b2b" x="420.04325" y="385.478125" style="stroke: #000000; stroke-width: 0.8"/>
      </g>
     </g>
     <g id="text_5">
      <!-- 4000 -->
      <g transform="translate(407.31825 400.076562) scale(0.1 -0.1)">
       <defs>
        <path id="DejaVuSans-34" d="M 2419 4116 
L 825 1625 
L 2419 1625 
L 2419 4116 
z
M 2253 4666 
L 3047 4666 
L 3047 1625 
L 3713 1625 
L 3713 1100 
L 3047 1100 
L 3047 0 
L 2419 0 
L 2419 1100 
L 313 1100 
L 313 1709 
L 2253 4666 
z
" transform="scale(0.015625)"/>
       </defs>
       <use xlink:href="#DejaVuSans-34"/>
       <use xlink:href="#DejaVuSans-30" transform="translate(63.623047 0)"/>
       <use xlink:href="#DejaVuSans-30" transform="translate(127.246094 0)"/>
       <use xlink:href="#DejaVuSans-30" transform="translate(190.869141 0)"/>
      </g>
     </g>
    </g>
    <g id="xtick_6">
     <g id="line2d_11">
      <path d="M 514.10875 385.478125 
L 514.10875 22.318125 
" clip-path="url(#p4077c9e330)" style="fill: none; stroke: #b0b0b0; stroke-opacity: 0.3; stroke-width: 0.8; stroke-linecap: square"/>
     </g>
     <g id="line2d_12">
      <g>
       <use xlink:href="#m1aa82d6b2b" x="514.10875" y="385.478125" style="stroke: #000000; stroke-width: 0.8"/>
      </g>
     </g>
     <g id="text_6">
      <!-- 5000 -->
      <g transform="translate(501.38375 400.076562) scale(0.1 -0.1)">
       <defs>
        <path id="DejaVuSans-35" d="M 691 4666 
L 3169 4666 
L 3169 4134 
L 1269 4134 
L 1269 2991 
Q 1406 3038 1543 3061 
Q 1681 3084 1819 3084 
Q 2600 3084 3056 2656 
Q 3513 2228 3513 1497 
Q 3513 744 3044 326 
Q 2575 -91 1722 -91 
Q 1428 -91 1123 -41 
Q 819 9 494 109 
L 494 744 
Q 775 591 1075 516 
Q 1375 441 1709 441 
Q 2250 441 2565 725 
Q 2881 1009 2881 1497 
Q 2881 1984 2565 2268 
Q 2250 2553 1709 2553 
Q 1456 2553 1204 2497 
Q 953 2441 691 2322 
L 691 4666 
z
" transform="scale(0.015625)"/>
       </defs>
       <use xlink:href="#DejaVuSans-35"/>
       <use xlink:href="#DejaVuSans-30" transform="translate(63.623047 0)"/>
       <use xlink:href="#DejaVuSans-30" transform="translate(127.246094 0)"/>
       <use xlink:href="#DejaVuSans-30" transform="translate(190.869141 0)"/>
      </g>
     </g>
    </g>
    <g id="xtick_7">
     <g id="line2d_13">
      <path d="M 608.17425 385.478125 
L 608.17425 22.318125 
" clip-path="url(#p4077c9e330)" style="fill: none; stroke: #b0b0b0; stroke-opacity: 0.3; stroke-width: 0.8; stroke-linecap: square"/>
     </g>
     <g id="line2d_14">
      <g>
       <use xlink:href="#m1aa82d6b2b" x="608.17425" y="385.478125" style="stroke: #000000; stroke-width: 0.8"/>
      </g>
     </g>
     <g id="text_7">
      <!-- 6000 -->
      <g transform="translate(595.44925 400.076562) scale(0.1 -0.1)">
       <defs>
        <path id="DejaVuSans-36" d="M 2113 2584 
Q 1688 2584 1439 2293 
Q 1191 2003 1191 1497 
Q 1191 994 1439 701 
Q 1688 409 2113 409 
Q 2538 409 2786 701 
Q 3034 994 3034 1497 
Q 3034 2003 2786 2293 
Q 2538 2584 2113 2584 
z
M 3366 4563 
L 3366 3988 
Q 3128 4100 2886 4159 
Q 2644 4219 2406 4219 
Q 1781 4219 1451 3797 
Q 1122 3375 1075 2522 
Q 1259 2794 1537 2939 
Q 1816 3084 2150 3084 
Q 2853 3084 3261 2657 
Q 3669 2231 3669 1497 
Q 3669 778 3244 343 
Q 2819 -91 2113 -91 
Q 1303 -91 875 529 
Q 447 1150 447 2328 
Q 447 3434 972 4092 
Q 1497 4750 2381 4750 
Q 2619 4750 2861 4703 
Q 3103 4656 3366 4563 
z
" transform="scale(0.015625)"/>
       </defs>
       <use xlink:href="#DejaVuSans-36"/>
       <use xlink:href="#DejaVuSans-30" transform="translate(63.623047 0)"/>
       <use xlink:href="#DejaVuSans-30" transform="translate(127.246094 0)"/>
       <use xlink:href="#DejaVuSans-30" transform="translate(190.869141 0)"/>
      </g>
     </g>
    </g>
    <g id="xtick_8">
     <g id="line2d_15">
      <path d="M 702.23975 385.478125 
L 702.23975 22.318125 
" clip-path="url(#p4077c9e330)" style="fill: none; stroke: #b0b0b0; stroke-opacity: 0.3; stroke-width: 0.8; stroke-linecap: square"/>
     </g>
     <g id="line2d_16">
      <g>
       <use xlink:href="#m1aa82d6b2b" x="702.23975" y="385.478125" style="stroke: #000000; stroke-width: 0.8"/>
      </g>
     </g>
     <g id="text_8">
      <!-- 7000 -->
      <g transform="translate(689.51475 400.076562) scale(0.1 -0.1)">
       <defs>
        <path id="DejaVuSans-37" d="M 525 4666 
L 3525 4666 
L 3525 4397 
L 1831 0 
L 1172 0 
L 2766 4134 
L 525 4134 
L 525 4666 
z
" transform="scale(0.015625)"/>
       </defs>
       <use xlink:href="#DejaVuSans-37"/>
       <use xlink:href="#DejaVuSans-30" transform="translate(63.623047 0)"/>
       <use xlink:href="#DejaVuSans-30" transform="translate(127.246094 0)"/>
       <use xlink:href="#DejaVuSans-30" transform="translate(190.869141 0)"/>
      </g>
     </g>
    </g>
    <g id="xtick_9">
     <g id="line2d_17">
      <path d="M 796.30525 385.478125 
L 796.30525 22.318125 
" clip-path="url(#p4077c9e330)" style="fill: none; stroke: #b0b0b0; stroke-opacity: 0.3; stroke-width: 0.8; stroke-linecap: square"/>
     </g>
     <g id="line2d_18">
      <g>
       <use xlink:href="#m1aa82d6b2b" x="796.30525" y="385.478125" style="stroke: #000000; stroke-width: 0.8"/>
      </g>
     </g>
     <g id="text_9">
      <!-- 8000 -->
      <g transform="translate(783.58025 400.076562) scale(0.1 -0.1)">
       <defs>
        <path id="DejaVuSans-38" d="M 2034 2216 
Q 1584 2216 1326 1975 
Q 1069 1734 1069 1313 
Q 1069 891 1326 650 
Q 1584 409 2034 409 
Q 2484 409 2743 651 
Q 3003 894 3003 1313 
Q 3003 1734 2745 1975 
Q 2488 2216 2034 2216 
z
M 1403 2484 
Q 997 2584 770 2862 
Q 544 3141 544 3541 
Q 544 4100 942 4425 
Q 1341 4750 2034 4750 
Q 2731 4750 3128 4425 
Q 3525 4100 3525 3541 
Q 3525 3141 3298 2862 
Q 3072 2584 2669 2484 
Q 3125 2378 3379 2068 
Q 3634 1759 3634 1313 
Q 3634 634 3220 271 
Q 2806 -91 2034 -91 
Q 1263 -91 848 271 
Q 434 634 434 1313 
Q 434 1759 690 2068 
Q 947 2378 1403 2484 
z
M 1172 3481 
Q 1172 3119 1398 2916 
Q 1625 2713 2034 2713 
Q 2441 2713 2670 2916 
Q 2900 3119 2900 3481 
Q 2900 3844 2670 4047 
Q 2441 4250 2034 4250 
Q 1625 4250 1398 4047 
Q 1172 3844 1172 3481 
z
" transform="scale(0.015625)"/>
       </defs>
       <use xlink:href="#DejaVuSans-38"/>
       <use xlink:href="#DejaVuSans-30" transform="translate(63.623047 0)"/>
       <use xlink:href="#DejaVuSans-30" transform="translate(127.246094 0)"/>
       <use xlink:href="#DejaVuSans-30" transform="translate(190.869141 0)"/>
      </g>
     </g>
    </g>
    <g id="text_10">
     <!-- Time [s] -->
     <g transform="translate(399.714344 413.754687) scale(0.1 -0.1)">
      <defs>
       <path id="DejaVuSans-54" d="M -19 4666 
L 3928 4666 
L 3928 4134 
L 2272 4134 
L 2272 0 
L 1638 0 
L 1638 4134 
L -19 4134 
L -19 4666 
z
" transform="scale(0.015625)"/>
       <path id="DejaVuSans-69" d="M 603 3500 
L 1178 3500 
L 1178 0 
L 603 0 
L 603 3500 
z
M 603 4863 
L 1178 4863 
L 1178 4134 
L 603 4134 
L 603 4863 
z
" transform="scale(0.015625)"/>
       <path id="DejaVuSans-6d" d="M 3328 2828 
Q 3544 3216 3844 3400 
Q 4144 3584 4550 3584 
Q 5097 3584 5394 3201 
Q 5691 2819 5691 2113 
L 5691 0 
L 5113 0 
L 5113 2094 
Q 5113 2597 4934 2840 
Q 4756 3084 4391 3084 
Q 3944 3084 3684 2787 
Q 3425 2491 3425 1978 
L 3425 0 
L 2847 0 
L 2847 2094 
Q 2847 2600 2669 2842 
Q 2491 3084 2119 3084 
Q 1678 3084 1418 2786 
Q 1159 2488 1159 1978 
L 1159 0 
L 581 0 
L 581 3500 
L 1159 3500 
L 1159 2956 
Q 1356 3278 1631 3431 
Q 1906 3584 2284 3584 
Q 2666 3584 2933 3390 
Q 3200 3197 3328 2828 
z
" transform="scale(0.015625)"/>
       <path id="DejaVuSans-65" d="M 3597 1894 
L 3597 1613 
L 953 1613 
Q 991 1019 1311 708 
Q 1631 397 2203 397 
Q 2534 397 2845 478 
Q 3156 559 3463 722 
L 3463 178 
Q 3153 47 2828 -22 
Q 2503 -91 2169 -91 
Q 1331 -91 842 396 
Q 353 884 353 1716 
Q 353 2575 817 3079 
Q 1281 3584 2069 3584 
Q 2775 3584 3186 3129 
Q 3597 2675 3597 1894 
z
M 3022 2063 
Q 3016 2534 2758 2815 
Q 2500 3097 2075 3097 
Q 1594 3097 1305 2825 
Q 1016 2553 972 2059 
L 3022 2063 
z
" transform="scale(0.015625)"/>
       <path id="DejaVuSans-20" transform="scale(0.015625)"/>
       <path id="DejaVuSans-5b" d="M 550 4863 
L 1875 4863 
L 1875 4416 
L 1125 4416 
L 1125 -397 
L 1875 -397 
L 1875 -844 
L 550 -844 
L 550 4863 
z
" transform="scale(0.015625)"/>
       <path id="DejaVuSans-73" d="M 2834 3397 
L 2834 2853 
Q 2591 2978 2328 3040 
Q 2066 3103 1784 3103 
Q 1356 3103 1142 2972 
Q 928 2841 928 2578 
Q 928 2378 1081 2264 
Q 1234 2150 1697 2047 
L 1894 2003 
Q 2506 1872 2764 1633 
Q 3022 1394 3022 966 
Q 3022 478 2636 193 
Q 2250 -91 1575 -91 
Q 1294 -91 989 -36 
Q 684 19 347 128 
L 347 722 
Q 666 556 975 473 
Q 1284 391 1588 391 
Q 1994 391 2212 530 
Q 2431 669 2431 922 
Q 2431 1156 2273 1281 
Q 2116 1406 1581 1522 
L 1381 1569 
Q 847 1681 609 1914 
Q 372 2147 372 2553 
Q 372 3047 722 3315 
Q 1072 3584 1716 3584 
Q 2034 3584 2315 3537 
Q 2597 3491 2834 3397 
z
" transform="scale(0.015625)"/>
       <path id="DejaVuSans-5d" d="M 1947 4863 
L 1947 -844 
L 622 -844 
L 622 -397 
L 1369 -397 
L 1369 4416 
L 622 4416 
L 622 4863 
L 1947 4863 
z
" transform="scale(0.015625)"/>
      </defs>
      <use xlink:href="#DejaVuSans-54"/>
      <use xlink:href="#DejaVuSans-69" transform="translate(57.958984 0)"/>
      <use xlink:href="#DejaVuSans-6d" transform="translate(85.742188 0)"/>
      <use xlink:href="#DejaVuSans-65" transform="translate(183.154297 0)"/>
      <use xlink:href="#DejaVuSans-20" transform="translate(244.677734 0)"/>
      <use xlink:href="#DejaVuSans-5b" transform="translate(276.464844 0)"/>
      <use xlink:href="#DejaVuSans-73" transform="translate(315.478516 0)"/>
      <use xlink:href="#DejaVuSans-5d" transform="translate(367.578125 0)"/>
     </g>
    </g>
   </g>
   <g id="matplotlib.axis_2">
    <g id="ytick_1">
     <g id="line2d_19">
      <path d="M 43.78125 378.494279 
L 796.30525 378.494279 
" clip-path="url(#p4077c9e330)" style="fill: none; stroke: #b0b0b0; stroke-opacity: 0.3; stroke-width: 0.8; stroke-linecap: square"/>
     </g>
     <g id="line2d_20">
      <defs>
       <path id="mbfbd0b4f3a" d="M 0 0 
L -3.5 0 
" style="stroke: #000000; stroke-width: 0.8"/>
      </defs>
      <g>
       <use xlink:href="#mbfbd0b4f3a" x="43.78125" y="378.494279" style="stroke: #000000; stroke-width: 0.8"/>
      </g>
     </g>
     <g id="text_11">
      <!-- 0.0 -->
      <g transform="translate(20.878125 382.293498) scale(0.1 -0.1)">
       <defs>
        <path id="DejaVuSans-2e" d="M 684 794 
L 1344 794 
L 1344 0 
L 684 0 
L 684 794 
z
" transform="scale(0.015625)"/>
       </defs>
       <use xlink:href="#DejaVuSans-30"/>
       <use xlink:href="#DejaVuSans-2e" transform="translate(63.623047 0)"/>
       <use xlink:href="#DejaVuSans-30" transform="translate(95.410156 0)"/>
      </g>
     </g>
    </g>
    <g id="ytick_2">
     <g id="line2d_21">
      <path d="M 43.78125 308.655817 
L 796.30525 308.655817 
" clip-path="url(#p4077c9e330)" style="fill: none; stroke: #b0b0b0; stroke-opacity: 0.3; stroke-width: 0.8; stroke-linecap: square"/>
     </g>
     <g id="line2d_22">
      <g>
       <use xlink:href="#mbfbd0b4f3a" x="43.78125" y="308.655817" style="stroke: #000000; stroke-width: 0.8"/>
      </g>
     </g>
     <g id="text_12">
      <!-- 0.2 -->
      <g transform="translate(20.878125 312.455036) scale(0.1 -0.1)">
       <use xlink:href="#DejaVuSans-30"/>
       <use xlink:href="#DejaVuSans-2e" transform="translate(63.623047 0)"/>
       <use xlink:href="#DejaVuSans-32" transform="translate(95.410156 0)"/>
      </g>
     </g>
    </g>
    <g id="ytick_3">
     <g id="line2d_23">
      <path d="M 43.78125 238.817356 
L 796.30525 238.817356 
" clip-path="url(#p4077c9e330)" style="fill: none; stroke: #b0b0b0; stroke-opacity: 0.3; stroke-width: 0.8; stroke-linecap: square"/>
     </g>
     <g id="line2d_24">
      <g>
       <use xlink:href="#mbfbd0b4f3a" x="43.78125" y="238.817356" style="stroke: #000000; stroke-width: 0.8"/>
      </g>
     </g>
     <g id="text_13">
      <!-- 0.4 -->
      <g transform="translate(20.878125 242.616575) scale(0.1 -0.1)">
       <use xlink:href="#DejaVuSans-30"/>
       <use xlink:href="#DejaVuSans-2e" transform="translate(63.623047 0)"/>
       <use xlink:href="#DejaVuSans-34" transform="translate(95.410156 0)"/>
      </g>
     </g>
    </g>
    <g id="ytick_4">
     <g id="line2d_25">
      <path d="M 43.78125 168.978894 
L 796.30525 168.978894 
" clip-path="url(#p4077c9e330)" style="fill: none; stroke: #b0b0b0; stroke-opacity: 0.3; stroke-width: 0.8; stroke-linecap: square"/>
     </g>
     <g id="line2d_26">
      <g>
       <use xlink:href="#mbfbd0b4f3a" x="43.78125" y="168.978894" style="stroke: #000000; stroke-width: 0.8"/>
      </g>
     </g>
     <g id="text_14">
      <!-- 0.6 -->
      <g transform="translate(20.878125 172.778113) scale(0.1 -0.1)">
       <use xlink:href="#DejaVuSans-30"/>
       <use xlink:href="#DejaVuSans-2e" transform="translate(63.623047 0)"/>
       <use xlink:href="#DejaVuSans-36" transform="translate(95.410156 0)"/>
      </g>
     </g>
    </g>
    <g id="ytick_5">
     <g id="line2d_27">
      <path d="M 43.78125 99.140433 
L 796.30525 99.140433 
" clip-path="url(#p4077c9e330)" style="fill: none; stroke: #b0b0b0; stroke-opacity: 0.3; stroke-width: 0.8; stroke-linecap: square"/>
     </g>
     <g id="line2d_28">
      <g>
       <use xlink:href="#mbfbd0b4f3a" x="43.78125" y="99.140433" style="stroke: #000000; stroke-width: 0.8"/>
      </g>
     </g>
     <g id="text_15">
      <!-- 0.8 -->
      <g transform="translate(20.878125 102.939651) scale(0.1 -0.1)">
       <use xlink:href="#DejaVuSans-30"/>
       <use xlink:href="#DejaVuSans-2e" transform="translate(63.623047 0)"/>
       <use xlink:href="#DejaVuSans-38" transform="translate(95.410156 0)"/>
      </g>
     </g>
    </g>
    <g id="ytick_6">
     <g id="line2d_29">
      <path d="M 43.78125 29.301971 
L 796.30525 29.301971 
" clip-path="url(#p4077c9e330)" style="fill: none; stroke: #b0b0b0; stroke-opacity: 0.3; stroke-width: 0.8; stroke-linecap: square"/>
     </g>
     <g id="line2d_30">
      <g>
       <use xlink:href="#mbfbd0b4f3a" x="43.78125" y="29.301971" style="stroke: #000000; stroke-width: 0.8"/>
      </g>
     </g>
     <g id="text_16">
      <!-- 1.0 -->
      <g transform="translate(20.878125 33.10119) scale(0.1 -0.1)">
       <use xlink:href="#DejaVuSans-31"/>
       <use xlink:href="#DejaVuSans-2e" transform="translate(63.623047 0)"/>
       <use xlink:href="#DejaVuSans-30" transform="translate(95.410156 0)"/>
      </g>
     </g>
    </g>
    <g id="text_17">
     <!-- Mole fraction [-] -->
     <g transform="translate(14.798438 243.827031) rotate(-90) scale(0.1 -0.1)">
      <defs>
       <path id="DejaVuSans-4d" d="M 628 4666 
L 1569 4666 
L 2759 1491 
L 3956 4666 
L 4897 4666 
L 4897 0 
L 4281 0 
L 4281 4097 
L 3078 897 
L 2444 897 
L 1241 4097 
L 1241 0 
L 628 0 
L 628 4666 
z
" transform="scale(0.015625)"/>
       <path id="DejaVuSans-6f" d="M 1959 3097 
Q 1497 3097 1228 2736 
Q 959 2375 959 1747 
Q 959 1119 1226 758 
Q 1494 397 1959 397 
Q 2419 397 2687 759 
Q 2956 1122 2956 1747 
Q 2956 2369 2687 2733 
Q 2419 3097 1959 3097 
z
M 1959 3584 
Q 2709 3584 3137 3096 
Q 3566 2609 3566 1747 
Q 3566 888 3137 398 
Q 2709 -91 1959 -91 
Q 1206 -91 779 398 
Q 353 888 353 1747 
Q 353 2609 779 3096 
Q 1206 3584 1959 3584 
z
" transform="scale(0.015625)"/>
       <path id="DejaVuSans-6c" d="M 603 4863 
L 1178 4863 
L 1178 0 
L 603 0 
L 603 4863 
z
" transform="scale(0.015625)"/>
       <path id="DejaVuSans-66" d="M 2375 4863 
L 2375 4384 
L 1825 4384 
Q 1516 4384 1395 4259 
Q 1275 4134 1275 3809 
L 1275 3500 
L 2222 3500 
L 2222 3053 
L 1275 3053 
L 1275 0 
L 697 0 
L 697 3053 
L 147 3053 
L 147 3500 
L 697 3500 
L 697 3744 
Q 697 4328 969 4595 
Q 1241 4863 1831 4863 
L 2375 4863 
z
" transform="scale(0.015625)"/>
       <path id="DejaVuSans-72" d="M 2631 2963 
Q 2534 3019 2420 3045 
Q 2306 3072 2169 3072 
Q 1681 3072 1420 2755 
Q 1159 2438 1159 1844 
L 1159 0 
L 581 0 
L 581 3500 
L 1159 3500 
L 1159 2956 
Q 1341 3275 1631 3429 
Q 1922 3584 2338 3584 
Q 2397 3584 2469 3576 
Q 2541 3569 2628 3553 
L 2631 2963 
z
" transform="scale(0.015625)"/>
       <path id="DejaVuSans-61" d="M 2194 1759 
Q 1497 1759 1228 1600 
Q 959 1441 959 1056 
Q 959 750 1161 570 
Q 1363 391 1709 391 
Q 2188 391 2477 730 
Q 2766 1069 2766 1631 
L 2766 1759 
L 2194 1759 
z
M 3341 1997 
L 3341 0 
L 2766 0 
L 2766 531 
Q 2569 213 2275 61 
Q 1981 -91 1556 -91 
Q 1019 -91 701 211 
Q 384 513 384 1019 
Q 384 1609 779 1909 
Q 1175 2209 1959 2209 
L 2766 2209 
L 2766 2266 
Q 2766 2663 2505 2880 
Q 2244 3097 1772 3097 
Q 1472 3097 1187 3025 
Q 903 2953 641 2809 
L 641 3341 
Q 956 3463 1253 3523 
Q 1550 3584 1831 3584 
Q 2591 3584 2966 3190 
Q 3341 2797 3341 1997 
z
" transform="scale(0.015625)"/>
       <path id="DejaVuSans-63" d="M 3122 3366 
L 3122 2828 
Q 2878 2963 2633 3030 
Q 2388 3097 2138 3097 
Q 1578 3097 1268 2742 
Q 959 2388 959 1747 
Q 959 1106 1268 751 
Q 1578 397 2138 397 
Q 2388 397 2633 464 
Q 2878 531 3122 666 
L 3122 134 
Q 2881 22 2623 -34 
Q 2366 -91 2075 -91 
Q 1284 -91 818 406 
Q 353 903 353 1747 
Q 353 2603 823 3093 
Q 1294 3584 2113 3584 
Q 2378 3584 2631 3529 
Q 2884 3475 3122 3366 
z
" transform="scale(0.015625)"/>
       <path id="DejaVuSans-74" d="M 1172 4494 
L 1172 3500 
L 2356 3500 
L 2356 3053 
L 1172 3053 
L 1172 1153 
Q 1172 725 1289 603 
Q 1406 481 1766 481 
L 2356 481 
L 2356 0 
L 1766 0 
Q 1100 0 847 248 
Q 594 497 594 1153 
L 594 3053 
L 172 3053 
L 172 3500 
L 594 3500 
L 594 4494 
L 1172 4494 
z
" transform="scale(0.015625)"/>
       <path id="DejaVuSans-6e" d="M 3513 2113 
L 3513 0 
L 2938 0 
L 2938 2094 
Q 2938 2591 2744 2837 
Q 2550 3084 2163 3084 
Q 1697 3084 1428 2787 
Q 1159 2491 1159 1978 
L 1159 0 
L 581 0 
L 581 3500 
L 1159 3500 
L 1159 2956 
Q 1366 3272 1645 3428 
Q 1925 3584 2291 3584 
Q 2894 3584 3203 3211 
Q 3513 2838 3513 2113 
z
" transform="scale(0.015625)"/>
       <path id="DejaVuSans-2d" d="M 313 2009 
L 1997 2009 
L 1997 1497 
L 313 1497 
L 313 2009 
z
" transform="scale(0.015625)"/>
      </defs>
      <use xlink:href="#DejaVuSans-4d"/>
      <use xlink:href="#DejaVuSans-6f" transform="translate(86.279297 0)"/>
      <use xlink:href="#DejaVuSans-6c" transform="translate(147.460938 0)"/>
      <use xlink:href="#DejaVuSans-65" transform="translate(175.244141 0)"/>
      <use xlink:href="#DejaVuSans-20" transform="translate(236.767578 0)"/>
      <use xlink:href="#DejaVuSans-66" transform="translate(268.554688 0)"/>
      <use xlink:href="#DejaVuSans-72" transform="translate(303.759766 0)"/>
      <use xlink:href="#DejaVuSans-61" transform="translate(344.873047 0)"/>
      <use xlink:href="#DejaVuSans-63" transform="translate(406.152344 0)"/>
      <use xlink:href="#DejaVuSans-74" transform="translate(461.132812 0)"/>
      <use xlink:href="#DejaVuSans-69" transform="translate(500.341797 0)"/>
      <use xlink:href="#DejaVuSans-6f" transform="translate(528.125 0)"/>
      <use xlink:href="#DejaVuSans-6e" transform="translate(589.306641 0)"/>
      <use xlink:href="#DejaVuSans-20" transform="translate(652.685547 0)"/>
      <use xlink:href="#DejaVuSans-5b" transform="translate(684.472656 0)"/>
      <use xlink:href="#DejaVuSans-2d" transform="translate(723.486328 0)"/>
      <use xlink:href="#DejaVuSans-5d" transform="translate(759.570312 0)"/>
     </g>
    </g>
   </g>
   <g id="line2d_31">
    <path d="M 43.78125 378.494279 
L 129.663051 378.386146 
L 131.450296 378.14997 
L 132.579082 377.800786 
L 133.519737 377.288723 
L 134.366327 376.556388 
L 135.118851 375.597613 
L 135.871375 374.27878 
L 136.812029 372.117191 
L 138.599274 367.208311 
L 139.916191 363.919117 
L 141.044977 361.659123 
L 142.173763 359.885936 
L 143.396614 358.397693 
L 144.713532 357.16344 
L 146.124514 356.141733 
L 147.817693 355.199851 
L 149.793069 354.366867 
L 152.144706 353.622822 
L 155.060736 352.94286 
L 158.729291 352.328291 
L 163.432566 351.780563 
L 169.546824 351.306101 
L 177.730522 350.907849 
L 189.112448 350.592037 
L 205.856106 350.367867 
L 232.664774 350.143941 
L 232.852905 349.793022 
L 233.135101 348.670769 
L 233.605429 345.548684 
L 234.357953 340.671431 
L 235.110477 337.275986 
L 235.957066 334.533463 
L 236.897721 332.278785 
L 237.932442 330.386815 
L 239.061228 328.770548 
L 240.378145 327.27303 
L 241.883193 325.905667 
L 243.576372 324.666595 
L 245.551748 323.498068 
L 247.903385 322.377377 
L 250.631284 321.333969 
L 253.829511 320.355325 
L 257.592131 319.439778 
L 262.107276 318.574709 
L 267.563075 317.763344 
L 274.14766 317.015433 
L 282.237293 316.327563 
L 292.302301 315.703707 
L 305.001144 315.14924 
L 321.274475 314.670998 
L 328.141256 314.608685 
L 328.423453 314.849476 
L 328.705649 315.357759 
L 329.081911 316.521861 
L 329.646304 319.165675 
L 330.586959 325.007416 
L 331.62168 331.060279 
L 332.468269 334.69498 
L 333.220794 337.004843 
L 334.067383 338.863493 
L 334.913972 340.205235 
L 335.948693 341.409626 
L 337.171544 342.461643 
L 338.582527 343.377289 
L 340.369772 344.255987 
L 342.533278 345.054184 
L 345.167112 345.778203 
L 348.459405 346.4449 
L 352.692352 347.065772 
L 358.242216 347.643524 
L 365.673391 348.18064 
L 375.832465 348.677717 
L 390.036356 349.134787 
L 410.354503 349.550644 
L 439.138546 349.90484 
L 475.635961 350.125666 
L 516.648519 350.167418 
L 516.83665 349.959688 
L 517.118846 349.076386 
L 517.495108 346.87921 
L 518.529829 340.12354 
L 519.282353 336.865637 
L 520.128942 334.215212 
L 521.069597 332.02309 
L 522.104317 330.175348 
L 523.233103 328.591773 
L 524.55002 327.121098 
L 526.055069 325.775917 
L 527.748248 324.555489 
L 529.723623 323.403494 
L 532.075261 322.297964 
L 534.80316 321.268149 
L 538.001387 320.301807 
L 541.858073 319.377233 
L 546.467282 318.510769 
L 552.017146 317.703147 
L 558.789863 316.952923 
L 567.067626 316.269073 
L 577.320766 315.652998 
L 590.301805 315.104869 
L 607.045464 314.631477 
L 612.219066 314.60849 
L 612.501263 314.84931 
L 612.783459 315.357598 
L 613.159721 316.521614 
L 613.724114 319.165401 
L 614.66477 325.007173 
L 615.69949 331.060049 
L 616.54608 334.694784 
L 617.298604 337.004623 
L 618.145193 338.863338 
L 618.991782 340.204962 
L 620.026503 341.409441 
L 621.249354 342.461592 
L 622.660337 343.377309 
L 624.447581 344.255933 
L 626.611088 345.054189 
L 629.244922 345.778241 
L 632.537215 346.444909 
L 636.770162 347.065703 
L 642.320026 347.643528 
L 649.751201 348.180666 
L 659.910275 348.677714 
L 674.114166 349.134788 
L 694.432313 349.550625 
L 723.122291 349.903987 
L 759.619705 350.125341 
L 796.30525 350.192667 
L 796.30525 350.192667 
" clip-path="url(#p4077c9e330)" style="fill: none; stroke: #1f77b4; stroke-width: 2; stroke-linecap: square"/>
   </g>
   <g id="line2d_32">
    <path d="M 43.78125 378.494279 
L 53.469997 378.462194 
L 53.658128 377.802689 
L 56.103831 363.775216 
L 57.891075 355.098347 
L 59.67832 347.49191 
L 61.55963 340.438193 
L 62.876547 336.080321 
L 63.158743 335.999316 
L 109.721166 336.083009 
L 115.176964 336.309725 
L 118.657388 336.667431 
L 121.291222 337.152981 
L 123.548794 337.786733 
L 125.806366 338.660079 
L 129.568986 340.157673 
L 130.415576 340.183666 
L 131.1681 339.966686 
L 131.920624 339.497194 
L 132.579082 338.829815 
L 133.23754 337.824734 
L 133.895999 336.381113 
L 134.742589 333.90698 
L 136.153571 329.66962 
L 136.812029 328.406489 
L 137.282357 327.8958 
L 137.752685 327.679658 
L 138.223012 327.699543 
L 138.881471 327.999271 
L 139.916191 328.784116 
L 142.361894 330.688678 
L 143.961007 331.623118 
L 145.748252 332.408731 
L 147.911758 333.10538 
L 150.545592 333.711842 
L 153.93195 334.254625 
L 158.447094 334.738783 
L 164.561352 335.155673 
L 173.121312 335.501868 
L 185.72609 335.771766 
L 205.667975 335.954633 
L 232.758839 336.147439 
L 233.041036 336.587777 
L 233.417298 337.716492 
L 234.640149 341.983063 
L 235.486739 343.944359 
L 236.427394 345.530454 
L 237.462114 346.83901 
L 238.684966 348.022086 
L 240.095948 349.07777 
L 241.789128 350.064217 
L 243.858568 351.001432 
L 246.398337 351.890735 
L 249.502499 352.725627 
L 253.265118 353.497955 
L 257.968393 354.226225 
L 263.800455 354.896246 
L 271.231629 355.515936 
L 280.732244 356.074448 
L 293.14889 356.570068 
L 309.704418 356.996164 
L 328.047191 357.26378 
L 328.423453 357.086317 
L 328.799715 356.613598 
L 329.270042 355.549021 
L 329.928501 353.363863 
L 331.715745 346.916755 
L 332.468269 345.090182 
L 333.220794 343.782722 
L 334.067383 342.740708 
L 335.102103 341.848883 
L 336.324955 341.104397 
L 337.924068 340.405391 
L 339.99351 339.755915 
L 342.721409 339.150654 
L 346.295898 338.603163 
L 351.093238 338.107731 
L 357.771889 337.655656 
L 367.36657 337.24364 
L 381.664526 336.869228 
L 403.769918 336.532623 
L 438.197891 336.248063 
L 485.230641 336.088322 
L 516.742584 336.109869 
L 517.024781 336.429152 
L 517.401043 337.411429 
L 519.000156 342.747443 
L 519.846745 344.510919 
L 520.7874 345.963138 
L 521.916186 347.276132 
L 523.233103 348.441789 
L 524.738151 349.470389 
L 526.525396 350.422135 
L 528.688903 351.3197 
L 531.322737 352.167284 
L 534.615029 352.98136 
L 538.659845 353.74087 
L 543.645317 354.4436 
L 549.947705 355.098731 
L 557.943273 355.69696 
L 568.290478 356.237139 
L 581.83591 356.710683 
L 600.084617 357.114153 
L 612.219066 357.2388 
L 612.595328 357.001164 
L 612.97159 356.440408 
L 613.441918 355.280914 
L 614.100376 353.006771 
L 615.69949 347.188675 
L 616.452014 345.287007 
L 617.204538 343.92337 
L 618.051128 342.839706 
L 618.991782 341.988779 
L 620.214634 341.20402 
L 621.719682 340.513058 
L 623.695057 339.858746 
L 626.234826 339.259024 
L 629.621184 338.70205 
L 634.136328 338.198626 
L 640.438716 337.735814 
L 649.469004 337.313731 
L 662.73224 336.933284 
L 683.144453 336.589621 
L 715.126724 336.292356 
L 760.090033 336.104868 
L 796.30525 336.064079 
L 796.30525 336.064079 
" clip-path="url(#p4077c9e330)" style="fill: none; stroke: #2ca02c; stroke-width: 2; stroke-linecap: square"/>
   </g>
   <g id="line2d_33">
    <path d="M 43.78125 378.494279 
L 53.469997 378.46988 
L 53.658128 377.96809 
L 56.103831 367.295428 
L 57.891075 360.693719 
L 59.772385 354.621577 
L 61.653695 349.288485 
L 62.876547 346.224045 
L 63.158743 346.162413 
L 111.50841 346.031676 
L 116.211685 345.770329 
L 119.409912 345.378988 
L 121.94968 344.847827 
L 124.113187 344.178776 
L 126.747021 343.102567 
L 129.286789 342.113882 
L 130.133379 342.041026 
L 130.885903 342.22239 
L 131.544362 342.604733 
L 132.20282 343.231377 
L 132.861278 344.183645 
L 133.519737 345.587108 
L 134.178196 347.537873 
L 135.118851 351.127156 
L 136.529833 356.534976 
L 137.282357 358.622197 
L 138.034881 360.04935 
L 138.69334 360.866724 
L 139.445864 361.460255 
L 140.292453 361.854621 
L 141.421239 362.132759 
L 143.208483 362.313772 
L 146.688907 362.390923 
L 161.269059 362.341114 
L 210.747512 362.276539 
L 233.041036 362.358033 
L 234.169822 362.611572 
L 235.580804 362.520082 
L 240.566276 362.161214 
L 247.903385 361.905027 
L 261.354752 361.687128 
L 287.50496 361.517025 
L 328.611584 361.462147 
L 329.74037 361.709518 
L 331.339483 362.054442 
L 332.844532 362.095132 
L 340.181641 362.066317 
L 369.906339 362.189504 
L 462.466791 362.263831 
L 517.212912 362.385495 
L 518.153567 362.605293 
L 519.376418 362.542885 
L 524.832217 362.148454 
L 532.263392 361.895764 
L 545.996955 361.68006 
L 572.899688 361.511835 
L 612.783459 361.474368 
L 614.006311 361.762431 
L 615.417294 362.054437 
L 616.922342 362.095112 
L 624.25945 362.066314 
L 653.984148 362.189503 
L 746.544601 362.263831 
L 796.30525 362.269905 
L 796.30525 362.269905 
" clip-path="url(#p4077c9e330)" style="fill: none; stroke: #9467bd; stroke-width: 2; stroke-linecap: square"/>
   </g>
   <g id="line2d_34">
    <path d="M 43.78125 378.494279 
L 53.375931 378.492356 
L 53.469997 378.366326 
L 53.658128 375.735495 
L 56.103831 319.779252 
L 57.79701 286.874701 
L 59.584254 256.327652 
L 61.465564 228.011877 
L 62.876547 209.303027 
L 63.064678 208.982438 
L 67.20356 208.97968 
L 110.755886 208.871103 
L 115.741357 208.626902 
L 119.03365 208.256162 
L 121.573419 207.760198 
L 123.830991 207.101104 
L 126.464824 206.069823 
L 128.910528 205.179364 
L 129.757117 205.113765 
L 130.415576 205.287565 
L 131.074034 205.725874 
L 131.732493 206.485051 
L 132.390951 207.652696 
L 132.955344 209.092945 
L 133.613802 211.465677 
L 134.272261 214.753096 
L 135.024785 219.667525 
L 136.153571 228.702388 
L 138.599274 248.577498 
L 139.72806 255.758672 
L 140.76278 260.948058 
L 141.797501 265.008359 
L 142.832222 268.192357 
L 143.961007 270.923372 
L 145.089794 273.08634 
L 146.312645 274.962423 
L 147.629562 276.585973 
L 149.13461 278.075196 
L 150.733723 279.346147 
L 152.520968 280.490781 
L 154.590409 281.551936 
L 157.036112 282.543858 
L 159.858077 283.437993 
L 163.15037 284.243208 
L 167.101121 284.975865 
L 171.898461 285.632644 
L 177.824588 286.210838 
L 185.255762 286.702969 
L 194.850443 287.104494 
L 207.737416 287.408445 
L 226.550516 287.611007 
L 232.570708 287.709676 
L 232.758839 288.188613 
L 233.041036 290.214021 
L 233.417298 295.20702 
L 234.452018 310.266992 
L 235.204543 317.417713 
L 236.051132 323.202773 
L 236.991787 327.972728 
L 238.026507 331.986229 
L 239.155293 335.4224 
L 240.378145 338.406582 
L 241.695062 341.028041 
L 243.106044 343.352394 
L 244.705158 345.547531 
L 246.398337 347.495954 
L 248.279647 349.322406 
L 250.349088 351.020357 
L 252.60666 352.589316 
L 255.146428 354.083835 
L 257.968393 355.486345 
L 261.166621 356.823885 
L 264.741109 358.075817 
L 268.785926 359.256372 
L 273.489201 360.38981 
L 278.850934 361.445716 
L 285.059258 362.434082 
L 292.302301 363.353307 
L 300.768196 364.19585 
L 310.739139 364.959016 
L 322.685457 365.644234 
L 327.953125 365.846895 
L 328.235322 365.583782 
L 328.517518 364.898404 
L 328.799715 363.575668 
L 329.270042 359.919831 
L 329.834435 353.541986 
L 332.186073 324.28334 
L 332.938597 318.507677 
L 333.691121 314.302766 
L 334.537711 310.868364 
L 335.3843 308.332468 
L 336.324955 306.185639 
L 337.359675 304.346401 
L 338.582527 302.630447 
L 339.899444 301.15519 
L 341.404492 299.797153 
L 343.097671 298.566021 
L 345.073046 297.41121 
L 347.330619 296.354294 
L 349.964452 295.36963 
L 353.068614 294.448648 
L 356.831234 293.569833 
L 361.440444 292.732026 
L 367.084373 291.942333 
L 374.04522 291.200655 
L 382.793312 290.499779 
L 393.987106 289.836155 
L 408.379128 289.216287 
L 426.815966 288.654314 
L 449.203555 288.2001 
L 474.883436 287.905798 
L 508.370754 287.761748 
L 516.648519 287.814759 
L 516.83665 288.291097 
L 517.118846 290.312177 
L 517.495108 295.304118 
L 518.529829 310.386135 
L 519.282353 317.546443 
L 520.128942 323.336203 
L 521.069597 328.107173 
L 522.104317 332.118929 
L 523.233103 335.551276 
L 524.455955 338.53007 
L 525.772872 341.144986 
L 527.183855 343.461977 
L 528.782968 345.648726 
L 530.476147 347.588502 
L 532.357457 349.405835 
L 534.426898 351.09448 
L 536.68447 352.654218 
L 539.224238 354.139518 
L 542.046204 355.533138 
L 545.244431 356.86216 
L 548.818919 358.106274 
L 552.957801 359.304616 
L 557.661077 360.427373 
L 563.02281 361.474318 
L 569.231133 362.455296 
L 576.474176 363.368653 
L 584.940071 364.206719 
L 595.00508 364.972828 
L 607.045464 365.658607 
L 612.030935 365.847342 
L 612.313132 365.584135 
L 612.595328 364.898775 
L 612.877525 363.576181 
L 613.347852 359.920452 
L 613.912245 353.542564 
L 616.263883 324.28367 
L 617.016407 318.508163 
L 617.768931 314.303245 
L 618.615521 310.868734 
L 619.46211 308.332891 
L 620.402765 306.185919 
L 621.437485 304.346501 
L 622.660337 302.630398 
L 623.977254 301.155169 
L 625.482302 299.797289 
L 627.175481 298.565902 
L 629.150857 297.411135 
L 631.408429 296.354181 
L 634.042262 295.369773 
L 637.146424 294.448796 
L 640.909044 293.569837 
L 645.518254 292.731959 
L 651.162183 291.942298 
L 658.123031 291.200627 
L 666.871122 290.499786 
L 678.064916 289.836187 
L 692.456938 289.216309 
L 710.79971 288.656681 
L 733.093234 288.203078 
L 758.867181 287.906519 
L 792.260433 287.76212 
L 796.30525 287.755067 
L 796.30525 287.755067 
" clip-path="url(#p4077c9e330)" style="fill: none; stroke: #e377c2; stroke-width: 2; stroke-linecap: square"/>
   </g>
   <g id="line2d_35">
    <path d="M 43.78125 378.494279 
L 53.469997 378.45278 
L 53.658128 377.599726 
L 56.103831 359.455564 
L 57.891075 348.232265 
L 59.67832 338.393542 
L 61.55963 329.269747 
L 62.876547 323.632956 
L 63.064678 323.529003 
L 75.76352 323.528108 
L 110.755886 323.636686 
L 115.741357 323.880891 
L 119.03365 324.251674 
L 121.573419 324.74788 
L 123.830991 325.408124 
L 126.370759 326.407551 
L 129.004593 327.397759 
L 129.851182 327.470588 
L 130.509641 327.309233 
L 131.1681 326.89996 
L 131.826558 326.195584 
L 132.485017 325.114875 
L 133.143475 323.513759 
L 133.801933 321.212639 
L 134.554458 317.582778 
L 135.495113 311.755994 
L 138.317078 293.4838 
L 139.351798 288.421467 
L 140.386518 284.43246 
L 141.421239 281.344249 
L 142.45596 278.949134 
L 143.584745 276.917827 
L 144.713532 275.326047 
L 146.030449 273.865486 
L 147.441431 272.637712 
L 149.040545 271.542945 
L 150.921854 270.537401 
L 153.085361 269.642339 
L 155.62513 268.835611 
L 158.729291 268.090781 
L 162.491911 267.423437 
L 167.195186 266.823546 
L 173.121312 266.300209 
L 180.834683 265.853421 
L 191.087823 265.494108 
L 205.479844 265.227297 
L 227.679303 265.060007 
L 232.570708 264.996904 
L 232.758839 264.667152 
L 233.041036 263.273987 
L 233.417298 259.850658 
L 234.357953 250.345102 
L 235.110477 245.299845 
L 235.863001 241.652718 
L 236.70959 238.553377 
L 237.650245 235.892633 
L 238.684966 233.583152 
L 239.907817 231.4074 
L 241.224734 229.520275 
L 242.729782 227.763908 
L 244.422961 226.147507 
L 246.304271 224.670383 
L 248.373712 223.325975 
L 250.72535 222.059195 
L 253.453249 220.845389 
L 256.557411 219.709653 
L 260.1319 218.639241 
L 264.364847 217.611606 
L 269.256254 216.658855 
L 274.994249 215.771351 
L 281.861031 214.940832 
L 290.044729 214.181109 
L 300.015672 213.486747 
L 312.244187 212.866923 
L 327.764995 212.311865 
L 328.141256 212.433077 
L 328.423453 212.779501 
L 328.705649 213.511324 
L 329.081911 215.189897 
L 329.646304 219.014262 
L 330.586959 227.527947 
L 331.715745 237.15418 
L 332.562335 242.389208 
L 333.314859 245.731289 
L 334.067383 248.177212 
L 334.913972 250.204449 
L 335.854627 251.875847 
L 336.889348 253.271601 
L 338.112199 254.546593 
L 339.523182 255.693956 
L 341.216361 256.769133 
L 343.191736 257.744342 
L 345.543374 258.643014 
L 348.365339 259.471425 
L 351.845762 260.24809 
L 356.172776 260.972566 
L 361.628575 261.649133 
L 368.589422 262.279411 
L 377.713775 262.871694 
L 389.848225 263.424205 
L 406.215621 263.934585 
L 428.321014 264.390651 
L 456.258467 264.73847 
L 489.933917 264.926602 
L 516.648519 264.926501 
L 516.83665 264.598543 
L 517.118846 263.208392 
L 517.495108 259.785863 
L 518.435763 250.266607 
L 519.188287 245.214324 
L 519.940811 241.563921 
L 520.7874 238.463456 
L 521.728055 235.803315 
L 522.762776 233.49581 
L 523.985627 231.323398 
L 525.302544 229.440513 
L 526.807593 227.68935 
L 528.500772 226.078901 
L 530.382082 224.608229 
L 532.451523 223.270528 
L 534.80316 222.010746 
L 537.531059 220.804175 
L 540.635221 219.675541 
L 544.303776 218.586725 
L 548.536723 217.570443 
L 553.522194 216.611257 
L 559.354256 215.722622 
L 566.315102 214.894694 
L 574.686932 214.13228 
L 584.75194 213.44595 
L 597.168586 212.830361 
L 611.93687 212.3196 
L 612.219066 212.432798 
L 612.501263 212.779262 
L 612.783459 213.511092 
L 613.159721 215.189544 
L 613.724114 219.013868 
L 614.66477 227.527594 
L 615.793556 237.15385 
L 616.640145 242.388933 
L 617.392669 245.730962 
L 618.145193 248.176982 
L 618.991782 250.204041 
L 619.932437 251.875587 
L 620.967158 253.271493 
L 622.190009 254.54658 
L 623.600992 255.693995 
L 625.294171 256.769027 
L 627.269546 257.74443 
L 629.621184 258.643083 
L 632.443149 259.471455 
L 635.923572 260.247991 
L 640.250585 260.972555 
L 645.706385 261.649179 
L 652.667231 262.279421 
L 661.791585 262.871709 
L 673.926035 263.424212 
L 690.293431 263.934586 
L 712.398824 264.390654 
L 740.336277 264.738469 
L 774.105792 264.926873 
L 796.30525 264.968159 
L 796.30525 264.968159 
" clip-path="url(#p4077c9e330)" style="fill: none; stroke: #bcbd22; stroke-width: 2; stroke-linecap: square"/>
   </g>
   <g id="line2d_36">
    <path d="M 43.78125 29.301971 
L 53.375931 29.305419 
L 53.469997 29.527907 
L 53.658128 34.173086 
L 56.103831 132.973628 
L 57.79701 191.07237 
L 59.584254 245.008531 
L 61.465564 295.00499 
L 62.876547 328.038738 
L 63.064678 328.604794 
L 65.416315 328.609663 
L 131.638427 328.498836 
L 133.613802 328.246181 
L 134.93072 327.859594 
L 136.059506 327.29407 
L 137.376422 326.357794 
L 140.198387 324.269647 
L 141.703436 323.488942 
L 143.396614 322.867782 
L 145.466056 322.350259 
L 148.288021 321.891166 
L 152.144706 321.503533 
L 157.882701 321.169045 
L 166.724859 320.896987 
L 181.399077 320.692321 
L 208.584006 320.567375 
L 232.852905 320.409304 
L 233.229167 319.93968 
L 235.016412 316.937196 
L 235.957066 316.04943 
L 237.085852 315.296133 
L 238.590901 314.582387 
L 240.47221 313.947931 
L 243.011979 313.340179 
L 246.398337 312.772972 
L 251.007546 312.241822 
L 257.309935 311.754557 
L 266.058026 311.316046 
L 278.474672 310.931829 
L 296.629314 310.608767 
L 324.566767 310.353048 
L 328.423453 310.425434 
L 328.89378 310.718005 
L 329.458173 311.376352 
L 330.304763 312.805985 
L 331.715745 315.190157 
L 332.562335 316.190181 
L 333.50299 316.953346 
L 334.631776 317.554746 
L 336.042758 318.040539 
L 338.112199 318.496711 
L 341.122296 318.914288 
L 345.543374 319.287194 
L 352.31609 319.616541 
L 363.321753 319.906064 
L 382.228919 320.156517 
L 417.127219 320.369285 
L 479.022318 320.507483 
L 516.83665 320.456923 
L 517.118846 320.204551 
L 517.589174 319.382781 
L 518.529829 317.646595 
L 519.376418 316.619217 
L 520.411138 315.751623 
L 521.63399 315.027807 
L 523.233103 314.351805 
L 525.302544 313.728914 
L 528.030444 313.147111 
L 531.793064 312.587992 
L 536.872601 312.073717 
L 543.833448 311.605373 
L 553.61626 311.184498 
L 567.632019 310.819712 
L 588.514561 310.516691 
L 612.313132 310.372981 
L 612.783459 310.570612 
L 613.253787 311.009084 
L 613.912245 311.965882 
L 616.263883 315.788035 
L 617.110473 316.609873 
L 618.145193 317.286538 
L 619.368044 317.807644 
L 621.061223 318.273762 
L 623.506926 318.704077 
L 627.175481 319.105118 
L 632.63128 319.45734 
L 641.19124 319.766047 
L 655.489196 320.035762 
L 680.980947 320.267893 
L 728.860287 320.455074 
L 796.30525 320.523489 
L 796.30525 320.523489 
" clip-path="url(#p4077c9e330)" style="fill: none; stroke: #17becf; stroke-width: 2; stroke-linecap: square"/>
   </g>
   <g id="patch_3">
    <path d="M 43.78125 385.478125 
L 43.78125 22.318125 
" style="fill: none; stroke: #000000; stroke-width: 0.8; stroke-linejoin: miter; stroke-linecap: square"/>
   </g>
   <g id="patch_4">
    <path d="M 796.30525 385.478125 
L 796.30525 22.318125 
" style="fill: none; stroke: #000000; stroke-width: 0.8; stroke-linejoin: miter; stroke-linecap: square"/>
   </g>
   <g id="patch_5">
    <path d="M 43.78125 385.478125 
L 796.30525 385.478125 
" style="fill: none; stroke: #000000; stroke-width: 0.8; stroke-linejoin: miter; stroke-linecap: square"/>
   </g>
   <g id="patch_6">
    <path d="M 43.78125 22.318125 
L 796.30525 22.318125 
" style="fill: none; stroke: #000000; stroke-width: 0.8; stroke-linejoin: miter; stroke-linecap: square"/>
   </g>
   <g id="text_18">
    <!-- Outlet Composition vs Time -->
    <g transform="translate(336.90575 16.318125) scale(0.12 -0.12)">
     <defs>
      <path id="DejaVuSans-4f" d="M 2522 4238 
Q 1834 4238 1429 3725 
Q 1025 3213 1025 2328 
Q 1025 1447 1429 934 
Q 1834 422 2522 422 
Q 3209 422 3611 934 
Q 4013 1447 4013 2328 
Q 4013 3213 3611 3725 
Q 3209 4238 2522 4238 
z
M 2522 4750 
Q 3503 4750 4090 4092 
Q 4678 3434 4678 2328 
Q 4678 1225 4090 567 
Q 3503 -91 2522 -91 
Q 1538 -91 948 565 
Q 359 1222 359 2328 
Q 359 3434 948 4092 
Q 1538 4750 2522 4750 
z
" transform="scale(0.015625)"/>
      <path id="DejaVuSans-75" d="M 544 1381 
L 544 3500 
L 1119 3500 
L 1119 1403 
Q 1119 906 1312 657 
Q 1506 409 1894 409 
Q 2359 409 2629 706 
Q 2900 1003 2900 1516 
L 2900 3500 
L 3475 3500 
L 3475 0 
L 2900 0 
L 2900 538 
Q 2691 219 2414 64 
Q 2138 -91 1772 -91 
Q 1169 -91 856 284 
Q 544 659 544 1381 
z
M 1991 3584 
L 1991 3584 
z
" transform="scale(0.015625)"/>
      <path id="DejaVuSans-43" d="M 4122 4306 
L 4122 3641 
Q 3803 3938 3442 4084 
Q 3081 4231 2675 4231 
Q 1875 4231 1450 3742 
Q 1025 3253 1025 2328 
Q 1025 1406 1450 917 
Q 1875 428 2675 428 
Q 3081 428 3442 575 
Q 3803 722 4122 1019 
L 4122 359 
Q 3791 134 3420 21 
Q 3050 -91 2638 -91 
Q 1578 -91 968 557 
Q 359 1206 359 2328 
Q 359 3453 968 4101 
Q 1578 4750 2638 4750 
Q 3056 4750 3426 4639 
Q 3797 4528 4122 4306 
z
" transform="scale(0.015625)"/>
      <path id="DejaVuSans-70" d="M 1159 525 
L 1159 -1331 
L 581 -1331 
L 581 3500 
L 1159 3500 
L 1159 2969 
Q 1341 3281 1617 3432 
Q 1894 3584 2278 3584 
Q 2916 3584 3314 3078 
Q 3713 2572 3713 1747 
Q 3713 922 3314 415 
Q 2916 -91 2278 -91 
Q 1894 -91 1617 61 
Q 1341 213 1159 525 
z
M 3116 1747 
Q 3116 2381 2855 2742 
Q 2594 3103 2138 3103 
Q 1681 3103 1420 2742 
Q 1159 2381 1159 1747 
Q 1159 1113 1420 752 
Q 1681 391 2138 391 
Q 2594 391 2855 752 
Q 3116 1113 3116 1747 
z
" transform="scale(0.015625)"/>
      <path id="DejaVuSans-76" d="M 191 3500 
L 800 3500 
L 1894 563 
L 2988 3500 
L 3597 3500 
L 2284 0 
L 1503 0 
L 191 3500 
z
" transform="scale(0.015625)"/>
     </defs>
     <use xlink:href="#DejaVuSans-4f"/>
     <use xlink:href="#DejaVuSans-75" transform="translate(78.710938 0)"/>
     <use xlink:href="#DejaVuSans-74" transform="translate(142.089844 0)"/>
     <use xlink:href="#DejaVuSans-6c" transform="translate(181.298828 0)"/>
     <use xlink:href="#DejaVuSans-65" transform="translate(209.082031 0)"/>
     <use xlink:href="#DejaVuSans-74" transform="translate(270.605469 0)"/>
     <use xlink:href="#DejaVuSans-20" transform="translate(309.814453 0)"/>
     <use xlink:href="#DejaVuSans-43" transform="translate(341.601562 0)"/>
     <use xlink:href="#DejaVuSans-6f" transform="translate(411.425781 0)"/>
     <use xlink:href="#DejaVuSans-6d" transform="translate(472.607422 0)"/>
     <use xlink:href="#DejaVuSans-70" transform="translate(570.019531 0)"/>
     <use xlink:href="#DejaVuSans-6f" transform="translate(633.496094 0)"/>
     <use xlink:href="#DejaVuSans-73" transform="translate(694.677734 0)"/>
     <use xlink:href="#DejaVuSans-69" transform="translate(746.777344 0)"/>
     <use xlink:href="#DejaVuSans-74" transform="translate(774.560547 0)"/>
     <use xlink:href="#DejaVuSans-69" transform="translate(813.769531 0)"/>
     <use xlink:href="#DejaVuSans-6f" transform="translate(841.552734 0)"/>
     <use xlink:href="#DejaVuSans-6e" transform="translate(902.734375 0)"/>
     <use xlink:href="#DejaVuSans-20" transform="translate(966.113281 0)"/>
     <use xlink:href="#DejaVuSans-76" transform="translate(997.900391 0)"/>
     <use xlink:href="#DejaVuSans-73" transform="translate(1057.080078 0)"/>
     <use xlink:href="#DejaVuSans-20" transform="translate(1109.179688 0)"/>
     <use xlink:href="#DejaVuSans-54" transform="translate(1140.966797 0)"/>
     <use xlink:href="#DejaVuSans-69" transform="translate(1198.925781 0)"/>
     <use xlink:href="#DejaVuSans-6d" transform="translate(1226.708984 0)"/>
     <use xlink:href="#DejaVuSans-65" transform="translate(1324.121094 0)"/>
    </g>
   </g>
   <g id="legend_1">
    <g id="patch_7">
     <path d="M 805.43049 95.173125 
L 848.43424 95.173125 
Q 850.03424 95.173125 850.03424 93.573125 
L 850.03424 23.918125 
Q 850.03424 22.318125 848.43424 22.318125 
L 805.43049 22.318125 
Q 803.83049 22.318125 803.83049 23.918125 
L 803.83049 93.573125 
Q 803.83049 95.173125 805.43049 95.173125 
z
" style="fill: #ffffff; opacity: 0.8; stroke: #cccccc; stroke-linejoin: miter"/>
    </g>
    <g id="line2d_37">
     <path d="M 807.03049 28.796875 
L 815.03049 28.796875 
L 823.03049 28.796875 
" style="fill: none; stroke: #1f77b4; stroke-width: 2; stroke-linecap: square"/>
    </g>
    <g id="text_19">
     <!-- CH4 -->
     <g transform="translate(829.43049 31.596875) scale(0.08 -0.08)">
      <defs>
       <path id="DejaVuSans-48" d="M 628 4666 
L 1259 4666 
L 1259 2753 
L 3553 2753 
L 3553 4666 
L 4184 4666 
L 4184 0 
L 3553 0 
L 3553 2222 
L 1259 2222 
L 1259 0 
L 628 0 
L 628 4666 
z
" transform="scale(0.015625)"/>
      </defs>
      <use xlink:href="#DejaVuSans-43"/>
      <use xlink:href="#DejaVuSans-48" transform="translate(69.824219 0)"/>
      <use xlink:href="#DejaVuSans-34" transform="translate(145.019531 0)"/>
     </g>
    </g>
    <g id="line2d_38">
     <path d="M 807.03049 40.539375 
L 815.03049 40.539375 
L 823.03049 40.539375 
" style="fill: none; stroke: #2ca02c; stroke-width: 2; stroke-linecap: square"/>
    </g>
    <g id="text_20">
     <!-- CO -->
     <g transform="translate(829.43049 43.339375) scale(0.08 -0.08)">
      <use xlink:href="#DejaVuSans-43"/>
      <use xlink:href="#DejaVuSans-4f" transform="translate(69.824219 0)"/>
     </g>
    </g>
    <g id="line2d_39">
     <path d="M 807.03049 52.281875 
L 815.03049 52.281875 
L 823.03049 52.281875 
" style="fill: none; stroke: #9467bd; stroke-width: 2; stroke-linecap: square"/>
    </g>
    <g id="text_21">
     <!-- CO2 -->
     <g transform="translate(829.43049 55.081875) scale(0.08 -0.08)">
      <use xlink:href="#DejaVuSans-43"/>
      <use xlink:href="#DejaVuSans-4f" transform="translate(69.824219 0)"/>
      <use xlink:href="#DejaVuSans-32" transform="translate(148.535156 0)"/>
     </g>
    </g>
    <g id="line2d_40">
     <path d="M 807.03049 64.024375 
L 815.03049 64.024375 
L 823.03049 64.024375 
" style="fill: none; stroke: #e377c2; stroke-width: 2; stroke-linecap: square"/>
    </g>
    <g id="text_22">
     <!-- H2 -->
     <g transform="translate(829.43049 66.824375) scale(0.08 -0.08)">
      <use xlink:href="#DejaVuSans-48"/>
      <use xlink:href="#DejaVuSans-32" transform="translate(75.195312 0)"/>
     </g>
    </g>
    <g id="line2d_41">
     <path d="M 807.03049 75.766875 
L 815.03049 75.766875 
L 823.03049 75.766875 
" style="fill: none; stroke: #bcbd22; stroke-width: 2; stroke-linecap: square"/>
    </g>
    <g id="text_23">
     <!-- H2O -->
     <g transform="translate(829.43049 78.566875) scale(0.08 -0.08)">
      <use xlink:href="#DejaVuSans-48"/>
      <use xlink:href="#DejaVuSans-32" transform="translate(75.195312 0)"/>
      <use xlink:href="#DejaVuSans-4f" transform="translate(138.818359 0)"/>
     </g>
    </g>
    <g id="line2d_42">
     <path d="M 807.03049 87.509375 
L 815.03049 87.509375 
L 823.03049 87.509375 
" style="fill: none; stroke: #17becf; stroke-width: 2; stroke-linecap: square"/>
    </g>
    <g id="text_24">
     <!-- N2 -->
     <g transform="translate(829.43049 90.309375) scale(0.08 -0.08)">
      <defs>
       <path id="DejaVuSans-4e" d="M 628 4666 
L 1478 4666 
L 3547 763 
L 3547 4666 
L 4159 4666 
L 4159 0 
L 3309 0 
L 1241 3903 
L 1241 0 
L 628 0 
L 628 4666 
z
" transform="scale(0.015625)"/>
      </defs>
      <use xlink:href="#DejaVuSans-4e"/>
      <use xlink:href="#DejaVuSans-32" transform="translate(74.804688 0)"/>
     </g>
    </g>
   </g>
  </g>
 </g>
 <defs>
  <clipPath id="p4077c9e330">
   <rect x="43.78125" y="22.318125" width="752.524" height="363.16"/>
  </clipPath>
 </defs>
</svg>
