<?xml version="1.0" encoding="utf-8" standalone="no"?>
<!DOCTYPE svg PUBLIC "-//W3C//DTD SVG 1.1//EN"
  "http://www.w3.org/Graphics/SVG/1.1/DTD/svg11.dtd">
<svg xmlns:xlink="http://www.w3.org/1999/xlink" width="857.23424pt" height="423.034375pt" viewBox="0 0 857.23424 423.034375" xmlns="http://www.w3.org/2000/svg" version="1.1">
 <metadata>
  <rdf:RDF xmlns:dc="http://purl.org/dc/elements/1.1/" xmlns:cc="http://creativecommons.org/ns#" xmlns:rdf="http://www.w3.org/1999/02/22-rdf-syntax-ns#">
   <cc:Work>
    <dc:type rdf:resource="http://purl.org/dc/dcmitype/StillImage"/>
    <dc:date>2026-04-15T13:39:30.798078</dc:date>
    <dc:format>image/svg+xml</dc:format>
    <dc:creator>
     <cc:Agent>
      <dc:title>Matplotlib v3.10.8, https://matplotlib.org/</dc:title>
     </cc:Agent>
    </dc:creator>
   </cc:Work>
  </rdf:RDF>
 </metadata>
 <defs>
  <style type="text/css">*{stroke-linejoin: round; stroke-linecap: butt}</style>
 </defs>
 <g id="figure_1">
  <g id="patch_1">
   <path d="M 0 423.034375 
L 857.23424 423.034375 
L 857.23424 0 
L 0 0 
z
" style="fill: #ffffff"/>
  </g>
  <g id="axes_1">
   <g id="patch_2">
    <path d="M 43.78125 385.478125 
L 796.30525 385.478125 
L 796.30525 22.318125 
L 43.78125 22.318125 
z
" style="fill: #ffffff"/>
   </g>
   <g id="matplotlib.axis_1">
    <g id="xtick_1">
     <g id="line2d_1">
      <path d="M 43.78125 385.478125 
L 43.78125 22.318125 
" clip-path="url(#p8fde3b6fc7)" style="fill: none; stroke: #b0b0b0; stroke-opacity: 0.3; stroke-width: 0.8; stroke-linecap: square"/>
     </g>
     <g id="line2d_2">
      <defs>
       <path id="me43eb9d718" d="M 0 0 
L 0 3.5 
" style="stroke: #000000; stroke-width: 0.8"/>
      </defs>
      <g>
       <use xlink:href="#me43eb9d718" x="43.78125" y="385.478125" style="stroke: #000000; stroke-width: 0.8"/>
      </g>
     </g>
     <g id="text_1">
      <!-- 0 -->
      <g transform="translate(40.6 400.076562) scale(0.1 -0.1)">
       <defs>
        <path id="DejaVuSans-30" d="M 2034 4250 
Q 1547 4250 1301 3770 
Q 1056 3291 1056 2328 
Q 1056 1369 1301 889 
Q 1547 409 2034 409 
Q 2525 409 2770 889 
Q 3016 1369 3016 2328 
Q 3016 3291 2770 3770 
Q 2525 4250 2034 4250 
z
M 2034 4750 
Q 2819 4750 3233 4129 
Q 3647 3509 3647 2328 
Q 3647 1150 3233 529 
Q 2819 -91 2034 -91 
Q 1250 -91 836 529 
Q 422 1150 422 2328 
Q 422 3509 836 4129 
Q 1250 4750 2034 4750 
z
" transform="scale(0.015625)"/>
       </defs>
       <use xlink:href="#DejaVuSans-30"/>
      </g>
     </g>
    </g>
    <g id="xtick_2">
     <g id="line2d_3">
      <path d="M 137.84675 385.478125 
L 137.84675 22.318125 
" clip-path="url(#p8fde3b6fc7)" style="fill: none; stroke: #b0b0b0; stroke-opacity: 0.3; stroke-width: 0.8; stroke-linecap: square"/>
     </g>
     <g id="line2d_4">
      <g>
       <use xlink:href="#me43eb9d718" x="137.84675" y="385.478125" style="stroke: #000000; stroke-width: 0.8"/>
      </g>
     </g>
     <g id="text_2">
      <!-- 1000 -->
      <g transform="translate(125.12175 400.076562) scale(0.1 -0.1)">
       <defs>
        <path id="DejaVuSans-31" d="M 794 531 
L 1825 531 
L 1825 4091 
L 703 3866 
L 703 4441 
L 1819 4666 
L 2450 4666 
L 2450 531 
L 3481 531 
L 3481 0 
L 794 0 
L 794 531 
z
" transform="scale(0.015625)"/>
       </defs>
       <use xlink:href="#DejaVuSans-31"/>
       <use xlink:href="#DejaVuSans-30" transform="translate(63.623047 0)"/>
       <use xlink:href="#DejaVuSans-30" transform="translate(127.246094 0)"/>
       <use xlink:href="#DejaVuSans-30" transform="translate(190.869141 0)"/>
      </g>
     </g>
    </g>
    <g id="xtick_3">
     <g id="line2d_5">
      <path d="M 231.91225 385.478125 
L 231.91225 22.318125 
" clip-path="url(#p8fde3b6fc7)" style="fill: none; stroke: #b0b0b0; stroke-opacity: 0.3; stroke-width: 0.8; stroke-linecap: square"/>
     </g>
     <g id="line2d_6">
      <g>
       <use xlink:href="#me43eb9d718" x="231.91225" y="385.478125" style="stroke: #000000; stroke-width: 0.8"/>
      </g>
     </g>
     <g id="text_3">
      <!-- 2000 -->
      <g transform="translate(219.18725 400.076562) scale(0.1 -0.1)">
       <defs>
        <path id="DejaVuSans-32" d="M 1228 531 
L 3431 531 
L 3431 0 
L 469 0 
L 469 531 
Q 828 903 1448 1529 
Q 2069 2156 2228 2338 
Q 2531 2678 2651 2914 
Q 2772 3150 2772 3378 
Q 2772 3750 2511 3984 
Q 2250 4219 1831 4219 
Q 1534 4219 1204 4116 
Q 875 4013 500 3803 
L 500 4441 
Q 881 4594 1212 4672 
Q 1544 4750 1819 4750 
Q 2544 4750 2975 4387 
Q 3406 4025 3406 3419 
Q 3406 3131 3298 2873 
Q 3191 2616 2906 2266 
Q 2828 2175 2409 1742 
Q 1991 1309 1228 531 
z
" transform="scale(0.015625)"/>
       </defs>
       <use xlink:href="#DejaVuSans-32"/>
       <use xlink:href="#DejaVuSans-30" transform="translate(63.623047 0)"/>
       <use xlink:href="#DejaVuSans-30" transform="translate(127.246094 0)"/>
       <use xlink:href="#DejaVuSans-30" transform="translate(190.869141 0)"/>
      </g>
     </g>
    </g>
    <g id="xtick_4">
     <g id="line2d_7">
      <path d="M 325.97775 385.478125 
L 325.97775 22.318125 
" clip-path="url(#p8fde3b6fc7)" style="fill: none; stroke: #b0b0b0; stroke-opacity: 0.3; stroke-width: 0.8; stroke-linecap: square"/>
     </g>
     <g id="line2d_8">
      <g>
       <use xlink:href="#me43eb9d718" x="325.97775" y="385.478125" style="stroke: #000000; stroke-width: 0.8"/>
      </g>
     </g>
     <g id="text_4">
      <!-- 3000 -->
      <g transform="translate(313.25275 400.076562) scale(0.1 -0.1)">
       <defs>
        <path id="DejaVuSans-33" d="M 2597 2516 
Q 3050 2419 3304 2112 
Q 3559 1806 3559 1356 
Q 3559 666 3084 287 
Q 2609 -91 1734 -91 
Q 1441 -91 1130 -33 
Q 819 25 488 141 
L 488 750 
Q 750 597 1062 519 
Q 1375 441 1716 441 
Q 2309 441 2620 675 
Q 2931 909 2931 1356 
Q 2931 1769 2642 2001 
Q 2353 2234 1838 2234 
L 1294 2234 
L 1294 2753 
L 1863 2753 
Q 2328 2753 2575 2939 
Q 2822 3125 2822 3475 
Q 2822 3834 2567 4026 
Q 2313 4219 1838 4219 
Q 1578 4219 1281 4162 
Q 984 4106 628 3988 
L 628 4550 
Q 988 4650 1302 4700 
Q 1616 4750 1894 4750 
Q 2613 4750 3031 4423 
Q 3450 4097 3450 3541 
Q 3450 3153 3228 2886 
Q 3006 2619 2597 2516 
z
" transform="scale(0.015625)"/>
       </defs>
       <use xlink:href="#DejaVuSans-33"/>
       <use xlink:href="#DejaVuSans-30" transform="translate(63.623047 0)"/>
       <use xlink:href="#DejaVuSans-30" transform="translate(127.246094 0)"/>
       <use xlink:href="#DejaVuSans-30" transform="translate(190.869141 0)"/>
      </g>
     </g>
    </g>
    <g id="xtick_5">
     <g id="line2d_9">
      <path d="M 420.04325 385.478125 
L 420.04325 22.318125 
" clip-path="url(#p8fde3b6fc7)" style="fill: none; stroke: #b0b0b0; stroke-opacity: 0.3; stroke-width: 0.8; stroke-linecap: square"/>
     </g>
     <g id="line2d_10">
      <g>
       <use xlink:href="#me43eb9d718" x="420.04325" y="385.478125" style="stroke: #000000; stroke-width: 0.8"/>
      </g>
     </g>
     <g id="text_5">
      <!-- 4000 -->
      <g transform="translate(407.31825 400.076562) scale(0.1 -0.1)">
       <defs>
        <path id="DejaVuSans-34" d="M 2419 4116 
L 825 1625 
L 2419 1625 
L 2419 4116 
z
M 2253 4666 
L 3047 4666 
L 3047 1625 
L 3713 1625 
L 3713 1100 
L 3047 1100 
L 3047 0 
L 2419 0 
L 2419 1100 
L 313 1100 
L 313 1709 
L 2253 4666 
z
" transform="scale(0.015625)"/>
       </defs>
       <use xlink:href="#DejaVuSans-34"/>
       <use xlink:href="#DejaVuSans-30" transform="translate(63.623047 0)"/>
       <use xlink:href="#DejaVuSans-30" transform="translate(127.246094 0)"/>
       <use xlink:href="#DejaVuSans-30" transform="translate(190.869141 0)"/>
      </g>
     </g>
    </g>
    <g id="xtick_6">
     <g id="line2d_11">
      <path d="M 514.10875 385.478125 
L 514.10875 22.318125 
" clip-path="url(#p8fde3b6fc7)" style="fill: none; stroke: #b0b0b0; stroke-opacity: 0.3; stroke-width: 0.8; stroke-linecap: square"/>
     </g>
     <g id="line2d_12">
      <g>
       <use xlink:href="#me43eb9d718" x="514.10875" y="385.478125" style="stroke: #000000; stroke-width: 0.8"/>
      </g>
     </g>
     <g id="text_6">
      <!-- 5000 -->
      <g transform="translate(501.38375 400.076562) scale(0.1 -0.1)">
       <defs>
        <path id="DejaVuSans-35" d="M 691 4666 
L 3169 4666 
L 3169 4134 
L 1269 4134 
L 1269 2991 
Q 1406 3038 1543 3061 
Q 1681 3084 1819 3084 
Q 2600 3084 3056 2656 
Q 3513 2228 3513 1497 
Q 3513 744 3044 326 
Q 2575 -91 1722 -91 
Q 1428 -91 1123 -41 
Q 819 9 494 109 
L 494 744 
Q 775 591 1075 516 
Q 1375 441 1709 441 
Q 2250 441 2565 725 
Q 2881 1009 2881 1497 
Q 2881 1984 2565 2268 
Q 2250 2553 1709 2553 
Q 1456 2553 1204 2497 
Q 953 2441 691 2322 
L 691 4666 
z
" transform="scale(0.015625)"/>
       </defs>
       <use xlink:href="#DejaVuSans-35"/>
       <use xlink:href="#DejaVuSans-30" transform="translate(63.623047 0)"/>
       <use xlink:href="#DejaVuSans-30" transform="translate(127.246094 0)"/>
       <use xlink:href="#DejaVuSans-30" transform="translate(190.869141 0)"/>
      </g>
     </g>
    </g>
    <g id="xtick_7">
     <g id="line2d_13">
      <path d="M 608.17425 385.478125 
L 608.17425 22.318125 
" clip-path="url(#p8fde3b6fc7)" style="fill: none; stroke: #b0b0b0; stroke-opacity: 0.3; stroke-width: 0.8; stroke-linecap: square"/>
     </g>
     <g id="line2d_14">
      <g>
       <use xlink:href="#me43eb9d718" x="608.17425" y="385.478125" style="stroke: #000000; stroke-width: 0.8"/>
      </g>
     </g>
     <g id="text_7">
      <!-- 6000 -->
      <g transform="translate(595.44925 400.076562) scale(0.1 -0.1)">
       <defs>
        <path id="DejaVuSans-36" d="M 2113 2584 
Q 1688 2584 1439 2293 
Q 1191 2003 1191 1497 
Q 1191 994 1439 701 
Q 1688 409 2113 409 
Q 2538 409 2786 701 
Q 3034 994 3034 1497 
Q 3034 2003 2786 2293 
Q 2538 2584 2113 2584 
z
M 3366 4563 
L 3366 3988 
Q 3128 4100 2886 4159 
Q 2644 4219 2406 4219 
Q 1781 4219 1451 3797 
Q 1122 3375 1075 2522 
Q 1259 2794 1537 2939 
Q 1816 3084 2150 3084 
Q 2853 3084 3261 2657 
Q 3669 2231 3669 1497 
Q 3669 778 3244 343 
Q 2819 -91 2113 -91 
Q 1303 -91 875 529 
Q 447 1150 447 2328 
Q 447 3434 972 4092 
Q 1497 4750 2381 4750 
Q 2619 4750 2861 4703 
Q 3103 4656 3366 4563 
z
" transform="scale(0.015625)"/>
       </defs>
       <use xlink:href="#DejaVuSans-36"/>
       <use xlink:href="#DejaVuSans-30" transform="translate(63.623047 0)"/>
       <use xlink:href="#DejaVuSans-30" transform="translate(127.246094 0)"/>
       <use xlink:href="#DejaVuSans-30" transform="translate(190.869141 0)"/>
      </g>
     </g>
    </g>
    <g id="xtick_8">
     <g id="line2d_15">
      <path d="M 702.23975 385.478125 
L 702.23975 22.318125 
" clip-path="url(#p8fde3b6fc7)" style="fill: none; stroke: #b0b0b0; stroke-opacity: 0.3; stroke-width: 0.8; stroke-linecap: square"/>
     </g>
     <g id="line2d_16">
      <g>
       <use xlink:href="#me43eb9d718" x="702.23975" y="385.478125" style="stroke: #000000; stroke-width: 0.8"/>
      </g>
     </g>
     <g id="text_8">
      <!-- 7000 -->
      <g transform="translate(689.51475 400.076562) scale(0.1 -0.1)">
       <defs>
        <path id="DejaVuSans-37" d="M 525 4666 
L 3525 4666 
L 3525 4397 
L 1831 0 
L 1172 0 
L 2766 4134 
L 525 4134 
L 525 4666 
z
" transform="scale(0.015625)"/>
       </defs>
       <use xlink:href="#DejaVuSans-37"/>
       <use xlink:href="#DejaVuSans-30" transform="translate(63.623047 0)"/>
       <use xlink:href="#DejaVuSans-30" transform="translate(127.246094 0)"/>
       <use xlink:href="#DejaVuSans-30" transform="translate(190.869141 0)"/>
      </g>
     </g>
    </g>
    <g id="xtick_9">
     <g id="line2d_17">
      <path d="M 796.30525 385.478125 
L 796.30525 22.318125 
" clip-path="url(#p8fde3b6fc7)" style="fill: none; stroke: #b0b0b0; stroke-opacity: 0.3; stroke-width: 0.8; stroke-linecap: square"/>
     </g>
     <g id="line2d_18">
      <g>
       <use xlink:href="#me43eb9d718" x="796.30525" y="385.478125" style="stroke: #000000; stroke-width: 0.8"/>
      </g>
     </g>
     <g id="text_9">
      <!-- 8000 -->
      <g transform="translate(783.58025 400.076562) scale(0.1 -0.1)">
       <defs>
        <path id="DejaVuSans-38" d="M 2034 2216 
Q 1584 2216 1326 1975 
Q 1069 1734 1069 1313 
Q 1069 891 1326 650 
Q 1584 409 2034 409 
Q 2484 409 2743 651 
Q 3003 894 3003 1313 
Q 3003 1734 2745 1975 
Q 2488 2216 2034 2216 
z
M 1403 2484 
Q 997 2584 770 2862 
Q 544 3141 544 3541 
Q 544 4100 942 4425 
Q 1341 4750 2034 4750 
Q 2731 4750 3128 4425 
Q 3525 4100 3525 3541 
Q 3525 3141 3298 2862 
Q 3072 2584 2669 2484 
Q 3125 2378 3379 2068 
Q 3634 1759 3634 1313 
Q 3634 634 3220 271 
Q 2806 -91 2034 -91 
Q 1263 -91 848 271 
Q 434 634 434 1313 
Q 434 1759 690 2068 
Q 947 2378 1403 2484 
z
M 1172 3481 
Q 1172 3119 1398 2916 
Q 1625 2713 2034 2713 
Q 2441 2713 2670 2916 
Q 2900 3119 2900 3481 
Q 2900 3844 2670 4047 
Q 2441 4250 2034 4250 
Q 1625 4250 1398 4047 
Q 1172 3844 1172 3481 
z
" transform="scale(0.015625)"/>
       </defs>
       <use xlink:href="#DejaVuSans-38"/>
       <use xlink:href="#DejaVuSans-30" transform="translate(63.623047 0)"/>
       <use xlink:href="#DejaVuSans-30" transform="translate(127.246094 0)"/>
       <use xlink:href="#DejaVuSans-30" transform="translate(190.869141 0)"/>
      </g>
     </g>
    </g>
    <g id="text_10">
     <!-- Time [s] -->
     <g transform="translate(399.714344 413.754687) scale(0.1 -0.1)">
      <defs>
       <path id="DejaVuSans-54" d="M -19 4666 
L 3928 4666 
L 3928 4134 
L 2272 4134 
L 2272 0 
L 1638 0 
L 1638 4134 
L -19 4134 
L -19 4666 
z
" transform="scale(0.015625)"/>
       <path id="DejaVuSans-69" d="M 603 3500 
L 1178 3500 
L 1178 0 
L 603 0 
L 603 3500 
z
M 603 4863 
L 1178 4863 
L 1178 4134 
L 603 4134 
L 603 4863 
z
" transform="scale(0.015625)"/>
       <path id="DejaVuSans-6d" d="M 3328 2828 
Q 3544 3216 3844 3400 
Q 4144 3584 4550 3584 
Q 5097 3584 5394 3201 
Q 5691 2819 5691 2113 
L 5691 0 
L 5113 0 
L 5113 2094 
Q 5113 2597 4934 2840 
Q 4756 3084 4391 3084 
Q 3944 3084 3684 2787 
Q 3425 2491 3425 1978 
L 3425 0 
L 2847 0 
L 2847 2094 
Q 2847 2600 2669 2842 
Q 2491 3084 2119 3084 
Q 1678 3084 1418 2786 
Q 1159 2488 1159 1978 
L 1159 0 
L 581 0 
L 581 3500 
L 1159 3500 
L 1159 2956 
Q 1356 3278 1631 3431 
Q 1906 3584 2284 3584 
Q 2666 3584 2933 3390 
Q 3200 3197 3328 2828 
z
" transform="scale(0.015625)"/>
       <path id="DejaVuSans-65" d="M 3597 1894 
L 3597 1613 
L 953 1613 
Q 991 1019 1311 708 
Q 1631 397 2203 397 
Q 2534 397 2845 478 
Q 3156 559 3463 722 
L 3463 178 
Q 3153 47 2828 -22 
Q 2503 -91 2169 -91 
Q 1331 -91 842 396 
Q 353 884 353 1716 
Q 353 2575 817 3079 
Q 1281 3584 2069 3584 
Q 2775 3584 3186 3129 
Q 3597 2675 3597 1894 
z
M 3022 2063 
Q 3016 2534 2758 2815 
Q 2500 3097 2075 3097 
Q 1594 3097 1305 2825 
Q 1016 2553 972 2059 
L 3022 2063 
z
" transform="scale(0.015625)"/>
       <path id="DejaVuSans-20" transform="scale(0.015625)"/>
       <path id="DejaVuSans-5b" d="M 550 4863 
L 1875 4863 
L 1875 4416 
L 1125 4416 
L 1125 -397 
L 1875 -397 
L 1875 -844 
L 550 -844 
L 550 4863 
z
" transform="scale(0.015625)"/>
       <path id="DejaVuSans-73" d="M 2834 3397 
L 2834 2853 
Q 2591 2978 2328 3040 
Q 2066 3103 1784 3103 
Q 1356 3103 1142 2972 
Q 928 2841 928 2578 
Q 928 2378 1081 2264 
Q 1234 2150 1697 2047 
L 1894 2003 
Q 2506 1872 2764 1633 
Q 3022 1394 3022 966 
Q 3022 478 2636 193 
Q 2250 -91 1575 -91 
Q 1294 -91 989 -36 
Q 684 19 347 128 
L 347 722 
Q 666 556 975 473 
Q 1284 391 1588 391 
Q 1994 391 2212 530 
Q 2431 669 2431 922 
Q 2431 1156 2273 1281 
Q 2116 1406 1581 1522 
L 1381 1569 
Q 847 1681 609 1914 
Q 372 2147 372 2553 
Q 372 3047 722 3315 
Q 1072 3584 1716 3584 
Q 2034 3584 2315 3537 
Q 2597 3491 2834 3397 
z
" transform="scale(0.015625)"/>
       <path id="DejaVuSans-5d" d="M 1947 4863 
L 1947 -844 
L 622 -844 
L 622 -397 
L 1369 -397 
L 1369 4416 
L 622 4416 
L 622 4863 
L 1947 4863 
z
" transform="scale(0.015625)"/>
      </defs>
      <use xlink:href="#DejaVuSans-54"/>
      <use xlink:href="#DejaVuSans-69" transform="translate(57.958984 0)"/>
      <use xlink:href="#DejaVuSans-6d" transform="translate(85.742188 0)"/>
      <use xlink:href="#DejaVuSans-65" transform="translate(183.154297 0)"/>
      <use xlink:href="#DejaVuSans-20" transform="translate(244.677734 0)"/>
      <use xlink:href="#DejaVuSans-5b" transform="translate(276.464844 0)"/>
      <use xlink:href="#DejaVuSans-73" transform="translate(315.478516 0)"/>
      <use xlink:href="#DejaVuSans-5d" transform="translate(367.578125 0)"/>
     </g>
    </g>
   </g>
   <g id="matplotlib.axis_2">
    <g id="ytick_1">
     <g id="line2d_19">
      <path d="M 43.78125 378.494279 
L 796.30525 378.494279 
" clip-path="url(#p8fde3b6fc7)" style="fill: none; stroke: #b0b0b0; stroke-opacity: 0.3; stroke-width: 0.8; stroke-linecap: square"/>
     </g>
     <g id="line2d_20">
      <defs>
       <path id="mb8c3f0c127" d="M 0 0 
L -3.5 0 
" style="stroke: #000000; stroke-width: 0.8"/>
      </defs>
      <g>
       <use xlink:href="#mb8c3f0c127" x="43.78125" y="378.494279" style="stroke: #000000; stroke-width: 0.8"/>
      </g>
     </g>
     <g id="text_11">
      <!-- 0.0 -->
      <g transform="translate(20.878125 382.293498) scale(0.1 -0.1)">
       <defs>
        <path id="DejaVuSans-2e" d="M 684 794 
L 1344 794 
L 1344 0 
L 684 0 
L 684 794 
z
" transform="scale(0.015625)"/>
       </defs>
       <use xlink:href="#DejaVuSans-30"/>
       <use xlink:href="#DejaVuSans-2e" transform="translate(63.623047 0)"/>
       <use xlink:href="#DejaVuSans-30" transform="translate(95.410156 0)"/>
      </g>
     </g>
    </g>
    <g id="ytick_2">
     <g id="line2d_21">
      <path d="M 43.78125 308.655817 
L 796.30525 308.655817 
" clip-path="url(#p8fde3b6fc7)" style="fill: none; stroke: #b0b0b0; stroke-opacity: 0.3; stroke-width: 0.8; stroke-linecap: square"/>
     </g>
     <g id="line2d_22">
      <g>
       <use xlink:href="#mb8c3f0c127" x="43.78125" y="308.655817" style="stroke: #000000; stroke-width: 0.8"/>
      </g>
     </g>
     <g id="text_12">
      <!-- 0.2 -->
      <g transform="translate(20.878125 312.455036) scale(0.1 -0.1)">
       <use xlink:href="#DejaVuSans-30"/>
       <use xlink:href="#DejaVuSans-2e" transform="translate(63.623047 0)"/>
       <use xlink:href="#DejaVuSans-32" transform="translate(95.410156 0)"/>
      </g>
     </g>
    </g>
    <g id="ytick_3">
     <g id="line2d_23">
      <path d="M 43.78125 238.817356 
L 796.30525 238.817356 
" clip-path="url(#p8fde3b6fc7)" style="fill: none; stroke: #b0b0b0; stroke-opacity: 0.3; stroke-width: 0.8; stroke-linecap: square"/>
     </g>
     <g id="line2d_24">
      <g>
       <use xlink:href="#mb8c3f0c127" x="43.78125" y="238.817356" style="stroke: #000000; stroke-width: 0.8"/>
      </g>
     </g>
     <g id="text_13">
      <!-- 0.4 -->
      <g transform="translate(20.878125 242.616575) scale(0.1 -0.1)">
       <use xlink:href="#DejaVuSans-30"/>
       <use xlink:href="#DejaVuSans-2e" transform="translate(63.623047 0)"/>
       <use xlink:href="#DejaVuSans-34" transform="translate(95.410156 0)"/>
      </g>
     </g>
    </g>
    <g id="ytick_4">
     <g id="line2d_25">
      <path d="M 43.78125 168.978894 
L 796.30525 168.978894 
" clip-path="url(#p8fde3b6fc7)" style="fill: none; stroke: #b0b0b0; stroke-opacity: 0.3; stroke-width: 0.8; stroke-linecap: square"/>
     </g>
     <g id="line2d_26">
      <g>
       <use xlink:href="#mb8c3f0c127" x="43.78125" y="168.978894" style="stroke: #000000; stroke-width: 0.8"/>
      </g>
     </g>
     <g id="text_14">
      <!-- 0.6 -->
      <g transform="translate(20.878125 172.778113) scale(0.1 -0.1)">
       <use xlink:href="#DejaVuSans-30"/>
       <use xlink:href="#DejaVuSans-2e" transform="translate(63.623047 0)"/>
       <use xlink:href="#DejaVuSans-36" transform="translate(95.410156 0)"/>
      </g>
     </g>
    </g>
    <g id="ytick_5">
     <g id="line2d_27">
      <path d="M 43.78125 99.140433 
L 796.30525 99.140433 
" clip-path="url(#p8fde3b6fc7)" style="fill: none; stroke: #b0b0b0; stroke-opacity: 0.3; stroke-width: 0.8; stroke-linecap: square"/>
     </g>
     <g id="line2d_28">
      <g>
       <use xlink:href="#mb8c3f0c127" x="43.78125" y="99.140433" style="stroke: #000000; stroke-width: 0.8"/>
      </g>
     </g>
     <g id="text_15">
      <!-- 0.8 -->
      <g transform="translate(20.878125 102.939651) scale(0.1 -0.1)">
       <use xlink:href="#DejaVuSans-30"/>
       <use xlink:href="#DejaVuSans-2e" transform="translate(63.623047 0)"/>
       <use xlink:href="#DejaVuSans-38" transform="translate(95.410156 0)"/>
      </g>
     </g>
    </g>
    <g id="ytick_6">
     <g id="line2d_29">
      <path d="M 43.78125 29.301971 
L 796.30525 29.301971 
" clip-path="url(#p8fde3b6fc7)" style="fill: none; stroke: #b0b0b0; stroke-opacity: 0.3; stroke-width: 0.8; stroke-linecap: square"/>
     </g>
     <g id="line2d_30">
      <g>
       <use xlink:href="#mb8c3f0c127" x="43.78125" y="29.301971" style="stroke: #000000; stroke-width: 0.8"/>
      </g>
     </g>
     <g id="text_16">
      <!-- 1.0 -->
      <g transform="translate(20.878125 33.10119) scale(0.1 -0.1)">
       <use xlink:href="#DejaVuSans-31"/>
       <use xlink:href="#DejaVuSans-2e" transform="translate(63.623047 0)"/>
       <use xlink:href="#DejaVuSans-30" transform="translate(95.410156 0)"/>
      </g>
     </g>
    </g>
    <g id="text_17">
     <!-- Mole fraction [-] -->
     <g transform="translate(14.798438 243.827031) rotate(-90) scale(0.1 -0.1)">
      <defs>
       <path id="DejaVuSans-4d" d="M 628 4666 
L 1569 4666 
L 2759 1491 
L 3956 4666 
L 4897 4666 
L 4897 0 
L 4281 0 
L 4281 4097 
L 3078 897 
L 2444 897 
L 1241 4097 
L 1241 0 
L 628 0 
L 628 4666 
z
" transform="scale(0.015625)"/>
       <path id="DejaVuSans-6f" d="M 1959 3097 
Q 1497 3097 1228 2736 
Q 959 2375 959 1747 
Q 959 1119 1226 758 
Q 1494 397 1959 397 
Q 2419 397 2687 759 
Q 2956 1122 2956 1747 
Q 2956 2369 2687 2733 
Q 2419 3097 1959 3097 
z
M 1959 3584 
Q 2709 3584 3137 3096 
Q 3566 2609 3566 1747 
Q 3566 888 3137 398 
Q 2709 -91 1959 -91 
Q 1206 -91 779 398 
Q 353 888 353 1747 
Q 353 2609 779 3096 
Q 1206 3584 1959 3584 
z
" transform="scale(0.015625)"/>
       <path id="DejaVuSans-6c" d="M 603 4863 
L 1178 4863 
L 1178 0 
L 603 0 
L 603 4863 
z
" transform="scale(0.015625)"/>
       <path id="DejaVuSans-66" d="M 2375 4863 
L 2375 4384 
L 1825 4384 
Q 1516 4384 1395 4259 
Q 1275 4134 1275 3809 
L 1275 3500 
L 2222 3500 
L 2222 3053 
L 1275 3053 
L 1275 0 
L 697 0 
L 697 3053 
L 147 3053 
L 147 3500 
L 697 3500 
L 697 3744 
Q 697 4328 969 4595 
Q 1241 4863 1831 4863 
L 2375 4863 
z
" transform="scale(0.015625)"/>
       <path id="DejaVuSans-72" d="M 2631 2963 
Q 2534 3019 2420 3045 
Q 2306 3072 2169 3072 
Q 1681 3072 1420 2755 
Q 1159 2438 1159 1844 
L 1159 0 
L 581 0 
L 581 3500 
L 1159 3500 
L 1159 2956 
Q 1341 3275 1631 3429 
Q 1922 3584 2338 3584 
Q 2397 3584 2469 3576 
Q 2541 3569 2628 3553 
L 2631 2963 
z
" transform="scale(0.015625)"/>
       <path id="DejaVuSans-61" d="M 2194 1759 
Q 1497 1759 1228 1600 
Q 959 1441 959 1056 
Q 959 750 1161 570 
Q 1363 391 1709 391 
Q 2188 391 2477 730 
Q 2766 1069 2766 1631 
L 2766 1759 
L 2194 1759 
z
M 3341 1997 
L 3341 0 
L 2766 0 
L 2766 531 
Q 2569 213 2275 61 
Q 1981 -91 1556 -91 
Q 1019 -91 701 211 
Q 384 513 384 1019 
Q 384 1609 779 1909 
Q 1175 2209 1959 2209 
L 2766 2209 
L 2766 2266 
Q 2766 2663 2505 2880 
Q 2244 3097 1772 3097 
Q 1472 3097 1187 3025 
Q 903 2953 641 2809 
L 641 3341 
Q 956 3463 1253 3523 
Q 1550 3584 1831 3584 
Q 2591 3584 2966 3190 
Q 3341 2797 3341 1997 
z
" transform="scale(0.015625)"/>
       <path id="DejaVuSans-63" d="M 3122 3366 
L 3122 2828 
Q 2878 2963 2633 3030 
Q 2388 3097 2138 3097 
Q 1578 3097 1268 2742 
Q 959 2388 959 1747 
Q 959 1106 1268 751 
Q 1578 397 2138 397 
Q 2388 397 2633 464 
Q 2878 531 3122 666 
L 3122 134 
Q 2881 22 2623 -34 
Q 2366 -91 2075 -91 
Q 1284 -91 818 406 
Q 353 903 353 1747 
Q 353 2603 823 3093 
Q 1294 3584 2113 3584 
Q 2378 3584 2631 3529 
Q 2884 3475 3122 3366 
z
" transform="scale(0.015625)"/>
       <path id="DejaVuSans-74" d="M 1172 4494 
L 1172 3500 
L 2356 3500 
L 2356 3053 
L 1172 3053 
L 1172 1153 
Q 1172 725 1289 603 
Q 1406 481 1766 481 
L 2356 481 
L 2356 0 
L 1766 0 
Q 1100 0 847 248 
Q 594 497 594 1153 
L 594 3053 
L 172 3053 
L 172 3500 
L 594 3500 
L 594 4494 
L 1172 4494 
z
" transform="scale(0.015625)"/>
       <path id="DejaVuSans-6e" d="M 3513 2113 
L 3513 0 
L 2938 0 
L 2938 2094 
Q 2938 2591 2744 2837 
Q 2550 3084 2163 3084 
Q 1697 3084 1428 2787 
Q 1159 2491 1159 1978 
L 1159 0 
L 581 0 
L 581 3500 
L 1159 3500 
L 1159 2956 
Q 1366 3272 1645 3428 
Q 1925 3584 2291 3584 
Q 2894 3584 3203 3211 
Q 3513 2838 3513 2113 
z
" transform="scale(0.015625)"/>
       <path id="DejaVuSans-2d" d="M 313 2009 
L 1997 2009 
L 1997 1497 
L 313 1497 
L 313 2009 
z
" transform="scale(0.015625)"/>
      </defs>
      <use xlink:href="#DejaVuSans-4d"/>
      <use xlink:href="#DejaVuSans-6f" transform="translate(86.279297 0)"/>
      <use xlink:href="#DejaVuSans-6c" transform="translate(147.460938 0)"/>
      <use xlink:href="#DejaVuSans-65" transform="translate(175.244141 0)"/>
      <use xlink:href="#DejaVuSans-20" transform="translate(236.767578 0)"/>
      <use xlink:href="#DejaVuSans-66" transform="translate(268.554688 0)"/>
      <use xlink:href="#DejaVuSans-72" transform="translate(303.759766 0)"/>
      <use xlink:href="#DejaVuSans-61" transform="translate(344.873047 0)"/>
      <use xlink:href="#DejaVuSans-63" transform="translate(406.152344 0)"/>
      <use xlink:href="#DejaVuSans-74" transform="translate(461.132812 0)"/>
      <use xlink:href="#DejaVuSans-69" transform="translate(500.341797 0)"/>
      <use xlink:href="#DejaVuSans-6f" transform="translate(528.125 0)"/>
      <use xlink:href="#DejaVuSans-6e" transform="translate(589.306641 0)"/>
      <use xlink:href="#DejaVuSans-20" transform="translate(652.685547 0)"/>
      <use xlink:href="#DejaVuSans-5b" transform="translate(684.472656 0)"/>
      <use xlink:href="#DejaVuSans-2d" transform="translate(723.486328 0)"/>
      <use xlink:href="#DejaVuSans-5d" transform="translate(759.570312 0)"/>
     </g>
    </g>
   </g>
   <g id="line2d_31">
    <path d="M 43.78125 378.494279 
L 56.197896 378.408341 
L 56.480093 378.175739 
L 56.856355 377.496363 
L 57.326682 375.998855 
L 57.985141 372.932853 
L 59.207992 365.802029 
L 62.406219 345.378817 
L 65.604446 325.141108 
L 66.168839 322.928564 
L 66.639167 321.843829 
L 67.109494 321.279658 
L 67.673887 320.997122 
L 68.520477 320.889143 
L 71.906835 320.872763 
L 101.819664 320.762202 
L 110.097428 320.48389 
L 118.187061 319.982668 
L 130.039313 318.989733 
L 143.772876 317.900735 
L 153.74382 317.342241 
L 164.373221 316.976674 
L 177.542391 316.759473 
L 198.707128 316.663442 
L 285.717716 316.426225 
L 292.302301 316.072202 
L 298.416559 315.521718 
L 304.907078 314.709766 
L 312.902646 313.472131 
L 345.449308 308.185689 
L 355.138055 306.950658 
L 365.108998 305.906385 
L 375.644334 305.029991 
L 387.120325 304.302747 
L 399.913233 303.718891 
L 414.587451 303.276991 
L 430.108258 303.028954 
L 441.866446 303.044196 
L 448.827293 303.255597 
L 453.436502 303.606948 
L 456.82286 304.075685 
L 459.738891 304.700808 
L 462.372725 305.491499 
L 465.006559 306.514266 
L 468.016655 307.92859 
L 477.799467 312.736629 
L 480.715497 313.7951 
L 483.631528 314.616079 
L 486.735689 315.259577 
L 490.310179 315.768591 
L 494.637191 316.151219 
L 500.375187 316.419972 
L 509.029213 316.580165 
L 527.089789 316.644166 
L 580.801189 316.576719 
L 588.702692 316.3439 
L 595.099145 315.934193 
L 601.307469 315.308803 
L 608.080184 314.395732 
L 617.110473 312.933568 
L 640.626847 309.031716 
L 651.162183 307.558284 
L 660.944996 306.420506 
L 671.104069 305.464434 
L 682.015667 304.663278 
L 694.056051 304.005859 
L 707.695549 303.488351 
L 723.122291 303.128425 
L 737.420247 303.004648 
L 746.638666 303.126574 
L 752.282596 303.410684 
L 756.233347 303.825377 
L 759.337509 304.368355 
L 762.065408 305.067308 
L 764.699242 305.974459 
L 767.521207 307.194114 
L 771.283827 309.093675 
L 776.833691 311.885431 
L 779.843787 313.140051 
L 782.759818 314.112711 
L 785.769914 314.875264 
L 789.062207 315.472346 
L 792.918892 315.9347 
L 796.30525 316.193362 
L 796.30525 316.193362 
" clip-path="url(#p8fde3b6fc7)" style="fill: none; stroke: #1f77b4; stroke-width: 2; stroke-linecap: square"/>
   </g>
   <g id="line2d_32">
    <path d="M 43.78125 378.494279 
L 55.633503 378.39699 
L 56.103831 378.085241 
L 58.455468 375.993397 
L 59.772385 375.271071 
L 61.653695 374.51456 
L 64.381595 373.680159 
L 66.168839 373.307095 
L 67.862018 373.234418 
L 86.204791 373.232725 
L 105.770415 373.349956 
L 116.682013 373.657023 
L 157.976767 375.098435 
L 175.378884 375.271754 
L 208.113678 375.327952 
L 287.410895 375.456794 
L 297.381838 375.760169 
L 309.422222 376.371109 
L 330.963221 377.475589 
L 345.073046 377.939045 
L 361.064181 378.235577 
L 383.639902 378.412217 
L 426.627835 378.483872 
L 460.303284 378.385989 
L 466.041279 378.145607 
L 470.744554 377.719973 
L 478.081663 376.775307 
L 484.101855 376.115216 
L 489.745786 375.731008 
L 496.800698 375.491018 
L 507.900427 375.365554 
L 537.71919 375.330571 
L 587.385775 375.437891 
L 597.450783 375.722056 
L 608.926774 376.286661 
L 632.819411 377.509679 
L 647.023302 377.962579 
L 663.296633 378.250761 
L 686.530812 378.419857 
L 732.152579 378.485065 
L 761.501015 378.38166 
L 767.144945 378.139315 
L 771.84822 377.709311 
L 779.561591 376.715571 
L 785.487717 376.082628 
L 791.131647 375.712558 
L 796.30525 375.526412 
L 796.30525 375.526412 
" clip-path="url(#p8fde3b6fc7)" style="fill: none; stroke: #2ca02c; stroke-width: 2; stroke-linecap: square"/>
   </g>
   <g id="line2d_33">
    <path d="M 43.78125 378.494279 
L 55.727569 378.387143 
L 56.103831 378.134413 
L 56.480093 377.597602 
L 56.95042 376.466863 
L 57.608879 374.220385 
L 59.772385 365.482239 
L 62.688416 354.330386 
L 65.322249 344.950105 
L 65.980708 343.295586 
L 66.545101 342.467966 
L 67.109494 342.074693 
L 67.767953 341.910485 
L 69.178935 341.85814 
L 99.468026 341.857849 
L 136.812029 341.978742 
L 180.082159 342.159685 
L 301.144458 342.396122 
L 313.749235 342.781464 
L 328.517518 343.470791 
L 372.16391 345.643348 
L 389.94229 346.205909 
L 409.507914 346.596611 
L 430.954848 346.80335 
L 445.440935 346.749455 
L 452.872109 346.519909 
L 457.763515 346.156249 
L 461.902398 345.624884 
L 466.511607 344.791343 
L 474.224978 343.370991 
L 478.36386 342.870206 
L 483.067135 342.533839 
L 489.463589 342.317742 
L 500.469252 342.202571 
L 532.92185 342.171618 
L 595.381342 342.27875 
L 608.456446 342.561132 
L 621.531551 343.073015 
L 641.285306 344.105798 
L 665.836401 345.345586 
L 683.42665 345.994465 
L 702.051619 346.453349 
L 723.216356 346.74665 
L 741.74726 346.799227 
L 751.341941 346.629226 
L 756.985871 346.317776 
L 761.312884 345.857527 
L 765.451766 345.189751 
L 777.49215 343.070693 
L 781.819163 342.669595 
L 787.274962 342.401639 
L 795.552726 342.242914 
L 796.30525 342.235747 
L 796.30525 342.235747 
" clip-path="url(#p8fde3b6fc7)" style="fill: none; stroke: #9467bd; stroke-width: 2; stroke-linecap: square"/>
   </g>
   <g id="line2d_34">
    <path d="M 43.78125 378.494279 
L 55.257241 378.426099 
L 55.539438 378.229262 
L 55.821634 377.727289 
L 56.197896 376.367464 
L 56.762289 373.133937 
L 59.302058 356.972642 
L 60.524909 351.20535 
L 62.029957 345.232905 
L 63.723136 339.44034 
L 65.228184 334.963954 
L 65.886643 333.550591 
L 66.451036 332.824305 
L 67.015429 332.468888 
L 67.767953 332.306065 
L 69.461132 332.264725 
L 96.45793 332.345097 
L 103.324712 332.586825 
L 108.78051 332.998974 
L 114.048179 333.623146 
L 119.786174 334.535859 
L 127.687676 336.043667 
L 140.386518 338.461543 
L 147.2533 339.524627 
L 153.837885 340.320343 
L 160.704667 340.924159 
L 168.323972 341.367272 
L 177.542391 341.672523 
L 190.241233 341.852803 
L 213.94574 341.924312 
L 279.133131 342.078851 
L 284.682996 342.371186 
L 289.19814 342.828903 
L 293.242956 343.457885 
L 297.193707 344.294402 
L 301.238523 345.377896 
L 305.659602 346.800228 
L 310.645073 348.644991 
L 317.135593 351.300367 
L 339.617247 360.696795 
L 346.954356 363.428653 
L 353.35081 365.573186 
L 359.747264 367.482438 
L 366.237784 369.184979 
L 372.916434 370.703198 
L 379.783216 372.036042 
L 387.026259 373.215651 
L 394.73963 374.246336 
L 403.11146 375.137645 
L 412.141748 375.872724 
L 421.642363 376.423177 
L 430.766717 376.733029 
L 438.103826 376.772771 
L 443.559625 376.594317 
L 447.604442 376.252316 
L 450.708603 375.780781 
L 453.248371 375.182925 
L 455.411878 374.458173 
L 457.387253 373.567173 
L 459.268563 372.466875 
L 461.055808 371.157947 
L 462.843052 369.571699 
L 464.724362 367.60513 
L 466.887869 365.016143 
L 470.086096 360.790972 
L 474.413109 355.126952 
L 476.764747 352.420341 
L 478.834187 350.357 
L 480.903628 348.610055 
L 482.879004 347.226737 
L 484.948445 346.047794 
L 487.111951 345.070668 
L 489.463589 344.253201 
L 492.097423 343.576191 
L 495.201584 343.019175 
L 498.964204 342.585176 
L 503.761545 342.269667 
L 510.628326 342.060805 
L 522.480579 341.954797 
L 565.186316 341.931501 
L 579.202076 342.050493 
L 585.034137 342.322897 
L 589.643347 342.758402 
L 593.782228 343.373088 
L 597.732979 344.183079 
L 601.777796 345.240585 
L 606.104809 346.606227 
L 610.996215 348.389397 
L 617.204538 350.903804 
L 642.602223 361.456434 
L 649.56307 363.986864 
L 655.959524 366.072511 
L 662.355978 367.923499 
L 668.846497 369.569484 
L 675.525148 371.03349 
L 682.485995 372.331658 
L 689.823104 373.474052 
L 697.724606 374.476654 
L 706.284566 375.333822 
L 715.502986 376.029574 
L 725.003601 376.524956 
L 733.751692 376.766207 
L 740.618474 376.74664 
L 745.698011 376.522041 
L 749.460631 376.145999 
L 752.470727 375.627288 
L 754.91643 374.986396 
L 757.079936 374.188206 
L 758.961247 373.264899 
L 760.748491 372.148487 
L 762.535735 370.767748 
L 764.32298 369.107768 
L 766.298355 366.960259 
L 768.649993 364.05195 
L 777.49215 352.725667 
L 779.655656 350.53141 
L 781.725097 348.755933 
L 783.700473 347.347107 
L 785.769914 346.144462 
L 787.933421 345.146305 
L 790.285058 344.310385 
L 792.918892 343.617083 
L 795.928988 343.060678 
L 796.30525 343.005084 
L 796.30525 343.005084 
" clip-path="url(#p8fde3b6fc7)" style="fill: none; stroke: #e377c2; stroke-width: 2; stroke-linecap: square"/>
   </g>
   <g id="line2d_35">
    <path d="M 43.78125 378.494279 
L 55.539438 378.407963 
L 55.9157 378.139143 
L 56.197896 377.649887 
L 56.480093 376.73843 
L 56.856355 374.667516 
L 57.326682 370.647568 
L 58.079206 361.718581 
L 59.584254 340.233195 
L 65.886643 248.374139 
L 66.35697 244.955768 
L 66.827298 242.999449 
L 67.297625 242.041697 
L 67.767953 241.632809 
L 68.332346 241.461818 
L 69.555197 241.404079 
L 105.017891 241.111804 
L 111.414344 240.708218 
L 117.99893 240.062679 
L 126.464824 238.987039 
L 142.738156 236.887225 
L 150.827789 236.10349 
L 158.917422 235.54639 
L 167.94771 235.155728 
L 179.141504 234.907525 
L 195.979229 234.78226 
L 241.130669 234.752555 
L 279.415327 234.642231 
L 285.905847 234.374732 
L 291.07945 233.941529 
L 295.87679 233.314959 
L 300.67413 232.458855 
L 305.753668 231.321449 
L 311.679794 229.755675 
L 319.769427 227.364445 
L 339.240985 221.532955 
L 347.989077 219.1834 
L 355.514317 217.396256 
L 363.039557 215.839432 
L 370.658862 214.489969 
L 378.65443 213.301771 
L 387.120325 212.272181 
L 396.244678 211.391394 
L 406.121556 210.664005 
L 416.939088 210.093186 
L 427.850686 209.73633 
L 437.069105 209.645439 
L 443.65369 209.789127 
L 448.2629 210.098784 
L 451.743323 210.547346 
L 454.471223 211.111636 
L 456.82286 211.816681 
L 458.986367 212.700094 
L 460.961742 213.742019 
L 462.937118 215.029454 
L 465.100624 216.715246 
L 467.640393 218.994218 
L 476.106288 226.852731 
L 478.457925 228.583018 
L 480.715497 229.965517 
L 482.97307 231.085994 
L 485.324707 232.005019 
L 487.864475 232.759934 
L 490.780506 233.38739 
L 494.166864 233.880738 
L 498.399811 234.259782 
L 504.043742 234.524994 
L 512.697768 234.68436 
L 531.134606 234.747359 
L 578.919879 234.673851 
L 585.880726 234.435143 
L 591.148394 234.03803 
L 595.945735 233.455996 
L 600.64901 232.662487 
L 605.634481 231.592725 
L 611.278411 230.147328 
L 618.615521 228.021335 
L 643.354747 220.670974 
L 651.350314 218.600139 
L 658.875555 216.885143 
L 666.400794 215.399184 
L 674.114166 214.102717 
L 682.203798 212.969514 
L 690.857824 211.985601 
L 700.170309 211.154035 
L 710.329383 210.472277 
L 721.335046 209.95853 
L 731.964448 209.679428 
L 740.336277 209.667691 
L 746.262404 209.869893 
L 750.495351 210.229256 
L 753.693578 210.716322 
L 756.327412 211.338605 
L 758.584985 212.09581 
L 760.654426 213.020962 
L 762.629801 214.143524 
L 764.699242 215.584608 
L 766.956814 217.444438 
L 769.872844 220.166153 
L 775.704905 225.679876 
L 778.150608 227.650231 
L 780.40818 229.192225 
L 782.665752 230.462902 
L 784.923324 231.481861 
L 787.369028 232.339564 
L 790.096927 233.050409 
L 793.201088 233.619229 
L 796.30525 234.003359 
L 796.30525 234.003359 
" clip-path="url(#p8fde3b6fc7)" style="fill: none; stroke: #bcbd22; stroke-width: 2; stroke-linecap: square"/>
   </g>
   <g id="line2d_36">
    <path d="M 43.78125 29.301971 
L 55.163176 29.372799 
L 55.445372 29.610571 
L 55.727569 30.287079 
L 56.009765 31.755593 
L 56.386027 35.414231 
L 56.856355 43.049689 
L 57.514813 58.713355 
L 58.737665 94.981642 
L 62.688416 213.153982 
L 65.416315 289.653674 
L 66.074774 302.040798 
L 66.545101 307.255647 
L 67.015429 310.050765 
L 67.391691 311.164657 
L 67.767953 311.715445 
L 68.23828 312.005051 
L 68.990804 312.126237 
L 71.624638 312.14637 
L 110.47369 312.030019 
L 126.935152 311.685974 
L 152.89723 311.148741 
L 173.497574 310.984461 
L 214.322001 310.940467 
L 289.574402 310.824763 
L 301.144458 310.527498 
L 315.160217 309.923736 
L 349.964452 308.349121 
L 368.40129 307.785258 
L 389.0957 307.382252 
L 414.587451 307.11901 
L 441.584249 307.051354 
L 453.248371 307.207636 
L 459.362629 307.498805 
L 464.254035 307.953883 
L 469.803899 308.710578 
L 478.551991 309.906443 
L 483.819659 310.371702 
L 489.933917 310.67547 
L 498.399811 310.853921 
L 514.579078 310.930678 
L 582.964696 310.907341 
L 595.945735 310.714783 
L 607.797988 310.307792 
L 628.492398 309.318772 
L 650.503725 308.366424 
L 668.846497 307.799375 
L 689.446842 307.392016 
L 714.750462 307.12469 
L 742.029456 307.049283 
L 753.975775 307.199463 
L 760.184098 307.485769 
L 765.075504 307.93217 
L 770.531303 308.66849 
L 779.655656 309.916718 
L 784.923324 310.378091 
L 791.037582 310.67868 
L 796.30525 310.809402 
L 796.30525 310.809402 
" clip-path="url(#p8fde3b6fc7)" style="fill: none; stroke: #17becf; stroke-width: 2; stroke-linecap: square"/>
   </g>
   <g id="patch_3">
    <path d="M 43.78125 385.478125 
L 43.78125 22.318125 
" style="fill: none; stroke: #000000; stroke-width: 0.8; stroke-linejoin: miter; stroke-linecap: square"/>
   </g>
   <g id="patch_4">
    <path d="M 796.30525 385.478125 
L 796.30525 22.318125 
" style="fill: none; stroke: #000000; stroke-width: 0.8; stroke-linejoin: miter; stroke-linecap: square"/>
   </g>
   <g id="patch_5">
    <path d="M 43.78125 385.478125 
L 796.30525 385.478125 
" style="fill: none; stroke: #000000; stroke-width: 0.8; stroke-linejoin: miter; stroke-linecap: square"/>
   </g>
   <g id="patch_6">
    <path d="M 43.78125 22.318125 
L 796.30525 22.318125 
" style="fill: none; stroke: #000000; stroke-width: 0.8; stroke-linejoin: miter; stroke-linecap: square"/>
   </g>
   <g id="text_18">
    <!-- Outlet Composition vs Time -->
    <g transform="translate(336.90575 16.318125) scale(0.12 -0.12)">
     <defs>
      <path id="DejaVuSans-4f" d="M 2522 4238 
Q 1834 4238 1429 3725 
Q 1025 3213 1025 2328 
Q 1025 1447 1429 934 
Q 1834 422 2522 422 
Q 3209 422 3611 934 
Q 4013 1447 4013 2328 
Q 4013 3213 3611 3725 
Q 3209 4238 2522 4238 
z
M 2522 4750 
Q 3503 4750 4090 4092 
Q 4678 3434 4678 2328 
Q 4678 1225 4090 567 
Q 3503 -91 2522 -91 
Q 1538 -91 948 565 
Q 359 1222 359 2328 
Q 359 3434 948 4092 
Q 1538 4750 2522 4750 
z
" transform="scale(0.015625)"/>
      <path id="DejaVuSans-75" d="M 544 1381 
L 544 3500 
L 1119 3500 
L 1119 1403 
Q 1119 906 1312 657 
Q 1506 409 1894 409 
Q 2359 409 2629 706 
Q 2900 1003 2900 1516 
L 2900 3500 
L 3475 3500 
L 3475 0 
L 2900 0 
L 2900 538 
Q 2691 219 2414 64 
Q 2138 -91 1772 -91 
Q 1169 -91 856 284 
Q 544 659 544 1381 
z
M 1991 3584 
L 1991 3584 
z
" transform="scale(0.015625)"/>
      <path id="DejaVuSans-43" d="M 4122 4306 
L 4122 3641 
Q 3803 3938 3442 4084 
Q 3081 4231 2675 4231 
Q 1875 4231 1450 3742 
Q 1025 3253 1025 2328 
Q 1025 1406 1450 917 
Q 1875 428 2675 428 
Q 3081 428 3442 575 
Q 3803 722 4122 1019 
L 4122 359 
Q 3791 134 3420 21 
Q 3050 -91 2638 -91 
Q 1578 -91 968 557 
Q 359 1206 359 2328 
Q 359 3453 968 4101 
Q 1578 4750 2638 4750 
Q 3056 4750 3426 4639 
Q 3797 4528 4122 4306 
z
" transform="scale(0.015625)"/>
      <path id="DejaVuSans-70" d="M 1159 525 
L 1159 -1331 
L 581 -1331 
L 581 3500 
L 1159 3500 
L 1159 2969 
Q 1341 3281 1617 3432 
Q 1894 3584 2278 3584 
Q 2916 3584 3314 3078 
Q 3713 2572 3713 1747 
Q 3713 922 3314 415 
Q 2916 -91 2278 -91 
Q 1894 -91 1617 61 
Q 1341 213 1159 525 
z
M 3116 1747 
Q 3116 2381 2855 2742 
Q 2594 3103 2138 3103 
Q 1681 3103 1420 2742 
Q 1159 2381 1159 1747 
Q 1159 1113 1420 752 
Q 1681 391 2138 391 
Q 2594 391 2855 752 
Q 3116 1113 3116 1747 
z
" transform="scale(0.015625)"/>
      <path id="DejaVuSans-76" d="M 191 3500 
L 800 3500 
L 1894 563 
L 2988 3500 
L 3597 3500 
L 2284 0 
L 1503 0 
L 191 3500 
z
" transform="scale(0.015625)"/>
     </defs>
     <use xlink:href="#DejaVuSans-4f"/>
     <use xlink:href="#DejaVuSans-75" transform="translate(78.710938 0)"/>
     <use xlink:href="#DejaVuSans-74" transform="translate(142.089844 0)"/>
     <use xlink:href="#DejaVuSans-6c" transform="translate(181.298828 0)"/>
     <use xlink:href="#DejaVuSans-65" transform="translate(209.082031 0)"/>
     <use xlink:href="#DejaVuSans-74" transform="translate(270.605469 0)"/>
     <use xlink:href="#DejaVuSans-20" transform="translate(309.814453 0)"/>
     <use xlink:href="#DejaVuSans-43" transform="translate(341.601562 0)"/>
     <use xlink:href="#DejaVuSans-6f" transform="translate(411.425781 0)"/>
     <use xlink:href="#DejaVuSans-6d" transform="translate(472.607422 0)"/>
     <use xlink:href="#DejaVuSans-70" transform="translate(570.019531 0)"/>
     <use xlink:href="#DejaVuSans-6f" transform="translate(633.496094 0)"/>
     <use xlink:href="#DejaVuSans-73" transform="translate(694.677734 0)"/>
     <use xlink:href="#DejaVuSans-69" transform="translate(746.777344 0)"/>
     <use xlink:href="#DejaVuSans-74" transform="translate(774.560547 0)"/>
     <use xlink:href="#DejaVuSans-69" transform="translate(813.769531 0)"/>
     <use xlink:href="#DejaVuSans-6f" transform="translate(841.552734 0)"/>
     <use xlink:href="#DejaVuSans-6e" transform="translate(902.734375 0)"/>
     <use xlink:href="#DejaVuSans-20" transform="translate(966.113281 0)"/>
     <use xlink:href="#DejaVuSans-76" transform="translate(997.900391 0)"/>
     <use xlink:href="#DejaVuSans-73" transform="translate(1057.080078 0)"/>
     <use xlink:href="#DejaVuSans-20" transform="translate(1109.179688 0)"/>
     <use xlink:href="#DejaVuSans-54" transform="translate(1140.966797 0)"/>
     <use xlink:href="#DejaVuSans-69" transform="translate(1198.925781 0)"/>
     <use xlink:href="#DejaVuSans-6d" transform="translate(1226.708984 0)"/>
     <use xlink:href="#DejaVuSans-65" transform="translate(1324.121094 0)"/>
    </g>
   </g>
   <g id="legend_1">
    <g id="patch_7">
     <path d="M 805.43049 95.173125 
L 848.43424 95.173125 
Q 850.03424 95.173125 850.03424 93.573125 
L 850.03424 23.918125 
Q 850.03424 22.318125 848.43424 22.318125 
L 805.43049 22.318125 
Q 803.83049 22.318125 803.83049 23.918125 
L 803.83049 93.573125 
Q 803.83049 95.173125 805.43049 95.173125 
z
" style="fill: #ffffff; opacity: 0.8; stroke: #cccccc; stroke-linejoin: miter"/>
    </g>
    <g id="line2d_37">
     <path d="M 807.03049 28.796875 
L 815.03049 28.796875 
L 823.03049 28.796875 
" style="fill: none; stroke: #1f77b4; stroke-width: 2; stroke-linecap: square"/>
    </g>
    <g id="text_19">
     <!-- CH4 -->
     <g transform="translate(829.43049 31.596875) scale(0.08 -0.08)">
      <defs>
       <path id="DejaVuSans-48" d="M 628 4666 
L 1259 4666 
L 1259 2753 
L 3553 2753 
L 3553 4666 
L 4184 4666 
L 4184 0 
L 3553 0 
L 3553 2222 
L 1259 2222 
L 1259 0 
L 628 0 
L 628 4666 
z
" transform="scale(0.015625)"/>
      </defs>
      <use xlink:href="#DejaVuSans-43"/>
      <use xlink:href="#DejaVuSans-48" transform="translate(69.824219 0)"/>
      <use xlink:href="#DejaVuSans-34" transform="translate(145.019531 0)"/>
     </g>
    </g>
    <g id="line2d_38">
     <path d="M 807.03049 40.539375 
L 815.03049 40.539375 
L 823.03049 40.539375 
" style="fill: none; stroke: #2ca02c; stroke-width: 2; stroke-linecap: square"/>
    </g>
    <g id="text_20">
     <!-- CO -->
     <g transform="translate(829.43049 43.339375) scale(0.08 -0.08)">
      <use xlink:href="#DejaVuSans-43"/>
      <use xlink:href="#DejaVuSans-4f" transform="translate(69.824219 0)"/>
     </g>
    </g>
    <g id="line2d_39">
     <path d="M 807.03049 52.281875 
L 815.03049 52.281875 
L 823.03049 52.281875 
" style="fill: none; stroke: #9467bd; stroke-width: 2; stroke-linecap: square"/>
    </g>
    <g id="text_21">
     <!-- CO2 -->
     <g transform="translate(829.43049 55.081875) scale(0.08 -0.08)">
      <use xlink:href="#DejaVuSans-43"/>
      <use xlink:href="#DejaVuSans-4f" transform="translate(69.824219 0)"/>
      <use xlink:href="#DejaVuSans-32" transform="translate(148.535156 0)"/>
     </g>
    </g>
    <g id="line2d_40">
     <path d="M 807.03049 64.024375 
L 815.03049 64.024375 
L 823.03049 64.024375 
" style="fill: none; stroke: #e377c2; stroke-width: 2; stroke-linecap: square"/>
    </g>
    <g id="text_22">
     <!-- H2 -->
     <g transform="translate(829.43049 66.824375) scale(0.08 -0.08)">
      <use xlink:href="#DejaVuSans-48"/>
      <use xlink:href="#DejaVuSans-32" transform="translate(75.195312 0)"/>
     </g>
    </g>
    <g id="line2d_41">
     <path d="M 807.03049 75.766875 
L 815.03049 75.766875 
L 823.03049 75.766875 
" style="fill: none; stroke: #bcbd22; stroke-width: 2; stroke-linecap: square"/>
    </g>
    <g id="text_23">
     <!-- H2O -->
     <g transform="translate(829.43049 78.566875) scale(0.08 -0.08)">
      <use xlink:href="#DejaVuSans-48"/>
      <use xlink:href="#DejaVuSans-32" transform="translate(75.195312 0)"/>
      <use xlink:href="#DejaVuSans-4f" transform="translate(138.818359 0)"/>
     </g>
    </g>
    <g id="line2d_42">
     <path d="M 807.03049 87.509375 
L 815.03049 87.509375 
L 823.03049 87.509375 
" style="fill: none; stroke: #17becf; stroke-width: 2; stroke-linecap: square"/>
    </g>
    <g id="text_24">
     <!-- N2 -->
     <g transform="translate(829.43049 90.309375) scale(0.08 -0.08)">
      <defs>
       <path id="DejaVuSans-4e" d="M 628 4666 
L 1478 4666 
L 3547 763 
L 3547 4666 
L 4159 4666 
L 4159 0 
L 3309 0 
L 1241 3903 
L 1241 0 
L 628 0 
L 628 4666 
z
" transform="scale(0.015625)"/>
      </defs>
      <use xlink:href="#DejaVuSans-4e"/>
      <use xlink:href="#DejaVuSans-32" transform="translate(74.804688 0)"/>
     </g>
    </g>
   </g>
  </g>
 </g>
 <defs>
  <clipPath id="p8fde3b6fc7">
   <rect x="43.78125" y="22.318125" width="752.524" height="363.16"/>
  </clipPath>
 </defs>
</svg>
